<svg width="85" height="84" viewBox="0 0 85 84" fill="none" xmlns="http://www.w3.org/2000/svg">
<path d="M30.6837 35.8022H30.4917H29.8459C28.9625 35.6714 28.1393 35.2747 27.485 34.6643C26.8306 34.0539 26.3758 33.2586 26.1806 32.3833C25.271 32.8218 24.2749 33.0495 23.2659 33.0495C22.2569 33.0495 21.2608 32.8218 20.3511 32.3833C20.1543 33.2424 19.7072 34.0231 19.0668 34.6258C18.4264 35.2285 17.6218 35.6258 16.7556 35.7671H16.1273H15.9353C14.619 35.7671 13.3564 36.2912 12.424 37.2245C11.4917 38.1578 10.9656 39.4243 10.9609 40.7465V48.1629H35.6406V40.7815C35.6406 39.4609 35.1184 38.1944 34.1888 37.2606C33.2592 36.3268 31.9984 35.8022 30.6837 35.8022Z" fill="#F1D0A4"/>
<path d="M30.6837 35.8022H30.4917H29.8459C29.5669 35.765 29.2921 35.7004 29.0256 35.6094L27.9784 36.6438C27.3641 37.2609 26.6349 37.7504 25.8323 38.0843C25.0297 38.4183 24.1695 38.5902 23.3008 38.5902C22.4321 38.5902 21.5718 38.4183 20.7693 38.0843C19.9667 37.7504 19.2374 37.2609 18.6232 36.6438L17.5934 35.6094C17.3209 35.7005 17.0404 35.765 16.7556 35.8022H16.1273H15.9353C14.619 35.8022 13.3564 36.3263 12.424 37.2596C11.4917 38.1929 10.9656 39.4594 10.9609 40.7816V48.198H35.6406V40.7816C35.6406 40.1277 35.5124 39.4802 35.2633 38.8761C35.0142 38.2719 34.6491 37.723 34.1888 37.2606C33.7285 36.7983 33.182 36.4315 32.5806 36.1813C31.9792 35.931 31.3347 35.8022 30.6837 35.8022Z" fill="#512466"/>
<path d="M30.4917 35.8022H29.8459C29.5669 35.765 29.2921 35.7004 29.0256 35.6094L27.9784 36.6438C27.3641 37.2609 26.6349 37.7504 25.8323 38.0843C25.0297 38.4183 24.1695 38.5902 23.3008 38.5902C22.4321 38.5902 21.5718 38.4183 20.7692 38.0843C19.9667 37.7504 19.2374 37.2609 18.6232 36.6438L17.5934 35.6094C17.3209 35.7005 17.0404 35.765 16.7556 35.8022H16.1273H15.9353C14.619 35.8022 13.3564 36.3263 12.424 37.2596C11.4917 38.1929 10.9656 39.4594 10.9609 40.7816V45.3927C11.4322 45.3927 11.8685 45.3927 12.3398 45.3927C16.1883 45.4709 20.0059 44.6887 23.5166 43.1029C27.0272 41.517 30.143 39.167 32.6386 36.223C32.0231 35.948 31.3573 35.8047 30.6837 35.8022H30.4917Z" fill="#744C76"/>
<path d="M23.3009 33.0496C22.4009 33.0496 21.5098 32.8712 20.6786 32.5247C19.8473 32.1782 19.0923 31.6704 18.4568 31.0303C17.8212 30.3903 17.3176 29.6305 16.9748 28.7947C16.632 27.9588 16.4567 27.0632 16.459 26.1591V23.4065C16.5477 21.6414 17.3082 19.9781 18.5832 18.7603C19.8582 17.5426 21.5503 16.8635 23.3096 16.8635C25.069 16.8635 26.761 17.5426 28.036 18.7603C29.311 19.9781 30.0715 21.6414 30.1602 23.4065V26.1591C30.1602 27.064 29.9828 27.96 29.6381 28.796C29.2934 29.632 28.7881 30.3916 28.1512 31.0314C27.5142 31.6712 26.7581 32.1788 25.9259 32.5251C25.0936 32.8713 24.2017 33.0496 23.3009 33.0496Z" fill="#F1D0A4"/>
<path d="M69.0647 35.8022H68.8727H68.2444C67.361 35.6714 66.5377 35.2747 65.8834 34.6643C65.229 34.0539 64.7743 33.2586 64.5791 32.3833C63.6694 32.8218 62.6733 33.0495 61.6643 33.0495C60.6553 33.0495 59.6592 32.8218 58.7495 32.3833C58.5506 33.2413 58.1028 34.0208 57.4628 34.6232C56.8228 35.2255 56.0193 35.6236 55.154 35.7671H54.5082H54.3163C53.0016 35.7671 51.7408 36.2918 50.8112 37.2256C49.8816 38.1594 49.3594 39.4259 49.3594 40.7465V48.1629H74.039V40.7815C74.0344 39.4593 73.5083 38.1929 72.5759 37.2596C71.6436 36.3263 70.381 35.8022 69.0647 35.8022Z" fill="#F1D0A4"/>
<path d="M69.0647 35.8022H68.8727H68.2444C67.9593 35.767 67.6785 35.7023 67.4066 35.6094L66.3768 36.6438C65.1333 37.8911 63.4478 38.5917 61.6905 38.5917C59.9332 38.5917 58.2477 37.8911 57.0041 36.6438L55.9744 35.6094C55.7078 35.7004 55.4331 35.765 55.154 35.8022H54.5082H54.3163C53.0016 35.8022 51.7408 36.3268 50.8112 37.2606C49.8816 38.1945 49.3594 39.461 49.3594 40.7816V48.198H74.039V40.7816C74.0344 39.4594 73.5083 38.1929 72.5759 37.2596C71.6436 36.3263 70.381 35.8022 69.0647 35.8022Z" fill="#512466"/>
<path d="M68.8727 35.8022H68.2444C67.9593 35.767 67.6785 35.7023 67.4066 35.6094L66.3768 36.6438C65.1333 37.8911 63.4478 38.5917 61.6905 38.5917C59.9332 38.5917 58.2477 37.8911 57.0041 36.6438L55.9744 35.6094C55.7078 35.7004 55.4331 35.765 55.154 35.8022H54.5082H54.3163C53.0016 35.8022 51.7408 36.3268 50.8112 37.2606C49.8816 38.1945 49.3594 39.461 49.3594 40.7816V45.3927C49.8132 45.3927 50.267 45.3927 50.7208 45.3927C54.5718 45.471 58.3921 44.689 61.9056 43.1032C65.419 41.5174 68.538 39.1674 71.037 36.223C70.4149 35.9495 69.7438 35.8063 69.0647 35.8022H68.8727Z" fill="#744C76"/>
<path d="M61.6992 33.0496C59.88 33.0496 58.1353 32.3236 56.8489 31.0314C55.5625 29.7392 54.8398 27.9866 54.8398 26.1591V23.4065C54.9286 21.6414 55.689 19.9781 56.964 18.7603C58.2391 17.5426 59.9311 16.8635 61.6905 16.8635C63.4498 16.8635 65.1419 17.5426 66.4169 18.7603C67.6919 19.9781 68.4524 21.6414 68.5411 23.4065V26.1591C68.5411 27.9836 67.8208 29.7335 66.5382 31.0252C65.2556 32.3169 63.5154 33.0449 61.6992 33.0496Z" fill="#F1D0A4"/>
<path d="M49.8829 31.6818H49.6735C49.4644 31.6991 49.2543 31.6991 49.0452 31.6818C48.1594 31.5499 47.3345 31.1505 46.6799 30.5368C46.0253 29.9231 45.5719 29.1239 45.3799 28.2454C44.4702 28.6839 43.4741 28.9115 42.4651 28.9115C41.4561 28.9115 40.46 28.6839 39.5503 28.2454C39.3414 29.0915 38.889 29.857 38.2496 30.4464C37.6101 31.0357 36.812 31.4227 35.9548 31.5591C35.7457 31.5764 35.5356 31.5764 35.3265 31.5591H35.117C33.8024 31.5591 32.5416 32.0837 31.612 33.0175C30.6824 33.9513 30.1602 35.2178 30.1602 36.5384V42.5697H54.8398V36.6611C54.8398 35.3405 54.3176 34.074 53.388 33.1402C52.4584 32.2064 51.1976 31.6818 49.8829 31.6818Z" fill="#F1D0A4"/>
<path d="M49.8829 31.6819H49.6735C49.4644 31.6992 49.2543 31.6992 49.0452 31.6819C48.7661 31.6446 48.4914 31.5801 48.2248 31.489L47.1776 32.541C46.5633 33.1581 45.8341 33.6476 45.0315 33.9815C44.2289 34.3155 43.3687 34.4874 42.5 34.4874C41.6313 34.4874 40.7711 34.3155 39.9685 33.9815C39.1659 33.6476 38.4366 33.1581 37.8224 32.541L36.7751 31.489C36.5086 31.5801 36.2339 31.6446 35.9548 31.6819C35.7457 31.6992 35.5356 31.6992 35.3265 31.6819H35.117C33.8024 31.6819 32.5416 32.2065 31.612 33.1403C30.6824 34.0741 30.1602 35.3406 30.1602 36.6612V42.6925H54.8398V36.6612C54.8398 35.3406 54.3176 34.0741 53.388 33.1403C52.4584 32.2065 51.1976 31.6819 49.8829 31.6819Z" fill="#512466"/>
<path d="M49.6735 31.6819C49.4644 31.6992 49.2543 31.6992 49.0452 31.6819C48.7661 31.6446 48.4914 31.5801 48.2248 31.489L47.1776 32.541C46.5633 33.1581 45.8341 33.6476 45.0315 33.9815C44.2289 34.3155 43.3687 34.4874 42.5 34.4874C41.6313 34.4874 40.7711 34.3155 39.9685 33.9815C39.1659 33.6476 38.4366 33.1581 37.8224 32.541L36.7751 31.489C36.5086 31.5801 36.2339 31.6446 35.9548 31.6819C35.7457 31.6992 35.5356 31.6992 35.3265 31.6819H35.117C33.8024 31.6819 32.5416 32.2065 31.612 33.1403C30.6824 34.0741 30.1602 35.3406 30.1602 36.6612V41.2548C30.614 41.2548 31.0678 41.2548 31.539 41.2548C35.3879 41.3355 39.2063 40.5544 42.7173 38.9684C46.2283 37.3823 49.3438 35.031 51.8378 32.0851C51.2212 31.8156 50.5554 31.6783 49.8829 31.6819H49.6735Z" fill="#744C76"/>
<path d="M42.5 28.9117C41.6 28.914 40.7084 28.738 39.8763 28.3936C39.0442 28.0492 38.2879 27.5433 37.6507 26.9049C37.0136 26.2665 36.508 25.508 36.1631 24.673C35.8182 23.838 35.6406 22.9429 35.6406 22.0388V19.2862C35.6406 17.4587 36.3633 15.7061 37.6497 14.4139C38.9361 13.1217 40.6808 12.3958 42.5 12.3958C44.3192 12.3958 46.0639 13.1217 47.3503 14.4139C48.6366 15.7061 49.3593 17.4587 49.3593 19.2862V22.0388C49.3593 22.9429 49.1818 23.838 48.8368 24.673C48.4919 25.508 47.9864 26.2665 47.3492 26.9049C46.712 27.5433 45.9557 28.0492 45.1236 28.3936C44.2915 28.738 43.3999 28.914 42.5 28.9117Z" fill="#F1D0A4"/>
<path d="M47.9805 67.484L76.7967 59.6117C77.9033 59.2767 79.0874 59.3052 80.1767 59.6931C81.266 60.0809 82.2037 60.808 82.8532 61.7683C83.4126 62.6543 83.7093 63.6821 83.7084 64.7313V66.0989L39.7597 81.2473L31.539 78.4946H20.5605V56.4558H37.0195L47.9805 67.484Z" fill="#F1D0A4"/>
<path d="M1.37891 53.7031H12.3399V83.9999H1.37891V53.7031Z" fill="#512466"/>
<path d="M12.3398 53.7031H20.5606V81.2473H12.3398V53.7031Z" fill="#744C76"/>
<path d="M43.8614 74.1289C43.171 74.1306 42.4872 73.9952 41.8492 73.7304C41.2111 73.4656 40.6315 73.0767 40.1437 72.5861L33.2844 65.6956L35.2217 63.7495L42.0811 70.6399C42.5648 70.9694 43.1477 71.1192 43.7295 71.0637C44.3113 71.0081 44.8556 70.7507 45.2688 70.3355C45.6821 69.9204 45.9384 69.3736 45.9937 68.7892C46.049 68.2047 45.8998 67.6192 45.5718 67.1333L36.4435 57.8584H20.5605V55.0882H37.0195C37.1984 55.086 37.3759 55.1206 37.5411 55.1899C37.7062 55.2593 37.8554 55.3619 37.9794 55.4915L47.579 65.1346C48.0672 65.6232 48.4545 66.2039 48.7188 66.8432C48.9831 67.4826 49.1191 68.168 49.1191 68.8603C49.1191 69.5526 48.9831 70.2381 48.7188 70.8774C48.4545 71.5167 48.0672 72.0974 47.579 72.5861C47.0912 73.0767 46.5116 73.4656 45.8736 73.7304C45.2355 73.9952 44.5517 74.1306 43.8614 74.1289Z" fill="#ECBB88"/>
<path d="M82.9928 55.7195L80.3747 54.8779C80.6365 54.0363 80.8809 53.1246 81.0903 52.3356L83.7433 53.0019C83.5339 53.9136 83.2721 54.7551 82.9928 55.7195ZM84.3368 50.2492L81.6314 49.7758C81.7885 48.9167 81.9107 48.0225 82.0154 47.1634L84.7382 47.479C84.6335 48.4082 84.4938 49.3375 84.3368 50.2492ZM0.558522 49.9511C0.453799 49.092 0.331622 48.0927 0.226899 47.1634L2.94969 46.8829C3.05441 47.7595 3.15914 48.6362 3.31622 49.4778L0.558522 49.9511ZM84.8953 44.6913L82.155 44.5686C82.155 43.9549 82.155 43.3237 82.155 42.7101C82.155 42.4471 82.155 42.1841 82.155 41.9211H84.8953C84.8953 42.2016 84.8953 42.4821 84.8953 42.7627C84.8953 43.4289 84.8953 44.0776 84.8953 44.7439V44.6913ZM0 44.3582C0 43.7971 0 43.2536 0 42.6925C0 42.1315 0 41.9211 0 41.5354H2.74025C2.74025 41.886 2.74025 42.2367 2.74025 42.6049C2.74025 42.9731 2.74025 43.6393 2.74025 44.1653L0 44.3582ZM82.0329 39.2912C82.0329 38.397 81.8409 37.5379 81.7187 36.6788L84.424 36.258C84.5637 37.1872 84.6858 38.1165 84.7556 39.0457L82.0329 39.2912ZM2.91478 38.9931L0.174538 38.7301C0.174538 37.8009 0.383984 36.8716 0.523614 35.9424L3.22895 36.3807C3.10678 37.2398 2.9846 38.1165 2.91478 38.9931ZM81.3347 34.0839C81.1427 33.2248 80.9333 32.3306 80.6889 31.5416L83.3244 30.7702C83.5862 31.6644 83.8131 32.5235 84.0051 33.4878L81.3347 34.0839ZM3.73511 33.8034L1.06468 33.1897C1.25667 32.278 1.50103 31.4364 1.76283 30.4721L4.39836 31.2611C4.154 32.0851 3.9271 32.9443 3.73511 33.8034ZM79.8686 29.0344C79.5719 28.2104 79.2577 27.4039 78.9086 26.5974L81.4045 25.4928C81.7885 26.3344 82.1376 27.2461 82.4517 28.1052L79.8686 29.0344ZM5.23614 28.7714L2.67043 27.8071C3.00205 26.9305 3.35113 26.0538 3.73511 25.1947L6.21355 26.2993C5.86448 27.0883 5.53285 27.8948 5.21869 28.7364L5.23614 28.7714ZM77.7741 24.2304C77.3727 23.459 76.9538 22.7051 76.5 21.9511L78.8388 20.5134C79.3275 21.32 79.7813 22.144 80.2177 22.968L77.7741 24.2304ZM7.38296 23.9674L4.95688 22.67C5.39322 21.8459 5.86448 21.0219 6.35318 20.2329L8.7269 21.6881C8.2731 22.4245 7.83676 23.196 7.43532 23.9674H7.38296ZM75.0513 19.7595C74.5452 19.0407 74.0216 18.3394 73.463 17.6556L75.6099 15.9023C76.1858 16.6387 76.7443 17.3751 77.3552 18.1465L75.0513 19.7595ZM10.1407 19.4965L7.90657 17.8835C8.44764 17.1296 9.02361 16.3757 9.65195 15.6568L11.7813 17.4101C11.1704 18.0764 10.6468 18.7777 10.1407 19.4965ZM71.77 15.6568C71.1766 15.0081 70.5657 14.3769 69.9199 13.7808L71.8224 11.7821C72.5031 12.4308 73.1489 13.1146 73.7772 13.7984L71.77 15.6568ZM13.4569 15.4289L11.4497 13.5354C12.0955 12.8516 12.7587 12.1853 13.422 11.5541L15.307 13.5704C14.6786 14.149 14.0503 14.7802 13.4569 15.4289ZM67.9651 12.0275C67.3018 11.4665 66.6211 10.923 65.9055 10.4145L67.5287 8.18783C68.2793 8.73135 69.0123 9.30994 69.7279 9.94112L67.9651 12.0275ZM17.3491 11.8171L15.6037 9.69566C16.3193 9.09954 17.0524 8.53849 17.8203 7.94237L19.4086 10.1866C18.6407 10.7301 17.9425 11.2736 17.2618 11.8171H17.3491ZM63.7413 8.92422C63.0082 8.45083 62.2577 8.01251 61.4897 7.59172L62.8337 5.25984C63.6598 5.7157 64.4627 6.18909 65.2423 6.68001L63.7413 8.92422ZM21.5205 8.76642L20.0719 6.41701C20.8573 5.92609 21.6776 5.45271 22.4979 5.01438L23.7895 7.45145C23.0216 7.85471 22.2536 8.29303 21.5205 8.76642ZM59.1509 6.41701C58.348 6.04882 57.5452 5.69817 56.7248 5.38257L57.7023 2.82277C58.5749 3.1559 59.4476 3.52409 60.2854 3.90981L59.1509 6.41701ZM26.1807 6.27675L25.0462 3.76955C25.9014 3.40136 26.7916 3.03317 27.6294 2.70004L28.537 5.25984C27.7341 5.57544 26.9138 5.90856 26.1283 6.25922L26.1807 6.27675ZM54.2988 4.52346C53.4784 4.278 52.5534 4.03254 51.768 3.83968L52.3614 1.15715C53.269 1.36755 54.1068 1.61301 55.0667 1.89353L54.2988 4.52346ZM31.0852 4.4358L30.23 1.75327C31.1201 1.49028 31.9754 1.24482 32.9353 1.03442L33.5462 3.71695C32.7084 3.96241 31.8532 4.19034 31.0329 4.4358H31.0852ZM49.2197 3.3137C48.3645 3.17343 47.4743 3.0507 46.6191 2.96304L46.846 0.227909C47.7885 0.30973 48.7136 0.43246 49.6211 0.5961L49.2197 3.3137ZM36.1817 3.3137L35.693 0.543501C36.653 0.403238 37.5431 0.280508 38.3984 0.192844L38.6427 2.92797C37.77 3.01564 36.8973 3.12083 36.0595 3.2611L36.1817 3.3137ZM44.001 2.84031H42.4302H41.383V0.0876465H42.6222H44.1756L44.001 2.84031Z" fill="#E5531C"/>
</svg>
