<svg width="1198" height="571" viewBox="0 0 1198 571" fill="none" xmlns="http://www.w3.org/2000/svg">
<rect x="-2" y="0.000488281" width="1200" height="571" fill="#DDECFF"/>
<path d="M1198 342.788C1166.09 313.318 1136.7 310.542 1118.3 310.542C1023.32 310.542 960.11 442 825.329 442C707.27 442 676.166 354.529 667.638 339.978C659.11 325.427 626 233.473 603.425 213.47C580.85 193.467 500.817 140.047 465.466 68.0294C456.403 49.5651 448.41 16.1819 448.41 0.460445L1198 0.46051L1198 342.788Z" fill="#C9C6D9" fill-opacity="0.5"/>
<path d="M-2.10103 177.084C84.9883 176.75 239 74.6606 239 0.000183105L-2.10101 0.000162028L-2.10103 177.084Z" fill="#F1D0A4" fill-opacity="0.5"/>
</svg>
