<svg width="87" height="92" viewBox="0 0 87 92" fill="none" xmlns="http://www.w3.org/2000/svg">
<g clip-path="url(#clip0)">
<path fill-rule="evenodd" clip-rule="evenodd" d="M43.5349 78.9269C50.0505 78.9234 56.4188 76.9889 61.8346 73.3678C67.2504 69.7467 71.4706 64.6017 73.9617 58.5832C76.4527 52.5647 77.1027 45.9431 75.8294 39.5553C74.5562 33.1676 71.4169 27.3007 66.8085 22.6963C62.2 18.092 56.3294 14.9569 49.9387 13.6875C43.5481 12.4181 36.9244 13.0713 30.9051 15.5647C24.8858 18.058 19.7412 22.2794 16.1217 27.6952C12.5022 33.1111 10.5703 39.4781 10.5703 45.9914C10.607 54.7182 14.0924 63.0767 20.267 69.2459C26.4416 75.4151 34.805 78.8948 43.5349 78.9269Z" fill="#B4ADBB"/>
<path fill-rule="evenodd" clip-rule="evenodd" d="M10.5879 44.651H24.6932C24.8005 44.6558 24.9076 44.6385 25.0079 44.6001C25.1082 44.5618 25.1996 44.5033 25.2763 44.4282C25.3531 44.3531 25.4136 44.2631 25.454 44.1636C25.4945 44.0642 25.5141 43.9575 25.5116 43.8502C25.6733 38.7992 26.463 33.7879 27.8625 28.9318C28.0192 28.4095 27.967 28.1136 27.3575 27.8525C24.6338 26.6651 22.1359 25.0161 19.974 22.9783C20.6009 22.3516 21.2626 21.7249 21.9418 21.1331C23.788 22.8721 25.9205 24.2796 28.2456 25.2935C28.8029 25.5546 29.0815 25.2935 29.2905 24.8757C29.7084 23.9009 30.0915 22.9957 30.5443 22.1079C32.0958 18.724 34.4951 15.798 37.5098 13.6129C41.471 12.8933 45.5295 12.8933 49.4906 13.6129C52.5053 15.798 54.9046 18.724 56.4562 22.1079C56.9089 22.9957 57.2921 23.8487 57.71 24.8757C57.919 25.3458 58.1976 25.5546 58.7548 25.2935C61.0828 24.2753 63.2204 22.8684 65.0761 21.1331C65.7378 21.7249 66.3995 22.3516 67.0265 22.9783C64.8693 25.0055 62.3847 26.6535 59.6778 27.8525C59.0683 28.1136 59.016 28.4095 59.1728 28.9318C60.5693 33.7874 61.3474 38.7998 61.4888 43.8502C61.4887 43.9584 61.5105 44.0654 61.5529 44.1649C61.5954 44.2644 61.6575 44.3543 61.7356 44.4291C61.8137 44.5039 61.9062 44.5622 62.0074 44.6003C62.1087 44.6384 62.2166 44.6557 62.3247 44.651H76.4126C76.4126 45.5562 76.4126 46.3917 76.4126 47.3492H62.3247C62.2166 47.3445 62.1087 47.3617 62.0074 47.3998C61.9062 47.438 61.8137 47.4962 61.7356 47.571C61.6575 47.6459 61.5954 47.7357 61.5529 47.8352C61.5105 47.9347 61.4887 48.0418 61.4888 48.1499C61.3588 53.1931 60.5923 58.1997 59.2076 63.051C59.0509 63.5906 59.1031 63.8691 59.7126 64.1476C62.4319 65.3355 64.9288 66.978 67.0961 69.0044C66.4692 69.6485 65.8075 70.2752 65.1457 70.8496C63.2846 69.1258 61.148 67.7254 58.8245 66.7066C58.2672 66.4455 57.9886 66.7066 57.7796 67.1244C57.3617 68.0818 56.9786 69.0044 56.5258 69.8922C54.9689 73.2727 52.5706 76.1976 49.5603 78.3872C45.5991 79.1068 41.5406 79.1068 37.5795 78.3872C34.5691 76.1976 32.1709 73.2727 30.6139 69.8922C30.1611 69.0044 29.778 68.1514 29.3601 67.1244C29.1511 66.6544 28.8725 66.4455 28.3153 66.7066C25.9946 67.721 23.863 69.1219 22.0114 70.8496C21.3323 70.2752 20.6706 69.6485 20.0437 69.0044C22.1978 66.9824 24.6835 65.3454 27.3923 64.1651C28.0018 63.8865 28.0541 63.608 27.8973 63.0684C26.5093 58.2168 25.7313 53.2112 25.5813 48.1673C25.5838 48.06 25.5642 47.9533 25.5237 47.8539C25.4832 47.7544 25.4227 47.6644 25.346 47.5893C25.2692 47.5142 25.1779 47.4557 25.0776 47.4174C24.9772 47.3791 24.8701 47.3618 24.7628 47.3666H10.5879C10.5879 46.4614 10.5879 45.6258 10.5879 44.6684V44.651ZM44.8585 48.2718C44.8932 48.0395 45.0016 47.8244 45.1678 47.6583C45.3339 47.4922 45.5491 47.3839 45.7814 47.3492H57.9712C58.5981 47.3492 58.7897 47.6973 58.7548 48.1499C58.6423 52.8647 57.9224 57.5453 56.6129 62.0761C56.4214 62.6854 56.1602 62.7724 55.6029 62.6158C52.3496 61.6764 49.004 61.0927 45.6247 60.875C44.9978 60.875 44.8063 60.5094 44.8237 60.0394L44.8585 48.2718ZM54.7496 65.1921C51.7934 64.3131 48.7407 63.7986 45.6595 63.6602C45.5548 63.6501 45.4491 63.6626 45.3497 63.697C45.2502 63.7314 45.1594 63.7869 45.0833 63.8596C45.0073 63.9323 44.9478 64.0206 44.909 64.1183C44.8702 64.2161 44.853 64.3211 44.8585 64.4262V76.6116C44.8585 77.0816 45.1023 77.395 45.6421 77.2209C48.8637 76.2635 51.8067 73.1475 54.0879 68.6389C54.5058 67.8381 54.8541 67.0373 55.2372 66.1495C55.481 65.5751 55.272 65.3488 54.7496 65.1921ZM44.8585 43.7283C44.8932 43.9607 45.0016 44.1757 45.1678 44.3418C45.3339 44.5079 45.5491 44.6163 45.7814 44.651H57.9712C58.5981 44.651 58.7897 44.2854 58.7548 43.8502C58.6395 39.1357 57.9196 34.4554 56.6129 29.924C56.4214 29.3321 56.1602 29.2451 55.6029 29.4018C52.3477 30.3327 49.003 30.9163 45.6247 31.1425C44.9978 31.1425 44.8063 31.5081 44.8237 31.9781L44.8585 43.7283ZM54.7496 26.808C51.7934 27.687 48.7407 28.2015 45.6595 28.3399C45.5533 28.3504 45.446 28.3374 45.3452 28.302C45.2444 28.2666 45.1527 28.2096 45.0763 28.1349C45 28.0603 44.9409 27.9698 44.9033 27.8699C44.8656 27.7699 44.8504 27.663 44.8585 27.5565V15.3711C44.8585 14.9011 45.1023 14.5878 45.6421 14.7444C48.8637 15.7193 51.8067 18.8353 54.0879 23.3439C54.5058 24.1446 54.8541 24.928 55.2372 25.8332C55.481 26.4424 55.2372 26.6513 54.7496 26.8254V26.808ZM42.1593 48.2718C42.1196 48.0416 42.0096 47.8293 41.8443 47.6641C41.6791 47.4989 41.4667 47.3889 41.2364 47.3492H29.0467C28.4198 47.3492 28.2456 47.6973 28.263 48.1499C28.3926 52.8632 29.1122 57.5416 30.4049 62.0761C30.5965 62.6854 30.8577 62.7724 31.415 62.6158C34.6686 61.678 38.0141 61.0944 41.3931 60.875C42.02 60.875 42.2116 60.5094 42.2116 60.0394V48.2718H42.1593ZM32.2508 65.1921C35.2077 64.3159 38.2601 63.8016 41.3409 63.6602C41.4464 63.6503 41.5528 63.6629 41.6531 63.6972C41.7534 63.7315 41.8452 63.7866 41.9226 63.859C41.9999 63.9314 42.0611 64.0194 42.1019 64.1172C42.1427 64.215 42.1623 64.3203 42.1593 64.4262V76.6116C42.1593 77.0816 41.8981 77.395 41.3757 77.2209C38.1541 76.2635 35.1938 73.1475 32.9126 68.6389C32.4946 67.8381 32.1463 67.0373 31.7806 66.1495C31.5194 65.5751 31.7284 65.3488 32.2508 65.1921ZM42.1593 43.7283C42.1196 43.9586 42.0096 44.1708 41.8443 44.336C41.6791 44.5012 41.4667 44.6112 41.2364 44.651H29.0467C28.938 44.67 28.8262 44.6623 28.7212 44.6286C28.6161 44.5948 28.5209 44.5359 28.4437 44.457C28.3666 44.3782 28.3098 44.2817 28.2783 44.176C28.2468 44.0702 28.2416 43.9584 28.263 43.8502C28.3953 39.1372 29.1149 34.4591 30.4049 29.924C30.5965 29.3321 30.8577 29.2451 31.415 29.4018C34.6705 30.3312 38.0151 30.9147 41.3931 31.1425C42.02 31.1425 42.2116 31.5081 42.2116 31.9781V43.8328L42.1593 43.7283ZM32.2508 26.808C35.2077 27.6842 38.2601 28.1986 41.3409 28.3399C41.4473 28.3472 41.5541 28.3322 41.6543 28.2959C41.7546 28.2596 41.8462 28.2027 41.9233 28.129C42.0003 28.0553 42.0611 27.9662 42.1018 27.8677C42.1424 27.7691 42.162 27.6631 42.1593 27.5565V15.3711C42.1593 14.9011 41.8981 14.5878 41.3757 14.7444C38.1541 15.7193 35.1938 18.8353 32.9126 23.3439C32.4946 24.1446 32.1463 24.928 31.7806 25.8332C31.5194 26.4424 31.7806 26.6513 32.2508 26.8254V26.808Z" fill="#E5531C"/>
<path fill-rule="evenodd" clip-rule="evenodd" d="M68.3324 0C72.1262 0.0212113 75.8236 1.19633 78.933 3.36909C82.0424 5.54186 84.4166 8.60933 85.7398 12.1636C87.0629 15.7179 87.2725 19.5907 86.3405 23.2669C85.4085 26.9431 83.3791 30.2487 80.5222 32.744H56.0556C53.1932 30.2438 51.1617 26.9303 50.2323 23.2459C49.3028 19.5614 49.5195 15.6812 50.8536 12.1231C52.1876 8.565 54.5755 5.49825 57.6986 3.33215C60.8216 1.16604 64.5313 0.00361206 68.3324 0Z" fill="#744C76"/>
<path fill-rule="evenodd" clip-rule="evenodd" d="M18.6677 92.0001C22.364 92.0035 25.9783 90.911 29.0534 88.8607C32.1284 86.8103 34.5261 83.8944 35.943 80.4816C37.3599 77.0689 37.7324 73.3127 37.0134 69.6883C36.2944 66.0638 34.5162 62.734 31.9037 60.12C29.2912 57.5061 25.9619 55.7254 22.3368 55.0033C18.7118 54.2811 14.954 54.65 11.5387 56.0632C8.1234 57.4764 5.20415 59.8705 3.15023 62.9425C1.09631 66.0146 1.60524e-06 69.6266 0 73.3216C0.00918964 78.2696 1.97836 83.0126 5.47675 86.513C8.97514 90.0134 13.718 91.9863 18.6677 92.0001Z" fill="#744C76"/>
<path fill-rule="evenodd" clip-rule="evenodd" d="M61.9416 20.5586H74.7234C76.283 20.5632 77.7775 21.1846 78.8803 22.287C79.9831 23.3894 80.6047 24.8833 80.6093 26.4424V32.744C77.2068 35.7085 72.8459 37.3416 68.3325 37.3416C63.8191 37.3416 59.4582 35.7085 56.0557 32.744V26.4424C56.0603 24.8833 56.6819 23.3894 57.7847 22.287C58.8875 21.1846 60.3819 20.5632 61.9416 20.5586Z" fill="#2D2D7B"/>
<path fill-rule="evenodd" clip-rule="evenodd" d="M12.2767 75.219H25.0585C26.6182 75.2236 28.1126 75.845 29.2154 76.9474C30.3182 78.0498 30.9398 79.5437 30.9444 81.1028V87.4044C27.5447 90.3676 23.1868 92.0001 18.6763 92.0001C14.1658 92.0001 9.80789 90.3676 6.4082 87.4044V81.1028C6.41277 79.5467 7.03197 78.0555 8.13104 76.9535C9.23011 75.8516 10.7201 75.2282 12.2767 75.219Z" fill="#937D95"/>
<path fill-rule="evenodd" clip-rule="evenodd" d="M24.623 71.1804C24.623 72.7593 23.9956 74.2736 22.8787 75.3901C21.7618 76.5066 20.247 77.1339 18.6675 77.1339C17.088 77.1339 15.5731 76.5066 14.4563 75.3901C13.3394 74.2736 12.7119 72.7593 12.7119 71.1804V64.7918C12.7165 63.9083 13.0708 63.0627 13.6973 62.4396C14.3239 61.8166 15.1717 61.4669 16.0554 61.4669H23.7349C23.8556 61.4494 23.9787 61.4602 24.0945 61.4987C24.2102 61.5371 24.3154 61.602 24.4017 61.6882C24.4879 61.7744 24.5528 61.8795 24.5913 61.9952C24.6297 62.1109 24.6406 62.234 24.623 62.3547V71.1804Z" fill="#F1D0A4"/>
<path fill-rule="evenodd" clip-rule="evenodd" d="M12.7119 64.7918V66.724H24.623V62.3547C24.6406 62.234 24.6297 62.1109 24.5913 61.9952C24.5528 61.8795 24.4879 61.7744 24.4017 61.6882C24.3154 61.602 24.2102 61.5371 24.0945 61.4987C23.9787 61.4602 23.8556 61.4494 23.7349 61.4669H16.0554C15.1717 61.4669 14.3239 61.8166 13.6973 62.4396C13.0708 63.0627 12.7165 63.9083 12.7119 64.7918Z" fill="#487C9F"/>
<path fill-rule="evenodd" clip-rule="evenodd" d="M74.2881 16.5199C74.2881 18.0989 73.6606 19.6132 72.5437 20.7297C71.4269 21.8461 69.912 22.4734 68.3325 22.4734C66.753 22.4734 65.2382 21.8461 64.1213 20.7297C63.0044 19.6132 62.377 18.0989 62.377 16.5199V10.1487C62.3769 9.26526 62.7268 8.41777 63.3501 7.79146C63.9733 7.16516 64.8193 6.811 65.703 6.8064H70.9272C71.8109 6.811 72.6569 7.16516 73.2801 7.79146C73.9034 8.41777 74.2533 9.26526 74.2533 10.1487V16.5199H74.2881Z" fill="#F1D0A4"/>
<path fill-rule="evenodd" clip-rule="evenodd" d="M62.377 10.1487V12.464C63.004 12.7104 63.6782 12.8133 64.3502 12.7651C65.0222 12.7169 65.6749 12.5189 66.2603 12.1854C66.8872 11.8373 66.9917 11.7677 67.6186 12.3073C68.5501 13.0323 69.6478 13.5138 70.8122 13.7084C71.9767 13.9029 73.1713 13.8043 74.2881 13.4214V10.1487C74.2881 9.26531 73.9382 8.41781 73.315 7.79151C72.6917 7.16521 71.8457 6.81104 70.962 6.80644H65.7378C65.2973 6.80415 64.8607 6.88891 64.453 7.05584C64.0453 7.22278 63.6747 7.46861 63.3624 7.7792C63.0501 8.08979 62.8022 8.45901 62.6331 8.86566C62.464 9.2723 62.3769 9.70835 62.377 10.1487Z" fill="#487C9F"/>
<path fill-rule="evenodd" clip-rule="evenodd" d="M69.795 13.4213V16.5198C69.7985 17.6932 69.457 18.8418 68.8131 19.8228C68.1691 20.8039 67.251 21.5742 66.1729 22.0381C67.0777 22.4019 68.0579 22.5387 69.0278 22.4366C69.9977 22.3344 70.9278 21.9964 71.7369 21.452C72.546 20.9077 73.2094 20.1736 73.6693 19.3138C74.1291 18.454 74.3713 17.4948 74.3748 16.5198V13.3342C72.8917 13.8229 71.2956 13.8532 69.795 13.4213Z" fill="#ECBB88"/>
<path fill-rule="evenodd" clip-rule="evenodd" d="M66.4688 6.8064C67.3525 6.811 68.1984 7.16516 68.8217 7.79146C69.445 8.41777 69.7948 9.26526 69.7948 10.1487V13.4213C71.2597 13.8638 72.8227 13.8638 74.2876 13.4213V10.1487C74.2876 9.26526 73.9378 8.41777 73.3145 7.79146C72.6912 7.16516 71.8453 6.811 70.9615 6.8064H66.4688Z" fill="#2D2D7B"/>
<path fill-rule="evenodd" clip-rule="evenodd" d="M19.2422 61.4669C19.3629 61.4535 19.485 61.467 19.5998 61.5067C19.7146 61.5463 19.8191 61.6109 19.9058 61.6959C19.9924 61.7809 20.0591 61.8841 20.101 61.998C20.1428 62.112 20.1588 62.2338 20.1477 62.3547V66.724H24.6231V62.3547C24.6406 62.234 24.6297 62.1109 24.5913 61.9952C24.5529 61.8795 24.4879 61.7744 24.4017 61.6882C24.3155 61.602 24.2103 61.5371 24.0945 61.4987C23.9788 61.4602 23.8557 61.4494 23.735 61.4669H19.2422Z" fill="#2D2D7B"/>
<path fill-rule="evenodd" clip-rule="evenodd" d="M20.1485 66.7239V71.1803C20.141 72.3649 19.7832 73.521 19.1201 74.5029C18.457 75.4848 17.5183 76.2487 16.4219 76.6985C17.1364 76.9845 17.8987 77.1321 18.6683 77.1337C20.2464 77.1291 21.7585 76.5004 22.8744 75.3849C23.9903 74.2694 24.6192 72.7578 24.6238 71.1803V66.7239H20.1485Z" fill="#ECBB88"/>
</g>
<defs>
<clipPath id="clip0">
<rect width="87" height="92" fill="white"/>
</clipPath>
</defs>
</svg>
