<svg width="76" height="92" viewBox="0 0 76 92" fill="none" xmlns="http://www.w3.org/2000/svg">
<g clip-path="url(#clip0)">
<path d="M34.648 15.4058H37.9568V12.0635C37.9591 11.0105 37.7547 9.96737 37.3552 8.99384C36.9557 8.02031 36.3691 7.1355 35.6289 6.39009C34.8887 5.64467 34.0094 5.05328 33.0414 4.64977C32.0735 4.24627 31.0358 4.03857 29.9878 4.03857H27.4066C27.2182 4.03857 27.0375 4.11377 26.9043 4.24762C26.7711 4.38147 26.6963 4.563 26.6963 4.75229V7.38086C26.6963 9.5032 27.5329 11.5391 29.0232 13.0431C30.5134 14.5471 32.5359 15.3966 34.648 15.4058Z" fill="#B5D69E"/>
<path d="M37.9915 16.7984C37.8104 16.7968 37.6313 16.759 37.4648 16.6873C37.2982 16.6156 37.1475 16.5113 37.0214 16.3806L32.2573 11.6109C32.0184 11.346 31.8901 10.9989 31.8989 10.6415C31.9076 10.2842 32.0528 9.94387 32.3044 9.69109C32.5559 9.43832 32.8946 9.29242 33.2502 9.28363C33.6059 9.27483 33.9513 9.40379 34.2149 9.64382L38.979 14.4136C39.1676 14.6115 39.2947 14.8604 39.3448 15.1297C39.3948 15.3991 39.3657 15.6773 39.261 15.9303C39.1562 16.1833 38.9803 16.4001 38.7549 16.5543C38.5295 16.7085 38.2642 16.7933 37.9915 16.7984Z" fill="#78C2A5"/>
<path d="M41.3174 11.3673H37.9912V8.02498C37.9912 5.89662 38.8326 3.85544 40.3303 2.35046C41.8281 0.845486 43.8594 0 45.9775 0L48.5934 0C48.7818 0 48.9625 0.0751951 49.0957 0.209043C49.2289 0.342891 49.3037 0.524428 49.3037 0.713718V3.34229C49.3037 5.47065 48.4623 7.51183 46.9646 9.0168C45.4669 10.5218 43.4355 11.3673 41.3174 11.3673Z" fill="#B5D69E"/>
<path d="M37.9911 12.7426C37.7986 12.7436 37.6081 12.7038 37.432 12.6258C37.2558 12.5479 37.0981 12.4334 36.9689 12.29C36.8483 12.1529 36.7556 11.9932 36.6964 11.8201C36.6372 11.647 36.6125 11.4639 36.6237 11.2812C36.635 11.0985 36.682 10.9198 36.762 10.7554C36.8421 10.591 36.9536 10.444 37.0902 10.3229L41.8196 6.11024C41.9513 5.9693 42.1108 5.85746 42.2879 5.78184C42.465 5.70622 42.6558 5.66848 42.8482 5.67102C43.0405 5.67356 43.2303 5.71632 43.4053 5.79659C43.5804 5.87685 43.7369 5.99286 43.8648 6.13723C43.9928 6.28159 44.0895 6.45116 44.1487 6.63512C44.2079 6.81908 44.2283 7.01341 44.2086 7.20573C44.189 7.39806 44.1297 7.58416 44.0345 7.7522C43.9394 7.92024 43.8105 8.06654 43.656 8.18177L38.9092 12.3944C38.6593 12.6251 38.3303 12.7498 37.9911 12.7426Z" fill="#78C2A5"/>
<path d="M37.9917 27.2257C37.8106 27.2257 37.6312 27.1896 37.464 27.1194C37.2968 27.0492 37.1451 26.9463 37.0178 26.8168C36.8905 26.6872 36.7901 26.5335 36.7223 26.3647C36.6546 26.1958 36.6209 26.0151 36.6232 25.8331V11.315C36.6209 11.1329 36.6546 10.9522 36.7223 10.7834C36.7901 10.6145 36.8905 10.4608 37.0178 10.3313C37.1451 10.2017 37.2968 10.0989 37.464 10.0287C37.6312 9.95849 37.8106 9.92235 37.9917 9.92236C38.3593 9.92236 38.7118 10.0691 38.9717 10.3303C39.2316 10.5914 39.3777 10.9456 39.3777 11.315V25.8331C39.3777 26.2024 39.2316 26.5566 38.9717 26.8178C38.7118 27.079 38.3593 27.2257 37.9917 27.2257Z" fill="#78C2A5"/>
<path d="M73.2283 69.2655L63.3883 71.3718L61.8984 64.4087L71.7384 62.2676C72.6573 62.069 73.6171 62.2454 74.4066 62.758C75.1961 63.2705 75.7506 64.0772 75.9481 65.0006C76.1457 65.9239 75.9701 66.8884 75.4601 67.6816C74.95 68.4749 74.1472 69.0321 73.2283 69.2307V69.2655Z" fill="#ECBB88"/>
<path d="M2.7717 69.2655L12.6117 71.3719L14.1015 64.4088L4.26156 62.3721C3.34264 62.1735 2.38287 62.3499 1.5934 62.8625C0.803926 63.375 0.249412 64.1817 0.0518448 65.1051C-0.145722 66.0284 0.0298407 66.9928 0.539912 67.7861C1.04998 68.5794 1.85278 69.1366 2.7717 69.3352V69.2655Z" fill="#ECBB88"/>
<path d="M71.9115 54.5384C71.9069 63.5751 68.3311 72.2402 61.9704 78.6285C55.6096 85.0168 46.9845 88.6054 37.9913 88.6054C19.2641 88.6054 6.80821 73.3562 6.80821 54.5384C6.77357 47.0009 6.51371 40.0378 10.6368 34.4325C15.5361 27.6789 22.7395 22.9753 30.8711 21.22C32.0145 20.9763 33.1925 23.483 34.3359 23.3611C35.4793 23.2393 36.7439 20.4714 37.9566 20.4714C49.3384 20.4714 56.7357 26.1115 62.8857 34.7458C65.7961 38.8366 70.5082 43.6063 71.3918 48.759C71.7116 50.6688 71.8739 52.6018 71.8768 54.5384H71.9115Z" fill="#B4ADBB"/>
<path d="M71.409 48.7417C70.049 40.8272 65.9498 33.6501 59.8353 28.4774C53.7208 23.3048 45.9841 20.4692 37.9912 20.4715C35.5974 20.4691 33.2102 20.7259 30.8711 21.2374C31.5467 23.9704 32.2397 27.1908 32.8633 30.9683C33.8681 37.1829 34.3012 42.44 37.2463 43.3801C40.1914 44.3201 42.4435 40.2119 46.4106 40.9778C49.7368 41.6393 50.2046 44.9294 53.1843 47.3838C57.1688 50.7261 64.8086 51.6313 71.409 48.7417Z" fill="#E5531C"/>
<path d="M18.1724 43.2234C16.7618 39.5192 14.0923 36.4359 10.6365 34.5195C5.95006 40.9479 3.65712 48.8248 4.15731 56.7776C4.65751 64.7304 7.91911 72.2546 13.3737 78.0389C17.618 75.1841 20.667 70.6232 20.9615 66.515C21.1521 63.782 19.9741 63.5209 18.9346 58.107C17.3235 49.8906 19.4544 47.4187 18.1724 43.2234Z" fill="#E5531C"/>
<path d="M26.5059 86.6036C32.8521 88.8889 39.7315 89.2253 46.2686 87.57C52.8056 85.9146 58.7048 82.3424 63.2152 77.3078C60.9943 74.2706 58.4435 71.4914 55.61 69.0217C52.9248 66.5673 46.5323 60.7008 42.5998 62.5983C39.5161 64.0953 41.0233 68.8303 38.3381 74.9578C35.6529 81.0853 30.2998 84.5147 26.5059 86.6036Z" fill="#E5531C"/>
<path d="M60.3912 67.2287C60.6908 66.9255 61.047 66.6849 61.4395 66.5207C61.8319 66.3565 62.2529 66.272 62.678 66.272C63.1031 66.272 63.5241 66.3565 63.9165 66.5207C64.309 66.6849 64.6652 66.9255 64.9648 67.2287L70.4218 72.7121C70.7221 73.015 70.9601 73.3744 71.1222 73.7697C71.2843 74.165 71.3673 74.5885 71.3665 75.0161C71.3657 75.4436 71.281 75.8669 71.1175 76.2616C70.9539 76.6562 70.7146 77.0147 70.4131 77.3165C70.1117 77.6182 69.7541 77.8574 69.3606 78.0202C68.9672 78.1831 68.5457 78.2665 68.1202 78.2657C67.6948 78.2649 67.2736 78.1799 66.8808 78.0155C66.488 77.8512 66.1313 77.6107 65.831 77.3078L60.3566 71.8069C59.7613 71.1929 59.4311 70.3678 59.4376 69.5106C59.4441 68.6535 59.7868 67.8335 60.3912 67.2287Z" fill="#F1D0A4"/>
<path d="M71.0284 73.9307C70.7304 74.2334 70.3756 74.4736 69.9846 74.6376C69.5935 74.8015 69.174 74.886 68.7503 74.886C68.3266 74.886 67.9071 74.8015 67.5161 74.6376C67.125 74.4736 66.7703 74.2334 66.4722 73.9307L60.9979 68.4299C60.7054 68.1337 60.4704 67.7854 60.3049 67.4028C59.7767 68.0229 59.4995 68.8197 59.5284 69.6355C59.5573 70.4512 59.8901 71.2262 60.4608 71.807L65.8312 77.3078C66.3632 77.7902 67.0401 78.0806 67.7547 78.1332C68.4694 78.1857 69.1811 77.9974 69.7773 77.598C70.3735 77.1986 70.8202 76.6109 71.0468 75.9278C71.2734 75.2447 71.2669 74.5053 71.0284 73.8263V73.9307Z" fill="#ECBB88"/>
<path d="M53.8767 69.84C54.1762 69.5368 54.5325 69.2962 54.925 69.132C55.3174 68.9678 55.7383 68.8833 56.1635 68.8833C56.5886 68.8833 57.0095 68.9678 57.402 69.132C57.7945 69.2962 58.1507 69.5368 58.4502 69.84L67.8225 79.2576C68.429 79.8647 68.7706 80.6891 68.7722 81.5493C68.7738 82.4095 68.4353 83.2351 67.8311 83.8445C67.2269 84.454 66.4066 84.7972 65.5505 84.7989C64.6944 84.8005 63.8728 84.4604 63.2663 83.8532L53.8767 74.4182C53.2769 73.8088 52.9404 72.9863 52.9404 72.1291C52.9404 71.272 53.2769 70.4494 53.8767 69.84Z" fill="#F1D0A4"/>
<path d="M67.9963 80.476C67.6982 80.7787 67.3434 81.0189 66.9524 81.1829C66.5614 81.3468 66.1419 81.4313 65.7182 81.4313C65.2945 81.4313 64.8749 81.3468 64.4839 81.1829C64.0929 81.0189 63.7381 80.7787 63.4401 80.476L54.0678 71.0584C53.8435 70.8345 53.6564 70.5759 53.5135 70.2925C53.0848 70.9145 52.8866 71.6678 52.953 72.4214C53.0195 73.175 53.3465 73.8815 53.8773 74.4181L63.2668 83.8531C63.8151 84.3768 64.5293 84.6899 65.2842 84.7377C66.0391 84.7854 66.7867 84.5648 67.396 84.1144C68.0054 83.664 68.4376 83.0126 68.617 82.2742C68.7964 81.5358 68.7116 80.7575 68.3774 80.0756C68.2669 80.2241 68.1389 80.3585 67.9963 80.476Z" fill="#ECBB88"/>
<path d="M49.3211 74.4181C49.9275 73.8154 50.7461 73.4773 51.5992 73.4773C52.4522 73.4773 53.2708 73.8154 53.8772 74.4181L63.2668 83.8531C63.8529 84.4639 64.177 85.2816 64.1693 86.13C64.1616 86.9785 63.8227 87.79 63.2257 88.39C62.6286 88.99 61.8209 89.3305 60.9766 89.3382C60.1322 89.3459 59.3185 89.0203 58.7106 88.4314L49.3211 78.9964C48.7212 78.3869 48.3848 77.5644 48.3848 76.7072C48.3848 75.8501 48.7212 75.0275 49.3211 74.4181Z" fill="#F1D0A4"/>
<path d="M63.2667 85.0542C62.9686 85.3568 62.6138 85.5971 62.2228 85.7611C61.8318 85.925 61.4123 86.0094 60.9886 86.0094C60.5648 86.0094 60.1453 85.925 59.7543 85.7611C59.3633 85.5971 59.0085 85.3568 58.7105 85.0542L49.3209 75.6366C49.1503 75.4454 48.994 75.2417 48.8532 75.0273C48.4749 75.6452 48.3153 76.3732 48.4002 77.0936C48.4851 77.8139 48.8095 78.4844 49.3209 78.9963L58.7105 88.4313C59.2685 88.9935 60.0126 89.3301 60.8014 89.3771C61.5903 89.424 62.3687 89.1781 62.9889 88.686C63.6091 88.1939 64.0277 87.49 64.1651 86.7081C64.3025 85.9261 64.1493 85.1207 63.7344 84.4449C63.6037 84.6664 63.4466 84.871 63.2667 85.0542Z" fill="#ECBB88"/>
<path d="M46.7739 80.9635C47.0719 80.6609 47.4267 80.4207 47.8177 80.2567C48.2088 80.0927 48.6283 80.0083 49.052 80.0083C49.4757 80.0083 49.8952 80.0927 50.2862 80.2567C50.6772 80.4207 51.032 80.6609 51.3301 80.9635L56.8044 86.4644C57.1126 86.763 57.3585 87.1203 57.5277 87.5154C57.6969 87.9105 57.7861 88.3356 57.79 88.7657C57.7939 89.1959 57.7124 89.6225 57.5504 90.0207C57.3884 90.4188 57.149 90.7806 56.8463 91.0848C56.5436 91.3889 56.1836 91.6294 55.7874 91.7922C55.3911 91.955 54.9666 92.0369 54.5385 92.033C54.1104 92.029 53.6874 91.9394 53.2942 91.7694C52.9009 91.5994 52.5454 91.3523 52.2482 91.0426L46.7739 85.5418C46.4727 85.2423 46.2336 84.8858 46.0704 84.4929C45.9073 84.0999 45.8232 83.6784 45.8232 83.2527C45.8232 82.8269 45.9073 82.4054 46.0704 82.0124C46.2336 81.6195 46.4727 81.263 46.7739 80.9635Z" fill="#F1D0A4"/>
<path d="M52.7508 87.6654L47.2765 82.1646C46.9778 81.867 46.742 81.5117 46.5835 81.1201C46.0509 81.7438 45.7743 82.5477 45.8097 83.3687C45.845 84.1898 46.1898 84.9666 46.7741 85.5417L52.2485 91.0425C52.7805 91.5249 53.4573 91.8153 54.1719 91.8679C54.8866 91.9204 55.5983 91.7321 56.1945 91.3327C56.7907 90.9333 57.2374 90.3456 57.464 89.6625C57.6906 88.9794 57.6841 88.24 57.4456 87.561C57.1515 87.8897 56.7935 88.1545 56.3936 88.3389C55.9938 88.5234 55.5606 88.6235 55.1207 88.6333C54.6809 88.6431 54.2437 88.5623 53.8361 88.3958C53.4285 88.2294 53.0592 87.9808 52.7508 87.6654Z" fill="#ECBB88"/>
<path d="M15.5917 67.2287C15.2937 66.926 14.9389 66.6858 14.5479 66.5218C14.1569 66.3579 13.7374 66.2734 13.3136 66.2734C12.8899 66.2734 12.4704 66.3579 12.0794 66.5218C11.6884 66.6858 11.3336 66.926 11.0356 67.2287L5.5612 72.7121C5.2312 73.0068 4.96463 73.3662 4.77785 73.7681C4.59107 74.1701 4.48803 74.6061 4.47504 75.0496C4.46205 75.493 4.53939 75.9344 4.70231 76.3467C4.86524 76.759 5.11031 77.1335 5.42248 77.4472C5.73465 77.7608 6.10733 78.0071 6.51765 78.1708C6.92796 78.3345 7.36724 78.4122 7.80853 78.3992C8.24981 78.3861 8.68379 78.2826 9.0838 78.0949C9.48382 77.9072 9.84144 77.6394 10.1347 77.3078L15.5917 71.8069C15.8929 71.5074 16.132 71.1509 16.2952 70.758C16.4584 70.3651 16.5424 69.9436 16.5424 69.5178C16.5424 69.092 16.4584 68.6705 16.2952 68.2776C16.132 67.8847 15.8929 67.5281 15.5917 67.2287Z" fill="#F1D0A4"/>
<path d="M15.7817 67.4377C15.6564 67.6577 15.4987 67.8572 15.3139 68.0296L9.85687 73.5305C9.55736 73.8336 9.20111 74.0742 8.80864 74.2384C8.41617 74.4026 7.99524 74.4871 7.57012 74.4871C7.14499 74.4871 6.72407 74.4026 6.3316 74.2384C5.93913 74.0742 5.58288 73.8336 5.28336 73.5305L5.19674 73.3216C4.81495 73.9402 4.65174 74.67 4.73347 75.3933C4.81519 76.1166 5.13707 76.7911 5.64716 77.3079C6.25658 77.9118 7.07805 78.2503 7.93392 78.2503C8.78979 78.2503 9.61126 77.9118 10.2207 77.3079L15.5911 71.8071C16.1643 71.2366 16.5024 70.4698 16.5377 69.6599C16.573 68.85 16.303 68.0564 15.7817 67.4377Z" fill="#ECBB88"/>
<path d="M22.1047 69.84C21.8067 69.5374 21.4519 69.2971 21.0609 69.1332C20.6699 68.9692 20.2504 68.8848 19.8266 68.8848C19.4029 68.8848 18.9834 68.9692 18.5924 69.1332C18.2014 69.2971 17.8466 69.5374 17.5485 69.84L8.17631 79.2576C7.56983 79.8647 7.22819 80.6891 7.22657 81.5493C7.22494 82.4095 7.56346 83.2351 8.16765 83.8445C8.77184 84.454 9.59221 84.7972 10.4483 84.7989C11.3044 84.8005 12.126 84.4604 12.7325 83.8532L22.1047 74.4182C22.4059 74.1188 22.645 73.7623 22.8082 73.3693C22.9714 72.9764 23.0554 72.5549 23.0554 72.1291C23.0554 71.7034 22.9714 71.2818 22.8082 70.8889C22.645 70.496 22.4059 70.1395 22.1047 69.84Z" fill="#F1D0A4"/>
<path d="M22.1047 70.7451L12.7325 80.1801C12.126 80.7828 11.3074 81.1209 10.4544 81.1209C9.60136 81.1209 8.78277 80.7828 8.17629 80.1801C8.04006 80.0373 7.91277 79.8861 7.79516 79.7275C7.33327 80.3929 7.13683 81.2084 7.24473 82.0124C7.35263 82.8165 7.757 83.5505 8.37781 84.0693C8.99862 84.588 9.79062 84.8537 10.597 84.8136C11.4035 84.7736 12.1656 84.4308 12.7325 83.8531L22.1047 74.4181C22.6465 73.8898 22.9853 73.1863 23.0614 72.4315C23.1374 71.6767 22.9459 70.9192 22.5205 70.2925C22.3972 70.4568 22.2579 70.6085 22.1047 70.7451Z" fill="#ECBB88"/>
<path d="M26.6609 74.4181C26.0545 73.8154 25.2359 73.4773 24.3828 73.4773C23.5298 73.4773 22.7112 73.8154 22.1047 74.4181L12.7325 83.8531C12.1283 84.4648 11.7907 85.2927 11.794 86.1545C11.7972 87.0164 12.1411 87.8417 12.7498 88.4488C13.3586 89.0559 14.1825 89.3951 15.0402 89.3919C15.8979 89.3886 16.7192 89.0431 17.3233 88.4314L26.6956 78.9964C26.9945 78.6946 27.2309 78.3363 27.3911 77.9421C27.5513 77.5479 27.6322 77.1257 27.6289 76.7C27.6257 76.2742 27.5385 75.8533 27.3723 75.4616C27.2062 75.07 26.9644 74.7153 26.6609 74.4181Z" fill="#F1D0A4"/>
<path d="M26.7134 74.4705C26.5833 74.7127 26.42 74.9353 26.2283 75.132L16.8388 84.5495C16.5407 84.8522 16.1859 85.0924 15.7949 85.2564C15.4039 85.4204 14.9844 85.5048 14.5607 85.5048C14.137 85.5048 13.7175 85.4204 13.3264 85.2564C12.9354 85.0924 12.5806 84.8522 12.2826 84.5495C11.9292 85.2256 11.8251 86.0053 11.9884 86.7511C12.1518 87.4968 12.5722 88.1605 13.1754 88.625C13.7785 89.0895 14.5257 89.3248 15.2848 89.2894C16.0439 89.2539 16.7661 88.9501 17.3238 88.4315L26.6961 78.9965C27.2885 78.3937 27.6207 77.5807 27.6207 76.7335C27.6207 75.8863 27.2885 75.0732 26.6961 74.4705H26.7134Z" fill="#ECBB88"/>
<path d="M29.2769 80.9635C28.9789 80.6609 28.6241 80.4207 28.2331 80.2567C27.842 80.0927 27.4225 80.0083 26.9988 80.0083C26.5751 80.0083 26.1556 80.0927 25.7646 80.2567C25.3735 80.4207 25.0187 80.6609 24.7207 80.9635L19.2464 86.4644C18.6603 87.0752 18.3362 87.8928 18.3439 88.7413C18.3516 89.5898 18.6904 90.4013 19.2875 91.0013C19.8846 91.6013 20.6922 91.9417 21.5366 91.9495C22.381 91.9572 23.1947 91.6316 23.8026 91.0426L29.2769 85.5418C29.5781 85.2423 29.8172 84.8858 29.9804 84.4929C30.1435 84.1 30.2275 83.6784 30.2275 83.2527C30.2275 82.8269 30.1435 82.4054 29.9804 82.0124C29.8172 81.6195 29.5781 81.263 29.2769 80.9635Z" fill="#F1D0A4"/>
<path d="M23.8028 87.2477C23.1963 87.8504 22.3777 88.1885 21.5247 88.1885C20.6717 88.1885 19.8531 87.8504 19.2466 87.2477C19.1276 87.1222 19.0176 86.9884 18.9174 86.8473C18.4373 87.5062 18.2226 88.3231 18.3165 89.1343C18.4104 89.9455 18.8059 90.6911 19.4237 91.2217C20.0416 91.7522 20.8362 92.0286 21.6482 91.9954C22.4603 91.9622 23.2299 91.6218 23.8028 91.0425L29.2771 85.5417C29.8204 84.9965 30.1521 84.2743 30.2125 83.5051C30.2728 82.736 30.0579 81.9704 29.6063 81.3464C29.2945 81.8164 24.2532 86.8473 23.8028 87.2477Z" fill="#ECBB88"/>
</g>
<defs>
<clipPath id="clip0">
<rect width="76" height="92" fill="white"/>
</clipPath>
</defs>
</svg>
