<svg width="552" height="530" viewBox="0 0 552 530" fill="none" xmlns="http://www.w3.org/2000/svg">
<g clip-path="url(#clip0)">
<g opacity="0.2">
<path opacity="0.2" d="M30.5146 426.236L201.692 525.735C212.519 532.013 234.251 531.086 245.189 524.777C320.83 481.041 543.792 350.922 543.792 350.922C554.746 344.532 554.794 334.389 543.968 328.111L370.97 227.479L30.5146 426.236Z" fill="#010101"/>
</g>
<path d="M50.4272 409.193C52.8064 418.106 206.02 499.699 206.02 499.699C215.936 505.449 235.816 504.571 245.828 498.74C315.082 458.807 517.445 340.603 517.445 340.603C527.393 334.837 530.427 319.837 520.559 314.167L360.958 226.616C360.958 226.616 27.7845 325.7 50.4272 409.193Z" fill="#E95E2A"/>
<path d="M49.3096 402.165L206.02 493.213C215.936 498.948 235.817 498.117 245.829 492.319C315.082 452.289 519.186 333.159 519.186 333.159C529.198 327.329 529.246 318.016 519.33 312.282L360.958 220.179L49.3096 402.165Z" fill="#C9C6D9"/>
<path d="M7.98403 183.886C8.12774 182.736 8.31936 181.554 8.57485 180.356C8.70259 180.021 8.73453 179.685 8.84631 179.334C9.14097 178.097 9.53068 176.885 10.012 175.708C10.0345 175.504 10.0884 175.304 10.1717 175.117C10.5883 174.118 11.0574 173.143 11.5768 172.194C11.8643 171.698 12.0719 171.299 12.3912 170.82C12.8764 170.047 13.4097 169.305 13.988 168.6C14.109 168.372 14.2535 168.158 14.4192 167.961C15.1223 167.039 15.9079 166.184 16.7665 165.405L17.4371 164.862C18.2999 164.123 19.2363 163.476 20.2315 162.929L295.409 3.92906C296.421 3.35625 297.491 2.89562 298.603 2.55534C298.958 2.43523 299.321 2.33917 299.689 2.26782C300.173 2.12451 300.671 2.02823 301.174 1.98029C301.615 1.94767 302.058 1.94767 302.499 1.98029H303.473C304.141 2.02428 304.803 2.12582 305.453 2.28379L297.661 0.303078C297.221 0.157593 296.765 0.0664012 296.303 0.0315285H295.681C295.351 0.0142301 295.02 0.0142301 294.691 0.0315285H294.052C293.828 0.0194161 293.605 0.0194161 293.381 0.0315285L291.96 0.303078C291.721 0.314538 291.485 0.357506 291.257 0.430866C291.114 0.430866 290.906 0.526706 290.842 0.638521C289.716 0.913787 288.639 1.36096 287.649 1.96432L12.3912 160.948C11.3788 161.532 10.4359 162.228 9.58084 163.025L9.02196 163.488C8.15732 164.319 7.34158 165.199 6.57884 166.124C6.43047 166.293 6.29691 166.475 6.17964 166.667C5.89222 167.034 5.52495 167.402 5.23752 167.833C4.9501 168.264 4.83832 168.695 4.56687 169.063C4.27458 169.466 4.00792 169.888 3.76846 170.325C3.67265 170.564 3.52894 170.772 3.43313 170.98C2.99531 171.79 2.63701 172.64 2.36327 173.519C2.28923 173.602 2.22494 173.693 2.17166 173.791C1.76739 174.695 1.45187 175.637 1.22954 176.602C1.11776 176.906 1.11776 177.273 1.02196 177.545C0.926148 177.816 0.878243 178.136 0.814371 178.375C0.693313 178.728 0.607726 179.092 0.558882 179.462C0.389634 180.301 0.267025 181.149 0.191617 182.001C0.176991 182.138 0.144788 182.272 0.0958084 182.401V182.56C0 183.695 0 184.988 0 186.234C0 186.234 0 186.41 0 186.474C0.0546749 188.037 0.247037 189.593 0.57485 191.122L50.4271 409.192L57.0379 413.026L8.43114 193.023C8.11699 191.481 7.92478 189.916 7.85629 188.343C7.85629 187.017 7.85629 185.627 7.85629 184.286C7.91524 184.158 7.95815 184.024 7.98403 183.886Z" fill="#E95E2A"/>
<path d="M295.409 3.92996C304.351 -1.27739 313.773 3.75425 316.343 15.2072L360.926 220.243L55.4094 405.727L8.43133 193.024C5.89241 181.587 11.1778 168.105 20.2317 162.93L295.409 3.92996Z" fill="#BEBBCE"/>
<path d="M19.1934 199.03L310.243 32.8735L348.838 208.997L61.6524 385.217L19.1934 199.03Z" fill="#1B3A6B"/>
<path d="M464.543 302.857L187.018 463.119L94.4033 409.225L371.864 248.963L464.543 302.857ZM252.934 416.732L382.18 342.12L369.709 334.9L240.495 409.464L252.934 416.732ZM335.074 314.678L323.641 321.307L336.096 328.543L347.545 321.946L335.074 314.678ZM375.345 305.876L386.795 299.311L374.307 291.995L362.89 298.704L375.345 305.924V305.876ZM218.331 396.622L229.765 389.993L217.294 382.741L205.828 389.354L218.331 396.622ZM256.527 360.074L245.11 366.671L257.565 373.971L269.014 367.31L256.527 360.074ZM179.13 419.288L190.547 412.675L178.044 405.407L166.611 412.116L179.13 419.368V419.288ZM308.28 344.692L295.793 337.392L284.391 344.037L296.91 351.289L308.28 344.692ZM308.918 329.853L297.421 336.498L309.892 343.718L321.341 337.089L308.918 329.853ZM152.91 434.479L164.375 427.866L151.84 420.614L140.423 427.243L152.91 434.479ZM388.471 298.481L399.84 291.836L387.369 284.552L375.952 291.229L388.471 298.481ZM269.589 352.535L258.188 359.148L270.611 366.384L282.06 359.755L269.589 352.535ZM349.19 321.067L360.623 314.486L348.104 307.186L336.671 313.799L349.174 321.019L349.19 321.067ZM230.339 375.249L218.938 381.766L231.425 389.018L242.842 382.389L230.339 375.153V375.249ZM192.176 411.749L203.625 405.136L191.106 397.963L179.673 404.529L192.176 411.749ZM213.685 439.463L225.15 432.882L212.743 425.646L201.198 432.195L213.637 439.415L213.685 439.463ZM392.655 315.956L404.12 309.375L391.665 302.107L380.2 308.784L392.655 315.956ZM273.916 370.17L262.435 376.799L274.874 383.987L286.308 377.422L273.916 370.17ZM317.781 304.678L306.315 311.275L318.755 318.511L330.172 311.85L317.765 304.694L317.781 304.678ZM358.02 295.797L369.421 289.184L357.014 281.98L345.581 288.577L358.02 295.797ZM301.685 354.068L314.156 361.336L325.637 354.723L313.182 347.471L301.685 354.068ZM290.906 334.549L278.499 327.329L267.018 333.958L279.489 341.194L290.906 334.549ZM352.415 324.789L340.95 331.386L353.405 338.638L364.87 332.009L352.415 324.789ZM409.9 326.083L421.365 319.454L408.894 312.218L397.429 318.799L409.9 326.083ZM239.154 350.043L227.721 356.704L240.224 363.924L251.641 357.263L239.154 350.043ZM196.407 429.335L207.824 422.754L195.417 415.486L183.952 422.147L196.407 429.335ZM235.641 406.653L247.138 400.072L234.635 392.948L223.17 399.561L235.625 406.733L235.641 406.653ZM200.99 386.558L212.423 379.945L199.952 372.709L188.583 379.306L200.99 386.558ZM161.741 409.209L173.142 402.58L160.751 395.36L149.27 401.989L161.741 409.209ZM291.561 319.757L280.112 326.386L292.567 333.622L304.016 327.041L291.561 319.757ZM209.469 421.844L220.918 415.151L208.479 407.963L196.998 414.56L209.469 421.844ZM174.818 401.685L186.3 395.056L173.797 387.788L162.363 394.449L174.818 401.685ZM286.962 362.598L275.465 369.195L287.952 376.431L299.401 369.786L286.962 362.598ZM331.816 310.924L343.298 304.343L330.826 297.107L319.361 303.72L331.785 310.956L331.816 310.924ZM252.296 342.44L240.846 349.117L253.27 356.305L264.735 349.676L252.296 342.44ZM366.451 331.13L377.9 324.517L365.461 317.265L353.996 323.894L366.451 331.13ZM326.228 339.932L314.779 346.625L327.218 353.829L338.699 347.232L326.26 339.996L326.228 339.932ZM383.713 341.21L395.21 334.565L382.818 327.345L371.321 333.974L383.713 341.21ZM247.681 385.297L236.327 391.878L248.767 399.114L260.216 392.501L247.777 385.297H247.681ZM212.998 365.106L201.565 371.719L214.02 379.003L225.501 372.374L212.998 365.106ZM187.449 454.558L198.898 447.881L186.507 440.693L175.042 447.258L187.497 454.526L187.449 454.558ZM422.978 318.527L434.459 311.93L422.02 304.694L410.555 311.291L422.978 318.527ZM405.685 308.448L417.134 301.851L404.679 294.567L393.214 301.212L405.685 308.448ZM170.188 444.462L181.653 437.849L169.198 430.613L157.765 437.226L170.188 444.462ZM371.066 288.29L382.531 281.709L370.076 274.441L358.643 281.133L371.066 288.369V288.29ZM226.747 431.875L238.26 425.23L225.789 418.01L214.308 424.639L226.747 431.875ZM135.521 424.304L147.018 417.739L134.595 410.519L123.114 417.148L135.521 424.336V424.304ZM401.565 290.718L412.95 284.136L400.479 276.885L389.014 283.482L401.565 290.718ZM243.481 367.582L232.096 374.195L244.551 381.383L255.936 374.834L243.481 367.582ZM205.254 404.129L216.671 397.532L204.168 390.296L192.751 396.893L205.254 404.129ZM362.3 313.464L373.669 306.883L361.214 299.631L349.781 306.228L362.3 313.464ZM321.964 322.329L310.563 328.878L323.05 336.178L334.435 329.549L321.964 322.329ZM166.068 426.796L177.469 420.23L164.998 412.995L153.597 419.592L166.068 426.796ZM295.218 352.263L282.635 345.027L271.298 351.64L283.753 358.876L295.154 352.343L295.218 352.263ZM148.695 416.732L160.048 410.135L147.657 402.931L136.224 409.464L148.695 416.732ZM418.826 300.877L430.228 294.264L417.789 287.06L406.371 293.657L418.826 300.877ZM183.282 436.939L194.811 430.326L182.371 423.09L170.858 429.687L183.298 436.955L183.282 436.939ZM339.321 332.36L327.856 339.005L340.311 346.257L351.777 339.66L339.321 332.36ZM344.91 303.385L356.343 296.787L343.856 289.583L332.503 296.18L344.91 303.385ZM304.591 312.234L293.222 318.815L305.613 326.099L317.046 319.486L304.591 312.234ZM239.856 424.304L251.29 417.739L238.898 410.519L227.465 417.148L239.872 424.336L239.856 424.304ZM436.104 310.892L447.569 304.311L435.114 297.107L423.745 303.672L436.12 310.908L436.104 310.892ZM222.515 414.24L234.012 407.627L221.557 400.391L210.124 406.988L222.515 414.24ZM379.545 323.575L391.01 316.962L378.555 309.742L367.138 316.291L379.545 323.575ZM187.928 394.066L199.345 387.485L186.826 380.265L175.441 386.862L187.912 394.066H187.928ZM200.575 446.986L212.024 440.357L199.601 433.105L188.184 439.718L200.543 446.986H200.575ZM226.124 357.535L214.739 364.196L227.178 371.384L238.579 364.771L226.092 357.567L226.124 357.535ZM396.982 333.574L408.367 327.041L395.912 319.805L384.511 326.386L396.982 333.574ZM277.844 342.12L265.405 334.9L254.02 341.497L266.443 348.749L277.844 342.12ZM288.655 361.624L301.078 368.94L312.479 362.263L300.104 355.059L288.655 361.624ZM384.208 280.75L395.673 274.105L383.234 266.901L371.848 273.498L384.24 280.75H384.208ZM260.822 377.709L249.389 384.306L261.844 391.574L273.214 384.961L260.791 377.709H260.822ZM272.623 313.815L261.206 320.476L269.828 325.444L281.262 318.831L272.623 313.815ZM189.781 361.64L178.284 368.237L186.922 373.3L198.403 366.687L189.781 361.64ZM351.058 268.467L339.673 275.064L348.296 280.159L359.793 273.514L351.058 268.467ZM303.154 296.196L291.689 302.825L300.439 307.809L311.777 301.228L303.154 296.196ZM320.591 286.133L309.11 292.778L317.797 297.794L329.262 291.165L320.591 286.133ZM141.749 389.37L130.363 396.031L138.922 401.014L150.387 394.385L141.701 389.354L141.749 389.37ZM124.343 399.497L112.878 406.062L121.485 411.142L132.918 404.497L124.343 399.497ZM169.485 383.364L180.886 376.799L172.232 371.719L160.846 378.316L169.485 383.364ZM365.749 269.952L377.15 263.339L368.479 258.355L357.094 264.936L365.749 269.952ZM255.122 323.831L243.721 330.412L252.343 335.475L263.761 328.878L255.122 323.831Z" fill="#9E84AF"/>
<path d="M280.111 326.386L292.566 333.638L304.016 327.041L291.56 319.805L280.111 326.386Z" fill="#C9C6D9"/>
<path d="M371.784 273.498L384.175 280.75L395.656 274.105L383.169 266.901L371.784 273.498Z" fill="#C9C6D9"/>
<path d="M319.409 303.72L331.816 310.956L343.297 304.375L330.826 297.155L319.409 303.72Z" fill="#C9C6D9"/>
<path d="M354.028 323.895L366.483 331.131L377.932 324.518L365.477 317.266L354.028 323.895Z" fill="#C9C6D9"/>
<path d="M357.094 265.001L365.748 270.016L377.15 263.403L368.479 258.419L357.094 265.001Z" fill="#C9C6D9"/>
<path d="M339.673 275.048L348.296 280.143L359.793 273.498L351.058 268.451L339.673 275.048Z" fill="#C9C6D9"/>
<path d="M358.643 281.037L371.066 288.305L382.531 281.708L370.076 274.44L358.643 281.037Z" fill="#C9C6D9"/>
<path d="M389.014 283.545L401.565 290.781L412.95 284.2L400.479 276.948L389.014 283.545Z" fill="#C9C6D9"/>
<path d="M345.581 288.593L358.02 295.813L369.421 289.216L357.014 281.996L345.581 288.593Z" fill="#C9C6D9"/>
<path d="M309.094 292.762L317.78 297.778L329.245 291.149L320.575 286.117L309.094 292.762Z" fill="#C9C6D9"/>
<path d="M375.952 291.149L388.471 298.401L399.84 291.756L387.369 284.472L375.952 291.149Z" fill="#C9C6D9"/>
<path d="M406.371 293.657L418.826 300.877L430.227 294.264L417.788 287.076L406.371 293.657Z" fill="#C9C6D9"/>
<path d="M332.535 296.181L344.926 303.385L356.359 296.788L343.872 289.583L332.535 296.181Z" fill="#C9C6D9"/>
<path d="M362.89 298.704L375.345 305.924L386.794 299.359L374.307 292.043L362.89 298.704Z" fill="#C9C6D9"/>
<path d="M291.673 302.81L300.407 307.793L311.761 301.212L303.138 296.181L291.673 302.81Z" fill="#C9C6D9"/>
<path d="M393.262 301.212L405.733 308.432L417.182 301.851L404.727 294.567L393.262 301.212Z" fill="#C9C6D9"/>
<path d="M423.744 303.72L436.119 310.956L447.584 304.375L435.113 297.155L423.744 303.72Z" fill="#C9C6D9"/>
<path d="M349.78 306.228L362.299 313.464L373.668 306.883L361.213 299.631L349.78 306.228Z" fill="#C9C6D9"/>
<path d="M380.199 308.784L392.654 315.956L404.119 309.375L391.664 302.107L380.199 308.784Z" fill="#C9C6D9"/>
<path d="M306.315 311.291L318.755 318.527L330.172 311.866L317.78 304.694L306.315 311.291Z" fill="#C9C6D9"/>
<path d="M336.687 313.8L349.19 321.02L360.623 314.438L348.12 307.187L336.687 313.8Z" fill="#C9C6D9"/>
<path d="M367.138 316.291L379.545 323.575L391.01 316.962L378.555 309.742L367.138 316.291Z" fill="#C9C6D9"/>
<path d="M261.174 320.46L269.797 325.428L281.23 318.815L272.591 313.799L261.174 320.46Z" fill="#C9C6D9"/>
<path d="M293.254 318.815L305.645 326.099L317.062 319.486L304.607 312.234L293.254 318.815Z" fill="#C9C6D9"/>
<path d="M323.641 321.355L336.112 328.591L347.561 321.994L335.074 314.726L323.641 321.355Z" fill="#C9C6D9"/>
<path d="M384.463 326.386L396.934 333.574L408.319 327.041L395.864 319.805L384.463 326.386Z" fill="#C9C6D9"/>
<path d="M243.721 330.476L252.343 335.539L263.761 328.942L255.106 323.895L243.721 330.476Z" fill="#C9C6D9"/>
<path d="M310.562 328.878L323.05 336.178L334.435 329.549L321.964 322.329L310.562 328.878Z" fill="#C9C6D9"/>
<path d="M340.95 331.402L353.405 338.654L364.87 332.041L352.415 324.805L340.95 331.402Z" fill="#C9C6D9"/>
<path d="M267.019 333.974L279.49 341.21L290.907 334.565L278.5 327.345L267.019 333.974Z" fill="#C9C6D9"/>
<path d="M371.354 333.974L383.745 341.21L395.242 334.565L382.851 327.345L371.354 333.974Z" fill="#C9C6D9"/>
<path d="M327.856 339.005L340.312 346.257L351.761 339.66L339.322 332.36L327.856 339.005Z" fill="#C9C6D9"/>
<path d="M253.988 341.497L266.411 348.749L277.829 342.136L265.374 334.9L253.988 341.497Z" fill="#C9C6D9"/>
<path d="M284.392 344.037L296.911 351.289L308.28 344.692L295.793 337.392L284.392 344.037Z" fill="#C9C6D9"/>
<path d="M314.778 346.561L327.217 353.765L338.698 347.168L326.259 339.932L314.778 346.561Z" fill="#C9C6D9"/>
<path d="M240.878 349.117L253.301 356.305L264.766 349.676L252.327 342.44L240.878 349.117Z" fill="#C9C6D9"/>
<path d="M271.329 351.56L283.784 358.796L295.185 352.263L282.666 344.963L271.329 351.56Z" fill="#C9C6D9"/>
<path d="M301.685 354.084L314.156 361.352L325.637 354.739L313.182 347.487L301.685 354.084Z" fill="#C9C6D9"/>
<path d="M227.769 356.656L240.272 363.876L251.689 357.215L239.202 349.995L227.769 356.656Z" fill="#C9C6D9"/>
<path d="M258.188 359.148L270.611 366.384L282.06 359.755L269.589 352.551L258.188 359.148Z" fill="#C9C6D9"/>
<path d="M288.623 361.624L301.046 368.94L312.447 362.263L300.072 355.059L288.623 361.624Z" fill="#C9C6D9"/>
<path d="M214.738 364.195L227.177 371.383L238.579 364.77L226.092 357.566L214.738 364.195Z" fill="#C9C6D9"/>
<path d="M178.251 368.221L186.89 373.285L198.371 366.672L189.748 361.624L178.251 368.221Z" fill="#C9C6D9"/>
<path d="M245.109 366.671L257.564 373.971L269.014 367.326L256.527 360.074L245.109 366.671Z" fill="#C9C6D9"/>
<path d="M275.465 369.227L287.952 376.463L299.401 369.818L286.962 362.63L275.465 369.227Z" fill="#C9C6D9"/>
<path d="M201.597 371.719L214.052 379.003L225.533 372.374L213.03 365.106L201.597 371.719Z" fill="#C9C6D9"/>
<path d="M232.063 374.243L244.519 381.447L255.904 374.898L243.449 367.646L232.063 374.243Z" fill="#C9C6D9"/>
<path d="M160.847 378.316L169.485 383.364L180.887 376.815L172.232 371.719L160.847 378.316Z" fill="#C9C6D9"/>
<path d="M262.436 376.815L274.875 383.987L286.308 377.422L273.917 370.17L262.436 376.815Z" fill="#C9C6D9"/>
<path d="M188.583 379.29L200.99 386.542L212.423 379.913L199.952 372.693L188.583 379.29Z" fill="#C9C6D9"/>
<path d="M218.938 381.814L231.425 389.066L242.843 382.437L230.34 375.201L218.938 381.814Z" fill="#C9C6D9"/>
<path d="M249.357 384.306L261.813 391.574L273.214 384.961L260.791 377.709L249.357 384.306Z" fill="#C9C6D9"/>
<path d="M175.457 386.862L187.928 394.082L199.345 387.485L186.858 380.265L175.457 386.862Z" fill="#C9C6D9"/>
<path d="M205.845 389.354L218.332 396.622L229.765 389.993L217.294 382.741L205.845 389.354Z" fill="#C9C6D9"/>
<path d="M236.264 391.877L248.703 399.113L260.152 392.5L247.713 385.296L236.264 391.877Z" fill="#C9C6D9"/>
<path d="M130.348 396.015L138.954 401.015L150.42 394.402L141.717 389.354L130.348 396.015Z" fill="#C9C6D9"/>
<path d="M162.363 394.45L174.818 401.685L186.299 395.057L173.796 387.789L162.363 394.45Z" fill="#C9C6D9"/>
<path d="M192.75 396.893L205.253 404.129L216.67 397.532L204.167 390.296L192.75 396.893Z" fill="#C9C6D9"/>
<path d="M149.27 401.989L161.741 409.193L173.142 402.564L160.751 395.344L149.27 401.989Z" fill="#C9C6D9"/>
<path d="M112.862 406.046L121.469 411.126L132.902 404.481L124.327 399.481L112.862 406.046Z" fill="#C9C6D9"/>
<path d="M179.673 404.481L192.176 411.717L203.625 405.088L191.106 397.916L179.673 404.481Z" fill="#C9C6D9"/>
<path d="M210.124 406.989L222.515 414.241L234.012 407.628L221.557 400.392L210.124 406.989Z" fill="#C9C6D9"/>
<path d="M136.224 409.464L148.695 416.732L160.032 410.135L147.657 402.931L136.224 409.464Z" fill="#C9C6D9"/>
<path d="M240.511 409.465L252.934 416.733L382.179 342.136L369.708 334.9L240.511 409.465Z" fill="#C9C6D9"/>
<path d="M166.61 412.036L179.129 419.288L190.546 412.675L178.043 405.407L166.61 412.036Z" fill="#C9C6D9"/>
<path d="M196.998 414.56L209.469 421.844L220.918 415.151L208.479 407.963L196.998 414.56Z" fill="#C9C6D9"/>
<path d="M123.114 417.116L135.537 424.304L147.018 417.739L134.595 410.487L123.114 417.116Z" fill="#C9C6D9"/>
<path d="M227.465 417.116L239.872 424.304L251.305 417.739L238.898 410.487L227.465 417.116Z" fill="#C9C6D9"/>
<path d="M153.564 419.592L166.036 426.796L177.437 420.231L164.966 412.995L153.564 419.592Z" fill="#C9C6D9"/>
<path d="M183.937 422.147L196.392 429.335L207.809 422.754L195.402 415.486L183.937 422.147Z" fill="#C9C6D9"/>
<path d="M214.308 424.639L226.747 431.875L238.26 425.23L225.789 418.01L214.308 424.639Z" fill="#C9C6D9"/>
<path d="M140.423 427.163L152.91 434.399L164.375 427.786L151.84 420.534L140.423 427.163Z" fill="#C9C6D9"/>
<path d="M170.858 429.671L183.282 436.939L194.731 430.326L182.292 423.09L170.858 429.671Z" fill="#C9C6D9"/>
<path d="M201.245 432.195L213.684 439.415L225.133 432.818L212.726 425.582L201.245 432.195Z" fill="#C9C6D9"/>
<path d="M157.765 437.226L170.188 444.462L181.669 437.849L169.198 430.613L157.765 437.226Z" fill="#C9C6D9"/>
<path d="M188.216 439.718L200.575 446.986L212.024 440.357L199.633 433.105L188.216 439.718Z" fill="#C9C6D9"/>
<path d="M175.042 447.29L187.497 454.558L198.946 447.881L186.555 440.677L175.042 447.29Z" fill="#C9C6D9"/>
<path d="M297.421 336.498L309.892 343.717L321.341 337.089L308.918 329.853L297.421 336.498Z" fill="#C9C6D9"/>
<path d="M223.17 399.481L235.625 406.653L247.106 400.072L234.635 392.868L223.17 399.481Z" fill="#C9C6D9"/>
<path d="M397.477 318.815L409.948 326.099L421.429 319.47L408.942 312.234L397.477 318.815Z" fill="#C9C6D9"/>
<path d="M410.603 311.291L423.026 318.527L434.507 311.93L422.068 304.694L410.603 311.291Z" fill="#C9C6D9"/>
<path d="M316.072 395.072C312.128 397.389 312.048 401.158 316.072 403.459L342.116 418.506C344.351 419.657 346.826 420.265 349.34 420.278C351.854 420.292 354.336 419.712 356.583 418.585L391.968 398.107C395.896 395.791 395.944 392.037 391.968 389.721L365.956 374.578C363.704 373.475 361.23 372.902 358.723 372.902C356.215 372.902 353.741 373.475 351.489 374.578L316.072 395.072Z" fill="#8E73A1"/>
<path d="M316.072 396.334C312.128 398.65 312.048 402.42 316.072 404.672L342.132 419.767C344.369 420.92 346.849 421.522 349.365 421.522C351.882 421.522 354.362 420.92 356.599 419.767L391.968 399.337C395.896 397.053 395.944 393.283 391.968 390.919L365.956 375.824C363.715 374.685 361.237 374.091 358.723 374.091C356.209 374.091 353.73 374.685 351.489 375.824L316.072 396.334Z" fill="#9E84AF"/>
<g opacity="0.5">
<path opacity="0.5" d="M312.702 208.055C311.281 205.403 309.11 202.784 304.463 204.86C296.981 208.325 289.694 212.196 282.635 216.457C261.669 228.421 243.689 243.612 230.275 263.547C229.19 265.144 228.679 268.099 226.315 267.668C223.952 267.237 223.026 264.473 222.659 262.077C221.477 254.426 224.255 247.701 228.822 241.312C244.407 219.348 263.074 200.531 287.393 187.577C292.599 184.798 298.235 182.418 295.776 175.086L295.409 174.111C293.206 174.589 291.064 175.313 289.022 176.268C276.708 182.027 264.99 188.982 254.036 197.033C248.718 200.755 243.561 204.621 238.627 208.662C239.141 206.765 239.252 204.781 238.952 202.839C238.652 200.896 237.948 199.038 236.886 197.385C231.026 187.098 225.469 182.082 215.92 184.846C213.105 185.67 210.609 187.336 208.768 189.62C206.927 191.904 205.829 194.697 205.621 197.624C204.551 196.283 203.433 194.957 202.251 193.599C199.249 190.213 203.593 185.468 206.547 182.322C214.097 175.555 222.211 169.447 230.802 164.064C237.812 159.687 261.86 148.298 265.629 149.991C269.748 151.844 273.613 158.346 277.541 163.92C281.469 169.495 282.683 167.834 284.934 166.636C286.371 165.869 291.736 163.824 286.722 157.898C284.35 154.958 282.169 151.869 280.191 148.65C279.848 148.241 279.623 147.747 279.541 147.22C279.458 146.692 279.522 146.153 279.724 145.659C279.926 145.165 280.26 144.737 280.689 144.419C281.117 144.101 281.625 143.907 282.156 143.858C287.649 142.851 291.401 141.11 291.577 135.392C291.736 129.993 290.73 126.75 287.09 124.21C283.95 122.028 280.214 120.868 276.391 120.888C268.993 120.997 261.743 118.815 255.633 114.642C246.882 109.131 237.189 105.058 226.092 108.892C220.647 110.76 216.655 111.399 211.832 107.534C205.828 102.742 196.072 107.214 196.583 114.466C197.094 121.718 193.549 125.935 189.557 130.999C181.573 141.238 177.565 152.611 180.072 165.214C180.647 168.153 180.854 171.044 178.922 173.808C173.7 181.283 169.341 184.654 171.816 192.177C174.291 199.701 178.203 200.164 187.353 199.669C189.159 199.48 190.979 199.835 192.581 200.689C194.183 201.543 195.493 202.856 196.343 204.461C198.18 207.656 201.134 216.393 204.982 218.581C206.579 219.492 208.798 217.288 211.13 215.93C214.323 219.859 219.114 222.703 225.07 221.057C218.299 227.909 212.399 235.57 207.505 243.868C204.311 249.362 201.836 255.049 201.82 261.438C201.82 270.24 206.77 275.814 215.728 276.741C217.517 276.933 219.321 276.997 221.301 277.14C220.918 278.115 220.663 278.865 220.343 279.6C213.956 294.408 219.225 303.401 235.289 305.333C236.072 305.429 244.311 306.132 246.882 306.084C249.453 306.036 253.349 306.771 256.607 303.321C255.313 300.014 254.18 296.931 249.309 297.075C240.814 297.251 237.301 292.906 238.882 284.76C240.48 277.615 243.655 270.918 248.176 265.16C264.287 243.34 285.7 227.303 308.567 212.847C310.371 211.713 314.363 211.154 312.702 208.055ZM194.06 144.161C197.126 135.727 202.363 127.788 210.954 122.836C219.289 118.044 221.924 117.741 225.9 116.83C231.011 115.812 236.307 116.295 241.15 118.22C241.877 118.51 242.498 119.016 242.929 119.669C243.361 120.322 243.582 121.092 243.563 121.875C243.544 122.658 243.285 123.416 242.822 124.048C242.36 124.68 241.715 125.154 240.974 125.408C233.91 128.251 227.026 131.521 220.359 135.2C213.321 139.12 206.565 143.529 200.144 148.394C199.502 148.928 198.704 149.238 197.871 149.277C197.038 149.316 196.214 149.082 195.526 148.61C194.838 148.138 194.322 147.455 194.058 146.664C193.793 145.872 193.794 145.016 194.06 144.225V144.161ZM189.269 187.833C188.487 189.015 188.327 191.315 186.076 190.883C185.341 190.74 184.878 189.526 184.734 189.286C182.435 183.887 184.223 179.542 187.305 175.82C208.974 149.624 236.806 134.018 270.227 128.523C273.272 127.97 276.412 128.314 279.265 129.513C281.07 130.2 283.225 132.484 282.459 134.753C281.756 136.781 279.425 136.35 277.669 136.542C264.775 137.869 252.156 141.138 240.239 146.238C218.938 155.342 201.708 168.792 189.19 187.896L189.269 187.833Z" fill="#F1EBF6"/>
</g>
<path d="M298.762 201.697C297.315 201.912 296.007 202.679 295.114 203.838C294.221 204.996 293.811 206.456 293.972 207.911C294.179 213.534 299.369 237.781 305.309 242.589C311.249 247.397 311.137 235.944 311.137 235.944C311.137 235.944 307.513 200.467 298.762 201.697Z" fill="#AA6F18"/>
<path d="M332.359 240.385C332.359 240.385 339.162 241.663 343.808 239.73C348.455 237.798 347.321 237.638 347.002 236.935C346.22 235.338 340.088 235.833 339.018 235.529C337.948 235.226 339.944 234.331 340.423 233.565C340.902 232.798 342.02 231.871 341.589 231.616C341.158 231.36 340.264 231.089 338.555 232.462C336.629 233.712 334.593 234.781 332.471 235.657L332.359 240.385Z" fill="#EFB285"/>
<path d="M333.333 235.05C333.087 236.037 332.969 237.052 332.982 238.069C332.983 239.302 333.32 240.511 333.956 241.567C333.956 241.567 311.776 246.024 306.14 243.165C306.14 243.165 300.695 234.763 309.03 232.526L333.333 235.05Z" fill="#F7A51D"/>
<path d="M308.056 243.772C307.401 243.763 306.763 243.564 306.22 243.196H306.14C305.866 243.041 305.604 242.865 305.357 242.669C299.417 237.877 294.18 213.614 294.02 207.991C293.987 207.087 294.134 206.186 294.451 205.339C296.256 211.601 304.719 240.257 307.306 240.769C309.892 241.28 326.994 240.209 333.222 239.826C333.379 240.467 333.632 241.081 333.972 241.647C333.972 241.647 315.625 245.241 308.056 243.772Z" fill="#A4C2CE"/>
<g opacity="0.1">
<path opacity="0.1" d="M154.794 396.222L226.443 437.881L440.063 314.502L368.399 272.843L154.794 396.222Z" fill="#010101"/>
</g>
<path opacity="0.1" d="M167.394 352.599L212.982 379.099L348.903 300.605L303.314 274.089L167.394 352.599Z" fill="#010101"/>
<path d="M330.763 266.757C330.763 266.598 330.763 266.422 330.763 266.262C330.756 266.22 330.756 266.177 330.763 266.134C330.771 266.023 330.771 265.911 330.763 265.799C330.763 265.623 330.763 265.464 330.763 265.288C330.763 265.112 330.763 265.16 330.763 265.08C330.755 265.043 330.755 265.005 330.763 264.968C330.763 264.968 330.763 264.857 330.763 264.793L330.667 264.266C330.676 264.159 330.676 264.052 330.667 263.946C330.667 263.946 330.667 263.946 330.667 263.85C330.675 263.813 330.675 263.775 330.667 263.738C330.667 263.563 330.587 263.387 330.539 263.211C330.492 263.036 330.539 262.908 330.428 262.764L330.284 262.237L330.124 261.742L329.981 261.31L329.805 260.831C329.802 260.778 329.802 260.725 329.805 260.672L329.709 260.448L329.518 260.001C329.518 259.873 329.406 259.745 329.358 259.633C329.358 259.474 329.214 259.314 329.134 259.154C329.059 258.984 328.973 258.819 328.879 258.659L328.48 257.956C328.471 257.909 328.471 257.86 328.48 257.812L328.08 257.205C328.017 257.09 327.948 256.978 327.873 256.87V256.774L327.681 256.518L327.442 256.151L327.186 255.816L326.883 255.432L326.579 255.081L326.372 254.857L326.052 254.522L325.893 254.362L325.813 254.282C325.779 254.264 325.751 254.236 325.733 254.202L325.398 253.899L325.062 253.611L324.743 253.356L324.424 253.116L324.296 253.02L324.184 252.94L323.881 252.733L323.561 252.541H323.482L310.883 245.257L310.643 245.129L310.34 244.97L310.116 244.874H310.036L309.749 244.746L309.446 244.634H309.35C309.297 244.643 309.243 244.643 309.19 244.634H308.887H308.663H308.567H308.248H307.929H307.13C306.976 244.619 306.821 244.619 306.667 244.634H306.428H306.14C305.912 244.712 305.693 244.814 305.486 244.938L303.521 246.072C303.728 245.963 303.942 245.867 304.16 245.784L304.527 245.672H304.751C304.94 245.63 305.132 245.604 305.326 245.593H304.991L305.677 245.688C305.91 245.737 306.139 245.801 306.364 245.88L307.098 246.168C307.367 246.285 307.628 246.418 307.881 246.567L320.48 253.851C320.767 254.011 321.023 254.186 321.294 254.362H321.374C321.629 254.538 321.885 254.745 322.14 254.953L322.891 255.656C323.114 255.895 323.354 256.135 323.577 256.391C323.801 256.662 324.04 256.934 324.264 257.221L324.807 257.94L324.983 258.196L325.254 258.611L325.653 259.266L326.116 260.049C326.109 260.08 326.109 260.113 326.116 260.144C326.311 260.481 326.487 260.827 326.643 261.183C326.803 261.513 326.947 261.848 327.074 262.189V262.317C327.218 262.668 327.346 263.004 327.458 263.355C327.585 263.722 327.681 264.074 327.793 264.441C327.788 264.478 327.788 264.516 327.793 264.553C327.873 264.889 327.969 265.24 328.032 265.575C328.04 265.612 328.04 265.65 328.032 265.687C328.118 266.028 328.182 266.363 328.224 266.694C328.216 266.736 328.216 266.779 328.224 266.821C328.224 267.151 328.256 267.487 328.32 267.828C328.329 267.864 328.329 267.903 328.32 267.939C328.32 268.291 328.32 268.642 328.32 269.01V302.155L330.268 301.005L330.364 267.86L330.763 266.757Z" fill="#90B7D8"/>
<path d="M320.559 252.908C325.126 255.544 328.814 262.492 328.798 268.355V301.5L326.818 300.35L326.914 267.205C326.914 262.588 324.104 257.173 320.639 255.177L308.024 247.893C304.559 245.88 301.716 248.02 301.716 252.685L301.605 285.83L299.641 284.696L299.736 251.535C299.736 245.656 303.473 243.021 308.04 245.656L320.559 252.908Z" fill="#56839A"/>
<path d="M300.056 249.251L293.669 199.589L300.056 249.251Z" fill="#1E3664"/>
<path d="M300.056 249.187L293.669 199.525V199.414L300.056 249.219V249.187Z" fill="#1D3662"/>
<path d="M300.2 249.283L293.812 199.478L300.2 249.379V249.283Z" fill="#1F3460"/>
<path d="M300.2 249.315L293.812 199.414L300.2 249.379V249.315Z" fill="#1F335D"/>
<path d="M300.2 249.331L293.812 199.366L300.2 249.411V249.331Z" fill="#1E325B"/>
<path d="M300.2 249.347L293.812 199.302L300.2 249.411V249.347Z" fill="#1D3158"/>
<path d="M300.2 249.347L293.812 199.238L300.2 249.363V249.347Z" fill="#1D2F55"/>
<path d="M300.2 249.363L293.812 199.19L300.2 249.443V249.363Z" fill="#1D2E53"/>
<path d="M300.2 249.379L293.812 199.126L300.2 249.442V249.379Z" fill="#1C2D50"/>
<path d="M300.2 249.378L293.812 199.062C293.812 199.062 293.812 199.062 293.812 198.982L300.2 249.394V249.378Z" fill="#1D2B4E"/>
<path d="M300.247 249.394L293.764 198.982V198.95L294.083 201.458L294.402 203.966L294.722 206.49L295.057 208.998L295.376 211.521L295.696 214.045L296.35 219.109L296.67 221.649L297.005 224.172L297.66 229.236L297.979 231.776L298.299 234.299L298.634 236.823L298.953 239.347L299.273 241.871L299.608 244.379L299.927 246.887L300.247 249.394Z" fill="#1C2A4B"/>
<path d="M293.653 198.63C295.761 214.891 298.443 231.903 300.519 248.148C289.757 254.362 277.828 261.087 267.066 267.316L260.679 217.655L293.653 198.63Z" fill="#7AA2D6"/>
<path d="M260.678 217.671H260.598H260.503H260.279H260.199H260.103H259.992H259.848H259.72L259.113 217.415L258.57 217.192L258.187 217.032C257.612 216.808 257.293 216.696 257.293 216.744L257.932 221.76L258.586 226.792L259.225 231.839L261.045 245.976L261.173 247.03L261.509 249.554V250.145C262.041 254.138 262.573 258.142 263.105 262.157C263.313 263.754 263.521 265.463 263.744 267.109C263.796 267.38 263.918 267.633 264.097 267.842C264.276 268.052 264.507 268.212 264.766 268.307L265.133 268.466C265.303 268.527 265.48 268.564 265.66 268.578H266.427H266.554H266.634C266.637 268.541 266.637 268.504 266.634 268.466C266.643 268.43 266.643 268.391 266.634 268.355L260.678 217.671Z" fill="#192541"/>
<path d="M302.291 285.382V285.239V284.935L266.315 263.962C266.235 263.962 266.091 264.489 265.996 264.505H266.714H266.666H266.57L266.475 264.617L266.395 264.713C266.393 264.745 266.393 264.777 266.395 264.809C266.402 264.84 266.402 264.873 266.395 264.904C266.386 264.936 266.386 264.969 266.395 265C266.359 265.065 266.332 265.135 266.315 265.208C266.298 265.394 266.298 265.581 266.315 265.767V266.23C266.315 266.997 264.894 266.869 265.405 267.157C265.916 267.444 268.471 268.754 269.125 269.073L270.722 270L272.511 271.022L274.299 272.06L275.209 272.588L277.988 274.185L279.712 275.175L281.501 276.23L283.305 277.252L285.109 278.306L286.914 279.344L288.718 280.383L290.539 281.437L292.327 282.475L293.924 283.434L294.179 283.577L295.856 284.552L297.644 285.59L299.433 286.612L301.221 287.651L302.994 288.673C302.994 288.673 302.994 288.226 302.994 287.459V284.711L302.291 285.382Z" fill="#192541"/>
<path d="M335.329 265.719L302.26 284.887C290.747 278.226 278.148 270.767 266.635 264.122C277.413 257.86 289.246 251.551 300.024 245.273L335.329 265.719Z" fill="#1D3A6C"/>
<path d="M336.815 267.428C336.822 267.375 336.822 267.322 336.815 267.269C336.815 267.269 336.815 267.269 336.815 267.189C336.815 267.109 336.815 267.093 336.815 267.029C336.815 266.965 336.815 267.029 336.815 266.949V266.821V266.71V266.614H336.735H336.655H336.4H335.33L302.26 285.782V285.99V289.488C302.26 289.488 302.26 289.568 302.26 289.616V289.951L303.857 288.977L304.942 288.354L310.499 285.159L312.192 284.185L313.789 283.194L314.795 282.619L316.823 281.437L317.19 281.23H317.334L322.268 278.354L325.637 276.39L332.376 272.476L335.713 270.543C335.836 270.461 335.948 270.364 336.048 270.256L336.144 270.128C336.19 270.091 336.223 270.041 336.24 269.984V269.888C336.234 269.841 336.234 269.792 336.24 269.745V269.585C336.247 269.543 336.247 269.499 336.24 269.457C336.246 269.399 336.246 269.34 336.24 269.281C336.24 269.281 336.24 269.17 336.24 269.106V268.93V268.307L336.815 267.428Z" fill="#1E325B"/>
<path d="M335.441 265.719L281.358 272.731L266.667 264.17L300.056 245.337L335.441 265.719Z" fill="#192541"/>
<path d="M293.685 198.566L262.851 234.523L266.667 264.17L300.056 245.337L293.685 198.566Z" fill="#4385D8"/>
<path d="M323.944 311.739C323.944 311.739 322.683 316.163 325.796 317.281C328.234 318.079 330.546 319.219 332.663 320.668C333.86 321.61 347.258 327.313 348.902 324.613C350.547 321.914 346.555 318.879 345.549 317.936C344.543 316.994 335.409 309.103 335.409 309.103L323.944 311.739Z" fill="#111114"/>
<path d="M313.118 319.47C313.118 319.47 311.856 323.91 314.97 325.028C317.411 325.819 319.724 326.96 321.837 328.415C323.05 329.357 336.431 335.044 338.076 332.36C339.721 329.677 335.729 326.61 334.723 325.667C333.717 324.725 324.583 316.85 324.583 316.85L313.118 319.47Z" fill="#111114"/>
<path d="M301.525 247.781C301.525 247.781 334.371 268.434 335.329 273.674C336.287 278.913 336.08 309.87 336.08 309.87C336.08 309.87 327.664 313.496 323.609 311.227L320.207 282.076C320.207 282.076 294.371 263.019 293.237 262.301C292.104 261.582 301.525 247.781 301.525 247.781Z" fill="#141D25"/>
<path d="M293.222 262.301C294.356 263.02 320.192 282.076 320.192 282.076L323.593 311.228C325.557 312.314 328.527 312.026 331.066 311.451C329.917 302.602 327.314 283.114 326.372 278.179C325.142 271.789 298.651 256.471 298.651 256.471L293.254 261.534C293.11 261.966 293.078 262.221 293.222 262.301Z" fill="#0E141A"/>
<path d="M301.573 248.563C301.573 248.563 297.772 259.841 295.808 262.301C295.808 262.301 322.044 276.198 323.385 282.906C324.726 289.615 326.371 318.352 326.371 318.352C324.29 319.515 321.979 320.209 319.602 320.385C317.224 320.562 314.837 320.217 312.607 319.374C312.607 319.374 309.668 297.315 309.413 288.417C309.413 288.417 269.732 277.923 272.686 256.183C272.623 256.183 287.808 262.237 301.573 248.563Z" fill="#1D2833"/>
<path d="M309.365 288.417C309.668 297.315 312.559 319.374 312.559 319.374C313.807 319.827 315.104 320.133 316.423 320.285C316.199 316.834 315.928 312.298 315.576 306.324C314.251 284.057 310.786 284.488 310.786 284.488C285.604 273.131 280.527 262.269 280.527 262.269L272.431 257.285C271.073 278.274 309.365 288.417 309.365 288.417Z" fill="#141D25"/>
<path d="M284.631 203.63C284.631 203.63 272.112 210.02 271.856 210.978C271.601 211.937 268.295 214.269 272.942 225.274C272.942 225.274 279.154 237.223 276.04 249.235C275.161 252.83 274.013 256.354 272.607 259.777C272.607 259.777 278.18 268.019 293.796 262.285C296.99 261.119 302.244 256.806 303.856 253.356C303.006 245.983 303.168 238.529 304.335 231.201C306.299 219.268 307.401 203.774 300.631 201.714C300.567 201.65 298.842 199.573 284.631 203.63Z" fill="#F0B764"/>
<path d="M304.272 231.137C303.104 238.466 302.943 245.92 303.793 253.292C302.196 256.742 296.878 261.055 293.733 262.221C292.171 262.801 290.57 263.271 288.942 263.627C290.009 260.737 290.926 257.794 291.689 254.81C294.803 242.861 288.591 230.849 288.591 230.849C283.944 219.844 287.202 217.527 287.505 216.473C287.809 215.419 300.28 209.125 300.28 209.125C302.068 208.614 303.665 208.215 305.07 207.879C306.443 214.045 305.549 223.358 304.272 231.137Z" fill="#F7A51D"/>
<path d="M289.021 199.796C289.021 199.796 298.123 204.588 294.067 211.457L298.347 213.805C298.347 213.805 302.562 201.793 289.021 199.796Z" fill="white"/>
<path d="M283.193 194.957C283.193 194.957 287.01 200.771 283.992 204.7C282.283 206.905 286.275 212.096 293.094 211.681C293.094 211.681 296.143 210.946 295.84 209.828C295.137 207.32 296.143 205.914 297.229 203.982C298.315 202.049 283.193 194.957 283.193 194.957Z" fill="#EFB285"/>
<path d="M283.992 204.701C283.783 204.962 283.656 205.278 283.625 205.611C286.18 203.007 291.082 202.8 291.082 202.8L284.599 195.628L283.96 195.324L283.753 195.963C284.695 197.8 286.244 201.777 283.992 204.701Z" fill="#DD966A"/>
<path d="M295.84 209.828C295.185 205.851 296.143 205.914 297.229 203.982C297.517 203.454 296.591 202.544 295.105 201.49C294.663 201.836 294.284 202.258 293.988 202.736C292.084 205.303 291.259 208.513 291.688 211.681C292.155 211.737 292.627 211.737 293.093 211.681C293.924 211.569 296.032 211.074 295.84 209.828Z" fill="#F2B890"/>
<path d="M281.772 191.682C281.772 191.682 283.369 199.381 288.735 202.864C293.429 205.962 298.89 208.007 299.912 202.4C300.727 197.944 302.914 186.603 298.97 184.318C293.908 181.395 292.056 177.769 286.196 179.942C286.164 179.958 279.441 183.024 281.772 191.682Z" fill="#EFB285"/>
<path d="M281.773 191.682C282.128 193.928 282.923 196.082 284.112 198.02C285.301 199.958 286.861 201.642 288.703 202.975C290.09 203.935 291.586 204.729 293.158 205.339C291.376 204.055 289.808 202.497 288.511 200.723C286.595 198.503 291.37 199.365 288.112 193.663C287.01 191.714 292.423 194.222 293.637 194.19C300.871 194.014 300.328 189.877 300.471 188.12C300.338 187.394 300.135 186.682 299.865 185.996L299.194 184.67L298.938 184.318C298.217 183.412 297.439 182.553 296.607 181.747C293.509 181.747 284.727 182.002 284.551 182.05C283.472 183.345 282.459 184.694 281.517 186.091C281.151 187.948 281.238 189.866 281.773 191.682Z" fill="#E7A477"/>
<path d="M284.934 199.158C283.233 197.485 281.99 195.404 281.321 193.114C280.653 190.824 280.583 188.4 281.117 186.075C281.533 184.211 282.53 182.526 283.966 181.266C285.401 180.005 287.199 179.234 289.101 179.063C292.391 178.664 298.682 178.871 301.221 185.452C302.004 187.529 301.477 192.065 293.333 189.941C292.183 189.653 289.085 189.238 288 190.228C287.485 190.826 287.147 191.555 287.026 192.334C286.904 193.114 287.004 193.912 287.313 194.637C287.776 196.027 286.547 196.234 286.387 195.867C286.227 195.5 284.662 191.65 283.193 193.184C281.724 194.717 284.79 198.886 284.934 199.158Z" fill="#321E11"/>
<path d="M284.934 199.158C284.79 198.886 281.836 194.621 283.177 193.232C284.519 191.842 286.211 195.628 286.371 195.915C286.531 196.203 287.76 196.075 287.297 194.685C286.988 193.96 286.888 193.162 287.01 192.382C287.131 191.603 287.469 190.874 287.984 190.276C288.974 189.382 291.688 189.829 293.317 189.989C291.976 189.142 289.293 188.839 288.335 186.587C287.957 185.456 287.33 184.424 286.501 183.567C285.672 182.71 284.662 182.05 283.545 181.635C282.343 182.864 281.504 184.4 281.117 186.075C280.583 188.4 280.653 190.824 281.321 193.114C281.99 195.404 283.233 197.485 284.934 199.158Z" fill="#20140D"/>
<path d="M284.934 202.863C285.495 205.017 286.651 206.969 288.269 208.498C289.887 210.026 291.902 211.068 294.083 211.505L291.848 216.92C291.848 216.92 277.924 209.892 284.934 202.863Z" fill="white"/>
<path d="M271.792 210.978C271.489 211.936 268.231 214.268 272.878 225.274C272.878 225.274 278.1 237.126 275.385 249.059C274.852 252.46 273.836 255.768 272.367 258.882C271.249 261.374 276.136 262.876 280.591 264.249C283.257 257.86 282.97 257.86 284.088 250.88C285.685 241.391 284.535 233.596 276.758 224.076C269.924 215.69 272.798 212.447 272.655 210.227C272.317 210.412 272.022 210.668 271.792 210.978Z" fill="#AA6F18"/>
<path d="M301.206 185.5C301.206 185.5 302.404 192.912 292.966 190.292C291.536 189.863 290.21 189.141 289.072 188.174C287.935 187.206 287.01 186.013 286.356 184.67C286.1 184.005 285.684 183.414 285.143 182.951C284.602 182.488 283.954 182.167 283.258 182.018C283.258 182.018 285.765 178.456 292.264 178.823C295.33 179.047 298.507 182.018 299.274 182.497C300.04 182.977 298.795 186.107 301.206 185.5Z" fill="#321E11"/>
<path d="M286.866 274.872C291.417 277.508 295.106 284.456 295.106 290.318L295.01 323.463L293.03 322.329L293.126 289.184C293.126 284.552 290.315 279.153 286.85 277.14L274.236 269.872C270.77 267.86 267.848 270 267.848 274.664L267.737 307.825L265.772 306.675L265.868 273.53C265.868 267.652 269.605 265.016 274.156 267.636L286.866 274.872Z" fill="#56839A"/>
<path d="M304.975 259.17L329.07 273.195L347.769 262.397L323.673 248.372L304.975 259.17Z" fill="#E3E7EE"/>
<path d="M324.535 267.348L325.11 267.668L330.795 264.409L330.204 264.074L324.535 267.348Z" fill="#A5AAB4"/>
<path d="M326.818 268.658L327.393 269.01L335.808 264.138L335.234 263.802L326.818 268.658Z" fill="#A5AAB4"/>
<path d="M325.669 268.003L326.26 268.339L333.621 264.09L333.046 263.754L325.669 268.003Z" fill="#A5AAB4"/>
<path d="M332.727 261.294L337.597 264.122L341.94 261.614L337.07 258.787L332.727 261.294Z" fill="#A5AAB4"/>
<path d="M329.086 269.984L329.677 270.32L337.038 266.071L336.463 265.735L329.086 269.984Z" fill="#A5AAB4"/>
<path d="M327.952 269.329L328.527 269.665L334.196 266.39L333.621 266.055L327.952 269.329Z" fill="#A5AAB4"/>
<path d="M323.401 266.678L323.976 267.013L332.391 262.157L331.817 261.822L323.401 266.678Z" fill="#A5AAB4"/>
<path d="M316.583 262.061L317.174 262.396L322.842 259.122L322.268 258.771L316.583 262.061Z" fill="#A5AAB4"/>
<path d="M318.866 263.371L319.441 263.707L327.872 258.851L327.281 258.515L318.866 263.371Z" fill="#A5AAB4"/>
<path d="M317.732 262.716L318.307 263.052L325.669 258.803L325.094 258.467L317.732 262.716Z" fill="#A5AAB4"/>
<path d="M321.134 264.697L321.725 265.032L329.086 260.783L328.495 260.448L321.134 264.697Z" fill="#A5AAB4"/>
<path d="M320 264.026L320.591 264.378L326.259 261.103L325.669 260.768L320 264.026Z" fill="#A5AAB4"/>
<path d="M315.449 261.39L316.04 261.726L324.439 256.87L323.864 256.534L315.449 261.39Z" fill="#A5AAB4"/>
<path d="M231.537 287.347C231.537 287.06 231.617 286.788 231.665 286.516C231.713 286.245 231.665 286.437 231.665 286.389C231.71 286.139 231.774 285.894 231.856 285.654C231.847 285.617 231.847 285.579 231.856 285.542C231.913 285.346 231.983 285.154 232.064 284.967C232.071 284.909 232.071 284.85 232.064 284.791C232.14 284.637 232.225 284.488 232.32 284.344L232.415 284.152V284.041C232.553 283.822 232.714 283.618 232.894 283.434L233.07 283.274C233.267 283.071 233.493 282.899 233.741 282.763L231.553 284.025C231.313 284.172 231.088 284.343 230.882 284.536L230.723 284.711C230.537 284.896 230.371 285.099 230.228 285.318L230.132 285.494L229.94 285.925C229.947 285.957 229.947 285.99 229.94 286.021C229.938 286.08 229.938 286.138 229.94 286.197L229.844 286.437C229.844 286.548 229.765 286.676 229.717 286.788C229.669 286.9 229.717 286.788 229.717 286.788C229.665 286.934 229.622 287.084 229.589 287.235V287.491C229.591 287.517 229.591 287.544 229.589 287.571C229.589 287.571 229.589 287.571 229.589 287.683C229.589 287.794 229.589 287.97 229.589 288.13C229.589 288.29 229.589 288.337 229.589 288.449V288.577C229.581 288.721 229.581 288.865 229.589 289.008C229.589 289.168 229.589 289.312 229.589 289.472L229.493 326.386L231.681 325.108L231.777 288.21C231.777 287.874 231.777 287.539 231.777 287.219L231.537 287.347Z" fill="#90B7D8"/>
<path d="M261.701 305.365C261.701 305.19 261.701 304.998 261.701 304.806V304.679C261.701 304.567 261.701 304.439 261.701 304.327C261.701 304.215 261.701 303.944 261.701 303.752C261.701 303.56 261.701 303.592 261.701 303.512C261.701 303.433 261.701 303.433 261.701 303.401C261.701 303.369 261.701 303.257 261.701 303.193C261.701 303.129 261.701 302.81 261.589 302.602C261.477 302.394 261.589 302.362 261.589 302.251C261.581 302.219 261.581 302.186 261.589 302.155C261.582 302.112 261.582 302.069 261.589 302.027L261.445 301.436C261.445 301.276 261.365 301.1 261.317 300.925C261.317 300.925 261.206 300.541 261.142 300.35C261.078 300.158 261.03 299.966 260.966 299.791L260.806 299.295C260.728 299.124 260.658 298.948 260.599 298.768C260.599 298.768 260.599 298.657 260.599 298.593C260.599 298.529 260.599 298.593 260.599 298.513L260.503 298.273L260.279 297.762C260.279 297.634 260.168 297.49 260.088 297.363L259.832 296.836L259.545 296.276L259.114 295.494L259.018 295.35L258.587 294.663C258.587 294.535 258.443 294.408 258.363 294.296L258.267 294.184L258.076 293.896L257.788 293.497L257.501 293.114V293.018L257.15 292.587C257.038 292.459 256.942 292.331 256.814 292.203L256.591 291.948L256.255 291.58L256.064 291.405C256.064 291.405 256.064 291.405 256.064 291.325L255.968 291.229C255.84 291.117 255.729 290.989 255.601 290.893L255.234 290.558L254.882 290.27L254.531 289.999L254.371 289.887L254.244 289.791C254.133 289.708 254.015 289.633 253.892 289.568L253.557 289.36L239.505 281.261C239.425 281.204 239.34 281.156 239.25 281.118L238.914 280.942L238.659 280.814L238.323 280.67L238.004 280.543H237.892H237.733L237.397 280.463H237.142H237.03H236.663H236.327H235.433C235.258 280.447 235.081 280.447 234.906 280.463L234.635 280.543L234.315 280.622C234.07 280.721 233.83 280.833 233.597 280.958L231.409 282.236C231.643 282.101 231.889 281.989 232.144 281.9L232.543 281.773H232.782C232.998 281.724 233.217 281.692 233.437 281.677H234.236C234.493 281.698 234.749 281.736 235.002 281.789L235.768 281.98C236.048 282.066 236.32 282.173 236.583 282.3C236.87 282.427 237.158 282.587 237.445 282.747L251.497 290.861C251.804 291.038 252.103 291.23 252.391 291.437C252.692 291.642 252.98 291.866 253.254 292.107C253.541 292.347 253.812 292.619 254.1 292.874L254.18 292.97C254.435 293.226 254.691 293.481 254.946 293.769L255.729 294.679C255.92 294.935 256.128 295.206 256.319 295.494L256.511 295.765C256.621 295.914 256.723 296.068 256.814 296.229C256.974 296.468 257.134 296.708 257.277 296.963C257.421 297.219 257.613 297.522 257.772 297.826V297.922C257.975 298.305 258.166 298.688 258.347 299.072C258.507 299.439 258.683 299.807 258.826 300.174C258.82 300.227 258.82 300.281 258.826 300.334C258.97 300.701 259.114 301.085 259.242 301.468C259.369 301.867 259.497 302.267 259.609 302.682C259.611 302.719 259.611 302.756 259.609 302.794C259.705 303.177 259.8 303.56 259.88 303.944C259.887 303.981 259.887 304.019 259.88 304.056C259.96 304.439 260.024 304.806 260.072 305.174C260.072 305.174 260.072 305.27 260.072 305.333C260.072 305.701 260.152 306.068 260.184 306.436C260.184 306.436 260.184 306.515 260.184 306.563C260.184 306.963 260.184 307.362 260.184 307.745L260.088 344.66L262.275 343.382L262.371 306.484L261.701 305.365Z" fill="#90B7D8"/>
<path d="M250.348 289.967C255.425 292.906 259.545 300.605 259.513 307.154L259.417 344.069L257.214 342.791L257.326 305.893C257.326 300.733 254.132 294.711 250.332 292.491L236.328 284.328C232.463 282.092 229.302 284.472 229.286 289.616L229.19 326.53L226.986 325.252L227.082 288.354C227.082 281.805 231.266 278.865 236.328 281.789L250.348 289.967Z" fill="#56839A"/>
<path d="M224.943 285.478L218.3 233.868L224.943 285.478Z" fill="#1E3664"/>
<path d="M224.942 285.478L218.3 233.868C218.303 233.831 218.303 233.793 218.3 233.756L224.958 285.51L224.942 285.478Z" fill="#1D3662"/>
<path d="M225.006 285.51L218.348 233.756V233.676L225.006 285.526V285.51Z" fill="#1F3460"/>
<path d="M225.039 285.526L218.38 233.676L225.055 285.606L225.039 285.526Z" fill="#1F335D"/>
<path d="M225.055 285.542L218.38 233.612L225.15 285.558L225.055 285.542Z" fill="#1E325B"/>
<path d="M225.151 285.558L218.46 233.548L225.151 285.622V285.558Z" fill="#1D3158"/>
<path d="M225.151 285.574L218.46 233.5L225.167 285.654L225.151 285.574Z" fill="#1D2F55"/>
<path d="M225.15 285.59L218.443 233.437L225.15 285.59Z" fill="#1D2E53"/>
<path d="M225.15 285.59L218.428 233.373L225.15 285.606V285.59Z" fill="#1C2D50"/>
<path d="M225.15 285.606L218.428 233.309V233.213L225.15 285.606Z" fill="#1D2B4E"/>
<path d="M225.15 285.606L218.411 233.213L218.746 235.817L219.082 238.42L219.417 241.04L219.752 243.66L220.088 246.279L220.423 248.899L221.094 254.154L221.429 256.79L221.78 259.425L222.451 264.697L222.786 267.316L223.122 269.952L223.457 272.572L223.792 275.191L224.144 277.811L224.479 280.415L224.814 283.034L225.15 285.622V285.606Z" fill="#1C2A4B"/>
<path d="M218.3 232.862C220.471 249.762 223.25 267.428 225.421 284.344C214.244 290.814 201.853 297.794 190.659 304.263L184.032 252.653L218.3 232.862Z" fill="#3F3F3F"/>
<path d="M218.411 232.303V232.207C218.403 232.181 218.403 232.153 218.411 232.127C218.416 232.095 218.416 232.063 218.411 232.031V231.951L218.331 231.855V231.76L218.236 231.68H218.14H218.012H217.884L217.501 231.52H217.373H217.23H217.086H216.351H216.272H216.112H215.952L214.212 232.51L212.471 233.517L210.779 234.507L205.605 237.494L205.477 237.574L205.222 237.718L200.431 240.481L200.208 240.609L200.016 240.721L193.629 244.379L193.118 244.682L191.617 245.545C189.781 246.599 187.944 247.653 186.124 248.739L184.367 249.746L183.825 250.065L180.902 251.758C181.19 251.837 181.473 251.933 181.749 252.046L182.148 252.206L183.074 252.605C183.505 252.797 183.904 252.972 184.192 253.132L184.383 253.228L218.651 233.437V233.341V233.133L218.411 232.303Z" fill="#1B4D9D"/>
<path d="M184.032 252.653H183.936H183.841H183.745H183.649H183.537H183.377H183.234L182.627 252.381L182.068 252.142L181.669 251.982C181.078 251.742 180.727 251.63 180.743 251.678C180.934 253.276 181.206 255.336 181.397 256.886L182.084 262.125L182.755 267.364C183.377 272.268 184.016 277.172 184.639 282.06L184.783 283.146L185.118 285.782V286.373C185.645 290.558 186.188 294.711 186.715 298.88C186.938 300.605 187.162 302.314 187.369 304.039C187.418 304.325 187.544 304.591 187.732 304.81C187.92 305.03 188.165 305.194 188.439 305.285L188.823 305.429C188.994 305.507 189.178 305.555 189.365 305.573H189.86H190.004H190.164H190.292C190.299 305.536 190.299 305.498 190.292 305.461C190.297 305.424 190.297 305.386 190.292 305.349L184.032 252.653Z" fill="#213A73"/>
<path d="M227.257 323.016V322.872V322.569L189.876 300.781C189.78 300.781 189.637 301.324 189.557 301.34L190.291 301.42L190.195 301.516C190.151 301.544 190.112 301.582 190.084 301.627C190.043 301.657 190.011 301.695 189.988 301.739V301.835C189.988 301.835 189.988 301.835 189.988 301.931C189.979 301.962 189.979 301.995 189.988 302.027C189.979 302.101 189.979 302.176 189.988 302.25C189.962 302.441 189.962 302.635 189.988 302.825V303.305C189.988 304.103 188.519 303.975 189.046 304.279C189.573 304.582 192.239 305.876 192.91 306.276L194.507 307.234L196.359 308.304L198.227 309.374L199.17 309.918L202.06 311.515L203.832 312.553L205.716 313.639L207.585 314.726L209.469 315.796L211.337 316.882L213.221 317.968L215.09 319.054L216.958 320.125L218.682 321.131L218.954 321.275L220.694 322.281L222.563 323.367L224.415 324.437L226.267 325.508L228.12 326.578V322.457L227.257 323.016Z" fill="#213A73"/>
<path d="M261.62 302.57L227.257 322.553C215.297 315.636 202.203 307.889 190.243 300.973C201.421 294.471 213.748 287.906 224.942 281.389L261.62 302.57Z" fill="#1B4D9D"/>
<path d="M218.316 232.814L184.032 252.653L190.244 300.973L224.942 281.389L218.316 232.814Z" fill="#4173B9"/>
<path d="M220.423 248.883L186.076 268.563L188.871 290.382L223.425 269.633L220.423 248.883Z" fill="#4173B9"/>
<path d="M270.706 347.647C270.915 350.27 271.747 352.806 273.134 355.043C275.193 357.63 284.758 363.668 284.024 366.224C283.289 368.78 276.391 368.988 272.112 364.627C267.832 360.266 266.682 359.515 264.846 359.084C263.01 358.653 260.407 356.305 262.371 352.295C262.371 352.295 268.263 350.714 270.706 347.647Z" fill="#010101"/>
<path d="M258.443 356.512C258.443 356.512 259.146 361.512 261.477 364.084C263.809 366.655 274.252 372.358 273.629 375.169C273.006 377.981 265.821 378.572 261.046 374.211C256.272 369.85 255.01 369.211 253.062 368.892C251.114 368.572 248.272 366.272 250.012 361.943C250.012 361.943 256.096 359.883 258.443 356.512Z" fill="#010101"/>
<path d="M233.214 284.711C233.214 284.711 267.753 304.071 269.844 310.173C272.846 318.927 272.287 324.885 270.834 346.593L270.93 351.704C270.93 351.704 266.507 355.314 261.669 352.87C260.168 352.104 261.669 337.807 259.289 329.852C259.289 329.852 258.539 320.412 259.289 317.904C259.289 317.904 231.425 308.224 224.91 302.25C218.395 296.276 233.214 284.711 233.214 284.711Z" fill="#241E22"/>
<path d="M203.816 290.797C203.816 290.797 198.323 303.225 212.95 310.78C228.471 318.767 244.886 328.495 244.886 328.495C244.648 333.758 244.915 339.032 245.685 344.245C247.281 352.231 249.756 362.694 249.756 362.694C249.756 362.694 256.399 365.393 260.152 361.736C260.152 361.736 260.519 323.239 256 318.911C251.481 314.582 228.854 297.362 228.854 297.362L233.197 284.711L203.816 290.797Z" fill="#32292F"/>
<path d="M212.95 310.78C228.471 318.767 244.886 328.495 244.886 328.495C244.648 333.758 244.915 339.032 245.684 344.245C247.281 352.231 248.495 362.327 248.495 362.327C249.815 362.744 251.174 363.028 252.551 363.173C250.235 352.838 249.229 329.837 248.16 325.604C246.866 320.348 230.483 314.742 218.842 308.592C215.454 306.766 212.57 304.131 210.447 300.92C208.324 297.71 207.028 294.024 206.674 290.19L203.8 290.797C203.8 290.797 198.323 303.225 212.95 310.78Z" fill="#241E22"/>
<path d="M272.016 345.89C273.469 324.166 272.846 318.927 269.844 310.173C267.753 304.071 233.214 284.711 233.214 284.711C231.793 285.846 230.443 287.067 229.174 288.369C238.499 292.954 260.823 304.55 264.99 312.33C269.781 321.307 266.204 346.337 266.683 353.509C268.403 353.285 270.091 352.862 271.713 352.247L272.016 345.89Z" fill="#32292F"/>
<path d="M248.67 277.156C248.67 277.156 253.461 276.357 255.617 278.098C257.772 279.84 259.353 280.415 260.263 282.236C261.173 284.057 260.088 284.999 258.475 284.903C256.081 284.605 253.787 283.763 251.768 282.443C250.741 281.614 249.463 281.158 248.143 281.149C247.345 281.006 246.339 278.657 248.67 277.156Z" fill="#EFB285"/>
<path d="M227.481 239.602C229.844 239.331 233.644 240.673 233.501 246.966C233.357 253.26 232.766 270.831 232.766 270.831C232.766 270.831 249.021 275.623 250.81 276.533C249.897 276.934 249.151 277.638 248.697 278.525C248.243 279.413 248.11 280.43 248.319 281.405C248.319 281.405 229.509 281.788 226.139 277.268C222.77 272.747 217.804 240.72 227.481 239.602Z" fill="#F7A51D"/>
<path d="M199.968 252.158C199.968 252.158 205.604 242.414 227.991 239.219C227.991 239.219 231.568 237.718 231.185 249.315C231.185 250.912 232.862 253.851 234.043 255.368C235.225 256.886 238.323 262.668 231.504 269.633C231.504 269.633 228.87 279.968 232.015 286.645C234.842 292.603 220.103 298.433 207.552 297.219C205.956 297.075 202.602 296.053 203.944 290.686C205.285 285.319 208.479 275.878 205.972 265.959C203.465 256.039 198.275 257.173 199.968 252.158Z" fill="#F7A51D"/>
<path d="M199.968 252.157C198.275 257.205 203.497 256.039 206.02 265.958C208.543 275.878 205.333 285.302 203.992 290.685C202.65 296.068 206.068 297.075 207.601 297.219C209.725 297.407 211.863 297.407 213.988 297.219C209.597 287.635 215.233 270.064 215.505 260.48C215.808 250.257 206.547 246.263 206.547 246.263C203.941 247.711 201.692 249.725 199.968 252.157Z" fill="#AA6F18"/>
<path d="M232.064 286.644C228.87 279.968 231.553 269.633 231.553 269.633C238.371 262.668 235.257 256.854 234.092 255.368C232.926 253.883 231.186 250.992 231.233 249.314C231.506 246.45 231.174 243.56 230.259 240.833C228.966 242.334 226.363 241.791 227.225 247.126C227.752 250.321 226.683 254.985 221.796 255.001C216.91 255.017 219.657 262.876 219.944 265.064C221.924 280.287 213.812 287.427 216.447 297.011C226.044 295.733 234.235 291.229 232.064 286.644Z" fill="#F7A51D"/>
<path d="M223.984 221.233C223.984 221.233 222.531 232.814 221.828 243.867C221.823 244.427 221.945 244.98 222.185 245.485C222.425 245.991 222.777 246.435 223.213 246.784C223.65 247.133 224.161 247.379 224.706 247.502C225.252 247.625 225.819 247.622 226.363 247.493C226.363 247.493 234.73 234.395 228.04 221.393C227.171 219.819 225.972 218.452 224.526 217.385C223.079 216.319 221.419 215.578 219.66 215.214C217.9 214.85 216.082 214.871 214.331 215.276C212.581 215.68 210.938 216.459 209.517 217.559L223.984 221.233Z" fill="#2F1B10"/>
<path d="M226.363 236.408C226.363 236.408 222.355 241.088 224.192 246.12C224.703 247.509 225.948 253.212 217.357 250.912C217.357 250.912 208.415 246.359 211.114 243.66C212.902 241.855 214.643 239.267 212.056 230.002L226.363 236.408Z" fill="#E8A577"/>
<path d="M211.113 243.612C210.86 243.847 210.696 244.164 210.65 244.507C213.126 244.953 215.671 244.815 218.083 244.102C220.495 243.389 222.707 242.122 224.543 240.401L213.972 230.913C213.972 230.913 213.429 231.28 212.614 231.887C214.387 239.603 212.774 241.935 211.113 243.612Z" fill="#DB9669"/>
<path d="M224.99 220.003C224.99 220.003 227.306 220.802 227.369 227.686C227.369 228.437 228.583 229.444 228.966 231.344C229.349 233.245 229.685 240.928 225.246 241.695C222.261 241.883 219.296 241.087 216.807 239.428C214.318 237.769 212.441 235.339 211.465 232.51C208.751 224.779 215.361 214.876 224.99 220.003Z" fill="#F2B387"/>
<path d="M224.543 222.75C224.543 222.75 204.838 229.954 219.593 255.368C219.593 255.368 209.31 256.342 204.743 247.493C202.555 243.228 203.433 234.635 204.104 226.456C204.104 226.456 206.387 213.853 216.878 215.754C216.926 215.754 223.904 218.437 224.543 222.75Z" fill="#21150D"/>
<path d="M224.543 222.75C224.543 222.75 227.992 222.111 229.668 228.453C229.668 228.453 229.125 210.531 212.104 215.946C212.151 215.946 222.259 216.441 224.543 222.75Z" fill="#2F1B10"/>
<path d="M215.298 233.82C215.298 233.82 214.1 230.019 211.912 231.185C211.226 231.536 210.475 232.335 211.513 234.284C212.551 236.232 214.707 238.037 216.447 237.83L215.298 233.82Z" fill="#F2B387"/>
<path d="M192.735 310.205C192.735 309.918 192.735 309.646 192.846 309.375C192.958 309.103 192.846 309.295 192.846 309.247C192.846 309.199 192.958 308.736 193.022 308.512V308.4C193.022 308.193 193.166 308.001 193.246 307.825C193.325 307.65 193.246 307.713 193.246 307.65L193.485 307.186L193.581 307.011L193.677 306.899C193.818 306.678 193.979 306.469 194.156 306.276L194.331 306.116C194.533 305.918 194.758 305.747 195.002 305.605L192.798 306.883C192.558 307.03 192.333 307.201 192.128 307.394L191.968 307.554C191.791 307.751 191.625 307.959 191.473 308.177L191.377 308.368C191.299 308.48 191.229 308.597 191.17 308.72C191.17 308.72 191.17 308.72 191.17 308.816C191.167 308.874 191.167 308.933 191.17 308.991L191.074 309.231C191.074 309.343 190.994 309.471 190.946 309.582C190.945 309.609 190.945 309.636 190.946 309.662L190.818 310.125V310.397C190.817 310.424 190.817 310.45 190.818 310.477C190.811 310.508 190.811 310.541 190.818 310.573C190.818 310.716 190.818 310.876 190.818 311.036C190.826 311.142 190.826 311.249 190.818 311.355C190.82 311.382 190.82 311.409 190.818 311.435C190.818 311.579 190.818 311.739 190.818 311.883C190.811 312.032 190.811 312.181 190.818 312.33L190.723 349.388L192.91 348.11L193.022 311.052C193.022 310.716 193.022 310.381 193.022 310.062C193.003 310.023 192.97 309.994 192.929 309.981C192.889 309.967 192.845 309.971 192.806 309.99C192.768 310.009 192.739 310.042 192.726 310.083C192.712 310.123 192.716 310.167 192.735 310.205Z" fill="#90B7D8"/>
<path d="M223.042 328.303C223.042 328.111 223.042 327.92 223.042 327.744C223.042 327.568 223.042 327.648 223.042 327.6C223.042 327.472 223.042 327.345 223.042 327.233C223.042 327.121 223.042 326.85 223.042 326.658C223.042 326.466 223.042 326.514 223.042 326.434C223.035 326.392 223.035 326.349 223.042 326.306C223.042 326.227 223.042 326.163 223.042 326.099C223.042 326.035 223.042 325.715 222.93 325.508C222.938 325.391 222.938 325.273 222.93 325.156C222.93 325.156 222.93 325.076 222.93 325.045C222.93 325.013 222.93 324.965 222.93 324.933C222.93 324.901 222.93 324.533 222.787 324.342C222.643 324.15 222.787 324.006 222.659 323.831C222.659 323.831 222.547 323.431 222.483 323.24C222.419 323.048 222.372 322.872 222.308 322.68C222.308 322.68 222.212 322.361 222.148 322.185L221.956 321.658C221.92 321.604 221.893 321.545 221.877 321.482L221.781 321.243L221.557 320.732C221.557 320.588 221.429 320.46 221.382 320.332L221.126 319.789L220.839 319.246L220.407 318.479C220.407 318.479 220.328 318.368 220.312 318.32C220.296 318.272 220.024 317.856 219.865 317.633C219.8 317.505 219.725 317.382 219.641 317.265L219.561 317.138C219.488 317.048 219.424 316.952 219.37 316.85L219.082 316.451L218.779 316.083C218.776 316.046 218.776 316.009 218.779 315.972L218.427 315.54L218.092 315.141L217.853 314.885L217.501 314.518C217.447 314.455 217.388 314.397 217.326 314.342H217.23L217.15 314.246C217.02 314.138 216.897 314.02 216.783 313.895L216.399 313.576L216.064 313.288L215.697 313.017L215.553 312.921L215.457 312.841H215.346L214.994 312.601L214.643 312.394H214.563L200.463 304.247L200.208 304.103L199.873 303.928L199.617 303.816L199.282 303.688L198.946 303.56H198.851H198.691L198.356 303.464H198.1H198.004H197.637H197.286H196.391L195.865 303.544H195.593L195.274 303.64C195.015 303.719 194.768 303.832 194.539 303.976L192.352 305.253C192.575 305.11 192.817 304.997 193.07 304.918L193.469 304.79H193.709C193.925 304.743 194.143 304.711 194.364 304.694H194.459C194.693 304.678 194.928 304.678 195.162 304.694C195.42 304.708 195.677 304.746 195.928 304.806L196.695 305.014L197.525 305.349C197.828 305.485 198.121 305.639 198.403 305.812L212.503 313.943C212.811 314.12 213.109 314.312 213.397 314.518H213.493L214.356 315.189C214.643 315.429 214.93 315.684 215.202 315.956C215.202 315.956 215.202 315.956 215.202 316.035C215.473 316.291 215.729 316.563 215.968 316.834C216.24 317.138 216.495 317.457 216.735 317.777L217.326 318.591L217.517 318.879C217.628 319.027 217.729 319.182 217.821 319.342C217.98 319.582 218.14 319.821 218.284 320.077C218.427 320.332 218.619 320.652 218.779 320.955V321.051C218.97 321.419 219.162 321.818 219.354 322.201C219.535 322.574 219.694 322.941 219.833 323.303C219.839 323.356 219.839 323.41 219.833 323.463C219.992 323.847 220.136 324.23 220.264 324.613C220.391 324.997 220.519 325.412 220.631 325.811V325.939C220.727 326.322 220.823 326.706 220.902 327.073C220.902 327.073 220.902 327.169 220.902 327.201C220.982 327.584 221.046 327.968 221.094 328.335C221.102 328.383 221.102 328.431 221.094 328.479C221.094 328.846 221.19 329.23 221.222 329.597C221.214 329.639 221.214 329.683 221.222 329.725C221.222 330.124 221.222 330.523 221.222 330.923L221.126 367.965L223.314 366.687L223.425 329.645C223.058 328.655 223.058 328.479 223.042 328.303Z" fill="#90B7D8"/>
<path d="M211.657 312.841C216.751 315.78 220.887 323.527 220.855 330.108L220.759 367.151L218.555 365.873L218.651 328.83C218.651 323.655 215.457 317.649 211.641 315.381L197.557 307.234C193.677 304.998 190.499 307.378 190.483 312.553L190.388 349.612L188.168 348.334L188.28 311.291C188.28 304.71 192.463 301.707 197.557 304.71L211.657 312.841Z" fill="#56839A"/>
<path d="M229.477 284.232C229.477 284.232 234.395 284.392 236.12 286.501C237.844 288.609 240.192 290.798 240.735 292.762C241.278 294.727 240.894 295.414 239.329 295.03C236.462 293.803 233.818 292.108 231.505 290.015C230.658 289.004 229.492 288.311 228.2 288.05C227.449 287.747 226.906 285.255 229.477 284.232Z" fill="#EFB285"/>
<path d="M228.2 288.05C229.492 288.311 230.658 289.004 231.505 290.015C233.818 292.108 236.462 293.803 239.329 295.031C239.523 295.078 239.721 295.104 239.92 295.111C238.691 293.817 236.599 291.612 234.731 289.743C232.716 287.968 230.262 286.765 227.625 286.261C227.519 286.582 227.518 286.928 227.622 287.249C227.725 287.571 227.927 287.851 228.2 288.05Z" fill="#DB9669"/>
<path d="M202.507 250.049C204.823 249.49 208.751 250.353 209.373 256.614C209.996 262.876 211.577 280.399 211.577 280.399C211.577 280.399 228.312 283.21 230.18 283.833C229.754 284.001 229.366 284.253 229.039 284.574C228.713 284.896 228.454 285.28 228.28 285.703C228.105 286.127 228.018 286.581 228.024 287.04C228.029 287.498 228.127 287.95 228.312 288.369C228.312 288.369 209.693 291.66 205.781 287.603C201.868 283.546 193.038 252.381 202.507 250.049Z" fill="#F7A51D"/>
<path d="M230.179 283.833C228.311 283.21 211.577 280.399 211.577 280.399C211.577 280.399 209.98 262.828 209.373 256.614C208.766 250.4 204.822 249.49 202.507 250.049C201.923 250.198 201.379 250.47 200.91 250.848L200.782 251.103C200.782 251.103 206.435 253.563 207.249 265.016C208.064 276.469 203.736 283.258 213.301 284.184L228.279 285.782C228.661 284.927 229.335 284.236 230.179 283.833Z" fill="#F0B764"/>
<path d="M245.27 424.608L248.591 422.691L248.814 345.523L245.493 347.456L245.27 424.608Z" fill="#D4E4F8"/>
<path d="M245.494 347.456L248.815 345.523L203.977 319.63L200.655 321.563L245.494 347.456Z" fill="#AEB6BD"/>
<path d="M200.655 321.562L200.432 398.714L245.27 424.607L245.494 347.456L200.655 321.562Z" fill="#7AA2D6"/>
<path d="M400.958 335.411L404.279 333.479L404.503 256.327L401.166 258.259L400.958 335.411Z" fill="#DFE5F3"/>
<path d="M401.166 258.259L404.503 256.327L359.665 230.434L356.344 232.366L401.166 258.259Z" fill="#AEB6BD"/>
<path d="M356.344 232.366L356.12 309.518L400.958 335.411L401.166 258.259L356.344 232.366Z" fill="#7AA2D6"/>
<path d="M186.028 326.897V331.466L243.082 364.627L243.066 360.058L186.028 326.897Z" fill="#B2CBEC"/>
<path d="M243.066 360.059L243.082 364.627L420.408 262.221L420.392 257.653L243.066 360.059Z" fill="#044482"/>
<path d="M186.028 326.898L243.066 360.059L420.392 257.653L363.338 224.492L186.028 326.898Z" fill="#7AA2D6"/>
<path d="M229.797 309.551L253.893 323.559L272.591 312.761L248.495 298.752L229.797 309.551Z" fill="#E3E7EE"/>
<path d="M249.357 317.713L249.932 318.048L255.617 314.774L255.026 314.438L249.357 317.713Z" fill="#A5AAB4"/>
<path d="M251.641 319.039L252.215 319.374L260.631 314.518L260.056 314.183L251.641 319.039Z" fill="#A5AAB4"/>
<path d="M250.507 318.384L251.082 318.719L258.443 314.47L257.868 314.135L250.507 318.384Z" fill="#A5AAB4"/>
<path d="M257.549 311.675L262.419 314.502L266.762 311.994L261.892 309.151L257.549 311.675Z" fill="#A5AAB4"/>
<path d="M253.908 320.365L254.499 320.7L261.86 316.451L261.269 316.1L253.908 320.365Z" fill="#A5AAB4"/>
<path d="M252.774 319.694L253.349 320.045L259.034 316.77L258.443 316.419L252.774 319.694Z" fill="#A5AAB4"/>
<path d="M248.224 317.058L248.798 317.393L257.214 312.537L256.639 312.186L248.224 317.058Z" fill="#A5AAB4"/>
<path d="M241.421 312.425L241.996 312.761L247.664 309.486L247.09 309.151L241.421 312.425Z" fill="#A5AAB4"/>
<path d="M243.688 313.751L244.263 314.087L252.694 309.231L252.104 308.896L243.688 313.751Z" fill="#A5AAB4"/>
<path d="M242.555 313.096L243.13 313.416L250.491 309.167L249.916 308.832L242.555 313.096Z" fill="#A5AAB4"/>
<path d="M245.956 315.077L246.547 315.413L253.908 311.148L253.333 310.812L245.956 315.077Z" fill="#A5AAB4"/>
<path d="M244.822 314.406L245.413 314.742L251.082 311.483L250.491 311.132L244.822 314.406Z" fill="#A5AAB4"/>
<path d="M240.271 311.755L240.862 312.106L249.262 307.234L248.687 306.899L240.271 311.755Z" fill="#A5AAB4"/>
<g opacity="0.1">
<path opacity="0.1" d="M325.429 276.469L340.199 285.063L375.201 264.856L360.431 256.263L325.429 276.469Z" fill="#010101"/>
</g>
<path d="M332.646 273.163V275.255L342.898 281.213L342.882 279.105L332.646 273.163Z" fill="#AAB6C5"/>
<path d="M342.882 279.105L342.898 281.213L367.153 267.205L367.137 265.096L342.882 279.105Z" fill="#C4C6C6"/>
<path d="M332.646 273.163L342.882 279.105L367.137 265.096L356.902 259.154L332.646 273.163Z" fill="#E7E8EC"/>
<path opacity="0.5" d="M332.646 273.163L367.137 265.096L356.902 259.154L332.646 273.163Z" fill="#94969A"/>
<path d="M342.1 275.191L340.279 274.137L340.231 255.208L342.052 256.263L342.1 275.191Z" fill="#AAB6C5"/>
<path d="M342.052 256.263L340.231 255.209L356.71 245.688L358.531 246.743L342.052 256.263Z" fill="#C1C6D1"/>
<path d="M358.531 246.743L358.579 265.671L342.1 275.191L342.052 256.263L358.531 246.743Z" fill="#D5DFE6"/>
<path d="M330.618 240.8L328.399 239.091L323.018 274.297L325.237 276.006L330.618 240.8Z" fill="#BDBBBB"/>
<path d="M382.083 211.074L379.879 209.365L328.398 239.091L330.618 240.801L382.083 211.074Z" fill="#D2D0D0"/>
<path d="M330.619 240.8L325.237 276.006L376.702 246.279L382.084 211.074L330.619 240.8Z" fill="#D5DFE6"/>
<path d="M330.618 240.8L376.702 246.279L382.083 211.074L330.618 240.8Z" fill="#E9F0F4"/>
<g opacity="0.1">
<path opacity="0.1" d="M387.689 256.135C384.958 257.732 384.942 260.272 387.689 261.854C389.214 262.633 390.902 263.04 392.615 263.04C394.328 263.04 396.016 262.633 397.541 261.854C400.272 260.256 400.288 257.717 397.541 256.151C396.016 255.373 394.329 254.966 392.617 254.963C390.905 254.96 389.216 255.362 387.689 256.135Z" fill="#010101"/>
</g>
<path d="M388.87 255.576C386.795 256.774 386.795 258.771 388.87 259.921C390.026 260.515 391.307 260.825 392.607 260.825C393.907 260.825 395.187 260.515 396.343 259.921C398.403 258.739 398.419 256.726 396.343 255.608C395.189 255.013 393.91 254.699 392.611 254.694C391.312 254.688 390.03 254.991 388.87 255.576Z" fill="#DFE5F3"/>
<path d="M399.553 249.394L397.876 258.036H387.322L385.629 249.187L399.553 249.394Z" fill="#DFE5F3"/>
<path d="M387.689 246.328C384.958 247.925 384.942 250.465 387.689 252.046C389.215 252.822 390.903 253.226 392.615 253.226C394.327 253.226 396.015 252.822 397.541 252.046C400.272 250.449 400.288 247.925 397.541 246.343C396.016 245.565 394.329 245.158 392.617 245.155C390.905 245.153 389.216 245.554 387.689 246.328Z" fill="#A0B1BD"/>
<path d="M389.206 247.094C388.772 247.243 388.395 247.525 388.129 247.898C387.862 248.272 387.719 248.72 387.719 249.179C387.719 249.638 387.862 250.085 388.129 250.459C388.395 250.833 388.772 251.114 389.206 251.263C390.32 251.825 391.551 252.118 392.799 252.118C394.046 252.118 395.277 251.825 396.391 251.263C398.387 250.113 398.403 248.244 396.391 247.094C395.277 246.532 394.046 246.24 392.799 246.24C391.551 246.24 390.32 246.532 389.206 247.094Z" fill="#398852"/>
<path d="M397.796 249.714C397.796 249.714 402.938 243.213 397.796 231.536C397.796 231.536 393.373 237.127 395.912 251.471C396.716 251.109 397.379 250.491 397.796 249.714Z" fill="#398852"/>
<path d="M397.828 231.616C397.732 236.12 397.477 243.931 396.854 250.88C396.604 251.127 396.312 251.327 395.992 251.471C393.628 238.101 397.301 232.335 397.828 231.616Z" fill="#2D7841"/>
<path d="M395.273 248.915C395.273 248.915 399.377 241.727 392.655 230.929C392.655 230.929 389.094 237.126 393.74 250.927C394.454 250.438 394.991 249.733 395.273 248.915Z" fill="#398852"/>
<path d="M393.006 230.913C393.581 235.386 394.491 243.149 394.906 250.081C394.688 250.354 394.43 250.591 394.14 250.784C389.812 238.005 392.607 231.712 393.006 230.913Z" fill="#2D7841"/>
<path d="M395.002 251.758C395.002 251.758 401.166 249.586 402.699 239.65C402.699 239.65 397.398 241.535 393.118 252.174C393.774 252.233 394.432 252.088 395.002 251.758Z" fill="#398852"/>
<path d="M402.635 239.682C400.671 242.653 397.222 247.765 393.885 252.141C393.615 252.19 393.34 252.19 393.07 252.141C397.094 242.254 401.981 239.954 402.635 239.682Z" fill="#2D7841"/>
<path d="M392.272 250.784C392.272 250.784 395.577 247.014 392.879 239.81C392.879 239.81 390.036 243.005 391.122 251.79C391.605 251.589 392.009 251.236 392.272 250.784Z" fill="#398852"/>
<path d="M392.814 239.874C392.622 242.59 392.239 247.302 391.648 251.471C391.488 251.613 391.304 251.726 391.105 251.806C390.099 243.66 392.495 240.289 392.814 239.874Z" fill="#2D7841"/>
<path d="M390.818 248.388C390.818 248.388 394.012 242.653 388.519 234.219C388.519 234.219 385.788 239.155 389.637 249.985C390.19 249.592 390.604 249.032 390.818 248.388Z" fill="#398852"/>
<path d="M388.488 234.299C388.983 237.813 389.813 243.883 390.228 249.41C390.06 249.63 389.861 249.824 389.637 249.985C386.06 239.89 388.184 234.922 388.488 234.299Z" fill="#2D7841"/>
<path d="M390.004 249.442C390.004 249.442 390.754 244.65 384.782 240.098C384.782 240.098 384.111 244.251 389.572 250.864C389.867 250.45 390.019 249.95 390.004 249.442Z" fill="#398852"/>
<path d="M384.831 240.162C386.092 242.494 388.232 246.551 389.925 250.321C389.864 250.515 389.772 250.698 389.653 250.864C384.495 244.698 384.719 240.673 384.831 240.162Z" fill="#2D7841"/>
<path d="M277.35 296.564L277.366 304.551L300.647 318.08L300.615 310.094L277.35 296.564Z" fill="#1C3D77"/>
<path d="M300.615 310.093L300.647 318.08L319.074 307.442L319.058 299.439L300.615 310.093Z" fill="#1D2D51"/>
<path d="M277.35 296.564L300.615 310.094L319.058 299.439L295.793 285.91L277.35 296.564Z" fill="#164388"/>
<path d="M318.163 301.691L300.646 311.723L300.614 316.866L318.115 306.707L318.163 301.691Z" fill="#1B4D9D"/>
<path d="M300.647 311.723L277.35 298.401V303.225L300.615 316.866L300.647 311.723Z" fill="#164388"/>
<path d="M280.432 289.472L280.448 297.474L303.729 311.004L303.697 303.001L280.432 289.472Z" fill="#95C4D3"/>
<path d="M303.697 303.001L303.729 311.004L322.156 300.35L322.14 292.363L303.697 303.001Z" fill="#8BB8CA"/>
<path d="M280.432 289.472L303.697 303.001L322.14 292.363L298.875 278.833L280.432 289.472Z" fill="#BAD1DE"/>
<path d="M321.245 294.599L303.728 304.646L303.696 309.79L321.197 299.631L321.245 294.599Z" fill="#BAD1DE"/>
<path d="M303.729 304.646L280.432 291.309V296.133L303.697 309.79L303.729 304.646Z" fill="#C6DBE5"/>
<path d="M300.375 260.192C300.375 260.192 307.864 266.39 315.209 264.984C315.209 264.984 315.209 263.068 311.936 262.349C310.942 262.198 310.005 261.788 309.22 261.16C308.435 260.532 307.83 259.708 307.465 258.771C307.465 258.387 310.036 258.164 311.186 258.116C312.335 258.068 313.708 256.519 310.914 256.311C308.12 256.103 303.361 255.081 300.663 255.672C300.663 255.576 297.948 258.515 300.375 260.192Z" fill="#EFB285"/>
<path d="M276.248 208.726C276.248 208.726 270.1 210.147 268.599 215.562C267.098 220.977 264.799 245.656 269.046 252.046C273.294 258.435 300.982 261.774 300.982 261.774C300.422 260.535 300.205 259.168 300.354 257.816C300.503 256.464 301.012 255.178 301.829 254.09L277.876 244.107C277.876 244.107 282.076 211.074 276.248 208.726Z" fill="#AA6F18"/>
<path d="M277.845 244.107L301.797 254.091C301.436 254.588 301.131 255.124 300.887 255.688C295.17 253.723 276.36 247.158 274.444 244.794C272.528 242.43 276.839 214.253 277.558 209.924C281.39 216.393 277.845 244.107 277.845 244.107Z" fill="#F7A51D"/>
</g>
<defs>
<clipPath id="clip0">
<rect width="552" height="530" fill="white" transform="translate(0 0.000488281)"/>
</clipPath>
</defs>
</svg>
