<svg width="22" height="22" viewBox="0 0 22 22" fill="none" xmlns="http://www.w3.org/2000/svg">
<path d="M17.5703 12.0859C17.9586 12.0859 18.2734 11.7711 18.2734 11.3828C18.2734 10.9945 17.9586 10.6797 17.5703 10.6797C17.182 10.6797 16.8672 10.9945 16.8672 11.3828C16.8672 11.7711 17.182 12.0859 17.5703 12.0859Z" fill="#545358"/>
<path d="M19.1875 5.40625H18.2734V4.70312C18.2734 4.31479 17.9586 4 17.5703 4C17.182 4 16.8672 4.31479 16.8672 4.70312V5.40625H13.668V4.70312C13.668 4.31479 13.3532 4 12.9648 4C12.5765 4 12.2617 4.31479 12.2617 4.70312V5.40625H9.09766V4.70312C9.09766 4.31479 8.78287 4 8.39453 4C8.0062 4 7.69141 4.31479 7.69141 4.70312V5.40625H6.8125C5.26169 5.40625 4 6.66794 4 8.21875V19.1875C4 20.7383 5.26169 22 6.8125 22H12.1914C12.5797 22 12.8945 21.6852 12.8945 21.2969C12.8945 20.9085 12.5797 20.5938 12.1914 20.5938H6.8125C6.03709 20.5938 5.40625 19.9629 5.40625 19.1875V8.21875C5.40625 7.44334 6.03709 6.8125 6.8125 6.8125H7.69141V7.51562C7.69141 7.90396 8.0062 8.21875 8.39453 8.21875C8.78287 8.21875 9.09766 7.90396 9.09766 7.51562V6.8125H12.2617V7.51562C12.2617 7.90396 12.5765 8.21875 12.9648 8.21875C13.3532 8.21875 13.668 7.90396 13.668 7.51562V6.8125H16.8672V7.51562C16.8672 7.90396 17.182 8.21875 17.5703 8.21875C17.9586 8.21875 18.2734 7.90396 18.2734 7.51562V6.8125H19.1875C19.9629 6.8125 20.5938 7.44334 20.5938 8.21875V12.2266C20.5938 12.6149 20.9085 12.9297 21.2969 12.9297C21.6852 12.9297 22 12.6149 22 12.2266V8.21875C22 6.66794 20.7383 5.40625 19.1875 5.40625Z" fill="#545358"/>
<path d="M17.7461 13.4922C15.4005 13.4922 13.4922 15.4005 13.4922 17.7461C13.4922 20.0917 15.4005 22 17.7461 22C20.0917 22 22 20.0917 22 17.7461C22 15.4005 20.0917 13.4922 17.7461 13.4922ZM17.7461 20.5938C16.1759 20.5938 14.8984 19.3163 14.8984 17.7461C14.8984 16.1759 16.1759 14.8984 17.7461 14.8984C19.3163 14.8984 20.5938 16.1759 20.5938 17.7461C20.5938 19.3163 19.3163 20.5938 17.7461 20.5938Z" fill="#545358"/>
<path d="M18.7656 17.043H18.4492V16.3047C18.4492 15.9164 18.1344 15.6016 17.7461 15.6016C17.3578 15.6016 17.043 15.9164 17.043 16.3047V17.7461C17.043 18.1344 17.3578 18.4492 17.7461 18.4492H18.7656C19.154 18.4492 19.4688 18.1344 19.4688 17.7461C19.4688 17.3578 19.154 17.043 18.7656 17.043Z" fill="#545358"/>
<path d="M14.5117 12.0859C14.9 12.0859 15.2148 11.7711 15.2148 11.3828C15.2148 10.9945 14.9 10.6797 14.5117 10.6797C14.1234 10.6797 13.8086 10.9945 13.8086 11.3828C13.8086 11.7711 14.1234 12.0859 14.5117 12.0859Z" fill="#545358"/>
<path d="M11.4531 15.1445C11.8415 15.1445 12.1562 14.8297 12.1562 14.4414C12.1562 14.0531 11.8415 13.7383 11.4531 13.7383C11.0648 13.7383 10.75 14.0531 10.75 14.4414C10.75 14.8297 11.0648 15.1445 11.4531 15.1445Z" fill="#545358"/>
<path d="M8.39453 12.0859C8.78286 12.0859 9.09766 11.7711 9.09766 11.3828C9.09766 10.9945 8.78286 10.6797 8.39453 10.6797C8.00621 10.6797 7.69141 10.9945 7.69141 11.3828C7.69141 11.7711 8.00621 12.0859 8.39453 12.0859Z" fill="#545358"/>
<path d="M8.39453 15.1445C8.78286 15.1445 9.09766 14.8297 9.09766 14.4414C9.09766 14.0531 8.78286 13.7383 8.39453 13.7383C8.00621 13.7383 7.69141 14.0531 7.69141 14.4414C7.69141 14.8297 8.00621 15.1445 8.39453 15.1445Z" fill="#545358"/>
<path d="M8.39453 18.2031C8.78286 18.2031 9.09766 17.8883 9.09766 17.5C9.09766 17.1117 8.78286 16.7969 8.39453 16.7969C8.00621 16.7969 7.69141 17.1117 7.69141 17.5C7.69141 17.8883 8.00621 18.2031 8.39453 18.2031Z" fill="#545358"/>
<path d="M11.4531 18.2031C11.8415 18.2031 12.1562 17.8883 12.1562 17.5C12.1562 17.1117 11.8415 16.7969 11.4531 16.7969C11.0648 16.7969 10.75 17.1117 10.75 17.5C10.75 17.8883 11.0648 18.2031 11.4531 18.2031Z" fill="#545358"/>
<path d="M11.4531 12.0859C11.8415 12.0859 12.1562 11.7711 12.1562 11.3828C12.1562 10.9945 11.8415 10.6797 11.4531 10.6797C11.0648 10.6797 10.75 10.9945 10.75 11.3828C10.75 11.7711 11.0648 12.0859 11.4531 12.0859Z" fill="#545358"/>
</svg>
