<svg width="425" height="266" viewBox="0 0 425 266" fill="none" xmlns="http://www.w3.org/2000/svg">
<path d="M252.557 143.208C250.628 143.925 248.539 144.096 246.519 143.702C241.219 143.291 236.087 141.654 231.528 138.921C227.101 136.016 223.651 131.234 223.41 125.946C223.233 122.356 224.501 118.868 225.326 115.368C226.533 110.272 226.833 105.005 226.213 99.8052" fill="#2D2D7B"/>
<path d="M272.621 127.188C270.528 131.609 270.147 136.649 271.552 141.334C272.958 146.019 276.05 150.017 280.231 152.555C280.795 152.809 281.246 153.26 281.5 153.823C281.766 154.61 281.17 155.409 280.574 156.005C277.872 158.711 274.517 160.673 270.833 161.7C265.329 163.222 259.494 162.55 253.863 161.7C249.5 161.04 244.744 160.026 242.004 156.627C244.763 153.806 246.627 150.233 247.363 146.356C248.099 142.48 247.673 138.472 246.139 134.837" fill="#F7C29E"/>
<path d="M273.612 122.521C271.354 127.81 272.115 129.015 268.45 132.998C267.664 133.86 265.14 136.904 263.973 138.007C262.334 139.264 260.575 140.356 258.722 141.267C257.003 142.202 255.144 142.853 253.217 143.195C250.769 143.474 249.602 143.601 247.725 142.294C247.725 142.294 247.459 137.285 246.457 135.674" fill="#DBA686"/>
<path d="M220.024 94.808C222.015 101.86 217.385 108.886 215.901 116.065C214.303 123.739 216.815 132.439 223.068 137.183C220.902 132.162 220.654 126.521 222.37 121.329C223.638 117.676 225.744 114.378 226.657 110.637C227.634 106.642 227.114 102.443 226.581 98.3593" fill="#2D2D7B"/>
<path d="M246.468 62.1864C257.375 54.6652 276.743 58.4575 285.329 68.0461C291.963 75.4532 294.88 85.4096 300.194 93.8186C302.872 98.026 304.815 102.658 305.94 107.517C307.639 116.319 305.838 125.375 297.67 130.017C302.592 121.938 299.624 112.78 292.673 109.33" fill="#2D2D7B"/>
<path d="M235.927 81.7061C232.122 84.4457 228.153 89.7092 227.392 94.3006C226.631 98.892 229.928 103.179 230.651 107.504C231.717 113.731 230.334 119.122 233.01 124.842C234.7 128.23 236.975 131.291 239.732 133.885C242.13 135.902 243.918 138.096 246.987 138.68C249.41 139.136 251.021 138.426 253.329 137.83C260.155 135.919 266.443 132.445 271.694 127.683C277.059 122.369 278.899 119.997 280.649 112.653C282.264 105.234 282.103 97.5371 280.18 90.1912" fill="#F7C29E"/>
<path d="M227.823 100.262C229.758 95.7013 232.592 91.5774 236.156 88.1367C236.621 87.6462 237.182 87.2575 237.805 86.9952C240.113 86.2595 241.851 88.9611 243.335 90.8763C247.317 95.9496 258.225 100.579 264.655 99.7546C271.075 98.91 277.551 98.5834 284.023 98.778C279.837 88.8977 268.537 75.2377 259.125 70.0756C255.32 67.9955 251.034 66.3974 246.734 66.9301C240.253 67.7292 235.319 73.0435 231.349 78.1803C229.332 80.7169 227.265 83.799 227.81 87.0586" fill="#DBA686"/>
<path d="M240.38 72.6502C239.733 81.1354 231.425 85.9804 229.84 94.3514C229.453 97.1453 229.453 99.9792 229.84 102.773C230.527 106.456 231.776 110.01 233.543 113.313C229.269 112.641 223.98 107.567 222.344 103.572C219.296 96.2794 219.232 88.0815 222.167 80.7422C225.223 73.538 231.425 61.6411 247.761 62.1864" fill="#2D2D7B"/>
<path d="M229.398 74.4386C237.236 77.9265 240.191 87.7307 247.154 92.6899C251.116 95.7109 255.816 97.6121 260.763 98.1945C263.847 98.1928 266.916 97.766 269.883 96.9261C266.826 94.0597 262.273 90.2547 262.273 86.0565C264.821 89.496 268.026 92.3951 271.704 94.5854C275.381 96.7758 279.457 98.2138 283.695 98.816L275.768 78.2182C275.146 76.5064 274.413 74.8371 273.574 73.221C271.706 70.0387 269.117 67.3397 266.015 65.3415C262.913 63.3433 259.385 62.1018 255.715 61.7172C248.317 61.0331 240.912 62.9628 234.788 67.171C232.036 68.9848 229.41 71.3312 228.446 74.4893" fill="#2D2D7B"/>
<path d="M286.345 78.6876C285.367 76.8669 284.256 75.1204 283.022 73.462C280.93 70.6789 278.288 68.3562 275.26 66.6384C270.584 64.0869 265.153 63.2822 259.938 64.3681L270.085 87.0205C270.39 87.9337 270.719 88.885 271.062 89.8489L267.257 90.9904C267.257 90.9904 273.725 95.5057 273.725 109.013C273.725 119.591 270.592 124.031 269.616 129.637C269.238 131.301 269.165 133.02 269.4 134.71C269.578 136.409 269.933 138.198 270.199 140.329C270.144 140.65 270.179 140.98 270.303 141.282C270.426 141.584 270.631 141.845 270.896 142.036C271.161 142.226 271.474 142.338 271.799 142.359C272.124 142.381 272.449 142.31 272.736 142.155C277.141 141.381 281.412 139.98 285.419 137.995C289.351 135.877 293.778 132.503 295.477 128.368C296.6 125.592 297.247 122.646 297.392 119.655C297.988 105.348 293.283 91.2314 286.345 78.6876Z" fill="#2D2D7B"/>
<path d="M241.674 105.082C241.435 108.306 240.677 111.471 239.429 114.455C239.369 114.591 239.339 114.737 239.339 114.886C239.339 115.034 239.369 115.181 239.429 115.317C239.485 115.409 239.559 115.489 239.646 115.552C239.733 115.615 239.832 115.66 239.936 115.685C241.391 116.226 242.939 116.468 244.49 116.395C244.127 112.499 243.165 108.683 241.636 105.082" fill="#DBA686"/>
<path d="M237.59 97.3446C234.819 97.0508 232.018 97.2832 229.333 98.0295C228.252 98.3275 227.225 98.794 226.289 99.412C225.385 100.097 224.702 101.032 224.323 102.101C223.956 102.938 225.338 103.369 225.693 102.481C226.006 101.632 226.59 100.91 227.355 100.427C228.239 99.9119 229.191 99.5234 230.183 99.2725C232.606 98.6901 235.111 98.5228 237.59 98.7778C238.516 98.8666 238.503 97.4334 237.59 97.3446Z" fill="#09005D"/>
<path d="M234.876 107.504C235.688 107.504 236.347 106.663 236.347 105.627C236.347 104.59 235.688 103.75 234.876 103.75C234.063 103.75 233.404 104.59 233.404 105.627C233.404 106.663 234.063 107.504 234.876 107.504Z" fill="#0B0042"/>
<path d="M255.613 105.652C256.425 105.652 257.084 104.812 257.084 103.775C257.084 102.739 256.425 101.898 255.613 101.898C254.8 101.898 254.142 102.739 254.142 103.775C254.142 104.812 254.8 105.652 255.613 105.652Z" fill="#0B0042"/>
<path d="M238.212 122.014L255.766 119.984C255.766 119.984 251.593 127.176 246.748 127.861C240.178 128.761 238.212 122.014 238.212 122.014Z" fill="white"/>
<path d="M250.641 97.1037C252.967 96.1763 255.433 95.6489 257.934 95.5437C258.929 95.5089 259.924 95.6157 260.889 95.8608C261.829 96.1351 262.648 96.721 263.21 97.5223C263.794 98.2452 264.796 97.2306 264.225 96.5076C263.566 95.6244 262.662 94.9541 261.625 94.5797C260.54 94.252 259.41 94.0937 258.276 94.1105C255.528 94.1596 252.812 94.7098 250.261 95.7339C249.424 96.0637 249.791 97.4462 250.641 97.1037Z" fill="#09005D"/>
<path d="M422.146 261.302H19.7542C14.3257 261.302 8.88458 261.201 3.44342 261.302H2.73316C2.20463 261.343 1.71106 261.582 1.35103 261.971C0.991002 262.36 0.791016 262.871 0.791016 263.401C0.791016 263.931 0.991002 264.442 1.35103 264.831C1.71106 265.22 2.20463 265.459 2.73316 265.5H405.112C410.553 265.5 415.994 265.614 421.423 265.5H422.146C422.674 265.459 423.168 265.22 423.528 264.831C423.888 264.442 424.088 263.931 424.088 263.401C424.088 262.871 423.888 262.36 423.528 261.971C423.168 261.582 422.674 261.343 422.146 261.302Z" fill="#AD8DCE"/>
<path opacity="0.66" d="M378.871 105.995C394.443 105.995 407.066 93.3714 407.066 77.7997C407.066 62.228 394.443 49.6046 378.871 49.6046C363.299 49.6046 350.676 62.228 350.676 77.7997C350.676 93.3714 363.299 105.995 378.871 105.995Z" fill="url(#paint0_linear)"/>
<path opacity="0.99" d="M377.893 95.5183C379.506 95.1508 381.027 94.4571 382.362 93.4799C383.697 92.5027 384.817 91.2627 385.655 89.8362C385.932 89.364 386.173 88.8722 386.378 88.3649C388.167 84.9023 388.014 79.1821 387.887 77.267C387.941 73.3659 386.951 69.5215 385.021 66.131C384.778 65.5811 384.457 65.0687 384.07 64.609C383.006 63.2763 381.678 62.1774 380.17 61.3809C378.662 60.5843 377.006 60.1073 375.306 59.9796C373.708 59.7893 372.16 60.6391 372.224 61.6538L372.972 71.6102C373.048 72.6122 374.671 73.221 376.206 72.8151C377.796 72.4115 379.327 71.8017 380.759 71.0014C381.57 73.1205 381.999 75.3662 382.028 77.6348V77.7109C382.169 79.7594 382.093 81.8172 381.799 83.8496C380.27 83.2504 378.665 82.8621 377.031 82.6954C375.432 82.4925 373.885 83.355 373.949 84.3696L374.697 94.326C374.773 95.328 376.396 95.9242 377.893 95.5183Z" fill="#F8F8F8"/>
<path opacity="0.66" d="M255.841 40.7135C267.084 40.7135 276.198 31.5995 276.198 20.3568C276.198 9.11403 267.084 0 255.841 0C244.598 0 235.484 9.11403 235.484 20.3568C235.484 31.5995 244.598 40.7135 255.841 40.7135Z" fill="#2D2D7B"/>
<path d="M263.959 16.6912C264.002 15.5974 263.824 14.5061 263.435 13.4828C263.046 12.4594 262.455 11.5252 261.696 10.736C260.938 9.9468 260.028 9.31894 259.02 8.89006C258.013 8.46118 256.93 8.24011 255.835 8.24011C254.74 8.24011 253.657 8.46118 252.65 8.89006C251.643 9.31894 250.733 9.9468 249.974 10.736C249.215 11.5252 248.624 12.4594 248.235 13.4828C247.846 14.5061 247.668 15.5974 247.711 16.6912C247.712 17.672 247.879 18.6456 248.206 19.5703V19.6591C248.371 20.0969 248.57 20.521 248.802 20.9274L256.095 32.4946L263.16 20.2679C263.672 19.1442 263.944 17.926 263.959 16.6912ZM256.133 20.3567C255.361 20.3567 254.605 20.1276 253.963 19.6983C253.32 19.2691 252.82 18.659 252.524 17.9451C252.228 17.2313 252.151 16.4459 252.302 15.6881C252.453 14.9303 252.825 14.2342 253.371 13.6879C253.917 13.1416 254.613 12.7695 255.371 12.6188C256.129 12.4681 256.914 12.5454 257.628 12.8411C258.342 13.1368 258.952 13.6375 259.381 14.2799C259.811 14.9223 260.04 15.6776 260.04 16.4502C260.041 16.9637 259.941 17.4724 259.746 17.9471C259.55 18.4218 259.262 18.8531 258.899 19.2162C258.536 19.5793 258.105 19.867 257.63 20.0627C257.155 20.2584 256.647 20.3583 256.133 20.3567Z" fill="url(#paint1_linear)"/>
<path opacity="0.66" d="M165.662 70.3544C168.907 66.2868 170.565 61.1789 170.328 55.9806C170.09 50.7822 167.972 45.8471 164.369 42.0928C160.766 38.3384 155.921 36.0204 150.737 35.5696C145.553 35.1189 140.381 36.5661 136.184 39.6421C131.987 42.7182 129.049 47.2138 127.918 52.2931C126.787 57.3724 127.538 62.6898 130.033 67.2565C132.528 71.8233 136.596 75.3287 141.482 77.1209C146.367 78.9132 151.737 78.8704 156.593 77.0005L167.311 81.0591L165.687 70.3417L165.662 70.3544Z" fill="#2D2D7B"/>
<path d="M140.701 59.5357C141.675 59.5357 142.464 58.7464 142.464 57.7727C142.464 56.7991 141.675 56.0098 140.701 56.0098C139.728 56.0098 138.938 56.7991 138.938 57.7727C138.938 58.7464 139.728 59.5357 140.701 59.5357Z" fill="white"/>
<path d="M148.413 59.5357C149.387 59.5357 150.176 58.7464 150.176 57.7727C150.176 56.7991 149.387 56.0098 148.413 56.0098C147.44 56.0098 146.65 56.7991 146.65 57.7727C146.65 58.7464 147.44 59.5357 148.413 59.5357Z" fill="white"/>
<path d="M156.125 59.5357C157.099 59.5357 157.888 58.7464 157.888 57.7727C157.888 56.7991 157.099 56.0098 156.125 56.0098C155.152 56.0098 154.362 56.7991 154.362 57.7727C154.362 58.7464 155.152 59.5357 156.125 59.5357Z" fill="white"/>
<path opacity="0.67" d="M181.022 154.115C182.178 154.115 183.115 153.178 183.115 152.023C183.115 150.867 182.178 149.93 181.022 149.93C179.867 149.93 178.93 150.867 178.93 152.023C178.93 153.178 179.867 154.115 181.022 154.115Z" fill="#238DF0"/>
<path opacity="0.67" d="M170.026 137.221C171.329 137.221 172.385 136.165 172.385 134.862C172.385 133.559 171.329 132.503 170.026 132.503C168.723 132.503 167.667 133.559 167.667 134.862C167.667 136.165 168.723 137.221 170.026 137.221Z" fill="#238DF0"/>
<path d="M339.843 261.302C344.916 251.523 351.765 242.277 361.404 237.039C370.46 232.054 381.152 230.951 390.576 226.74C394.93 224.812 398.974 222.247 402.575 219.13C401.192 227.932 399.759 236.887 395.561 244.789C392.453 250.597 387.875 255.709 386.061 262.038" fill="url(#paint2_linear)"/>
<path opacity="0.33" d="M400.544 222.694C396.958 228.493 392.606 233.783 387.607 238.421C382.953 242.734 377.854 246.501 373.047 250.623C372.925 246.234 372.459 241.862 371.652 237.546C371.525 236.887 370.536 237.166 370.65 237.825C371.473 242.206 371.932 246.648 372.02 251.105C372.034 251.214 372.083 251.316 372.159 251.396C371.703 251.79 371.233 252.17 370.789 252.576C367.792 255.205 365.225 258.286 363.179 261.708C363.109 261.827 363.088 261.97 363.123 262.104C363.157 262.239 363.244 262.354 363.363 262.425C363.483 262.495 363.625 262.516 363.76 262.481C363.894 262.447 364.009 262.36 364.08 262.241C367.783 255.798 373.808 251.295 379.503 246.729C380.847 245.651 382.204 244.56 383.536 243.431C383.612 243.479 383.701 243.501 383.79 243.495C387.087 242.852 390.406 242.357 393.746 242.011C394.406 241.947 394.418 240.907 393.746 240.971C390.778 241.275 387.823 241.719 384.868 242.239C388.378 239.291 391.652 236.072 394.659 232.612C397.15 229.649 399.414 226.504 401.432 223.201C401.787 222.656 400.887 222.136 400.544 222.694Z" fill="white"/>
<path d="M240.824 204.696C239.81 193.763 236.804 182.653 229.815 174.18C223.245 166.202 213.72 161.205 206.516 153.798C203.19 150.377 200.394 146.478 198.221 142.231C196.242 150.919 194.238 159.797 195.228 168.663C195.963 175.208 198.31 181.651 197.65 188.195" fill="url(#paint3_linear)"/>
<path opacity="0.33" d="M198.803 146.366C199.983 153.078 202.061 159.601 204.98 165.759C207.707 171.491 211.043 176.882 213.985 182.501C215.725 178.465 217.777 174.572 220.124 170.857C220.479 170.299 221.304 170.857 220.948 171.491C218.565 175.262 216.491 179.22 214.746 183.325C214.698 183.417 214.623 183.493 214.531 183.541C214.797 184.073 215.089 184.593 215.355 185.139C217.171 188.694 218.421 192.511 219.059 196.452C219.071 196.585 219.032 196.717 218.95 196.822C218.868 196.927 218.749 196.996 218.617 197.015C218.485 197.035 218.351 197.003 218.242 196.927C218.133 196.85 218.058 196.735 218.031 196.604C216.979 189.248 213.047 182.843 209.457 176.489C208.595 174.992 207.758 173.47 206.921 171.935C206.834 171.96 206.741 171.96 206.654 171.935C203.839 170.109 200.938 168.418 197.954 166.862C197.37 166.558 197.751 165.594 198.347 165.898C200.985 167.281 203.56 168.79 206.096 170.375C203.925 166.338 202.076 162.135 200.566 157.806C199.354 154.131 198.417 150.37 197.763 146.556C197.649 145.858 198.676 145.706 198.803 146.366Z" fill="white"/>
<path d="M294.031 261.848C296.312 244.035 304.326 227.448 316.861 214.589C325.981 205.293 337.218 198.266 346.185 188.817C356.546 177.847 363.453 164.072 366.047 149.207C371.818 161.528 374.975 174.911 375.32 188.512C375.665 202.113 373.19 215.639 368.051 228.237C363.282 239.74 356.281 250.407 353.326 262.482" fill="url(#paint4_linear)"/>
<g opacity="0.31">
<path opacity="0.31" d="M337.23 201.246C336.507 209.516 337.319 217.862 337.788 226.119C337.788 226.778 338.866 226.778 338.828 226.119C338.359 217.862 337.56 209.516 338.27 201.246C338.27 200.587 337.281 200.587 337.23 201.246Z" fill="white"/>
<path opacity="0.31" d="M347.77 213.055L367.125 204.722C367.746 204.456 367.214 203.555 366.605 203.821L347.25 212.154C346.629 212.421 347.161 213.309 347.77 213.055Z" fill="white"/>
<path opacity="0.31" d="M328.048 241.668L347.454 233.335C348.062 233.069 347.542 232.181 346.934 232.435L327.566 240.768C326.957 241.034 327.49 241.922 328.086 241.668H328.048Z" fill="white"/>
<path opacity="0.31" d="M316.177 223.734C317.266 232.236 319.221 240.604 322.011 248.708C322.239 249.342 323.28 249.075 323.013 248.441C320.243 240.425 318.301 232.146 317.217 223.734C317.141 223.087 316.101 223.075 316.177 223.734Z" fill="white"/>
<path opacity="0.31" d="M316.29 262.685C321.477 247.756 332.372 235.948 341.175 223.125C345.814 216.073 349.959 208.708 353.579 201.082C357.331 193.919 360.619 186.522 363.421 178.937C366.468 170.477 367.817 161.499 367.391 152.517C367.391 151.858 366.313 151.845 366.351 152.517C366.776 160.681 365.679 168.853 363.117 176.616C360.485 184.28 357.275 191.734 353.516 198.913C349.912 206.598 345.815 214.041 341.251 221.198C336.951 227.603 332.157 233.653 327.68 239.931C322.682 246.919 318.129 254.276 315.288 262.431C315.072 263.065 316.074 263.344 316.29 262.71V262.685Z" fill="white"/>
</g>
<path d="M240.202 261.848C237.926 244.033 229.912 227.445 217.372 214.589C208.252 205.293 197.015 198.266 188.061 188.817C177.695 177.848 170.784 164.073 168.186 149.207C162.421 161.53 159.267 174.912 158.922 188.512C158.577 202.113 161.049 215.637 166.182 228.237C170.951 239.74 177.952 250.407 180.92 262.482" fill="url(#paint5_linear)"/>
<g opacity="0.31">
<path opacity="0.31" d="M197.015 201.246C197.725 209.516 196.914 217.862 196.444 226.119C196.444 226.778 195.366 226.778 195.404 226.119C195.874 217.862 196.673 209.516 195.975 201.246C195.975 200.587 196.952 200.587 197.015 201.246Z" fill="white"/>
<path opacity="0.31" d="M186.462 213.055L167.108 204.722C166.486 204.456 167.019 203.555 167.628 203.821L186.995 212.154C187.604 212.421 187.071 213.309 186.462 213.055Z" fill="white"/>
<path opacity="0.31" d="M206.184 241.668L186.817 233.335C186.208 233.069 186.741 232.181 187.349 232.435L206.666 240.768C207.275 241.034 206.755 241.922 206.146 241.668H206.184Z" fill="white"/>
<path opacity="0.31" d="M218.081 223.734C216.999 232.237 215.043 240.605 212.247 248.708C212.031 249.342 210.979 249.075 211.245 248.441C214.015 240.425 215.957 232.146 217.041 223.734C217.13 223.087 218.17 223.075 218.081 223.734Z" fill="white"/>
<path opacity="0.31" d="M217.943 262.685C212.768 247.756 201.86 235.948 193.058 223.125C188.418 216.073 184.273 208.708 180.654 201.082C176.901 193.919 173.614 186.522 170.811 178.937C167.764 170.477 166.415 161.499 166.841 152.517C166.841 151.858 167.92 151.845 167.882 152.517C167.47 160.681 168.566 168.85 171.116 176.616C173.752 184.28 176.966 191.734 180.73 198.913C184.329 206.6 188.426 214.044 192.995 221.198C197.281 227.603 202.076 233.653 206.553 239.931C211.55 246.919 216.116 254.276 218.945 262.431C219.16 263.065 218.158 263.344 217.943 262.71V262.685Z" fill="white"/>
</g>
<path opacity="0.45" d="M149.364 151.033C149.897 151.033 150.328 150.602 150.328 150.069C150.328 149.537 149.897 149.105 149.364 149.105C148.832 149.105 148.4 149.537 148.4 150.069C148.4 150.602 148.832 151.033 149.364 151.033Z" fill="#238DF0"/>
<path opacity="0.45" d="M181.022 154.179C182.178 154.179 183.115 153.242 183.115 152.086C183.115 150.93 182.178 149.993 181.022 149.993C179.867 149.993 178.93 150.93 178.93 152.086C178.93 153.242 179.867 154.179 181.022 154.179Z" fill="#238DF0"/>
<path opacity="0.25" d="M170.026 137.284C171.329 137.284 172.385 136.228 172.385 134.925C172.385 133.622 171.329 132.566 170.026 132.566C168.723 132.566 167.667 133.622 167.667 134.925C167.667 136.228 168.723 137.284 170.026 137.284Z" fill="#238DF0"/>
<path opacity="0.48" d="M401.523 258.524C402.055 258.524 402.486 258.093 402.486 257.56C402.486 257.028 402.055 256.596 401.523 256.596C400.99 256.596 400.559 257.028 400.559 257.56C400.559 258.093 400.99 258.524 401.523 258.524Z" fill="#238DF0"/>
<path opacity="0.48" d="M407.8 242.62C408.956 242.62 409.893 241.683 409.893 240.527C409.893 239.371 408.956 238.434 407.8 238.434C406.644 238.434 405.707 239.371 405.707 240.527C405.707 241.683 406.644 242.62 407.8 242.62Z" fill="#238DF0"/>
<path opacity="0.48" d="M392.936 215.186C394.091 215.186 395.028 214.249 395.028 213.093C395.028 211.937 394.091 211 392.936 211C391.78 211 390.843 211.937 390.843 213.093C390.843 214.249 391.78 215.186 392.936 215.186Z" fill="#238DF0"/>
<path opacity="0.48" d="M330.431 172.202C330.963 172.202 331.395 171.77 331.395 171.238C331.395 170.705 330.963 170.274 330.431 170.274C329.898 170.274 329.467 170.705 329.467 171.238C329.467 171.77 329.898 172.202 330.431 172.202Z" fill="#238DF0"/>
<path opacity="0.48" d="M353.794 151.87C354.95 151.87 355.887 150.933 355.887 149.778C355.887 148.622 354.95 147.685 353.794 147.685C352.638 147.685 351.701 148.622 351.701 149.778C351.701 150.933 352.638 151.87 353.794 151.87Z" fill="#238DF0"/>
<path opacity="0.48" d="M333.794 148.205C335.097 148.205 336.153 147.149 336.153 145.846C336.153 144.543 335.097 143.487 333.794 143.487C332.491 143.487 331.435 144.543 331.435 145.846C331.435 147.149 332.491 148.205 333.794 148.205Z" fill="#238DF0"/>
<g opacity="0.4">
<path opacity="0.4" fill-rule="evenodd" clip-rule="evenodd" d="M127.118 186.268L128.018 185.925L127.473 184.441L126.572 184.758L127.118 186.268Z" fill="#1D1D1B"/>
<path opacity="0.4" fill-rule="evenodd" clip-rule="evenodd" d="M128.183 188.931L129.058 188.563L128.462 187.092L127.587 187.447L128.183 188.931Z" fill="#1D1D1B"/>
<path opacity="0.4" fill-rule="evenodd" clip-rule="evenodd" d="M129.325 191.556L130.187 191.151L129.54 189.705L128.665 190.085L129.325 191.556Z" fill="#1D1D1B"/>
<path opacity="0.4" fill-rule="evenodd" clip-rule="evenodd" d="M124.39 178.1L125.303 177.833L124.859 176.311L123.946 176.565L124.39 178.1Z" fill="#1D1D1B"/>
<path opacity="0.4" fill-rule="evenodd" clip-rule="evenodd" d="M125.241 180.839L126.141 180.548L125.659 179.038L124.759 179.317L125.241 180.839Z" fill="#1D1D1B"/>
<path opacity="0.4" fill-rule="evenodd" clip-rule="evenodd" d="M126.141 183.553L127.042 183.236L126.522 181.74L125.621 182.031L126.141 183.553Z" fill="#1D1D1B"/>
<path opacity="0.4" fill-rule="evenodd" clip-rule="evenodd" d="M122.248 169.767L123.186 169.564L122.857 168.004L121.918 168.206L122.248 169.767Z" fill="#1D1D1B"/>
<path opacity="0.4" fill-rule="evenodd" clip-rule="evenodd" d="M122.907 172.557L123.833 172.329L123.465 170.794L122.526 170.997L122.907 172.557Z" fill="#1D1D1B"/>
<path opacity="0.4" fill-rule="evenodd" clip-rule="evenodd" d="M123.617 175.322L124.53 175.068L124.124 173.546L123.198 173.775L123.617 175.322Z" fill="#1D1D1B"/>
<path opacity="0.4" fill-rule="evenodd" clip-rule="evenodd" d="M120.699 161.307L121.638 161.155L121.397 159.595L120.458 159.721L120.699 161.307Z" fill="#1D1D1B"/>
<path opacity="0.4" fill-rule="evenodd" clip-rule="evenodd" d="M121.143 164.135L122.082 163.97C121.98 163.45 121.904 162.93 121.828 162.41L120.89 162.55C120.966 163.082 121.042 163.603 121.143 164.135Z" fill="#1D1D1B"/>
<path opacity="0.4" fill-rule="evenodd" clip-rule="evenodd" d="M121.65 166.938L122.589 166.761L122.31 165.201L121.371 165.365L121.65 166.938Z" fill="#1D1D1B"/>
<path opacity="0.4" fill-rule="evenodd" clip-rule="evenodd" d="M119.723 152.746L120.674 152.682C120.674 152.15 120.572 151.63 120.547 151.097L119.608 151.16C119.621 151.693 119.684 152.226 119.723 152.746Z" fill="#1D1D1B"/>
<path opacity="0.4" fill-rule="evenodd" clip-rule="evenodd" d="M119.965 155.612L120.916 155.511L120.776 153.938L119.838 154.014L119.965 155.612Z" fill="#1D1D1B"/>
<path opacity="0.4" fill-rule="evenodd" clip-rule="evenodd" d="M120.305 158.44L121.244 158.326L121.054 156.753L120.115 156.855L120.305 158.44Z" fill="#1D1D1B"/>
<path opacity="0.4" fill-rule="evenodd" clip-rule="evenodd" d="M119.38 144.159L120.331 144.146L120.318 142.561H119.367L119.38 144.159Z" fill="#1D1D1B"/>
<path opacity="0.4" fill-rule="evenodd" clip-rule="evenodd" d="M119.406 147.013L120.357 146.987L120.345 145.402L119.394 145.427L119.406 147.013Z" fill="#1D1D1B"/>
<path opacity="0.4" fill-rule="evenodd" clip-rule="evenodd" d="M119.546 149.867L120.497 149.828L120.421 148.243L119.47 148.281L119.546 149.867Z" fill="#1D1D1B"/>
<path opacity="0.4" fill-rule="evenodd" clip-rule="evenodd" d="M119.673 135.547L120.624 135.623L120.738 134.038L119.787 133.962L119.673 135.547Z" fill="#1D1D1B"/>
<path opacity="0.4" fill-rule="evenodd" clip-rule="evenodd" d="M119.481 138.413H120.433C120.433 137.893 120.509 137.361 120.534 136.841H119.596C119.558 137.348 119.507 137.931 119.481 138.413Z" fill="#1D1D1B"/>
<path opacity="0.4" fill-rule="evenodd" clip-rule="evenodd" d="M119.406 141.267L120.358 141.293L120.408 139.707L119.457 139.669L119.406 141.267Z" fill="#1D1D1B"/>
<path opacity="0.4" fill-rule="evenodd" clip-rule="evenodd" d="M120.649 126.998L121.588 127.138L121.829 125.578L120.89 125.426L120.649 126.998Z" fill="#1D1D1B"/>
<path opacity="0.4" fill-rule="evenodd" clip-rule="evenodd" d="M120.243 129.839L121.182 129.954C121.245 129.434 121.296 128.901 121.385 128.381L120.446 128.254C120.345 128.774 120.307 129.307 120.243 129.839Z" fill="#1D1D1B"/>
<path opacity="0.4" fill-rule="evenodd" clip-rule="evenodd" d="M119.914 132.68L120.865 132.769L121.043 131.197L120.104 131.082L119.914 132.68Z" fill="#1D1D1B"/>
<path opacity="0.4" fill-rule="evenodd" clip-rule="evenodd" d="M122.272 118.551L123.198 118.767L123.592 117.232L122.678 117.004L122.272 118.551Z" fill="#1D1D1B"/>
<path opacity="0.4" fill-rule="evenodd" clip-rule="evenodd" d="M121.664 121.354L122.603 121.545L122.92 119.997L121.994 119.782L121.664 121.354Z" fill="#1D1D1B"/>
<path opacity="0.4" fill-rule="evenodd" clip-rule="evenodd" d="M121.093 124.145L122.031 124.322C122.12 123.79 122.247 123.282 122.348 122.762L121.41 122.585C121.308 123.105 121.182 123.625 121.093 124.145Z" fill="#1D1D1B"/>
<path opacity="0.4" fill-rule="evenodd" clip-rule="evenodd" d="M124.619 110.269L125.52 110.561L126.002 109.051L125.101 108.747L124.619 110.269Z" fill="#1D1D1B"/>
<path opacity="0.4" fill-rule="evenodd" clip-rule="evenodd" d="M123.756 112.996L124.669 113.275L125.151 111.753L124.238 111.474L123.756 112.996Z" fill="#1D1D1B"/>
<path opacity="0.4" fill-rule="evenodd" clip-rule="evenodd" d="M122.995 115.748L123.908 116.002L124.314 114.467L123.401 114.201L122.995 115.748Z" fill="#1D1D1B"/>
<path opacity="0.4" fill-rule="evenodd" clip-rule="evenodd" d="M127.625 102.202L128.5 102.57L129.134 101.112L128.259 100.731L127.625 102.202Z" fill="#1D1D1B"/>
<path opacity="0.4" fill-rule="evenodd" clip-rule="evenodd" d="M126.546 104.853L127.434 105.196C127.624 104.701 127.789 104.206 128.004 103.725L127.129 103.369C126.901 103.851 126.762 104.359 126.546 104.853Z" fill="#1D1D1B"/>
<path opacity="0.4" fill-rule="evenodd" clip-rule="evenodd" d="M125.557 107.529L126.444 107.846L127.003 106.362L126.102 106.033L125.557 107.529Z" fill="#1D1D1B"/>
<path opacity="0.4" fill-rule="evenodd" clip-rule="evenodd" d="M131.278 94.4022L132.115 94.8461C132.356 94.3642 132.585 93.8949 132.851 93.4383L132.014 92.9817C131.735 93.4383 131.519 93.9203 131.278 94.4022Z" fill="#1D1D1B"/>
<path opacity="0.4" fill-rule="evenodd" clip-rule="evenodd" d="M129.996 96.9641L130.859 97.3826L131.556 95.9621L130.706 95.5309L129.996 96.9641Z" fill="#1D1D1B"/>
<path opacity="0.4" fill-rule="evenodd" clip-rule="evenodd" d="M128.778 99.5516L129.641 99.9448C129.844 99.4628 130.047 98.9682 130.3 98.4989L129.438 98.093C129.192 98.5672 128.972 99.0541 128.778 99.5516Z" fill="#1D1D1B"/>
<path opacity="0.4" fill-rule="evenodd" clip-rule="evenodd" d="M135.552 86.9317L136.351 87.4391L137.213 86.0946L136.414 85.5873L135.552 86.9317Z" fill="#1D1D1B"/>
<path opacity="0.4" fill-rule="evenodd" clip-rule="evenodd" d="M134.055 89.3797L134.879 89.8616C135.145 89.405 135.386 88.9358 135.678 88.4918L134.866 87.9972C134.562 88.4665 134.372 88.9231 134.055 89.3797Z" fill="#1D1D1B"/>
<path opacity="0.4" fill-rule="evenodd" clip-rule="evenodd" d="M132.648 91.8655L133.486 92.3221L134.259 90.9523L133.435 90.4703L132.648 91.8655Z" fill="#1D1D1B"/>
<path opacity="0.4" fill-rule="evenodd" clip-rule="evenodd" d="M140.384 79.8164L141.145 80.3745L142.071 79.0808L141.31 78.51L140.384 79.8164Z" fill="#1D1D1B"/>
<path opacity="0.4" fill-rule="evenodd" clip-rule="evenodd" d="M138.709 82.1374L139.483 82.6828L140.409 81.3891L139.635 80.8438L138.709 82.1374Z" fill="#1D1D1B"/>
<path opacity="0.4" fill-rule="evenodd" clip-rule="evenodd" d="M137.111 84.4964L137.898 85.0291L138.76 83.6974L137.974 83.152L137.111 84.4964Z" fill="#1D1D1B"/>
</g>
<path d="M274.308 147.025C268.487 151.807 262.754 153.76 254.548 153.24C251.462 153.27 248.479 152.138 246.189 150.069C242.968 152.882 240.685 156.613 239.645 160.761C237.298 173.115 237.171 185.671 237.032 198.177L236.41 257.979C236.387 258.158 236.432 258.34 236.537 258.486C236.725 258.65 236.961 258.747 237.21 258.766C246.606 260.368 256.153 260.908 265.671 260.376C269.958 260.135 274.41 259.679 278.443 260.909C277.86 255.544 279.534 250.217 280.98 244.966C284.227 233.462 286.624 221.692 286.142 209.897C285.99 205.939 285.508 202.008 285.355 198.063C285.089 191.417 285.749 184.758 285.66 178.112C285.57 171.871 284.83 165.657 283.453 159.569C282.337 154.635 278.075 150.944 274.334 146.975" fill="white"/>
<g opacity="0.4">
<path opacity="0.4" fill-rule="evenodd" clip-rule="evenodd" d="M175.694 44.0238L176.227 44.8102L177.571 43.897L177.051 43.0979L175.694 44.0238Z" fill="#1D1D1B"/>
<path opacity="0.4" fill-rule="evenodd" clip-rule="evenodd" d="M173.297 45.736L173.855 46.497L175.174 45.5458L174.616 44.7721L173.297 45.736Z" fill="#1D1D1B"/>
<path opacity="0.4" fill-rule="evenodd" clip-rule="evenodd" d="M170.976 47.5498L171.584 48.2855C171.99 47.943 172.421 47.6006 172.853 47.2708L172.269 46.5225C171.825 46.8522 171.394 47.1947 170.976 47.5498Z" fill="#1D1D1B"/>
<path opacity="0.4" fill-rule="evenodd" clip-rule="evenodd" d="M183.19 39.3562L183.66 40.1806C184.129 39.9016 184.598 39.6352 185.093 39.3942L184.636 38.5571C184.142 38.8108 183.672 39.0645 183.19 39.3562Z" fill="#1D1D1B"/>
<path opacity="0.4" fill-rule="evenodd" clip-rule="evenodd" d="M180.653 40.8276L181.135 41.6393L182.543 40.8276L182.074 40.0032L180.653 40.8276Z" fill="#1D1D1B"/>
<path opacity="0.4" fill-rule="evenodd" clip-rule="evenodd" d="M178.168 42.3877L178.675 43.1868L180.045 42.3116L179.55 41.5126L178.168 42.3877Z" fill="#1D1D1B"/>
<path opacity="0.4" fill-rule="evenodd" clip-rule="evenodd" d="M191.066 35.3358L191.472 36.1982C191.954 35.9699 192.449 35.7163 192.944 35.5007L192.55 34.6382C192.056 34.8538 191.561 35.0948 191.066 35.3358Z" fill="#1D1D1B"/>
<path opacity="0.4" fill-rule="evenodd" clip-rule="evenodd" d="M188.403 36.5913L188.835 37.441L190.306 36.7435L189.887 35.8937L188.403 36.5913Z" fill="#1D1D1B"/>
<path opacity="0.4" fill-rule="evenodd" clip-rule="evenodd" d="M185.804 37.9358L186.248 38.7856L187.681 38.0246L187.25 37.1748L185.804 37.9358Z" fill="#1D1D1B"/>
<path opacity="0.4" fill-rule="evenodd" clip-rule="evenodd" d="M199.223 31.9366L199.565 32.8371L201.087 32.2664L200.77 31.3785L199.223 31.9366Z" fill="#1D1D1B"/>
<path opacity="0.4" fill-rule="evenodd" clip-rule="evenodd" d="M196.52 32.9893L196.875 33.8644C197.369 33.6488 197.877 33.4459 198.384 33.2683L198.042 32.3805C197.483 32.5707 196.976 32.761 196.52 32.9893Z" fill="#1D1D1B"/>
<path opacity="0.4" fill-rule="evenodd" clip-rule="evenodd" d="M193.781 34.1181L194.149 34.9932L195.646 34.359L195.291 33.4839L193.781 34.1181Z" fill="#1D1D1B"/>
<path opacity="0.4" fill-rule="evenodd" clip-rule="evenodd" d="M207.618 29.1589L207.885 30.0721C208.392 29.9072 208.912 29.755 209.445 29.6282L209.191 28.715C208.658 28.8545 208.138 28.994 207.618 29.1589Z" fill="#1D1D1B"/>
<path opacity="0.4" fill-rule="evenodd" clip-rule="evenodd" d="M204.803 30.0213L205.094 30.9345L206.642 30.4525L206.375 29.5393L204.803 30.0213Z" fill="#1D1D1B"/>
<path opacity="0.4" fill-rule="evenodd" clip-rule="evenodd" d="M202.013 30.9219L202.317 31.8224C202.824 31.6321 203.344 31.4673 203.864 31.3151L203.573 30.4019C203.053 30.5667 202.52 30.7189 202.013 30.9219Z" fill="#1D1D1B"/>
<path opacity="0.4" fill-rule="evenodd" clip-rule="evenodd" d="M216.206 27.0536L216.396 27.9794L217.994 27.6877L217.817 26.7491L216.206 27.0536Z" fill="#1D1D1B"/>
<path opacity="0.4" fill-rule="evenodd" clip-rule="evenodd" d="M213.325 27.6876L213.541 28.6135C214.074 28.4867 214.594 28.3345 215.126 28.2203L214.923 27.2944C214.391 27.4086 213.858 27.5862 213.325 27.6876Z" fill="#1D1D1B"/>
<path opacity="0.4" fill-rule="evenodd" clip-rule="evenodd" d="M210.485 28.3979L210.726 29.3111L212.299 28.918L212.071 27.9921L210.485 28.3979Z" fill="#1D1D1B"/>
<path opacity="0.4" fill-rule="evenodd" clip-rule="evenodd" d="M224.919 25.6075L225.046 26.546L226.657 26.3431L226.542 25.4045L224.919 25.6075Z" fill="#1D1D1B"/>
<path opacity="0.4" fill-rule="evenodd" clip-rule="evenodd" d="M222.001 25.9882L222.141 26.9268L223.764 26.7111L223.624 25.7726L222.001 25.9882Z" fill="#1D1D1B"/>
<path opacity="0.4" fill-rule="evenodd" clip-rule="evenodd" d="M219.109 26.4953L219.287 27.4339L220.885 27.1295L220.72 26.1909L219.109 26.4953Z" fill="#1D1D1B"/>
<path opacity="0.4" fill-rule="evenodd" clip-rule="evenodd" d="M233.72 24.7958L233.77 25.747L235.394 25.6329L235.356 24.6816L233.72 24.7958Z" fill="#1D1D1B"/>
<path opacity="0.4" fill-rule="evenodd" clip-rule="evenodd" d="M230.778 24.9861L230.854 25.9374L232.478 25.8359L232.414 24.8846L230.778 24.9861Z" fill="#1D1D1B"/>
<path opacity="0.4" fill-rule="evenodd" clip-rule="evenodd" d="M227.86 25.2271L227.962 26.1784C228.495 26.0896 229.04 26.0642 229.573 26.0262L229.497 25.0496C228.938 25.113 228.393 25.151 227.86 25.2271Z" fill="#1D1D1B"/>
</g>
<g opacity="0.4">
<path opacity="0.4" fill-rule="evenodd" clip-rule="evenodd" d="M284.354 22.4241L284.304 23.3753L285.826 23.4514L285.876 22.5002L284.354 22.4241Z" fill="#1D1D1B"/>
<path opacity="0.4" fill-rule="evenodd" clip-rule="evenodd" d="M281.603 22.3226V23.2739C282.11 23.2739 282.617 23.2739 283.112 23.2739V22.3226C282.63 22.3353 282.123 22.348 281.603 22.3226Z" fill="#1D1D1B"/>
<path opacity="0.4" fill-rule="evenodd" clip-rule="evenodd" d="M278.862 22.3226L278.888 23.2739L280.397 23.2612V22.3099L278.862 22.3226Z" fill="#1D1D1B"/>
<path opacity="0.4" fill-rule="evenodd" clip-rule="evenodd" d="M292.56 23.1471L292.446 24.0983L293.956 24.2759L294.082 23.3373L292.56 23.1471Z" fill="#1D1D1B"/>
<path opacity="0.4" fill-rule="evenodd" clip-rule="evenodd" d="M289.834 22.83L289.745 23.7812C290.252 23.7812 290.747 23.8954 291.254 23.9461L291.356 23.0075C290.849 22.9441 290.379 22.868 289.834 22.83Z" fill="#1D1D1B"/>
<path opacity="0.4" fill-rule="evenodd" clip-rule="evenodd" d="M287.107 22.6016L287.044 23.5528L288.553 23.6796L288.642 22.7284L287.107 22.6016Z" fill="#1D1D1B"/>
<path opacity="0.4" fill-rule="evenodd" clip-rule="evenodd" d="M300.704 24.4027L300.539 25.3413L302.023 25.6457L302.213 24.7198L300.704 24.4027Z" fill="#1D1D1B"/>
<path opacity="0.4" fill-rule="evenodd" clip-rule="evenodd" d="M298.001 23.9335L297.849 24.872L299.345 25.1257L299.51 24.1871L298.001 23.9335Z" fill="#1D1D1B"/>
<path opacity="0.4" fill-rule="evenodd" clip-rule="evenodd" d="M295.301 23.5022L295.174 24.4408L296.67 24.6817L296.81 23.7432L295.301 23.5022Z" fill="#1D1D1B"/>
<path opacity="0.4" fill-rule="evenodd" clip-rule="evenodd" d="M308.745 26.2164L308.517 27.1423L309.988 27.5228L310.229 26.6096L308.745 26.2164Z" fill="#1D1D1B"/>
<path opacity="0.4" fill-rule="evenodd" clip-rule="evenodd" d="M306.094 25.5314L305.878 26.4573L307.349 26.8378L307.577 25.9119L306.094 25.5314Z" fill="#1D1D1B"/>
<path opacity="0.4" fill-rule="evenodd" clip-rule="evenodd" d="M303.418 24.9734L303.215 25.8993L304.711 26.2037L304.914 25.2778L303.418 24.9734Z" fill="#1D1D1B"/>
<path opacity="0.4" fill-rule="evenodd" clip-rule="evenodd" d="M316.659 28.5248L316.367 29.4253L317.813 29.8946L318.117 28.9941L316.659 28.5248Z" fill="#1D1D1B"/>
<path opacity="0.4" fill-rule="evenodd" clip-rule="evenodd" d="M314.048 27.7004L313.769 28.6136L315.214 29.0702L315.506 28.157L314.048 27.7004Z" fill="#1D1D1B"/>
<path opacity="0.4" fill-rule="evenodd" clip-rule="evenodd" d="M311.42 26.9139L311.166 27.8271C311.661 27.954 312.143 28.0808 312.625 28.2457L312.891 27.3325C312.409 27.1676 311.94 27.0408 311.42 26.9139Z" fill="#1D1D1B"/>
<path opacity="0.4" fill-rule="evenodd" clip-rule="evenodd" d="M324.408 31.3912L324.053 32.2791L325.461 32.8244L325.828 31.9493C325.359 31.6956 324.877 31.5308 324.408 31.3912Z" fill="#1D1D1B"/>
<path opacity="0.4" fill-rule="evenodd" clip-rule="evenodd" d="M321.847 30.3639L321.505 31.2517L322.925 31.7971L323.268 30.9093L321.847 30.3639Z" fill="#1D1D1B"/>
<path opacity="0.4" fill-rule="evenodd" clip-rule="evenodd" d="M319.284 29.3872L318.967 30.2877L320.387 30.8331L320.717 29.9326L319.284 29.3872Z" fill="#1D1D1B"/>
<path opacity="0.4" fill-rule="evenodd" clip-rule="evenodd" d="M331.944 34.6888L331.525 35.5386C331.989 35.744 332.442 35.9726 332.883 36.2235L333.314 35.3737C332.87 35.1203 332.413 34.8916 331.944 34.6888Z" fill="#1D1D1B"/>
<path opacity="0.4" fill-rule="evenodd" clip-rule="evenodd" d="M329.445 33.5474L329.052 34.4098L330.422 35.044L330.84 34.1815L329.445 33.5474Z" fill="#1D1D1B"/>
<path opacity="0.4" fill-rule="evenodd" clip-rule="evenodd" d="M326.959 32.4185L326.578 33.2936L327.961 33.9151L328.341 33.0526L326.959 32.4185Z" fill="#1D1D1B"/>
<path opacity="0.4" fill-rule="evenodd" clip-rule="evenodd" d="M339.21 38.5698L338.74 39.3942C339.177 39.6285 339.6 39.8868 340.009 40.1679L340.503 39.3562C340.087 39.0708 339.655 38.8083 339.21 38.5698Z" fill="#1D1D1B"/>
<path opacity="0.4" fill-rule="evenodd" clip-rule="evenodd" d="M336.8 37.2634L336.344 38.0878L337.676 38.8108L338.145 37.9864L336.8 37.2634Z" fill="#1D1D1B"/>
<path opacity="0.4" fill-rule="evenodd" clip-rule="evenodd" d="M334.391 35.9573L333.96 36.8071L335.292 37.5173L335.736 36.6802L334.391 35.9573Z" fill="#1D1D1B"/>
<path opacity="0.4" fill-rule="evenodd" clip-rule="evenodd" d="M346.186 42.9711L345.653 43.7574C346.085 44.0238 346.49 44.3155 346.922 44.6199L347.467 43.8462C347.057 43.531 346.629 43.2388 346.186 42.9711Z" fill="#1D1D1B"/>
<path opacity="0.4" fill-rule="evenodd" clip-rule="evenodd" d="M343.877 41.4999L343.357 42.2862L344.638 43.1107L345.158 42.3243L343.877 41.4999Z" fill="#1D1D1B"/>
<path opacity="0.4" fill-rule="evenodd" clip-rule="evenodd" d="M341.569 40.0159L341.074 40.8276L342.343 41.652L342.863 40.8403L341.569 40.0159Z" fill="#1D1D1B"/>
<path opacity="0.4" fill-rule="evenodd" clip-rule="evenodd" d="M352.794 47.8796L352.198 48.628C352.604 48.945 353.023 49.2241 353.403 49.5665L353.999 48.8309C353.631 48.5011 353.2 48.2094 352.794 47.8796Z" fill="#1D1D1B"/>
<path opacity="0.4" fill-rule="evenodd" clip-rule="evenodd" d="M350.614 46.2434L350.03 47.0044L351.248 47.9176L351.831 47.1693L350.614 46.2434Z" fill="#1D1D1B"/>
<path opacity="0.4" fill-rule="evenodd" clip-rule="evenodd" d="M348.418 44.5945L347.86 45.3682L349.078 46.2814L349.649 45.5204L348.418 44.5945Z" fill="#1D1D1B"/>
<path opacity="0.4" fill-rule="evenodd" clip-rule="evenodd" d="M359.008 53.3207L358.361 54.0056L359.49 55.0203L360.15 54.3353L359.008 53.3207Z" fill="#1D1D1B"/>
<path opacity="0.4" fill-rule="evenodd" clip-rule="evenodd" d="M356.966 51.4816L356.332 52.1918L357.461 53.2065L358.108 52.5089L356.966 51.4816Z" fill="#1D1D1B"/>
<path opacity="0.4" fill-rule="evenodd" clip-rule="evenodd" d="M354.925 49.6678L354.316 50.3908L355.445 51.4055L356.067 50.6825L354.925 49.6678Z" fill="#1D1D1B"/>
</g>
<g opacity="0.4">
<path opacity="0.4" fill-rule="evenodd" clip-rule="evenodd" d="M400.469 107.491L399.594 107.846C399.797 108.328 399.987 108.823 400.165 109.318L401.052 108.975C400.875 108.43 400.723 107.948 400.469 107.491Z" fill="#1D1D1B"/>
<path opacity="0.4" fill-rule="evenodd" clip-rule="evenodd" d="M399.353 104.828L398.49 105.208L399.112 106.654L399.987 106.286L399.353 104.828Z" fill="#1D1D1B"/>
<path opacity="0.4" fill-rule="evenodd" clip-rule="evenodd" d="M398.186 102.253L397.336 102.671C397.564 103.141 397.793 103.61 398.008 104.092L398.871 103.686C398.617 103.204 398.376 102.722 398.186 102.253Z" fill="#1D1D1B"/>
<path opacity="0.4" fill-rule="evenodd" clip-rule="evenodd" d="M403.359 115.52L402.446 115.799L402.903 117.308L403.816 117.042L403.359 115.52Z" fill="#1D1D1B"/>
<path opacity="0.4" fill-rule="evenodd" clip-rule="evenodd" d="M402.473 112.806L401.572 113.11L402.067 114.607L402.967 114.315L402.473 112.806Z" fill="#1D1D1B"/>
<path opacity="0.4" fill-rule="evenodd" clip-rule="evenodd" d="M401.521 110.13L400.62 110.459L401.153 111.943L402.053 111.626L401.521 110.13Z" fill="#1D1D1B"/>
<path opacity="0.4" fill-rule="evenodd" clip-rule="evenodd" d="M405.567 123.789L404.641 123.992L404.983 125.527L405.922 125.337L405.567 123.789Z" fill="#1D1D1B"/>
<path opacity="0.4" fill-rule="evenodd" clip-rule="evenodd" d="M404.907 121.012L403.981 121.253C404.121 121.747 404.248 122.267 404.362 122.775L405.288 122.559C405.174 122.039 405.047 121.519 404.907 121.012Z" fill="#1D1D1B"/>
<path opacity="0.4" fill-rule="evenodd" clip-rule="evenodd" d="M404.172 118.272L403.259 118.526L403.665 120.048L404.591 119.807L404.172 118.272Z" fill="#1D1D1B"/>
<path opacity="0.4" fill-rule="evenodd" clip-rule="evenodd" d="M407.127 132.198L406.188 132.338C406.277 132.858 406.328 133.378 406.391 133.898L407.33 133.784C407.267 133.251 407.228 132.731 407.127 132.198Z" fill="#1D1D1B"/>
<path opacity="0.4" fill-rule="evenodd" clip-rule="evenodd" d="M406.683 129.383L405.744 129.548L405.998 131.108L406.936 130.955L406.683 129.383Z" fill="#1D1D1B"/>
<path opacity="0.4" fill-rule="evenodd" clip-rule="evenodd" d="M406.164 126.592L405.238 126.783L405.53 128.33L406.469 128.152L406.164 126.592Z" fill="#1D1D1B"/>
<path opacity="0.4" fill-rule="evenodd" clip-rule="evenodd" d="M407.989 140.722L407.038 140.772L407.089 142.345L408.04 142.32L407.989 140.722Z" fill="#1D1D1B"/>
<path opacity="0.4" fill-rule="evenodd" clip-rule="evenodd" d="M407.774 137.881L406.823 137.957L406.937 139.529L407.889 139.466L407.774 137.881Z" fill="#1D1D1B"/>
<path opacity="0.4" fill-rule="evenodd" clip-rule="evenodd" d="M407.482 135.052L406.543 135.154L406.721 136.726L407.672 136.625L407.482 135.052Z" fill="#1D1D1B"/>
<path opacity="0.4" fill-rule="evenodd" clip-rule="evenodd" d="M408.065 149.346H407.114C407.114 149.866 407.114 150.386 407.038 150.919H407.989C408.015 150.348 408.065 149.815 408.065 149.346Z" fill="#1D1D1B"/>
<path opacity="0.4" fill-rule="evenodd" clip-rule="evenodd" d="M408.116 146.442L407.165 146.429L407.14 148.002L408.091 148.027L408.116 146.442Z" fill="#1D1D1B"/>
<path opacity="0.4" fill-rule="evenodd" clip-rule="evenodd" d="M408.077 143.601L407.126 143.614L407.177 145.186H408.128L408.077 143.601Z" fill="#1D1D1B"/>
<path opacity="0.4" fill-rule="evenodd" clip-rule="evenodd" d="M407.343 157.819L406.404 157.705C406.341 158.225 406.29 158.745 406.188 159.252L407.14 159.404C407.241 158.884 407.279 158.351 407.343 157.819Z" fill="#1D1D1B"/>
<path opacity="0.4" fill-rule="evenodd" clip-rule="evenodd" d="M407.685 154.99L406.734 154.902L406.557 156.462L407.495 156.563L407.685 154.99Z" fill="#1D1D1B"/>
<path opacity="0.4" fill-rule="evenodd" clip-rule="evenodd" d="M407.9 152.162L406.949 152.086L406.848 153.659L407.799 153.747L407.9 152.162Z" fill="#1D1D1B"/>
<path opacity="0.4" fill-rule="evenodd" clip-rule="evenodd" d="M405.796 166.241L404.87 166.025L404.515 167.56L405.428 167.801L405.796 166.241Z" fill="#1D1D1B"/>
<path opacity="0.4" fill-rule="evenodd" clip-rule="evenodd" d="M406.429 163.463L405.504 163.272C405.402 163.792 405.263 164.3 405.148 164.807L406.074 165.01C406.188 164.566 406.328 163.983 406.429 163.463Z" fill="#1D1D1B"/>
<path opacity="0.4" fill-rule="evenodd" clip-rule="evenodd" d="M406.911 160.66L405.972 160.508L405.706 162.055L406.645 162.233L406.911 160.66Z" fill="#1D1D1B"/>
<path opacity="0.4" fill-rule="evenodd" clip-rule="evenodd" d="M403.411 174.472L402.51 174.155L401.965 175.639L402.865 175.969L403.411 174.472Z" fill="#1D1D1B"/>
<path opacity="0.4" fill-rule="evenodd" clip-rule="evenodd" d="M404.298 171.758L403.384 171.479L402.94 172.988L403.841 173.292L404.298 171.758Z" fill="#1D1D1B"/>
<path opacity="0.4" fill-rule="evenodd" clip-rule="evenodd" d="M405.097 169.031L404.184 168.79L403.74 170.287L404.653 170.566L405.097 169.031Z" fill="#1D1D1B"/>
<path opacity="0.4" fill-rule="evenodd" clip-rule="evenodd" d="M400.189 182.412L399.327 182.006C399.131 182.492 398.906 182.967 398.654 183.426L399.504 183.845C399.765 183.384 399.994 182.905 400.189 182.412Z" fill="#1D1D1B"/>
<path opacity="0.4" fill-rule="evenodd" clip-rule="evenodd" d="M401.343 179.799L400.468 179.431L399.834 180.864L400.709 181.258L401.343 179.799Z" fill="#1D1D1B"/>
<path opacity="0.4" fill-rule="evenodd" clip-rule="evenodd" d="M402.422 177.174L401.535 176.831C401.344 177.313 401.192 177.82 400.964 178.29L401.852 178.658C402.08 178.176 402.232 177.668 402.422 177.174Z" fill="#1D1D1B"/>
<path opacity="0.4" fill-rule="evenodd" clip-rule="evenodd" d="M396.169 189.971L395.358 189.489L394.533 190.833L395.345 191.328L396.169 189.971Z" fill="#1D1D1B"/>
<path opacity="0.4" fill-rule="evenodd" clip-rule="evenodd" d="M397.602 187.51L396.778 187.054C396.545 187.524 396.286 187.981 396.004 188.424L396.828 188.893C397.113 188.448 397.372 187.986 397.602 187.51Z" fill="#1D1D1B"/>
<path opacity="0.4" fill-rule="evenodd" clip-rule="evenodd" d="M398.92 184.986L398.071 184.555L397.348 185.95L398.185 186.394L398.92 184.986Z" fill="#1D1D1B"/>
<path opacity="0.4" fill-rule="evenodd" clip-rule="evenodd" d="M391.463 197.124L390.69 196.566C390.403 197.004 390.094 197.428 389.764 197.835L390.525 198.405C390.859 197.994 391.172 197.567 391.463 197.124Z" fill="#1D1D1B"/>
<path opacity="0.4" fill-rule="evenodd" clip-rule="evenodd" d="M393.099 194.791L392.313 194.258L391.412 195.539L392.186 196.097L393.099 194.791Z" fill="#1D1D1B"/>
<path opacity="0.4" fill-rule="evenodd" clip-rule="evenodd" d="M394.684 192.47L393.885 191.962C393.619 192.399 393.331 192.822 393.022 193.231L393.809 193.763C394.123 193.348 394.415 192.916 394.684 192.47Z" fill="#1D1D1B"/>
<path opacity="0.4" fill-rule="evenodd" clip-rule="evenodd" d="M386.098 203.808L385.388 203.174L384.322 204.341L385.033 204.975L386.098 203.808Z" fill="#1D1D1B"/>
<path opacity="0.4" fill-rule="evenodd" clip-rule="evenodd" d="M387.95 201.627L387.214 201.031L386.225 202.248L386.948 202.87L387.95 201.627Z" fill="#1D1D1B"/>
<path opacity="0.4" fill-rule="evenodd" clip-rule="evenodd" d="M389.726 199.407L388.978 198.824L387.988 200.054L388.724 200.65L389.726 199.407Z" fill="#1D1D1B"/>
<path opacity="0.4" fill-rule="evenodd" clip-rule="evenodd" d="M380.189 209.998L379.529 209.313L378.388 210.404L379.047 211.101L380.189 209.998Z" fill="#1D1D1B"/>
<path opacity="0.4" fill-rule="evenodd" clip-rule="evenodd" d="M382.23 208.007L381.558 207.347L380.429 208.438L381.088 209.11L382.23 208.007Z" fill="#1D1D1B"/>
<path opacity="0.4" fill-rule="evenodd" clip-rule="evenodd" d="M384.171 205.927L383.474 205.28L382.408 206.447L383.093 207.106L384.171 205.927Z" fill="#1D1D1B"/>
<path opacity="0.4" fill-rule="evenodd" clip-rule="evenodd" d="M373.833 215.718L373.224 214.995L372.02 216.023L372.628 216.758L373.833 215.718Z" fill="#1D1D1B"/>
<path opacity="0.4" fill-rule="evenodd" clip-rule="evenodd" d="M375.989 213.867L375.368 213.156L374.176 214.184L374.785 214.907L375.989 213.867Z" fill="#1D1D1B"/>
<path opacity="0.4" fill-rule="evenodd" clip-rule="evenodd" d="M378.119 211.989L377.473 211.292C377.102 211.662 376.712 212.014 376.306 212.344L376.94 213.055C377.354 212.723 377.747 212.367 378.119 211.989Z" fill="#1D1D1B"/>
</g>
<path opacity="0.18" d="M244.479 148.078C244.479 148.078 245.595 148.256 246.699 151.465C249.589 161.998 250.36 172.999 248.969 183.832C246.788 198 246.255 216.949 247.51 221.489C248.512 225.079 252.292 235.53 274.145 221.236C295.999 206.941 275.744 236.354 275.744 236.354L236.856 246.361C236.856 246.361 228.866 214.247 229.538 213.118" fill="#3C3C3C"/>
<path d="M246.19 150.069C245.911 158.707 245.024 166.469 244.922 176.387C244.922 180.966 244.656 184.454 244.656 189.071C244.656 192.216 244.427 195.349 244.199 198.482L239.722 257.827C239.736 258.194 239.619 258.553 239.392 258.842C239.116 259.045 238.802 259.19 238.469 259.268C238.135 259.347 237.789 259.357 237.452 259.298L215.129 258.423L216.955 242.429C217.742 237.035 218.03 231.579 217.818 226.131C217.425 220.715 216.029 215.363 215.915 209.947C215.934 206.349 216.227 202.758 216.79 199.205L218.82 183.985C220.088 174.954 221.521 165.365 228.51 158.313C230.572 156.353 232.785 154.559 235.131 152.948C238.136 150.742 242.182 150.412 246.19 150.019" fill="#E5531C"/>
<path d="M240.063 151.211C236.448 151.211 233.049 153.278 228.775 154.775C224.183 156.386 221.228 159.379 217.892 162.55C214.962 165.353 208.291 174.459 205.653 177.541C198.17 186.318 190.94 196.49 184.218 205.863C179.043 213.08 175.238 214.526 168.25 220.005C163.392 223.81 157.71 226.347 152.243 229.213C144.587 233.206 137.27 237.817 130.365 243C129.727 243.391 129.213 243.953 128.881 244.624C128.677 245.308 128.651 246.032 128.805 246.729L129.883 254.428C129.903 254.887 130.062 255.329 130.339 255.696C130.755 256.046 131.28 256.239 131.823 256.242C136.661 256.675 141.526 256.722 146.371 256.381C151.249 256.208 156.103 255.618 160.881 254.618C165.583 253.401 170.19 251.845 174.668 249.963C181.428 247.312 188.251 244.636 194.39 240.73C205.983 233.361 214.48 222.047 222.065 210.582C223.517 208.485 224.79 206.27 225.87 203.961C227.039 201.13 227.939 198.196 228.559 195.197C229.954 189.413 231.328 183.629 232.681 177.846" fill="#E5531C"/>
<path d="M274.308 147.025C274.67 158.787 274.438 170.56 273.61 182.298C271.073 212.167 270.655 229.759 264.732 259.146C264.605 259.477 264.57 259.836 264.633 260.185C264.696 260.534 264.853 260.859 265.087 261.125C265.647 261.462 266.301 261.609 266.951 261.543L292.445 261.974C292.955 262.03 293.471 261.951 293.941 261.746C294.392 261.456 294.711 261.001 294.829 260.478C298.241 251.599 298.774 242.074 299.078 232.714C299.476 220.31 299.476 207.897 299.078 195.476C298.723 183.528 298.038 171.377 302.059 159.861C302.642 158.174 303.974 156.589 302.769 155.155C301.799 154.295 300.676 153.624 299.459 153.177C292.648 150.348 281.601 148.649 274.257 146.975" fill="#E5531C"/>
<path d="M268.816 232.359C268.816 232.359 276.604 229.34 283.973 219.84C291.342 210.34 290.315 203.644 290.315 198.355C290.315 193.066 289.44 163.843 299.51 164.731C309.581 165.619 301.273 214.602 301.273 214.602L288.222 229.721L273.611 236.062" fill="#BF4019"/>
<path d="M302.135 154.775C298.561 160.325 296.065 166.5 294.779 172.975C292.838 182.196 293.599 186.115 293.51 196.731C293.51 202.73 294.512 208.869 292.496 216.441C290.936 222.314 286.268 225.104 280.776 227.679C275.284 230.253 269.437 231.915 263.73 234.02C250.133 238.903 237.222 242.467 224.411 249.24C220.48 251.32 224.805 256.254 224.754 257.041C224.778 257.611 224.968 258.162 225.299 258.626C227.684 262.71 228.064 261.86 230.309 263.331C231.108 263.851 233.62 262.672 234.457 263.141C235.294 263.61 237.513 263.052 238.427 263.014C241.92 263.013 245.41 262.801 248.878 262.38C265.835 259.412 280.472 264.333 296.326 257.624C300.664 255.798 305.027 253.819 308.438 250.547C313.284 245.955 315.744 239.411 317.532 232.98C324.28 208.73 323.278 181.308 309.846 160.026C308.996 158.659 307.863 157.489 306.525 156.595C305.186 155.7 303.672 155.102 302.084 154.838" fill="#E5531C"/>
<path d="M222.84 251.105C222.84 251.105 211.019 249.05 206.11 250.09C201.202 251.13 194.353 252.703 194.492 256.584H222.84" fill="#FFC7C9"/>
<path d="M216.065 250.115C216.065 250.115 218.602 230.405 217.029 217.938C217.029 217.938 220.669 193.142 222.965 195.564C225.261 197.987 225.857 208.121 224.677 216.099C223.498 224.076 221.266 244.344 222.369 251.422" fill="#BF4019"/>
<path d="M259.214 256.584H56.0908C54.956 256.584 54.0361 257.504 54.0361 258.638V259.945C54.0361 261.08 54.956 262 56.0908 262H259.214C260.349 262 261.269 261.08 261.269 259.945V258.638C261.269 257.504 260.349 256.584 259.214 256.584Z" fill="url(#paint6_linear)"/>
<path d="M180.997 262H57.2967C56.4872 262.001 55.706 261.702 55.1039 261.161C54.5019 260.62 54.1218 259.875 54.0371 259.07L45.3997 177.085C45.3518 176.628 45.4004 176.166 45.5423 175.728C45.6841 175.291 45.9162 174.889 46.2234 174.547C46.5306 174.205 46.9062 173.931 47.3258 173.744C47.7454 173.556 48.1997 173.458 48.6594 173.457H173.527C174.343 173.46 175.13 173.767 175.732 174.318C176.335 174.869 176.711 175.625 176.786 176.438L184.27 258.423C184.31 258.877 184.256 259.335 184.11 259.767C183.963 260.199 183.729 260.596 183.421 260.932C183.113 261.269 182.739 261.537 182.322 261.721C181.904 261.905 181.453 262 180.997 262Z" fill="url(#paint7_linear)"/>
<path d="M176.976 262H53.263C52.4543 261.998 51.6746 261.699 51.0731 261.158C50.4717 260.617 50.0908 259.874 50.0034 259.07L41.3787 177.085C41.3289 176.628 41.3757 176.167 41.516 175.729C41.6564 175.292 41.8872 174.889 42.1935 174.547C42.4997 174.205 42.8745 173.931 43.2936 173.743C43.7126 173.556 44.1665 173.458 44.6256 173.457H169.493C170.31 173.46 171.096 173.767 171.699 174.318C172.301 174.869 172.677 175.625 172.753 176.438L180.236 258.423C180.278 258.877 180.225 259.334 180.081 259.766C179.936 260.198 179.703 260.595 179.396 260.932C179.09 261.268 178.716 261.537 178.299 261.721C177.882 261.905 177.432 262 176.976 262Z" fill="url(#paint8_linear)"/>
<path opacity="0.48" d="M105.95 225.662C109.732 225.662 112.799 222.595 112.799 218.813C112.799 215.03 109.732 211.964 105.95 211.964C102.167 211.964 99.1006 215.03 99.1006 218.813C99.1006 222.595 102.167 225.662 105.95 225.662Z" fill="white"/>
<defs>
<linearGradient id="paint0_linear" x1="20060.1" y1="6549.13" x2="21586.6" y2="8538.01" gradientUnits="userSpaceOnUse">
<stop stop-color="#2D2D7B"/>
<stop offset="1" stop-color="#1484EF"/>
</linearGradient>
<linearGradient id="paint1_linear" x1="4890.77" y1="2128.33" x2="4900.54" y2="2828.24" gradientUnits="userSpaceOnUse">
<stop stop-color="white"/>
<stop offset="1" stop-color="#1484EF"/>
</linearGradient>
<linearGradient id="paint2_linear" x1="402.701" y1="196.858" x2="355.862" y2="272.971" gradientUnits="userSpaceOnUse">
<stop stop-color="#6E4697"/>
<stop offset="1" stop-color="#243862"/>
</linearGradient>
<linearGradient id="paint3_linear" x1="-16386" y1="6859.54" x2="-15142.7" y2="10623.8" gradientUnits="userSpaceOnUse">
<stop stop-color="#184071"/>
<stop offset="1" stop-color="#2D2D7B"/>
</linearGradient>
<linearGradient id="paint4_linear" x1="393.088" y1="96.4061" x2="323.926" y2="257.637" gradientUnits="userSpaceOnUse">
<stop stop-color="#2B478B"/>
<stop offset="1" stop-color="#AD8DCE"/>
</linearGradient>
<linearGradient id="paint5_linear" x1="-17230.3" y1="19775.2" x2="-9722.87" y2="32338" gradientUnits="userSpaceOnUse">
<stop stop-color="#7AA2D6"/>
<stop offset="1" stop-color="#243862"/>
</linearGradient>
<linearGradient id="paint6_linear" x1="274.853" y1="341.017" x2="211.576" y2="296.892" gradientUnits="userSpaceOnUse">
<stop stop-color="#707070"/>
<stop offset="1" stop-color="#545358"/>
</linearGradient>
<linearGradient id="paint7_linear" x1="16691.2" y1="23984.3" x2="31902.3" y2="23984.3" gradientUnits="userSpaceOnUse">
<stop stop-color="#26283A"/>
<stop offset="1" stop-color="#ACCCEF"/>
</linearGradient>
<linearGradient id="paint8_linear" x1="19211.1" y1="30570.1" x2="23977.9" y2="13916.8" gradientUnits="userSpaceOnUse">
<stop stop-color="#545358"/>
<stop offset="1" stop-color="#707070"/>
</linearGradient>
</defs>
</svg>
