<svg width="11" height="11" viewBox="0 0 11 11" fill="none" xmlns="http://www.w3.org/2000/svg">
<g clip-path="url(#clip0_9722_4323)">
<path d="M5.5 0C2.46718 0 0 2.46718 0 5.5C0 8.53282 2.46718 11 5.5 11C8.53282 11 11 8.53282 11 5.5C11 2.46718 8.53282 0 5.5 0Z" fill="#C4C4C4"/>
<path d="M8.28738 4.33449L5.30819 7.3136C5.21881 7.40298 5.10149 7.44796 4.98416 7.44796C4.86684 7.44796 4.74951 7.40298 4.66013 7.3136L3.17058 5.82404C2.99132 5.64487 2.99132 5.35516 3.17058 5.17599C3.34975 4.99673 3.63937 4.99673 3.81863 5.17599L4.98416 6.34151L7.63933 3.68643C7.8185 3.50717 8.10812 3.50717 8.28738 3.68643C8.46656 3.86561 8.46656 4.15523 8.28738 4.33449Z" fill="#FAFAFA"/>
</g>
<defs>
<clipPath id="clip0_9722_4323">
<rect width="11" height="11" fill="white"/>
</clipPath>
</defs>
</svg>
