<svg width="100" height="35" viewBox="0 0 72 25" fill="none" xmlns="http://www.w3.org/2000/svg">
<path d="M71.625 9.59973L67.5936 8.50794L65.3125 5L63.0314 8.50794L59 9.59973L61.6216 12.8597L61.4111 17.0425L65.3125 15.5492L69.2139 17.0425L69.0034 12.8597L71.625 9.59973Z" fill="#FFC45A"/>
<path d="M71.625 9.59973L67.5936 8.50794L65.3125 5V15.5492L69.2139 17.0425L69.0034 12.8597L71.625 9.59973Z" fill="#FF9400"/>
<path d="M0.936523 19.5156L1.16895 12.6045H2.80957L3.03516 19.5156H0.936523ZM3.08984 10.4854C3.08984 10.7725 2.98958 11.014 2.78906 11.21C2.58854 11.4014 2.31966 11.4971 1.98242 11.4971C1.64974 11.4971 1.38086 11.4014 1.17578 11.21C0.97526 11.014 0.875 10.7725 0.875 10.4854C0.875 10.1982 0.97526 9.95671 1.17578 9.76074C1.38086 9.56478 1.64974 9.4668 1.98242 9.4668C2.31966 9.4668 2.58854 9.56478 2.78906 9.76074C2.98958 9.95671 3.08984 10.1982 3.08984 10.4854ZM12.9541 7.04688V17H10.9033L6.9043 10.3281V17H4.85352V7.04688H6.9043L10.9102 13.7256V7.04688H12.9541ZM20.2344 7.04688H22.2783V13.623C22.2783 14.3887 22.1143 15.0335 21.7861 15.5576C21.4626 16.0817 21.0137 16.4759 20.4395 16.7402C19.8698 17.0046 19.2135 17.1367 18.4707 17.1367C17.7279 17.1367 17.0671 17.0046 16.4883 16.7402C15.9141 16.4759 15.4629 16.0817 15.1348 15.5576C14.8112 15.0335 14.6494 14.3887 14.6494 13.623V7.04688H16.7002V13.623C16.7002 14.0697 16.7708 14.4342 16.9121 14.7168C17.0534 14.9993 17.2562 15.2067 17.5205 15.3389C17.7894 15.471 18.1061 15.5371 18.4707 15.5371C18.8444 15.5371 19.1611 15.471 19.4209 15.3389C19.6852 15.2067 19.8857 14.9993 20.0225 14.7168C20.1637 14.4342 20.2344 14.0697 20.2344 13.623V7.04688ZM30.6455 15.4004V17H25.3477V15.4004H30.6455ZM26.0176 7.04688V17H23.9668V7.04688H26.0176ZM29.9551 11.1006V12.6592H25.3477V11.1006H29.9551ZM30.6387 7.04688V8.65332H25.3477V7.04688H30.6387ZM35.4307 14.9219L37.7754 7.04688H40.0586L36.5928 17H35.0889L35.4307 14.9219ZM33.2705 7.04688L35.6084 14.9219L35.9639 17H34.4463L31.001 7.04688H33.2705ZM49.0684 11.791V12.2627C49.0684 13.0192 48.9658 13.6982 48.7607 14.2998C48.5557 14.9014 48.2663 15.4141 47.8926 15.8379C47.5189 16.2572 47.0723 16.5785 46.5527 16.8018C46.0378 17.0251 45.4658 17.1367 44.8369 17.1367C44.2126 17.1367 43.6406 17.0251 43.1211 16.8018C42.6061 16.5785 42.1595 16.2572 41.7812 15.8379C41.403 15.4141 41.109 14.9014 40.8994 14.2998C40.6943 13.6982 40.5918 13.0192 40.5918 12.2627V11.791C40.5918 11.0299 40.6943 10.3509 40.8994 9.75391C41.1045 9.15234 41.3939 8.63965 41.7676 8.21582C42.1458 7.79199 42.5924 7.46842 43.1074 7.24512C43.627 7.02181 44.1989 6.91016 44.8232 6.91016C45.4521 6.91016 46.0241 7.02181 46.5391 7.24512C47.0586 7.46842 47.5052 7.79199 47.8789 8.21582C48.2572 8.63965 48.5488 9.15234 48.7539 9.75391C48.9635 10.3509 49.0684 11.0299 49.0684 11.791ZM46.9971 12.2627V11.7773C46.9971 11.2487 46.9492 10.7839 46.8535 10.3828C46.7578 9.98177 46.6165 9.64453 46.4297 9.37109C46.2428 9.09766 46.015 8.89258 45.7461 8.75586C45.4772 8.61458 45.1696 8.54395 44.8232 8.54395C44.4769 8.54395 44.1693 8.61458 43.9004 8.75586C43.6361 8.89258 43.4105 9.09766 43.2236 9.37109C43.0413 9.64453 42.9023 9.98177 42.8066 10.3828C42.7109 10.7839 42.6631 11.2487 42.6631 11.7773V12.2627C42.6631 12.7868 42.7109 13.2516 42.8066 13.6572C42.9023 14.0583 43.0436 14.3978 43.2305 14.6758C43.4173 14.9492 43.6452 15.1566 43.9141 15.2979C44.1829 15.4391 44.4906 15.5098 44.8369 15.5098C45.1833 15.5098 45.4909 15.4391 45.7598 15.2979C46.0286 15.1566 46.2542 14.9492 46.4365 14.6758C46.6188 14.3978 46.7578 14.0583 46.8535 13.6572C46.9492 13.2516 46.9971 12.7868 46.9971 12.2627ZM52.6436 7.04688L52.418 13.958H50.7773L50.5449 7.04688H52.6436ZM50.4902 16.0977C50.4902 15.806 50.5905 15.5645 50.791 15.373C50.9961 15.1771 51.265 15.0791 51.5977 15.0791C51.9349 15.0791 52.2038 15.1771 52.4043 15.373C52.6048 15.5645 52.7051 15.806 52.7051 16.0977C52.7051 16.3802 52.6048 16.6195 52.4043 16.8154C52.2038 17.0114 51.9349 17.1094 51.5977 17.1094C51.265 17.1094 50.9961 17.0114 50.791 16.8154C50.5905 16.6195 50.4902 16.3802 50.4902 16.0977Z" fill="#FF9400"/>
</svg>
