<svg width="12" height="12" viewBox="0 0 12 12" fill="none" xmlns="http://www.w3.org/2000/svg">
<g clip-path="url(#clip0)">
<path d="M5.66504 0C2.63222 0 0.165039 2.52774 0.165039 5.635C0.165039 8.74226 2.63222 11.27 5.66504 11.27C8.69786 11.27 11.165 8.74226 11.165 5.635C11.165 2.52774 8.69786 0 5.66504 0Z" fill="#8080F3"/>
<path d="M8.45242 4.44087L5.47323 7.4931C5.38385 7.58468 5.26653 7.63076 5.1492 7.63076C5.03188 7.63076 4.91455 7.58468 4.82517 7.4931L3.33562 5.96699C3.15636 5.78341 3.15636 5.4866 3.33562 5.30302C3.51479 5.11936 3.80441 5.11936 3.98367 5.30302L5.1492 6.49716L7.80437 3.77691C7.98354 3.59325 8.27316 3.59325 8.45242 3.77691C8.6316 3.96048 8.6316 4.25721 8.45242 4.44087Z" fill="#FAFAFA"/>
</g>
<defs>
<clipPath id="clip0">
<rect width="11" height="11.27" fill="white" transform="translate(0.165039)"/>
</clipPath>
</defs>
</svg>
