<svg width="745" height="208" viewBox="0 0 745 208" fill="none" xmlns="http://www.w3.org/2000/svg">
<path d="M130.151 48.9244C130.151 48.9244 139.036 34.9907 160.322 36.5384C160.322 36.5384 191.206 13.318 224.136 33.4429C224.136 33.4429 259.144 28.4556 285.069 37.761C302.354 43.9633 308.066 50.4722 308.066 50.4722L130.151 48.9244Z" fill="#F8FCFF"/>
<path d="M256.331 16.5804C256.331 16.5804 261.945 6.82776 275.371 7.91267C275.371 7.91267 294.868 -8.34168 315.655 5.74285C315.655 5.74285 337.752 2.25345 354.119 8.76673C365.03 13.1102 368.632 17.6653 368.632 17.6653L256.331 16.5804Z" fill="#F8FCFF"/>
<path d="M551.593 18.9502C551.593 18.9502 556.701 7.80635 568.925 9.04053C568.925 9.04053 586.664 -9.53548 605.586 6.56766C605.586 6.56766 625.697 2.57579 640.588 10.0216C650.521 14.9945 653.799 20.1889 653.799 20.1889L551.593 18.9502Z" fill="#F8FCFF"/>
<path d="M591.971 93.3735H575.567V98.4208H591.971V93.3735Z" fill="#E2EEFD"/>
<path d="M591.971 100.944H575.567V105.992H591.971V100.944Z" fill="#E2EEFD"/>
<path d="M427.937 179.176H638.288L709.319 172.925C709.319 172.925 696.606 141.995 693.141 141.529C689.676 141.063 434.588 141.529 434.588 141.529L427.937 179.176Z" fill="#1D2949"/>
<path d="M740.764 176.28C735.49 178.446 703.699 178.928 703.699 178.928C703.699 178.928 704.418 139.748 671.658 144.314C638.897 148.881 644.625 181.399 644.625 181.399L487.133 184.223C487.133 184.223 489.689 142.921 454.915 147.265C426.037 150.875 433.45 184.069 433.45 184.069C418.542 184.842 410.554 182.583 406.315 180.225C403.141 175.727 404.992 173.094 405.175 172.632C405.358 172.171 404.031 169 407.731 169C409.5 165.5 409.643 167.659 409.5 161.591C411.902 161.591 410.5 157.5 414 158C403.5 150 409.99 147.34 407.731 150L408.5 144.5C409.148 141.794 413.188 140.492 413 139.097C412.812 137.703 433.94 133.29 434.5 132H445C456.95 126.5 497.961 116.663 497.961 116.663C510.112 109.641 520.189 104.423 528.072 100.632C540.647 94.5744 554.983 88.6857 568.857 87.3075C606.419 83.5743 637.305 87.8123 644.876 89.039C653.723 90.4803 698.2 109.949 701.55 111.632C704.9 113.316 732.198 115.595 735.701 116.024C739.204 116.453 739.104 119.977 739.104 119.977L739.586 123.102L741.419 135.013L741.866 137.923C744.417 139.203 744.42 142.876 744.42 142.876C744.42 142.876 746.022 174.117 740.764 176.28Z" fill="#739AF0"/>
<path d="M477.039 190.116C486.499 180.656 486.499 165.319 477.039 155.859C467.579 146.399 452.242 146.399 442.783 155.859C433.323 165.319 433.323 180.656 442.783 190.116C452.242 199.575 467.579 199.575 477.039 190.116Z" fill="#2C3A64"/>
<path d="M459.481 191.794C455.737 191.794 452.078 190.684 448.965 188.605C445.853 186.525 443.427 183.569 441.994 180.11C440.562 176.652 440.187 172.846 440.917 169.175C441.648 165.503 443.45 162.131 446.097 159.484C448.744 156.837 452.117 155.034 455.788 154.304C459.46 153.574 463.265 153.948 466.724 155.381C470.182 156.813 473.138 159.239 475.218 162.352C477.298 165.464 478.408 169.124 478.408 172.867C478.403 177.885 476.407 182.697 472.858 186.245C469.31 189.793 464.499 191.789 459.481 191.794ZM459.481 155.692C456.083 155.692 452.762 156.699 449.937 158.587C447.112 160.475 444.91 163.158 443.61 166.297C442.31 169.436 441.97 172.89 442.633 176.222C443.296 179.554 444.932 182.615 447.335 185.017C449.738 187.42 452.799 189.055 456.131 189.718C459.463 190.381 462.917 190.04 466.056 188.739C469.195 187.439 471.878 185.237 473.765 182.412C475.652 179.586 476.659 176.265 476.659 172.867C476.653 168.313 474.842 163.947 471.621 160.727C468.401 157.507 464.035 155.696 459.481 155.692Z" fill="#AFCDFB"/>
<path d="M462.627 190.533H456.001L458.128 172.413L455.697 155.202L463.268 155.669L460.744 172.413L462.627 190.533Z" fill="#AFCDFB"/>
<path d="M446.408 185.485L443.078 179.682L459.955 172.361L473.748 161.511L477.147 168.381L461.269 174.655L446.408 185.485Z" fill="#AFCDFB"/>
<path d="M443.078 166.054L446.793 160.249L461.082 172.575L477.147 180.383L472.505 186.747L459.613 174.868L443.078 166.054Z" fill="#AFCDFB"/>
<path d="M453.173 172.867C453.173 171.619 453.58 170.4 454.342 169.362C455.105 168.325 456.189 167.516 457.457 167.038C458.725 166.561 460.12 166.436 461.467 166.679C462.813 166.923 464.049 167.524 465.02 168.406C465.991 169.288 466.652 170.413 466.919 171.636C467.187 172.86 467.05 174.129 466.524 175.282C465.999 176.434 465.11 177.42 463.968 178.113C462.827 178.806 461.485 179.176 460.113 179.176C459.201 179.176 458.299 179.013 457.457 178.696C456.615 178.379 455.85 177.914 455.205 177.328C454.561 176.743 454.05 176.047 453.701 175.282C453.352 174.516 453.173 173.696 453.173 172.867Z" fill="#AFCDFB"/>
<path d="M698.244 178.531C701.317 165.51 693.253 152.464 680.233 149.391C667.213 146.318 654.167 154.382 651.094 167.402C648.021 180.422 656.084 193.469 669.105 196.542C682.125 199.615 695.171 191.551 698.244 178.531Z" fill="#2C3A64"/>
<path d="M674.62 191.794C670.751 191.794 666.97 190.684 663.754 188.605C660.537 186.525 658.031 183.569 656.55 180.11C655.07 176.652 654.683 172.846 655.437 169.175C656.192 165.503 658.055 162.131 660.79 159.484C663.525 156.837 667.01 155.034 670.804 154.304C674.598 153.574 678.53 153.948 682.104 155.381C685.678 156.813 688.732 159.239 690.881 162.352C693.03 165.464 694.177 169.124 694.177 172.867C694.172 177.885 692.11 182.697 688.443 186.245C684.776 189.793 679.805 191.789 674.62 191.794ZM674.62 155.692C671.109 155.692 667.677 156.699 664.758 158.587C661.838 160.475 659.563 163.158 658.22 166.297C656.876 169.436 656.525 172.89 657.21 176.222C657.895 179.554 659.586 182.615 662.069 185.017C664.552 187.42 667.715 189.055 671.158 189.718C674.602 190.381 678.171 190.04 681.414 188.739C684.658 187.439 687.43 185.237 689.38 182.412C691.33 179.586 692.371 176.265 692.37 172.867C692.365 168.313 690.493 163.947 687.165 160.727C683.837 157.507 679.325 155.696 674.62 155.692Z" fill="#AFCDFB"/>
<path d="M677.131 190.533H670.508L672.635 172.413L670.204 155.202L677.775 155.669L675.251 172.413L677.131 190.533Z" fill="#AFCDFB"/>
<path d="M660.914 185.485L657.584 179.682L674.462 172.361L688.256 161.511L691.653 168.381L675.776 174.655L660.914 185.485Z" fill="#AFCDFB"/>
<path d="M657.584 166.054L661.436 160.249L676.254 172.575L692.915 180.383L688.101 186.747L674.731 174.868L657.584 166.054Z" fill="#AFCDFB"/>
<path d="M668.941 172.867C668.941 171.619 669.274 170.4 669.898 169.362C670.522 168.325 671.409 167.516 672.447 167.038C673.484 166.561 674.626 166.436 675.727 166.679C676.829 166.923 677.84 167.524 678.635 168.406C679.429 169.288 679.969 170.413 680.189 171.636C680.408 172.86 680.295 174.129 679.865 175.282C679.436 176.434 678.708 177.42 677.774 178.113C676.84 178.806 675.743 179.176 674.62 179.176C673.114 179.176 671.669 178.512 670.604 177.328C669.54 176.145 668.941 174.541 668.941 172.867Z" fill="#AFCDFB"/>
<path d="M436.396 142.282L430.242 148.718C429.803 149.172 429.272 149.535 428.682 149.782C428.092 150.029 427.455 150.156 426.811 150.155H407.944C407.69 150.154 407.44 150.09 407.22 149.968C406.999 149.846 406.816 149.671 406.687 149.46C406.559 149.248 406.489 149.008 406.486 148.763C406.484 148.518 406.547 148.276 406.671 148.062L407.209 147.133C407.866 145.998 408.686 144.958 409.645 144.044C412.326 141.491 415.943 140.06 419.711 140.06H435.393C435.661 140.058 435.923 140.132 436.148 140.273C436.373 140.413 436.549 140.615 436.656 140.852C436.763 141.088 436.795 141.35 436.749 141.605C436.703 141.859 436.58 142.095 436.396 142.282Z" fill="white"/>
<path d="M416.122 171.605H410.896C410.047 171.606 409.213 171.934 408.481 172.555C407.749 173.176 407.145 174.068 406.731 175.14L406.551 175.602C406.509 175.709 406.486 175.83 406.486 175.954C406.487 176.077 406.509 176.199 406.552 176.305C406.595 176.412 406.657 176.5 406.731 176.561C406.806 176.622 406.89 176.654 406.975 176.653H413.263C413.478 176.652 413.691 176.588 413.887 176.463C414.084 176.338 414.261 176.156 414.407 175.928L416.457 172.716C416.518 172.622 416.559 172.504 416.574 172.377C416.589 172.25 416.579 172.119 416.543 172.001C416.507 171.883 416.448 171.782 416.374 171.712C416.299 171.642 416.211 171.605 416.122 171.605Z" fill="#1D2949"/>
<path d="M677.579 115.437L596.142 117.347C595.764 117.356 595.387 117.29 595.034 117.153C594.681 117.016 594.36 116.81 594.089 116.548C593.818 116.287 593.602 115.974 593.455 115.629C593.308 115.283 593.232 114.912 593.232 114.538V95.9908C593.232 95.6442 593.302 95.301 593.437 94.9812C593.572 94.6614 593.771 94.3713 594.02 94.1278C594.27 93.8844 594.566 93.6923 594.891 93.5629C595.216 93.4334 595.564 93.3691 595.915 93.3738C630.643 93.8507 642.545 94.8072 649.681 97.2419C655.976 99.3896 670.698 108.23 678.306 112.697C678.584 112.861 678.801 113.109 678.924 113.405C679.047 113.701 679.068 114.028 678.986 114.338C678.904 114.647 678.722 114.922 678.468 115.12C678.215 115.318 677.902 115.429 677.579 115.437Z" fill="#AFCDFB"/>
<path d="M588.097 93.3798L591.971 93.4233V116.827L513.525 118.609C513.304 118.614 513.087 118.55 512.907 118.427C512.727 118.304 512.593 118.129 512.526 117.927C512.459 117.726 512.462 117.508 512.534 117.308C512.606 117.108 512.744 116.936 512.927 116.817C522.086 110.901 552.783 92.9908 588.097 93.3798Z" fill="#AFCDFB"/>
<path d="M677.808 114.824H677.773V111.039L678.423 111.579C678.657 111.773 678.839 112.068 678.942 112.418C679.045 112.769 679.063 113.157 678.994 113.523C678.924 113.889 678.771 114.214 678.557 114.449C678.343 114.684 678.08 114.815 677.808 114.824Z" fill="#AFCDFB"/>
<path d="M593.233 117.348L584.4 116.597L584.989 90.85H593.233V117.348Z" fill="#739AF0"/>
<path d="M655.061 117.348H650.014V94.6354L655.061 97.2401V117.348Z" fill="#739AF0"/>
<path d="M522.705 109.777L525.096 118.277L512.011 118.609C511.845 118.614 511.682 118.561 511.546 118.458C511.411 118.356 511.309 118.21 511.256 118.041C511.203 117.872 511.202 117.69 511.253 117.521C511.304 117.351 511.404 117.204 511.539 117.1C514.493 114.822 519.968 110.762 522.705 109.777Z" fill="#2C3A64"/>
<path d="M512.423 119.831C512.166 119.831 511.916 119.748 511.708 119.592C511.501 119.436 511.348 119.216 511.271 118.965C511.194 118.713 511.198 118.443 511.281 118.193C511.364 117.944 511.523 117.728 511.734 117.578L512.001 117.39C512.277 117.193 512.588 116.975 512.929 116.739L513.832 116.121L514.326 115.794L515.496 115.019L516.409 114.426L516.461 114.393L516.597 114.306L517.431 113.774L517.495 113.734L517.784 113.554L518.228 113.275L518.873 112.877C519.487 112.497 520.149 112.097 520.847 111.689C521.06 111.559 521.277 111.435 521.496 111.303C521.931 111.05 522.378 110.797 522.837 110.526L523.158 110.338C524.083 109.811 525.021 109.289 525.944 108.785L526.248 108.62L526.67 108.389C528.433 107.444 530.239 106.514 532.051 105.627L532.612 105.353C533.177 105.08 533.75 104.809 534.339 104.535L534.927 104.261C535.314 104.079 535.709 103.899 536.109 103.716L536.709 103.445C537.309 103.174 537.943 102.893 538.657 102.586C539.024 102.426 539.397 102.269 539.767 102.112C542.278 101.05 544.835 100.052 547.37 99.1447L547.926 98.9471L548.555 98.7266L549.345 98.4555L549.987 98.2375H550.011L550.685 98.0145C551.092 97.8802 551.502 97.7459 551.919 97.6167C552.198 97.5254 552.482 97.4368 552.768 97.3481L554.077 96.9477L554.805 96.7323C555.264 96.5979 555.726 96.4636 556.187 96.3344C557.103 96.081 558.039 95.8276 558.962 95.5894L559.018 95.5742L559.265 95.5108C559.658 95.4095 560.06 95.3106 560.465 95.2118L561.191 95.0395L561.373 94.9964L561.916 94.8697C562.163 94.8114 562.41 94.7582 562.645 94.7024L563.385 94.5403L564.126 94.3831C564.372 94.3299 564.619 94.2792 564.866 94.2311H564.906L565.609 94.0917L566.31 93.9549L567.102 93.8079L567.611 93.7141L567.858 93.671C568.351 93.5823 568.857 93.4987 569.359 93.4176C569.605 93.3745 569.852 93.3365 570.116 93.296H570.153L571.486 93.0983C572.316 92.9817 573.148 92.8728 573.955 92.7765H574.007L574.693 92.6979L575.186 92.6447C575.347 92.6244 575.527 92.6067 575.705 92.5915L576.285 92.5332L577.065 92.4597L577.805 92.3964L578.388 92.3508L579.504 92.2722L580.163 92.2316H580.259C580.506 92.2164 580.753 92.2038 581 92.1936L581.589 92.1658H581.609L582.137 92.1455L582.574 92.1278L583.095 92.1125C583.429 92.1038 583.76 92.1635 584.071 92.2882C584.382 92.4129 584.665 92.6001 584.904 92.8388C585.143 93.0775 585.333 93.3628 585.464 93.6781C585.594 93.9933 585.661 94.3321 585.662 94.6745V115.021C585.658 115.84 585.344 116.624 584.786 117.21C584.229 117.796 583.473 118.137 582.676 118.161L512.492 119.871L512.423 119.831ZM524.024 111.314L523.592 111.567C523.085 111.856 522.592 112.141 522.111 112.424L521.467 112.806C520.783 113.212 520.126 113.607 519.517 113.985L518.877 114.38L518.436 114.656L518.154 114.834L518.088 114.877L517.253 115.406L517.076 115.52C516.765 115.72 516.461 115.918 516.17 116.111C515.762 116.378 515.376 116.631 515.014 116.871L514.533 117.198L513.64 117.809C513.304 118.042 512.998 118.255 512.724 118.452L512.595 118.541L525.779 118.222L582.616 116.836C583.087 116.821 583.533 116.62 583.862 116.274C584.19 115.929 584.376 115.466 584.379 114.983V94.634C584.377 94.4641 584.342 94.2963 584.276 94.1403C584.211 93.9843 584.116 93.8432 583.996 93.7253C583.877 93.6074 583.736 93.515 583.582 93.4535C583.428 93.392 583.263 93.3626 583.098 93.367L582.587 93.3821L582.15 93.3974L581.631 93.4202H581.612L581.029 93.448C580.782 93.448 580.535 93.4708 580.306 93.486H580.207L579.563 93.5266L578.457 93.6026L577.892 93.6482L577.151 93.7116L576.381 93.7825L575.808 93.8408C575.631 93.856 575.465 93.8738 575.3 93.894L574.806 93.9472L574.128 94.0258H574.076C573.271 94.1221 572.447 94.2311 571.627 94.3451C571.186 94.4093 570.747 94.4752 570.311 94.5428H570.274L569.534 94.6619C569.04 94.743 568.547 94.8275 568.053 94.9153L567.806 94.9558L567.312 95.0471L566.527 95.194L565.834 95.3309L565.138 95.4703H565.098L564.37 95.6198L563.629 95.7769L562.906 95.9365L562.183 96.1013L561.647 96.2254L561.462 96.2711C561.215 96.3268 560.986 96.3825 560.749 96.4434C560.344 96.5397 559.949 96.6385 559.554 96.7399L559.322 96.7981L559.263 96.8134C558.347 97.049 557.421 97.2974 556.513 97.5533C556.054 97.6825 555.6 97.8067 555.146 97.9461L554.422 98.159L553.126 98.5568L552.287 98.8103L551.053 99.2081C550.831 99.2791 550.611 99.3525 550.391 99.4286H550.364L549.73 99.644L548.942 99.9126L548.323 100.131L547.772 100.326C545.257 101.225 542.722 102.216 540.234 103.268L539.131 103.739C538.425 104.043 537.795 104.322 537.203 104.591L536.603 104.862C536.208 105.042 535.818 105.219 535.431 105.402C535.233 105.49 535.041 105.579 534.85 105.67C534.27 105.941 533.703 106.212 533.142 106.486L532.582 106.757C530.79 107.637 528.995 108.556 527.253 109.494L526.828 109.725L526.527 109.887C525.685 110.373 524.844 110.84 524.012 111.314H524.024Z" fill="#1D2949"/>
<path d="M656.822 116.086C656.377 116.084 655.951 115.897 655.635 115.565C655.45 115.372 655.305 115.141 655.207 114.886C655.108 114.632 655.059 114.36 655.062 114.085V100.707C655.062 99.9441 655.166 98.9792 655.749 98.5893C656.275 98.2414 657.162 98.4955 657.716 98.7818C658.334 99.1051 658.764 99.3346 658.997 99.4678L659.09 99.5197L659.342 99.6653C662.488 101.487 666.966 104.354 672.656 108.187C672.889 108.347 673.138 108.51 673.378 108.68L675.045 109.813L677.041 111.178L678.038 111.864L678.18 111.96L678.224 111.989C678.55 112.221 678.797 112.558 678.929 112.95C679.061 113.342 679.071 113.768 678.957 114.166C678.869 114.542 678.668 114.877 678.384 115.12C678.1 115.364 677.748 115.503 677.383 115.516H677.167L656.866 116.076L656.822 116.086ZM656.934 99.7097C656.796 99.7113 656.66 99.7532 656.543 99.8306C656.405 99.9272 656.292 100.059 656.216 100.215C656.14 100.37 656.102 100.544 656.107 100.719V114.097C656.106 114.222 656.129 114.346 656.173 114.461C656.217 114.577 656.283 114.682 656.366 114.771C656.49 114.901 656.657 114.975 656.831 114.976L677.351 114.41C677.491 114.4 677.624 114.342 677.731 114.244C677.838 114.147 677.912 114.016 677.942 113.87C677.995 113.7 677.995 113.516 677.941 113.346C677.888 113.175 677.785 113.028 677.646 112.925L677.602 112.895L677.465 112.801L676.466 112.113L674.474 110.751L672.807 109.62L672.087 109.127C666.417 105.307 661.96 102.464 658.834 100.643L658.578 100.497L658.501 100.453C658.268 100.322 657.845 100.092 657.248 99.7812C657.15 99.733 657.042 99.7086 656.934 99.7097Z" fill="#1D2949"/>
<path d="M522.705 109.777L525.096 118.277L512.011 118.609C511.845 118.614 511.682 118.561 511.546 118.458C511.411 118.356 511.309 118.21 511.256 118.041C511.203 117.872 511.202 117.69 511.253 117.521C511.304 117.351 511.404 117.204 511.539 117.1C514.493 114.822 519.968 110.762 522.705 109.777Z" fill="#2C3A64"/>
<path d="M596.729 117.348C595.802 117.346 594.913 116.984 594.257 116.339C593.602 115.694 593.233 114.819 593.232 113.907V95.36C593.231 94.9297 593.317 94.5035 593.486 94.1064C593.655 93.7094 593.903 93.3496 594.215 93.0482C594.528 92.7463 594.898 92.5081 595.305 92.3475C595.712 92.1868 596.146 92.1067 596.585 92.1119C632.622 92.6113 643.781 93.4102 650.859 96.0216L651.275 96.1764V116.077L596.818 117.348H596.729ZM596.536 93.3802C596.003 93.3841 595.493 93.5939 595.116 93.9643C594.739 94.3346 594.525 94.8359 594.52 95.36V113.907C594.52 114.197 594.579 114.484 594.694 114.751C594.809 115.018 594.977 115.26 595.188 115.462C595.399 115.665 595.649 115.824 595.923 115.93C596.197 116.036 596.491 116.087 596.785 116.08L649.985 114.831V97.0502C643.1 94.6485 631.289 93.8471 596.567 93.3727L596.536 93.3802Z" fill="#1D2949"/>
<path d="M740.865 135.013H725.937C724.841 135.013 723.759 134.77 722.772 134.301C721.786 133.833 720.922 133.152 720.243 132.309L714.587 125.291C714.468 125.141 714.393 124.963 714.373 124.774C714.353 124.586 714.387 124.396 714.471 124.226C714.556 124.055 714.687 123.912 714.851 123.811C715.015 123.711 715.205 123.657 715.399 123.657H739.06L740.865 135.013Z" fill="#A9453D"/>
<path d="M590.584 92.2608L589.645 173.841L590.282 173.848L591.221 92.2682L590.584 92.2608Z" fill="#1D2949"/>
<path d="M644.525 172.6L487.145 175.76L487.157 176.397L644.538 173.237L644.525 172.6Z" fill="#1D2949"/>
<path d="M580.614 133.751C580.614 134.448 576.66 135.013 571.781 135.013C566.901 135.013 562.949 134.448 562.949 133.751C562.949 133.055 566.904 132.49 571.781 132.49C576.657 132.49 580.614 133.055 580.614 133.751Z" fill="#2C3A64"/>
<path d="M661.37 133.751C661.37 134.448 657.415 135.013 652.538 135.013C647.66 135.013 643.705 134.448 643.705 133.751C643.705 133.055 647.66 132.49 652.538 132.49C657.415 132.49 661.37 133.055 661.37 133.751Z" fill="#2C3A64"/>
<path d="M639.266 171.605L638.657 171.571C639.078 163.668 641.387 157.005 645.513 151.772C648.818 147.584 653.283 144.301 658.788 142.013C667.16 138.533 675.455 138.442 677.162 138.467V114.824H677.773V139.107H677.455C677.364 139.107 668.229 138.765 659 142.607C653.598 144.856 649.217 148.076 645.985 152.18C641.943 157.298 639.685 163.849 639.266 171.605Z" fill="#1D2949"/>
<path d="M506.203 175.391C505.946 154.222 507.154 139.578 508.207 131.018C509.35 121.733 510.574 117.393 510.587 117.348L511.215 117.522C511.169 117.691 506.373 134.974 506.857 175.383L506.203 175.391Z" fill="#1D2949"/>
<path d="M597.018 92.1117H584.4V93.3735H597.018V92.1117Z" fill="#1D2949"/>
<path d="M419.104 150.155H407.964C407.706 150.154 407.453 150.075 407.23 149.924C407.006 149.772 406.82 149.555 406.69 149.293C406.559 149.031 406.489 148.734 406.486 148.43C406.483 148.127 406.548 147.827 406.673 147.562L407.219 146.411C407.884 145.004 408.715 143.716 409.687 142.584L416.432 143.901L413.768 147.342L416.953 148.102L419.104 150.155Z" fill="#B4ADBB"/>
<path d="M409.816 115.358C409.643 115.312 409.497 115.189 409.4 115.008C409.302 114.827 409.259 114.597 409.276 114.353C409.293 114.109 409.369 113.864 409.494 113.654C409.618 113.445 409.784 113.282 409.967 113.191C410.034 113.152 411.664 112.287 416.736 110.07C422.058 107.737 426.326 108.205 429.073 108.764C430.764 109.104 433.391 106.26 434.96 104.558C435.405 104.049 435.869 103.573 436.351 103.134C436.91 102.668 437.487 102.186 467.006 110.229C481.431 114.16 499.167 119.26 496.028 118.313L499.3 119.3C499.734 119.431 499.311 120.888 499.209 121.514C497.946 129.2 493.32 123.794 492.883 123.663C470.922 117.412 440.131 105.14 436.896 105.142C436.644 105.386 436.281 105.778 435.902 106.188C433.947 108.305 431.001 111.498 428.514 110.995C425.94 110.474 421.941 110.032 416.994 112.201C412.047 114.371 410.362 115.261 410.347 115.267C410.171 115.37 409.986 115.401 409.816 115.358Z" fill="#739AF0"/>
<path d="M534.472 112.301H524.55C522.761 112.301 521.31 113.697 521.31 115.419V118.015C521.31 119.737 522.761 121.133 524.55 121.133H534.472C536.262 121.133 537.713 119.737 537.713 118.015V115.419C537.713 113.697 536.262 112.301 534.472 112.301Z" fill="#6390E0"/>
<path d="M25.4219 179.176H237.65L309.328 172.719C309.328 172.719 296.502 140.756 293.005 140.274C289.509 139.793 32.1425 140.274 32.1425 140.274L25.4219 179.176Z" fill="#1D2949"/>
<path d="M335.894 146C335.139 148.569 332.595 151.964 332.598 157.5C332.598 159.675 333.162 160.586 332.046 163C331.565 164.044 329.171 165.507 330 169C330 169 332.804 172.788 332.598 173.266C332.391 173.744 332.046 176.408 332.046 176.408C326.757 178.543 303.108 177.731 303.108 177.731C303.108 177.731 303.826 139.063 270.971 143.57C238.117 148.077 243.857 180.175 243.857 180.175L85.8983 182.961C85.8983 182.961 88.4622 142.195 53.5904 146.48C24.6271 150.043 32.0568 182.809 32.0568 182.809C3.16905 184.286 0.18457 174.587 0.18457 174.587V170.583H1.99541V160.036H0.18457V152.181L6.26183 138.41C8.82067 134.06 15.7542 130.502 24.7228 127.609C51.6108 118.934 96.7532 116.266 96.7532 116.266C108.946 109.332 119.05 104.179 126.958 100.437C139.569 94.4699 153.944 88.6473 167.859 87.2869C205.532 83.6045 236.513 87.7852 244.106 88.9986C252.979 90.4212 297.587 109.636 300.944 111.297C304.302 112.959 331.686 115.212 335.197 115.633C338.708 116.054 338.607 119.532 338.607 119.532L339.09 122.621L338.521 124.43L335.894 123.526L337.003 127.435L336.658 129.074L340.183 129.63L340.939 134.379L341.39 137.249C343.949 138.52 336.282 144.675 335.894 146Z" fill="#F99746"/>
<path d="M82.3484 176.274C84.7978 163.122 76.1217 150.475 62.9699 148.026C49.818 145.576 37.1706 154.252 34.7212 167.404C32.2718 180.556 40.9478 193.203 54.0997 195.653C67.2516 198.102 79.8989 189.426 82.3484 176.274Z" fill="#2C3A64"/>
<path d="M58.8578 190.533C54.9896 190.533 51.2082 189.459 47.992 187.449C44.7757 185.439 42.2689 182.581 40.7886 179.238C39.3083 175.895 38.921 172.216 39.6756 168.667C40.4303 165.118 42.293 161.858 45.0282 159.299C47.7634 156.74 51.2483 154.998 55.0422 154.292C58.8361 153.586 62.7685 153.948 66.3423 155.333C69.916 156.718 72.9706 159.063 75.1196 162.072C77.2687 165.08 78.4158 168.618 78.4158 172.236C78.4096 177.087 76.347 181.737 72.6805 185.167C69.014 188.597 64.043 190.527 58.8578 190.533ZM58.8578 155.631C55.3469 155.631 51.9148 156.604 48.9954 158.428C46.076 160.253 43.8005 162.846 42.4566 165.88C41.1127 168.914 40.7608 172.253 41.4454 175.474C42.13 178.696 43.8204 181.655 46.3027 183.977C48.7851 186.3 51.9479 187.882 55.3913 188.522C58.8346 189.163 62.4038 188.835 65.6474 187.578C68.8911 186.321 71.6635 184.193 73.6141 181.462C75.5646 178.731 76.6057 175.521 76.6057 172.236C76.6003 167.834 74.7287 163.614 71.4016 160.501C68.0745 157.388 63.5634 155.637 58.8578 155.631Z" fill="#AFCDFB"/>
<path d="M62.524 189.271H54.7965L57.2781 171.15L54.4424 153.94L63.275 154.407L60.3308 171.15L62.524 189.271Z" fill="#AFCDFB"/>
<path d="M44.0157 184.224L40.5625 178.113L58.0657 170.409L72.371 158.987L75.893 166.219L59.4286 172.823L44.0157 184.224Z" fill="#AFCDFB"/>
<path d="M41.8252 164.793L45.5398 158.987L59.8288 171.312L75.8939 179.12L71.25 185.485L58.3599 173.607L41.8252 164.793Z" fill="#AFCDFB"/>
<path d="M53.1797 172.236C53.1797 170.864 53.5127 169.522 54.1366 168.381C54.7605 167.239 55.6473 166.35 56.6849 165.825C57.7224 165.299 58.8641 165.162 59.9656 165.43C61.067 165.698 62.0787 166.358 62.8728 167.329C63.6669 168.3 64.2077 169.536 64.4268 170.882C64.6459 172.229 64.5335 173.624 64.1037 174.892C63.6739 176.16 62.9462 177.244 62.0124 178.007C61.0786 178.769 59.9808 179.176 58.8578 179.176C58.1121 179.176 57.3738 178.997 56.6849 178.648C55.996 178.299 55.37 177.788 54.8428 177.144C54.3155 176.499 53.8973 175.734 53.6119 174.892C53.3266 174.05 53.1797 173.148 53.1797 172.236Z" fill="#AFCDFB"/>
<path d="M297.709 178.072C301.588 165.229 294.322 151.673 281.479 147.793C268.636 143.914 255.08 151.18 251.2 164.023C247.321 176.866 254.587 190.422 267.43 194.302C280.273 198.181 293.829 190.915 297.709 178.072Z" fill="#2C3A64"/>
<path d="M273.365 190.533C269.746 190.533 266.209 189.459 263.2 187.449C260.191 185.439 257.846 182.581 256.461 179.238C255.076 175.895 254.714 172.216 255.42 168.667C256.126 165.118 257.868 161.858 260.427 159.299C262.986 156.74 266.246 154.998 269.795 154.292C273.344 153.586 277.023 153.948 280.366 155.333C283.709 156.718 286.567 159.063 288.577 162.072C290.588 165.08 291.661 168.618 291.661 172.236C291.655 177.087 289.725 181.737 286.295 185.167C282.866 188.597 278.215 190.527 273.365 190.533ZM273.365 155.631C270.08 155.631 266.869 156.604 264.138 158.428C261.407 160.253 259.279 162.846 258.021 165.88C256.764 168.914 256.435 172.253 257.076 175.474C257.716 178.696 259.297 181.655 261.619 183.977C263.942 186.3 266.9 187.882 270.122 188.522C273.343 189.163 276.682 188.835 279.716 187.578C282.75 186.321 285.344 184.193 287.169 181.462C288.994 178.731 289.967 175.521 289.967 172.236C289.962 167.834 288.212 163.614 285.099 160.501C281.987 157.388 277.767 155.637 273.365 155.631Z" fill="#AFCDFB"/>
<path d="M275.875 189.271H269.252L271.379 171.15L268.948 153.94L276.519 154.407L273.995 171.15L275.875 189.271Z" fill="#AFCDFB"/>
<path d="M259.661 184.224L256.331 178.113L273.209 170.409L287.001 158.987L290.4 166.219L274.523 172.823L259.661 184.224Z" fill="#AFCDFB"/>
<path d="M257.592 164.793L261.169 158.987L274.929 171.312L290.399 179.12L285.927 185.485L273.514 173.607L257.592 164.793Z" fill="#AFCDFB"/>
<path d="M266.426 172.236C266.426 170.864 266.833 169.522 267.595 168.381C268.358 167.239 269.442 166.35 270.71 165.825C271.978 165.299 273.373 165.162 274.72 165.43C276.066 165.698 277.302 166.358 278.273 167.329C279.244 168.3 279.905 169.536 280.172 170.882C280.44 172.229 280.303 173.624 279.777 174.892C279.252 176.16 278.363 177.244 277.221 178.007C276.08 178.769 274.738 179.176 273.366 179.176C272.454 179.176 271.552 178.997 270.71 178.648C269.868 178.299 269.103 177.788 268.458 177.144C267.814 176.499 267.303 175.734 266.954 174.892C266.605 174.05 266.426 173.148 266.426 172.236Z" fill="#AFCDFB"/>
<path d="M34.1466 138.799H18.4613C15.9121 138.798 13.4091 139.454 11.2105 140.698C9.01183 141.942 7.19719 143.729 5.95375 145.874L5.4175 146.801C5.29321 147.015 5.22909 147.256 5.23151 147.501C5.23393 147.746 5.30282 147.987 5.43132 148.198C5.55982 148.41 5.74347 148.585 5.96403 148.707C6.18459 148.829 6.43439 148.893 6.68862 148.893H25.5566C26.2 148.895 26.8368 148.768 27.4268 148.521C28.0169 148.274 28.5475 147.911 28.9852 147.457L35.1421 141.022C35.3254 140.835 35.4477 140.6 35.494 140.346C35.5404 140.092 35.5086 139.831 35.4027 139.595C35.2969 139.358 35.1215 139.157 34.8983 139.015C34.675 138.874 34.4137 138.798 34.1466 138.799Z" fill="#F9DDBF"/>
<path d="M14.8649 171.606H9.64086C8.7922 171.606 7.95895 171.851 7.22687 172.317C6.49479 172.782 5.89033 173.451 5.47569 174.253L5.29638 174.603C5.25366 174.683 5.23126 174.774 5.23145 174.867C5.23164 174.959 5.25441 175.05 5.29746 175.13C5.34051 175.21 5.4023 175.276 5.47658 175.322C5.55086 175.368 5.63498 175.392 5.72041 175.391H12.0082C12.2228 175.391 12.435 175.343 12.6315 175.249C12.8279 175.155 13.0043 175.019 13.1494 174.847L15.2017 172.438C15.2631 172.368 15.3039 172.279 15.3192 172.184C15.3345 172.088 15.3235 171.99 15.2875 171.901C15.2516 171.812 15.1924 171.737 15.1172 171.684C15.0421 171.632 14.9543 171.604 14.8649 171.606Z" fill="#1D2949"/>
<path d="M277.591 114.072L196.153 116.085C195.774 116.095 195.397 116.026 195.044 115.882C194.691 115.737 194.369 115.521 194.097 115.245C193.826 114.97 193.61 114.641 193.463 114.277C193.316 113.913 193.24 113.523 193.24 113.128V93.6025C193.24 93.2374 193.309 92.8759 193.445 92.5391C193.58 92.2022 193.778 91.8968 194.028 91.6406C194.278 91.3844 194.575 91.1826 194.901 91.0469C195.226 90.9112 195.575 90.8444 195.925 90.8503C230.654 91.3524 242.554 92.3592 249.693 94.9221C255.988 97.1801 270.71 106.475 278.318 111.191C278.595 111.363 278.811 111.625 278.933 111.936C279.055 112.247 279.076 112.591 278.994 112.915C278.912 113.24 278.731 113.529 278.478 113.737C278.225 113.946 277.913 114.063 277.591 114.072Z" fill="#AFCDFB"/>
<path d="M185.643 90.8563L189.456 90.9045V115.476L112.254 117.348C112.037 117.353 111.824 117.286 111.646 117.157C111.469 117.027 111.338 116.843 111.271 116.631C111.205 116.42 111.208 116.192 111.279 115.982C111.35 115.771 111.486 115.59 111.666 115.466C120.689 109.254 150.897 90.4556 185.643 90.8563Z" fill="#AFCDFB"/>
<path d="M276.554 113.562H276.52V109.777L277.166 110.314C277.401 110.508 277.584 110.802 277.687 111.153C277.791 111.504 277.809 111.893 277.74 112.26C277.671 112.627 277.518 112.952 277.304 113.187C277.09 113.422 276.827 113.554 276.554 113.562Z" fill="#AFCDFB"/>
<path d="M193.242 117.348L183.147 116.564L183.821 89.5881H193.242V117.348Z" fill="#F99746"/>
<path d="M253.807 117.348H250.021V93.3735L253.807 96.1207V117.348Z" fill="#F99746"/>
<path d="M122.495 109.777L125.103 117.062L110.83 117.348C110.649 117.352 110.471 117.307 110.323 117.22C110.174 117.133 110.063 117.007 110.005 116.862C109.947 116.718 109.946 116.561 110.002 116.416C110.058 116.27 110.168 116.144 110.316 116.056C113.537 114.1 119.521 110.619 122.495 109.777Z" fill="#2C3A64"/>
<path d="M111.187 117.326C110.926 117.326 110.672 117.246 110.462 117.098C110.252 116.949 110.096 116.74 110.018 116.501C109.939 116.261 109.942 116.003 110.026 115.766C110.11 115.528 110.27 115.322 110.484 115.178L110.755 114.997L111.701 114.375L112.617 113.787L113.119 113.475C113.493 113.233 113.887 112.991 114.309 112.735L115.237 112.166L115.29 112.135L115.428 112.052L116.276 111.544L116.341 111.508L116.635 111.334C116.778 111.247 116.931 111.157 117.087 111.068L117.742 110.688C118.367 110.325 119.039 109.943 119.75 109.553L120.41 109.186C120.851 108.941 121.305 108.693 121.772 108.443L122.099 108.267C123.04 107.763 123.993 107.263 124.932 106.781L125.241 106.624L125.67 106.406C127.459 105.501 129.299 104.616 131.138 103.769L131.71 103.508C132.284 103.247 132.87 102.986 133.467 102.724L134.064 102.463C134.456 102.291 134.86 102.117 135.266 101.945L135.876 101.687C136.484 101.428 137.131 101.159 137.856 100.864L138.986 100.412C141.538 99.3981 144.138 98.4449 146.715 97.5789L147.28 97.3902L147.92 97.1821L148.723 96.9209L149.375 96.7152H149.4L150.086 96.5024L151.34 96.1226C151.624 96.0355 151.913 95.9508 152.204 95.8661C152.645 95.7379 153.087 95.6097 153.534 95.4839L154.287 95.2783C154.753 95.1501 155.22 95.0364 155.692 94.9009C156.623 94.659 157.574 94.4171 158.513 94.1752L158.568 94.1607C158.653 94.1413 158.734 94.1196 158.819 94.1026C159.218 94.0059 159.627 93.9091 160.039 93.8172C160.29 93.7615 160.541 93.7035 160.776 93.6502L160.96 93.6091L161.514 93.4882L162.267 93.3285L163.02 93.1761L163.773 93.0261L164.526 92.8785H164.566L165.281 92.7431L165.991 92.6124L166.797 92.4721L167.317 92.3851L167.567 92.3439C168.069 92.2593 168.584 92.177 169.093 92.102L169.861 91.9859H169.901L171.257 91.7972C172.097 91.6835 172.946 91.5795 173.766 91.4875H173.821C174.055 91.4609 174.286 91.4343 174.519 91.4126C174.68 91.3932 174.853 91.3763 175.021 91.3617C175.189 91.3472 175.367 91.323 175.551 91.3085L176.138 91.2529L176.931 91.1827L177.684 91.1223L178.276 91.0787L179.408 91.0037L180.08 90.965H180.178L180.931 90.9287L181.531 90.9021H181.548L182.088 90.8803L182.53 90.8658L183.059 90.8513C183.399 90.8404 183.737 90.8961 184.054 91.0151C184.371 91.134 184.659 91.3136 184.901 91.5432C185.145 91.7708 185.339 92.0434 185.471 92.3447C185.602 92.6461 185.67 92.97 185.669 93.297V112.718C185.665 113.499 185.346 114.249 184.779 114.808C184.213 115.367 183.443 115.692 182.633 115.715L111.28 117.348L111.187 117.326ZM122.982 109.195L122.54 109.437C122.026 109.716 121.536 109.987 121.034 110.257L120.377 110.62C119.684 111.007 119.017 111.387 118.397 111.748C118.174 111.876 117.958 111.99 117.747 112.125C117.594 112.212 117.446 112.299 117.298 112.389L117.012 112.558L116.944 112.597C116.65 112.768 116.369 112.938 116.096 113.105L115.915 113.211L114.994 113.775C114.577 114.03 114.186 114.272 113.819 114.501L113.317 114.81L112.411 115.393L111.478 116.008L111.35 116.095L124.754 115.788L182.537 114.467C183.016 114.452 183.469 114.26 183.804 113.93C184.138 113.599 184.326 113.157 184.329 112.696V93.2753C184.329 93.1127 184.295 92.9518 184.229 92.8021C184.164 92.6524 184.067 92.5171 183.946 92.4042C183.824 92.2913 183.681 92.2031 183.523 92.145C183.366 92.0868 183.198 92.0599 183.029 92.0657L182.507 92.0827L182.065 92.0972L181.538 92.1165H181.518L180.926 92.1407L180.188 92.177H180.09L179.433 92.2133L178.309 92.2883L177.736 92.3294L176.971 92.3899L176.185 92.46L175.603 92.5132L175.089 92.5665C174.913 92.581 174.75 92.5979 174.587 92.6173C174.351 92.6391 174.125 92.6656 173.897 92.6898H173.844C173.023 92.7793 172.185 92.8834 171.352 92.9946C170.905 93.0551 170.459 93.1156 170.014 93.1809H169.979C169.728 93.2196 169.477 93.2559 169.226 93.297C168.724 93.372 168.222 93.4543 167.721 93.5389L167.47 93.5801C167.299 93.6091 167.128 93.6357 166.968 93.6672L166.17 93.8051L165.464 93.9357L164.754 94.0687H164.714L163.976 94.2139L163.223 94.3615L162.486 94.5163C162.235 94.5671 161.996 94.6179 161.75 94.6735L161.206 94.7921L161.017 94.8332L160.292 94.9977C159.883 95.0896 159.482 95.184 159.08 95.2807L158.844 95.3388L158.784 95.3533C157.85 95.5758 156.912 95.8129 155.988 96.0597C155.521 96.1806 155.057 96.3016 154.598 96.4322L153.86 96.6378L152.545 97.0152C152.259 97.0999 151.973 97.1821 151.689 97.2571C151.273 97.3805 150.861 97.4991 150.447 97.6345L149.774 97.845H149.747C149.533 97.9127 149.318 97.978 149.104 98.0482L148.304 98.307L147.674 98.5127L147.112 98.7014C144.557 99.5601 141.98 100.504 139.45 101.51L138.326 101.96C137.61 102.25 136.968 102.516 136.366 102.773L135.758 103.029C135.357 103.201 134.958 103.373 134.566 103.544L133.976 103.803C133.387 104.062 132.809 104.321 132.24 104.58L131.67 104.841C129.848 105.678 128.021 106.559 126.249 107.454L125.818 107.674L125.514 107.829C124.668 108.308 123.815 108.746 122.969 109.195H122.982Z" fill="#1D2949"/>
<path d="M254.494 114.824C254.001 114.823 253.529 114.636 253.179 114.303C252.977 114.111 252.817 113.882 252.709 113.629C252.6 113.377 252.545 113.107 252.546 112.834V99.4463C252.546 98.6857 252.664 97.7177 253.318 97.3275C253.899 96.9793 254.877 97.2337 255.492 97.5226C256.174 97.8436 256.65 98.0758 256.907 98.2067L257.01 98.261L257.288 98.4067C260.764 100.229 265.711 103.099 271.996 106.932L272.794 107.425L274.636 108.559L276.841 109.925L277.942 110.611L278.099 110.71L278.145 110.74C278.506 110.971 278.78 111.308 278.926 111.7C279.072 112.092 279.083 112.519 278.956 112.918C278.859 113.293 278.637 113.628 278.324 113.872C278.01 114.115 277.622 114.254 277.219 114.266H276.98L254.553 114.824H254.494ZM254.614 98.4363C254.462 98.4383 254.313 98.481 254.185 98.5598C254.032 98.6558 253.908 98.7877 253.824 98.9429C253.74 99.0981 253.698 99.2714 253.704 99.4463V112.834C253.702 112.959 253.726 113.082 253.775 113.198C253.823 113.314 253.895 113.419 253.987 113.508C254.054 113.573 254.134 113.625 254.222 113.66C254.311 113.696 254.406 113.714 254.501 113.713L277.168 113.15C277.323 113.139 277.471 113.08 277.589 112.982C277.707 112.884 277.79 112.753 277.824 112.607C277.882 112.436 277.881 112.253 277.822 112.083C277.762 111.913 277.648 111.766 277.495 111.663L277.448 111.634L277.296 111.54L276.19 110.851L273.99 109.488C273.399 109.122 272.784 108.747 272.151 108.356L271.356 107.863C265.091 104.04 260.164 101.195 256.711 99.3747L256.431 99.2266L256.346 99.1821C256.089 99.0537 255.62 98.824 254.959 98.5129C254.852 98.4621 254.734 98.4359 254.614 98.4363Z" fill="#1D2949"/>
<path d="M122.495 109.777L125.103 117.062L110.83 117.348C110.649 117.352 110.471 117.307 110.323 117.22C110.174 117.133 110.063 117.007 110.005 116.862C109.947 116.718 109.946 116.561 110.002 116.416C110.058 116.27 110.168 116.144 110.316 116.056C113.537 114.1 119.521 110.619 122.495 109.777Z" fill="#2C3A64"/>
<path d="M195.479 117.348C194.551 117.347 193.661 116.966 193.004 116.288C192.348 115.61 191.979 114.691 191.979 113.733V94.2586C191.979 93.8064 192.067 93.3586 192.236 92.9415C192.405 92.5244 192.653 92.1462 192.965 91.829C193.277 91.5118 193.648 91.2619 194.054 91.0939C194.461 90.9259 194.896 90.8431 195.334 90.8504C231.367 91.3748 242.526 92.2111 249.603 94.9534L250.023 95.1159V116.016L195.565 117.348H195.479ZM195.286 92.1796C195.021 92.1789 194.759 92.2322 194.514 92.3364C194.269 92.4406 194.047 92.5937 193.86 92.7868C193.672 92.98 193.524 93.2094 193.422 93.462C193.321 93.7146 193.269 93.9853 193.27 94.2586V113.733C193.27 114.037 193.33 114.338 193.444 114.618C193.559 114.899 193.727 115.153 193.938 115.365C194.149 115.578 194.399 115.745 194.673 115.857C194.947 115.969 195.24 116.023 195.535 116.016L248.732 114.705V96.0335C241.845 93.5088 230.037 92.6699 195.314 92.1718L195.286 92.1796Z" fill="#1D2949"/>
<path d="M340.871 133.751H324.52C323.32 133.751 322.135 133.508 321.056 133.04C319.976 132.572 319.029 131.891 318.287 131.049L312.091 124.027C311.96 123.878 311.879 123.699 311.856 123.511C311.833 123.322 311.871 123.132 311.963 122.962C312.056 122.792 312.201 122.648 312.381 122.548C312.56 122.448 312.768 122.395 312.98 122.395H338.894L338.285 124.142L335.476 123.269L336.661 127.044L336.292 128.628L340.063 129.164L340.871 133.751Z" fill="#A9453D"/>
<path d="M189.22 91.1301L188.252 172.71L188.889 172.717L189.857 91.1377L189.22 91.1301Z" fill="#1D2949"/>
<path d="M243.252 171.568L85.8398 174.716L85.8526 175.353L243.265 172.205L243.252 171.568Z" fill="#1D2949"/>
<path d="M179.36 132.488C179.36 133.186 175.688 133.751 171.159 133.751C166.63 133.751 162.957 133.186 162.957 132.488C162.957 131.791 166.63 131.228 171.159 131.228C175.688 131.228 179.36 131.791 179.36 132.488Z" fill="#ED823A"/>
<path d="M260.116 132.488C260.116 133.186 256.161 133.751 251.284 133.751C246.406 133.751 242.451 133.186 242.451 132.488C242.451 131.791 246.404 131.228 251.284 131.228C256.164 131.228 260.116 131.791 260.116 132.488Z" fill="#ED823A"/>
<path d="M236.77 171.605L236.142 171.57C236.576 163.49 238.957 156.68 243.218 151.331C246.627 147.05 251.237 143.695 256.919 141.356C265.564 137.798 274.124 137.705 275.888 137.733V113.562H276.519V138.387L276.191 138.372C276.097 138.372 266.667 138.025 257.141 141.95C251.562 144.249 247.042 147.543 243.703 151.738C239.521 156.978 237.198 163.664 236.77 171.605Z" fill="#1D2949"/>
<path d="M104.95 174.129C104.693 153.421 105.901 139.093 106.954 130.721C108.098 121.635 109.321 117.392 109.334 117.348L109.962 117.516C109.913 117.683 105.12 134.588 105.604 174.122L104.95 174.129Z" fill="#1D2949"/>
<path d="M195.766 90.85H183.147V92.1118H195.766V90.85Z" fill="#1D2949"/>
<path d="M329.592 169.082C329.592 169.082 327.178 168.029 325.719 167.755C324.261 167.482 315.786 168.58 315.786 168.58C315.786 168.58 319.431 166.105 321.344 165.28C323.256 164.455 332.19 162.773 332.19 162.773C331.701 163.811 328.759 165.566 329.592 169.082Z" fill="#E58339"/>
<path d="M333.711 151.416L325.639 148.391L320.833 142.584L331.61 146.152L335.975 146.275L333.711 151.416Z" fill="#E58339"/>
<path d="M326.162 156.815C326.162 156.815 318.913 156.024 317.256 156.815C315.599 157.607 311.507 161.709 312.049 162.635C312.592 163.562 319.86 159.5 322.6 159.548C325.34 159.596 333.451 158.27 333.451 158.27L326.162 156.815Z" fill="#E58339"/>
<path d="M313 195.981C313 195.981 324.407 192.555 327.206 191.846C330.006 191.137 336.332 191 336.332 191C336.332 191 334.959 194.057 335.58 194.289C336.2 194.521 339 196 339 196L313 195.981Z" fill="#F99746"/>
<path d="M339.017 131.431C339.017 131.431 342.734 139.02 343.209 141.027C343.684 143.034 344.708 151.435 344.708 151.435L343.578 150.796L339.017 131.431Z" fill="#F99746"/>
<path d="M340.872 133.751H331.947L331.578 132.587L334.9 130.738L329.585 129.42L328.254 127.244L332.906 125.199L331.209 122.395H338.905L338.297 124.142L335.49 123.269L336.672 127.044L336.303 128.628L340.077 129.164L340.872 133.751Z" fill="#7A231F"/>
<path d="M136.742 111.039H122.297C120.362 111.039 118.794 112.622 118.794 114.574V118.86C118.794 120.812 120.362 122.395 122.297 122.395H136.742C138.676 122.395 140.245 120.812 140.245 118.86V114.574C140.245 112.622 138.676 111.039 136.742 111.039Z" fill="#ED823A"/>
<path d="M353.655 62.282C353.655 62.282 353.471 58.8877 353.493 57.4197C353.515 55.9517 356.706 51.734 357.791 51.734C358.876 51.734 358.512 55.6193 358.333 56.828C358.154 58.0366 358.694 59.1319 358.092 60.1014C357.49 61.0708 356.305 63.0903 356.305 63.0903L353.655 62.282Z" fill="#D9935C"/>
<path d="M376.202 67.9642L370.457 73.1847C369.195 72.1709 368.091 70.9934 367.176 69.6871C367.042 69.5012 366.913 69.3153 366.791 69.1293C366.139 68.1331 365.558 67.0967 365.052 66.0272C364.985 65.8907 364.923 65.7612 364.866 65.6365C364.548 64.9798 368.058 62.878 370.037 61.5434C370.486 61.2604 370.903 60.933 371.279 60.5667C371.206 61.0577 371.206 61.556 371.279 62.0471C371.53 63.2112 372.134 64.2805 373.018 65.1234C375.017 67.2087 376.202 67.9642 376.202 67.9642Z" fill="#FFB27D"/>
<path d="M371.155 63.0902C371.155 63.0902 370.1 68.8703 366.815 70.661C366.691 70.4737 366.571 70.2863 366.458 70.0989C365.854 69.095 365.315 68.0506 364.846 66.9729C365.244 66.1166 367.983 64.3164 369.611 63.1282C370.53 63.1092 371.155 63.0902 371.155 63.0902Z" fill="#ED975D"/>
<path d="M364.024 68.1086C364.024 68.1086 372.789 65.4363 370.883 60.48C368.977 55.5238 368.823 51.8366 363.149 53.3323C357.474 54.8279 357.118 57.068 357.313 58.8641C357.507 60.6603 361.696 68.6772 364.024 68.1086Z" fill="#FFB27D"/>
<path d="M371.463 63.09C371.463 63.09 370.599 62.4594 372.495 59.1606C373.473 57.4599 374.344 55.8591 372.96 53.0939C371.575 50.3287 371.663 48.0999 367.848 48.0999C364.032 48.0999 363.648 46.1513 361.704 46.8305C359.759 47.5096 358.035 50.6575 356.369 51.2477C354.704 51.838 353.434 61.446 357.252 61.1819C357.252 61.1819 358.683 60.3949 359.324 59.1255C359.965 57.8561 363.21 54.967 364.243 55.9076C365.275 56.8482 369.413 63.1331 371.463 63.09Z" fill="#233862"/>
<path d="M376.814 82.6788C376.814 82.6788 359.693 90.3497 349.287 92.1118C349.287 92.1118 346.028 91.8909 345.918 87.8747C345.848 85.327 363.002 72.8141 369.271 73.1931C375.54 73.5721 378.98 79.988 376.814 82.6788Z" fill="#ED823A"/>
<path d="M357.274 64.2042L355.847 82.465L345.918 87.0645C346.179 82.167 347.179 77.3291 348.888 72.6954C351.936 64.5261 353.555 63.1933 353.555 63.1933C353.555 63.1933 356.296 62.6134 357.274 64.2042Z" fill="#ED823A"/>
<path d="M373.619 193.718C373.538 194.583 373.359 195.316 372.946 195.493C372.837 195.536 372.723 195.565 372.606 195.58H359.103L358.537 195.562C358.537 195.562 358.571 193.931 360.874 193.616C362.728 193.363 365.727 192.497 367.202 190.62C367.561 190.17 367.818 189.652 367.958 189.098C368.701 186.153 373.564 190.113 373.564 190.113C373.564 190.113 373.619 190.62 373.652 191.338C373.696 192.131 373.685 192.926 373.619 193.718Z" fill="#233862"/>
<path d="M385.637 195.58H369.893C370.121 195.114 370.461 194.703 370.886 194.378C371.311 194.054 371.81 193.824 372.345 193.708C372.511 193.666 372.679 193.635 372.849 193.614C374.547 193.39 377.157 192.704 378.822 191.287C379.534 190.712 380.043 189.949 380.282 189.1C381.062 186.15 386.165 190.116 386.165 190.116C386.165 190.116 386.217 190.586 386.255 191.256C386.337 192.714 386.367 195.084 385.637 195.58Z" fill="#233862"/>
<path d="M378.726 117.348C378.726 117.348 378.713 117.871 378.693 118.812C378.563 124.874 378.042 148.319 377.549 161.388C377.529 161.865 377.511 162.323 377.494 162.772L377.464 163.48C377.153 169.335 376.476 175.165 375.438 180.936C374.329 187.245 373.202 191.544 373.202 191.544C368.975 192.397 366.235 190.796 366.235 190.796C366.235 190.796 365.096 181.001 364.662 175.086C364.52 173.163 363.823 166.607 362.95 158.628C362.273 152.456 361.49 145.431 360.771 139.043C360.733 138.703 360.698 138.362 360.658 138.028C359.499 127.699 358.537 119.288 358.537 119.288L366.012 118.577L378.726 117.348Z" fill="#2B478B"/>
<path d="M375.465 180.438L362.957 158.304C362.279 152.187 361.494 145.225 360.774 138.893C360.737 138.557 360.702 138.218 360.662 137.887C359.5 127.65 358.537 119.314 358.537 119.314L366.024 118.61L378.726 118.857L375.465 180.438Z" fill="#233862"/>
<path d="M359.798 119.41C359.798 119.41 367.201 153.673 373.234 170.212C379.268 186.75 379.337 191.343 379.337 191.343C379.337 191.343 384.871 192.469 387.297 191.164C387.297 191.164 388.69 159.812 385.039 151.487C382.624 145.98 380.777 134.259 381.406 130.038C382.035 125.817 382.619 117.348 382.619 117.348L359.798 119.41Z" fill="#2B478B"/>
<path d="M382.3 117.254C381.911 119.378 380.976 121.069 379.534 122.101C377.891 123.274 375.294 123.699 372.443 123.654C369.061 123.549 365.707 122.998 362.467 122.015C361.108 121.627 359.787 121.114 358.521 120.483C354.111 118.165 354.737 115.078 354.842 103.525C354.949 91.7361 362.142 76.497 363.439 73.9455C365.744 69.4034 375.526 70.8956 375.526 70.8956C377.671 72.881 379.549 75.7623 380.829 80.3672C381.345 82.2318 381.649 84.8413 381.827 87.7703C382.355 96.7185 381.672 108.656 382.191 111.442C382.578 113.356 382.615 115.326 382.3 117.254Z" fill="#F99746"/>
<path d="M374.86 64.3521C374.86 64.3521 376.486 68.6208 376.159 69.3796C376.159 69.3796 367.221 70.3154 363.584 73.1847C363.584 73.1847 364.781 69.0396 366.234 68.011C367.688 66.9825 374.86 64.3521 374.86 64.3521Z" fill="#ED823A"/>
<path d="M382.319 117.348C365.573 110.363 375.137 84.5409 375.137 84.5409C377.479 84.7219 379.775 85.969 381.881 87.8874C382.367 96.8284 381.739 108.756 382.216 111.54C382.573 113.453 382.608 115.421 382.319 117.348Z" fill="#ED823A"/>
<path d="M374.196 71.9504C374.196 71.9504 390.552 82.2185 397.653 90.1002C397.653 90.1002 397.222 93.2412 394.929 94.4931C392.636 95.7451 372.682 88.4661 369.691 83.0074C366.7 77.5487 370.632 71.4628 374.196 71.9504Z" fill="#F99746"/>
<path d="M377.335 105.992C377.335 105.992 376.227 107.553 375.16 107.185C374.094 106.818 371.944 106.429 370.343 107.266C368.742 108.104 366.335 110.364 367.85 110.915C369.365 111.467 372.218 110.003 372.897 109.758C373.576 109.512 374.756 110.003 376.061 109.472C377.027 109.034 377.923 108.499 378.725 107.879L377.335 105.992Z" fill="#FFB27D"/>
<path d="M375.036 107.374L388.329 88.3263L397.654 90.2262C397.654 90.2262 396.411 96.6588 389.655 102.483C382.693 108.487 378.852 109.679 378.852 109.679C378.852 109.679 374.228 110.504 375.036 107.374Z" fill="#F99746"/>
<path d="M466.654 83.1706C467.266 84.8209 468.332 86.7396 469.448 87.2161C470.151 87.4862 470.77 87.9359 471.244 88.5203L472.267 87.9259L473.489 87.2161C473.489 87.2161 473.461 87.0807 473.401 86.8574C473.341 86.6342 473.251 86.3333 473.125 85.9922C473.015 85.8362 472.945 85.6559 472.92 85.4668C472.895 85.2776 472.916 85.0852 472.982 84.9061C473.102 84.5604 473.146 84.1928 473.11 83.8287C473.074 83.4645 472.959 83.1125 472.774 82.7969C472.38 82.2275 472.004 80.823 471.771 80.8656C471.202 80.9634 472.052 82.8922 471.808 83.2508C471.758 83.3462 471.673 83.4187 471.571 83.4537C471.469 83.4886 471.358 83.4833 471.259 83.4389C469.657 82.7341 467.713 78.9369 466.853 79.4486C466.516 79.6342 466.391 82.4658 466.654 83.1706Z" fill="#FFB27D"/>
<path d="M471.806 85.6491L468.708 87.908C468.603 87.9848 468.472 88.0153 468.345 87.9927C468.218 87.9701 468.105 87.8963 468.03 87.7875L460.089 76.0586C460.015 75.9492 459.985 75.8138 460.007 75.682C460.029 75.5503 460.1 75.4328 460.205 75.3552L463.302 73.0922C463.355 73.0538 463.414 73.0266 463.476 73.0121C463.539 72.9976 463.603 72.9961 463.666 73.0077C463.729 73.0193 463.79 73.0437 463.843 73.0796C463.897 73.1155 463.944 73.1622 463.98 73.2168L471.914 84.9577C471.985 85.0653 472.014 85.1972 471.994 85.326C471.973 85.4548 471.906 85.5705 471.806 85.6491Z" fill="#E95E2A"/>
<path d="M468.856 87.6111L467.146 88.9366C467.07 88.9907 466.977 89.0112 466.888 88.9941C466.798 88.977 466.717 88.9235 466.661 88.8442L459.056 76.9231C459.008 76.8381 458.99 76.7361 459.006 76.6372C459.022 76.5383 459.071 76.4497 459.144 76.3889L460.854 75.0634C460.93 75.0093 461.023 74.9888 461.112 75.0059C461.202 75.023 461.283 75.0764 461.339 75.1558L468.944 87.0769C468.992 87.1619 469.01 87.2639 468.994 87.3628C468.978 87.4617 468.929 87.5503 468.856 87.6111Z" fill="#BF4019"/>
<path d="M501.006 74.9666C501.006 74.9666 490.788 92.789 487.081 96.067L473.49 85.9344C472.869 86.1555 472.299 86.4981 471.812 86.942C471.325 87.386 470.931 87.9225 470.653 88.5202C470.653 88.5202 478.907 105.324 487.034 106.047C495.16 106.769 506.567 85.8918 506.567 85.8918L501.006 74.9666Z" fill="#233862"/>
<path d="M524.126 196.177H530.03C530.783 195.773 531.435 194.85 531.646 193.473C531.934 191.57 534.066 190.534 534.525 188.979C534.984 187.424 532.624 185.234 532.624 185.234L532.23 184.733L531.819 184.204L527.899 185.127C527.899 185.127 527.803 186.06 527.743 187.248C527.7 188.106 527.678 189.097 527.725 189.967C527.841 192.039 527.146 194.274 525.303 194.677C523.933 194.968 524.001 195.776 524.126 196.177Z" fill="#233862"/>
<path d="M489.866 196.177H503.367C504.017 195.385 503.779 192.463 503.681 191.507C503.661 191.314 503.646 191.204 503.646 191.204C503.646 191.204 499.036 187.514 498.401 190.338C498.384 190.426 498.359 190.514 498.333 190.589C497.536 193.23 493.957 194.432 491.89 194.765C490.546 194.993 490.049 195.691 489.866 196.177Z" fill="#233862"/>
<path d="M492.438 120.817C492.438 120.817 493.138 129.553 493.961 140.051C495.08 154.312 496.424 171.831 496.557 175.149C496.788 180.918 497.71 190.13 497.71 190.13C497.71 190.13 499.9 192.32 504.279 191.384C504.279 191.384 508.182 178.227 509.295 164.297C509.313 164.069 509.328 163.841 509.345 163.61C510.384 149.437 511.996 119.59 511.996 119.59L492.438 120.817Z" fill="#FFA25C"/>
<path d="M492.438 120.817C492.438 120.817 493.138 129.552 493.961 140.051L509.298 164.314C509.315 164.086 509.33 163.858 509.348 163.627C510.386 149.454 511.999 119.608 511.999 119.608L492.438 120.817Z" fill="#EF8C48"/>
<path d="M495.636 121.855C495.636 121.855 508.254 153.487 516.551 168.353C524.847 183.218 527.446 187.369 527.446 187.369C527.446 187.369 532.199 185.465 532.63 184.171C532.63 184.171 529.457 155.471 523.902 148.476C520.762 144.523 517.075 132.66 516.902 128.512C516.729 124.363 515.778 116.152 515.778 116.152L495.636 121.855Z" fill="#FFA25C"/>
<path d="M498.777 75.7416C503.708 77.2966 512.241 73.0981 512.241 73.0981C512.241 73.0981 507.694 69.6871 507.932 62.5917L504.12 65.6641L501.531 67.7508C501.567 68.8849 501.665 70.016 501.825 71.1393C501.897 71.7061 501.99 72.3381 502.108 73.0279C500.841 73.7208 499.712 74.6406 498.777 75.7416Z" fill="#FFB27D"/>
<path d="M501.53 67.7509C501.566 68.8849 501.664 70.0161 501.824 71.1393C504.693 70.6377 507.948 66.0078 507.948 66.0078C506.71 65.6245 505.405 65.5074 504.119 65.6642L501.53 67.7509Z" fill="#ED975D"/>
<path d="M500.021 67.6355C500.021 67.6355 508.167 68.9874 508.929 63.9035C509.692 58.8196 511.262 55.5691 506.093 54.4881C500.924 53.4072 499.622 55.1979 498.952 56.8332C498.283 58.4685 497.922 67.1514 500.021 67.6355Z" fill="#FFB27D"/>
<path d="M491.893 121.544C492.037 121.67 492.221 121.74 492.413 121.742C494.264 121.717 499.663 122.746 504.233 122.277C508.083 121.908 511.492 120.772 515.153 119.124C515.64 118.906 516.759 118.309 516.734 117.767C516.718 117.17 516.658 116.307 516.583 115.221C516.332 111.442 515.873 104.938 516.315 97.444C516.392 96.0495 516.435 94.6625 516.44 93.3007C516.478 83.1379 514.461 74.1991 510.421 71.1744C510.075 70.9236 507.95 71.9644 505.999 72.93C504.354 73.7415 502.483 73.9689 500.692 73.5746L498.989 75.0795C496.915 77.0057 494.642 79.6216 493.654 83.6069C492.814 86.9903 492.322 93.09 492.049 99.4079C491.926 102.272 491.828 105.161 491.798 107.903V108.001C491.773 108.271 491.773 108.57 491.773 108.841C491.67 115.866 491.771 121.446 491.893 121.544Z" fill="#2B478B"/>
<path d="M516.585 115.221C516.334 111.442 515.875 104.938 516.316 97.4441C516.394 96.0496 516.437 94.6626 516.442 93.3007C514.754 89.2075 513.374 86.2405 513.374 86.2405H509.123C509.123 86.2405 506.005 107.532 516.585 115.221Z" fill="#233862"/>
<path d="M524.574 115.954C524.574 115.954 525.527 117.223 525.565 117.729C525.816 121.163 524.251 121.639 528.324 123.548C528.324 123.548 530.059 124.208 530.079 122.861C530.1 121.514 528.876 121.494 529.101 119.6C529.352 117.426 529.335 117.403 527.907 116.267L526.962 114.707L524.574 115.954Z" fill="#FFB27D"/>
<path d="M526.998 116.924C525.944 117.106 524.872 117.165 523.805 117.102C523.805 117.102 519.26 103.057 518.676 101.778C518.091 100.499 505.175 85.315 505.175 85.315L510.555 71.8491C510.555 71.8491 524.525 95.1743 525.944 98.4649C528.287 103.882 529.102 116.021 529.102 116.021C528.467 116.458 527.752 116.765 526.998 116.924Z" fill="#2B478B"/>
<path d="M508.937 63.4144C508.937 63.4144 508.101 63.274 508.237 62.1227C508.372 60.9715 508.37 59.4667 507.434 59.7476C506.499 60.0285 506.451 60.7759 506.065 60.3395C505.679 59.9031 505.674 58.0571 502.89 57.9292C500.106 57.8013 498.972 58.7694 497.678 58.2001C496.384 57.6308 496.313 55.6719 496.313 55.6719C496.313 55.6719 496.682 56.3717 497.239 56.5949C497.239 56.5949 495.077 53.6379 497.58 51.6114C500.083 49.5848 502.631 50.9116 504.078 50.9994C507.269 51.1925 509.33 51.3856 510.371 53.4799C511.412 55.5741 510.983 61.3954 508.937 63.4144Z" fill="#2B478B"/>
<path d="M526.077 117.464C526.077 117.464 525.159 118.419 525.102 118.818C524.916 120.095 524.49 120.646 524.703 120.784C525.147 121.073 525.736 120.127 526.017 119.279C526.181 118.687 526.202 118.065 526.077 117.464Z" fill="#FFB27D"/>
</svg>
