<svg width="139" height="38" viewBox="0 0 139 38" fill="none" xmlns="http://www.w3.org/2000/svg">
<path d="M45.7754 6.46875V15H43.7246L40.707 9.69141V15H38.6504V6.46875H40.707L43.7246 11.7773V6.46875H45.7754ZM54.5349 10.5645V10.9102C54.5349 11.5625 54.4431 12.1484 54.2595 12.668C54.0798 13.1836 53.824 13.625 53.492 13.9922C53.1599 14.3555 52.7673 14.6348 52.3142 14.8301C51.8611 15.0215 51.3611 15.1172 50.8142 15.1172C50.2634 15.1172 49.7595 15.0215 49.3025 14.8301C48.8494 14.6348 48.4548 14.3555 48.1189 13.9922C47.7869 13.625 47.5291 13.1836 47.3455 12.668C47.1658 12.1484 47.0759 11.5625 47.0759 10.9102V10.5645C47.0759 9.91211 47.1658 9.32617 47.3455 8.80664C47.5291 8.28711 47.7849 7.8457 48.113 7.48242C48.4451 7.11523 48.8377 6.83594 49.2908 6.64453C49.7478 6.44922 50.2517 6.35156 50.8025 6.35156C51.3494 6.35156 51.8494 6.44922 52.3025 6.64453C52.7595 6.83594 53.1541 7.11523 53.4861 7.48242C53.8181 7.8457 54.0759 8.28711 54.2595 8.80664C54.4431 9.32617 54.5349 9.91211 54.5349 10.5645ZM52.449 10.9102V10.5527C52.449 10.1309 52.4119 9.75977 52.3377 9.43945C52.2673 9.11523 52.1619 8.84375 52.0212 8.625C51.8806 8.40625 51.7068 8.24219 51.4998 8.13281C51.2966 8.01953 51.0642 7.96289 50.8025 7.96289C50.5291 7.96289 50.2908 8.01953 50.0877 8.13281C49.8845 8.24219 49.7146 8.40625 49.5779 8.625C49.4412 8.84375 49.3377 9.11523 49.2673 9.43945C49.2009 9.75977 49.1677 10.1309 49.1677 10.5527V10.9102C49.1677 11.3281 49.2009 11.6992 49.2673 12.0234C49.3377 12.3438 49.4412 12.6152 49.5779 12.8379C49.7185 13.0605 49.8904 13.2285 50.0935 13.3418C50.3005 13.4551 50.5408 13.5117 50.8142 13.5117C51.0759 13.5117 51.3084 13.4551 51.5115 13.3418C51.7146 13.2285 51.8845 13.0605 52.0212 12.8379C52.1619 12.6152 52.2673 12.3438 52.3377 12.0234C52.4119 11.6992 52.449 11.3281 52.449 10.9102ZM61.2552 6.46875V15H59.2044V6.46875H61.2552ZM70.0674 6.46875V15H68.0166L64.9991 9.69141V15H62.9424V6.46875H64.9991L68.0166 11.7773V6.46875H70.0674ZM76.4598 12.1113H78.5105C78.4832 12.7051 78.323 13.2285 78.0301 13.6816C77.7371 14.1348 77.3309 14.4883 76.8113 14.7422C76.2957 14.9922 75.6863 15.1172 74.9832 15.1172C74.4129 15.1172 73.9031 15.0215 73.4539 14.8301C73.0086 14.6387 72.6297 14.3633 72.3172 14.0039C72.0086 13.6445 71.7723 13.209 71.6082 12.6973C71.448 12.1855 71.368 11.6094 71.368 10.9688V10.5059C71.368 9.86523 71.452 9.28906 71.6199 8.77734C71.7918 8.26172 72.034 7.82422 72.3465 7.46484C72.6629 7.10156 73.0418 6.82422 73.4832 6.63281C73.9246 6.44141 74.4148 6.3457 74.9539 6.3457C75.6961 6.3457 76.323 6.47852 76.8348 6.74414C77.3465 7.00977 77.743 7.375 78.0242 7.83984C78.3055 8.30078 78.4715 8.82617 78.5223 9.41602H76.4715C76.4637 9.0957 76.409 8.82812 76.3074 8.61328C76.2059 8.39453 76.0457 8.23047 75.827 8.12109C75.6082 8.01172 75.3172 7.95703 74.9539 7.95703C74.7 7.95703 74.4793 8.00391 74.2918 8.09766C74.1043 8.19141 73.948 8.33984 73.823 8.54297C73.698 8.74609 73.6043 9.00977 73.5418 9.33398C73.4832 9.6543 73.4539 10.041 73.4539 10.4941V10.9688C73.4539 11.4219 73.4813 11.8086 73.5359 12.1289C73.5906 12.4492 73.6785 12.7109 73.7996 12.9141C73.9207 13.1172 74.077 13.2676 74.2684 13.3652C74.4637 13.459 74.702 13.5059 74.9832 13.5059C75.2957 13.5059 75.5594 13.457 75.7742 13.3594C75.9891 13.2578 76.1551 13.1055 76.2723 12.9023C76.3895 12.6953 76.452 12.4316 76.4598 12.1113ZM85.3599 13.418V15H81.0474V13.418H85.3599ZM81.7798 6.46875V15H79.7232V6.46875H81.7798ZM90.9554 6.46875H93.012V12.041C93.012 12.7051 92.8734 13.2676 92.596 13.7285C92.3187 14.1855 91.93 14.5312 91.43 14.7656C90.93 15 90.3421 15.1172 89.6663 15.1172C88.9984 15.1172 88.4105 15 87.9027 14.7656C87.3988 14.5312 87.0042 14.1855 86.7191 13.7285C86.4378 13.2676 86.2972 12.7051 86.2972 12.041V6.46875H88.3597V12.041C88.3597 12.3926 88.4105 12.6797 88.512 12.9023C88.6136 13.1211 88.762 13.2812 88.9573 13.3828C89.1527 13.4844 89.389 13.5352 89.6663 13.5352C89.9476 13.5352 90.1839 13.4844 90.3753 13.3828C90.5667 13.2812 90.7113 13.1211 90.8089 12.9023C90.9066 12.6797 90.9554 12.3926 90.9554 12.041V6.46875ZM96.0938 6.46875L97.6641 10.1719L99.2403 6.46875H101.455L98.713 11.9355V15H96.6212V11.9355L93.8731 6.46875H96.0938ZM108.193 13.418V15H103.646V13.418H108.193ZM104.379 6.46875V15H102.322V6.46875H104.379ZM107.607 9.85547V11.3848H103.646V9.85547H107.607ZM108.211 6.46875V8.05664H103.646V6.46875H108.211ZM43.5371 27.8438C43.5371 27.6445 43.5059 27.4688 43.4434 27.3164C43.3848 27.1602 43.2793 27.0195 43.127 26.8945C42.9785 26.7695 42.7715 26.6504 42.5059 26.5371C42.2441 26.4238 41.9121 26.3086 41.5098 26.1914C41.0879 26.0664 40.707 25.9277 40.3672 25.7754C40.0273 25.6191 39.7363 25.4414 39.4941 25.2422C39.252 25.043 39.0664 24.8145 38.9375 24.5566C38.8086 24.2988 38.7441 24.0039 38.7441 23.6719C38.7441 23.3398 38.8125 23.0332 38.9492 22.752C39.0859 22.4707 39.2812 22.2266 39.5352 22.0195C39.793 21.8086 40.0996 21.6445 40.4551 21.5273C40.8105 21.4102 41.207 21.3516 41.6445 21.3516C42.2852 21.3516 42.8281 21.4746 43.2734 21.7207C43.7227 21.9629 44.0645 22.2812 44.2988 22.6758C44.5332 23.0664 44.6504 23.4844 44.6504 23.9297H43.5254C43.5254 23.6094 43.457 23.3262 43.3203 23.0801C43.1836 22.8301 42.9766 22.6348 42.6992 22.4941C42.4219 22.3496 42.0703 22.2773 41.6445 22.2773C41.2422 22.2773 40.9102 22.3379 40.6484 22.459C40.3867 22.5801 40.1914 22.7441 40.0625 22.9512C39.9375 23.1582 39.875 23.3945 39.875 23.6602C39.875 23.8398 39.9121 24.0039 39.9863 24.1523C40.0645 24.2969 40.1836 24.4316 40.3438 24.5566C40.5078 24.6816 40.7148 24.7969 40.9648 24.9023C41.2188 25.0078 41.5215 25.1094 41.873 25.207C42.3574 25.3438 42.7754 25.4961 43.127 25.6641C43.4785 25.832 43.7676 26.0215 43.9941 26.2324C44.2246 26.4395 44.3945 26.6758 44.5039 26.9414C44.6172 27.2031 44.6738 27.5 44.6738 27.832C44.6738 28.1797 44.6035 28.4941 44.4629 28.7754C44.3223 29.0566 44.1211 29.2969 43.8594 29.4961C43.5977 29.6953 43.2832 29.8496 42.916 29.959C42.5527 30.0645 42.1465 30.1172 41.6973 30.1172C41.3027 30.1172 40.9141 30.0625 40.5312 29.9531C40.1523 29.8438 39.8066 29.6797 39.4941 29.4609C39.1855 29.2422 38.9375 28.9727 38.75 28.6523C38.5664 28.3281 38.4746 27.9531 38.4746 27.5273H39.5996C39.5996 27.8203 39.6562 28.0723 39.7695 28.2832C39.8828 28.4902 40.0371 28.6621 40.2324 28.7988C40.4316 28.9355 40.6562 29.0371 40.9062 29.1035C41.1602 29.166 41.4238 29.1973 41.6973 29.1973C42.0918 29.1973 42.4258 29.1426 42.6992 29.0332C42.9727 28.9238 43.1797 28.7676 43.3203 28.5645C43.4648 28.3613 43.5371 28.1211 43.5371 27.8438ZM48.822 30.1172C48.3806 30.1172 47.9802 30.043 47.6209 29.8945C47.2654 29.7422 46.9587 29.5293 46.7009 29.2559C46.447 28.9824 46.2517 28.6582 46.115 28.2832C45.9783 27.9082 45.9099 27.498 45.9099 27.0527V26.8066C45.9099 26.291 45.9861 25.832 46.1384 25.4297C46.2908 25.0234 46.4978 24.6797 46.7595 24.3984C47.0212 24.1172 47.3181 23.9043 47.6502 23.7598C47.9822 23.6152 48.3259 23.543 48.6814 23.543C49.1345 23.543 49.5252 23.6211 49.8533 23.7773C50.1853 23.9336 50.4568 24.1523 50.6677 24.4336C50.8787 24.7109 51.0349 25.0391 51.1365 25.418C51.238 25.793 51.2888 26.2031 51.2888 26.6484V27.1348H46.5545V26.25H50.2048V26.168C50.1892 25.8867 50.1306 25.6133 50.0291 25.3477C49.9314 25.082 49.7752 24.8633 49.5603 24.6914C49.3455 24.5195 49.0525 24.4336 48.6814 24.4336C48.4353 24.4336 48.2087 24.4863 48.0017 24.5918C47.7947 24.6934 47.617 24.8457 47.4685 25.0488C47.3201 25.252 47.2048 25.5 47.1228 25.793C47.0408 26.0859 46.9998 26.4238 46.9998 26.8066V27.0527C46.9998 27.3535 47.0408 27.6367 47.1228 27.9023C47.2087 28.1641 47.3318 28.3945 47.492 28.5938C47.656 28.793 47.8533 28.9492 48.0837 29.0625C48.3181 29.1758 48.5837 29.2324 48.8806 29.2324C49.2634 29.2324 49.5877 29.1543 49.8533 28.998C50.1189 28.8418 50.3513 28.6328 50.5505 28.3711L51.2068 28.8926C51.0701 29.0996 50.8962 29.2969 50.6853 29.4844C50.4744 29.6719 50.2146 29.8242 49.906 29.9414C49.6013 30.0586 49.24 30.1172 48.822 30.1172ZM53.8784 24.6562V30H52.7945V23.6602H53.8491L53.8784 24.6562ZM55.8589 23.625L55.853 24.6328C55.7632 24.6133 55.6773 24.6016 55.5952 24.5977C55.5171 24.5898 55.4273 24.5859 55.3257 24.5859C55.0757 24.5859 54.855 24.625 54.6636 24.7031C54.4722 24.7812 54.3101 24.8906 54.1773 25.0312C54.0445 25.1719 53.939 25.3398 53.8609 25.5352C53.7866 25.7266 53.7378 25.9375 53.7144 26.168L53.4097 26.3438C53.4097 25.9609 53.4468 25.6016 53.521 25.2656C53.5991 24.9297 53.7183 24.6328 53.8784 24.375C54.0386 24.1133 54.2417 23.9102 54.4878 23.7656C54.7378 23.6172 55.0347 23.543 55.3784 23.543C55.4566 23.543 55.5464 23.5527 55.648 23.5723C55.7495 23.5879 55.8198 23.6055 55.8589 23.625ZM59.1341 29.0215L60.8684 23.6602H61.9759L59.6966 30H58.97L59.1341 29.0215ZM57.6868 23.6602L59.4739 29.0508L59.597 30H58.8704L56.5735 23.6602H57.6868ZM64.4366 23.6602V30H63.3467V23.6602H64.4366ZM63.2647 21.9785C63.2647 21.8027 63.3174 21.6543 63.4229 21.5332C63.5323 21.4121 63.6924 21.3516 63.9034 21.3516C64.1104 21.3516 64.2686 21.4121 64.378 21.5332C64.4912 21.6543 64.5479 21.8027 64.5479 21.9785C64.5479 22.1465 64.4912 22.291 64.378 22.4121C64.2686 22.5293 64.1104 22.5879 63.9034 22.5879C63.6924 22.5879 63.5323 22.5293 63.4229 22.4121C63.3174 22.291 63.2647 22.1465 63.2647 21.9785ZM68.9539 29.2266C69.2117 29.2266 69.45 29.1738 69.6688 29.0684C69.8875 28.9629 70.0672 28.8184 70.2078 28.6348C70.3484 28.4473 70.4285 28.2344 70.448 27.9961H71.4793C71.4598 28.3711 71.3328 28.7207 71.0984 29.0449C70.868 29.3652 70.5652 29.625 70.1902 29.8242C69.8152 30.0195 69.4031 30.1172 68.9539 30.1172C68.4773 30.1172 68.0613 30.0332 67.7059 29.8652C67.3543 29.6973 67.0613 29.4668 66.827 29.1738C66.5965 28.8809 66.4227 28.5449 66.3055 28.166C66.1922 27.7832 66.1355 27.3789 66.1355 26.9531V26.707C66.1355 26.2812 66.1922 25.8789 66.3055 25.5C66.4227 25.1172 66.5965 24.7793 66.827 24.4863C67.0613 24.1934 67.3543 23.9629 67.7059 23.7949C68.0613 23.627 68.4773 23.543 68.9539 23.543C69.45 23.543 69.8836 23.6445 70.2547 23.8477C70.6258 24.0469 70.9168 24.3203 71.1277 24.668C71.3426 25.0117 71.4598 25.4023 71.4793 25.8398H70.448C70.4285 25.5781 70.3543 25.3418 70.2254 25.1309C70.1004 24.9199 69.9285 24.752 69.7098 24.627C69.4949 24.498 69.243 24.4336 68.9539 24.4336C68.6219 24.4336 68.3426 24.5 68.116 24.6328C67.8934 24.7617 67.7156 24.9375 67.5828 25.1602C67.4539 25.3789 67.3602 25.623 67.3016 25.8926C67.2469 26.1582 67.2195 26.4297 67.2195 26.707V26.9531C67.2195 27.2305 67.2469 27.5039 67.3016 27.7734C67.3563 28.043 67.448 28.2871 67.577 28.5059C67.7098 28.7246 67.8875 28.9004 68.1102 29.0332C68.3367 29.1621 68.618 29.2266 68.9539 29.2266ZM74.1158 23.6602V30H73.0259V23.6602H74.1158ZM72.9439 21.9785C72.9439 21.8027 72.9966 21.6543 73.1021 21.5332C73.2115 21.4121 73.3716 21.3516 73.5826 21.3516C73.7896 21.3516 73.9478 21.4121 74.0572 21.5332C74.1705 21.6543 74.2271 21.8027 74.2271 21.9785C74.2271 22.1465 74.1705 22.291 74.0572 22.4121C73.9478 22.5293 73.7896 22.5879 73.5826 22.5879C73.3716 22.5879 73.2115 22.5293 73.1021 22.4121C72.9966 22.291 72.9439 22.1465 72.9439 21.9785ZM75.8089 26.9004V26.7656C75.8089 26.3086 75.8753 25.8848 76.0081 25.4941C76.1409 25.0996 76.3323 24.7578 76.5823 24.4688C76.8323 24.1758 77.1351 23.9492 77.4905 23.7891C77.846 23.625 78.2445 23.543 78.6859 23.543C79.1312 23.543 79.5316 23.625 79.887 23.7891C80.2464 23.9492 80.5511 24.1758 80.8011 24.4688C81.055 24.7578 81.2484 25.0996 81.3812 25.4941C81.514 25.8848 81.5804 26.3086 81.5804 26.7656V26.9004C81.5804 27.3574 81.514 27.7812 81.3812 28.1719C81.2484 28.5625 81.055 28.9043 80.8011 29.1973C80.5511 29.4863 80.2484 29.7129 79.8929 29.877C79.5413 30.0371 79.1429 30.1172 78.6976 30.1172C78.2523 30.1172 77.8519 30.0371 77.4964 29.877C77.1409 29.7129 76.8363 29.4863 76.5823 29.1973C76.3323 28.9043 76.1409 28.5625 76.0081 28.1719C75.8753 27.7812 75.8089 27.3574 75.8089 26.9004ZM76.8929 26.7656V26.9004C76.8929 27.2168 76.93 27.5156 77.0042 27.7969C77.0784 28.0742 77.1898 28.3203 77.3382 28.5352C77.4905 28.75 77.68 28.9199 77.9066 29.0449C78.1331 29.166 78.3968 29.2266 78.6976 29.2266C78.9945 29.2266 79.2542 29.166 79.4769 29.0449C79.7034 28.9199 79.8909 28.75 80.0394 28.5352C80.1878 28.3203 80.2991 28.0742 80.3734 27.7969C80.4515 27.5156 80.4905 27.2168 80.4905 26.9004V26.7656C80.4905 26.4531 80.4515 26.1582 80.3734 25.8809C80.2991 25.5996 80.1859 25.3516 80.0335 25.1367C79.8851 24.918 79.6976 24.7461 79.471 24.6211C79.2484 24.4961 78.9866 24.4336 78.6859 24.4336C78.389 24.4336 78.1273 24.4961 77.9007 24.6211C77.678 24.7461 77.4905 24.918 77.3382 25.1367C77.1898 25.3516 77.0784 25.5996 77.0042 25.8809C76.93 26.1582 76.8929 26.4531 76.8929 26.7656ZM90.3924 28.7695V21H91.4823V30H90.4862L90.3924 28.7695ZM86.1268 26.9004V26.7773C86.1268 26.293 86.1854 25.8535 86.3026 25.459C86.4237 25.0605 86.5936 24.7188 86.8123 24.4336C87.035 24.1484 87.2987 23.9297 87.6034 23.7773C87.912 23.6211 88.2557 23.543 88.6346 23.543C89.033 23.543 89.3807 23.6133 89.6776 23.7539C89.9784 23.8906 90.2323 24.0918 90.4393 24.3574C90.6502 24.6191 90.8162 24.9355 90.9373 25.3066C91.0584 25.6777 91.1424 26.0977 91.1893 26.5664V27.1055C91.1463 27.5703 91.0623 27.9883 90.9373 28.3594C90.8162 28.7305 90.6502 29.0469 90.4393 29.3086C90.2323 29.5703 89.9784 29.7715 89.6776 29.9121C89.3768 30.0488 89.0252 30.1172 88.6229 30.1172C88.2518 30.1172 87.912 30.0371 87.6034 29.877C87.2987 29.7168 87.035 29.4922 86.8123 29.2031C86.5936 28.9141 86.4237 28.5742 86.3026 28.1836C86.1854 27.7891 86.1268 27.3613 86.1268 26.9004ZM87.2166 26.7773V26.9004C87.2166 27.2168 87.2479 27.5137 87.3104 27.791C87.3768 28.0684 87.4784 28.3125 87.6151 28.5234C87.7518 28.7344 87.9256 28.9004 88.1366 29.0215C88.3475 29.1387 88.5995 29.1973 88.8924 29.1973C89.2518 29.1973 89.5467 29.1211 89.7772 28.9688C90.0116 28.8164 90.1991 28.6152 90.3397 28.3652C90.4803 28.1152 90.5897 27.8438 90.6678 27.5508V26.1387C90.6209 25.9238 90.5526 25.7168 90.4627 25.5176C90.3768 25.3145 90.2635 25.1348 90.1229 24.9785C89.9862 24.8184 89.8162 24.6914 89.6131 24.5977C89.4139 24.5039 89.1776 24.457 88.9041 24.457C88.6073 24.457 88.3514 24.5195 88.1366 24.6445C87.9256 24.7656 87.7518 24.9336 87.6151 25.1484C87.4784 25.3594 87.3768 25.6055 87.3104 25.8867C87.2479 26.1641 87.2166 26.4609 87.2166 26.7773ZM96.0406 30.1172C95.5992 30.1172 95.1988 30.043 94.8395 29.8945C94.484 29.7422 94.1773 29.5293 93.9195 29.2559C93.6656 28.9824 93.4703 28.6582 93.3336 28.2832C93.1969 27.9082 93.1285 27.498 93.1285 27.0527V26.8066C93.1285 26.291 93.2047 25.832 93.357 25.4297C93.5094 25.0234 93.7164 24.6797 93.9781 24.3984C94.2398 24.1172 94.5367 23.9043 94.8688 23.7598C95.2008 23.6152 95.5445 23.543 95.9 23.543C96.3531 23.543 96.7438 23.6211 97.0719 23.7773C97.4039 23.9336 97.6754 24.1523 97.8863 24.4336C98.0973 24.7109 98.2535 25.0391 98.3551 25.418C98.4566 25.793 98.5074 26.2031 98.5074 26.6484V27.1348H93.773V26.25H97.4234V26.168C97.4078 25.8867 97.3492 25.6133 97.2477 25.3477C97.15 25.082 96.9938 24.8633 96.7789 24.6914C96.5641 24.5195 96.2711 24.4336 95.9 24.4336C95.6539 24.4336 95.4273 24.4863 95.2203 24.5918C95.0133 24.6934 94.8355 24.8457 94.6871 25.0488C94.5387 25.252 94.4234 25.5 94.3414 25.793C94.2594 26.0859 94.2184 26.4238 94.2184 26.8066V27.0527C94.2184 27.3535 94.2594 27.6367 94.3414 27.9023C94.4273 28.1641 94.5504 28.3945 94.7105 28.5938C94.8746 28.793 95.0719 28.9492 95.3023 29.0625C95.5367 29.1758 95.8023 29.2324 96.0992 29.2324C96.482 29.2324 96.8063 29.1543 97.0719 28.998C97.3375 28.8418 97.5699 28.6328 97.7691 28.3711L98.4254 28.8926C98.2887 29.0996 98.1148 29.2969 97.9039 29.4844C97.693 29.6719 97.4332 29.8242 97.1246 29.9414C96.8199 30.0586 96.4586 30.1172 96.0406 30.1172ZM109.698 25.752V28.875C109.593 29.0312 109.425 29.207 109.194 29.4023C108.964 29.5938 108.646 29.7617 108.239 29.9062C107.837 30.0469 107.317 30.1172 106.681 30.1172C106.161 30.1172 105.683 30.0273 105.245 29.8477C104.812 29.6641 104.435 29.3984 104.114 29.0508C103.798 28.6992 103.552 28.2734 103.376 27.7734C103.204 27.2695 103.118 26.6992 103.118 26.0625V25.4004C103.118 24.7637 103.192 24.1953 103.341 23.6953C103.493 23.1953 103.716 22.7715 104.009 22.4238C104.302 22.0723 104.661 21.8066 105.087 21.627C105.513 21.4434 106.001 21.3516 106.552 21.3516C107.204 21.3516 107.749 21.4648 108.187 21.6914C108.628 21.9141 108.972 22.2227 109.218 22.6172C109.468 23.0117 109.628 23.4609 109.698 23.9648H108.567C108.517 23.6562 108.415 23.375 108.263 23.1211C108.114 22.8672 107.901 22.6641 107.624 22.5117C107.347 22.3555 106.989 22.2773 106.552 22.2773C106.157 22.2773 105.816 22.3496 105.526 22.4941C105.237 22.6387 104.999 22.8457 104.812 23.1152C104.624 23.3848 104.484 23.7109 104.39 24.0938C104.3 24.4766 104.255 24.9082 104.255 25.3887V26.0625C104.255 26.5547 104.312 26.9941 104.425 27.3809C104.542 27.7676 104.708 28.0977 104.923 28.3711C105.138 28.6406 105.394 28.8457 105.691 28.9863C105.991 29.127 106.323 29.1973 106.687 29.1973C107.089 29.1973 107.415 29.1641 107.665 29.0977C107.915 29.0273 108.11 28.9453 108.251 28.8516C108.392 28.7539 108.499 28.6621 108.573 28.5762V26.666H106.599V25.752H109.698ZM112.733 24.6562V30H111.649V23.6602H112.704L112.733 24.6562ZM114.714 23.625L114.708 24.6328C114.618 24.6133 114.532 24.6016 114.45 24.5977C114.372 24.5898 114.282 24.5859 114.181 24.5859C113.931 24.5859 113.71 24.625 113.518 24.7031C113.327 24.7812 113.165 24.8906 113.032 25.0312C112.899 25.1719 112.794 25.3398 112.716 25.5352C112.641 25.7266 112.593 25.9375 112.569 26.168L112.265 26.3438C112.265 25.9609 112.302 25.6016 112.376 25.2656C112.454 24.9297 112.573 24.6328 112.733 24.375C112.893 24.1133 113.097 23.9102 113.343 23.7656C113.593 23.6172 113.89 23.543 114.233 23.543C114.311 23.543 114.401 23.5527 114.503 23.5723C114.604 23.5879 114.675 23.6055 114.714 23.625ZM119.835 28.5352V23.6602H120.924V30H119.887L119.835 28.5352ZM120.04 27.1992L120.491 27.1875C120.491 27.6094 120.446 28 120.356 28.3594C120.27 28.7148 120.13 29.0234 119.934 29.2852C119.739 29.5469 119.483 29.752 119.167 29.9004C118.85 30.0449 118.465 30.1172 118.012 30.1172C117.704 30.1172 117.421 30.0723 117.163 29.9824C116.909 29.8926 116.69 29.7539 116.506 29.5664C116.323 29.3789 116.18 29.1348 116.079 28.834C115.981 28.5332 115.932 28.1719 115.932 27.75V23.6602H117.016V27.7617C117.016 28.0469 117.048 28.2832 117.11 28.4707C117.176 28.6543 117.264 28.8008 117.374 28.9102C117.487 29.0156 117.612 29.0898 117.749 29.1328C117.889 29.1758 118.034 29.1973 118.182 29.1973C118.643 29.1973 119.008 29.1094 119.278 28.9336C119.548 28.7539 119.741 28.5137 119.858 28.2129C119.979 27.9082 120.04 27.5703 120.04 27.1992ZM117.854 22.7227L118.991 21H120.298L118.727 22.7227H117.854ZM126.555 28.916V25.6523C126.555 25.4023 126.504 25.1855 126.403 25.002C126.305 24.8145 126.157 24.6699 125.957 24.5684C125.758 24.4668 125.512 24.416 125.219 24.416C124.946 24.416 124.705 24.4629 124.498 24.5566C124.295 24.6504 124.135 24.7734 124.018 24.9258C123.905 25.0781 123.848 25.2422 123.848 25.418H122.764C122.764 25.1914 122.823 24.9668 122.94 24.7441C123.057 24.5215 123.225 24.3203 123.444 24.1406C123.666 23.957 123.932 23.8125 124.241 23.707C124.553 23.5977 124.901 23.543 125.284 23.543C125.745 23.543 126.151 23.6211 126.502 23.7773C126.858 23.9336 127.135 24.1699 127.334 24.4863C127.537 24.7988 127.639 25.1914 127.639 25.6641V28.6172C127.639 28.8281 127.657 29.0527 127.692 29.291C127.731 29.5293 127.787 29.7344 127.862 29.9062V30H126.731C126.676 29.875 126.633 29.709 126.602 29.502C126.571 29.291 126.555 29.0957 126.555 28.916ZM126.743 26.1562L126.754 26.918H125.659C125.35 26.918 125.075 26.9434 124.832 26.9941C124.59 27.041 124.387 27.1133 124.223 27.2109C124.059 27.3086 123.934 27.4316 123.848 27.5801C123.762 27.7246 123.719 27.8945 123.719 28.0898C123.719 28.2891 123.764 28.4707 123.854 28.6348C123.944 28.7988 124.079 28.9297 124.258 29.0273C124.442 29.1211 124.666 29.168 124.932 29.168C125.264 29.168 125.557 29.0977 125.811 28.957C126.065 28.8164 126.266 28.6445 126.414 28.4414C126.567 28.2383 126.649 28.041 126.661 27.8496L127.123 28.3711C127.096 28.5352 127.022 28.7168 126.901 28.916C126.78 29.1152 126.618 29.3066 126.414 29.4902C126.215 29.6699 125.977 29.8203 125.7 29.9414C125.426 30.0586 125.118 30.1172 124.774 30.1172C124.344 30.1172 123.967 30.0332 123.643 29.8652C123.323 29.6973 123.073 29.4727 122.893 29.1914C122.717 28.9062 122.629 28.5879 122.629 28.2363C122.629 27.8965 122.696 27.5977 122.829 27.3398C122.961 27.0781 123.153 26.8613 123.403 26.6895C123.653 26.5137 123.954 26.3809 124.305 26.291C124.657 26.2012 125.049 26.1562 125.483 26.1562H126.743Z" fill="#545358"/>
<rect x="0.5" y="0.5" width="135" height="37" rx="9.5" stroke="#545358"/>
<g clip-path="url(#clip0_10612_4782)">
<path fill-rule="evenodd" clip-rule="evenodd" d="M22.5099 18.2399L22.4599 18.1399L23.9799 19.5599H30.1199V24.2999H29.5399C29.1299 22.7799 27.7699 21.6599 26.1399 21.5799L31.1399 26.2399C31.6299 26.1899 32.0199 25.7899 32.0199 25.3299V18.6799C32.0199 18.1399 31.5699 17.6999 31.0299 17.6999H22.9599L26.6899 9.18989L28.0599 11.8299C27.3699 12.3199 26.9299 13.0999 26.9299 13.9799C26.9299 15.3999 28.0999 16.5799 29.5299 16.5799C30.5099 16.5799 31.3899 16.0399 31.7799 15.1599C32.0199 14.6699 31.8799 14.0899 31.3899 13.8399C30.8999 13.5999 30.3199 13.7899 30.0699 14.2299C29.9699 14.4299 29.7299 14.5699 29.4799 14.5699C29.0899 14.5699 28.7899 14.2699 28.7899 13.9299C28.7899 13.5899 29.0899 13.2899 29.4799 13.2899C29.9799 13.2899 30.8199 12.6399 30.3099 11.8199L27.4199 6.48989C27.2599 6.09989 26.2799 5.56989 25.7099 6.58989L21.1699 16.9699L22.5099 18.2399V18.2399Z" fill="#545358"/>
<path fill-rule="evenodd" clip-rule="evenodd" d="M17.9502 13.9298H18.8602V14.7898L20.7702 16.5898V13.0498C20.7702 12.5098 20.3302 12.0698 19.7902 12.0698H15.9902L17.9602 13.9298H17.9502Z" fill="#545358"/>
<path fill-rule="evenodd" clip-rule="evenodd" d="M20.69 20.0298L8.47 8.52979L7 10.0898L12.6 15.3598L9.17 20.3798C9.07 20.5298 9.02 20.7198 9.02 20.9198V25.3198C9.02 25.8598 9.46 26.2998 10 26.2998H11.27C11.72 27.8498 13.15 28.9898 14.85 28.9898C16.55 28.9898 18.01 27.8298 18.44 26.2498H22.37C22.8 27.8298 24.24 28.9898 25.96 28.9898C26.32 28.9898 26.66 28.9298 26.98 28.8398L31 32.5898L32.47 31.0098L20.69 20.0298ZM14.85 27.0398C13.82 27.0398 13.04 26.2598 13.04 25.2798C13.04 24.2998 13.87 23.5198 14.85 23.5198C15.83 23.5198 16.66 24.2998 16.66 25.2798C16.66 26.2598 15.82 27.0398 14.85 27.0398ZM18.44 24.2998C18.01 22.7198 16.57 21.5598 14.85 21.5598C13.13 21.5598 11.66 22.7398 11.25 24.3498H10.94V21.2198L14.01 16.6898L19.75 22.0898L22.12 24.2998H18.44V24.2998Z" fill="#545358"/>
</g>
<defs>
<clipPath id="clip0_10612_4782">
<rect width="25.48" height="26.59" fill="white" transform="translate(7 6)"/>
</clipPath>
</defs>
</svg>
