<svg width="103" height="46" viewBox="0 0 103 46" fill="none" xmlns="http://www.w3.org/2000/svg">
<path d="M4.57324 34.3564H2.93945V38H0.888672V28.0469H4.58691C5.7627 28.0469 6.6696 28.3089 7.30762 28.833C7.94564 29.3571 8.26465 30.0977 8.26465 31.0547C8.26465 31.7337 8.11654 32.3011 7.82031 32.7568C7.52865 33.208 7.08431 33.568 6.4873 33.8369L8.64062 37.9043V38H6.43945L4.57324 34.3564ZM2.93945 32.6953H4.59375C5.10872 32.6953 5.50749 32.5654 5.79004 32.3057C6.07259 32.0413 6.21387 31.679 6.21387 31.2188C6.21387 30.7493 6.07943 30.3802 5.81055 30.1113C5.54622 29.8424 5.13835 29.708 4.58691 29.708H2.93945V32.6953ZM15.8184 33.6865H11.8809V36.3525H16.502V38H9.83008V28.0469H16.4883V29.708H11.8809V32.0801H15.8184V33.6865ZM25.5186 34.6846C25.4411 35.7555 25.0446 36.5986 24.3291 37.2139C23.6182 37.8291 22.6794 38.1367 21.5127 38.1367C20.2367 38.1367 19.2318 37.7083 18.498 36.8516C17.7689 35.9902 17.4043 34.8099 17.4043 33.3105V32.7021C17.4043 31.7451 17.5729 30.902 17.9102 30.1729C18.2474 29.4437 18.7282 28.8854 19.3525 28.498C19.9814 28.1061 20.7106 27.9102 21.54 27.9102C22.6885 27.9102 23.6136 28.2178 24.3154 28.833C25.0173 29.4482 25.4229 30.3118 25.5322 31.4238H23.4814C23.4313 30.7812 23.2513 30.3164 22.9414 30.0293C22.6361 29.7376 22.1689 29.5918 21.54 29.5918C20.8564 29.5918 20.3438 29.8379 20.002 30.3301C19.6647 30.8177 19.4915 31.5765 19.4824 32.6064V33.3584C19.4824 34.4339 19.6442 35.2201 19.9678 35.7168C20.2959 36.2135 20.8109 36.4619 21.5127 36.4619C22.1462 36.4619 22.6178 36.3184 22.9277 36.0312C23.2422 35.7396 23.4222 35.2907 23.4678 34.6846H25.5186ZM35.041 33.249C35.041 34.2288 34.8678 35.0879 34.5215 35.8262C34.1751 36.5645 33.6784 37.1341 33.0312 37.5352C32.3887 37.9362 31.6504 38.1367 30.8164 38.1367C29.9915 38.1367 29.2555 37.9385 28.6084 37.542C27.9613 37.1455 27.46 36.5804 27.1045 35.8467C26.749 35.1084 26.569 34.2607 26.5645 33.3037V32.8115C26.5645 31.8317 26.7399 30.9704 27.0908 30.2275C27.4463 29.4801 27.9453 28.9082 28.5879 28.5117C29.235 28.1107 29.9733 27.9102 30.8027 27.9102C31.6322 27.9102 32.3682 28.1107 33.0107 28.5117C33.6579 28.9082 34.1569 29.4801 34.5078 30.2275C34.8633 30.9704 35.041 31.8294 35.041 32.8047V33.249ZM32.9629 32.7979C32.9629 31.7542 32.776 30.9613 32.4023 30.4189C32.0286 29.8766 31.4954 29.6055 30.8027 29.6055C30.1146 29.6055 29.5837 29.8743 29.21 30.4121C28.8363 30.9453 28.6471 31.7292 28.6426 32.7637V33.249C28.6426 34.2653 28.8294 35.0537 29.2031 35.6143C29.5768 36.1748 30.1146 36.4551 30.8164 36.4551C31.5046 36.4551 32.0332 36.1862 32.4023 35.6484C32.7715 35.1061 32.9583 34.3177 32.9629 33.2832V32.7979ZM39.2109 28.0469L41.7676 35.2656L44.3105 28.0469H47.0039V38H44.9463V35.2793L45.1514 30.583L42.4648 38H41.0566L38.377 30.5898L38.582 35.2793V38H36.5312V28.0469H39.2109ZM54.7832 33.6865H50.8457V36.3525H55.4668V38H48.7949V28.0469H55.4531V29.708H50.8457V32.0801H54.7832V33.6865ZM64.7637 38H62.7129L58.7207 31.4512V38H56.6699V28.0469H58.7207L62.7197 34.6094V28.0469H64.7637V38ZM66.5547 38V28.0469H69.6172C70.4922 28.0469 71.2738 28.2451 71.9619 28.6416C72.6546 29.0335 73.1947 29.5941 73.582 30.3232C73.9694 31.0479 74.1631 31.8727 74.1631 32.7979V33.2559C74.1631 34.181 73.9717 35.0036 73.5889 35.7236C73.2106 36.4437 72.6751 37.002 71.9824 37.3984C71.2897 37.7949 70.5081 37.9954 69.6377 38H66.5547ZM68.6055 29.708V36.3525H69.5967C70.3988 36.3525 71.0117 36.0905 71.4355 35.5664C71.8594 35.0423 72.0758 34.2926 72.085 33.3174V32.791C72.085 31.7793 71.8753 31.0137 71.4561 30.4941C71.0368 29.9701 70.4238 29.708 69.6172 29.708H68.6055ZM81.1289 35.9492H77.5332L76.8496 38H74.6689L78.374 28.0469H80.2744L84 38H81.8193L81.1289 35.9492ZM78.0869 34.2881H80.5752L79.3242 30.5625L78.0869 34.2881ZM84.9297 38V28.0469H87.9922C88.8672 28.0469 89.6488 28.2451 90.3369 28.6416C91.0296 29.0335 91.5697 29.5941 91.957 30.3232C92.3444 31.0479 92.5381 31.8727 92.5381 32.7979V33.2559C92.5381 34.181 92.3467 35.0036 91.9639 35.7236C91.5856 36.4437 91.0501 37.002 90.3574 37.3984C89.6647 37.7949 88.8831 37.9954 88.0127 38H84.9297ZM86.9805 29.708V36.3525H87.9717C88.7738 36.3525 89.3867 36.0905 89.8105 35.5664C90.2344 35.0423 90.4508 34.2926 90.46 33.3174V32.791C90.46 31.7793 90.2503 31.0137 89.8311 30.4941C89.4118 29.9701 88.7988 29.708 87.9922 29.708H86.9805ZM99.5039 35.9492H95.9082L95.2246 38H93.0439L96.749 28.0469H98.6494L102.375 38H100.194L99.5039 35.9492ZM96.4619 34.2881H98.9502L97.6992 30.5625L96.4619 34.2881Z" fill="#FF9400"/>
<path d="M51.5 12.8636L47.6787 14.0942V21.5446L51.5 19.9286L55.3213 21.5446V14.0942L51.5 12.8636Z" fill="#E51C00"/>
<path d="M51.5 12.8636V19.9286L55.3213 21.5446V14.0942L51.5 12.8636Z" fill="#820101"/>
<path d="M60 6.1937L54.5716 4.72356L51.5 0L48.4284 4.72356L43 6.1937L46.5301 10.5834L46.2467 16.2156L51.5 14.2049L56.7533 16.2156L56.4699 10.5834L60 6.1937Z" fill="#FFC45A"/>
<path d="M60 6.1937L54.5716 4.72356L51.5 0V14.2049L56.7533 16.2156L56.4699 10.5834L60 6.1937Z" fill="#FF9400"/>
</svg>
