<svg width="93" height="46" viewBox="0 0 93 46" fill="none" xmlns="http://www.w3.org/2000/svg">
<path d="M3.56836 28.0469L6.125 35.2656L8.66797 28.0469H11.3613V38H9.30371V35.2793L9.50879 30.583L6.82227 38H5.41406L2.73438 30.5898L2.93945 35.2793V38H0.888672V28.0469H3.56836ZM18.8945 35.9492H15.2988L14.6152 38H12.4346L16.1396 28.0469H18.04L21.7656 38H19.585L18.8945 35.9492ZM15.8525 34.2881H18.3408L17.0898 30.5625L15.8525 34.2881ZM27.8564 35.3887C27.8564 35.0013 27.7197 34.7051 27.4463 34.5C27.1729 34.2904 26.6807 34.0716 25.9697 33.8438C25.2588 33.6113 24.696 33.3835 24.2812 33.1602C23.151 32.5495 22.5859 31.7269 22.5859 30.6924C22.5859 30.1546 22.7363 29.6761 23.0371 29.2568C23.3424 28.833 23.7777 28.5026 24.3428 28.2656C24.9124 28.0286 25.5505 27.9102 26.2568 27.9102C26.9678 27.9102 27.6012 28.04 28.1572 28.2998C28.7132 28.555 29.1439 28.9173 29.4492 29.3867C29.7591 29.8561 29.9141 30.3893 29.9141 30.9863H27.8633C27.8633 30.5306 27.7197 30.1774 27.4326 29.9268C27.1455 29.6715 26.7422 29.5439 26.2227 29.5439C25.7214 29.5439 25.3317 29.651 25.0537 29.8652C24.7757 30.0749 24.6367 30.3529 24.6367 30.6992C24.6367 31.0228 24.7985 31.2939 25.1221 31.5127C25.4502 31.7314 25.931 31.9365 26.5645 32.1279C27.7311 32.4788 28.5811 32.9141 29.1143 33.4336C29.6475 33.9531 29.9141 34.6003 29.9141 35.375C29.9141 36.2363 29.5882 36.9131 28.9365 37.4053C28.2848 37.8929 27.4076 38.1367 26.3047 38.1367C25.5391 38.1367 24.8418 37.9977 24.2129 37.7197C23.584 37.4372 23.1032 37.0521 22.7705 36.5645C22.4424 36.0768 22.2783 35.5117 22.2783 34.8691H24.3359C24.3359 35.9674 24.9922 36.5166 26.3047 36.5166C26.7923 36.5166 27.1729 36.4186 27.4463 36.2227C27.7197 36.0221 27.8564 35.7441 27.8564 35.3887ZM38.4727 35.5322L40.7285 28.0469H43.0117L39.5459 38H37.4062L33.9541 28.0469H36.2305L38.4727 35.5322ZM49.9434 33.6865H46.0059V36.3525H50.627V38H43.9551V28.0469H50.6133V29.708H46.0059V32.0801H49.9434V33.6865ZM59.9238 38H57.873L53.8809 31.4512V38H51.8301V28.0469H53.8809L57.8799 34.6094V28.0469H59.9238V38ZM61.7148 38V28.0469H64.7773C65.6523 28.0469 66.4339 28.2451 67.1221 28.6416C67.8148 29.0335 68.3548 29.5941 68.7422 30.3232C69.1296 31.0479 69.3232 31.8727 69.3232 32.7979V33.2559C69.3232 34.181 69.1318 35.0036 68.749 35.7236C68.3708 36.4437 67.8353 37.002 67.1426 37.3984C66.4499 37.7949 65.6683 37.9954 64.7979 38H61.7148ZM63.7656 29.708V36.3525H64.7568C65.5589 36.3525 66.1719 36.0905 66.5957 35.5664C67.0195 35.0423 67.236 34.2926 67.2451 33.3174V32.791C67.2451 31.7793 67.0355 31.0137 66.6162 30.4941C66.1969 29.9701 65.584 29.708 64.7773 29.708H63.7656ZM73.001 38H70.9502V28.0469H73.001V38ZM74.9082 38V28.0469H77.9707C78.8457 28.0469 79.6273 28.2451 80.3154 28.6416C81.0081 29.0335 81.5482 29.5941 81.9355 30.3232C82.3229 31.0479 82.5166 31.8727 82.5166 32.7979V33.2559C82.5166 34.181 82.3252 35.0036 81.9424 35.7236C81.5641 36.4437 81.0286 37.002 80.3359 37.3984C79.6432 37.7949 78.8617 37.9954 77.9912 38H74.9082ZM76.959 29.708V36.3525H77.9502C78.7523 36.3525 79.3652 36.0905 79.7891 35.5664C80.2129 35.0423 80.4294 34.2926 80.4385 33.3174V32.791C80.4385 31.7793 80.2288 31.0137 79.8096 30.4941C79.3903 29.9701 78.7773 29.708 77.9707 29.708H76.959ZM89.4824 35.9492H85.8867L85.2031 38H83.0225L86.7275 28.0469H88.6279L92.3535 38H90.1729L89.4824 35.9492ZM86.4404 34.2881H88.9287L87.6777 30.5625L86.4404 34.2881Z" fill="#FF9400"/>
<path d="M46.5 12.8636L42.6787 14.0942V21.5445L46.5 19.9286L50.3213 21.5445V14.0942L46.5 12.8636Z" fill="#E51C00"/>
<path d="M46.5 12.8636V19.9286L50.3213 21.5445V14.0942L46.5 12.8636Z" fill="#820101"/>
<path d="M55 6.1937L49.5716 4.72356L46.5 0L43.4284 4.72356L38 6.1937L41.5301 10.5834L41.2467 16.2156L46.5 14.2049L51.7533 16.2156L51.4699 10.5834L55 6.1937Z" fill="#FFC45A"/>
<path d="M55 6.1937L49.5716 4.72356L46.5 0V14.2049L51.7533 16.2156L51.4699 10.5834L55 6.1937Z" fill="#FF9400"/>
</svg>
