<svg width="37" height="37" viewBox="0 0 37 37" fill="none" xmlns="http://www.w3.org/2000/svg">
<path d="M36.4045 27.9905C36.1519 27.7373 35.8439 27.5595 35.5077 27.4672V20.9953C35.5077 19.0033 34.0099 17.3544 32.0817 17.116L30.9697 8.2304C30.7498 6.46835 29.2445 5.13953 27.4682 5.13953H26.8438V3.78289C26.8438 2.64918 25.9215 1.72693 24.7878 1.72693C23.6542 1.72693 22.7319 2.64926 22.7319 3.78289V5.13953H21.9724C20.6953 5.13953 19.6563 6.17849 19.6563 7.45564V7.78373C19.6563 8.08305 19.8988 8.32572 20.1982 8.32572C20.4976 8.32572 20.7402 8.08305 20.7402 7.78373V7.45564C20.7402 6.77627 21.2929 6.22351 21.9724 6.22351H27.4682C28.6989 6.22351 29.7417 7.14396 29.894 8.36482L29.9301 8.65345H24.8102C23.4264 8.65345 22.3005 9.77898 22.3005 11.1625V15.661C22.3005 17.0449 23.4264 18.1708 24.8102 18.1708H27.49V18.6342C27.49 19.4499 28.1536 20.1134 28.9693 20.1134C29.7849 20.1134 30.4485 19.4498 30.4485 18.6342V18.1708H31.5996V18.1705C33.1568 18.1705 34.4237 19.4377 34.4237 20.9953V27.3941H33.2126C32.3728 25.2307 30.2701 23.6922 27.8135 23.6922C25.3569 23.6922 23.2541 25.2307 22.4143 27.3941H20.7402V21.5554V9.9517C20.7402 9.65237 20.4976 9.40971 20.1982 9.40971C19.8988 9.40971 19.6563 9.65237 19.6563 9.9517V14.754L8.8193 3.91701C8.40594 3.50365 7.8565 3.27601 7.27202 3.27601C6.68761 3.27601 6.13817 3.50365 5.72503 3.91672C5.31116 4.33008 5.08324 4.87981 5.08324 5.46458C5.08324 5.96928 5.25335 6.44768 5.56575 6.83481V11.3763C4.93683 11.5999 4.48517 12.2008 4.48517 12.9055C4.48517 13.6101 4.93683 14.211 5.56575 14.4346V15.4116C5.56575 15.7109 5.80835 15.9536 6.10775 15.9536C6.62221 15.9536 7.04077 16.3721 7.04077 16.8867C7.04077 17.4012 6.62221 17.8198 6.10775 17.8198C5.59322 17.8198 5.17465 17.4012 5.17465 16.8867C5.17465 16.5873 4.93206 16.3447 4.63266 16.3447C4.33326 16.3447 4.09067 16.5873 4.09067 16.8867C4.09067 17.9989 4.99551 18.9037 6.10775 18.9037C7.21999 18.9037 8.12475 17.9989 8.12475 16.8867C8.12475 15.9622 7.49958 15.1809 6.64974 14.9436V14.4347C7.27859 14.2111 7.73025 13.6102 7.73025 12.9056C7.73025 12.2009 7.27859 11.6 6.64974 11.3764V7.93729L19.6563 20.9445V21.0134H9.60266C9.30326 21.0134 9.06067 21.2561 9.06067 21.5554C9.06067 21.8547 9.30326 22.0974 9.60266 22.0974H19.6563V27.3937H14.3619C13.522 25.2305 11.4193 23.6922 8.96289 23.6922C6.50644 23.6922 4.40372 25.2305 3.56385 27.3937H2.57627V22.0974H7.43462C7.73401 22.0974 7.97661 21.8547 7.97661 21.5554C7.97661 21.2561 7.73401 21.0134 7.43462 21.0134H2.03428C1.73488 21.0134 1.49229 21.2561 1.49229 21.5554V27.4679C0.632975 27.7058 0 28.4943 0 29.4284C0 29.9727 0.211883 30.4837 0.595902 30.8667C0.980211 31.251 1.49106 31.4626 2.03428 31.4626H3.52122C4.33182 33.6834 6.46503 35.2731 8.96282 35.2731C11.4606 35.2731 13.5938 33.6834 14.4043 31.4626H22.3719C23.1824 33.6834 25.3156 35.2731 27.8134 35.2731C30.3112 35.2731 32.4444 33.6834 33.255 31.4626H34.9657C36.0874 31.4626 36.9999 30.5501 36.9999 29.4284C37 28.8851 36.7883 28.3743 36.4045 27.9905ZM23.8159 3.78289C23.8159 3.24689 24.2519 2.81091 24.7878 2.81091C25.3238 2.81091 25.7598 3.24696 25.7598 3.78289V5.13931H23.8159V3.78289ZM29.3645 18.6342C29.3645 18.8521 29.1872 19.0294 28.9693 19.0294C28.7513 19.0294 28.574 18.8521 28.574 18.6342V15.7504C28.574 15.5325 28.7513 15.3552 28.9693 15.3552C29.1872 15.3552 29.3645 15.5326 29.3645 15.7504V18.6342ZM28.9693 14.2712C28.1536 14.2712 27.49 14.9348 27.49 15.7504V17.0868H24.8102C24.024 17.0868 23.3844 16.4472 23.3844 15.661V11.1625C23.3844 10.3767 24.0241 9.73743 24.8102 9.73743H30.0658L30.9856 17.0868H30.4485V15.7504C30.4485 14.9348 29.7849 14.2712 28.9693 14.2712ZM6.64627 12.9056C6.64627 13.2025 6.40469 13.4441 6.10775 13.4441C5.81081 13.4441 5.56915 13.2026 5.56915 12.9056C5.56915 12.6085 5.81081 12.367 6.10775 12.367C6.40469 12.367 6.64627 12.6086 6.64627 12.9056ZM6.49097 6.24548C6.2822 6.03692 6.16722 5.75964 6.16722 5.46458C6.16722 5.16952 6.28227 4.89224 6.49119 4.68346C6.69982 4.4749 6.97717 4.36 7.27202 4.36C7.56693 4.36 7.84422 4.4749 8.05278 4.68346L19.6563 16.287V19.4114L6.49097 6.24548ZM2.03428 30.3787C1.78055 30.3787 1.542 30.2798 1.36185 30.0997C1.1827 29.921 1.08391 29.6826 1.08391 29.4284C1.08391 28.9044 1.51021 28.4781 2.03421 28.4781H3.26128C3.2039 28.8046 3.17224 29.1399 3.17224 29.4826C3.17224 29.7873 3.19624 30.0865 3.24184 30.3786H2.03428V30.3787ZM8.96282 34.1892C6.36761 34.1892 4.2563 32.0778 4.2563 29.4827C4.2563 26.8876 6.36761 24.7763 8.96282 24.7763C11.5579 24.7763 13.6693 26.8876 13.6693 29.4827C13.6693 32.0778 11.558 34.1892 8.96282 34.1892ZM14.6837 30.3787C14.7293 30.0866 14.7532 29.7874 14.7532 29.4827C14.7532 29.14 14.7216 28.8046 14.6642 28.4781H22.1121C22.0547 28.8047 22.023 29.14 22.023 29.4827C22.023 29.7874 22.047 30.0866 22.0926 30.3787H14.6837ZM27.8135 34.1892C25.2183 34.1892 23.107 32.0778 23.107 29.4827C23.107 26.8876 25.2183 24.7763 27.8135 24.7763C30.4087 24.7763 32.52 26.8876 32.52 29.4827C32.52 32.0778 30.4087 34.1892 27.8135 34.1892ZM34.9657 30.3787H33.5344C33.58 30.0866 33.604 29.7874 33.604 29.4827C33.604 29.14 33.5723 28.8046 33.5149 28.4781H34.958C34.9606 28.4781 34.9631 28.4785 34.9657 28.4785C34.967 28.4785 34.9683 28.4783 34.9696 28.4783C35.2222 28.4793 35.4592 28.5777 35.6375 28.7565C35.8171 28.9361 35.916 29.1747 35.916 29.4284C35.916 29.9524 35.4897 30.3787 34.9657 30.3787Z" fill="#F99746"/>
<path d="M27.8138 26.3651C26.0948 26.3651 24.6963 27.7637 24.6963 29.4827C24.6963 31.2016 26.0948 32.6002 27.8138 32.6002C29.5327 32.6002 30.9313 31.2016 30.9313 29.4827C30.9313 27.7637 29.5327 26.3651 27.8138 26.3651ZM27.8138 31.5162C26.6925 31.5162 25.7803 30.6039 25.7803 29.4827C25.7803 28.3614 26.6925 27.4491 27.8138 27.4491C28.9351 27.4491 29.8473 28.3614 29.8473 29.4827C29.8473 30.6039 28.9351 31.5162 27.8138 31.5162Z" fill="#F99746"/>
<path d="M8.96227 26.3651C7.24328 26.3651 5.84473 27.7637 5.84473 29.4827C5.84473 31.2016 7.24328 32.6002 8.96227 32.6002C10.6812 32.6002 12.0798 31.2016 12.0798 29.4827C12.0798 27.7637 10.6812 26.3651 8.96227 26.3651ZM8.96227 31.5162C7.84092 31.5162 6.92871 30.6039 6.92871 29.4827C6.92871 28.3614 7.84092 27.4491 8.96227 27.4491C10.0836 27.4491 10.9958 28.3614 10.9958 29.4827C10.9958 30.6039 10.0836 31.5162 8.96227 31.5162Z" fill="#F99746"/>
<path d="M33.5008 22.1732V21.0412C33.5008 20.2316 32.8422 19.573 32.0326 19.573C31.2231 19.573 30.5645 20.2316 30.5645 21.0412V22.1732C30.5645 22.9828 31.2231 23.6413 32.0326 23.6413C32.8422 23.6413 33.5008 22.9827 33.5008 22.1732ZM31.6484 22.1732V21.0412C31.6484 20.8293 31.8207 20.657 32.0325 20.657C32.2443 20.657 32.4168 20.8293 32.4168 21.0412V22.1732C32.4168 22.3851 32.2443 22.5574 32.0325 22.5574C31.8207 22.5574 31.6484 22.385 31.6484 22.1732Z" fill="#F99746"/>
<path d="M26.1101 20.4309C26.4095 20.4309 26.6521 20.1882 26.6521 19.8889C26.6521 19.5896 26.4095 19.3469 26.1101 19.3469H24.0254C23.726 19.3469 23.4834 19.5896 23.4834 19.8889C23.4834 20.1882 23.726 20.4309 24.0254 20.4309H26.1101Z" fill="#F99746"/>
</svg>
