<svg width="11" height="11" viewBox="0 0 11 11" fill="none" xmlns="http://www.w3.org/2000/svg">
<path d="M5.5 0C2.46718 0 0 2.46718 0 5.5C0 8.53282 2.46718 11 5.5 11C8.53282 11 11 8.53282 11 5.5C11 2.46718 8.53282 0 5.5 0Z" fill="#14BD49"/>
<path d="M8.28738 4.33447L5.30819 7.31358C5.21881 7.40296 5.10149 7.44794 4.98416 7.44794C4.86684 7.44794 4.74951 7.40296 4.66013 7.31358L3.17058 5.82403C2.99132 5.64485 2.99132 5.35515 3.17058 5.17597C3.34975 4.99671 3.63937 4.99671 3.81863 5.17597L4.98416 6.3415L7.63933 3.68642C7.8185 3.50716 8.10812 3.50716 8.28738 3.68642C8.46656 3.86559 8.46656 4.15521 8.28738 4.33447V4.33447Z" fill="#FAFAFA"/>
</svg>
