<svg width="12" height="11" viewBox="0 0 12 11" fill="none" xmlns="http://www.w3.org/2000/svg">
<g clip-path="url(#clip0)">
<path d="M5.91797 0C2.88515 0 0.417969 2.46718 0.417969 5.5C0.417969 8.53282 2.88515 11 5.91797 11C8.95079 11 11.418 8.53282 11.418 5.5C11.418 2.46718 8.95079 0 5.91797 0Z" fill="#9369BF"/>
<path d="M8.70535 4.33447L5.72616 7.31358C5.63678 7.40296 5.51946 7.44794 5.40213 7.44794C5.28481 7.44794 5.16748 7.40296 5.0781 7.31358L3.58855 5.82403C3.40929 5.64485 3.40929 5.35515 3.58855 5.17597C3.76772 4.99671 4.05734 4.99671 4.2366 5.17597L5.40213 6.3415L8.0573 3.68642C8.23647 3.50716 8.52609 3.50716 8.70535 3.68642C8.88453 3.86559 8.88453 4.15521 8.70535 4.33447Z" fill="#FAFAFA"/>
</g>
<defs>
<clipPath id="clip0">
<rect width="11" height="11" fill="white" transform="translate(0.417969)"/>
</clipPath>
</defs>
</svg>
