<svg width="97" height="96" viewBox="0 0 97 96" fill="none" xmlns="http://www.w3.org/2000/svg">
<g clip-path="url(#clip0)">
<path d="M96.9121 80.9706C96.9121 89.2712 90.1598 96 81.8593 96H15.918C7.61746 96 0.912109 89.2712 0.912109 80.9706V19.5382L20.4268 0H81.8593C90.1598 0 96.9121 6.72883 96.9121 15.0294V80.9706Z" fill="#E5531C"/>
<path d="M40.609 31.8687L40.6074 31.8697L40.6085 31.8692L40.609 31.8687Z" fill="#B0D4FF"/>
<path d="M79.7536 59.8059C79.7536 52.1972 73.5856 46.029 65.9768 46.029C65.4904 46.029 65.0106 46.0564 64.5374 46.1057L64.599 46.0288L40.047 32.285C40.2295 32.1449 40.4149 32.0062 40.6073 31.8706C40.4865 31.938 40.3673 32.0081 40.2484 32.079C40.2033 32.1058 40.1584 32.1332 40.1135 32.1607C40.0681 32.1883 40.0245 32.2193 39.9794 32.2473L39.9768 32.2458L39.9527 32.2646C39.7735 32.3767 39.5945 32.4889 39.4203 32.6082C39.4087 32.6159 39.397 32.6234 39.3856 32.6313C39.2732 32.7085 39.1626 32.7878 39.0525 32.8678C39.007 32.9011 38.9619 32.9345 38.9165 32.9681C38.7167 33.1165 38.5208 33.2697 38.3284 33.4271C38.2978 33.4523 38.2666 33.4767 38.2362 33.5019C38.1368 33.5847 38.0387 33.6692 37.9414 33.7543C37.8907 33.7985 37.8409 33.8436 37.7908 33.8883C37.6758 33.9914 37.5642 34.0981 37.4524 34.2047L37.4385 34.2156L37.4344 34.2216C37.3974 34.2569 37.3592 34.2905 37.3226 34.3262C37.2713 34.3762 37.2194 34.4254 37.1689 34.4759C37.0846 34.5603 37.0017 34.6458 36.9194 34.7318C36.8608 34.7931 36.8031 34.8551 36.7456 34.9172C36.628 35.0442 36.5125 35.1731 36.399 35.3041C36.3293 35.3845 36.2596 35.4647 36.1916 35.5466C36.1236 35.6285 36.0567 35.7112 35.9904 35.7942C35.9237 35.8778 35.8582 35.9623 35.793 36.0473C35.7129 36.1517 35.634 36.2569 35.5564 36.3634C35.4744 36.4765 35.3932 36.5902 35.3141 36.7054C35.2613 36.7822 35.2091 36.8598 35.1578 36.9379C35.0855 37.0469 35.015 37.1568 34.9457 37.2678C34.8959 37.3471 34.8463 37.4262 34.798 37.5064C34.7112 37.6509 34.6267 37.7967 34.5442 37.9442C34.5048 38.0146 34.4661 38.0858 34.4277 38.1572C34.3541 38.294 34.2825 38.4315 34.2126 38.5705C34.1861 38.6233 34.1589 38.6755 34.133 38.7287C34.0488 38.9019 33.9682 39.0772 33.8901 39.2542C33.8617 39.3184 33.8337 39.3832 33.8063 39.4478C33.7366 39.6113 33.6691 39.7759 33.6049 39.9423C33.5925 39.9748 33.5788 40.0067 33.5664 40.0394C33.4929 40.2333 33.4245 40.4294 33.3588 40.6269C33.3391 40.6859 33.3199 40.7454 33.3007 40.8046C33.2406 40.9923 33.1829 41.1809 33.1298 41.3718C33.1247 41.3904 33.1187 41.4088 33.1134 41.4276C33.0563 41.6348 33.005 41.8441 32.9562 42.0547C32.9434 42.1103 32.9308 42.1661 32.9188 42.2221C32.873 42.4297 32.8301 42.6384 32.7929 42.849C32.7914 42.8565 32.7899 42.8638 32.7886 42.8712C32.7505 43.0885 32.7183 43.3079 32.6892 43.5283C32.6819 43.5834 32.6749 43.6384 32.6684 43.6936C32.6411 43.9159 32.6171 44.1391 32.5994 44.3639C32.4914 44.3677 32.3847 44.3767 32.2772 44.3829C32.2558 44.3891 32.3398 44.3942 32.5044 44.3972L24.4424 47.224L23.3759 48.8865C23.6953 48.3076 24.0504 47.7516 24.4424 47.224C23.8903 47.6351 23.3684 48.0845 22.8803 48.5677C22.8732 48.5748 22.866 48.5819 22.8589 48.5889C22.5733 48.8728 22.3 49.1683 22.0389 49.4749C22.0193 49.4976 22.0004 49.5205 21.9812 49.5436C21.8354 49.7167 21.6939 49.8932 21.5562 50.073C21.5284 50.1093 21.5002 50.1457 21.473 50.1822C21.3986 50.281 21.3253 50.3806 21.2536 50.4815C21.2474 50.4901 21.2416 50.4989 21.2354 50.5076C21.0982 50.7013 20.966 50.8989 20.8382 51.0993C20.7959 51.1659 20.7542 51.2327 20.7131 51.3C20.6319 51.4317 20.5528 51.5653 20.476 51.7C20.4253 51.7885 20.3751 51.8767 20.3265 51.9664C20.281 52.0501 20.2361 52.1343 20.1919 52.219C20.1181 52.3613 20.0462 52.5044 19.9768 52.6493C19.9421 52.7223 19.9092 52.796 19.8756 52.8694C19.8235 52.9838 19.7724 53.0988 19.7232 53.2147C19.6954 53.2799 19.6669 53.3446 19.64 53.4101C19.5735 53.5736 19.5104 53.7391 19.4493 53.9053C19.4253 53.9711 19.4016 54.037 19.3785 54.1032C19.3178 54.2767 19.2594 54.4513 19.2051 54.6275C19.1904 54.675 19.1773 54.7231 19.1632 54.7707C19.1164 54.9286 19.0723 55.0878 19.0307 55.2476C19.0183 55.2961 19.0048 55.3442 18.993 55.3927C18.946 55.582 18.903 55.7729 18.8637 55.9653C18.8532 56.0162 18.8432 56.0677 18.8333 56.119C18.7946 56.3187 18.7585 56.5193 18.7279 56.7218C18.7245 56.7434 18.7221 56.7656 18.7189 56.7876C18.6907 56.9813 18.6668 57.1763 18.6462 57.3724C18.6419 57.4137 18.637 57.4549 18.633 57.4962C18.6131 57.7031 18.5977 57.911 18.5864 58.1203C18.5842 58.1631 18.5825 58.2064 18.5808 58.2494C18.571 58.4673 18.5645 58.686 18.5645 58.9062C18.5645 66.9318 25.0705 73.4578 33.0961 73.4578H42.6033H63.6628H66.1801C66.3924 73.4578 66.6031 73.4514 66.813 73.4416C66.8521 73.4399 66.8913 73.4384 66.9306 73.4365C67.1314 73.4255 67.3313 73.4102 67.5297 73.3907C67.5697 73.3868 67.6094 73.3823 67.6492 73.3781C67.8491 73.3567 68.0482 73.3321 68.2457 73.3022C68.2541 73.3009 68.2628 73.2998 68.2712 73.2983C68.4677 73.2682 68.6624 73.2321 68.8559 73.1936C68.8993 73.185 68.9427 73.1767 68.9857 73.1675C69.1717 73.1286 69.3565 73.0858 69.5397 73.0394C69.5855 73.0276 69.631 73.0153 69.6768 73.0033C69.8495 72.9577 70.021 72.9092 70.1907 72.8572C70.2228 72.8472 70.2547 72.8374 70.2867 72.8273C70.4533 72.7747 70.618 72.7181 70.7821 72.6593C70.8345 72.6402 70.8875 72.6216 70.9399 72.602C71.1044 72.5406 71.2675 72.4762 71.4291 72.4087C71.4858 72.3849 71.5418 72.3603 71.5978 72.336C71.7336 72.277 71.8679 72.216 72.0013 72.1528C72.0665 72.122 72.1311 72.0907 72.1958 72.0589C72.3229 71.9962 72.4488 71.9312 72.5737 71.8648C72.6382 71.8303 72.7026 71.7963 72.7663 71.7608C72.9053 71.6837 73.043 71.6043 73.1789 71.5227C73.2472 71.4816 73.3149 71.4391 73.3827 71.3969C73.4783 71.3371 73.573 71.2759 73.6671 71.2139C73.7656 71.1487 73.8631 71.0828 73.96 71.0151C74.0461 70.955 74.1315 70.894 74.2163 70.832C74.2899 70.778 74.3632 70.7241 74.4359 70.6687C74.5495 70.5817 74.6623 70.4929 74.7733 70.4025C74.8488 70.3409 74.9232 70.2779 74.9974 70.2146C75.06 70.1615 75.1216 70.1074 75.1832 70.0531C75.3014 69.9486 75.4177 69.8425 75.5321 69.7342C75.5868 69.6826 75.6412 69.6307 75.695 69.5783C75.7707 69.5041 75.846 69.4299 75.9198 69.3542C75.9779 69.295 76.0342 69.2341 76.0912 69.1738C76.2001 69.0581 76.3072 68.9411 76.4122 68.8216C76.4541 68.7741 76.4951 68.7258 76.5364 68.6775C76.6531 68.5409 76.7671 68.4019 76.8785 68.2606C76.9161 68.2129 76.9539 68.1652 76.9911 68.1167C77.0591 68.0279 77.1267 67.9388 77.1926 67.8481C77.1932 67.8473 77.1938 67.8466 77.1943 67.8458C77.1432 67.883 77.0904 67.9181 77.039 67.9546L79.7095 58.9172C79.7362 59.2111 79.7536 59.5066 79.7536 59.8059ZM76.6204 52.3708C78.3649 54.1732 79.4842 56.4271 79.708 58.8943L76.6204 52.3708Z" fill="#B0D4FF"/>
<path d="M0.912109 19.5385H13.9377C17.5195 19.5385 20.4503 16.6577 20.4503 13.0759L20.4268 0.00634766L0.912109 19.5385Z" fill="#F7C29E"/>
<path opacity="0.2" d="M1.09961 30.0085V19.5381H11.52L1.09961 30.0085Z" fill="#5D5D5D"/>
<path d="M32.668 43.6917C32.6745 43.6365 32.6815 43.5814 32.6888 43.5264C32.6815 43.5814 32.6745 43.6365 32.668 43.6917Z" fill="white"/>
<path d="M21.2529 50.4799C21.3247 50.3791 21.398 50.2797 21.4724 50.1807C21.3981 50.2797 21.3247 50.3791 21.2529 50.4799Z" fill="white"/>
<path d="M71.5984 72.334C71.5422 72.3582 71.4862 72.3828 71.4297 72.4067C71.4862 72.3828 71.5422 72.3582 71.5984 72.334Z" fill="white"/>
<path d="M21.5566 50.0714C21.6942 49.8916 21.8356 49.715 21.9816 49.542C21.8358 49.715 21.6942 49.8916 21.5566 50.0714Z" fill="white"/>
<path d="M22.0391 49.4729C22.3004 49.1663 22.5737 48.8708 22.8591 48.5869C22.5737 48.871 22.3002 49.1663 22.0391 49.4729Z" fill="white"/>
<path d="M70.2879 72.8257C70.2558 72.8359 70.2237 72.8457 70.1914 72.8557C70.2239 72.8457 70.2558 72.8357 70.2879 72.8257Z" fill="white"/>
<path d="M32.7891 42.8695C32.7906 42.8621 32.7921 42.8548 32.7934 42.8472C32.7919 42.8548 32.7906 42.8621 32.7891 42.8695Z" fill="white"/>
<path d="M70.94 72.6001C70.8876 72.6196 70.8346 72.6382 70.7822 72.6574C70.8348 72.6382 70.8876 72.6196 70.94 72.6001Z" fill="white"/>
<path d="M33.5664 40.0376C33.5788 40.0049 33.5925 39.9729 33.6049 39.9404C33.5925 39.9729 33.579 40.0049 33.5664 40.0376Z" fill="white"/>
<path d="M72.7668 71.7593C72.7029 71.7946 72.6385 71.8288 72.5742 71.8633C72.6385 71.8288 72.7029 71.7946 72.7668 71.7593Z" fill="white"/>
<path d="M33.8066 39.4461C33.8341 39.3813 33.8621 39.3167 33.8904 39.2524C33.8621 39.3165 33.8341 39.3813 33.8066 39.4461Z" fill="white"/>
<path d="M32.9189 42.2201C32.931 42.1641 32.9436 42.1083 32.9563 42.0527C32.9436 42.1085 32.9312 42.1643 32.9189 42.2201Z" fill="white"/>
<path d="M72.1964 72.0571C72.1318 72.0889 72.0671 72.1203 72.002 72.1511C72.0671 72.1203 72.132 72.0889 72.1964 72.0571Z" fill="white"/>
<path d="M73.3835 71.395C73.3157 71.4373 73.2481 71.4797 73.1797 71.5209C73.2481 71.4797 73.3155 71.4373 73.3835 71.395Z" fill="white"/>
<path d="M33.3008 40.8027C33.3199 40.7435 33.3389 40.684 33.3588 40.625C33.3389 40.6842 33.3199 40.7435 33.3008 40.8027Z" fill="white"/>
<path d="M33.1133 41.4264C33.1186 41.4075 33.1247 41.3889 33.1298 41.3701C33.1247 41.3889 33.1188 41.4075 33.1133 41.4264Z" fill="white"/>
<path d="M19.3789 54.1011C19.402 54.035 19.4257 53.9691 19.4497 53.9033C19.4257 53.9689 19.402 54.035 19.3789 54.1011Z" fill="white"/>
<path d="M18.5811 58.2477C18.5829 58.2047 18.5846 58.1615 18.5867 58.1187C18.5844 58.1615 18.5829 58.2047 18.5811 58.2477Z" fill="white"/>
<path d="M18.834 56.1171C18.8439 56.0658 18.8539 56.0143 18.8644 55.9634C18.8539 56.0143 18.8438 56.0658 18.834 56.1171Z" fill="white"/>
<path d="M19.1631 54.7686C19.177 54.7211 19.1903 54.673 19.205 54.6255C19.1903 54.6732 19.1772 54.7209 19.1631 54.7686Z" fill="white"/>
<path d="M67.6498 73.376C67.6099 73.3801 67.5703 73.3848 67.5303 73.3886C67.5703 73.3848 67.6099 73.3803 67.6498 73.376Z" fill="white"/>
<path d="M66.9311 73.4346C66.8918 73.4366 66.8526 73.4381 66.8135 73.4396C66.8526 73.4379 66.8918 73.4364 66.9311 73.4346Z" fill="white"/>
<path d="M18.6328 57.4944C18.6368 57.4531 18.6416 57.4119 18.646 57.3706C18.6416 57.4119 18.6369 57.4531 18.6328 57.4944Z" fill="white"/>
<path d="M18.7188 56.7866C18.722 56.7646 18.7244 56.7422 18.7279 56.7202C18.7244 56.742 18.722 56.7644 18.7188 56.7866Z" fill="white"/>
<path d="M19.876 52.8676C19.9096 52.7942 19.9425 52.7205 19.9772 52.6475C19.9427 52.7205 19.9096 52.7944 19.876 52.8676Z" fill="white"/>
<path d="M20.4766 51.6983C20.5534 51.5636 20.6325 51.43 20.7136 51.2983C20.6325 51.4302 20.5534 51.5634 20.4766 51.6983Z" fill="white"/>
<path d="M68.2714 73.2964C68.263 73.2979 68.2545 73.299 68.2461 73.3003C68.2545 73.299 68.263 73.2979 68.2714 73.2964Z" fill="white"/>
<path d="M69.6772 73.0015C69.6313 73.0135 69.5859 73.0259 69.54 73.0375C69.5859 73.0259 69.6313 73.0137 69.6772 73.0015Z" fill="white"/>
<path d="M20.1914 52.2175C20.2354 52.1328 20.2805 52.0488 20.3259 51.9648C20.2805 52.0488 20.2354 52.1328 20.1914 52.2175Z" fill="white"/>
<path d="M19.6406 53.4083C19.6677 53.3427 19.696 53.2781 19.7238 53.2129C19.696 53.2781 19.6673 53.3425 19.6406 53.4083Z" fill="white"/>
<path d="M20.8379 51.0976C20.9658 50.8972 21.0979 50.6996 21.235 50.5059C21.0981 50.6996 20.9658 50.897 20.8379 51.0976Z" fill="white"/>
<path d="M68.9863 73.166C68.9432 73.1752 68.8998 73.1835 68.8564 73.1921C68.8998 73.1835 68.943 73.1752 68.9863 73.166Z" fill="white"/>
<path d="M18.9932 55.3906C19.005 55.342 19.0185 55.2939 19.0309 55.2456C19.0185 55.2939 19.0052 55.342 18.9932 55.3906Z" fill="white"/>
<path d="M38.3291 33.4258C38.5213 33.2683 38.7174 33.1152 38.9171 32.9668C38.7174 33.1154 38.5213 33.2681 38.3291 33.4258Z" fill="white"/>
<path d="M75.9202 69.3525C75.8462 69.4283 75.771 69.5027 75.6953 69.5767C75.771 69.5027 75.8462 69.4284 75.9202 69.3525Z" fill="white"/>
<path d="M37.3232 34.3245C37.4764 34.1755 37.6325 34.0295 37.7914 33.8867C37.6323 34.0295 37.4764 34.1755 37.3232 34.3245Z" fill="white"/>
<path d="M37.9414 33.753C38.0389 33.6679 38.1368 33.5835 38.2362 33.5005C38.137 33.5835 38.0389 33.6679 37.9414 33.753Z" fill="white"/>
<path d="M36.3994 35.3023C36.5129 35.1716 36.6284 35.0425 36.746 34.9155C36.6282 35.0425 36.5127 35.1714 36.3994 35.3023Z" fill="white"/>
<path d="M36.9199 34.73C37.0022 34.644 37.0851 34.5585 37.1694 34.4741C37.0851 34.5585 37.0024 34.644 36.9199 34.73Z" fill="white"/>
<path d="M75.5325 69.7329C75.418 69.8411 75.3016 69.9475 75.1836 70.0517C75.3019 69.9473 75.418 69.8411 75.5325 69.7329Z" fill="white"/>
<path d="M39.0527 32.8664C39.163 32.7864 39.2737 32.7071 39.3858 32.6299C39.2735 32.7073 39.1628 32.7866 39.0527 32.8664Z" fill="white"/>
<path d="M74.9976 70.2134C74.9232 70.2767 74.849 70.3396 74.7734 70.4012C74.849 70.3396 74.9232 70.2767 74.9976 70.2134Z" fill="white"/>
<path d="M79.8164 59.7746C79.8164 52.2261 73.7291 46.0277 66.1804 46.0277H64.5992V45.6354C64.5992 36.9571 57.7281 29.8711 49.0494 29.8711H48.2636C45.4835 29.8711 42.8741 30.5983 40.6086 31.8687C36.149 35.0104 34.3838 39.4525 34.2115 42.8339C42.7209 44.5899 44.5393 49.8816 44.6751 50.3167C42.03 46.7282 37.775 44.3992 32.9752 44.3992C32.5064 44.3992 32.2402 44.3919 32.277 44.3812C28.6191 44.5852 25.3239 46.1445 22.8801 48.5659C23.3684 48.0827 23.8901 47.6332 24.4422 47.2223C22.6395 49.6465 21.5703 52.6488 21.5703 55.8987C21.5703 63.9244 28.0763 70.4504 36.102 70.4504H45.6092H66.6687H69.1859C72.1832 70.4504 74.9478 69.4819 77.1949 67.8448C78.8429 65.5831 79.8164 62.7965 79.8164 59.7812V59.7746ZM65.977 48.0944C58.3684 48.0944 52.2001 53.3374 52.2001 59.8047C52.2001 52.1961 58.3684 46.0278 65.977 46.0278C73.5858 46.0278 79.7538 52.1961 79.7538 59.8047C79.7538 53.3374 73.5858 48.0944 65.977 48.0944Z" fill="white"/>
<path d="M76.8792 68.2593C76.7676 68.4006 76.6538 68.5396 76.5371 68.6761C76.6538 68.5396 76.7676 68.4006 76.8792 68.2593Z" fill="white"/>
<path d="M77.1938 67.8467C77.1276 67.9372 77.0602 68.0265 76.9922 68.1153C77.0602 68.0265 77.1278 67.9372 77.1938 67.8467Z" fill="white"/>
<path d="M76.4129 68.8198C76.3078 68.9393 76.2008 69.0563 76.0918 69.1721C76.2008 69.0563 76.3078 68.9393 76.4129 68.8198Z" fill="white"/>
<path d="M39.4209 32.6067C39.6477 32.4515 39.8791 32.3025 40.1141 32.1592C39.8791 32.3023 39.6477 32.4513 39.4209 32.6067Z" fill="white"/>
<path d="M40.249 32.0779C40.3681 32.0069 40.4876 31.9368 40.6086 31.8691C40.4874 31.9368 40.3681 32.0069 40.249 32.0779Z" fill="white"/>
<path d="M34.4277 38.1554C34.4661 38.084 34.5048 38.0128 34.5442 37.9424C34.5049 38.0128 34.4661 38.084 34.4277 38.1554Z" fill="white"/>
<path d="M35.5566 36.3621C35.6342 36.2557 35.7131 36.1504 35.7932 36.0459C35.7131 36.1504 35.6342 36.2556 35.5566 36.3621Z" fill="white"/>
<path d="M74.4364 70.667C74.3637 70.7224 74.2904 70.7763 74.2168 70.8303C74.2904 70.7763 74.3639 70.7224 74.4364 70.667Z" fill="white"/>
<path d="M34.7979 37.5047C34.8461 37.4245 34.8957 37.3454 34.9455 37.2661C34.8959 37.3454 34.8461 37.4245 34.7979 37.5047Z" fill="white"/>
<path d="M73.9609 71.0137C73.8639 71.0811 73.7666 71.1473 73.668 71.2124C73.7666 71.1473 73.8639 71.0809 73.9609 71.0137Z" fill="white"/>
<path d="M34.1328 38.727C34.1587 38.6739 34.186 38.6216 34.2125 38.5688C34.186 38.6216 34.1587 38.6737 34.1328 38.727Z" fill="white"/>
<path d="M35.1582 36.9367C35.2095 36.8585 35.2617 36.7809 35.3145 36.7041C35.2617 36.7809 35.2097 36.8585 35.1582 36.9367Z" fill="white"/>
<path d="M35.9902 35.7925C36.0567 35.7095 36.1234 35.6266 36.1914 35.5449C36.1234 35.6268 36.0565 35.7095 35.9902 35.7925Z" fill="white"/>
<path d="M67.5298 73.3887C67.3312 73.4082 67.1315 73.4236 66.9307 73.4345C67.1313 73.4234 67.3312 73.4082 67.5298 73.3887Z" fill="#E2E2E2"/>
<path d="M68.2459 73.3003C68.0484 73.3302 67.8495 73.3548 67.6494 73.3762C67.8495 73.3548 68.0484 73.3302 68.2459 73.3003Z" fill="#E2E2E2"/>
<path d="M76.5373 68.6763C76.4959 68.7246 76.455 68.7728 76.4131 68.8204C76.4548 68.7727 76.4959 68.7244 76.5373 68.6763Z" fill="#E2E2E2"/>
<path d="M75.1838 70.0518C75.1222 70.106 75.0606 70.1602 74.998 70.2133C75.0606 70.16 75.1224 70.106 75.1838 70.0518Z" fill="#E2E2E2"/>
<path d="M76.9914 68.1152C76.9544 68.1637 76.9167 68.2114 76.8789 68.2591C76.9165 68.2114 76.9544 68.1637 76.9914 68.1152Z" fill="#E2E2E2"/>
<path d="M18.5645 58.9043C18.5645 58.6842 18.571 58.4655 18.5808 58.2476C18.571 58.4655 18.5645 58.6842 18.5645 58.9043Z" fill="#E2E2E2"/>
<path d="M73.1792 71.521C73.0432 71.6025 72.9056 71.6818 72.7666 71.759C72.9056 71.682 73.0432 71.6027 73.1792 71.521Z" fill="#E2E2E2"/>
<path d="M73.6672 71.2124C73.5731 71.2744 73.4784 71.3355 73.3828 71.3954C73.4786 71.3355 73.5733 71.2744 73.6672 71.2124Z" fill="#E2E2E2"/>
<path d="M77.1959 67.8442L77.1956 67.8445L77.1934 67.8475L77.1959 67.8442Z" fill="#E2E2E2"/>
<path d="M66.8136 73.4399C66.6037 73.4497 66.393 73.4561 66.1807 73.4561C66.393 73.4561 66.6037 73.4497 66.8136 73.4399Z" fill="#E2E2E2"/>
<path d="M72.5743 71.8628C72.4493 71.9293 72.3235 71.9941 72.1963 72.0569C72.3235 71.9943 72.4495 71.9293 72.5743 71.8628Z" fill="#E2E2E2"/>
<path d="M69.5404 73.0376C69.357 73.084 69.1723 73.1268 68.9863 73.1657C69.1723 73.1268 69.357 73.0842 69.5404 73.0376Z" fill="#E2E2E2"/>
<path d="M72.0012 72.1514C71.8678 72.2145 71.7333 72.2754 71.5977 72.3345C71.7335 72.2754 71.8678 72.2145 72.0012 72.1514Z" fill="#E2E2E2"/>
<path d="M74.7739 70.4009C74.6629 70.4912 74.5504 70.5801 74.4365 70.6671C74.5504 70.5801 74.6629 70.4914 74.7739 70.4009Z" fill="#E2E2E2"/>
<path d="M70.7825 72.6577C70.6185 72.7165 70.4537 72.7729 70.2871 72.8257C70.4537 72.7729 70.6187 72.7165 70.7825 72.6577Z" fill="#E2E2E2"/>
<path d="M75.6951 69.5771C75.6414 69.6296 75.5869 69.6814 75.5322 69.7331C75.5869 69.6812 75.6416 69.6296 75.6951 69.5771Z" fill="#E2E2E2"/>
<path d="M70.1915 72.8555C70.0219 72.9075 69.8504 72.956 69.6777 73.0016C69.8502 72.956 70.0217 72.9075 70.1915 72.8555Z" fill="#E2E2E2"/>
<path d="M71.4296 72.4067C71.2683 72.4742 71.105 72.5386 70.9404 72.6001C71.1052 72.5386 71.2683 72.4742 71.4296 72.4067Z" fill="#E2E2E2"/>
<path d="M74.2162 70.8306C74.1315 70.8926 74.046 70.9534 73.96 71.0137C74.046 70.9536 74.1317 70.8926 74.2162 70.8306Z" fill="#E2E2E2"/>
<path d="M76.0922 69.1724C76.0353 69.2327 75.9788 69.2935 75.9209 69.3527C75.9788 69.2935 76.0353 69.2329 76.0922 69.1724Z" fill="#E2E2E2"/>
<path d="M68.8561 73.1919C68.6626 73.2304 68.468 73.2663 68.2715 73.2965C68.468 73.2663 68.6626 73.2304 68.8561 73.1919Z" fill="#E2E2E2"/>
<path d="M21.9805 49.5425C21.9998 49.5192 22.019 49.4961 22.0387 49.4731C22.0192 49.4961 21.9998 49.5192 21.9805 49.5425Z" fill="#E2E2E2"/>
<path d="M20.7129 51.2983C20.754 51.231 20.7957 51.164 20.838 51.0977C20.7957 51.164 20.7542 51.231 20.7129 51.2983Z" fill="#E2E2E2"/>
<path d="M20.3262 51.9646C20.3748 51.875 20.425 51.7867 20.4757 51.6982C20.425 51.7864 20.375 51.875 20.3262 51.9646Z" fill="#E2E2E2"/>
<path d="M19.9766 52.6475C20.0457 52.5027 20.1178 52.3595 20.1917 52.2173C20.1178 52.3595 20.0461 52.5028 19.9766 52.6475Z" fill="#E2E2E2"/>
<path d="M21.2354 50.5053C21.2413 50.4968 21.247 50.488 21.2534 50.4795C21.247 50.488 21.2413 50.4968 21.2354 50.5053Z" fill="#E2E2E2"/>
<path d="M22.8584 48.5873C22.8656 48.5803 22.8728 48.5731 22.88 48.5659C22.8728 48.5731 22.8656 48.5803 22.8584 48.5873Z" fill="#E2E2E2"/>
<path d="M19.7236 53.213C19.7729 53.0971 19.8238 52.9821 19.876 52.8677C19.8238 52.9821 19.773 53.0971 19.7236 53.213Z" fill="#E2E2E2"/>
<path d="M21.4727 50.1804C21.5001 50.144 21.5281 50.1075 21.5559 50.0713C21.5281 50.1077 21.5003 50.144 21.4727 50.1804Z" fill="#E2E2E2"/>
<path d="M18.6465 57.3705C18.667 57.1743 18.6908 56.9793 18.7192 56.7856C18.691 56.9793 18.6672 57.1743 18.6465 57.3705Z" fill="#E2E2E2"/>
<path d="M18.7275 56.72C18.758 56.5175 18.794 56.3169 18.8329 56.1172C18.7942 56.3169 18.758 56.5175 18.7275 56.72Z" fill="#E2E2E2"/>
<path d="M18.8643 55.9632C18.9037 55.7711 18.9465 55.58 18.9935 55.3906C18.9464 55.58 18.9037 55.7709 18.8643 55.9632Z" fill="#E2E2E2"/>
<path d="M18.5859 58.1187C18.5972 57.9094 18.6126 57.7013 18.6325 57.4946C18.6126 57.7015 18.5974 57.9094 18.5859 58.1187Z" fill="#E2E2E2"/>
<path d="M19.4492 53.9034C19.5101 53.7372 19.5732 53.5716 19.6399 53.4082C19.573 53.5716 19.5103 53.7372 19.4492 53.9034Z" fill="#E2E2E2"/>
<path d="M19.2051 54.6259C19.2594 54.4497 19.3178 54.2752 19.3785 54.1016C19.3178 54.275 19.2594 54.4495 19.2051 54.6259Z" fill="#E2E2E2"/>
<path d="M19.0312 55.2455C19.0728 55.0855 19.1169 54.9265 19.1637 54.7686C19.1167 54.9265 19.0728 55.0857 19.0312 55.2455Z" fill="#E2E2E2"/>
<path d="M37.1689 34.4744C37.2197 34.4239 37.2713 34.3747 37.3226 34.3247C37.2713 34.3747 37.2197 34.4239 37.1689 34.4744Z" fill="#E2E2E2"/>
<path d="M37.791 33.8869C37.8412 33.8422 37.891 33.7971 37.9417 33.7529C37.891 33.7971 37.841 33.8422 37.791 33.8869Z" fill="#E2E2E2"/>
<path d="M35.3145 36.7037C35.3935 36.5886 35.4749 36.4747 35.5568 36.3618C35.4749 36.4747 35.3937 36.5886 35.3145 36.7037Z" fill="#E2E2E2"/>
<path d="M36.1914 35.5453C36.2594 35.4634 36.3291 35.3831 36.3988 35.3027C36.3291 35.3831 36.2594 35.4635 36.1914 35.5453Z" fill="#E2E2E2"/>
<path d="M35.793 36.0455C35.8582 35.9606 35.9235 35.8763 35.9904 35.7925C35.9235 35.8763 35.8582 35.9606 35.793 36.0455Z" fill="#E2E2E2"/>
<path d="M38.2363 33.5013C38.267 33.4757 38.2985 33.451 38.3294 33.4258C38.2985 33.4512 38.267 33.4758 38.2363 33.5013Z" fill="#E2E2E2"/>
<path d="M40.6093 31.8687L40.6084 31.8696L40.6093 31.8687Z" fill="#E2E2E2"/>
<path d="M40.1133 32.1594C40.1582 32.1319 40.2031 32.1045 40.2482 32.0776C40.2031 32.1045 40.1582 32.1319 40.1133 32.1594Z" fill="#E2E2E2"/>
<path d="M38.917 32.967C38.9623 32.9334 39.0074 32.8999 39.053 32.8667C39.0074 32.8998 38.9623 32.9334 38.917 32.967Z" fill="#E2E2E2"/>
<path d="M39.3857 32.6298C39.3971 32.622 39.4086 32.6145 39.4201 32.6069C39.4086 32.6145 39.3971 32.622 39.3857 32.6298Z" fill="#E2E2E2"/>
<path d="M36.7461 34.9159C36.8036 34.8537 36.8613 34.7917 36.9199 34.7305C36.8614 34.7915 36.8036 34.8535 36.7461 34.9159Z" fill="#E2E2E2"/>
<path d="M32.793 42.8471C32.8302 42.6365 32.873 42.428 32.9188 42.2202C32.873 42.428 32.8302 42.6365 32.793 42.8471Z" fill="#E2E2E2"/>
<path d="M32.6895 43.5263C32.7186 43.3059 32.7507 43.0865 32.7888 42.8691C32.7509 43.0865 32.7188 43.3059 32.6895 43.5263Z" fill="#E2E2E2"/>
<path d="M32.9561 42.0529C33.0049 41.8423 33.0562 41.633 33.1133 41.4258C33.0564 41.6328 33.0049 41.8423 32.9561 42.0529Z" fill="#E2E2E2"/>
<path d="M32.2773 44.3808C32.3848 44.3748 32.4915 44.3656 32.5995 44.3618C32.3978 44.3688 32.2967 44.3753 32.2773 44.3808Z" fill="#E2E2E2"/>
<path d="M33.1299 41.3699C33.183 41.179 33.2407 40.9904 33.3008 40.8027C33.2407 40.9904 33.183 41.179 33.1299 41.3699Z" fill="#E2E2E2"/>
<path d="M32.5996 44.3622C32.6173 44.1373 32.6415 43.914 32.6686 43.6919C32.6415 43.914 32.6173 44.1371 32.5996 44.3622Z" fill="#E2E2E2"/>
<path d="M33.3584 40.6251C33.4243 40.4276 33.4927 40.2315 33.566 40.0376C33.4927 40.2315 33.4245 40.4276 33.3584 40.6251Z" fill="#E2E2E2"/>
<path d="M34.2129 38.5691C34.2826 38.43 34.3544 38.2923 34.428 38.1558C34.3542 38.2923 34.2826 38.4302 34.2129 38.5691Z" fill="#E2E2E2"/>
<path d="M34.5439 37.9426C34.6262 37.7951 34.711 37.6492 34.7978 37.5049C34.7108 37.6492 34.6264 37.7951 34.5439 37.9426Z" fill="#E2E2E2"/>
<path d="M33.8906 39.2525C33.9688 39.0757 34.0494 38.9003 34.1335 38.7271C34.0492 38.9003 33.9688 39.0755 33.8906 39.2525Z" fill="#E2E2E2"/>
<path d="M33.6045 39.9408C33.6687 39.7743 33.7362 39.6097 33.8059 39.4463C33.7364 39.6097 33.6689 39.7745 33.6045 39.9408Z" fill="#E2E2E2"/>
<path d="M34.9453 37.2664C35.0146 37.1554 35.0851 37.0455 35.1574 36.9365C35.0851 37.0453 35.0146 37.1556 34.9453 37.2664Z" fill="#E2E2E2"/>
<path opacity="0.1" d="M56.7486 51.0041L50.9255 44.8066C50.1284 43.9623 48.8238 43.9467 48.0267 44.791L44.1963 48.7907L53.3274 58.7893V52.687C53.3274 52.6157 53.4978 52.6027 53.4906 52.6027H54.4262H56.0868C57.248 52.6025 57.5455 51.8484 56.7486 51.0041Z" fill="#2D2D7B"/>
<path d="M56.7481 51.0041L50.925 44.8066C50.1279 43.9623 48.8234 43.9467 48.0262 44.791L42.2031 51.012C41.4058 51.8563 41.7036 52.6025 42.8648 52.6025H45.2486V52.6868V53.6264V63.9996C45.2486 65.161 46.3475 66.1289 47.5085 66.1289H51.39C52.551 66.1289 53.3269 65.161 53.3269 63.9996V53.6264V52.6868V52.6025H56.0863C57.2475 52.6025 57.5451 51.8484 56.7481 51.0041Z" fill="#739AF0"/>
</g>
<defs>
<clipPath id="clip0">
<rect width="96" height="96" fill="white" transform="translate(0.912109)"/>
</clipPath>
</defs>
</svg>
