<svg width="24" height="24" viewBox="0 0 24 24" fill="none" xmlns="http://www.w3.org/2000/svg">
<path d="M14.2303 5.27783H3.52637V7.01283H14.2303V5.27783Z" fill="#2D2D7B"/>
<path d="M19.4731 18.323C20.3028 16.8572 20.0622 14.9896 18.8553 13.7839C18.1412 13.0699 17.1918 12.6758 16.1786 12.6758C15.1655 12.6758 14.2147 13.0699 13.5007 13.7839C12.7867 14.4979 12.3926 15.4474 12.3926 16.4618C12.3926 17.4724 12.7867 18.4231 13.5007 19.1398C14.2147 19.8512 15.1642 20.2453 16.176 20.2453C16.8354 20.2453 17.474 20.0775 18.0411 19.7576L22.2837 24.0001L23.7156 22.5669L19.4731 18.323ZM17.7719 18.0538C16.9239 18.9018 15.436 18.9018 14.588 18.0538C13.7101 17.1746 13.7101 15.7478 14.588 14.8686C15.012 14.4446 15.5791 14.2105 16.1812 14.2105C16.7834 14.2105 17.3479 14.4446 17.7732 14.8686C18.1985 15.2926 18.4326 15.8597 18.4326 16.4618C18.4326 17.064 18.1972 17.6285 17.7719 18.0538Z" fill="#2D2D7B"/>
<path d="M17.3399 21.1998H2.41554C2.17883 21.1998 1.98764 21.0073 1.98764 20.7732V2.13039C1.98764 1.89368 2.17883 1.70249 2.41554 1.70249H17.3399C17.5767 1.70249 17.7665 1.89368 17.7665 2.13039V11.6404C18.3843 11.7756 18.9605 12.0397 19.4703 12.4168V2.13039C19.4703 0.955942 18.5157 0 17.3399 0H2.41554C1.2411 0 0.285156 0.955942 0.285156 2.13039V20.7732C0.285156 21.9464 1.2411 22.9023 2.41554 22.9023H17.3399C18.2309 22.9023 18.6523 22.6916 18.9696 21.9138L18.197 21.1413C17.9122 21.2609 17.4622 21.1998 17.3399 21.1998Z" fill="#2D2D7B"/>
<path d="M14.2303 10.168H3.52637V11.903H14.2303V10.168Z" fill="#2D2D7B"/>
</svg>
