<svg width="20" height="20" viewBox="0 0 20 20" fill="none" xmlns="http://www.w3.org/2000/svg">
<g clip-path="url(#clip0)">
<path d="M15.578 13.0533C15.3423 12.8176 14.9539 12.8249 14.7283 13.0758L14.3564 13.4888L13.4378 12.5702C14.5813 11.2375 15.2731 9.50671 15.2731 7.61706C15.2731 3.41706 11.8561 0 7.65609 0C3.45594 0 0.039032 3.41706 0.039032 7.61706C0.039032 11.817 3.45594 15.2341 7.65609 15.2341C9.54559 15.2341 11.2766 14.5423 12.6093 13.3988L13.5715 14.361L13.1584 14.82C12.95 15.0516 12.9591 15.4059 13.1796 15.6263L17.038 19.4846C17.7251 20.1717 18.8365 20.1719 19.5238 19.4846C19.8558 19.1526 20.0388 18.7111 20.0388 18.2418C20.0388 17.7724 19.8558 17.331 19.5238 16.9989L15.578 13.0533ZM1.21091 7.61706C1.21091 4.06312 4.10215 1.17188 7.65609 1.17188C11.21 1.17188 14.1013 4.06312 14.1013 7.61706C14.1013 11.171 11.21 14.0622 7.65609 14.0622C4.10215 14.0622 1.21091 11.171 1.21091 7.61706ZM18.6951 18.6561C18.4661 18.8852 18.0959 18.8852 17.8667 18.6561L14.4013 15.1908L15.1862 14.3187L18.6951 17.8277C18.9235 18.0561 18.9235 18.4276 18.6951 18.6561Z" fill="#6E4697"/>
<path d="M7.6561 2.34375C4.74838 2.34375 2.3828 4.70933 2.3828 7.61705C2.3828 10.5248 4.74838 12.8903 7.6561 12.8903C10.5638 12.8903 12.9294 10.5248 12.9294 7.61705C12.9294 4.70933 10.5638 2.34375 7.6561 2.34375ZM7.6561 11.7186C5.39443 11.7186 3.55452 9.87856 3.55452 7.61705C3.55452 5.35554 5.39443 3.51563 7.6561 3.51563C9.91761 3.51563 11.7575 5.35554 11.7575 7.61705C11.7575 9.87856 9.91761 11.7186 7.6561 11.7186Z" fill="#6E4697"/>
<path d="M7.65609 4.68738C6.68685 4.68738 5.89827 5.47595 5.89827 6.4452C5.89827 6.76884 6.16057 7.03114 6.48421 7.03114C6.80785 7.03114 7.07015 6.76884 7.07015 6.4452C7.07015 6.12217 7.3329 5.85926 7.65609 5.85926C7.97912 5.85926 8.24203 6.12217 8.24203 6.4452C8.24203 6.76838 7.97912 7.03114 7.65609 7.03114C7.3329 7.03114 7.07198 7.29282 7.07137 7.61601L7.07015 8.20195C7.06954 8.52543 7.33031 8.78834 7.6538 8.78895H7.65502C7.97805 8.78895 8.24019 8.52726 8.24096 8.20408L8.24111 8.10292C8.92364 7.86137 9.4139 7.20951 9.4139 6.4452C9.4139 5.47595 8.62533 4.68738 7.65609 4.68738Z" fill="#6E4697"/>
<path d="M8.24082 9.96082C8.24082 10.2843 7.97852 10.5468 7.65488 10.5468C7.33139 10.5468 7.06894 10.2843 7.06894 9.96082C7.06894 9.63718 7.33139 9.37488 7.65488 9.37488C7.97852 9.37488 8.24082 9.63718 8.24082 9.96082Z" fill="#6E4697"/>
</g>
<defs>
<clipPath id="clip0">
<rect width="20" height="20" fill="white"/>
</clipPath>
</defs>
</svg>
