<svg width="22" height="22" viewBox="0 0 22 22" fill="none" xmlns="http://www.w3.org/2000/svg">
<path d="M16.5 10.0834V11.4584C19.4242 11.4584 21.1658 14.7126 19.5525 17.1509L18.5533 16.1517C19.305 14.6301 18.1958 12.8334 16.5 12.8334V14.2084L14.4375 12.1459L16.5 10.0834ZM16.5 20.1667V18.7917C13.5758 18.7917 11.8342 15.5376 13.4475 13.0992L14.4467 14.0984C13.695 15.6201 14.8042 17.4167 16.5 17.4167V16.0417L18.5625 18.1042L16.5 20.1667ZM17.4167 2.75008H16.5V0.916748H14.6667V2.75008H7.33333V0.916748H5.5V2.75008H4.58333C4.0971 2.75008 3.63079 2.94324 3.28697 3.28705C2.94315 3.63087 2.75 4.09718 2.75 4.58341V17.4167C2.75 17.903 2.94315 18.3693 3.28697 18.7131C3.63079 19.0569 4.0971 19.2501 4.58333 19.2501H12.8333C12.2467 18.7459 11.7883 18.1226 11.4583 17.4167H4.58333V8.25008H17.4167V9.70758C18.0675 9.80842 18.6908 10.0284 19.25 10.3676V4.58341C19.25 4.09718 19.0568 3.63087 18.713 3.28705C18.3692 2.94324 17.9029 2.75008 17.4167 2.75008ZM17.4167 6.41675H4.58333V4.58341H17.4167" fill="#707070"/>
</svg>
