<svg width="69" height="69" viewBox="0 0 69 69" fill="none" xmlns="http://www.w3.org/2000/svg">
<g clip-path="url(#clip0)">
<path d="M49.7497 68.2H19.6097C18.7017 68.2 17.8308 67.84 17.1878 67.1989C16.5449 66.5579 16.1823 65.688 16.1797 64.78V4.58003C16.1823 3.67208 16.5449 2.80221 17.1878 2.16112C17.8308 1.52003 18.7017 1.16003 19.6097 1.16003H49.7497C50.6567 1.16003 51.5266 1.52035 52.168 2.16173C52.8094 2.8031 53.1697 3.67299 53.1697 4.58003V64.78C53.1697 65.6871 52.8094 66.557 52.168 67.1983C51.5266 67.8397 50.6567 68.2 49.7497 68.2Z" fill="#E4EAF6"/>
<path d="M16.1797 58.95H53.1697V8.09003H16.1797V58.95Z" fill="#2D2D7B"/>
<path d="M4.62 5.78C5.05967 6.10976 5.45025 6.50033 5.78 6.94C6.10976 6.50033 6.50033 6.10976 6.94 5.78C6.50033 5.45025 6.10976 5.05967 5.78 4.62C5.45025 5.05967 5.05967 5.45025 4.62 5.78ZM5.78 11.56C5.47235 11.56 5.1773 11.4378 4.95976 11.2202C4.74221 11.0027 4.62 10.7077 4.62 10.4C4.62 9.94563 4.5305 9.4957 4.35662 9.07592C4.18274 8.65613 3.92788 8.2747 3.60659 7.95341C3.2853 7.63212 2.90387 7.37726 2.48408 7.20338C2.0643 7.0295 1.61437 6.94 1.16 6.94C0.852349 6.94 0.557298 6.81779 0.339756 6.60024C0.122214 6.3827 0 6.08765 0 5.78C0 5.47235 0.122214 5.1773 0.339756 4.95976C0.557298 4.74221 0.852349 4.62 1.16 4.62C1.61437 4.62 2.0643 4.5305 2.48408 4.35662C2.90387 4.18274 3.2853 3.92788 3.60659 3.60659C3.92788 3.2853 4.18274 2.90387 4.35662 2.48408C4.5305 2.0643 4.62 1.61437 4.62 1.16C4.62 0.852349 4.74221 0.557298 4.95976 0.339756C5.1773 0.122214 5.47235 0 5.78 0C6.08765 0 6.3827 0.122214 6.60024 0.339756C6.81779 0.557298 6.94 0.852349 6.94 1.16C6.94 2.07765 7.30453 2.95771 7.95341 3.60659C8.60229 4.25547 9.48235 4.62 10.4 4.62C10.7077 4.62 11.0027 4.74221 11.2202 4.95976C11.4378 5.1773 11.56 5.47235 11.56 5.78C11.56 6.08765 11.4378 6.3827 11.2202 6.60024C11.0027 6.81779 10.7077 6.94 10.4 6.94C9.48235 6.94 8.60229 7.30453 7.95341 7.95341C7.30453 8.60229 6.94 9.48235 6.94 10.4C6.94 10.7077 6.81779 11.0027 6.60024 11.2202C6.3827 11.4378 6.08765 11.56 5.78 11.56Z" fill="#B4ADBB"/>
<path d="M62.4198 23.12C62.1189 23.1202 61.8298 23.0035 61.6133 22.7945C61.3969 22.5855 61.2701 22.3007 61.2598 22V17.34C61.2598 17.0323 61.382 16.7373 61.5995 16.5197C61.8171 16.3022 62.1121 16.18 62.4198 16.18C62.7274 16.18 63.0225 16.3022 63.24 16.5197C63.4576 16.7373 63.5798 17.0323 63.5798 17.34V22C63.5798 22.3076 63.4576 22.6027 63.24 22.8202C63.0225 23.0378 62.7274 23.16 62.4198 23.16" fill="#E5531C"/>
<path d="M64.7304 20.81H60.1104C59.9497 20.825 59.7876 20.8062 59.6345 20.755C59.4815 20.7038 59.3408 20.6211 59.2215 20.5124C59.1022 20.4037 59.0069 20.2713 58.9417 20.1237C58.8765 19.976 58.8428 19.8164 58.8428 19.655C58.8428 19.4936 58.8765 19.334 58.9417 19.1863C59.0069 19.0387 59.1022 18.9063 59.2215 18.7976C59.3408 18.6888 59.4815 18.6062 59.6345 18.555C59.7876 18.5038 59.9497 18.485 60.1104 18.5H64.7304C64.8911 18.485 65.0531 18.5038 65.2062 18.555C65.3592 18.6062 65.4999 18.6888 65.6192 18.7976C65.7385 18.9063 65.8338 19.0387 65.8991 19.1863C65.9643 19.334 65.998 19.4936 65.998 19.655C65.998 19.8164 65.9643 19.976 65.8991 20.1237C65.8338 20.2713 65.7385 20.4037 65.6192 20.5124C65.4999 20.6211 65.3592 20.7038 65.2062 20.755C65.0531 20.8062 64.8911 20.825 64.7304 20.81Z" fill="#E5531C"/>
<path d="M9.24957 50.86C9.26454 51.0207 9.24581 51.1828 9.19457 51.3359C9.14333 51.4889 9.06072 51.6296 8.95201 51.7489C8.8433 51.8682 8.71089 51.9635 8.56325 52.0287C8.4156 52.0939 8.25597 52.1276 8.09457 52.1276C7.93317 52.1276 7.77354 52.0939 7.62589 52.0287C7.47825 51.9635 7.34584 51.8682 7.23713 51.7489C7.12842 51.6296 7.04581 51.4889 6.99457 51.3359C6.94333 51.1828 6.9246 51.0207 6.93957 50.86C6.96638 50.5723 7.09965 50.3048 7.31329 50.1102C7.52693 49.9155 7.80554 49.8076 8.09457 49.8076C8.3836 49.8076 8.66221 49.9155 8.87585 50.1102C9.08949 50.3048 9.22276 50.5723 9.24957 50.86Z" fill="#E5531C"/>
<path d="M3.47035 30.05C3.47233 30.2799 3.40598 30.5051 3.27973 30.6972C3.15348 30.8893 2.97301 31.0395 2.76123 31.1288C2.54945 31.2182 2.31591 31.2426 2.09024 31.1989C1.86456 31.1553 1.65694 31.0456 1.49371 30.8838C1.33047 30.722 1.219 30.5153 1.17342 30.29C1.12785 30.0647 1.15023 29.831 1.23772 29.6185C1.32522 29.4059 1.47389 29.2241 1.66486 29.0962C1.85583 28.9683 2.0805 28.9 2.31035 28.9C2.61627 28.9 2.90982 29.0209 3.12708 29.2362C3.34433 29.4516 3.46771 29.7441 3.47035 30.05Z" fill="#B4ADBB"/>
<path d="M68.1999 65.89C68.1997 66.1177 68.1326 66.3403 68.0068 66.5301C67.881 66.7199 67.7022 66.8685 67.4925 66.9574C67.2829 67.0462 67.0517 67.0714 66.8279 67.0298C66.604 66.9882 66.3974 66.8816 66.2337 66.7234C66.0699 66.5651 65.9564 66.3622 65.9073 66.1399C65.8581 65.9175 65.8754 65.6857 65.9571 65.4731C66.0388 65.2606 66.1813 65.0768 66.3667 64.9447C66.5521 64.8125 66.7723 64.7379 66.9999 64.73C67.1526 64.7287 67.304 64.7578 67.4454 64.8156C67.5867 64.8734 67.7151 64.9588 67.8231 65.0668C67.9311 65.1748 68.0165 65.3032 68.0743 65.4445C68.1321 65.5859 68.1612 65.7373 68.1599 65.89" fill="#E5531C"/>
<path d="M39.3002 5.77997H33.5202C33.2324 5.75316 32.965 5.61989 32.7703 5.40625C32.5757 5.19261 32.4678 4.91399 32.4678 4.62497C32.4678 4.33594 32.5757 4.05732 32.7703 3.84369C32.965 3.63005 33.2324 3.49677 33.5202 3.46997H39.3002C39.4609 3.455 39.623 3.47373 39.776 3.52497C39.9291 3.5762 40.0698 3.65882 40.1891 3.76753C40.3084 3.87624 40.4037 4.00865 40.4689 4.15629C40.5341 4.30393 40.5678 4.46356 40.5678 4.62497C40.5678 4.78637 40.5341 4.946 40.4689 5.09364C40.4037 5.24129 40.3084 5.3737 40.1891 5.4824C40.0698 5.59111 39.9291 5.67373 39.776 5.72497C39.623 5.7762 39.4609 5.79494 39.3002 5.77997Z" fill="#546A79"/>
<path d="M30.0504 5.77997H28.9004C28.7397 5.79494 28.5776 5.7762 28.4246 5.72497C28.2715 5.67373 28.1308 5.59111 28.0115 5.4824C27.8922 5.3737 27.7969 5.24129 27.7317 5.09364C27.6665 4.946 27.6328 4.78637 27.6328 4.62497C27.6328 4.46356 27.6665 4.30393 27.7317 4.15629C27.7969 4.00865 27.8922 3.87624 28.0115 3.76753C28.1308 3.65882 28.2715 3.5762 28.4246 3.52497C28.5776 3.47373 28.7397 3.455 28.9004 3.46997H30.0504C30.2111 3.455 30.3732 3.47373 30.5262 3.52497C30.6793 3.5762 30.82 3.65882 30.9393 3.76753C31.0586 3.87624 31.1539 4.00865 31.2191 4.15629C31.2843 4.30393 31.318 4.46356 31.318 4.62497C31.318 4.78637 31.2843 4.946 31.2191 5.09364C31.1539 5.24129 31.0586 5.3737 30.9393 5.4824C30.82 5.59111 30.6793 5.67373 30.5262 5.72497C30.3732 5.7762 30.2111 5.79494 30.0504 5.77997Z" fill="#546A79"/>
<path d="M15 13.87C14.694 13.87 14.4005 13.7492 14.1832 13.5338C13.966 13.3184 13.8426 13.0259 13.84 12.72V11.56C13.825 11.3993 13.8437 11.2372 13.895 11.0842C13.9462 10.9311 14.0288 10.7904 14.1375 10.6711C14.2462 10.5518 14.3786 10.4565 14.5263 10.3913C14.6739 10.3261 14.8336 10.2924 14.995 10.2924C15.1564 10.2924 15.316 10.3261 15.4636 10.3913C15.6113 10.4565 15.7437 10.5518 15.8524 10.6711C15.9611 10.7904 16.0437 10.9311 16.095 11.0842C16.1462 11.2372 16.1649 11.3993 16.15 11.56V12.72C16.15 13.025 16.0288 13.3175 15.8131 13.5332C15.5975 13.7488 15.305 13.87 15 13.87Z" fill="#BDC3C7"/>
<path d="M14.9998 18.5C14.6922 18.5 14.3971 18.3778 14.1796 18.1602C13.9621 17.9427 13.8398 17.6476 13.8398 17.34V16.18C13.8667 15.8922 13.9999 15.6248 14.2136 15.4301C14.4272 15.2355 14.7058 15.1276 14.9948 15.1276C15.2839 15.1276 15.5625 15.2355 15.7761 15.4301C15.9898 15.6248 16.123 15.8922 16.1498 16.18V17.34C16.1512 17.4918 16.1224 17.6425 16.0652 17.7831C16.008 17.9238 15.9235 18.0518 15.8166 18.1596C15.7097 18.2675 15.5824 18.3531 15.4423 18.4115C15.3021 18.4699 15.1517 18.5 14.9998 18.5Z" fill="#BDC3C7"/>
<path d="M15.0002 23.12C14.7046 23.1125 14.423 22.9924 14.213 22.7843C14.0029 22.5761 13.8803 22.2956 13.8702 22V20.81C13.8553 20.6493 13.874 20.4872 13.9252 20.3342C13.9765 20.1811 14.0591 20.0404 14.1678 19.9211C14.2765 19.8018 14.4089 19.7065 14.5566 19.6413C14.7042 19.5761 14.8638 19.5424 15.0252 19.5424C15.1866 19.5424 15.3463 19.5761 15.4939 19.6413C15.6416 19.7065 15.774 19.8018 15.8827 19.9211C15.9914 20.0404 16.074 20.1811 16.1252 20.3342C16.1765 20.4872 16.1952 20.6493 16.1802 20.81V22C16.1763 22.151 16.1427 22.2998 16.0813 22.4379C16.0199 22.5759 15.9319 22.7005 15.8223 22.8045C15.7127 22.9085 15.5837 22.9899 15.4427 23.0441C15.3016 23.0982 15.1513 23.124 15.0002 23.12Z" fill="#BDC3C7"/>
<path d="M38.15 63.58C38.15 64.2663 37.9465 64.9372 37.5652 65.5078C37.1839 66.0785 36.6419 66.5232 36.0079 66.7859C35.3738 67.0485 34.6761 67.1172 34.003 66.9833C33.3299 66.8494 32.7116 66.5189 32.2263 66.0336C31.741 65.5484 31.4105 64.9301 31.2766 64.257C31.1427 63.5838 31.2115 62.8861 31.4741 62.2521C31.7367 61.618 32.1815 61.0761 32.7521 60.6948C33.3228 60.3135 33.9937 60.11 34.68 60.11C35.6003 60.11 36.4829 60.4756 37.1336 61.1263C37.7844 61.7771 38.15 62.6597 38.15 63.58Z" fill="#BDC3C7"/>
<path d="M60.11 41.61C60.1118 41.8419 60.044 42.0691 59.9154 42.2621C59.7868 42.4551 59.6033 42.6051 59.3886 42.6928C59.1739 42.7805 58.9378 42.8018 58.7108 42.754C58.4839 42.7062 58.2765 42.5914 58.1154 42.4245C57.9543 42.2576 57.847 42.0463 57.8072 41.8178C57.7675 41.5893 57.7971 41.3541 57.8923 41.1427C57.9876 40.9312 58.144 40.7531 58.3414 40.6314C58.5389 40.5097 58.7683 40.45 59 40.46C59.3059 40.46 59.5995 40.5808 59.8167 40.7962C60.034 41.0116 60.1574 41.3041 60.16 41.61" fill="#E5531C"/>
<path d="M20.8096 29.3H48.5496V24.68H20.8096V29.3Z" fill="#B4ADBB"/>
<path d="M20.8096 37.94H48.5496V33.31H20.8096V37.94Z" fill="#B4ADBB"/>
</g>
<defs>
<clipPath id="clip0">
<rect width="68.2" height="68.2" fill="white"/>
</clipPath>
</defs>
</svg>
