<svg width="829" height="516" viewBox="0 0 829 516" fill="none" xmlns="http://www.w3.org/2000/svg">
<path d="M161.747 439.011C161.747 439.011 32.2977 278.045 133.947 179.385C285.209 32.5317 388.149 241.228 446.434 154.875C542.817 11.9949 858.143 48.6568 761.682 226.341C711.063 319.557 880.419 305.625 811.371 439.217L161.747 439.011Z" fill="#EBF3FA"/>
<path d="M241.399 439.426C241.399 439.426 240.831 434.988 239.515 432.356C238.198 429.725 229.783 431.402 229.783 431.402C229.783 431.402 228.106 432.846 227.744 439.555L241.399 439.426Z" fill="#233862"/>
<path d="M270.024 439.348C268.037 438.136 269.173 429.157 269.173 429.157C269.173 429.157 278.388 421.804 279.653 427.429C280.917 433.053 288.403 435.581 292.662 436.278C295.605 436.742 296.508 438.394 296.792 439.348H270.024Z" fill="#233862"/>
<path d="M250.975 373.971C251.362 376.035 251.595 377.738 251.646 378.95C252.498 395.617 265.688 433.775 268.063 434.653C271.703 436.02 277.459 433.105 280.479 432.15C281.718 431.763 282.57 430.499 282.286 429.209C275.755 399.203 273.355 355.963 272.477 330.395C272.038 317.495 269.818 308.594 269.818 308.594C269.818 308.594 237.656 300.002 237.449 310.864C237.269 320.462 248.11 358.13 250.975 373.971Z" fill="#213F7A"/>
<path d="M250.975 373.971L272.477 330.369C272.038 317.469 269.818 308.568 269.818 308.568C269.818 308.568 237.656 299.977 237.449 310.838C237.269 320.462 248.11 358.13 250.975 373.971Z" fill="#233862"/>
<path d="M258.126 310.916L241.115 434.111C241.115 434.111 233.655 435.917 227.847 434.472C227.847 434.472 222.866 368.94 223.279 353.099C223.692 337.258 219.717 310.709 224.182 307.794C228.648 304.879 258.126 310.916 258.126 310.916Z" fill="#213F7A"/>
<path d="M220.878 308.852C220.8 309.961 221.497 310.967 222.582 311.277C224.956 311.974 227.692 312.438 232.958 313.547C237.914 314.579 244.574 315.482 252.782 315.534C265.817 315.611 270.748 311.122 270.748 311.122C271.316 311.122 270.464 308.413 269.689 295.461C269.431 291.075 269.173 285.503 268.992 278.485C268.838 272.164 268.708 264.631 268.708 255.73C268.683 244.997 252.085 233.464 251.776 233.464C251.776 235.012 249.349 237.85 245.58 238.108C241.141 238.392 235.668 236.173 235.668 233.619C235.668 233.593 227.615 246.493 224.75 260.219C224.388 261.973 224.104 263.805 223.872 265.74C223.201 271.571 223.846 267.391 220.878 308.852Z" fill="#6E4697"/>
<path d="M251.75 233.438C251.75 233.438 267.186 233.309 270.903 238.521C274.62 243.733 282.777 271.777 278.518 281.091C274.258 290.431 266.308 277.221 261.894 271.519C257.48 265.817 251.75 233.438 251.75 233.438Z" fill="#6E4697"/>
<path d="M251.905 231.091V232.69C251.905 232.69 252.344 237.67 246.2 238.418C240.057 239.14 235.462 237.489 235.643 233.645C236.185 230.652 236.727 227.582 236.753 225.105C236.779 224.176 236.701 223.222 236.546 222.112L248.472 221.88L251.982 222.448L251.905 231.091Z" fill="#FFB27D"/>
<path d="M251.956 222.448L251.904 231.091C250.64 231.684 249.22 232.045 247.619 232.045C242.147 232.045 238.611 228.02 236.752 225.131C236.778 224.202 236.701 223.247 236.546 222.138L248.471 221.906L251.956 222.448Z" fill="#E2915A"/>
<path d="M235.617 220.203C237.01 227.633 246.613 227.401 250.743 226.937C251.904 226.808 252.653 226.653 252.653 226.653C253.969 226.292 254.692 224.228 255.053 221.519C255.724 216.152 254.873 208.258 253.969 206.245C252.601 203.201 250.02 199.924 240.366 202.298C230.686 204.671 233.835 210.683 235.617 220.203Z" fill="#FFB27D"/>
<path d="M267.547 254.336C267.547 254.336 273.51 267.52 273.355 271.468C273.355 271.468 270.387 271.364 267.547 272.216C262.875 273.609 267.547 254.336 267.547 254.336Z" fill="#502B75"/>
<path d="M256.938 199.15C256.938 199.15 252.679 198.815 247.671 196.648C243.593 194.867 238.456 196.828 236.778 197.705C236.83 197.447 236.933 197.06 237.191 196.699C237.191 196.699 236.443 197.241 236.339 197.963C236.262 198.015 236.236 198.067 236.236 198.067C236.236 198.067 235.384 197.912 234.842 198.144C234.842 198.144 235.229 198.092 235.358 198.325C235.384 198.35 235.384 198.376 235.41 198.402C229.06 201.472 228.466 211.508 230.506 213.83C232.958 216.617 236.623 222.835 236.623 222.835C236.623 222.835 237.01 221.416 236.546 218.965C236.107 216.514 238.224 216.514 240.908 215.378C243.593 214.269 241.347 211.121 243.696 209.238C246.045 207.329 254.666 208.464 254.537 206.993C257.764 205.884 256.938 199.486 256.938 199.15Z" fill="#233862"/>
<path d="M233.681 279.053C236.21 289.166 263.468 294.404 269.689 295.461C269.431 291.075 269.173 285.503 268.992 278.485L233.681 279.053Z" fill="#502B75"/>
<path d="M239.67 282.329C239.411 282.329 233.604 281.452 232.571 280.936C231.539 280.42 226.789 273.661 229.887 271.932C233.01 270.203 241.347 277.118 241.347 277.118L239.67 282.329Z" fill="#FFB27D"/>
<path d="M274.956 284.342C274.956 284.342 252.499 285.554 237.45 282.329C237.45 282.329 237.063 277.969 241.812 276.06C241.812 276.06 265.302 271.081 270.929 272.474C276.556 273.841 274.956 284.342 274.956 284.342Z" fill="#6E4697"/>
<path d="M223.407 266.746C228.054 272.371 234.145 276.937 240.857 278.021C240.908 277.943 242.896 274.925 242.509 270.539C242.328 268.501 241.657 266.153 240.057 263.65C239.566 262.876 239.127 261.973 238.74 260.993C235.075 251.653 235.617 233.619 235.617 233.619C235.617 233.619 220.052 235.244 215.199 242.185C212.256 246.416 216.051 257.871 223.407 266.746Z" fill="#6E4697"/>
<path d="M250.743 226.937C251.905 226.808 252.654 226.653 252.654 226.653C253.97 226.292 254.693 224.228 255.054 221.519C252.576 222.138 251.466 224.021 250.976 224.847C250.769 225.208 250.718 226.034 250.743 226.937Z" fill="#E2915A"/>
<path d="M257.015 231.142C257.015 231.142 262.384 222.267 258.203 221.88C254.021 221.493 252.343 224.331 251.749 225.363C251.156 226.395 251.904 231.091 251.904 231.091L257.015 231.142Z" fill="#FFB27D"/>
<path d="M236.52 270.203C236.675 271.339 237.01 272.371 237.449 273.274C238.766 276.189 240.882 277.995 240.882 277.995C254.847 271.7 257.66 250.054 258.151 238.186C258.331 233.413 258.151 230.213 258.151 230.213C251.853 228.124 250.071 231.761 250.071 231.761C250.071 231.761 242.637 249.434 238.766 260.967C237.294 265.405 236.339 268.913 236.52 270.203Z" fill="#6E4697"/>
<path d="M223.407 266.746C228.053 272.371 234.145 276.937 240.856 278.021C254.821 271.726 257.635 250.079 258.125 238.211C258.125 238.211 251.517 262.154 242.534 270.539C240.908 272.061 239.204 273.067 237.449 273.325C237.449 273.325 226.118 270.126 223.743 267.107C223.562 266.849 223.459 266.746 223.407 266.746Z" fill="#502B75"/>
<path d="M703.856 396.469C703.856 396.469 697.015 388.496 703.443 383.44C703.443 383.44 708.115 380.602 711.935 380.834C711.935 380.834 706.514 389.89 708.27 390.793C710.025 391.696 713.561 380.266 713.561 380.266C713.561 380.266 724.222 379.234 727.629 380.885C727.629 380.885 718.517 388.342 720.453 388.78C722.389 389.219 732.198 381.917 732.198 381.917C732.198 381.917 742.11 383.594 741.594 389.657C741.077 395.72 737.644 397.578 736.147 397.397C734.65 397.217 725.874 393.889 725.667 395.127C725.461 396.365 730.752 400.364 734.469 400.571C734.469 400.571 727.474 408.285 722.828 406.04C718.182 403.822 717.794 400.287 714.878 398.971C711.961 397.655 709.509 397.655 710.696 398.997C711.883 400.339 717.123 401.654 718.775 404.596C720.427 407.537 721.924 409.498 717.123 408.775C712.322 408.053 704.501 404.544 704.166 400.519C703.856 396.469 703.856 396.469 703.856 396.469Z" fill="#C8DBF4"/>
<path d="M736.715 389.812C736.715 389.812 709.793 388.78 703.856 396.468C703.856 396.468 702.539 400.416 698.487 404.002L697.867 405.731C697.867 405.731 702.539 400.803 704.191 400.519C704.191 400.493 701.584 390.947 736.715 389.812Z" fill="#C8DBF4"/>
<path d="M698.487 403.976C698.487 403.976 692.705 408.259 692.317 415.87L693.376 415.973C693.376 415.973 695.234 408.078 698.564 404.982C701.868 401.912 698.487 403.976 698.487 403.976Z" fill="#C8DBF4"/>
<path d="M679.979 386.432C679.979 386.432 690.846 380.344 685.761 372.088C685.761 372.088 681.708 367.031 677.372 365.715C677.372 365.715 679.695 378.022 677.372 378.305C675.048 378.589 675.771 364.399 675.771 364.399C675.771 364.399 664.336 358.904 659.845 359.342C659.845 359.342 666.943 371.365 664.62 371.081C662.297 370.798 654.347 358.62 654.347 358.62C654.347 358.62 642.602 356.453 640.744 363.393C638.859 370.333 641.905 373.816 643.635 374.255C645.364 374.693 656.515 374.539 656.231 375.983C655.947 377.428 648.41 379.75 644.203 378.434C644.203 378.434 648.849 389.864 654.915 389.296C661.007 388.729 662.891 384.962 666.659 384.652C670.428 384.368 673.19 385.375 671.306 386.381C669.421 387.387 663.046 386.716 660 389.296C656.954 391.876 654.502 393.476 660.155 394.637C665.808 395.798 675.952 395.075 677.965 390.715C679.979 386.355 679.979 386.432 679.979 386.432Z" fill="#C8DBF4"/>
<path d="M646.087 365.586C646.087 365.586 676.494 375.442 679.979 386.432C679.979 386.432 679.824 391.36 682.87 397.01V399.178C682.87 399.178 679.695 391.799 677.939 390.793C677.939 390.793 684.754 381.221 646.087 365.586Z" fill="#C8DBF4"/>
<path d="M682.87 397.01C682.87 397.01 687.568 404.131 684.883 412.8L683.67 412.465C683.67 412.465 684.832 402.919 682.379 398.12C679.953 393.321 682.87 397.01 682.87 397.01Z" fill="#C8DBF4"/>
<path d="M697.247 378.047C697.247 378.047 682.921 370.024 689.607 359.162C689.607 359.162 694.95 352.48 700.68 350.777C700.68 350.777 697.634 367.005 700.68 367.392C703.726 367.779 702.771 349.074 702.771 349.074C702.771 349.074 717.845 341.824 723.782 342.392C723.782 342.392 714.438 358.233 717.484 357.846C720.53 357.459 731.036 341.437 731.036 341.437C731.036 341.437 746.497 338.573 748.975 347.732C751.453 356.891 747.452 361.484 745.155 362.051C742.858 362.619 728.17 362.438 728.532 364.348C728.919 366.257 738.831 369.301 744.381 367.598C744.381 367.598 738.263 382.666 730.261 381.917C722.234 381.143 719.756 376.19 714.8 375.803C709.844 375.416 706.204 376.757 708.682 378.099C711.16 379.441 719.575 378.538 723.576 381.943C727.577 385.349 730.829 387.439 723.395 388.987C715.961 390.509 702.59 389.554 699.906 383.827C697.247 378.047 697.247 378.047 697.247 378.047Z" fill="#D4E4F8"/>
<path d="M741.93 350.57C741.93 350.57 701.843 363.548 697.248 378.047C697.248 378.047 697.429 384.523 693.428 391.979V394.843C693.428 394.843 697.635 385.117 699.907 383.775C699.933 383.775 690.95 371.185 741.93 350.57Z" fill="#D4E4F8"/>
<path d="M693.427 391.979C693.427 391.979 687.232 401.371 690.768 412.8L692.369 412.361C692.369 412.361 690.82 399.771 694.072 393.45C697.299 387.129 693.427 391.979 693.427 391.979Z" fill="#D4E4F8"/>
<path d="M696.782 437.568C712.27 437.568 724.841 425.003 724.841 409.523H668.75C668.724 425.029 681.295 437.568 696.782 437.568Z" fill="#D4E4F8"/>
<path d="M725.202 439.013H668.337C668.337 437.103 669.886 435.555 671.796 435.555H721.743C723.653 435.53 725.202 437.103 725.202 439.013Z" fill="#D4E4F8"/>
<path d="M725.46 409.549H667.795V410.401H725.46V409.549Z" fill="#9FC1F4"/>
<path d="M599.211 222.577C595.081 220.435 591.778 221.777 591.778 221.777C579.155 220.306 575.464 235.012 575.619 240.095C575.8 245.152 576.367 250.595 570.715 257.174C554.427 276.189 588.551 277.04 588.551 277.04C588.835 261.844 607.058 267.391 606.258 268.939C629.644 274.538 608.607 227.453 599.211 222.577Z" fill="#163560"/>
<path d="M550.478 285.916C550.478 285.916 548.258 282.536 546.477 282.458C544.696 282.381 541.366 281.452 541.624 282.123C541.882 282.794 543.947 282.845 544.154 283.258C544.36 283.671 541.108 284.264 540.179 284.316C539.249 284.393 537.055 284.316 537.133 284.78C537.21 285.245 541.082 287.154 543.818 286.896C546.554 286.638 549.936 287.696 549.936 287.696L550.478 285.916Z" fill="#FFB27D"/>
<path d="M582.615 286.999C582.615 286.999 581.402 289.399 579.208 292.133C576.575 295.436 572.496 299.254 567.385 300.002C564.933 300.364 562.558 299.848 560.364 298.867C554.169 296.107 549.497 289.786 549.497 289.786C548.413 286.793 550.194 284.78 550.194 284.78C550.194 284.78 562.739 287.593 563.927 286.999C565.114 286.406 572.083 266.359 573.735 263.831C575.387 261.302 581.04 260.012 581.04 260.012L582.615 286.999Z" fill="#CEDFF4"/>
<path d="M579.207 292.133C576.575 295.436 572.496 299.254 567.385 300.002C564.933 300.364 562.558 299.848 560.364 298.867C560.597 298.893 566.817 299.667 569.27 295.255C571.799 290.74 574.51 283.594 578.252 285.967C579.904 286.999 579.827 289.553 579.207 292.133Z" fill="#7AA2D6"/>
<path d="M629.386 422.243C629.386 422.243 633.207 425.726 632.458 428.203C631.71 430.679 628.251 432.331 627.786 435.375C627.321 438.394 625.463 440.045 623.785 440.045C622.107 440.045 615.783 440.045 615.783 440.045C615.783 440.045 614.544 437.903 617.539 437.258C620.533 436.613 621.643 433.053 621.462 429.751C621.281 426.448 621.746 422.036 621.746 422.036L628.096 420.566L629.386 422.243Z" fill="#233862"/>
<path d="M597.018 423.713C597.018 423.713 598.386 438.497 596.708 439.322L575.232 439.271C575.232 439.271 575.232 436.794 578.691 436.252C582.15 435.71 588.216 433.672 589.223 429.183C590.229 424.694 597.018 423.713 597.018 423.713Z" fill="#233862"/>
<path d="M612.325 317.701C607.911 307.794 605.201 304.956 605.717 301.86C606.104 299.564 604.556 259.161 604.556 259.161C604.039 259.006 602.981 258.851 602.413 258.722C600.606 258.31 599.109 257.045 598.464 255.291C597.715 253.175 597.122 250.079 597.122 246.184L596.554 246.287L587.029 248.17C587.029 248.17 587.235 251.163 587.261 254.001C587.261 254.027 587.261 254.053 587.261 254.078C587.261 256.529 585.661 258.697 583.312 259.367C582.099 259.703 581.066 260.012 581.066 260.012C581.066 260.012 577.582 269.997 576.91 280.24C576.239 290.482 583.26 294.946 576.859 315.431C570.277 336.355 614.752 323.171 612.325 317.701Z" fill="#FFB27D"/>
<path d="M587.028 248.196C587.028 248.196 587.235 251.189 587.261 254.027C592.578 253.872 595.417 249.022 596.553 246.313L587.028 248.196Z" fill="#E8945B"/>
<path d="M585.248 250.853C585.248 250.853 597.87 251.06 597.87 243.217C597.87 235.373 599.522 230.11 591.469 229.646C583.415 229.181 581.841 232.174 581.221 234.806C580.55 237.411 581.97 250.595 585.248 250.853Z" fill="#FFB27D"/>
<path d="M585.712 229.439C585.712 229.439 589.171 238.65 594.462 240.017C599.754 241.385 602.051 239.966 602.051 239.966C602.051 239.966 597.999 236.741 597.147 231.116C597.147 231.091 588.319 225.053 585.712 229.439Z" fill="#163560"/>
<path d="M586.564 230.188C586.564 230.188 584.009 231.142 582.95 233C581.918 234.832 581.04 237.231 581.247 240.198C581.247 240.198 578.64 233.929 581.557 230.394C584.654 226.679 586.564 230.188 586.564 230.188Z" fill="#163560"/>
<path d="M587.984 245.977C587.984 245.977 587.106 247.112 585.376 247.035C583.983 246.958 583.44 245.745 583.44 245.745C583.44 245.745 585.996 245.152 587.984 245.977Z" fill="#EBF3FA"/>
<path d="M613.537 277.04C613.537 277.04 613.847 281.555 613.537 286.973C613.331 290.56 609.691 295.358 609.175 296.571C607.885 299.564 606.413 300.028 606.413 300.028L595.133 302.789L591.158 303.769L578.639 300.028C578.639 300.028 572.935 284.135 575.232 275.183C577.529 266.23 581.014 260.012 581.014 260.012C581.014 260.012 591.21 269.997 604.503 259.161L613.537 277.04Z" fill="#CEDFF4"/>
<path d="M610.234 288.418C610.028 292.004 609.692 295.358 609.176 296.545C607.885 299.538 606.414 300.002 606.414 300.002L595.134 302.763L590.229 301.318C590.229 301.318 606.595 298.841 604.762 284.78L610.234 288.418Z" fill="#F2CCAA"/>
<path d="M579.465 302.428C579.465 302.428 573.27 321.7 572.883 328.253C572.496 334.807 584.731 421.469 585.221 424.487C585.686 427.325 589.222 429.157 589.222 429.157C589.222 429.157 590.849 430.112 593.172 429.467C596.398 428.564 597.405 427.454 597.405 427.454C597.405 427.454 602.232 365.638 599.238 343.579C596.243 321.52 596.218 302.402 596.218 302.402H579.465V302.428Z" fill="#6E4697"/>
<path d="M605.717 301.86C605.717 301.86 615.164 314.528 616.042 323.093C616.92 331.659 617.436 361.742 619.294 370.101C621.179 378.46 628.07 394.533 628.07 420.566C628.07 420.566 627.348 422.062 625.128 422.862C624.431 423.12 623.476 423.352 622.547 423.584C620.714 423.997 618.855 423.12 618.004 421.443C613.332 412.052 598.489 381.788 597.741 375.519C597.199 371.081 592.501 341.643 582.279 324.383C579.827 320.229 583.776 303.769 583.776 303.769L605.717 301.86Z" fill="#AD8DCE"/>
<path d="M587.699 246.184C587.699 246.184 587.493 247.112 585.17 246.958C585.17 246.958 583.234 246.829 583.285 245.822C583.311 245.848 585.195 245.126 587.699 246.184Z" fill="white"/>
<path d="M578.459 299.461C578.459 299.461 580.937 301.421 585.893 301.525C591.804 301.654 606.414 300.028 606.414 300.028C606.414 300.028 607.059 301.834 607.033 303.769C607.033 303.769 589.171 308.284 578.82 304.414C578.846 304.414 577.504 301.886 578.459 299.461Z" fill="#233862"/>
<path d="M584.473 306.607C582.975 306.607 581.788 305.24 581.788 303.563C581.788 301.886 583.001 300.518 584.473 300.518C585.944 300.518 587.157 301.886 587.157 303.563C587.157 305.24 585.97 306.607 584.473 306.607ZM584.473 301.395C583.492 301.395 582.666 302.35 582.666 303.537C582.666 304.724 583.466 305.678 584.473 305.678C585.479 305.678 586.28 304.724 586.28 303.537C586.28 302.35 585.479 301.395 584.473 301.395Z" fill="white"/>
<path d="M603.859 277.912L585.56 293.838L607.376 318.881L625.675 302.955L603.859 277.912Z" fill="#E95E2A"/>
<path d="M602.309 302.995C602.309 302.995 595.598 303.769 595.624 305.369C595.65 306.968 597.302 310.219 598.128 310.374C598.954 310.529 603.574 305.962 603.574 305.962L602.309 302.995Z" fill="#FFB27D"/>
<path d="M604.53 259.161C604.53 259.161 613.487 259.78 616.92 268.114C620.353 276.447 626.857 290.456 626.857 292.804C626.857 295.152 623.218 302.428 603.704 306.581C603.704 306.581 601.69 304.466 601.793 302.789C601.793 302.789 613.977 292.314 613.951 291.101C613.9 288.779 611.964 285.735 601.251 275.028C598.335 272.138 604.53 259.161 604.53 259.161Z" fill="#CEDFF4"/>
<path d="M419.04 439.529H418.937C418.395 439.529 417.956 439.09 417.956 438.548L419.427 374.874L423.764 374.358L420.073 438.548C420.073 439.09 419.608 439.529 419.04 439.529Z" fill="#B0D4FF"/>
<path d="M393.821 439.529H393.718C393.176 439.529 392.737 439.09 392.737 438.548L394.209 374.874L398.545 374.358L394.854 438.548C394.828 439.09 394.363 439.529 393.821 439.529Z" fill="#95C0F4"/>
<path d="M463.438 439.529H463.541C464.083 439.529 464.522 439.09 464.522 438.548L463.05 374.874L458.714 374.358L462.405 438.548C462.431 439.09 462.896 439.529 463.438 439.529Z" fill="#B0D4FF"/>
<path d="M390.957 370.901V327.273C390.957 319.585 397.178 313.367 404.87 313.367H436.335C444.028 313.367 450.248 319.585 450.248 327.273V372.578L390.957 370.901Z" fill="#B0D4FF"/>
<path d="M455.849 377.789H395.112C392.815 377.789 390.931 375.932 390.931 373.61V370.901H455.849V377.789Z" fill="#95C0F4"/>
<path d="M463.129 377.789H417.182C415.479 377.789 414.085 376.396 414.085 374.693V373.971C414.085 372.268 415.479 370.875 417.182 370.875H463.129C464.832 370.875 466.226 372.268 466.226 373.971V374.693C466.226 376.422 464.832 377.789 463.129 377.789Z" fill="#B0D4FF"/>
<path d="M461.346 360.039C456.829 367.882 451.176 370.901 451.176 370.901H427.609C427.609 370.901 464.78 354.053 461.346 360.039Z" fill="#233862"/>
<path d="M443.252 420.695C442.632 421.391 442.555 422.191 442.864 423.017C443.432 424.565 445.291 426.293 447.433 428.048C447.717 428.28 447.95 428.461 448.156 428.667C448.208 428.719 448.259 428.77 448.311 428.822C448.363 428.848 448.388 428.899 448.44 428.925C450.453 430.783 449.705 431.195 453.318 434.962C457.448 439.245 460.288 439.322 461.088 438.935C461.759 438.6 460.391 436.33 458.842 433.775C458.765 433.646 458.687 433.517 458.61 433.414C458.404 433.079 458.197 432.718 457.991 432.382C456.184 429.312 456.648 427.867 457.087 423.275C457.423 419.56 462.869 402.48 462.869 402.48L454.97 401.113C454.97 401.113 452.596 414.709 449.963 416.799C448.569 417.908 446.994 417.934 445.652 418.76C445.549 418.811 445.472 418.889 445.368 418.94C444.646 419.456 443.871 419.972 443.252 420.695Z" fill="#FFB27D"/>
<path d="M443.252 420.695C442.632 421.391 442.555 422.191 442.864 423.017C443.561 424.565 445.368 426.293 447.459 428.022C447.743 428.254 447.975 428.461 448.182 428.641C448.233 428.693 448.285 428.744 448.337 428.796C448.388 428.822 448.414 428.873 448.466 428.899C450.479 430.757 449.731 431.17 453.344 434.936C457.474 439.219 460.314 439.297 461.114 438.91C461.785 438.574 460.417 436.304 458.868 433.75C458.068 433.466 454.325 431.944 451.512 428.332C449.034 425.158 447.382 421.108 445.678 418.734C445.575 418.786 445.497 418.863 445.394 418.915C444.646 419.456 443.871 419.972 443.252 420.695Z" fill="#233862"/>
<path d="M506.957 415.767C507.448 418.192 510.933 417.805 514.804 416.851C518.676 415.896 517.773 417.031 523.297 416.412C528.821 415.793 530.498 413.729 530.679 412.929C530.834 412.207 528.098 411.949 525.181 411.613C524.82 411.562 524.433 411.536 524.071 411.484C520.767 411.071 518.341 408.93 515.347 407.176C512.507 405.524 508.248 398.765 508.248 398.765L500.659 399.358C500.659 399.358 504.634 405.395 506.183 408.027C507.087 409.575 507.035 411.613 506.932 413.187C506.828 414.013 506.777 414.89 506.957 415.767Z" fill="#FFB27D"/>
<path d="M514.804 416.851C518.676 415.896 517.773 417.031 523.297 416.412C528.821 415.793 530.498 413.729 530.679 412.929C530.834 412.207 528.098 411.949 525.181 411.613L525.155 411.665C525.155 411.665 521.851 414.013 517.231 414.116C513.488 414.219 509.513 413.135 506.932 413.187C506.88 414.038 506.828 414.916 506.983 415.767C507.448 418.192 510.907 417.779 514.804 416.851Z" fill="#233862"/>
<path d="M477.893 367.315L470.794 386.381L461.553 411.278C461.553 411.278 459.049 411.51 456.649 410.839C454.429 410.194 451.899 408.517 451.899 408.517C451.899 408.517 454.481 381.788 459.256 366.463C460.495 362.516 461.863 359.342 463.386 357.536C470.82 348.739 477.893 367.315 477.893 367.315Z" fill="#233862"/>
<path d="M470.691 337.051C466.045 335.555 452.803 337.464 439.509 340.07L436.722 335.477L407.992 333.233C407.992 333.233 398.519 354.234 403.707 367.624C404.482 369.585 405.979 370.849 408.56 370.901H408.973C408.973 370.901 426.061 370.901 431.637 370.901C445.937 370.901 461.863 361.097 463.928 360.684C467.309 360.013 468.652 366.773 472.033 373.842C475.415 380.911 503.782 405.241 503.782 405.241C503.782 405.241 508.145 405.292 509.952 404.621C511.888 403.899 512.585 402.944 512.585 402.944C512.585 402.944 481.171 340.405 470.691 337.051Z" fill="#2B478B"/>
<path d="M435.586 251.86C431.894 249.925 426.293 249.667 425.39 249.538C414.497 248.067 407.94 263.882 407.553 268.681C406.831 277.505 402.158 278.846 395.602 284.393C382.412 295.487 386.284 308.362 393.485 313.16C397.822 316.024 405.437 313.16 405.437 313.16C405.54 313.238 426.293 301.576 436.541 295.926C451.899 293.759 444.981 256.787 435.586 251.86Z" fill="#E95E2A"/>
<path d="M427.971 291.127C428.023 291.153 422.938 292.882 419.53 291.385C416.33 289.966 413.903 284.729 413.955 284.729C415.4 284.651 417.001 283.387 418.24 275.054L418.859 275.286L429.262 279.027C429.262 279.027 428.513 282.355 428.023 285.529C427.635 288.212 427.403 290.766 427.971 291.127Z" fill="#FFB27D"/>
<path d="M429.287 279.027C429.287 279.027 428.539 282.355 428.048 285.529C422.06 284.445 419.737 278.511 418.885 275.26L429.287 279.027Z" fill="#ED975D"/>
<path d="M430.836 282.329C430.836 282.329 416.588 280.42 417.93 271.571C419.246 262.721 418.317 256.529 427.455 257.381C436.592 258.232 437.857 261.87 438.141 264.914C438.425 267.959 434.579 282.613 430.836 282.329Z" fill="#FFB27D"/>
<path d="M437.599 260.09C437.599 260.09 428.487 267.933 422.292 268.578C416.097 269.223 413.748 267.211 413.748 267.211C413.748 267.211 417.413 264.166 419.607 259.29C420.253 257.845 421.621 256.865 423.195 256.71C427.635 256.323 436.024 256.168 437.599 260.09Z" fill="#E95E2A"/>
<path d="M431.921 259.367C431.921 259.367 434.967 262.308 435.922 264.501C436.851 266.617 437.135 271.648 436.386 273.66C436.386 273.66 441.136 264.424 438.451 259.935C435.612 255.188 431.921 259.367 431.921 259.367Z" fill="#E95E2A"/>
<path d="M439.973 312.103C439.535 340.895 439.844 334.884 436.695 337.619C435.947 338.29 433.804 338.677 430.991 338.857C422.163 339.451 406.624 337.98 406.03 336.355C403.991 330.704 405.436 328.95 403.733 320.307C403.552 319.378 403.346 318.398 403.087 317.314C401.668 311.38 400.3 309.368 405.307 299.822C409.876 291.179 414.6 284.161 415.039 284.419C427.067 291.566 428.048 285.554 428.048 285.554C428.048 285.554 440.18 298.042 439.973 312.103Z" fill="white"/>
<path d="M470.82 386.381L461.579 411.278C461.579 411.278 459.075 411.51 456.674 410.839C454.454 410.194 451.925 408.517 451.925 408.517C451.925 408.517 454.506 381.788 459.281 366.463L470.82 386.381Z" fill="#2B478B"/>
<path d="M428.049 285.529C428.049 285.529 440.439 287.618 441.884 292.959C443.33 298.3 451.9 329.621 451.9 329.621C451.9 329.621 445.601 330.756 442.685 327.841C439.768 324.925 432.566 300.88 432.566 300.88L428.049 285.529Z" fill="white"/>
<path d="M430.991 338.857C422.164 339.451 406.624 337.98 406.031 336.355C403.992 330.704 405.437 328.95 403.733 320.307L407.992 308.31C407.992 308.31 407.296 321.674 411.219 325.183C415.168 328.692 427.352 331.969 429.262 334.91C430.217 336.303 430.811 337.722 430.991 338.857Z" fill="#EBF3FF"/>
<path d="M420.872 333.233C420.872 333.233 429.597 331.298 430.991 332.072C432.384 332.846 435.843 335.658 436.256 336.638C436.695 337.619 433.133 335.89 431.971 335.581C431.223 335.374 429.235 336.071 428.28 336.38C424.176 337.748 421.646 337.051 421.646 337.051L420.872 333.233Z" fill="#FFB27D"/>
<path d="M415.039 284.393C415.039 284.393 403.346 285.116 399.293 290.766C393.589 298.712 382.283 332.614 388.762 337.129C396.067 342.211 422.008 338.47 422.008 338.47C422.008 338.47 422.86 334.445 421.673 332.485C420.485 330.524 400.945 327.376 400.068 326.473C399.19 325.57 411.322 308.929 411.322 306.22C411.322 303.511 415.039 284.393 415.039 284.393Z" fill="white"/>
<path d="M431.404 334.497C431.404 334.497 433.237 336.845 433.831 337.128C434.424 337.412 434.812 337.335 434.812 337.335L433.573 335.116L431.404 334.497Z" fill="#FFB27D"/>
<path d="M430.991 332.072L436.309 334.652C436.309 334.652 436.076 335.013 435.431 334.987C434.786 334.961 433.134 334.342 433.134 334.342L430.991 332.072Z" fill="#FFB27D"/>
<path d="M433.83 340.741H475.853L488.475 309.316H446.53L433.83 340.741Z" fill="#E95E2A"/>
<path d="M476.343 339.502H420.872V340.741H475.853L476.343 339.502Z" fill="#BF4019"/>
<path d="M465.244 325.028C465.553 323.919 464.934 323.042 463.824 323.042C462.714 323.042 461.578 323.945 461.243 325.028C460.933 326.138 461.552 327.015 462.662 327.015C463.772 327.015 464.934 326.138 465.244 325.028Z" fill="white"/>
<path d="M239.566 376.293H239.437C237.888 376.293 236.598 375.029 236.598 373.455V313.805C236.598 312.257 237.862 310.967 239.437 310.967H239.566C241.115 310.967 242.405 312.232 242.405 313.805V373.455C242.38 375.029 241.115 376.293 239.566 376.293Z" fill="#B0D4FF"/>
<path d="M239.463 439.529H239.36C238.818 439.529 238.379 439.09 238.379 438.548L239.85 374.874L244.187 374.358L240.496 438.548C240.47 439.09 240.031 439.529 239.463 439.529Z" fill="#95C0F4"/>
<path d="M309.106 439.529H309.209C309.751 439.529 310.19 439.09 310.19 438.548L308.718 374.874L304.382 374.358L308.073 438.548C308.073 439.09 308.538 439.529 309.106 439.529Z" fill="#B0D4FF"/>
<path d="M308.795 370.901H301.516H262.849H236.598V373.61C236.598 375.906 238.456 377.789 240.779 377.789H262.849H301.516H308.795C310.499 377.789 311.893 376.396 311.893 374.693V373.971C311.867 372.294 310.499 370.901 308.795 370.901Z" fill="#B0D4FF"/>
<path d="M344.933 425.932C344.933 425.932 343.875 439.142 346.224 439.322C346.533 439.348 358.226 439.348 358.226 439.348L373.146 439.271C373.146 439.271 373.043 435.685 368.681 434.911C364.318 434.162 355.697 430.473 353.064 424.72C350.276 418.631 344.933 425.932 344.933 425.932Z" fill="#163560"/>
<path d="M255.208 353.589C255.208 353.589 255.698 366.566 257.996 370.927H310.757C310.757 370.927 323.43 372.242 324.592 373.094C326.037 374.177 319.507 384.859 344.003 426.655L356.006 426.345C356.006 426.345 343.461 358.568 341.241 356.866C337.911 354.311 298.883 345.359 292.197 345.178C285.486 344.946 255.208 353.589 255.208 353.589Z" fill="#BF4019"/>
<path d="M284.763 276.679C288.842 279.208 289.074 284.213 289.074 284.213C279.136 286.767 264.707 275.75 264.707 275.75C264.707 275.75 271.109 271.468 273.457 262.025C273.587 261.56 273.69 261.07 273.793 260.554C274.103 258.955 274.283 257.252 274.335 255.394L278.904 259.471L286.493 266.256C286.493 266.256 286.312 269.068 285.383 273.919C285.176 274.822 284.996 275.725 284.763 276.679Z" fill="#FFB27D"/>
<path d="M290.391 328.795C290.056 331.014 290.727 332.794 291.062 334.445C291.191 335.065 291.269 335.684 291.217 336.303C290.675 342.418 292.869 343.217 292.172 345.178C292.172 345.178 289.849 346.546 285.564 348.171C283.706 348.868 281.486 349.616 278.905 350.338C278.776 350.364 278.647 350.416 278.492 350.441C268.58 353.125 258.126 353.692 255.183 353.615C249.556 353.46 248.42 339.193 250.511 321.236C253.763 293.243 258.151 279.672 269.767 269.868C270.49 269.249 269.999 271.364 273.897 273.222C277.511 274.951 281.847 275.363 285.203 274.615L287.862 277.324C293.127 285.632 293.669 295.513 293.231 303.743C292.689 314.115 291.372 322.423 290.391 328.795Z" fill="#B0D4FF"/>
<path d="M286.467 266.308C286.467 266.308 286.88 265.895 285.925 270.719C277.536 268.294 274.8 264.011 273.664 261.173C273.354 260.374 276.787 259.935 278.878 259.496L286.467 266.308Z" fill="#ED975D"/>
<path d="M290.365 266.333C290.365 266.333 274.155 268.655 272.864 258.542C271.574 248.428 268.605 241.927 278.905 240.017C289.204 238.108 291.708 241.72 292.947 244.971C294.211 248.248 294.547 265.456 290.365 266.333Z" fill="#FFB27D"/>
<path d="M351.361 341.288L352.593 341.673L362.748 309.22L361.516 308.835L351.361 341.288Z" fill="#1C468A"/>
<path d="M316.936 341.31L352.631 341.68L352.653 339.539L316.958 339.169L316.936 341.31Z" fill="#1C468A"/>
<path d="M267.702 240.224C267.573 240.069 267.263 239.94 266.592 239.914C266.592 239.914 267.134 239.579 267.857 239.579C268.011 238.65 268.528 236.999 270.128 236.612C270.128 236.612 269.25 237.076 269.147 238.057C271.032 236.147 275.032 234.78 286.106 235.76C300.69 237.025 295.812 246.338 293.901 247.422C291.991 248.531 287.268 245.435 283.757 245.693C280.247 245.951 279.524 251.034 278.337 251.705C277.149 252.401 277.614 251.163 276.013 250.415C274.413 249.667 274.232 252.35 274.671 254.104C275.136 255.859 272.89 258.129 272.89 258.129C272.89 258.129 272.89 258.129 270.67 255.704C268.45 253.279 266.411 243.01 267.444 240.843C267.521 240.611 267.598 240.404 267.702 240.224Z" fill="#2C3A64"/>
<path d="M292.172 345.152C292.172 345.152 289.849 346.52 285.564 348.145C267.082 334.652 267.159 302.737 267.082 302.195L290.313 322.629L291.088 334.445C291.217 335.065 291.294 335.684 291.243 336.303C290.675 342.392 292.843 343.166 292.172 345.152Z" fill="#91B8EF"/>
<path d="M325.65 330.137C325.65 330.137 327.148 330.369 328.696 329.647C330.271 328.898 335.691 326.576 336.698 326.912C337.705 327.247 341.035 329.105 341.809 329.466C342.583 329.827 343.977 331.659 343.977 331.659C343.409 332.227 341.396 330.911 340.493 330.937C339.589 330.962 332.93 334.6 330.968 334.678C328.98 334.755 325.909 334.342 325.909 334.342L325.65 330.137Z" fill="#FFB27D"/>
<path d="M337.705 330.42C337.731 330.524 340.131 333.207 341.99 332.355L339.977 330.369L337.705 330.42Z" fill="#FFB27D"/>
<path d="M328.696 329.646C328.696 329.646 330.865 327.634 331.587 326.679C331.587 326.679 332.026 326.886 332.026 327.247C332.052 327.866 331.458 328.976 331.458 328.976L328.696 329.646Z" fill="#FFB27D"/>
<path d="M286.107 282.02C274.207 274.77 260.165 287.438 266.05 300.054C272.891 314.683 284.3 332.536 293.36 333.594C299.813 334.342 318.269 336.716 326.09 335.245C326.09 335.245 329.885 335.426 327.82 329.337C327.82 329.337 302.575 322.294 298.368 316.85C296.122 313.934 292.276 308 286.365 282.2C286.365 282.071 286.184 282.071 286.107 282.02Z" fill="#B0D4FF"/>
<path d="M606.155 439.529H606.284C607.033 439.529 607.652 438.91 607.626 438.161L605.587 350.183L599.599 349.487L604.71 438.161C604.761 438.935 605.406 439.529 606.155 439.529Z" fill="#739AF0"/>
<path d="M312.047 439.529H311.918C311.17 439.529 310.55 438.91 310.576 438.161L312.615 350.183L318.604 349.487L313.493 438.161C313.441 438.935 312.822 439.529 312.047 439.529Z" fill="#739AF0"/>
<path d="M611.369 351.809H306.084C303.865 351.809 302.058 350.003 302.058 347.784V345.204C302.058 342.985 303.865 341.179 306.084 341.179H611.369C613.589 341.179 615.396 342.985 615.396 345.204V347.784C615.396 350.003 613.589 351.809 611.369 351.809Z" fill="#739AF0"/>
<path d="M566.042 341.179H524.019L511.371 309.781H553.316L566.042 341.179Z" fill="#2B478B"/>
<path d="M523.528 339.967H579V341.179H524.019L523.528 339.967Z" fill="#2B478B"/>
<path d="M534.628 325.493C534.319 324.383 534.938 323.506 536.048 323.506C537.158 323.506 538.294 324.409 538.629 325.493C538.939 326.602 538.32 327.479 537.21 327.479C536.1 327.479 534.938 326.576 534.628 325.493Z" fill="white"/>
</svg>
