<svg width="64" height="69" viewBox="0 0 64 69" fill="none" xmlns="http://www.w3.org/2000/svg">
<g clip-path="url(#clip0)">
<path d="M30.5701 4.69995H58.7901C60.0385 4.70259 61.2349 5.19967 62.1177 6.0824C63.0004 6.96512 63.4975 8.16159 63.5001 9.40995V25.87C63.4948 27.1166 62.9966 28.3105 62.1142 29.1911C61.2317 30.0716 60.0367 30.5673 58.7901 30.57H43.5101V35C43.5093 35.1154 43.4746 35.2281 43.4103 35.324C43.3461 35.42 43.2551 35.495 43.1486 35.5397C43.0421 35.5844 42.9249 35.5969 42.8114 35.5756C42.6979 35.5543 42.5931 35.5002 42.5101 35.4199L37.6401 30.54H30.5701C29.3244 30.5373 28.1305 30.0413 27.2496 29.1604C26.3688 28.2796 25.8728 27.0857 25.8701 25.84V9.40995C25.8727 8.16332 26.3685 6.96835 27.249 6.08591C28.1296 5.20347 29.3235 4.70523 30.5701 4.69995Z" fill="#937D95"/>
<path d="M57.5799 14.11H39.9999V11.76H49.3699C49.6733 11.7635 49.9668 11.6521 50.1913 11.448C50.4158 11.2439 50.5547 10.9623 50.5799 10.66C50.5894 10.5 50.5663 10.3399 50.5119 10.1892C50.4575 10.0385 50.373 9.90052 50.2635 9.78356C50.154 9.66661 50.0219 9.57317 49.8752 9.50894C49.7284 9.44471 49.5701 9.41103 49.4099 9.40995H39.9999V4.69995H37.6299V21.17C37.6246 22.4166 37.1264 23.6105 36.244 24.4911C35.3615 25.3716 34.1666 25.8673 32.9199 25.87H25.9199C25.9238 26.6985 26.1519 27.5105 26.5799 28.22H32.9699C34.832 28.22 36.6187 27.4844 37.941 26.1734C39.2633 24.8623 40.0141 23.082 40.0299 21.22H44.6999C44.9859 21.2219 45.2632 21.1226 45.4829 20.9395C45.7026 20.7565 45.8503 20.5015 45.8999 20.22C45.9243 20.0522 45.9123 19.8812 45.8647 19.7185C45.8171 19.5558 45.735 19.4052 45.6239 19.2771C45.5129 19.149 45.3756 19.0463 45.2213 18.9761C45.067 18.9058 44.8994 18.8696 44.7299 18.87H39.9999V16.46H57.6199C57.7805 16.4603 57.9395 16.4276 58.0869 16.3639C58.2344 16.3002 58.3671 16.2067 58.4769 16.0895C58.5866 15.9722 58.6711 15.8336 58.7249 15.6823C58.7788 15.531 58.8009 15.3702 58.7899 15.21C58.7647 14.9076 58.6258 14.626 58.4013 14.4219C58.1768 14.2178 57.8833 14.1064 57.5799 14.11Z" fill="#744C76"/>
<path d="M57.6203 11.76H54.0903C53.9269 11.7751 53.7621 11.756 53.6065 11.7038C53.4509 11.6516 53.3079 11.5675 53.1867 11.4569C53.0654 11.3464 52.9685 11.2117 52.9023 11.0616C52.836 10.9114 52.8018 10.7491 52.8018 10.585C52.8018 10.4209 52.836 10.2586 52.9023 10.1085C52.9685 9.95836 53.0654 9.8237 53.1867 9.71312C53.3079 9.60254 53.4509 9.51848 53.6065 9.46629C53.7621 9.4141 53.9269 9.39494 54.0903 9.41003H57.6203C57.9132 9.43708 58.1855 9.57257 58.3837 9.78993C58.5819 10.0073 58.6918 10.2909 58.6918 10.585C58.6918 10.8792 58.5819 11.1628 58.3837 11.3801C58.1855 11.5975 57.9132 11.733 57.6203 11.76Z" fill="#B4ADBB"/>
<path d="M57.62 21.17H49.39C49.077 21.17 48.7769 21.0457 48.5556 20.8244C48.3343 20.6031 48.21 20.303 48.21 19.99C48.21 19.677 48.3343 19.3769 48.5556 19.1556C48.7769 18.9343 49.077 18.81 49.39 18.81H57.62C57.9329 18.81 58.2331 18.9343 58.4543 19.1556C58.6756 19.3769 58.8 19.677 58.8 19.99C58.8 20.303 58.6756 20.6031 58.4543 20.8244C58.2331 21.0457 57.9329 21.17 57.62 21.17Z" fill="#B4ADBB"/>
<path d="M57.6196 25.87H41.1596C40.9962 25.8851 40.8314 25.8659 40.6758 25.8138C40.5203 25.7616 40.3773 25.6775 40.256 25.5669C40.1347 25.4563 40.0379 25.3217 39.9716 25.1716C39.9053 25.0214 39.8711 24.8591 39.8711 24.695C39.8711 24.5309 39.9053 24.3686 39.9716 24.2185C40.0379 24.0683 40.1347 23.9337 40.256 23.8231C40.3773 23.7125 40.5203 23.6285 40.6758 23.5763C40.8314 23.5241 40.9962 23.5049 41.1596 23.52H57.6196C57.9125 23.5471 58.1848 23.6826 58.383 23.8999C58.5812 24.1173 58.6911 24.4008 58.6911 24.695C58.6911 24.9892 58.5812 25.2727 58.383 25.4901C58.1848 25.7075 57.9125 25.843 57.6196 25.87Z" fill="#744C76"/>
<path d="M32.92 1.90472e-10H4.7C3.4551 0.0052639 2.2627 0.502131 1.38241 1.38241C0.502131 2.2627 0.0052639 3.4551 0 4.7L0 21.17C0.0052639 22.4149 0.502131 23.6073 1.38241 24.4876C2.2627 25.3679 3.4551 25.8647 4.7 25.87H20V30.33C19.998 30.4468 20.0312 30.5614 20.0954 30.659C20.1597 30.7565 20.2518 30.8324 20.3599 30.8767C20.4679 30.921 20.5869 30.9317 20.7011 30.9073C20.8153 30.8829 20.9195 30.8246 21 30.74L25.88 25.87H32.93C34.1766 25.8674 35.3716 25.3717 36.254 24.4911C37.1365 23.6105 37.6347 22.4166 37.64 21.17V4.7C37.6347 3.45165 37.1351 2.25623 36.2505 1.37538C35.3659 0.494527 34.1684 -1.12068e-05 32.92 1.90472e-10V1.90472e-10Z" fill="#B4ADBB"/>
<path d="M9.4102 7.05995H5.8802C5.56724 7.05995 5.2671 6.93563 5.04581 6.71434C4.82452 6.49304 4.7002 6.19291 4.7002 5.87995C4.7002 5.567 4.82452 5.26686 5.04581 5.04557C5.2671 4.82427 5.56724 4.69995 5.8802 4.69995H9.4102C9.72315 4.69995 10.0233 4.82427 10.2446 5.04557C10.4659 5.26686 10.5902 5.567 10.5902 5.87995C10.5902 6.19291 10.4659 6.49304 10.2446 6.71434C10.0233 6.93563 9.72315 7.05995 9.4102 7.05995Z" fill="#937D95"/>
<path d="M31.7497 7.05995H14.1097C13.7967 7.05995 13.4966 6.93563 13.2753 6.71434C13.054 6.49304 12.9297 6.19291 12.9297 5.87995C12.9297 5.567 13.054 5.26686 13.2753 5.04557C13.4966 4.82427 13.7967 4.69995 14.1097 4.69995H31.7497C32.0626 4.69995 32.3628 4.82427 32.5841 5.04557C32.8054 5.26686 32.9297 5.567 32.9297 5.87995C32.9297 6.19291 32.8054 6.49304 32.5841 6.71434C32.3628 6.93563 32.0626 7.05995 31.7497 7.05995Z" fill="#744C76"/>
<path d="M31.7503 11.76H5.88031C5.7169 11.7751 5.55213 11.756 5.39654 11.7038C5.24095 11.6516 5.09796 11.5675 4.9767 11.4569C4.85544 11.3464 4.75858 11.2117 4.6923 11.0616C4.62603 10.9114 4.5918 10.7491 4.5918 10.585C4.5918 10.4209 4.62603 10.2586 4.6923 10.1085C4.75858 9.95836 4.85544 9.8237 4.9767 9.71312C5.09796 9.60254 5.24095 9.51848 5.39654 9.46629C5.55213 9.4141 5.7169 9.39494 5.88031 9.41003H31.7503C32.0432 9.43708 32.3155 9.57257 32.5137 9.78993C32.7119 10.0073 32.8218 10.2909 32.8218 10.585C32.8218 10.8792 32.7119 11.1628 32.5137 11.3801C32.3155 11.5975 32.0432 11.733 31.7503 11.76Z" fill="#744C76"/>
<path d="M31.7502 16.46H28.2202C28.0567 16.4751 27.892 16.4559 27.7364 16.4037C27.5808 16.3515 27.4378 16.2675 27.3165 16.1569C27.1953 16.0463 27.0984 15.9117 27.0321 15.7615C26.9659 15.6114 26.9316 15.4491 26.9316 15.285C26.9316 15.1209 26.9659 14.9586 27.0321 14.8084C27.0984 14.6583 27.1953 14.5237 27.3165 14.4131C27.4378 14.3025 27.5808 14.2184 27.7364 14.1662C27.892 14.1141 28.0567 14.0949 28.2202 14.11H31.7502C32.0431 14.137 32.3153 14.2725 32.5135 14.4899C32.7118 14.7072 32.8216 14.9908 32.8216 15.285C32.8216 15.5792 32.7118 15.8627 32.5135 16.0801C32.3153 16.2974 32.0431 16.4329 31.7502 16.46Z" fill="#937D95"/>
<path d="M23.5203 16.46H5.88031C5.7169 16.4751 5.55213 16.4559 5.39654 16.4037C5.24095 16.3515 5.09796 16.2675 4.9767 16.1569C4.85544 16.0463 4.75858 15.9117 4.6923 15.7615C4.62603 15.6114 4.5918 15.4491 4.5918 15.285C4.5918 15.1209 4.62603 14.9586 4.6923 14.8084C4.75858 14.6583 4.85544 14.5237 4.9767 14.4131C5.09796 14.3025 5.24095 14.2184 5.39654 14.1662C5.55213 14.1141 5.7169 14.0949 5.88031 14.11H23.5203C23.8132 14.137 24.0855 14.2725 24.2837 14.4899C24.4819 14.7072 24.5918 14.9908 24.5918 15.285C24.5918 15.5792 24.4819 15.8627 24.2837 16.0801C24.0855 16.2974 23.8132 16.4329 23.5203 16.46Z" fill="#744C76"/>
<path d="M31.7502 21.17H5.8802C5.56724 21.17 5.2671 21.0457 5.04581 20.8244C4.82452 20.6031 4.7002 20.303 4.7002 19.99C4.7002 19.677 4.82452 19.3769 5.04581 19.1556C5.2671 18.9343 5.56724 18.81 5.8802 18.81H31.7502C32.0632 18.81 32.3633 18.9343 32.5846 19.1556C32.8059 19.3769 32.9302 19.677 32.9302 19.99C32.9302 20.303 32.8059 20.6031 32.5846 20.8244C32.3633 21.0457 32.0632 21.17 31.7502 21.17Z" fill="#744C76"/>
<path d="M20.1704 58.98V55.18H10.4004V58.98L15.2904 63.32L20.1704 58.98Z" fill="#ECBB88"/>
<path d="M27.7197 60.75L20.9997 59.17C20.9006 59.1501 20.8058 59.1129 20.7197 59.06L15.2797 62.23L10.0597 58.9C9.92264 59.0365 9.74896 59.1303 9.55969 59.17L2.84969 60.75C2.37452 60.8625 1.95119 61.132 1.64814 61.5149C1.3451 61.8978 1.18005 62.3717 1.17969 62.86V67.12C1.17969 67.4065 1.29347 67.6812 1.49601 67.8837C1.69855 68.0862 1.97325 68.2 2.25969 68.2H28.3097C28.597 68.2 28.8728 68.0866 29.0769 67.8843C29.281 67.6821 29.3971 67.4074 29.3997 67.12V62.86C29.397 62.3708 29.2299 61.8967 28.9252 61.514C28.6204 61.1313 28.1959 60.8622 27.7197 60.75Z" fill="#EFF2FA"/>
<path d="M10.4004 55.18V59.18C16.5604 61.4 20.1704 55.85 20.1704 55.85V55.18H10.4004Z" fill="#D29B6E"/>
<path d="M8.23047 42.69L8.70047 53.1C8.723 53.579 8.85124 54.0471 9.076 54.4706C9.30075 54.8942 9.61646 55.2628 10.0005 55.55L12.2505 57.24C12.8134 57.6613 13.4974 57.8893 14.2005 57.89H16.3705C17.0903 57.898 17.7929 57.6696 18.3705 57.24L20.6105 55.55C20.9945 55.2628 21.3102 54.8942 21.5349 54.4706C21.7597 54.0471 21.8879 53.579 21.9105 53.1L22.3805 42.69H8.23047Z" fill="#F1D0A4"/>
<path d="M13.6605 44.86C15.8305 44.86 19.0905 44.32 19.8605 42.69H8.23047L8.70047 53.1C8.723 53.579 8.85124 54.0471 9.076 54.4706C9.30075 54.8942 9.61646 55.2628 10.0005 55.55L12.2505 57.24C12.8134 57.6613 13.4974 57.8893 14.2005 57.89H15.2905C14.2005 57.89 12.0005 55.72 12.0005 53V46.49C12.025 46.0606 12.2086 45.6557 12.5156 45.3543C12.8225 45.0529 13.2307 44.8767 13.6605 44.86Z" fill="#ECBB88"/>
<path d="M25.4098 64.68L28.9298 61.52C29.2316 61.9017 29.397 62.3734 29.3998 62.86V67.12C29.3971 67.4074 29.2811 67.6821 29.077 67.8843C28.8729 68.0866 28.5971 68.2 28.3098 68.2H24.5098V66.7C24.51 66.3191 24.5902 65.9424 24.7452 65.5944C24.9003 65.2464 25.1267 64.9349 25.4098 64.68Z" fill="#E4EAF6"/>
<path d="M5.15969 64.68L1.63969 61.52C1.34076 61.9026 1.17879 62.3745 1.17969 62.86V67.12C1.17969 67.4065 1.29348 67.6812 1.49602 67.8837C1.69856 68.0862 1.97326 68.2 2.25969 68.2H6.05969V66.7C6.0595 66.3191 5.97928 65.9424 5.82424 65.5944C5.6692 65.2464 5.4428 64.9349 5.15969 64.68Z" fill="#E4EAF6"/>
<path d="M16.6397 68.2H13.9297L14.2697 63.32H16.2997L16.6397 68.2Z" fill="#E5531C"/>
<path d="M16.6397 62.23H13.9297V62.54C13.9297 62.8883 14.0674 63.2226 14.3128 63.4698C14.5582 63.7171 14.8913 63.8573 15.2397 63.86H15.3297C15.678 63.8573 16.0112 63.7171 16.2566 63.4698C16.502 63.2226 16.6397 62.8883 16.6397 62.54V62.23Z" fill="#E5531C"/>
<path d="M10.3295 57.77L15.3295 62.23C14.2239 62.8298 13.1819 63.5401 12.2195 64.35C12.1367 64.4179 12.0394 64.4658 11.9351 64.4902C11.8309 64.5145 11.7224 64.5146 11.6181 64.4905C11.5138 64.4663 11.4164 64.4186 11.3334 64.3509C11.2505 64.2832 11.1841 64.1974 11.1395 64.1L8.76953 59L9.50953 57.9C9.55004 57.8319 9.60505 57.7736 9.67064 57.7291C9.73623 57.6847 9.8108 57.6552 9.88905 57.6428C9.96731 57.6304 10.0473 57.6353 10.1235 57.6573C10.1996 57.6793 10.2699 57.7178 10.3295 57.77Z" fill="#E4EAF6"/>
<path d="M20.25 57.77L15.25 62.23C16.3531 62.8288 17.3919 63.5392 18.35 64.35C18.4328 64.4179 18.5301 64.4658 18.6344 64.4902C18.7387 64.5145 18.8471 64.5146 18.9514 64.4905C19.0558 64.4663 19.1532 64.4186 19.2361 64.3509C19.3191 64.2832 19.3854 64.1974 19.43 64.1L21.8 59L21.06 57.9C21.0205 57.8322 20.9665 57.7739 20.9018 57.7295C20.8371 57.685 20.7633 57.6555 20.6858 57.6431C20.6083 57.6307 20.529 57.6356 20.4536 57.6576C20.3783 57.6795 20.3087 57.7179 20.25 57.77Z" fill="#E4EAF6"/>
<path d="M18.5801 39.1L19.0901 42.69C21.4101 43.16 21.7401 46.8 21.7901 47.84C21.799 48.0286 21.8576 48.2114 21.9601 48.37L22.8501 49.75C22.7128 48.4075 23.0997 47.0638 23.9301 46C23.9301 46 24.4101 36.93 18.5801 39.1Z" fill="#2D2D7B"/>
<path d="M23.3904 49.52L22.7804 52C22.7465 52.141 22.6656 52.2662 22.5512 52.3553C22.4367 52.4443 22.2954 52.4918 22.1504 52.49C21.991 52.4912 21.8368 52.4338 21.7169 52.3288C21.5971 52.2237 21.52 52.0782 21.5004 51.92L21.1904 49.41C21.1706 49.2525 21.1845 49.0925 21.2311 48.9407C21.2778 48.7889 21.3563 48.6488 21.4612 48.5297C21.5662 48.4105 21.6953 48.315 21.84 48.2496C21.9847 48.1841 22.1416 48.1502 22.3004 48.15C22.468 48.1521 22.633 48.1915 22.7835 48.2652C22.934 48.339 23.0662 48.4453 23.1705 48.5764C23.2748 48.7075 23.3487 48.8602 23.3867 49.0234C23.4248 49.1866 23.426 49.3563 23.3904 49.52Z" fill="#F0C087"/>
<path d="M8.75032 38.13L9.55032 38.67C5.92032 41.35 6.60032 46 6.60032 46C7.69032 47.08 7.69032 49.8 7.69032 49.8L8.77032 48.71C8.77032 48.71 8.35032 45.58 10.4003 44.37C12.3003 43.25 13.9603 43.83 15.6603 43.83C20.2003 43.83 21.4803 42.12 21.2603 40.03C21.1403 38.95 19.4903 36.7 15.2603 36.77C13.0255 36.8219 10.819 37.2829 8.75032 38.13Z" fill="#2D2D7B"/>
<path d="M8.43032 43.3C8.29102 42.4927 8.31853 41.6654 8.51115 40.8691C8.70377 40.0728 9.05742 39.3244 9.55032 38.67C5.92032 41.35 6.60032 46 6.60032 46C7.69032 47.08 7.69032 49.8 7.69032 49.8L8.77032 48.71C8.77032 48.71 8.35032 45.58 10.4003 44.37C12.3003 43.25 13.9603 43.83 15.6603 43.83C16.3296 43.8361 16.9984 43.7893 17.6603 43.69C14.1203 43.76 12.0503 41.11 8.43032 43.3Z" fill="#2D2D7B"/>
<path d="M7.1801 49.52L7.7901 52C7.82766 52.1409 7.91082 52.2654 8.02661 52.354C8.14239 52.4427 8.28428 52.4905 8.4301 52.49C8.58776 52.4888 8.7396 52.4303 8.85734 52.3254C8.97508 52.2205 9.0507 52.0765 9.0701 51.92L9.3901 49.41C9.41006 49.2516 9.39593 49.0908 9.34865 48.9383C9.30137 48.7858 9.22205 48.6452 9.11598 48.5259C9.00992 48.4066 8.87958 48.3113 8.73369 48.2465C8.5878 48.1816 8.42974 48.1487 8.2701 48.15C8.10253 48.1521 7.93753 48.1915 7.78705 48.2652C7.63656 48.3389 7.50437 48.4452 7.40003 48.5764C7.29569 48.7075 7.22183 48.8602 7.18379 49.0234C7.14575 49.1866 7.14449 49.3562 7.1801 49.52Z" fill="#ECBB88"/>
<path d="M21.8 67.12H19.09C18.9473 67.1187 18.8058 67.1456 18.6736 67.1993C18.5414 67.253 18.4212 67.3323 18.3199 67.4327C18.2185 67.5332 18.1381 67.6527 18.0832 67.7844C18.0283 67.916 18 68.0573 18 68.2H22.88C22.88 67.9135 22.7662 67.6388 22.5637 67.4363C22.3611 67.2338 22.0864 67.12 21.8 67.12Z" fill="#E4EAF6"/>
<path d="M45.86 37.07C34.86 37.07 36.12 50.39 36.17 60.07C36.1744 60.2477 36.2234 60.4214 36.3125 60.5752C36.4017 60.7289 36.528 60.8578 36.68 60.95C39.4753 62.5488 42.6397 63.3898 45.86 63.3898C49.0802 63.3898 52.2447 62.5488 55.04 60.95C55.1941 60.8611 55.3217 60.7326 55.4095 60.5779C55.4974 60.4232 55.5425 60.2479 55.54 60.07C55.59 50.39 56.81 37.07 45.86 37.07Z" fill="#694B4B"/>
<path d="M45.1502 37.1C34.9702 37.67 36.1502 50.6 36.1502 60.04C36.1546 60.2177 36.2036 60.3914 36.2927 60.5451C36.3819 60.6989 36.5082 60.8278 36.6602 60.92C39.4491 62.5343 42.6178 63.3765 45.8402 63.36L48.6302 44" fill="#2D2D7B"/>
<path d="M45.8602 37.07C39.6302 37.07 39.2002 44.6 39.2002 44.6C42.7902 43.99 44.9902 45.5 48.6302 43.99L45.8602 63.36C49.0689 63.368 52.2224 62.5261 55.0002 60.92C55.1543 60.8311 55.2819 60.7026 55.3697 60.5479C55.4576 60.3932 55.5027 60.2179 55.5002 60.04C55.5902 50.39 56.8102 37.07 45.8602 37.07Z" fill="#487C9F"/>
<path d="M55.5405 60C55.5905 51.71 56.4805 40.72 49.7905 37.79C49.5292 38.9297 49.6021 40.1206 50.0005 41.22C51.3905 44 52.7805 44 54.1605 46.07C55.5405 53.68 51.5205 61.75 50.1605 62.85C51.8611 62.4518 53.4925 61.8012 55.0005 60.92C55.1681 60.8332 55.3078 60.7008 55.4034 60.538C55.4989 60.3752 55.5465 60.1887 55.5405 60Z" fill="#2D2D7B"/>
<path d="M56.3396 62.13L50.1696 59.56C49.9178 59.4567 49.7025 59.2807 49.5511 59.0545C49.3997 58.8283 49.3191 58.5622 49.3196 58.29V56.61H42.3996V58.29C42.3988 58.5619 42.3177 58.8274 42.1665 59.0534C42.0152 59.2793 41.8006 59.4556 41.5496 59.56L35.3796 62.13C35.0006 62.2879 34.6767 62.5545 34.4489 62.8962C34.2212 63.2379 34.0996 63.6393 34.0996 64.05V66.82C34.0996 67.186 34.245 67.537 34.5038 67.7958C34.7626 68.0546 35.1136 68.2 35.4796 68.2H56.2296C56.4117 68.2013 56.5922 68.1666 56.7608 68.0978C56.9294 68.0291 57.0827 67.9276 57.2119 67.7993C57.3411 67.6711 57.4436 67.5185 57.5136 67.3504C57.5836 67.1823 57.6196 67.0021 57.6196 66.82V64.05C57.6183 63.6396 57.4962 63.2388 57.2686 62.8973C57.041 62.5559 56.7179 62.289 56.3396 62.13Z" fill="#ECBB88"/>
<path d="M56.3403 62.13L50.3403 59.65L45.8303 61.65L41.3103 59.65L35.3103 62.13C34.9312 62.288 34.6074 62.5546 34.3796 62.8962C34.1518 63.2379 34.0303 63.6394 34.0303 64.05V66.82C34.0303 67.186 34.1757 67.537 34.4345 67.7958C34.6933 68.0546 35.0443 68.2 35.4103 68.2H56.2303C56.4123 68.2013 56.5929 68.1666 56.7614 68.0979C56.93 68.0291 57.0833 67.9277 57.2126 67.7994C57.3418 67.6711 57.4443 67.5185 57.5143 67.3504C57.5843 67.1824 57.6203 67.0021 57.6203 66.82V64.05C57.619 63.6397 57.4969 63.2388 57.2693 62.8974C57.0417 62.5559 56.7186 62.2891 56.3403 62.13Z" fill="#EFF2FA"/>
<path d="M49.3198 56.61H42.3998V58.29C42.399 58.5619 42.3179 58.8274 42.1666 59.0534C42.0154 59.2793 41.8008 59.4556 41.5498 59.56L40.5498 59.96C47.9998 61.85 49.3198 56.61 49.3198 56.61Z" fill="#D29B6E"/>
<path d="M37.4696 64.81L34.6996 62.6C34.5093 62.7904 34.3583 63.0165 34.2554 63.2653C34.1524 63.5141 34.0995 63.7807 34.0996 64.05V66.82C34.0996 67.186 34.245 67.537 34.5038 67.7958C34.7626 68.0546 35.1136 68.2 35.4796 68.2H38.2496V66.43C38.2491 66.1188 38.1787 65.8117 38.0437 65.5313C37.9087 65.251 37.7125 65.0045 37.4696 64.81Z" fill="#E4EAF6"/>
<path d="M57.6198 66.82V64.05C57.611 63.507 57.3881 62.9895 56.9998 62.61L54.2198 64.81C53.9723 65.0004 53.7729 65.2461 53.6375 65.5274C53.502 65.8087 53.4343 66.1178 53.4398 66.43V68.2H56.1998C56.3843 68.2053 56.5681 68.1736 56.7402 68.1066C56.9122 68.0397 57.0691 67.9389 57.2015 67.8102C57.3339 67.6815 57.4392 67.5276 57.511 67.3575C57.5829 67.1874 57.6198 67.0046 57.6198 66.82Z" fill="#E4EAF6"/>
<path d="M46 66.82H45.8C45.6435 66.82 45.4934 66.7578 45.3828 66.6472C45.2721 66.5365 45.21 66.3865 45.21 66.23V61.6H46.59V66.23C46.59 66.3865 46.5278 66.5365 46.4172 66.6472C46.3065 66.7578 46.1564 66.82 46 66.82Z" fill="#E4EAF6"/>
<path d="M45.86 61.6L41.86 58.6C41.8004 58.5545 41.7322 58.5217 41.6594 58.5035C41.5867 58.4854 41.511 58.4823 41.437 58.4945C41.363 58.5067 41.2923 58.5338 41.2292 58.5743C41.1661 58.6148 41.1119 58.6678 41.07 58.73L40.29 59.91L42.71 63.3C42.7545 63.3607 42.8106 63.4119 42.8749 63.4508C42.9393 63.4896 43.0107 63.5154 43.0851 63.5265C43.1594 63.5377 43.2353 63.534 43.3082 63.5157C43.3811 63.4975 43.4497 63.4649 43.51 63.42L45.86 61.6Z" fill="#E5531C"/>
<path d="M45.8604 61.6L49.8604 58.6C49.92 58.5545 49.9882 58.5217 50.061 58.5035C50.1337 58.4854 50.2094 58.4823 50.2834 58.4945C50.3574 58.5067 50.4281 58.5338 50.4912 58.5743C50.5543 58.6148 50.6085 58.6678 50.6504 58.73L51.4304 59.91L49.0004 63.33C48.9559 63.3907 48.8998 63.4419 48.8355 63.4808C48.7711 63.5196 48.6997 63.5454 48.6253 63.5565C48.551 63.5677 48.4751 63.564 48.4022 63.5457C48.3293 63.5275 48.2607 63.4949 48.2004 63.45L45.8604 61.6Z" fill="#E5531C"/>
<path d="M49.3203 43.3C45.8603 46.76 39.0703 43.99 39.0703 49.52L39.5003 53.6C39.5409 54.0491 39.6906 54.4816 39.9363 54.8598C40.182 55.2379 40.5164 55.5504 40.9103 55.77L44.8503 58C45.1565 58.1689 45.5006 58.2576 45.8503 58.2576C46.2001 58.2576 46.5441 58.1689 46.8503 58L50.7803 55.81C51.1755 55.5909 51.5114 55.2788 51.7588 54.9007C52.0063 54.5226 52.1578 54.0899 52.2003 53.64L52.6903 48.8C52.7181 48.4672 52.7181 48.1327 52.6903 47.8C52.4803 46 50.0003 44.68 49.3203 43.3Z" fill="#F1D0A4"/>
<path d="M39.0703 49.52L39.5003 53.6C39.5409 54.0491 39.6906 54.4816 39.9363 54.8598C40.182 55.2379 40.5164 55.5504 40.9103 55.77L44.8503 58C45.2814 58.2322 45.7802 58.3065 46.2603 58.21C46.2603 58.21 44.2603 57.61 43.0903 54.41C42.7303 53.41 42.2303 48.24 42.6603 47.61C43.5103 46.35 48.2803 46.22 49.6603 43.9C49.5903 43.81 49.5203 43.72 49.4703 43.64C49.4116 43.5498 49.3582 43.4563 49.3103 43.36C45.8603 46.76 39.0703 44 39.0703 49.52Z" fill="#ECBB88"/>
<path d="M50.9097 66.82H49.1097C48.9544 66.8187 48.8004 66.8483 48.6566 66.9071C48.5128 66.9659 48.3822 67.0528 48.2724 67.1626C48.1625 67.2725 48.0757 67.4031 48.0168 67.5468C47.958 67.6906 47.9284 67.8447 47.9297 68V68.21H52.0797V68C52.0811 67.8455 52.0518 67.6923 51.9936 67.5492C51.9353 67.4061 51.8494 67.2759 51.7406 67.1662C51.6318 67.0565 51.5024 66.9694 51.3598 66.91C51.2172 66.8506 51.0642 66.82 50.9097 66.82Z" fill="#E5531C"/>
</g>
<defs>
<clipPath id="clip0">
<rect width="63.5" height="68.2" fill="white"/>
</clipPath>
</defs>
</svg>
