<svg width="177" height="40" viewBox="0 0 177 40" fill="none" xmlns="http://www.w3.org/2000/svg">
<path d="M47.8086 4.96289H59.1793V7.71993H51.1158V11.327H58.186V14.0611H51.1158V20.632H47.8086V4.96289Z" fill="#545358"/>
<path d="M64.3795 4.95117H61.0723V20.6318H64.3795V4.95117Z" fill="#545358"/>
<path d="M67.4531 4.95117H70.9473L77.2813 15.8874V4.95117H80.3898V20.6318H77.0592L70.5617 9.50028V20.6318H67.4531V4.95117Z" fill="#545358"/>
<path d="M86.5601 4.95117H83.2412V20.6318H86.5601V4.95117Z" fill="#545358"/>
<path d="M92.0761 15.7956C92.1266 16.3724 92.3367 16.9246 92.6838 17.3924C93.0538 17.7521 93.5005 18.0263 93.9917 18.1952C94.4829 18.3641 95.0062 18.4234 95.5236 18.3688C96.1873 18.3844 96.8495 18.2991 97.4868 18.1161C97.8995 18.0149 98.2652 17.7792 98.5241 17.4475C98.783 17.1158 98.9199 16.7076 98.9126 16.2895C98.9069 16.0548 98.8394 15.8254 98.7164 15.6241C98.5935 15.4227 98.4195 15.2561 98.2114 15.1408C97.5133 14.7868 96.7647 14.5389 95.991 14.4056L94.2614 14.038C93.0296 13.8424 91.8427 13.434 90.7556 12.8318C90.2132 12.4507 89.7799 11.9387 89.4974 11.3451C89.215 10.7515 89.0929 10.0964 89.1429 9.4429C89.1377 8.79064 89.276 8.14498 89.5483 7.55015C89.8206 6.95532 90.2204 6.42537 90.7205 5.99661C92.0462 4.97337 93.7146 4.47724 95.395 4.6066C96.951 4.56241 98.4786 5.02259 99.7423 5.91619C100.332 6.34486 100.813 6.90181 101.148 7.5435C101.482 8.18519 101.661 8.89424 101.671 9.61522H98.4101C98.4024 9.19682 98.2785 8.78844 98.052 8.43415C97.8255 8.07986 97.5048 7.79312 97.1246 7.60488C96.5006 7.32982 95.8216 7.19632 95.1379 7.2143C94.3982 7.18092 93.6643 7.35631 93.0227 7.71976C92.7694 7.87265 92.5629 8.09004 92.4251 8.3489C92.2872 8.60776 92.2232 8.89845 92.2397 9.19018C92.2325 9.45108 92.3026 9.70842 92.4417 9.93078C92.5807 10.1531 92.7826 10.3309 93.0227 10.4423C93.6994 10.7384 94.4094 10.9543 95.1379 11.0856L97.9309 11.7404C98.9264 11.9265 99.8704 12.318 100.701 12.8892C101.177 13.2736 101.555 13.7632 101.803 14.3181C102.05 14.8731 102.161 15.4777 102.126 16.0828C102.137 16.7638 101.99 17.4383 101.696 18.0553C101.403 18.6722 100.97 19.2155 100.432 19.6439C99.0664 20.6717 97.3682 21.1778 95.6521 21.0684C93.8862 21.1701 92.138 20.6756 90.6971 19.6669C90.1068 19.2155 89.6352 18.6315 89.3221 17.9639C89.0089 17.2962 88.8633 16.5645 88.8975 15.83L92.0761 15.7956Z" fill="#545358"/>
<path d="M116.056 4.95117V7.7197H111.276V20.6318H107.922V7.7197H103.131V4.95117H116.056Z" fill="#545358"/>
<path d="M129.8 7.7197H121.362V11.0511H129.11V13.7737H121.362V17.8173H130.197V20.6318H118.102V4.95117H129.8V7.7197Z" fill="#545358"/>
<path d="M143.017 5.35308C143.602 5.60616 144.113 6.00146 144.501 6.50185C144.838 6.89848 145.11 7.34416 145.307 7.82293C145.512 8.35064 145.612 8.91238 145.599 9.47715C145.595 10.2437 145.399 10.9975 145.027 11.6713C144.831 12.0375 144.563 12.3615 144.238 12.6239C143.913 12.8864 143.537 13.082 143.134 13.1991C143.788 13.4184 144.343 13.8578 144.7 14.4398C145.055 15.2061 145.215 16.0459 145.167 16.8867V17.9435C145.15 18.4313 145.177 18.9196 145.249 19.4025C145.282 19.5861 145.355 19.7608 145.462 19.9152C145.568 20.0695 145.707 20.2001 145.868 20.2985V20.6776H142.187C142.082 20.333 142.012 20.0458 141.965 19.839C141.883 19.3914 141.836 18.9382 141.825 18.4835V16.9786C141.892 16.2707 141.702 15.5623 141.287 14.9797C140.742 14.5869 140.066 14.4105 139.394 14.4858H136.134V20.6776H132.873V4.95102H140.504C141.364 4.9244 142.221 5.06091 143.028 5.35308H143.017ZM136.134 7.65061V11.8666H139.721C140.268 11.8952 140.815 11.805 141.322 11.6024C141.642 11.4376 141.904 11.1816 142.073 10.8678C142.242 10.5541 142.31 10.1974 142.269 9.84475C142.318 9.48104 142.263 9.11107 142.11 8.77629C141.958 8.44151 141.713 8.15515 141.404 7.94929C140.92 7.73674 140.391 7.64216 139.861 7.67359L136.134 7.65061Z" fill="#545358"/>
<path d="M159.026 5.35308C159.614 5.60876 160.128 6.00342 160.522 6.50185C160.83 6.88688 161.082 7.31218 161.27 7.76549C161.475 8.2932 161.574 8.85494 161.562 9.41971C161.558 10.1863 161.362 10.94 160.99 11.6139C160.794 11.9801 160.526 12.3041 160.201 12.5665C159.875 12.8289 159.5 13.0245 159.096 13.1417C159.751 13.3609 160.306 13.8003 160.662 14.3824C161.018 15.1487 161.178 15.9884 161.13 16.8292V17.8861C161.113 18.3738 161.14 18.8621 161.212 19.345C161.245 19.5287 161.318 19.7034 161.425 19.8577C161.531 20.0121 161.67 20.1427 161.831 20.2411V20.6776H158.15C158.045 20.333 157.975 20.0458 157.928 19.839C157.846 19.3914 157.799 18.9382 157.788 18.4835V17.0245C157.864 16.3177 157.677 15.6076 157.262 15.0257C156.716 14.6328 156.04 14.4564 155.369 14.5317H152.108V20.6776H148.848V4.95102H156.479C157.339 4.9244 158.196 5.06091 159.003 5.35308H159.026ZM152.108 7.65061V11.8666H155.696C156.243 11.8952 156.789 11.805 157.297 11.6024C157.617 11.4376 157.878 11.1816 158.047 10.8678C158.216 10.5541 158.285 10.1974 158.243 9.84475C158.292 9.47292 158.233 9.09508 158.071 8.75538C157.91 8.41568 157.653 8.12813 157.332 7.92632C156.848 7.71377 156.319 7.61919 155.789 7.65061H152.108Z" fill="#545358"/>
<path d="M176.602 7.7197H168.165V11.0511H175.913V13.7737H168.165V17.8173H177V20.6318H164.904V4.95117H176.602V7.7197Z" fill="#545358"/>
<path d="M109.115 35.3704C109.342 35.7714 109.683 36.0987 110.096 36.3124C110.512 36.533 110.979 36.6438 111.452 36.6341C111.758 36.6377 112.063 36.5871 112.352 36.4847C112.616 36.4013 112.862 36.2687 113.076 36.0942C113.284 35.9251 113.451 35.7134 113.567 35.4738C113.69 35.219 113.754 34.9404 113.754 34.6582C113.764 34.3547 113.682 34.0551 113.52 33.7966C113.37 33.565 113.166 33.372 112.924 33.2337C112.66 33.0757 112.377 32.9484 112.083 32.8546L111.113 32.5445C110.787 32.4447 110.467 32.3258 110.155 32.1884C109.843 32.0633 109.555 31.8886 109.302 31.6714C109.05 31.4503 108.847 31.1805 108.706 30.8788C108.552 30.515 108.476 30.1239 108.484 29.73C108.482 29.3319 108.574 28.9388 108.752 28.5812C108.924 28.2434 109.172 27.9486 109.477 27.7197C109.787 27.481 110.14 27.3018 110.517 27.1912C110.919 27.0754 111.336 27.0173 111.756 27.0189C112.298 26.98 112.843 27.0504 113.357 27.2257C113.851 27.4312 114.276 27.7696 114.584 28.2021L113.766 28.7765C113.548 28.4668 113.26 28.2111 112.924 28.0298C112.561 27.8543 112.16 27.7676 111.756 27.7771C111.459 27.7771 111.164 27.8196 110.879 27.9035C110.612 27.9726 110.362 28.0937 110.143 28.2596C109.94 28.4196 109.773 28.6191 109.652 28.8454C109.521 29.1056 109.457 29.3937 109.465 29.684C109.435 30.1019 109.574 30.5144 109.851 30.8328C110.123 31.1135 110.454 31.333 110.821 31.4761C111.234 31.6448 111.66 31.783 112.095 31.8897C112.532 31.9996 112.955 32.1575 113.357 32.3607C113.746 32.5553 114.083 32.8389 114.338 33.1878C114.618 33.6272 114.753 34.1407 114.724 34.6582C114.72 35.0545 114.633 35.4457 114.467 35.807C114.298 36.1461 114.059 36.4472 113.766 36.6915C113.466 36.9371 113.12 37.1243 112.749 37.2429C112.372 37.3644 111.977 37.4264 111.58 37.4267C110.943 37.4338 110.31 37.3126 109.722 37.0706C109.136 36.8348 108.632 36.4355 108.273 35.9218L109.115 35.3704ZM96.6921 32.1654C96.6826 32.7721 96.7855 33.3755 96.9959 33.946C97.1832 34.4665 97.4776 34.9436 97.8607 35.3475C98.241 35.7507 98.7027 36.0716 99.2163 36.2894C100.371 36.7493 101.662 36.7493 102.816 36.2894C103.329 36.0716 103.791 35.7507 104.171 35.3475C104.554 34.9436 104.849 34.4665 105.036 33.946C105.247 33.3755 105.349 32.7721 105.34 32.1654C105.344 31.5703 105.241 30.9792 105.036 30.4193C104.849 29.8987 104.554 29.4216 104.171 29.0178C103.793 28.6336 103.34 28.3288 102.839 28.1217C101.685 27.6619 100.394 27.6619 99.2397 28.1217C98.7261 28.3396 98.2644 28.6604 97.8841 29.0637C97.4926 29.4654 97.1902 29.9427 96.9959 30.4652C96.7965 31.0107 96.6937 31.5857 96.6921 32.1654ZM95.7338 32.1654C95.7298 31.4425 95.8646 30.7254 96.1312 30.0516C96.3756 29.4328 96.7408 28.8669 97.2063 28.3859C97.6752 27.892 98.2445 27.5006 98.8774 27.2372C100.254 26.7159 101.778 26.7159 103.155 27.2372C103.787 27.5006 104.357 27.892 104.826 28.3859C105.291 28.8669 105.656 29.4328 105.901 30.0516C106.431 31.4127 106.431 32.918 105.901 34.2791C105.659 34.8993 105.294 35.4657 104.826 35.9448C104.357 36.4388 103.787 36.8302 103.155 37.0936C101.778 37.6149 100.254 37.6149 98.8774 37.0936C98.2445 36.8302 97.6752 36.4388 97.2063 35.9448C96.7384 35.4657 96.3728 34.8993 96.1312 34.2791C95.8646 33.6054 95.7298 32.8883 95.7338 32.1654ZM87.4366 27.1453H90.662C90.9128 27.1569 91.1625 27.1837 91.4099 27.2257C91.6883 27.2809 91.9619 27.3577 92.2279 27.4554C92.51 27.5568 92.7684 27.7131 92.9876 27.9149C93.2099 28.1459 93.381 28.4197 93.4901 28.7191C93.7929 29.456 93.7929 30.2797 93.4901 31.0166C93.331 31.31 93.1122 31.5681 92.8473 31.7748C92.5959 31.969 92.3109 32.1169 92.0059 32.2113C91.72 32.3012 91.4268 32.3665 91.1294 32.4066L94.0977 37.2199H93.0226L90.1595 32.4641H88.3832V37.2199H87.4366V27.1453ZM88.3832 31.568H90.4049C90.8025 31.5768 91.1985 31.5145 91.5735 31.3842C91.8459 31.3136 92.1006 31.1885 92.3214 31.0166C92.4807 30.8535 92.6006 30.6571 92.672 30.4422C92.7994 30.0695 92.7994 29.6661 92.672 29.2935C92.6033 29.0773 92.4831 28.8804 92.3214 28.7191C92.1125 28.5157 91.8614 28.3589 91.5852 28.2596C91.2102 28.1292 90.8142 28.067 90.4166 28.0758H88.3832V31.568ZM84.4099 33.3371C84.4088 33.8556 84.346 34.3723 84.2229 34.8765C84.1042 35.3502 83.8896 35.7957 83.5918 36.1861C83.2818 36.5762 82.881 36.8875 82.4232 37.0936C81.8677 37.3211 81.272 37.4382 80.6702 37.4382C80.0685 37.4382 79.4727 37.3211 78.9173 37.0936C78.4567 36.8919 78.0549 36.5799 77.7487 36.1861C77.4563 35.811 77.2455 35.3809 77.1293 34.9224C77.0004 34.4192 76.9375 33.9019 76.9423 33.3831V27.1912H77.8889V33.1418C77.8917 33.5269 77.9269 33.9112 77.9941 34.2906C78.0564 34.6936 78.1909 35.0825 78.3914 35.4394C78.5881 35.7987 78.8785 36.1 79.2328 36.3124C79.6634 36.5623 80.1592 36.6822 80.6586 36.657C81.1614 36.6804 81.6605 36.5608 82.096 36.3124C82.446 36.0984 82.7323 35.7972 82.9257 35.4394C83.1262 35.0825 83.2607 34.6936 83.323 34.2906C83.3902 33.9112 83.4254 33.5269 83.4282 33.1418V27.1912H84.3865L84.4099 33.3371ZM73.8922 36.5307C73.3176 36.8574 72.6947 37.0939 72.0458 37.2314C71.4048 37.3695 70.7504 37.4388 70.0942 37.4382C69.3588 37.4422 68.6293 37.3097 67.9439 37.0476C67.3161 36.7814 66.7511 36.3902 66.2845 35.8989C65.8129 35.4204 65.4433 34.8541 65.1976 34.2332C64.683 32.8694 64.683 31.3694 65.1976 30.0057C65.4464 29.3863 65.8155 28.8205 66.2845 28.34C66.7511 27.8486 67.3161 27.4575 67.9439 27.1912C68.6444 26.9669 69.3831 26.881 70.1176 26.9385C70.7953 26.9102 71.4717 27.0189 72.1049 27.258C72.7381 27.4971 73.3146 27.8615 73.7987 28.3285L73.0975 29.0292C72.9286 28.8382 72.7363 28.6684 72.5249 28.5238C72.2954 28.3666 72.0484 28.2356 71.7887 28.1332C71.5228 28.0181 71.2444 27.9334 70.959 27.8805C70.6838 27.8127 70.4012 27.778 70.1176 27.7771C69.4998 27.768 68.8869 27.8854 68.3179 28.1217C67.8011 28.3339 67.3382 28.6556 66.9623 29.0637C66.5753 29.4646 66.2803 29.9426 66.0975 30.4652C65.8968 31.01 65.7978 31.586 65.8053 32.1654C65.7957 32.7572 65.8987 33.3455 66.1092 33.9C66.292 34.4227 66.5869 34.9006 66.974 35.3015C67.3499 35.7096 67.8127 36.0313 68.3296 36.2435C68.8986 36.4799 69.5115 36.5972 70.1292 36.5881C70.6461 36.5889 71.1622 36.5466 71.6718 36.4618C72.1324 36.3797 72.5751 36.2204 72.9807 35.9908V32.6593H70.5266V31.8093H73.9273L73.8922 36.5307ZM56.5381 27.1912H62.7903V28.0413H57.4964V31.614H62.4514V32.4641H57.4964V36.3699H63.0123V37.2199H56.5381V27.1912ZM48.3578 35.3704C48.5817 35.7739 48.9237 36.102 49.3394 36.3124C49.755 36.534 50.2223 36.6449 50.695 36.6341C51.0016 36.6377 51.3064 36.5871 51.5948 36.4847C51.858 36.3979 52.1034 36.2656 52.3194 36.0942C52.5204 35.9188 52.6868 35.7085 52.8102 35.4738C52.9299 35.2182 52.9898 34.9395 52.9855 34.6582C52.9986 34.3559 52.9214 34.0564 52.7635 33.7966C52.6103 33.5674 52.4066 33.375 52.1675 33.2337C51.9029 33.0757 51.6206 32.9484 51.3261 32.8546L50.3561 32.5445C50.0297 32.4447 49.7097 32.3258 49.3978 32.1884C49.0851 32.066 48.7964 31.8911 48.5447 31.6714C48.2927 31.4503 48.0898 31.1805 47.9487 30.8788C47.7947 30.515 47.7191 30.1239 47.7267 29.73C47.7255 29.3319 47.8175 28.9388 47.9955 28.5812C48.1665 28.2465 48.4098 27.9524 48.7083 27.7197C49.0226 27.4809 49.3792 27.3017 49.7601 27.1912C50.1624 27.0754 50.5796 27.0173 50.9988 27.0189C51.5374 26.9816 52.078 27.0519 52.5882 27.2257C53.0574 27.4458 53.4602 27.7824 53.7568 28.2021L52.9388 28.7765C52.7171 28.466 52.4251 28.2103 52.0857 28.0298C51.7233 27.8521 51.3218 27.7653 50.917 27.7771C50.6164 27.7771 50.3172 27.8196 50.0289 27.9035C49.7663 27.9752 49.5203 28.0961 49.3043 28.2596C49.0948 28.4159 48.9231 28.616 48.8018 28.8454C48.6759 29.1075 48.6119 29.3942 48.6148 29.684C48.5991 29.8919 48.6262 30.1008 48.6945 30.2982C48.7628 30.4956 48.8708 30.6774 49.0122 30.8328C49.2845 31.1135 49.6154 31.333 49.9821 31.4761C50.3951 31.6465 50.821 31.7848 51.2559 31.8897C51.6927 32.0015 52.1158 32.1594 52.5181 32.3607C52.9021 32.5589 53.2341 32.8421 53.488 33.1878C53.7676 33.6272 53.9022 34.1407 53.8737 34.6582C53.8749 35.055 53.7871 35.4473 53.6166 35.807C53.4474 36.1431 53.2132 36.4435 52.9271 36.6915C52.6236 36.9324 52.2795 37.1191 51.9104 37.2429C51.5329 37.3637 51.1386 37.4257 50.7417 37.4267C50.1041 37.4338 49.4718 37.3126 48.8836 37.0706C48.2934 36.8356 47.7857 36.4363 47.4229 35.9218L48.3578 35.3704Z" fill="#545358"/>
<path d="M27.0073 13.4291C24.992 12.6075 22.8317 12.1846 20.65 12.1846C18.4682 12.1846 16.3079 12.6075 14.2926 13.4291C13.9735 13.5287 13.6917 13.7196 13.4836 13.9775C13.2754 14.2353 13.1502 14.5483 13.124 14.8765C13.124 14.8765 13.124 15.0833 13.124 15.1522C13.124 15.2212 13.5214 15.1522 13.6967 15.0029C16.3363 13.6025 19.3632 13.0711 22.3328 13.4865C24.0683 13.7019 25.7571 14.1906 27.3345 14.934C27.5565 15.0374 27.802 15.2441 28.0123 15.0488C28.109 14.9275 28.1615 14.7779 28.1615 14.6238C28.1615 14.4697 28.109 14.3201 28.0123 14.1988C27.7649 13.8623 27.4241 13.603 27.0307 13.4521" fill="#184071"/>
<path d="M17.5993 10.9937C18.6639 10.8483 19.7383 10.783 20.813 10.7984C21.8262 10.8137 22.8373 10.8943 23.8398 11.0397C23.9475 11.0552 24.0575 11.0383 24.1553 10.991C24.253 10.9438 24.3338 10.8685 24.387 10.7751C24.4403 10.6816 24.4634 10.5745 24.4533 10.4679C24.4432 10.3613 24.4004 10.2603 24.3306 10.1781C23.9042 9.6227 23.324 9.19992 22.6594 8.96039C21.9794 8.71606 21.255 8.61432 20.5326 8.66171C19.2706 8.70344 18.0702 9.20743 17.1669 10.0747C17.0802 10.15 17.0206 10.2508 16.9968 10.3621C16.9731 10.4734 16.9864 10.5892 17.035 10.6925C17.0836 10.7957 17.1647 10.8807 17.2664 10.935C17.368 10.9893 17.4848 11.0099 17.5993 10.9937Z" fill="#184071"/>
<path d="M37.0571 0H3.63442C2.67146 0.00302913 1.74882 0.380406 1.0679 1.04975C0.386982 1.7191 0.0030815 2.62606 0 3.57266L0 36.4273C0.0030815 37.3739 0.386982 38.2809 1.0679 38.9502C1.74882 39.6196 2.67146 39.997 3.63442 40H37.0571C38.0201 39.997 38.9427 39.6196 39.6236 38.9502C40.3045 38.2809 40.6884 37.3739 40.6915 36.4273V3.57266C40.6884 2.62606 40.3045 1.7191 39.6236 1.04975C38.9427 0.380406 38.0201 0.00302913 37.0571 0V0ZM10.0268 32.3377H9.95669H10.0268ZM29.0287 15.7266C28.6313 16.4044 28.0938 16.3584 27.3809 16.1057C27.0654 15.9793 26.8083 16.2091 26.8433 16.5537C26.8584 17.0768 26.9052 17.5985 26.9836 18.116C27.1822 19.1729 26.4226 19.058 26.2006 19.0465C25.9785 19.035 25.6046 19.1155 25.5228 18.2079C25.5432 17.3516 25.3882 16.4999 25.067 15.7036C24.7398 15.2441 21.2105 14.9684 20.112 15.0029C18.7586 15.0674 17.4134 15.2481 16.092 15.5428C15.5427 15.7266 14.7364 16.0023 14.8532 16.6111C14.8532 16.8639 14.9467 17.0936 14.9818 17.3349C15.1838 16.9987 15.4908 16.7355 15.8571 16.5844C16.2235 16.4333 16.6296 16.4024 17.0152 16.4963C18.3007 16.8179 18.6162 17.8059 18.6162 19.4486C18.6321 19.7202 18.5928 19.9921 18.5005 20.2485C18.4082 20.505 18.2648 20.7407 18.0786 20.942C18.9084 20.7926 19.7615 20.6778 20.6262 20.5859C22.4257 20.3716 24.2428 20.3408 26.0487 20.494C26.3319 20.5212 26.6106 20.583 26.8784 20.6778V20.8156C26.6797 21.8725 25.8734 21.7691 25.0904 21.7461C21.4919 21.7038 17.9401 22.5491 14.7597 24.2045C14.2898 24.4008 13.864 24.6866 13.507 25.0454C13.15 25.4043 12.8688 25.829 12.6796 26.2952C12.5627 26.6054 12.4809 26.996 12.738 27.2257C12.9951 27.4555 13.2288 27.1223 13.4626 26.996C16.2964 25.5735 19.4432 24.8593 22.6246 24.9167C23.7281 24.8879 24.8324 24.9224 25.9318 25.0201C26.6096 25.089 26.6797 25.56 26.6797 25.9736C26.6797 26.3871 26.1655 26.2608 25.8734 26.2723C22.2837 26.3071 18.7368 27.0411 15.4375 28.4319C14.5357 28.8248 13.7365 29.414 13.1003 30.1551C12.9249 30.3019 12.7916 30.4912 12.7137 30.7043C12.6358 30.9174 12.6159 31.1468 12.6561 31.3698C12.6962 31.5928 12.795 31.8015 12.9427 31.9754C13.0903 32.1492 13.2816 32.282 13.4976 32.3607C14.0702 32.6824 14.0001 33.1304 13.93 33.6244C13.7008 33.6816 13.4609 33.6833 13.2309 33.6292C13.0008 33.5752 12.7876 33.4671 12.6095 33.3142C12.3056 33.1419 11.4408 32.4871 11.3123 32.4182C9.58273 31.0856 9.57104 29.6267 11.3123 28.2826L11.5928 28.0528C11.3707 27.892 11.1604 27.7657 10.9734 27.6163C10.5186 27.3206 10.2001 26.8612 10.0864 26.337C9.97276 25.8127 10.0731 25.2656 10.3657 24.8133C10.804 24.0818 11.4334 23.4789 12.1888 23.0672C13.2873 22.412 14.4651 21.8949 15.6946 21.5279C15.3464 21.4174 15.0394 21.2078 14.8126 20.9255C14.5858 20.6433 14.4495 20.3011 14.4208 19.9426C14.0586 19.9426 13.6612 20.0689 13.5327 19.8392C13.3579 19.0851 13.3341 18.3047 13.4626 17.5416C13.4595 17.3035 13.3904 17.0707 13.2627 16.8683C13.135 16.6659 12.9536 16.5015 12.738 16.3929C11.6395 15.8415 11.2188 15.4624 11.4292 14.417C11.6395 13.3716 12.3641 13.2682 13.4626 12.6939C13.6421 12.5908 13.7974 12.4515 13.9183 12.2852C14.0391 12.1189 14.1228 11.9293 14.1637 11.7289C14.4262 10.9451 14.8636 10.2288 15.4439 9.63257C16.0242 9.0363 16.7327 8.57506 17.5177 8.2826C17.9229 8.16933 18.3006 7.97659 18.6279 7.71598C18.9553 7.45537 19.2256 7.13229 19.4226 6.76623C19.52 6.54075 19.6882 6.35179 19.9026 6.22695C20.1171 6.10211 20.3665 6.04792 20.6144 6.0723C20.8624 6.09667 21.096 6.19834 21.281 6.36245C21.466 6.52655 21.5929 6.74451 21.6429 6.98449C21.7557 7.30883 21.9656 7.59207 22.2451 7.79708C22.5245 8.00208 22.8605 8.11926 23.2089 8.13326C23.8977 8.32332 24.5316 8.66975 25.0593 9.14463C25.5871 9.61951 25.994 10.2096 26.2473 10.8673C26.6615 11.7809 27.3562 12.5441 28.234 13.05C28.687 13.3187 29.0426 13.7205 29.2507 14.1987C29.3449 14.4516 29.3739 14.7235 29.3351 14.9901C29.2964 15.2567 29.1911 15.5097 29.0287 15.7266Z" fill="#184071"/>
</svg>
