<?xml version="1.0" encoding="utf-8"?>
<!-- Generator: Adobe Illustrator 25.2.1, SVG Export Plug-In . SVG Version: 6.00 Build 0)  -->
<svg version="1.1" id="Capa_1" xmlns="http://www.w3.org/2000/svg" xmlns:xlink="http://www.w3.org/1999/xlink" x="0px" y="0px"
	 viewBox="0 0 178 38" style="enable-background:new 0 0 178 38;" xml:space="preserve">
<style type="text/css">
	.st0{fill:#FFFFFF;}
</style>
<path class="st0" d="M16.9,9c1.2-0.2,2.3-0.2,3.5-0.2c1.1,0,2.2,0.1,3.3,0.3C23.8,9,23.9,9,24,9c0.1-0.1,0.2-0.1,0.2-0.2
	c0.1-0.1,0.1-0.2,0.1-0.3c0-0.1-0.1-0.2-0.1-0.3c-0.5-0.6-1.1-1.1-1.8-1.4c-0.7-0.3-1.5-0.4-2.3-0.3c-1.4,0.1-2.7,0.6-3.6,1.6
	c-0.1,0.1-0.2,0.2-0.2,0.3c0,0.1,0,0.3,0,0.4c0.1,0.1,0.1,0.2,0.3,0.3C16.6,9,16.8,9,16.9,9z"/>
<path class="st0" d="M27.1,11.7c-2.2-0.9-4.5-1.4-6.9-1.4s-4.7,0.5-6.9,1.4c-0.4,0.1-0.7,0.3-0.9,0.6c-0.2,0.3-0.4,0.6-0.4,1
	c0,0,0,0.2,0.1,0.3c0.3,0.2,0.4-0.1,0.6-0.2c2.8-1.6,6.1-2.2,9.4-1.7c1.9,0.2,3.7,0.8,5.4,1.6c0.2,0.1,0.5,0.4,0.7,0.1
	c0.1-0.1,0.2-0.3,0.1-0.5c0-0.2-0.1-0.3-0.2-0.5C27.9,12.2,27.5,11.9,27.1,11.7L27.1,11.7z"/>
<path class="st0" d="M30,0H8.3C6.1,0,4,0.9,2.4,2.4C0.9,4,0,6,0,8.2v21.5c0,1.1,0.2,2.2,0.6,3.1c0.4,1,1,1.9,1.8,2.7
	c0.8,0.8,1.7,1.4,2.7,1.8c1,0.4,2.1,0.6,3.2,0.6H30c2.2,0,4.3-0.9,5.9-2.4c1.6-1.5,2.4-3.6,2.4-5.8V8.2c0-1.1-0.2-2.2-0.6-3.1
	c-0.4-1-1-1.9-1.8-2.7C35,1.6,34.1,1,33.1,0.6C32.1,0.2,31,0,30,0L30,0z M8.7,33.4L8.7,33.4L8.7,33.4L8.7,33.4z M29.3,14.4
	c-0.4,0.8-1,0.7-1.8,0.4c-0.4-0.1-0.6,0.1-0.6,0.5c0,0.6,0.1,1.2,0.2,1.8c0.2,1.2-0.6,1.1-0.8,1.1c-0.4,0-0.6,0.1-0.7-1
	c-0.1-1-0.1-2.3-0.5-2.9c-0.4-0.6-4.2-0.9-5.4-0.8c-1.5,0.1-2.9,0.3-4.3,0.6c-0.6,0.2-1.5,0.5-1.3,1.2c0.1,0.3,0.1,0.6,0.1,0.8
	c0.2-0.4,0.5-0.7,0.9-0.8c0.4-0.2,0.8-0.2,1.3-0.1c1.4,0.4,1.7,1.5,1.7,3.4c0,0.6-0.2,1.2-0.6,1.7c0.9-0.2,1.8-0.3,2.7-0.4
	c2-0.3,3.9-0.3,5.9-0.1c0.3,0,0.6,0.1,1,0.2c0,0.1,0,0.1,0,0.2c-0.2,1.2-1.1,1.1-2,1.1c-4-0.1-7.6,1-11.2,2.8c-0.5,0.2-1,0.6-1.4,1
	c-0.4,0.4-0.7,0.9-0.9,1.4c-0.1,0.4-0.2,0.8,0.1,1.1c0.3,0.3,0.5-0.1,0.8-0.3c3.1-1.6,6.5-2.4,9.9-2.4c1.2,0,2.4,0,3.6,0.1
	c0.7,0.1,0.8,0.6,0.8,1.1c0,0.6-0.6,0.3-0.9,0.3c-3.9,0.2-7.7,0.7-11.3,2.5c-1,0.4-1.9,1.1-2.6,2c-0.8,1-0.7,1.9,0.4,2.5
	c0.6,0.4,0.5,0.9,0.5,1.4c-0.7,0.2-1.1-0.2-1.4-0.4c-0.3-0.2-1.3-0.9-1.4-1c-1.9-1.5-1.9-3.2,0-4.7c0.1-0.1,0.2-0.2,0.3-0.3
	c-0.2-0.2-0.5-0.3-0.7-0.5c-0.5-0.4-0.8-0.9-1-1.5s0-1.2,0.3-1.7c0.5-0.8,1.1-1.5,2-2c1.2-0.8,2.5-1.3,3.8-1.8
	c-0.9-0.2-1.3-1-1.4-1.8c-0.4,0-0.8,0.1-1-0.1c-0.3-0.6-0.1-2-0.1-2.6c0-0.3-0.1-0.6-0.2-0.8c-0.1-0.2-0.3-0.4-0.6-0.6
	c-1.2-0.6-1.6-1.1-1.4-2.3c0.2-1.2,1-1.4,2.2-2c0.2-0.1,0.4-0.3,0.5-0.5c0.1-0.2,0.2-0.4,0.3-0.6c0.3-0.9,0.7-1.7,1.4-2.4
	s1.4-1.2,2.3-1.6C17.6,5.3,18.4,5,18.8,4s2-0.9,2.4,0.2c0.3,0.9,0.9,1.1,1.7,1.3c1.7,0.3,2.6,1.7,3.3,3.1c0.4,1,1.2,1.9,2.2,2.5
	c0.5,0.3,0.9,0.8,1.1,1.3C29.8,13.1,29.7,13.7,29.3,14.4z"/>
<g>
	<path class="st0" d="M66.3,3.3h-3.4v16.1h3.4V3.3z"/>
	<path class="st0" d="M69.5,3.3h3.6l6.4,11.3V3.3h3.2v16.1h-3.4L72.7,8v11.4h-3.2V3.3z"/>
	<path class="st0" d="M89.1,3.3h-3.4v16.1h3.4V3.3z"/>
	<path class="st0" d="M95.4,14.2c0.1,0.6,0.3,1.1,0.6,1.6c0.6,0.6,1.5,1,2.9,1c0.7,0,1.3-0.1,2-0.3c1-0.3,1.4-0.9,1.4-1.8
		c0-0.2-0.1-0.5-0.2-0.7c-0.1-0.2-0.3-0.4-0.5-0.5c-0.7-0.4-1.5-0.6-2.3-0.7l-1.8-0.4c-1.7-0.4-2.9-0.8-3.6-1.2
		c-1.1-0.7-1.6-1.8-1.6-3.4c0-0.7,0.1-1.3,0.4-1.9c0.3-0.6,0.7-1.1,1.2-1.6C95.1,3.4,96.7,3,98.8,3c1.6,0,3.1,0.4,4.4,1.3
		c0.6,0.4,1.1,1,1.4,1.7c0.3,0.7,0.5,1.4,0.5,2.1h-3.3c0-0.4-0.1-0.8-0.4-1.2c-0.2-0.4-0.6-0.6-0.9-0.8c-0.6-0.3-1.3-0.4-2-0.4
		c-0.8,0-1.5,0.1-2.1,0.5c-0.2,0.1-0.4,0.4-0.6,0.6c-0.1,0.2-0.2,0.5-0.2,0.8c0,0.3,0.1,0.5,0.2,0.7c0.1,0.2,0.3,0.4,0.6,0.5
		c0.7,0.3,1.4,0.5,2.2,0.6l2.8,0.6c1,0.2,2,0.6,2.8,1.1c0.5,0.4,0.9,0.9,1.1,1.4c0.3,0.6,0.4,1.2,0.3,1.8c0,0.7-0.1,1.4-0.4,2
		c-0.3,0.6-0.7,1.2-1.3,1.6c-1.1,0.9-2.8,1.4-4.9,1.4c-2.1,0-3.8-0.5-5-1.4c-0.6-0.4-1.1-1-1.4-1.7c-0.3-0.7-0.5-1.4-0.4-2.1
		L95.4,14.2z"/>
	<path class="st0" d="M118.4,3.3v2.9h-4.2v13.3h-3.4V6.1h-4.3V3.3H118.4z"/>
	<path class="st0" d="M132.5,6.1h-8.1v3.4h5.2v2.8h-5.2v4.2h8.1v2.9h-11.4V3.3h11.4V6.1z"/>
	<path class="st0" d="M178,6.1h-8.1v3.4h5.2v2.8h-5.2v4.2h8.1v2.9h-11.4V3.3H178V6.1z"/>
	<path class="st0" d="M59.9,6.1h-7.7v3.4h5.1v2.8h-5.1v7.1H49V3.3h11V6.1z"/>
	<path class="st0" d="M145.6,3.7c0.6,0.2,1.1,0.6,1.5,1.1c0.3,0.4,0.6,0.9,0.8,1.4c0.2,0.5,0.3,1.1,0.3,1.7c0,0.8-0.2,1.6-0.6,2.3
		c-0.2,0.4-0.5,0.7-0.8,1c-0.3,0.3-0.7,0.5-1.1,0.6c0.7,0.2,1.2,0.7,1.6,1.3c0.4,0.8,0.5,1.7,0.5,2.5v1.1c0,0.5,0,1,0.1,1.5
		c0,0.2,0.1,0.4,0.2,0.5c0.1,0.2,0.2,0.3,0.4,0.4v0.4h-3.7c-0.1-0.4-0.2-0.6-0.2-0.9c-0.1-0.5-0.1-0.9-0.1-1.4v-1.5
		c0-1-0.2-1.7-0.5-2.1c-0.3-0.3-1-0.5-1.9-0.5h-3.3v6.3h-3.3V3.3h7.8C143.9,3.3,144.8,3.4,145.6,3.7 M138.6,6.1v4.3h3.7
		c0.6,0,1.1-0.1,1.6-0.3c0.6-0.3,1-0.9,1-1.8c0-1-0.3-1.6-0.9-2c-0.5-0.2-1-0.3-1.6-0.3H138.6z"/>
	<path class="st0" d="M161.4,3.7c0.6,0.2,1.1,0.6,1.5,1.1c0.3,0.4,0.6,0.9,0.8,1.4c0.2,0.5,0.3,1.1,0.3,1.7c0,0.8-0.2,1.6-0.6,2.3
		c-0.2,0.4-0.5,0.7-0.8,1c-0.3,0.3-0.7,0.5-1.1,0.6c0.7,0.2,1.2,0.7,1.6,1.3c0.4,0.8,0.5,1.7,0.5,2.5v1.1c0,0.5,0,1,0.1,1.5
		c0,0.2,0.1,0.4,0.2,0.5c0.1,0.2,0.2,0.3,0.4,0.4v0.4h-3.7c-0.1-0.4-0.2-0.6-0.2-0.9c-0.1-0.5-0.1-0.9-0.1-1.4l0-1.5
		c0-1-0.2-1.7-0.5-2.1c-0.3-0.3-1-0.5-1.9-0.5h-3.3v6.3h-3.3V3.3h7.8C159.7,3.3,160.6,3.4,161.4,3.7 M154.4,6.1v4.3h3.7
		c0.6,0,1.1-0.1,1.6-0.3c0.6-0.3,0.9-0.9,0.9-1.8c0-1-0.3-1.6-0.9-2c-0.5-0.2-1-0.3-1.6-0.3H154.4z"/>
	<path class="st0" d="M50,32.4c0.2,0.4,0.6,0.7,1,0.9c0.4,0.2,0.8,0.3,1.3,0.3c0.3,0,0.5,0,0.7-0.1c0.2-0.1,0.5-0.2,0.7-0.3
		c0.2-0.1,0.4-0.3,0.5-0.6c0.1-0.2,0.2-0.5,0.2-0.8c0-0.2,0-0.4-0.1-0.5c-0.1-0.2-0.2-0.3-0.3-0.4c-0.3-0.2-0.6-0.4-1-0.5
		c-0.4-0.1-0.8-0.3-1.3-0.4c-0.4-0.1-0.9-0.3-1.3-0.6c-0.4-0.3-0.8-0.7-1.1-1.1c-0.2-0.5-0.3-1-0.3-1.5c0-0.3,0.1-0.7,0.2-1
		c0.1-0.4,0.4-0.7,0.6-1c0.3-0.3,0.7-0.6,1.1-0.7c0.5-0.2,1.1-0.3,1.7-0.3c0.6,0,1.1,0.1,1.7,0.2c0.6,0.2,1,0.5,1.4,1L54.7,26
		c-0.2-0.3-0.5-0.5-0.8-0.7c-0.4-0.2-0.7-0.3-1.1-0.3c-0.3,0-0.7,0-1,0.2c-0.2,0.1-0.5,0.2-0.6,0.4c-0.2,0.2-0.3,0.3-0.3,0.5
		c-0.1,0.2-0.1,0.3-0.1,0.5c0,0.2,0,0.4,0.1,0.6c0.1,0.2,0.2,0.3,0.3,0.5c0.3,0.3,0.6,0.5,1,0.6c0.4,0.2,0.8,0.3,1.3,0.4
		c0.4,0.1,0.9,0.3,1.3,0.6c0.4,0.2,0.7,0.5,1,0.9c0.3,0.5,0.4,1,0.4,1.5c0,0.5-0.1,0.9-0.3,1.4c-0.2,0.4-0.5,0.8-0.8,1
		c-0.3,0.3-0.7,0.5-1.2,0.6c-0.5,0.2-1,0.2-1.4,0.2c-0.7,0-1.3-0.1-2-0.4c-0.6-0.2-1.1-0.6-1.5-1.1L50,32.4z"/>
	<path class="st0" d="M68.1,24H75v1.4h-5.5v3.2h4.1v1.4h-4.1v3.4h5.7v1.4h-7.2V24z"/>
	<path class="st0" d="M96.5,28.7v5.2c-0.3,0.2-0.6,0.3-0.9,0.4c-0.7,0.2-1.4,0.4-2.1,0.5c-0.3,0-0.7,0.1-1,0.1
		c-0.8,0-1.7-0.1-2.4-0.4c-0.7-0.3-1.3-0.7-1.8-1.2c-0.5-0.5-0.9-1.1-1.1-1.8c-0.3-0.7-0.4-1.4-0.4-2.1c0-0.8,0.1-1.5,0.4-2.2
		c0.3-0.7,0.7-1.3,1.2-1.8c0.5-0.5,1.1-0.9,1.8-1.2c0.7-0.3,1.5-0.4,2.2-0.4c0.8,0,1.6,0.1,2.4,0.4c0.6,0.2,1.1,0.6,1.6,1l-1,1.1
		c-0.4-0.4-0.9-0.7-1.4-0.9c-0.5-0.2-1-0.2-1.6-0.2c-0.5,0-1.1,0.1-1.6,0.3c-0.5,0.2-1,0.5-1.3,0.9c-0.4,0.4-0.6,0.8-0.8,1.3
		c-0.2,0.5-0.3,1.1-0.3,1.6c0,0.6,0.1,1.1,0.3,1.7c0.2,0.5,0.5,1,0.9,1.3c0.4,0.4,0.8,0.7,1.3,0.9c0.5,0.2,1.1,0.3,1.6,0.3
		c0.5,0,1,0,1.5-0.1c0.4-0.1,0.8-0.2,1.2-0.4v-3h-2.4v-1.4H96.5z"/>
	<path class="st0" d="M110.4,24v6.5c0,0.3,0,0.7,0.1,1c0.1,0.4,0.2,0.7,0.5,1c0.2,0.3,0.5,0.6,0.8,0.7c0.4,0.2,0.8,0.3,1.3,0.3
		c0.4,0,0.9-0.1,1.3-0.3c0.3-0.2,0.6-0.4,0.8-0.7c0.2-0.3,0.4-0.6,0.5-1c0.1-0.3,0.1-0.7,0.1-1V24h1.5v6.7c0,0.6-0.1,1.2-0.3,1.7
		c-0.2,0.5-0.5,0.9-0.9,1.3c-0.4,0.4-0.8,0.7-1.3,0.9c-1.1,0.4-2.2,0.4-3.3,0c-0.5-0.2-0.9-0.5-1.3-0.9c-0.4-0.4-0.7-0.8-0.9-1.3
		c-0.2-0.5-0.3-1.1-0.3-1.7V24H110.4z"/>
	<path class="st0" d="M129.8,24h3.8c0.6,0,1.2,0.1,1.7,0.3c0.4,0.2,0.8,0.4,1.1,0.7c0.3,0.3,0.4,0.6,0.5,1c0.1,0.3,0.2,0.7,0.2,1
		c0,0.7-0.2,1.3-0.7,1.8c-0.5,0.6-1.2,0.9-1.9,1l3.1,4.8h-1.8l-2.7-4.7h-1.6v4.7h-1.4L129.8,24z M131.3,28.7h1.9
		c0.3,0,0.6,0,0.8-0.1c0.3,0,0.5-0.1,0.7-0.2c0.2-0.1,0.4-0.3,0.5-0.5c0.1-0.3,0.2-0.6,0.2-0.9c0-0.3-0.1-0.6-0.2-0.9
		c-0.1-0.2-0.3-0.4-0.5-0.5c-0.2-0.1-0.5-0.2-0.7-0.2c-0.3,0-0.6-0.1-0.8-0.1h-1.9V28.7z"/>
	<path class="st0" d="M154,34.9c-0.8,0-1.5-0.1-2.2-0.4c-0.7-0.3-1.3-0.7-1.8-1.2c-0.5-0.5-0.9-1.1-1.1-1.8c-0.6-1.4-0.6-3,0-4.4
		c0.3-0.7,0.7-1.3,1.1-1.8c0.5-0.5,1.1-0.9,1.8-1.2c1.4-0.6,3.1-0.6,4.5,0c0.7,0.3,1.3,0.7,1.8,1.2c0.5,0.5,0.9,1.1,1.1,1.8
		c0.6,1.4,0.6,3,0,4.4c-0.3,0.7-0.7,1.3-1.1,1.8c-0.5,0.5-1.1,0.9-1.8,1.2C155.5,34.7,154.8,34.9,154,34.9L154,34.9z M154,33.5
		c0.6,0,1.1-0.1,1.6-0.3c0.5-0.2,1-0.5,1.3-0.9c0.4-0.4,0.6-0.8,0.8-1.3c0.4-1.1,0.4-2.2,0-3.3c-0.2-0.5-0.5-1-0.8-1.3
		c-0.4-0.4-0.8-0.7-1.3-0.9c-0.5-0.2-1-0.3-1.6-0.3c-0.5,0-1.1,0.1-1.6,0.3c-0.5,0.2-1,0.5-1.3,0.9c-0.4,0.4-0.6,0.8-0.8,1.3
		c-0.4,1.1-0.4,2.2,0,3.3c0.2,0.5,0.5,1,0.8,1.3c0.4,0.4,0.8,0.7,1.3,0.9C152.9,33.4,153.4,33.5,154,33.5L154,33.5z"/>
	<path class="st0" d="M172,32.4c0.2,0.4,0.6,0.7,1,0.9c0.4,0.2,0.8,0.3,1.3,0.3c0.3,0,0.5,0,0.7-0.1c0.2-0.1,0.5-0.2,0.7-0.3
		c0.2-0.1,0.4-0.3,0.5-0.6c0.1-0.2,0.2-0.5,0.2-0.8c0-0.2,0-0.4-0.1-0.5c-0.1-0.2-0.2-0.3-0.3-0.4c-0.3-0.2-0.6-0.4-1-0.5
		c-0.4-0.1-0.8-0.3-1.3-0.4c-0.4-0.1-0.9-0.3-1.3-0.6c-0.4-0.3-0.8-0.7-1.1-1.1c-0.2-0.5-0.3-1-0.3-1.5c0-0.3,0.1-0.7,0.2-1
		c0.1-0.4,0.4-0.7,0.6-1c0.3-0.3,0.7-0.6,1.1-0.7c0.5-0.2,1.1-0.3,1.7-0.3c0.6,0,1.1,0.1,1.7,0.2c0.6,0.2,1,0.5,1.4,1l-1.2,1.1
		c-0.2-0.3-0.5-0.5-0.8-0.7c-0.4-0.2-0.7-0.3-1.1-0.3c-0.3,0-0.7,0-1,0.2c-0.2,0.1-0.5,0.2-0.6,0.4c-0.2,0.2-0.3,0.3-0.3,0.5
		c-0.1,0.2-0.1,0.3-0.1,0.5c0,0.2,0,0.4,0.1,0.6c0.1,0.2,0.2,0.3,0.3,0.5c0.3,0.3,0.6,0.5,1,0.6c0.4,0.2,0.8,0.3,1.3,0.4
		c0.4,0.1,0.9,0.3,1.3,0.5c0.4,0.2,0.7,0.5,1,0.9c0.3,0.5,0.4,1,0.4,1.5c0,0.5-0.1,0.9-0.3,1.4c-0.2,0.4-0.5,0.8-0.8,1
		c-0.3,0.3-0.7,0.5-1.2,0.6c-0.5,0.2-1,0.2-1.4,0.2c-0.7,0-1.3-0.1-2-0.4c-0.6-0.2-1.1-0.6-1.5-1.1L172,32.4z"/>
</g>
</svg>
