<svg width="539" height="359" viewBox="0 0 539 359" fill="none" xmlns="http://www.w3.org/2000/svg">
<g clip-path="url(#clip0)">
<path d="M379.887 111.122C379.887 112.63 378.665 113.923 377.084 113.923C375.575 113.923 374.281 112.702 374.281 111.122C374.281 109.615 375.503 108.322 377.084 108.322C378.665 108.322 379.887 109.615 379.887 111.122ZM378.521 111.122C378.521 110.333 377.875 109.758 377.156 109.758C376.365 109.758 375.79 110.404 375.79 111.122C375.79 111.912 376.437 112.487 377.156 112.487C377.875 112.487 378.521 111.912 378.521 111.122Z" fill="#C9C6D9"/>
<path d="M426.529 9.66895H410.862C410.502 9.66895 410.143 9.95614 410.143 10.3869C410.143 10.7459 410.431 11.1049 410.862 11.1049H426.529C426.888 11.1049 427.247 10.8177 427.247 10.3869C427.176 10.0279 426.888 9.66895 426.529 9.66895Z" fill="#AD8DCE"/>
<path d="M405.83 9.66895H402.74C402.381 9.66895 402.021 9.95614 402.021 10.3869C402.021 10.7459 402.309 11.1049 402.74 11.1049H405.83C406.19 11.1049 406.549 10.8177 406.549 10.3869C406.477 10.0279 406.19 9.66895 405.83 9.66895Z" fill="#AD8DCE"/>
<path d="M419.126 15.1975C419.126 15.5565 418.839 15.9155 418.408 15.9155H416.467C416.108 15.9155 415.749 15.6283 415.749 15.1975C415.749 14.8385 416.036 14.4795 416.467 14.4795H418.408C418.839 14.4795 419.126 14.7667 419.126 15.1975ZM413.736 15.1975C413.736 15.5565 413.449 15.9155 413.018 15.9155H409.568C409.209 15.9155 408.849 15.6283 408.849 15.1975C408.849 14.8385 409.137 14.4795 409.568 14.4795H413.018C413.377 14.4795 413.736 14.7667 413.736 15.1975ZM406.837 15.1975C406.837 15.5565 406.55 15.9155 406.118 15.9155H402.669C402.31 15.9155 401.95 15.6283 401.95 15.1975C401.95 14.8385 402.238 14.4795 402.669 14.4795H406.118C406.55 14.4795 406.837 14.7667 406.837 15.1975Z" fill="#AD8DCE"/>
<path d="M171.761 55.5492C171.402 55.5492 171.042 55.8364 171.042 56.2672V57.8468C171.042 58.2058 171.33 58.5648 171.761 58.5648C172.121 58.5648 172.48 58.2776 172.48 57.8468V56.2672C172.48 55.9082 172.121 55.5492 171.761 55.5492Z" fill="#AD8DCE"/>
<path d="M169.964 53.9696H168.383C168.024 53.9696 167.665 54.2568 167.665 54.6876C167.665 55.0466 167.952 55.4056 168.383 55.4056H169.964C170.324 55.4056 170.683 55.1184 170.683 54.6876C170.683 54.2568 170.324 53.9696 169.964 53.9696Z" fill="#AD8DCE"/>
<path d="M171.761 50.6667C171.402 50.6667 171.042 50.9539 171.042 51.3848V52.9644C171.042 53.3234 171.33 53.6824 171.761 53.6824C172.121 53.6824 172.48 53.3952 172.48 52.9644V51.3848C172.48 51.0257 172.121 50.6667 171.761 50.6667Z" fill="#AD8DCE"/>
<path d="M175.139 53.8977H173.558C173.198 53.8977 172.839 54.1849 172.839 54.6157C172.839 54.9747 173.126 55.3337 173.558 55.3337H175.139C175.498 55.3337 175.857 55.0465 175.857 54.6157C175.857 54.1849 175.498 53.8977 175.139 53.8977Z" fill="#AD8DCE"/>
<path d="M344.529 11.1051C344.169 11.1051 343.81 11.3923 343.81 11.8231V13.4027C343.81 13.7617 344.098 14.1207 344.529 14.1207C344.888 14.1207 345.247 13.8335 345.247 13.4027V11.7513C345.247 11.3923 344.888 11.1051 344.529 11.1051Z" fill="#C9C6D9"/>
<path d="M342.732 9.52551H341.151C340.791 9.52551 340.432 9.81271 340.432 10.2435C340.432 10.6025 340.72 10.9615 341.151 10.9615H342.732C343.091 10.9615 343.451 10.6743 343.451 10.2435C343.451 9.81271 343.091 9.52551 342.732 9.52551Z" fill="#C9C6D9"/>
<path d="M344.529 6.22266C344.169 6.22266 343.81 6.50986 343.81 6.94066V8.52026C343.81 8.87926 344.098 9.23826 344.529 9.23826C344.888 9.23826 345.247 8.95106 345.247 8.52026V6.94066C345.247 6.50986 344.888 6.22266 344.529 6.22266Z" fill="#C9C6D9"/>
<path d="M347.906 9.38184H346.325C345.966 9.38184 345.606 9.66904 345.606 10.0998C345.606 10.4588 345.894 10.8178 346.325 10.8178H347.906C348.266 10.8178 348.625 10.5306 348.625 10.0998C348.625 9.66904 348.266 9.38184 347.906 9.38184Z" fill="#C9C6D9"/>
<path d="M449.238 48.8717C449.238 50.2359 450.316 51.3129 451.682 51.3129C453.047 51.3129 454.125 50.2359 454.125 48.8717C454.125 47.5075 453.047 46.4305 451.682 46.4305C450.316 46.5023 449.238 47.5793 449.238 48.8717Z" fill="#C9C6D9"/>
<path d="M131.3 167.629H146.967C147.326 167.629 147.686 167.342 147.686 166.911C147.686 166.552 147.398 166.193 146.967 166.193H131.3C130.941 166.193 130.582 166.48 130.582 166.911C130.582 167.342 130.941 167.629 131.3 167.629Z" fill="#C9C6D9"/>
<path d="M123.251 167.629H126.342C126.701 167.629 127.06 167.342 127.06 166.911C127.06 166.552 126.773 166.193 126.342 166.193H123.251C122.892 166.193 122.533 166.48 122.533 166.911C122.533 167.342 122.892 167.629 123.251 167.629Z" fill="#C9C6D9"/>
<path d="M427.966 178.758C427.966 178.758 428.9 185.435 421.067 185.292C421.067 185.292 427.75 185.364 427.607 191.61C427.607 191.61 428.182 186.656 434.362 185.579C434.362 185.651 429.188 186.8 427.966 178.758Z" fill="#AD8DCE"/>
<path d="M465.264 84.4846C465.264 84.4846 466.199 91.162 458.365 91.0184C458.365 91.0184 465.049 91.0902 464.905 97.3368C464.905 97.3368 465.48 92.3826 471.661 91.3056C471.732 91.3056 466.486 92.5262 465.264 84.4846Z" fill="#AD8DCE"/>
<path d="M217.397 -5.9834C217.397 -5.9834 218.331 0.694006 210.498 0.550406C210.498 0.550406 217.181 0.622203 217.037 6.86881C217.037 6.86881 217.612 1.91461 223.793 0.837608C223.865 0.837608 218.619 2.05821 217.397 -5.9834Z" fill="#AD8DCE"/>
<path d="M150.129 12.4692C150.129 12.4692 151.063 19.1466 143.23 19.003C143.23 19.003 149.914 19.0748 149.77 25.3214C149.77 25.3214 150.345 20.3672 156.525 19.2902C156.525 19.2902 151.351 20.5108 150.129 12.4692Z" fill="#C9C6D9"/>
<path d="M313.267 64.2369C313.267 64.2369 313.626 66.5345 310.895 66.5345C310.895 66.5345 313.267 66.5345 313.195 68.7603C313.195 68.7603 313.41 67.0371 315.566 66.6781C315.566 66.6063 313.698 67.0371 313.267 64.2369Z" fill="#C9C6D9"/>
<path d="M86.5274 104.014C86.5274 104.014 86.8867 106.312 84.1558 106.312C84.1558 106.312 86.5274 106.312 86.4555 108.538C86.4555 108.538 86.6711 106.814 88.8271 106.455C88.7552 106.455 86.9586 106.814 86.5274 104.014Z" fill="#C9C6D9"/>
<path d="M290.054 166.839C290.054 166.839 290.413 169.137 287.682 169.137C287.682 169.137 290.054 169.137 289.982 171.363C289.982 171.363 290.197 169.639 292.353 169.28C292.282 169.209 290.485 169.639 290.054 166.839Z" fill="#C9C6D9"/>
<path d="M197.418 129.288H182.182C180.242 129.288 178.661 127.708 178.661 125.77C178.661 123.831 180.17 122.323 182.11 122.251C182.182 119.308 184.626 116.866 187.572 116.866C189.441 116.866 191.165 117.8 192.172 119.379C194.256 119.092 196.052 120.385 196.555 122.251H197.418C199.358 122.251 200.939 123.831 200.939 125.77C200.939 127.708 199.358 129.288 197.418 129.288ZM182.182 123.257C180.817 123.257 179.667 124.405 179.667 125.77C179.667 127.134 180.817 128.283 182.182 128.283H197.418C198.783 128.283 199.933 127.134 199.933 125.77C199.933 124.405 198.783 123.257 197.418 123.257H195.693L195.621 122.826C195.334 121.174 193.753 120.026 192.028 120.385L191.669 120.456L191.453 120.097C190.662 118.661 189.153 117.8 187.572 117.8C185.129 117.8 183.116 119.81 183.116 122.251C183.116 122.395 183.116 122.539 183.116 122.61L183.188 123.185H182.182V123.257Z" fill="#AD8DCE"/>
<path d="M469.433 0.406746H454.197C452.257 0.406746 450.676 -1.17285 450.676 -3.11145C450.676 -5.05005 452.185 -6.55785 454.125 -6.62965C454.197 -9.57345 456.641 -12.0146 459.587 -12.0146C461.456 -12.0146 463.181 -11.0812 464.187 -9.50165C466.271 -9.78885 468.067 -8.49645 468.571 -6.62965H469.433C471.373 -6.62965 472.954 -5.05005 472.954 -3.11145C472.954 -1.17285 471.373 0.406746 469.433 0.406746ZM454.125 -5.62445C452.76 -5.62445 451.61 -4.47565 451.61 -3.11145C451.61 -1.74725 452.76 -0.59845 454.125 -0.59845H469.361C470.726 -0.59845 471.876 -1.74725 471.876 -3.11145C471.876 -4.47565 470.726 -5.62445 469.361 -5.62445H467.636L467.564 -6.05525C467.277 -7.70665 465.696 -8.85545 463.971 -8.49645L463.612 -8.42465L463.396 -8.78365C462.606 -10.2196 461.096 -11.0813 459.515 -11.0813C457.072 -11.0813 455.06 -9.07085 455.06 -6.62965C455.06 -6.48605 455.06 -6.34245 455.06 -6.27065L455.132 -5.69625H454.125V-5.62445Z" fill="#AD8DCE"/>
<path d="M233.351 39.3224H218.115C216.175 39.3224 214.594 37.7428 214.594 35.8042C214.594 33.8656 216.103 32.3578 218.043 32.286C218.115 29.3422 220.559 26.901 223.505 26.901C225.374 26.901 227.099 27.8344 228.105 29.414C230.189 29.1268 231.985 30.4192 232.489 32.286H233.351C235.291 32.286 236.872 33.8656 236.872 35.8042C236.872 37.7428 235.291 39.3224 233.351 39.3224ZM218.115 33.2912C216.75 33.2912 215.6 34.44 215.6 35.8042C215.6 37.1684 216.75 38.3172 218.115 38.3172H233.351C234.716 38.3172 235.866 37.1684 235.866 35.8042C235.866 34.44 234.716 33.2912 233.351 33.2912H231.626L231.554 32.8604C231.267 31.209 229.686 30.0602 227.961 30.4192L227.602 30.491L227.386 30.132C226.595 28.696 225.086 27.8344 223.505 27.8344C221.062 27.8344 219.049 29.8448 219.049 32.286C219.049 32.4296 219.049 32.5732 219.049 32.645L219.121 33.2194H218.115V33.2912Z" fill="#AD8DCE"/>
<path d="M281.07 234.547C274.53 236.413 267.703 232.608 265.835 226.074L256.061 191.538C254.192 185.005 258.001 178.184 264.541 176.317C271.081 174.45 277.908 178.255 279.777 184.789L289.551 219.325C291.419 225.859 287.61 232.68 281.07 234.547Z" fill="#234077"/>
<path d="M267.128 234.259C262.241 229.521 262.169 221.694 266.984 216.884L292.138 191.251C296.881 186.369 304.714 186.297 309.529 191.108C314.416 195.846 314.488 203.673 309.673 208.483L284.52 234.116C279.777 238.926 272.015 238.998 267.128 234.259Z" fill="#234077"/>
<path d="M317.147 185.076C320.453 190.031 319.088 196.708 314.129 200.011C309.17 203.314 302.486 201.949 299.181 196.995C295.875 192.041 297.24 185.364 302.199 182.061C307.158 178.758 313.841 180.122 317.147 185.076Z" fill="#F7C29E"/>
<path d="M300.977 189.456C299.468 189.815 297.959 188.953 297.528 187.446L296.593 183.712C296.234 182.204 297.096 180.696 298.606 180.266C300.115 179.907 301.624 180.768 302.055 182.276L302.99 186.01C303.349 187.589 302.486 189.097 300.977 189.456Z" fill="#F7C29E"/>
<path d="M311.757 176.676L307.949 186.369C307.374 187.877 305.649 188.595 304.14 188.02C302.63 187.446 301.912 185.723 302.487 184.215L306.296 174.522C306.871 173.014 308.595 172.296 310.105 172.87C311.614 173.517 312.404 175.24 311.757 176.676Z" fill="#F7C29E"/>
<path d="M318.513 178.758L313.913 188.092C313.195 189.528 311.47 190.102 310.033 189.384C308.595 188.666 308.02 186.943 308.739 185.507L313.339 176.173C314.057 174.737 315.782 174.163 317.219 174.881C318.657 175.527 319.232 177.322 318.513 178.758Z" fill="#F7C29E"/>
<path d="M323.544 183.927L317.076 192.113C316.069 193.405 314.273 193.62 312.979 192.615C311.686 191.61 311.47 189.815 312.476 188.523L318.944 180.337C319.95 179.045 321.747 178.83 323.04 179.835C324.334 180.84 324.55 182.635 323.544 183.927Z" fill="#F7C29E"/>
<path d="M254.408 164.254L250.24 164.111C247.437 163.967 245.209 161.598 245.353 158.798L246.215 136.54L260.589 137.114L259.726 159.372C259.582 162.172 257.211 164.326 254.408 164.254Z" fill="#F7C29E"/>
<path d="M260.589 136.324L246.215 135.75L246 141.422C245.784 146.951 250.312 151.833 255.845 151.402C256.205 151.402 256.564 151.33 256.851 151.259C258.001 151.043 259.079 150.612 260.085 150.11L260.589 136.324Z" fill="#FD9F88"/>
<path d="M255.229 134.715C264.777 132.015 270.835 123.888 268.76 116.562C266.685 109.237 257.262 105.486 247.715 108.186C238.167 110.885 232.109 119.012 234.185 126.338C236.26 133.664 245.682 137.414 255.229 134.715Z" fill="#184071"/>
<path d="M264.343 130.939C273.03 129.465 279.297 123.706 278.339 118.076C277.382 112.446 269.564 109.078 260.876 110.553C252.189 112.027 245.923 117.786 246.88 123.416C247.838 129.045 255.656 132.414 264.343 130.939Z" fill="#184071"/>
<path d="M260.768 122.654C267.238 116.678 269.338 108.435 265.459 104.242C261.579 100.049 253.189 101.494 246.719 107.47C240.249 113.445 238.149 121.689 242.028 125.881C245.908 130.074 254.298 128.629 260.768 122.654Z" fill="#184071"/>
<path d="M268.925 132.734C270.362 140.632 266.194 148.028 259.654 149.176C253.114 150.325 246.646 144.868 245.281 136.899L244.131 130.652C242.693 122.754 246.862 115.359 253.402 114.21C259.941 113.061 266.409 118.518 267.775 126.488L268.925 132.734Z" fill="#F7C29E"/>
<path d="M254.983 113.348C251.389 110.045 245.065 111.625 240.897 116.866C236.728 122.108 236.297 129.001 239.962 132.232C243.556 135.534 249.88 133.955 254.048 128.713C258.145 123.472 258.576 116.579 254.983 113.348Z" fill="#184071"/>
<path d="M257.929 144.15H254.048C252.467 144.15 250.958 143.576 249.808 142.499L247.365 140.345C247.149 140.201 247.149 139.842 247.365 139.699C247.509 139.483 247.868 139.483 248.012 139.699L250.455 141.853C251.461 142.714 252.683 143.217 254.048 143.217H257.929C258.217 143.217 258.432 143.432 258.432 143.72C258.36 143.935 258.145 144.15 257.929 144.15Z" fill="#201028"/>
<path d="M257.929 144.581H256.348C255.845 144.581 255.414 144.15 255.414 143.648C255.414 143.145 255.845 142.714 256.348 142.714H257.929C258.432 142.714 258.864 143.145 258.864 143.648C258.864 144.15 258.432 144.581 257.929 144.581Z" fill="#BF4019"/>
<path d="M252.698 138.092C254.171 134.028 252.068 129.54 248 128.069C243.933 126.597 239.441 128.698 237.968 132.762C236.495 136.826 238.598 141.313 242.666 142.785C246.733 144.257 251.225 142.156 252.698 138.092Z" fill="#BF4019"/>
<path d="M250.257 135.614C250.402 131.929 247.787 128.835 244.416 128.702C241.045 128.57 238.195 131.45 238.05 135.135C237.905 138.819 240.52 141.914 243.891 142.046C247.262 142.179 250.112 139.299 250.257 135.614Z" fill="#E5531C"/>
<path d="M245.137 135.463C245.065 136.97 244.059 138.119 242.909 138.119C241.759 138.047 240.825 136.827 240.896 135.319C240.968 133.811 241.974 132.662 243.124 132.662C244.274 132.662 245.208 133.955 245.137 135.463Z" fill="#E0EEF7"/>
<path d="M264.326 245.101L226.739 246.178C220.487 245.963 215.6 240.65 215.815 234.403L218.187 171.506C218.331 168.203 220.487 165.331 223.649 164.398L251.677 155.495L274.099 166.193C276.902 167.557 278.627 170.429 278.555 173.517L276.184 234.188C275.896 240.506 270.578 245.317 264.326 245.101Z" fill="#4385D8"/>
<path d="M278.483 173.517C278.627 180.05 278.555 186.656 278.411 193.19C278.339 199.724 278.124 206.257 277.836 212.791C277.549 219.325 277.261 225.859 276.83 232.393C276.758 233.972 276.686 235.767 276.04 237.419C275.465 239.07 274.53 240.578 273.38 241.727C270.937 244.096 267.559 245.46 264.253 245.101C267.559 245.029 270.65 243.593 272.734 241.152C273.74 240.003 274.53 238.567 274.962 237.06C275.393 235.552 275.393 234.044 275.393 232.393C275.465 225.859 275.68 219.325 275.968 212.791C276.255 206.257 276.543 199.724 276.974 193.19C277.405 186.584 277.836 180.05 278.483 173.517Z" fill="#4385D8"/>
<path d="M261.954 167.342L241.688 166.049L242.478 153.987C242.55 152.479 243.844 151.33 245.353 151.474L260.229 152.407C261.738 152.479 262.888 153.772 262.745 155.279L261.954 167.342Z" fill="#4385D8"/>
<path d="M201.514 226.649C195.262 224.064 192.243 216.812 194.83 210.565L208.629 177.466C211.216 171.219 218.475 168.203 224.727 170.788C230.979 173.373 233.998 180.625 231.411 186.871L217.612 219.971C214.953 226.29 207.766 229.305 201.514 226.649Z" fill="#4385D8"/>
<path d="M224.727 170.788C226.955 171.506 228.967 172.942 230.405 174.809C231.842 176.676 232.776 179.045 232.992 181.486C233.351 183.928 232.561 186.441 231.626 188.523L229.039 194.913C227.242 199.149 225.446 203.385 223.577 207.55L220.703 213.796C219.696 215.879 218.69 217.961 217.612 219.971C218.331 217.745 219.122 215.591 219.84 213.437L222.212 206.975C223.793 202.667 225.59 198.431 227.314 194.123L230.045 187.805C230.476 186.728 230.98 185.794 231.195 184.717C231.483 183.712 231.626 182.635 231.554 181.486C231.483 177.178 228.824 172.942 224.727 170.788Z" fill="#184071"/>
<path d="M258.792 209.345L252.539 208.914C250.168 208.77 248.371 206.76 248.515 204.391L248.731 201.59C248.874 199.221 250.886 197.426 253.258 197.57L259.51 198L258.792 209.345ZM253.114 200.37C252.324 200.298 251.605 200.944 251.533 201.734L251.318 204.534C251.246 205.324 251.893 206.042 252.683 206.114L256.133 206.329L256.492 200.585L253.114 200.37Z" fill="#243862"/>
<path d="M264.901 218.32L259.439 217.961C256.133 217.745 253.618 214.873 253.833 211.642L254.983 194.195C255.127 192.256 272.447 193.333 272.375 195.344L271.225 212.791C271.081 216.022 268.207 218.535 264.901 218.32Z" fill="#184071"/>
<path d="M270.65 195.775C270.578 196.493 267.416 196.852 263.463 196.564C259.51 196.277 256.348 195.559 256.42 194.841C256.492 194.123 259.654 193.764 263.607 194.051C267.56 194.339 270.722 195.128 270.65 195.775Z" fill="#243862"/>
<path d="M194.687 215.591C194.759 208.77 200.364 203.385 207.192 203.457L243.125 204.032C249.952 204.103 255.342 209.704 255.27 216.525C255.199 223.346 249.593 228.731 242.766 228.659L206.832 228.085C200.005 228.013 194.543 222.412 194.687 215.591Z" fill="#4385D8"/>
<path d="M207.191 203.457C211.791 203.17 216.39 203.026 220.99 202.955C225.589 202.883 230.189 202.883 234.788 202.955L241.687 203.098C243.915 203.098 246.646 203.457 248.73 204.678C250.886 205.827 252.683 207.622 253.833 209.704C254.983 211.786 255.486 214.227 255.198 216.525C254.911 211.93 252.036 207.765 248.084 205.97C247.077 205.539 246.071 205.252 244.993 205.037C243.915 204.821 242.837 204.893 241.687 204.893L234.788 204.821C230.189 204.75 225.589 204.606 220.99 204.391C216.39 204.175 211.791 203.96 207.191 203.457Z" fill="#184071"/>
<path d="M265.158 220.739C268.96 216.161 268.328 209.371 263.746 205.573C259.164 201.774 252.367 202.406 248.565 206.984C244.763 211.561 245.396 218.351 249.977 222.15C254.559 225.948 261.356 225.317 265.158 220.739Z" fill="#F7C29E"/>
<path d="M251.246 208.699C249.88 208.268 249.162 206.76 249.665 205.396L250.815 202.093C251.246 200.729 252.755 200.011 254.12 200.513C255.486 200.944 256.205 202.452 255.702 203.816L254.552 207.119C254.049 208.483 252.611 209.201 251.246 208.699Z" fill="#F7C29E"/>
<path d="M271.943 210.135L262.385 210.996C260.876 211.14 259.582 210.063 259.439 208.555C259.295 207.047 260.373 205.755 261.882 205.611L271.44 204.75C272.95 204.606 274.243 205.683 274.387 207.191C274.531 208.627 273.381 209.991 271.943 210.135Z" fill="#F7C29E"/>
<path d="M269.859 218.894L260.229 218.248C258.72 218.176 257.642 216.884 257.714 215.376C257.786 213.868 259.079 212.791 260.589 212.863L270.219 213.509C271.728 213.581 272.806 214.873 272.734 216.381C272.662 217.889 271.369 219.038 269.859 218.894Z" fill="#F7C29E"/>
<path d="M367.526 190.677C367.239 190.677 366.951 190.533 366.736 190.318C366.304 189.887 366.304 189.169 366.736 188.738L377.516 177.968C377.947 177.537 378.665 177.537 379.097 177.968C379.528 178.399 379.528 179.117 379.097 179.548L368.317 190.318C368.101 190.533 367.814 190.677 367.526 190.677Z" fill="#E5531C"/>
<path d="M359.908 184.071C359.261 184.071 358.758 183.569 358.758 182.922V167.701C358.758 167.055 359.261 166.552 359.908 166.552C360.555 166.552 361.058 167.055 361.058 167.701V182.922C360.986 183.569 360.483 184.071 359.908 184.071Z" fill="#E5531C"/>
<path d="M389.373 198.288H374.138C373.491 198.288 372.988 197.785 372.988 197.139C372.988 196.493 373.491 195.99 374.138 195.99H389.373C390.02 195.99 390.523 196.493 390.523 197.139C390.451 197.785 389.948 198.288 389.373 198.288Z" fill="#E5531C"/>
<path d="M254.264 245.532H347.26C349.847 245.532 350.637 243.45 350.637 240.865H249.593C249.593 243.45 251.677 245.532 254.264 245.532Z" fill="#9E84AF"/>
<path d="M248.874 240.865H281.861C281.861 243.45 279.489 245.532 276.543 245.532H254.911C254.911 245.532 248.802 245.532 248.73 245.532C245.712 245.532 245.856 240.865 248.874 240.865Z" fill="#9E84AF"/>
<path d="M283.945 242.229H350.709C352.721 242.229 354.374 240.793 354.733 238.855L363.717 200.298C364.22 197.785 362.279 195.416 359.692 195.416H292.928C290.916 195.416 289.263 196.852 288.903 198.79L279.92 237.347C279.417 239.86 281.357 242.229 283.945 242.229Z" fill="#B4ADBB"/>
<path d="M288.904 198.718C289.119 197.641 289.694 196.708 290.557 196.134C291.778 197.067 292.497 198.575 292.209 200.226L283.154 238.855C282.939 239.932 282.364 240.793 281.501 241.439C280.28 240.506 279.561 238.998 279.848 237.347L288.904 198.718Z" fill="#9E84AF"/>
<path d="M330.874 223.705H319.95C317.722 223.705 315.854 221.91 315.854 219.612C315.854 217.386 317.65 215.52 319.95 215.52H330.874C333.102 215.52 334.97 217.315 334.97 219.612C334.97 221.91 333.102 223.705 330.874 223.705Z" fill="white"/>
<path d="M258.863 242.157H255.558C254.911 242.157 254.408 241.655 254.408 241.009C254.408 240.362 254.911 239.86 255.558 239.86H258.863C259.51 239.86 260.013 240.362 260.013 241.009C260.013 241.655 259.51 242.157 258.863 242.157Z" fill="#9E84AF"/>
<path d="M265.259 242.157H261.954C261.307 242.157 260.804 241.655 260.804 241.009C260.804 240.362 261.307 239.86 261.954 239.86H265.259C265.906 239.86 266.409 240.362 266.409 241.009C266.481 241.655 265.906 242.157 265.259 242.157Z" fill="#9E84AF"/>
<path d="M271.656 242.157H268.35C267.703 242.157 267.2 241.655 267.2 241.009C267.2 240.362 267.703 239.86 268.35 239.86H271.656C272.303 239.86 272.806 240.362 272.806 241.009C272.878 241.655 272.303 242.157 271.656 242.157Z" fill="#9E84AF"/>
<path d="M278.124 242.157H274.818C274.171 242.157 273.668 241.655 273.668 241.009C273.668 240.362 274.171 239.86 274.818 239.86H278.124C278.77 239.86 279.274 240.362 279.274 241.009C279.274 241.655 278.77 242.157 278.124 242.157Z" fill="#9E84AF"/>
<path d="M161.557 223.561C161.557 223.561 159.472 208.052 155.735 204.247" stroke="#1B2A67" stroke-width="0.8269" stroke-miterlimit="10" stroke-linecap="round"/>
<path d="M156.382 194.985C157.388 198.288 157.172 201.303 155.951 201.662C154.729 202.021 152.86 199.652 151.854 196.349V196.277C150.992 193.333 155.448 191.969 156.382 194.913C156.31 194.913 156.382 194.913 156.382 194.985Z" fill="#BF4019"/>
<path d="M162.275 202.38C158.969 203.385 155.95 203.17 155.591 201.949C155.232 200.729 157.603 198.862 160.909 197.857H160.981C163.928 196.995 165.293 201.447 162.347 202.38C162.347 202.38 162.347 202.38 162.275 202.38Z" fill="#BF4019"/>
<path d="M150.992 205.755C154.298 204.75 156.669 202.955 156.31 201.662C155.951 200.37 152.932 200.226 149.626 201.231H149.554C146.608 202.165 147.973 206.616 150.92 205.755C150.92 205.827 150.92 205.827 150.992 205.755Z" fill="#BF4019"/>
<path d="M156.525 209.56C157.46 206.257 157.172 203.242 155.951 202.883C154.657 202.524 152.932 204.965 151.998 208.268V208.34C151.207 211.283 155.663 212.576 156.525 209.632V209.56Z" fill="#BF4019"/>
<path d="M159.76 208.555C157.172 206.329 155.735 203.673 156.597 202.667C157.46 201.662 160.263 202.739 162.922 204.965L162.994 205.037C165.293 207.047 162.275 210.565 159.903 208.627C159.831 208.627 159.76 208.627 159.76 208.555Z" fill="#BF4019"/>
<path d="M157.46 202.093C157.748 202.955 157.244 203.816 156.382 204.103C155.52 204.391 154.657 203.888 154.37 203.026C154.082 202.165 154.585 201.303 155.448 201.016C156.31 200.729 157.173 201.231 157.46 202.093Z" fill="#E5531C"/>
<path d="M155.448 213.581C159.76 216.956 162.203 221.048 160.909 222.628C159.616 224.279 155.088 222.843 150.776 219.469C146.464 216.094 145.314 210.422 145.314 210.422C145.314 210.422 151.136 210.206 155.448 213.581Z" fill="#7AA2D6"/>
<path d="M170.54 218.679C166.012 222.915 160.981 224.997 159.4 223.274C157.819 221.551 160.191 216.74 164.719 212.432C169.246 208.196 175.858 207.837 175.858 207.837C175.858 207.837 175.139 214.443 170.54 218.679Z" fill="#7AA2D6"/>
<path d="M167.234 241.798H152.358L149.771 223.13H169.821L167.234 241.798Z" fill="#6E4697"/>
<path d="M170.612 227.869H148.98C148.405 227.869 147.902 227.367 147.902 226.792V221.982C147.902 221.407 148.405 220.905 148.98 220.905H170.612C171.187 220.905 171.69 221.407 171.69 221.982V226.792C171.69 227.438 171.187 227.869 170.612 227.869Z" fill="#6E4697"/>
<path d="M205.107 83.4794L212.51 91.3774L268.638 67.9706L205.107 83.4794Z" fill="#BF4019"/>
<path d="M207.767 57.4878L202.233 65.8166L205.97 74.0018L197.562 75.4378L190.087 91.7364L270.506 67.468L207.767 57.4878Z" fill="#E5531C"/>
<path d="M205.97 74.0019L202.233 65.8167L245.712 67.8271L205.97 74.0019Z" fill="#BF4019"/>
<path d="M201.73 155.064C201.083 155.064 200.508 155.064 199.861 155.064C199.214 155.064 198.711 154.561 198.783 153.915C198.783 153.269 199.358 152.695 199.933 152.838C202.88 152.838 205.754 152.838 208.916 152.695C208.916 152.695 208.916 152.695 208.988 152.695C209.563 152.695 210.066 153.197 210.138 153.772C210.138 154.418 209.707 154.92 209.06 154.92C206.473 154.992 204.029 155.064 201.73 155.064ZM190.878 154.633H190.806C187.716 154.346 184.625 153.987 181.751 153.484C181.104 153.341 180.745 152.766 180.817 152.192C180.96 151.618 181.535 151.187 182.11 151.259C184.985 151.761 187.931 152.12 190.95 152.407C191.597 152.479 192.028 152.982 191.956 153.628C191.884 154.131 191.453 154.633 190.878 154.633ZM173.055 151.33C172.911 151.33 172.839 151.33 172.696 151.259C169.749 150.325 166.874 149.248 164.143 147.956C163.569 147.669 163.353 147.022 163.569 146.448C163.856 145.874 164.503 145.658 165.078 145.874C167.737 147.094 170.54 148.171 173.342 149.033C173.917 149.248 174.277 149.823 174.061 150.469C173.989 151.043 173.558 151.33 173.055 151.33ZM156.741 143.648C156.526 143.648 156.31 143.576 156.094 143.432C153.507 141.709 151.136 139.842 148.836 137.76C148.405 137.329 148.333 136.611 148.764 136.181C149.195 135.75 149.914 135.678 150.345 136.109C152.501 138.119 154.873 139.914 157.316 141.566C157.819 141.925 157.963 142.643 157.604 143.145C157.46 143.504 157.101 143.648 156.741 143.648ZM143.518 131.514C143.158 131.514 142.871 131.37 142.655 131.083C140.715 128.713 138.99 126.129 137.481 123.472C137.193 122.898 137.337 122.251 137.912 121.964C138.487 121.677 139.134 121.821 139.421 122.395C140.859 124.98 142.583 127.421 144.38 129.719C144.739 130.221 144.668 130.939 144.236 131.298C143.949 131.442 143.733 131.514 143.518 131.514ZM134.534 115.861C134.103 115.861 133.672 115.574 133.456 115.143C132.378 112.199 131.516 109.256 130.941 106.24C130.797 105.666 131.229 105.019 131.803 104.948C132.45 104.804 133.025 105.235 133.097 105.809C133.672 108.681 134.463 111.481 135.541 114.282C135.756 114.856 135.469 115.502 134.894 115.718C134.822 115.789 134.678 115.861 134.534 115.861ZM130.941 98.1984C130.366 98.1984 129.863 97.7676 129.791 97.1214C129.647 95.2546 129.647 93.316 129.647 91.3774V90.9466C129.647 89.9414 129.647 89.008 129.719 88.0028C129.719 87.4284 130.222 86.9258 130.869 86.9258C130.869 86.9258 130.869 86.9258 130.941 86.9258C131.588 86.9258 132.019 87.5002 132.019 88.0746C132.019 89.008 131.947 90.0132 131.947 90.9466V91.3774C131.947 93.316 132.019 95.1828 132.091 96.9778C132.163 97.624 131.66 98.1266 131.013 98.1984C131.013 98.1984 131.013 98.1984 130.941 98.1984Z" fill="#E5531C"/>
<path d="M140.427 80.3202C138.703 80.3202 136.978 80.3202 135.325 80.2484C134.678 80.2484 134.247 79.7458 134.247 79.0996C134.247 78.4534 134.75 78.0226 135.397 78.0226C138.271 78.0944 141.29 78.0944 144.38 78.0226C145.099 77.9508 145.53 78.5252 145.53 79.0996C145.53 79.7458 145.027 80.2484 144.452 80.2484C143.086 80.3202 141.793 80.3202 140.427 80.3202ZM153.507 79.9612C152.932 79.9612 152.429 79.5304 152.357 78.8842C152.357 78.238 152.788 77.7354 153.435 77.6636C156.382 77.52 159.4 77.3046 162.419 77.0174C162.993 76.9456 163.568 77.4482 163.64 78.0226C163.712 78.6688 163.209 79.1714 162.634 79.2432C159.544 79.5304 156.454 79.8176 153.507 79.9612ZM126.341 79.8176H126.27C123.107 79.6022 120.089 79.2432 117.214 78.8124C116.568 78.7406 116.136 78.1662 116.28 77.52C116.352 76.8738 116.927 76.5148 117.574 76.5866C120.377 77.0174 123.395 77.3046 126.485 77.5918C127.132 77.6636 127.563 78.1662 127.491 78.8124C127.419 79.3868 126.916 79.8176 126.341 79.8176ZM171.546 78.3816C170.971 78.3816 170.468 77.9508 170.396 77.3764C170.324 76.7302 170.755 76.2276 171.402 76.1558C174.348 75.7968 177.295 75.4378 180.385 75.007C181.032 74.9352 181.607 75.366 181.679 75.9404C181.751 76.5866 181.319 77.161 180.745 77.2328C177.654 77.6636 174.708 78.0944 171.761 78.3816C171.617 78.3816 171.546 78.3816 171.546 78.3816ZM108.447 77.2328C108.375 77.2328 108.303 77.2328 108.231 77.2328C106.075 76.7302 103.919 76.2276 101.907 75.5814C101.044 75.2942 100.182 75.0788 99.3915 74.7916C98.8165 74.5762 98.4572 73.93 98.6728 73.3556C98.8884 72.7812 99.5352 72.4222 100.11 72.6376C100.901 72.9248 101.763 73.1402 102.554 73.4274C104.494 74.0018 106.578 74.5762 108.734 75.007C109.309 75.1506 109.74 75.725 109.597 76.3712C109.453 76.8738 108.95 77.2328 108.447 77.2328ZM91.3424 71.417C91.1987 71.417 90.9831 71.3452 90.8393 71.2734C87.9647 69.9092 85.3056 68.3296 82.8621 66.6064C82.3591 66.2474 82.2153 65.5294 82.5747 65.0268C82.934 64.5242 83.6527 64.3806 84.1557 64.7396C86.4555 66.391 89.0427 67.8988 91.7736 69.263C92.3485 69.5502 92.5641 70.1964 92.2767 70.7708C92.1329 71.2016 91.7736 71.417 91.3424 71.417ZM130.15 70.4118C129.504 70.4118 129.001 69.9092 129.001 69.263V68.8322C129.001 65.9602 128.857 63.0882 128.641 60.288C128.569 59.6418 129.072 59.1392 129.647 59.0674C130.222 58.9956 130.797 59.4982 130.869 60.0726C131.085 62.9446 131.228 65.8884 131.228 68.8322V69.263C131.228 69.9092 130.725 70.4118 130.15 70.4118ZM76.7535 60.8624C76.466 60.8624 76.1785 60.7188 75.8911 60.5034C73.8069 58.2058 71.9384 55.621 70.5011 52.9644C70.2136 52.39 70.4292 51.7438 70.9323 51.4566C71.5072 51.1694 72.154 51.3848 72.4415 51.8874C73.8069 54.4004 75.5317 56.8416 77.544 58.9956C77.9752 59.4264 77.9033 60.1444 77.4721 60.5752C77.3284 60.7906 77.0409 60.8624 76.7535 60.8624ZM128.641 52.39C128.066 52.39 127.635 52.031 127.563 51.4566C127.06 48.3692 126.341 45.4972 125.551 42.7688C125.407 42.1944 125.695 41.5482 126.341 41.4046C126.916 41.1892 127.563 41.5482 127.707 42.1944C128.497 44.9946 129.216 48.0102 129.791 51.1694C129.863 51.8156 129.504 52.39 128.857 52.4618C128.785 52.39 128.713 52.39 128.641 52.39ZM68.1295 45.21C67.6264 45.21 67.1952 44.851 67.0515 44.3484C66.9077 43.8458 66.764 43.3432 66.6921 42.8406C66.2609 41.1174 66.1172 39.466 66.1172 37.8864C66.1172 36.8812 66.1891 35.9478 66.3328 35.0144C66.4047 34.3682 66.9796 34.0093 67.6264 34.0811C68.2732 34.1529 68.6325 34.7272 68.5607 35.3734C68.4169 36.235 68.3451 37.0966 68.3451 37.9582C68.3451 39.3942 68.5607 40.902 68.92 42.4098C69.0637 42.9124 69.1356 43.415 69.2793 43.8458C69.4231 44.4202 69.0637 45.0665 68.4888 45.21C68.3451 45.21 68.2732 45.21 68.1295 45.21ZM123.467 35.0862C123.036 35.0862 122.676 34.8708 122.461 34.4401C121.095 31.6399 119.586 29.1268 117.861 26.9728C117.502 26.4702 117.574 25.7522 118.005 25.3932C118.508 25.0342 119.227 25.106 119.586 25.5368C121.383 27.8344 123.036 30.491 124.473 33.4348C124.76 34.0092 124.473 34.6554 123.97 34.9426C123.754 35.0862 123.611 35.0862 123.467 35.0862ZM70.9323 28.0498C70.7167 28.0498 70.4292 27.978 70.2855 27.8344C69.7824 27.4754 69.7105 26.7574 70.0699 26.2548C71.8665 23.8854 74.2381 21.8032 77.1128 20.0082C77.6159 19.721 78.3345 19.8646 78.6939 20.3672C79.0532 20.8698 78.8376 21.5878 78.3345 21.9468C75.6755 23.5264 73.5195 25.4651 71.8665 27.6191C71.5791 27.9063 71.2916 28.0498 70.9323 28.0498ZM112.04 21.3724C111.824 21.3724 111.609 21.3006 111.393 21.157C109.022 19.5774 106.363 18.4286 103.488 17.7106C102.913 17.567 102.482 16.9208 102.697 16.3464C102.841 15.772 103.488 15.413 104.063 15.5567C107.153 16.3464 110.028 17.567 112.687 19.2902C113.19 19.6492 113.334 20.2954 113.046 20.8698C112.759 21.157 112.399 21.3724 112.04 21.3724ZM85.9524 18.5004C85.4493 18.5004 85.0181 18.2132 84.8744 17.7106C84.7307 17.1362 85.0181 16.49 85.6649 16.3464C88.5396 15.4848 91.4861 14.9822 94.5045 14.7668H94.8639C95.4388 14.7668 96.0137 15.2694 96.0137 15.8438C96.0137 16.49 95.5107 16.9926 94.9357 16.9926H94.7201C91.8455 17.208 89.0427 17.7106 86.3836 18.5004C86.168 18.5004 86.0243 18.5004 85.9524 18.5004Z" fill="#E5531C"/>
<path d="M357.034 26.1831H417.258C424.804 26.1831 430.913 32.2861 430.913 39.8251V70.8427C430.913 78.3817 424.804 84.4847 417.258 84.4847H377.875L363.645 96.9061V84.4129H356.962C349.416 84.4129 343.307 78.3099 343.307 70.7709V39.7533C343.379 32.2143 349.488 26.1831 357.034 26.1831Z" fill="#6E4697"/>
<path d="M365.73 45.3537H408.418C409.353 45.3537 410.143 44.5639 410.143 43.6305C410.143 42.6971 409.353 41.9073 408.418 41.9073H365.73C364.795 41.9073 364.005 42.6971 364.005 43.6305C364.077 44.5639 364.795 45.3537 365.73 45.3537Z" fill="#C9C6D9"/>
<path d="M365.73 56.6981H408.418C409.353 56.6981 410.143 55.9083 410.143 54.9749C410.143 54.0415 409.353 53.2517 408.418 53.2517H365.73C364.795 53.2517 364.005 54.0415 364.005 54.9749C364.077 55.9801 364.795 56.6981 365.73 56.6981Z" fill="#C9C6D9"/>
<path d="M402.166 68.1144H408.419C409.353 68.1144 410.143 67.3246 410.143 66.3912C410.143 65.4578 409.353 64.668 408.419 64.668H402.166C401.232 64.668 400.441 65.4578 400.441 66.3912C400.513 67.3246 401.232 68.1144 402.166 68.1144Z" fill="#C9C6D9"/>
<path d="M387.937 68.1144H394.189C395.123 68.1144 395.914 67.3246 395.914 66.3912C395.914 65.4578 395.123 64.668 394.189 64.668H387.937C387.002 64.668 386.212 65.4578 386.212 66.3912C386.284 67.3246 387.002 68.1144 387.937 68.1144Z" fill="#C9C6D9"/>
<path d="M365.73 68.1144H379.959C380.894 68.1144 381.684 67.3246 381.684 66.3912C381.684 65.4578 380.894 64.668 379.959 64.668H365.73C364.795 64.668 364.005 65.4578 364.005 66.3912C364.077 67.3246 364.795 68.1144 365.73 68.1144Z" fill="#C9C6D9"/>
<path d="M349.416 88.0747H303.277C298.75 88.0747 295.084 91.7365 295.084 96.2599V122.826C295.084 127.134 298.462 130.652 302.702 131.011L293.216 146.592L318.297 131.083H349.416C353.943 131.083 357.608 127.421 357.608 122.898V96.3317C357.608 91.8083 353.943 88.0747 349.416 88.0747Z" fill="#C9C6D9"/>
<path d="M330.208 107.003C332.341 104.872 332.341 101.417 330.208 99.286C328.075 97.155 324.617 97.155 322.484 99.286C320.351 101.417 320.351 104.872 322.484 107.003C324.617 109.134 328.075 109.134 330.208 107.003Z" fill="#6E4697" stroke="#6E4697" stroke-width="2.7611" stroke-miterlimit="10" stroke-linecap="round" stroke-linejoin="round"/>
<path d="M339.21 121.462H313.41C313.41 116.866 317.147 113.205 321.675 113.205H330.946C335.545 113.205 339.21 116.938 339.21 121.462Z" fill="#6E4697" stroke="#6E4697" stroke-width="2.7611" stroke-miterlimit="10" stroke-linecap="round" stroke-linejoin="round"/>
<path d="M293.719 44.9228C292.21 44.9228 290.629 44.7793 289.191 44.4921C288.617 44.3484 288.185 43.774 288.329 43.1278C288.473 42.4816 289.048 42.1226 289.695 42.2662C291.994 42.7688 294.438 42.8406 296.737 42.4816C297.384 42.4098 297.959 42.8407 298.031 43.4151C298.103 44.0613 297.672 44.6356 297.097 44.7074C295.947 44.851 294.869 44.9228 293.719 44.9228ZM303.996 42.2662C303.565 42.2662 303.205 42.0508 302.99 41.6918C302.702 41.1174 302.918 40.4712 303.421 40.1841C305.505 39.0353 307.374 37.5274 308.883 35.7324C309.314 35.2298 310.033 35.2298 310.464 35.5888C310.967 36.0196 310.967 36.7376 310.608 37.1684C308.883 39.1788 306.799 40.8302 304.499 42.1227C304.355 42.2662 304.14 42.2662 303.996 42.2662ZM282.508 41.6918C282.292 41.6918 282.077 41.62 281.933 41.5482C279.705 40.1122 277.765 38.389 276.112 36.2351C275.752 35.7324 275.824 35.0144 276.327 34.6554C276.83 34.2964 277.549 34.3682 277.908 34.8708C279.346 36.7376 281.142 38.389 283.155 39.6096C283.658 39.9686 283.873 40.6148 283.514 41.1892C283.227 41.4764 282.867 41.6918 282.508 41.6918ZM313.554 31.1372C313.411 31.1372 313.267 31.1372 313.195 31.0654C312.62 30.85 312.333 30.2038 312.548 29.6294C313.339 27.4036 313.77 25.106 313.77 22.6648C313.77 22.0186 314.273 21.516 314.92 21.516C315.567 21.516 316.07 22.0186 316.07 22.6648C316.07 25.3214 315.638 27.9062 314.704 30.4192C314.417 30.85 313.985 31.1372 313.554 31.1372ZM273.525 30.0602C273.021 30.0602 272.59 29.773 272.447 29.2704C271.8 27.1882 271.44 24.9624 271.44 22.7366C271.44 22.3058 271.44 21.875 271.44 21.516C271.44 20.8698 272.015 20.439 272.662 20.439C273.309 20.439 273.74 21.0134 273.74 21.6596C273.74 22.0186 273.74 22.3776 273.74 22.8084C273.74 24.8188 274.028 26.8292 274.603 28.696C274.818 29.2704 274.459 29.9166 273.884 30.132C273.74 30.0602 273.668 30.0602 273.525 30.0602ZM314.273 18.7158C313.77 18.7158 313.339 18.3568 313.195 17.8542C312.62 15.5566 311.614 13.4026 310.32 11.3922C309.961 10.8896 310.105 10.1716 310.608 9.81264C311.111 9.45364 311.829 9.59724 312.189 10.0998C313.698 12.3256 314.776 14.695 315.423 17.2798C315.567 17.8542 315.207 18.5004 314.632 18.644C314.417 18.7158 314.345 18.7158 314.273 18.7158ZM274.387 15.3412C274.243 15.3412 274.099 15.3412 273.956 15.2694C273.381 15.054 273.093 14.336 273.381 13.7616C274.459 11.3204 275.896 9.16644 277.765 7.22784C278.196 6.79704 278.915 6.79704 279.346 7.22784C279.777 7.65864 279.777 8.37664 279.346 8.80744C277.693 10.5306 276.399 12.4692 275.393 14.695C275.249 15.1258 274.818 15.3412 274.387 15.3412ZM305.936 6.58164C305.721 6.58164 305.505 6.50984 305.29 6.36624C303.349 5.00204 301.193 3.99684 298.893 3.35064C298.319 3.20704 297.959 2.56084 298.103 1.98644C298.247 1.41204 298.893 1.05304 299.468 1.19664C302.056 1.91464 304.427 2.99164 306.583 4.57124C307.086 4.93024 307.23 5.64824 306.871 6.15084C306.655 6.43804 306.296 6.58164 305.936 6.58164ZM284.592 4.78664C284.161 4.78664 283.801 4.57124 283.586 4.14044C283.298 3.56604 283.514 2.91984 284.089 2.63264C286.461 1.48384 289.048 0.765838 291.635 0.550438C292.21 0.478638 292.785 0.98124 292.857 1.55564C292.929 2.20184 292.425 2.70444 291.851 2.77624C289.479 2.99164 287.179 3.63784 285.023 4.64304C284.879 4.78664 284.736 4.78664 284.592 4.78664Z" fill="#F19C61"/>
<path d="M293.719 11.9667C285.598 11.9667 278.986 16.3465 278.986 21.7315C278.986 23.1675 280.136 24.1009 281.142 23.6701L285.023 22.0187C285.957 21.5879 286.389 20.2955 285.957 19.1467L285.454 17.8543C285.454 17.8543 292.569 19.1467 301.912 17.8543L301.409 19.5057C301.121 20.5827 301.481 21.7315 302.271 22.1623L306.08 24.2445C307.014 24.7471 308.092 24.1009 308.308 22.8085C308.38 22.4495 308.38 22.0905 308.38 21.7315C308.523 16.3465 301.912 11.9667 293.719 11.9667Z" fill="#F19C61"/>
<path d="M303.996 33.3631H283.514L286.532 23.8855C287.107 22.0905 288.76 20.8699 290.628 20.8699H296.809C298.678 20.8699 300.331 22.0905 300.905 23.8855L303.996 33.3631Z" fill="#F1D0A4"/>
<path d="M425.666 160.521C424.157 160.521 422.576 160.377 421.139 160.09C420.564 159.946 420.133 159.372 420.276 158.726C420.42 158.151 420.995 157.721 421.642 157.864C423.942 158.367 426.385 158.439 428.685 158.08C429.332 158.008 429.906 158.439 429.978 159.013C430.05 159.659 429.619 160.234 429.044 160.305C427.894 160.449 426.744 160.521 425.666 160.521ZM435.871 157.936C435.44 157.936 435.081 157.721 434.865 157.362C434.578 156.787 434.793 156.141 435.297 155.854C437.381 154.705 439.249 153.197 440.758 151.402C441.19 150.9 441.908 150.9 442.339 151.259C442.842 151.689 442.842 152.407 442.483 152.838C440.758 154.849 438.674 156.5 436.375 157.792C436.231 157.864 436.087 157.936 435.871 157.936ZM414.383 157.29C414.168 157.29 413.952 157.218 413.808 157.146C411.58 155.71 409.64 153.987 407.987 151.833C407.628 151.33 407.7 150.612 408.203 150.253C408.706 149.894 409.425 149.966 409.784 150.469C411.221 152.336 413.018 153.987 415.03 155.208C415.533 155.567 415.749 156.213 415.389 156.787C415.174 157.146 414.814 157.29 414.383 157.29ZM445.502 146.807C445.358 146.807 445.214 146.807 445.142 146.735C444.567 146.52 444.28 145.874 444.495 145.299C445.286 143.073 445.717 140.704 445.717 138.335C445.717 137.688 446.22 137.186 446.867 137.186C447.514 137.186 448.017 137.688 448.017 138.335C448.017 140.991 447.586 143.576 446.651 146.089C446.364 146.52 445.933 146.807 445.502 146.807ZM405.472 145.658C404.969 145.658 404.538 145.371 404.394 144.868C403.747 142.786 403.388 140.56 403.388 138.335C403.388 137.904 403.388 137.473 403.388 137.114C403.388 136.468 404.035 136.037 404.609 136.037C405.256 136.037 405.687 136.611 405.687 137.258C405.687 137.617 405.687 137.976 405.687 138.406C405.687 140.417 405.975 142.427 406.55 144.294C406.765 144.868 406.406 145.515 405.831 145.73C405.687 145.658 405.544 145.658 405.472 145.658ZM446.148 134.386C445.645 134.386 445.214 134.027 445.07 133.524C444.495 131.226 443.489 129.072 442.196 127.062C441.836 126.559 441.98 125.841 442.483 125.482C442.986 125.123 443.705 125.267 444.064 125.77C445.573 127.924 446.651 130.365 447.298 132.95C447.442 133.524 447.083 134.17 446.508 134.314C446.364 134.314 446.22 134.386 446.148 134.386ZM406.262 131.011C406.119 131.011 405.975 131.011 405.831 130.939C405.256 130.724 404.969 130.006 405.256 129.431C406.334 126.99 407.772 124.836 409.64 122.898C410.071 122.467 410.79 122.467 411.221 122.898C411.652 123.328 411.652 124.046 411.221 124.477C409.568 126.2 408.275 128.139 407.269 130.365C407.125 130.724 406.694 131.011 406.262 131.011ZM437.884 122.251C437.668 122.251 437.453 122.18 437.237 122.036C435.297 120.672 433.14 119.667 430.841 119.02C430.266 118.877 429.907 118.231 430.05 117.656C430.194 117.082 430.841 116.723 431.416 116.866C434.003 117.584 436.375 118.661 438.531 120.241C439.034 120.6 439.177 121.318 438.818 121.821C438.602 122.036 438.243 122.251 437.884 122.251ZM416.467 120.456C416.036 120.456 415.677 120.241 415.461 119.81C415.174 119.236 415.389 118.59 415.964 118.302C418.336 117.154 420.923 116.436 423.51 116.22C424.157 116.148 424.66 116.651 424.732 117.225C424.804 117.872 424.301 118.374 423.726 118.446C421.354 118.661 419.055 119.308 416.899 120.313C416.827 120.385 416.611 120.456 416.467 120.456Z" fill="#F19C61"/>
<path d="M438.602 134.314H412.371V149.176H438.602V134.314Z" fill="#F1D0A4"/>
<path d="M435.009 133.165V131.37C435.009 130.006 436.087 128.929 437.453 128.929C438.818 128.929 439.896 130.006 439.896 131.37V134.386H435.081" fill="#F19C61"/>
<path d="M435.009 131.298V146.735H417.114V131.298C417.114 129.934 418.192 128.857 419.558 128.857H437.237L436.734 128.929C435.728 129.288 435.009 130.221 435.009 131.298Z" fill="#E0EEF7"/>
<path d="M422.217 131.37H418.264V135.463H422.217V131.37Z" fill="#F19C61"/>
<path d="M423.438 131.37H433.5" stroke="#F19C61" stroke-width="0.6576" stroke-miterlimit="10" stroke-linecap="round" stroke-linejoin="round"/>
<path d="M423.438 132.734H433.5" stroke="#F19C61" stroke-width="0.6576" stroke-miterlimit="10" stroke-linecap="round" stroke-linejoin="round"/>
<path d="M423.438 134.099H433.5" stroke="#F19C61" stroke-width="0.6576" stroke-miterlimit="10" stroke-linecap="round" stroke-linejoin="round"/>
<path d="M423.582 135.463H433.643" stroke="#F19C61" stroke-width="0.6576" stroke-miterlimit="10" stroke-linecap="round" stroke-linejoin="round"/>
<path d="M418.264 136.827H433.5" stroke="#F19C61" stroke-width="0.6576" stroke-miterlimit="10" stroke-linecap="round" stroke-linejoin="round"/>
<path d="M418.264 138.191H433.5" stroke="#F19C61" stroke-width="0.6576" stroke-miterlimit="10" stroke-linecap="round" stroke-linejoin="round"/>
<path d="M418.264 139.484H433.5" stroke="#F19C61" stroke-width="0.6576" stroke-miterlimit="10" stroke-linecap="round" stroke-linejoin="round"/>
<path d="M418.264 140.848H425.666" stroke="#F19C61" stroke-width="0.6576" stroke-miterlimit="10" stroke-linecap="round" stroke-linejoin="round"/>
<path d="M432.134 149.176H412.371V134.314L432.134 149.176Z" fill="#F19C61"/>
<path d="M418.839 149.176H438.602V134.314L418.839 149.176Z" fill="#F19C61"/>
<path d="M438.602 149.176H425.451H412.371L424.157 142.93C424.948 142.355 426.026 142.355 426.816 142.93L438.602 149.176Z" fill="#F19C61"/>
<path d="M175.079 318.65H177.13L177.289 331.395H174.92L175.079 318.65ZM177.374 314.842C177.374 315.208 177.26 315.517 177.032 315.77C176.812 316.022 176.483 316.148 176.043 316.148C175.604 316.148 175.27 316.022 175.042 315.77C174.815 315.517 174.701 315.208 174.701 314.842C174.701 314.476 174.815 314.17 175.042 313.926C175.27 313.682 175.604 313.56 176.043 313.56C176.483 313.56 176.812 313.682 177.032 313.926C177.26 314.17 177.374 314.476 177.374 314.842ZM184.198 309.227L190.008 323.729L195.819 309.227H198.858V327H196.515V320.079L196.734 312.608L190.899 327H189.105L183.282 312.645L183.514 320.079V327H181.17V309.227H184.198ZM210.797 325.694C209.918 326.727 208.628 327.244 206.927 327.244C205.519 327.244 204.445 326.837 203.705 326.023C202.972 325.201 202.602 323.989 202.594 322.386V313.792H204.852V322.325C204.852 324.327 205.666 325.328 207.293 325.328C209.019 325.328 210.166 324.685 210.736 323.399V313.792H212.994V327H210.846L210.797 325.694ZM221.734 325.401C222.54 325.401 223.244 325.157 223.846 324.668C224.448 324.18 224.782 323.57 224.847 322.837H226.983C226.943 323.594 226.682 324.314 226.202 324.998C225.722 325.682 225.079 326.227 224.273 326.634C223.476 327.041 222.63 327.244 221.734 327.244C219.936 327.244 218.504 326.646 217.438 325.45C216.38 324.245 215.851 322.601 215.851 320.518V320.14C215.851 318.854 216.087 317.71 216.559 316.709C217.031 315.708 217.706 314.931 218.585 314.378C219.472 313.825 220.518 313.548 221.722 313.548C223.203 313.548 224.432 313.991 225.409 314.878C226.393 315.765 226.918 316.917 226.983 318.333H224.847C224.782 317.479 224.457 316.779 223.871 316.233C223.293 315.68 222.577 315.403 221.722 315.403C220.575 315.403 219.684 315.818 219.049 316.648C218.422 317.47 218.109 318.663 218.109 320.225V320.652C218.109 322.174 218.422 323.346 219.049 324.168C219.675 324.99 220.571 325.401 221.734 325.401ZM231.781 315.391C232.782 314.162 234.084 313.548 235.687 313.548C238.478 313.548 239.886 315.123 239.911 318.272V327H237.652V318.26C237.644 317.308 237.424 316.604 236.993 316.148C236.57 315.692 235.907 315.464 235.003 315.464C234.271 315.464 233.628 315.66 233.075 316.05C232.521 316.441 232.09 316.954 231.781 317.588V327H229.522V308.25H231.781V315.391ZM251.446 327C251.316 326.74 251.21 326.276 251.129 325.608C250.079 326.699 248.826 327.244 247.369 327.244C246.067 327.244 244.997 326.878 244.159 326.146C243.329 325.405 242.914 324.469 242.914 323.338C242.914 321.963 243.434 320.896 244.476 320.14C245.526 319.375 246.999 318.992 248.895 318.992H251.092V317.955C251.092 317.165 250.856 316.539 250.384 316.075C249.912 315.603 249.216 315.367 248.297 315.367C247.491 315.367 246.816 315.57 246.271 315.977C245.725 316.384 245.453 316.876 245.453 317.454H243.182C243.182 316.795 243.414 316.16 243.878 315.55C244.35 314.931 244.985 314.443 245.782 314.085C246.588 313.727 247.471 313.548 248.431 313.548C249.953 313.548 251.145 313.93 252.008 314.695C252.87 315.452 253.318 316.498 253.351 317.833V323.912C253.351 325.124 253.505 326.089 253.814 326.805V327H251.446ZM247.699 325.279C248.407 325.279 249.078 325.096 249.713 324.729C250.348 324.363 250.807 323.887 251.092 323.301V320.591H249.322C246.555 320.591 245.172 321.401 245.172 323.021C245.172 323.729 245.408 324.282 245.88 324.681C246.352 325.079 246.958 325.279 247.699 325.279ZM264.581 323.497C264.581 322.886 264.349 322.414 263.885 322.081C263.43 321.739 262.628 321.446 261.48 321.202C260.341 320.958 259.434 320.665 258.758 320.323C258.091 319.981 257.595 319.574 257.269 319.102C256.952 318.63 256.793 318.069 256.793 317.417C256.793 316.335 257.249 315.42 258.16 314.671C259.08 313.922 260.252 313.548 261.676 313.548C263.173 313.548 264.386 313.934 265.313 314.708C266.249 315.481 266.717 316.469 266.717 317.674H264.447C264.447 317.055 264.182 316.522 263.653 316.075C263.132 315.627 262.473 315.403 261.676 315.403C260.854 315.403 260.211 315.582 259.747 315.94C259.283 316.299 259.051 316.766 259.051 317.344C259.051 317.889 259.267 318.3 259.698 318.577C260.13 318.854 260.907 319.118 262.03 319.371C263.161 319.623 264.076 319.924 264.776 320.274C265.476 320.624 265.993 321.047 266.327 321.543C266.668 322.032 266.839 322.63 266.839 323.338C266.839 324.518 266.367 325.466 265.423 326.182C264.479 326.89 263.255 327.244 261.749 327.244C260.691 327.244 259.755 327.057 258.941 326.683C258.128 326.308 257.489 325.787 257.025 325.12C256.569 324.445 256.341 323.716 256.341 322.935H258.6C258.64 323.692 258.941 324.294 259.503 324.742C260.073 325.181 260.821 325.401 261.749 325.401C262.604 325.401 263.287 325.23 263.8 324.888C264.321 324.538 264.581 324.074 264.581 323.497ZM289.459 324.668C288.857 325.531 288.014 326.178 286.932 326.609C285.858 327.033 284.605 327.244 283.172 327.244C281.724 327.244 280.438 326.906 279.315 326.231C278.192 325.547 277.321 324.579 276.703 323.326C276.092 322.072 275.779 320.62 275.763 318.968V317.417C275.763 314.74 276.385 312.665 277.63 311.192C278.884 309.719 280.641 308.982 282.904 308.982C284.759 308.982 286.253 309.458 287.384 310.411C288.515 311.355 289.207 312.697 289.459 314.439H287.115C286.676 312.087 285.276 310.911 282.916 310.911C281.345 310.911 280.153 311.465 279.339 312.571C278.534 313.67 278.127 315.265 278.119 317.356V318.809C278.119 320.803 278.574 322.39 279.486 323.57C280.397 324.742 281.63 325.328 283.185 325.328C284.063 325.328 284.833 325.23 285.492 325.035C286.151 324.839 286.696 324.51 287.127 324.046V320.054H283.014V318.15H289.459V324.668ZM299.408 315.818C299.066 315.761 298.696 315.733 298.297 315.733C296.816 315.733 295.811 316.364 295.282 317.625V327H293.023V313.792H295.221L295.257 315.318C295.998 314.138 297.048 313.548 298.407 313.548C298.846 313.548 299.18 313.605 299.408 313.719V315.818ZM309.161 327C309.031 326.74 308.925 326.276 308.844 325.608C307.794 326.699 306.541 327.244 305.084 327.244C303.782 327.244 302.712 326.878 301.874 326.146C301.043 325.405 300.628 324.469 300.628 323.338C300.628 321.963 301.149 320.896 302.191 320.14C303.241 319.375 304.714 318.992 306.61 318.992H308.807V317.955C308.807 317.165 308.571 316.539 308.099 316.075C307.627 315.603 306.931 315.367 306.012 315.367C305.206 315.367 304.531 315.57 303.985 315.977C303.44 316.384 303.167 316.876 303.167 317.454H300.897C300.897 316.795 301.129 316.16 301.593 315.55C302.065 314.931 302.7 314.443 303.497 314.085C304.303 313.727 305.186 313.548 306.146 313.548C307.668 313.548 308.86 313.93 309.723 314.695C310.585 315.452 311.033 316.498 311.065 317.833V323.912C311.065 325.124 311.22 326.089 311.529 326.805V327H309.161ZM305.414 325.279C306.122 325.279 306.793 325.096 307.428 324.729C308.062 324.363 308.522 323.887 308.807 323.301V320.591H307.037C304.27 320.591 302.887 321.401 302.887 323.021C302.887 323.729 303.123 324.282 303.595 324.681C304.067 325.079 304.673 325.279 305.414 325.279ZM319.903 325.401C320.709 325.401 321.413 325.157 322.015 324.668C322.617 324.18 322.951 323.57 323.016 322.837H325.152C325.112 323.594 324.851 324.314 324.371 324.998C323.891 325.682 323.248 326.227 322.442 326.634C321.645 327.041 320.799 327.244 319.903 327.244C318.105 327.244 316.673 326.646 315.606 325.45C314.549 324.245 314.02 322.601 314.02 320.518V320.14C314.02 318.854 314.256 317.71 314.728 316.709C315.2 315.708 315.875 314.931 316.754 314.378C317.641 313.825 318.687 313.548 319.891 313.548C321.372 313.548 322.601 313.991 323.578 314.878C324.562 315.765 325.087 316.917 325.152 318.333H323.016C322.951 317.479 322.625 316.779 322.04 316.233C321.462 315.68 320.746 315.403 319.891 315.403C318.744 315.403 317.853 315.818 317.218 316.648C316.591 317.47 316.278 318.663 316.278 320.225V320.652C316.278 322.174 316.591 323.346 317.218 324.168C317.844 324.99 318.74 325.401 319.903 325.401ZM330.145 327H327.887V313.792H330.145V327ZM327.704 310.289C327.704 309.922 327.813 309.613 328.033 309.361C328.261 309.109 328.595 308.982 329.034 308.982C329.474 308.982 329.807 309.109 330.035 309.361C330.263 309.613 330.377 309.922 330.377 310.289C330.377 310.655 330.263 310.96 330.035 311.204C329.807 311.448 329.474 311.57 329.034 311.57C328.595 311.57 328.261 311.448 328.033 311.204C327.813 310.96 327.704 310.655 327.704 310.289ZM341.925 327C341.795 326.74 341.689 326.276 341.607 325.608C340.558 326.699 339.304 327.244 337.848 327.244C336.546 327.244 335.475 326.878 334.637 326.146C333.807 325.405 333.392 324.469 333.392 323.338C333.392 321.963 333.913 320.896 334.955 320.14C336.004 319.375 337.477 318.992 339.374 318.992H341.571V317.955C341.571 317.165 341.335 316.539 340.863 316.075C340.391 315.603 339.695 315.367 338.775 315.367C337.97 315.367 337.294 315.57 336.749 315.977C336.204 316.384 335.931 316.876 335.931 317.454H333.661C333.661 316.795 333.893 316.16 334.356 315.55C334.828 314.931 335.463 314.443 336.261 314.085C337.066 313.727 337.949 313.548 338.91 313.548C340.431 313.548 341.624 313.93 342.486 314.695C343.349 315.452 343.797 316.498 343.829 317.833V323.912C343.829 325.124 343.984 326.089 344.293 326.805V327H341.925ZM338.177 325.279C338.885 325.279 339.557 325.096 340.191 324.729C340.826 324.363 341.286 323.887 341.571 323.301V320.591H339.801C337.034 320.591 335.65 321.401 335.65 323.021C335.65 323.729 335.886 324.282 336.358 324.681C336.83 325.079 337.437 325.279 338.177 325.279ZM355.06 323.497C355.06 322.886 354.828 322.414 354.364 322.081C353.908 321.739 353.106 321.446 351.959 321.202C350.82 320.958 349.912 320.665 349.237 320.323C348.569 319.981 348.073 319.574 347.748 319.102C347.43 318.63 347.271 318.069 347.271 317.417C347.271 316.335 347.727 315.42 348.639 314.671C349.558 313.922 350.73 313.548 352.154 313.548C353.652 313.548 354.864 313.934 355.792 314.708C356.728 315.481 357.196 316.469 357.196 317.674H354.925C354.925 317.055 354.661 316.522 354.132 316.075C353.611 315.627 352.952 315.403 352.154 315.403C351.332 315.403 350.689 315.582 350.226 315.94C349.762 316.299 349.53 316.766 349.53 317.344C349.53 317.889 349.745 318.3 350.177 318.577C350.608 318.854 351.385 319.118 352.508 319.371C353.639 319.623 354.555 319.924 355.255 320.274C355.955 320.624 356.472 321.047 356.805 321.543C357.147 322.032 357.318 322.63 357.318 323.338C357.318 324.518 356.846 325.466 355.902 326.182C354.958 326.89 353.733 327.244 352.228 327.244C351.17 327.244 350.234 327.057 349.42 326.683C348.606 326.308 347.967 325.787 347.503 325.12C347.048 324.445 346.82 323.716 346.82 322.935H349.078C349.119 323.692 349.42 324.294 349.981 324.742C350.551 325.181 351.3 325.401 352.228 325.401C353.082 325.401 353.766 325.23 354.278 324.888C354.799 324.538 355.06 324.074 355.06 323.497ZM362.787 321.983H360.748L360.589 309.227H362.958L362.787 321.983ZM360.504 325.865C360.504 325.499 360.614 325.193 360.833 324.949C361.061 324.697 361.395 324.571 361.834 324.571C362.274 324.571 362.608 324.697 362.835 324.949C363.063 325.193 363.177 325.499 363.177 325.865C363.177 326.231 363.063 326.536 362.835 326.78C362.608 327.016 362.274 327.134 361.834 327.134C361.395 327.134 361.061 327.016 360.833 326.78C360.614 326.536 360.504 326.231 360.504 325.865Z" fill="#545358"/>
</g>
<defs>
<clipPath id="clip0">
<rect width="539" height="359" fill="white"/>
</clipPath>
</defs>
</svg>
