<svg width="1271" height="455" viewBox="0 0 1271 455" fill="none" xmlns="http://www.w3.org/2000/svg">
<path opacity="0.21" d="M1271 384H1V455H1271V384Z" fill="#2D2D7B"/>
<path opacity="0.33" d="M1268.5 375.018V239.888H1259.49V130.866H1218.59V169.546H1215.94V173.998H1213.05V178.95H1208.57L1199.12 187.853V200.486H1193.09V112.418H1156.56V208.567L1131.06 208.768V185.247H1119.64V180.855H1118.52V137.282H1086.83V136.661H1085.84V122.504L1083.91 120.318H1050.79L1048.91 122.484V146.045H1047.9V173.256H1048.91V198.381L1045.85 196.015L1033.41 187.011L1030.01 189.538V187.633L1028.48 188.856V190.621L1022.63 194.811L1016.79 190.621V188.856L1015.26 187.633V189.538L1011.86 187.011L999.456 196.015L996.36 198.3V148.973L994.484 146.807H961.36L959.464 148.973V163.149H958.478V163.771H926.728V180.855H925.625V185.247H914.21V209.81L900.435 201.308L888.691 208.547V144.601H852.182V200.486H846.145V187.853L836.684 178.95H832.215V173.998H829.332V169.546H826.72V156.853H808.882V189.337H778.738V239.086H751.322V227.957H740.372V239.086H732.942V218.713H712.627V251.919H691.113V179.311H668.379V239.427H648.606V215.525H636.688V156.051H599.211V239.427H580.908V206.502L554.75 240.63V265.214H533.545V200.546H501.099V166.257H477.631V201.83H465.016V121.06H432.164V197.96H400.646V231.587H385.304V254.867H361.1V182.439H331.44V213.44H317.529V98.3616H291.526V133.252L277.673 147.609V193.247H254.823V213.44H216.089V121.06H185.617V174.679H155.415V139.468H135.429V77.668H97.9913V213.44H77.6376V138.927H36.8334V243.217H0.65332V375.018H1268.5Z" fill="#2D2D7B"/>
<path d="M1252.41 241.454L1250.46 242.757V272.636L1247.26 271.254L1234.47 265.803L1230.96 267.326V266.184L1229.4 266.925V267.987L1223.37 270.532L1217.33 267.987V266.925L1215.77 266.184V267.346L1212.26 265.823L1199.42 271.274L1196.29 272.697V257.486H1197.31V241.014H1196.29V226.745L1194.33 225.443H1160.16L1158.17 226.765V235.342H1157.15V235.723H1124.45V262.116H1123.3V264.761H1111.52V279.009L1085.21 278.889V204H1047.55V273.999H1041.32V266.344L1031.58 260.953H1026.95V257.947H1023.98V255.262H1021.24V231.835H979.05V297.867H964.38V277.105L965.098 276.664C964.679 276.404 964.26 276.163 963.841 275.943C963.322 275.663 962.883 275.422 962.424 275.222C959.111 273.679 955.139 272.677 950.907 272.356C950.907 272.356 950.688 272.356 950.548 272.336C950.448 272.336 950.328 272.316 950.209 272.316C949.33 272.236 948.552 272.236 947.734 272.236C940.987 272.236 934.84 273.759 930.429 276.484H930.808L930.848 277.767V297.807L923.703 301.534L922.305 268.749H915.918V260.753H912.944V259.13H910.19V258.428H886.997V259.13H884.203V260.753H881.189V286.644H855.98V285.983H854.463V286.644H847.138L841.889 290.352V236.925H814.165V279.169H788.118L786.602 280.051V300.211C773.608 295.302 759.577 294.32 744.607 300.231C744.607 300.191 744.607 300.171 744.607 300.131C744.607 278.628 744.607 270.372 744.607 269.21L743.09 268.328H716.604L715.067 269.21V275.001C688.94 275.262 693.591 275.262 688.94 275.262V293.077H688.042V294.861H678.921V304.48L658.522 304.4V253.859H629.322V301.093H624.491V295.923L616.927 292.296H613.334V290.272H611.039V288.448H608.903V272.636H576.21V317.185H564.833V303.177L565.392 302.877C565.072 302.696 564.733 302.536 564.414 302.396C564.014 302.195 563.675 302.035 563.316 301.895C560.741 300.853 557.667 300.171 554.394 299.951C554.394 299.951 554.214 299.951 554.115 299.931C554.035 299.931 553.955 299.911 553.855 299.911C553.176 299.851 552.578 299.851 551.939 299.851C546.71 299.851 541.959 300.893 538.526 302.716H538.826L538.866 303.578V317.105L533.317 319.61L532.239 297.486H527.289V292.075H524.994V290.993H522.858V290.532H504.875V290.993H502.719V292.075H500.424V309.55H480.884V309.109H479.706V309.55H474.038L469.966 312.055V276.003H450.885V242.176H434.478L432.542 243.298V269.029L378.951 269.069C378.951 269.009 378.951 268.969 378.951 268.909C378.951 241.495 378.951 230.954 378.951 229.491L377.015 228.368H343.224L341.268 229.511V236.885H340.25V237.206H307.916V259.931H306.778V262.216H295.142V274.48L269.114 274.38V209.892H231.81V270.172H225.663V263.578L216.022 258.949H211.432V256.364H208.498V254.039H205.783V233.859H164.068V290.712H149.558V272.837L150.256 272.456C149.837 272.236 149.418 272.035 148.999 271.835C148.48 271.594 148.061 271.374 147.602 271.214C144.308 269.871 140.396 269.029 136.225 268.749C136.225 268.749 136.005 268.749 135.866 268.729C135.766 268.729 135.646 268.709 135.526 268.709C134.668 268.649 133.89 268.649 133.071 268.649C126.405 268.649 120.337 269.971 115.946 272.296H116.325L116.365 273.398V290.652L109.3 293.859L107.902 265.623H101.575V258.729H98.6413V257.346H95.9269V256.765H72.9935V257.366H70.2391V258.749H67.3051V281.053H42.3758V280.492H40.8789V281.053H33.6336L28.4242 284.24V238.228H1V375H814.145V374.198H1269V241.434H1252.41V241.454Z" fill="#8D8DB7"/>
<path d="M1000.29 135.377V119.356H967.61V135.377L954.608 162.287V375.018H1013.27V162.287L1000.29 135.377Z" fill="#AAAACC"/>
<path d="M982.41 135.377H949.732L936.75 162.287V375.018H995.412V162.287L982.41 135.377Z" fill="#B6B6D1"/>
<path d="M982.43 119.356H949.732V135.377H982.43V119.356Z" fill="#DFDFEA"/>
<path d="M948.204 171.09H942.206V180.053H948.204V171.09Z" fill="white"/>
<path d="M958.652 171.09H952.654V180.053H958.652V171.09Z" fill="#DFDFEA"/>
<path d="M969.08 171.09H963.082V180.053H969.08V171.09Z" fill="#DFDFEA"/>
<path d="M979.508 171.09H973.51V180.053H979.508V171.09Z" fill="white"/>
<path d="M989.937 171.09H983.939V180.053H989.937V171.09Z" fill="#DFDFEA"/>
<path d="M948.204 185.848H942.206V194.812H948.204V185.848Z" fill="#DFDFEA"/>
<path d="M958.652 185.848H952.654V194.812H958.652V185.848Z" fill="#DFDFEA"/>
<path d="M969.08 185.848H963.082V194.812H969.08V185.848Z" fill="#DFDFEA"/>
<path d="M979.508 185.848H973.51V194.812H979.508V185.848Z" fill="#DFDFEA"/>
<path d="M989.937 185.848H983.939V194.812H989.937V185.848Z" fill="white"/>
<path d="M948.204 200.586H942.206V209.55H948.204V200.586Z" fill="#DFDFEA"/>
<path d="M958.652 200.586H952.654V209.55H958.652V200.586Z" fill="white"/>
<path d="M969.08 200.586H963.082V209.55H969.08V200.586Z" fill="#DFDFEA"/>
<path d="M979.508 200.586H973.51V209.55H979.508V200.586Z" fill="#DFDFEA"/>
<path d="M989.937 200.586H983.939V209.55H989.937V200.586Z" fill="#DFDFEA"/>
<path d="M948.204 215.325H942.206V224.288H948.204V215.325Z" fill="#DFDFEA"/>
<path d="M958.652 215.325H952.654V224.288H958.652V215.325Z" fill="#DFDFEA"/>
<path d="M969.08 215.325H963.082V224.288H969.08V215.325Z" fill="#DFDFEA"/>
<path d="M979.508 215.325H973.51V224.288H979.508V215.325Z" fill="white"/>
<path d="M989.937 215.325H983.939V224.288H989.937V215.325Z" fill="#DFDFEA"/>
<path d="M948.204 230.063H942.206V239.026H948.204V230.063Z" fill="#DFDFEA"/>
<path d="M958.652 230.063H952.654V239.026H958.652V230.063Z" fill="white"/>
<path d="M969.08 230.063H963.082V239.026H969.08V230.063Z" fill="#DFDFEA"/>
<path d="M979.508 230.063H973.51V239.026H979.508V230.063Z" fill="#DFDFEA"/>
<path d="M989.937 230.063H983.939V239.026H989.937V230.063Z" fill="#DFDFEA"/>
<path d="M948.204 244.801H942.206V253.764H948.204V244.801Z" fill="#DFDFEA"/>
<path d="M958.652 244.801H952.654V253.764H958.652V244.801Z" fill="#DFDFEA"/>
<path d="M969.08 244.801H963.082V253.764H969.08V244.801Z" fill="#DFDFEA"/>
<path d="M979.508 244.801H973.51V253.764H979.508V244.801Z" fill="white"/>
<path d="M989.937 244.801H983.939V253.764H989.937V244.801Z" fill="#DFDFEA"/>
<path d="M948.204 259.539H942.206V268.503H948.204V259.539Z" fill="white"/>
<path d="M958.652 259.539H952.654V268.503H958.652V259.539Z" fill="white"/>
<path d="M969.08 259.539H963.082V268.503H969.08V259.539Z" fill="#DFDFEA"/>
<path d="M979.508 259.539H973.51V268.503H979.508V259.539Z" fill="white"/>
<path d="M989.937 259.539H983.939V268.503H989.937V259.539Z" fill="#DFDFEA"/>
<path d="M948.204 274.297H942.206V283.281H948.204V274.297Z" fill="#DFDFEA"/>
<path d="M958.652 274.297H952.654V283.281H958.652V274.297Z" fill="#DFDFEA"/>
<path d="M969.08 274.297H963.082V283.281H969.08V274.297Z" fill="white"/>
<path d="M979.508 274.297H973.51V283.281H979.508V274.297Z" fill="#DFDFEA"/>
<path d="M989.937 274.297H983.939V283.281H989.937V274.297Z" fill="white"/>
<path d="M948.204 288.454H942.206V297.417H948.204V288.454Z" fill="#DFDFEA"/>
<path d="M958.652 288.454H952.654V297.417H958.652V288.454Z" fill="white"/>
<path d="M969.08 288.454H963.082V297.417H969.08V288.454Z" fill="#DFDFEA"/>
<path d="M979.508 288.454H973.51V297.417H979.508V288.454Z" fill="white"/>
<path d="M989.937 288.454H983.939V297.417H989.937V288.454Z" fill="#DFDFEA"/>
<path d="M948.204 303.192H942.206V312.156H948.204V303.192Z" fill="#DFDFEA"/>
<path d="M958.652 303.192H952.654V312.156H958.652V303.192Z" fill="white"/>
<path d="M969.08 303.192H963.082V312.156H969.08V303.192Z" fill="#DFDFEA"/>
<path d="M979.508 303.192H973.51V312.156H979.508V303.192Z" fill="white"/>
<path d="M989.937 303.192H983.939V312.156H989.937V303.192Z" fill="white"/>
<path d="M948.204 317.95H942.206V326.914H948.204V317.95Z" fill="#DFDFEA"/>
<path d="M958.652 317.95H952.654V326.914H958.652V317.95Z" fill="#DFDFEA"/>
<path d="M969.08 317.95H963.082V326.914H969.08V317.95Z" fill="white"/>
<path d="M979.508 317.95H973.51V326.914H979.508V317.95Z" fill="#DFDFEA"/>
<path d="M989.937 317.95H983.939V326.914H989.937V317.95Z" fill="#DFDFEA"/>
<path d="M948.204 332.689H942.206V341.652H948.204V332.689Z" fill="white"/>
<path d="M958.652 332.689H952.654V341.652H958.652V332.689Z" fill="#DFDFEA"/>
<path d="M969.08 332.689H963.082V341.652H969.08V332.689Z" fill="#DFDFEA"/>
<path d="M979.508 332.689H973.51V341.652H979.508V332.689Z" fill="#DFDFEA"/>
<path d="M989.937 332.689H983.939V341.652H989.937V332.689Z" fill="white"/>
<path d="M948.204 347.427H942.206V356.39H948.204V347.427Z" fill="#DFDFEA"/>
<path d="M958.652 347.427H952.654V356.39H958.652V347.427Z" fill="#DFDFEA"/>
<path d="M969.08 347.427H963.082V356.39H969.08V347.427Z" fill="white"/>
<path d="M979.508 347.427H973.51V356.39H979.508V347.427Z" fill="white"/>
<path d="M989.937 347.427H983.939V356.39H989.937V347.427Z" fill="#DFDFEA"/>
<path d="M702.587 375.018V203.674L689.604 176.765V160.743H656.907V176.765L643.925 203.674V375.018H702.587Z" fill="#AAAACC"/>
<path d="M684.709 375.018V203.674L671.727 176.765H639.048L626.047 203.674V375.018H684.709Z" fill="#B6B6D1"/>
<path d="M671.745 160.743H639.048V176.765H671.745V160.743Z" fill="#DFDFEA"/>
<path d="M637.52 212.477H631.522V221.441H637.52V212.477Z" fill="white"/>
<path d="M647.948 212.477H641.95V221.441H647.948V212.477Z" fill="#DFDFEA"/>
<path d="M658.396 212.477H652.398V221.441H658.396V212.477Z" fill="#DFDFEA"/>
<path d="M668.824 212.477H662.826V221.441H668.824V212.477Z" fill="white"/>
<path d="M679.254 212.477H673.256V221.441H679.254V212.477Z" fill="#DFDFEA"/>
<path d="M637.52 227.216H631.522V236.179H637.52V227.216Z" fill="#DFDFEA"/>
<path d="M647.948 227.216H641.95V236.179H647.948V227.216Z" fill="white"/>
<path d="M658.396 227.216H652.398V236.179H658.396V227.216Z" fill="#DFDFEA"/>
<path d="M668.824 227.216H662.826V236.179H668.824V227.216Z" fill="#DFDFEA"/>
<path d="M679.254 227.216H673.256V236.179H679.254V227.216Z" fill="#DFDFEA"/>
<path d="M637.52 241.974H631.522V250.957H637.52V241.974Z" fill="white"/>
<path d="M647.948 241.974H641.95V250.957H647.948V241.974Z" fill="#DFDFEA"/>
<path d="M658.396 241.974H652.398V250.957H658.396V241.974Z" fill="white"/>
<path d="M668.824 241.974H662.826V250.957H668.824V241.974Z" fill="white"/>
<path d="M679.254 241.974H673.256V250.957H679.254V241.974Z" fill="#DFDFEA"/>
<path d="M637.52 256.712H631.522V265.675H637.52V256.712Z" fill="#DFDFEA"/>
<path d="M647.948 256.712H641.95V265.675H647.948V256.712Z" fill="#DFDFEA"/>
<path d="M658.396 256.712H652.398V265.675H658.396V256.712Z" fill="white"/>
<path d="M668.824 256.712H662.826V265.675H668.824V256.712Z" fill="#DFDFEA"/>
<path d="M679.254 256.712H673.256V265.675H679.254V256.712Z" fill="#DFDFEA"/>
<path d="M637.52 271.45H631.522V280.413H637.52V271.45Z" fill="#DFDFEA"/>
<path d="M647.948 271.45H641.95V280.413H647.948V271.45Z" fill="#DFDFEA"/>
<path d="M658.396 271.45H652.398V280.413H658.396V271.45Z" fill="white"/>
<path d="M668.824 271.45H662.826V280.413H668.824V271.45Z" fill="#DFDFEA"/>
<path d="M679.254 271.45H673.256V280.413H679.254V271.45Z" fill="#DFDFEA"/>
<path d="M637.52 286.188H631.522V295.151H637.52V286.188Z" fill="#DFDFEA"/>
<path d="M647.948 286.188H641.95V295.151H647.948V286.188Z" fill="white"/>
<path d="M658.396 286.188H652.398V295.151H658.396V286.188Z" fill="#DFDFEA"/>
<path d="M668.824 286.188H662.826V295.151H668.824V286.188Z" fill="#DFDFEA"/>
<path d="M679.254 286.188H673.256V295.151H679.254V286.188Z" fill="white"/>
<path d="M637.52 300.927H631.522V309.89H637.52V300.927Z" fill="white"/>
<path d="M647.948 300.927H641.95V309.89H647.948V300.927Z" fill="#DFDFEA"/>
<path d="M658.396 300.927H652.398V309.89H658.396V300.927Z" fill="#DFDFEA"/>
<path d="M668.824 300.927H662.826V309.89H668.824V300.927Z" fill="#DFDFEA"/>
<path d="M679.254 300.927H673.256V309.89H679.254V300.927Z" fill="white"/>
<path d="M637.52 315.665H631.522V324.648H637.52V315.665Z" fill="#DFDFEA"/>
<path d="M647.948 315.665H641.95V324.648H647.948V315.665Z" fill="#DFDFEA"/>
<path d="M658.396 315.665H652.398V324.648H658.396V315.665Z" fill="white"/>
<path d="M668.824 315.665H662.826V324.648H668.824V315.665Z" fill="white"/>
<path d="M679.254 315.665H673.256V324.648H679.254V315.665Z" fill="#DFDFEA"/>
<path d="M637.52 329.841H631.522V338.805H637.52V329.841Z" fill="#DFDFEA"/>
<path d="M647.948 329.841H641.95V338.805H647.948V329.841Z" fill="white"/>
<path d="M658.396 329.841H652.398V338.805H658.396V329.841Z" fill="#DFDFEA"/>
<path d="M668.824 329.841H662.826V338.805H668.824V329.841Z" fill="#DFDFEA"/>
<path d="M679.254 329.841H673.256V338.805H679.254V329.841Z" fill="#DFDFEA"/>
<path d="M637.52 344.58H631.522V353.543H637.52V344.58Z" fill="#DFDFEA"/>
<path d="M647.948 344.58H641.95V353.543H647.948V344.58Z" fill="#DFDFEA"/>
<path d="M658.396 344.58H652.398V353.543H658.396V344.58Z" fill="white"/>
<path d="M668.824 344.58H662.826V353.543H668.824V344.58Z" fill="white"/>
<path d="M679.254 344.58H673.256V353.543H679.254V344.58Z" fill="white"/>
<path d="M637.52 359.318H631.522V368.301H637.52V359.318Z" fill="white"/>
<path d="M647.948 359.318H641.95V368.301H647.948V359.318Z" fill="white"/>
<path d="M658.396 359.318H652.398V368.301H658.396V359.318Z" fill="#DFDFEA"/>
<path d="M668.824 359.318H662.826V368.301H668.824V359.318Z" fill="#DFDFEA"/>
<path d="M679.254 359.318H673.256V368.301H679.254V359.318Z" fill="#DFDFEA"/>
<path d="M416.995 375.018H467.802V276.222L416.995 248.611V375.018Z" fill="#DFDFEA"/>
<path d="M461.804 281.115H422.992V285.907H461.804V281.115Z" fill="#EDE3FC"/>
<path d="M461.804 291.061H422.992V295.853H461.804V291.061Z" fill="white"/>
<path d="M461.804 301.006H422.992V305.799H461.804V301.006Z" fill="#EDE3FC"/>
<path d="M461.804 310.952H422.992V315.745H461.804V310.952Z" fill="white"/>
<path d="M461.804 320.898H422.992V325.691H461.804V320.898Z" fill="white"/>
<path d="M461.804 330.844H422.992V335.636H461.804V330.844Z" fill="#EDE3FC"/>
<path d="M461.804 340.79H422.992V345.582H461.804V340.79Z" fill="#EDE3FC"/>
<path d="M461.804 350.735H422.992V355.528H461.804V350.735Z" fill="#EDE3FC"/>
<path d="M461.804 360.681H422.992V365.474H461.804V360.681Z" fill="#EDE3FC"/>
<path d="M417.014 248.611H397.338V375.018H417.014V248.611Z" fill="#B6B6D1"/>
<path d="M857.541 375.018H806.734V276.222L857.541 248.611V375.018Z" fill="#DFDFEA"/>
<path d="M851.543 281.115H812.731V285.907H851.543V281.115Z" fill="#EDE3FC"/>
<path d="M851.543 291.061H812.731V295.853H851.543V291.061Z" fill="white"/>
<path d="M851.543 301.006H812.731V305.799H851.543V301.006Z" fill="#EDE3FC"/>
<path d="M851.543 310.952H812.731V315.745H851.543V310.952Z" fill="white"/>
<path d="M851.543 320.898H812.731V325.691H851.543V320.898Z" fill="#EDE3FC"/>
<path d="M851.543 330.844H812.731V335.636H851.543V330.844Z" fill="white"/>
<path d="M851.543 340.79H812.731V345.582H851.543V340.79Z" fill="#EDE3FC"/>
<path d="M851.543 350.735H812.731V355.528H851.543V350.735Z" fill="#EDE3FC"/>
<path d="M851.543 360.681H812.731V365.474H851.543V360.681Z" fill="#EDE3FC"/>
<path d="M877.218 248.611H857.541V375.018H877.218V248.611Z" fill="#AAAACC"/>
<path d="M776.59 375.018H725.803V218.874L776.59 191.262V375.018Z" fill="#DFDFEA"/>
<path d="M770.593 276.142H731.781V280.935H770.593V276.142Z" fill="white"/>
<path d="M770.593 286.088H731.781V290.88H770.593V286.088Z" fill="#EDE3FC"/>
<path d="M770.593 296.034H731.781V300.826H770.593V296.034Z" fill="#EDE3FC"/>
<path d="M770.593 305.979H731.781V310.772H770.593V305.979Z" fill="white"/>
<path d="M770.593 315.925H731.781V320.717H770.593V315.925Z" fill="white"/>
<path d="M770.593 325.871H731.781V330.663H770.593V325.871Z" fill="#EDE3FC"/>
<path d="M770.593 226.413H731.781V231.206H770.593V226.413Z" fill="#EDE3FC"/>
<path d="M770.593 236.359H731.781V241.152H770.593V236.359Z" fill="#EDE3FC"/>
<path d="M770.593 246.305H731.781V251.097H770.593V246.305Z" fill="white"/>
<path d="M770.593 256.25H731.781V261.043H770.593V256.25Z" fill="#EDE3FC"/>
<path d="M770.593 266.196H731.781V270.989H770.593V266.196Z" fill="#EDE3FC"/>
<path d="M770.593 335.817H731.781V340.609H770.593V335.817Z" fill="#EDE3FC"/>
<path d="M770.593 345.762H731.781V350.555H770.593V345.762Z" fill="#EDE3FC"/>
<path d="M770.593 355.708H731.781V360.501H770.593V355.708Z" fill="#EDE3FC"/>
<path d="M796.266 191.262H776.59V375.018H796.266V191.262Z" fill="#AAAACC"/>
<path d="M252.095 375.018H201.288V218.874L252.095 191.262V375.018Z" fill="#DFDFEA"/>
<path d="M246.097 276.142H207.285V280.935H246.097V276.142Z" fill="#EDE3FC"/>
<path d="M246.097 286.088H207.285V290.88H246.097V286.088Z" fill="white"/>
<path d="M246.097 296.034H207.285V300.826H246.097V296.034Z" fill="#EDE3FC"/>
<path d="M246.097 305.979H207.285V310.772H246.097V305.979Z" fill="#EDE3FC"/>
<path d="M246.097 315.925H207.285V320.717H246.097V315.925Z" fill="#EDE3FC"/>
<path d="M246.097 325.871H207.285V330.663H246.097V325.871Z" fill="white"/>
<path d="M246.097 226.413H207.285V231.206H246.097V226.413Z" fill="white"/>
<path d="M246.097 236.359H207.285V241.152H246.097V236.359Z" fill="#EDE3FC"/>
<path d="M246.097 246.305H207.285V251.097H246.097V246.305Z" fill="#EDE3FC"/>
<path d="M246.097 256.25H207.285V261.043H246.097V256.25Z" fill="white"/>
<path d="M246.097 266.196H207.285V270.989H246.097V266.196Z" fill="#EDE3FC"/>
<path d="M246.097 335.817H207.285V340.609H246.097V335.817Z" fill="white"/>
<path d="M246.097 345.762H207.285V350.555H246.097V345.762Z" fill="white"/>
<path d="M246.097 355.708H207.285V360.501H246.097V355.708Z" fill="#EDE3FC"/>
<path d="M271.771 191.262H252.095V375.018H271.771V191.262Z" fill="#B6B6D1"/>
<path d="M1234.9 375.018H1184.21V233.532L1234.9 205.198V375.018Z" fill="#B6B6D1"/>
<path d="M1197.67 275.481H1190.24V284.103H1197.67V275.481Z" fill="#C6BDD2"/>
<path d="M1208.08 275.481H1200.65V284.103H1208.08V275.481Z" fill="white"/>
<path d="M1218.47 275.481H1211.04V284.103H1218.47V275.481Z" fill="#C6BDD2"/>
<path d="M1228.88 275.481H1221.45V284.103H1228.88V275.481Z" fill="#C6BDD2"/>
<path d="M1197.67 287.331H1190.24V295.954H1197.67V287.331Z" fill="#C6BDD2"/>
<path d="M1208.08 287.331H1200.65V295.954H1208.08V287.331Z" fill="#C6BDD2"/>
<path d="M1218.47 287.331H1211.04V295.954H1218.47V287.331Z" fill="white"/>
<path d="M1228.88 287.331H1221.45V295.954H1228.88V287.331Z" fill="#C6BDD2"/>
<path d="M1197.67 299.182H1190.24V307.804H1197.67V299.182Z" fill="#C6BDD2"/>
<path d="M1208.08 299.182H1200.65V307.804H1208.08V299.182Z" fill="white"/>
<path d="M1218.47 299.182H1211.04V307.804H1218.47V299.182Z" fill="#C6BDD2"/>
<path d="M1228.88 299.182H1221.45V307.804H1228.88V299.182Z" fill="#C6BDD2"/>
<path d="M1197.67 311.013H1190.24V319.635H1197.67V311.013Z" fill="white"/>
<path d="M1208.08 311.013H1200.65V319.635H1208.08V311.013Z" fill="#C6BDD2"/>
<path d="M1218.47 311.013H1211.04V319.635H1218.47V311.013Z" fill="#C6BDD2"/>
<path d="M1228.88 311.013H1221.45V319.635H1228.88V311.013Z" fill="white"/>
<path d="M1197.67 322.863H1190.24V331.486H1197.67V322.863Z" fill="#C6BDD2"/>
<path d="M1208.08 322.863H1200.65V331.486H1208.08V322.863Z" fill="#C6BDD2"/>
<path d="M1218.47 322.863H1211.04V331.486H1218.47V322.863Z" fill="#C6BDD2"/>
<path d="M1228.88 322.863H1221.45V331.486H1228.88V322.863Z" fill="#C6BDD2"/>
<path d="M1197.67 334.714H1190.24V343.336H1197.67V334.714Z" fill="#C6BDD2"/>
<path d="M1208.08 334.714H1200.65V343.336H1208.08V334.714Z" fill="#C6BDD2"/>
<path d="M1218.47 334.714H1211.04V343.336H1218.47V334.714Z" fill="#C6BDD2"/>
<path d="M1228.88 334.714H1221.45V343.336H1228.88V334.714Z" fill="white"/>
<path d="M1197.67 346.545H1190.24V355.167H1197.67V346.545Z" fill="#C6BDD2"/>
<path d="M1208.08 346.545H1200.65V355.167H1208.08V346.545Z" fill="white"/>
<path d="M1218.47 346.545H1211.04V355.167H1218.47V346.545Z" fill="white"/>
<path d="M1228.88 346.545H1221.45V355.167H1228.88V346.545Z" fill="#C6BDD2"/>
<path d="M1197.67 358.396H1190.24V367.018H1197.67V358.396Z" fill="#C6BDD2"/>
<path d="M1208.08 358.396H1200.65V367.018H1208.08V358.396Z" fill="#C6BDD2"/>
<path d="M1218.47 358.396H1211.04V367.018H1218.47V358.396Z" fill="#C6BDD2"/>
<path d="M1228.88 358.396H1221.45V367.018H1228.88V358.396Z" fill="#C6BDD2"/>
<path d="M1197.67 239.948H1190.24V248.571H1197.67V239.948Z" fill="white"/>
<path d="M1208.08 239.948H1200.65V248.571H1208.08V239.948Z" fill="#C6BDD2"/>
<path d="M1218.47 239.948H1211.04V248.571H1218.47V239.948Z" fill="#C6BDD2"/>
<path d="M1228.88 239.948H1221.45V248.571H1228.88V239.948Z" fill="#C6BDD2"/>
<path d="M1197.67 251.799H1190.24V260.421H1197.67V251.799Z" fill="#C6BDD2"/>
<path d="M1208.08 251.799H1200.65V260.421H1208.08V251.799Z" fill="white"/>
<path d="M1218.47 251.799H1211.04V260.421H1218.47V251.799Z" fill="#C6BDD2"/>
<path d="M1228.88 251.799H1221.45V260.421H1228.88V251.799Z" fill="white"/>
<path d="M1197.67 263.63H1190.24V272.252H1197.67V263.63Z" fill="#C6BDD2"/>
<path d="M1208.08 263.63H1200.65V272.252H1208.08V263.63Z" fill="#C6BDD2"/>
<path d="M1218.47 263.63H1211.04V272.252H1218.47V263.63Z" fill="#C6BDD2"/>
<path d="M1228.88 263.63H1221.45V272.252H1228.88V263.63Z" fill="#C6BDD2"/>
<path d="M1252.33 205.198H1234.9V375.018H1252.33V205.198Z" fill="#AAAACC"/>
<path d="M357.637 375.018H286.94V177.707L357.637 138.205V375.018Z" fill="#B6B6D1"/>
<path d="M305.707 236.219H295.356V248.23H305.707V236.219Z" fill="white"/>
<path d="M320.199 236.219H309.848V248.23H320.199V236.219Z" fill="#C6BDD2"/>
<path d="M334.709 236.219H324.358V248.23H334.709V236.219Z" fill="#C6BDD2"/>
<path d="M349.22 236.219H338.869V248.23H349.22V236.219Z" fill="#C6BDD2"/>
<path d="M305.707 252.721H295.356V264.753H305.707V252.721Z" fill="#C6BDD2"/>
<path d="M320.199 252.721H309.848V264.753H320.199V252.721Z" fill="#C6BDD2"/>
<path d="M334.709 252.721H324.358V264.753H334.709V252.721Z" fill="white"/>
<path d="M349.22 252.721H338.869V264.753H349.22V252.721Z" fill="#C6BDD2"/>
<path d="M305.707 269.244H295.356V281.275H305.707V269.244Z" fill="#C6BDD2"/>
<path d="M320.199 269.244H309.848V281.275H320.199V269.244Z" fill="white"/>
<path d="M334.709 269.244H324.358V281.275H334.709V269.244Z" fill="#C6BDD2"/>
<path d="M349.22 269.244H338.869V281.275H349.22V269.244Z" fill="#C6BDD2"/>
<path d="M305.707 285.767H295.356V297.798H305.707V285.767Z" fill="#C6BDD2"/>
<path d="M320.199 285.767H309.848V297.798H320.199V285.767Z" fill="#C6BDD2"/>
<path d="M334.709 285.767H324.358V297.798H334.709V285.767Z" fill="white"/>
<path d="M349.22 285.767H338.869V297.798H349.22V285.767Z" fill="white"/>
<path d="M305.707 302.29H295.356V314.301H305.707V302.29Z" fill="#C6BDD2"/>
<path d="M320.199 302.29H309.848V314.301H320.199V302.29Z" fill="#C6BDD2"/>
<path d="M334.709 302.29H324.358V314.301H334.709V302.29Z" fill="#C6BDD2"/>
<path d="M349.22 302.29H338.869V314.301H349.22V302.29Z" fill="#C6BDD2"/>
<path d="M305.707 318.792H295.356V330.804H305.707V318.792Z" fill="#C6BDD2"/>
<path d="M320.199 318.792H309.848V330.804H320.199V318.792Z" fill="#C6BDD2"/>
<path d="M334.709 318.792H324.358V330.804H334.709V318.792Z" fill="white"/>
<path d="M349.22 318.792H338.869V330.804H349.22V318.792Z" fill="#C6BDD2"/>
<path d="M305.707 335.315H295.356V347.327H305.707V335.315Z" fill="#C6BDD2"/>
<path d="M320.199 335.315H309.848V347.327H320.199V335.315Z" fill="white"/>
<path d="M334.709 335.315H324.358V347.327H334.709V335.315Z" fill="#C6BDD2"/>
<path d="M349.22 335.315H338.869V347.327H349.22V335.315Z" fill="#C6BDD2"/>
<path d="M305.707 351.838H295.356V363.869H305.707V351.838Z" fill="#C6BDD2"/>
<path d="M320.199 351.838H309.848V363.869H320.199V351.838Z" fill="#C6BDD2"/>
<path d="M334.709 351.838H324.358V363.869H334.709V351.838Z" fill="#C6BDD2"/>
<path d="M349.22 351.838H338.869V363.869H349.22V351.838Z" fill="white"/>
<path d="M305.707 186.65H295.356V198.681H305.707V186.65Z" fill="white"/>
<path d="M320.199 186.65H309.848V198.681H320.199V186.65Z" fill="#C6BDD2"/>
<path d="M334.709 186.65H324.358V198.681H334.709V186.65Z" fill="#C6BDD2"/>
<path d="M349.22 186.65H338.869V198.681H349.22V186.65Z" fill="white"/>
<path d="M305.707 203.173H295.356V215.184H305.707V203.173Z" fill="#C6BDD2"/>
<path d="M320.199 203.173H309.848V215.184H320.199V203.173Z" fill="#C6BDD2"/>
<path d="M334.709 203.173H324.358V215.184H334.709V203.173Z" fill="white"/>
<path d="M349.22 203.173H338.869V215.184H349.22V203.173Z" fill="#C6BDD2"/>
<path d="M305.707 219.696H295.356V231.707H305.707V219.696Z" fill="#C6BDD2"/>
<path d="M320.199 219.696H309.848V231.707H320.199V219.696Z" fill="#C6BDD2"/>
<path d="M334.709 219.696H324.358V231.707H334.709V219.696Z" fill="white"/>
<path d="M349.22 219.696H338.869V231.707H349.22V219.696Z" fill="#C6BDD2"/>
<path d="M381.937 138.205H357.637V375.018H381.937V138.205Z" fill="#AAAACC"/>
<path d="M1069.61 218.553H1037.42V375.018H1069.61V218.553Z" fill="#59599B"/>
<path d="M1138.74 218.553H1069.61V375.018H1138.74V218.553Z" fill="#BCB4C8"/>
<path d="M1055.08 229.962H1048.79V237.462H1055.08V229.962Z" fill="#EDE3FC"/>
<path d="M1055.08 254.847H1048.79V262.347H1055.08V254.847Z" fill="#EDE3FC"/>
<path d="M1055.08 279.731H1048.79V287.231H1055.08V279.731Z" fill="#EDE3FC"/>
<path d="M1084.16 229.08H1073.91V239.066H1084.16V229.08Z" fill="white"/>
<path d="M1097.18 229.08H1086.93V239.066H1097.18V229.08Z" fill="white"/>
<path d="M1110.22 229.08H1099.97V239.066H1110.22V229.08Z" fill="#DFDFEA"/>
<path d="M1123.26 229.08H1113.01V239.066H1123.26V229.08Z" fill="white"/>
<path d="M1136.28 229.08H1126.03V239.066H1136.28V229.08Z" fill="white"/>
<path d="M1084.16 253.604H1073.91V263.59H1084.16V253.604Z" fill="white"/>
<path d="M1097.18 253.604H1086.93V263.59H1097.18V253.604Z" fill="#DFDFEA"/>
<path d="M1110.22 253.604H1099.97V263.59H1110.22V253.604Z" fill="white"/>
<path d="M1123.26 253.604H1113.01V263.59H1123.26V253.604Z" fill="#DFDFEA"/>
<path d="M1136.28 253.604H1126.03V263.59H1136.28V253.604Z" fill="white"/>
<path d="M1084.16 278.127H1073.91V288.113H1084.16V278.127Z" fill="white"/>
<path d="M1097.18 278.127H1086.93V288.113H1097.18V278.127Z" fill="white"/>
<path d="M1110.22 278.127H1099.97V288.113H1110.22V278.127Z" fill="white"/>
<path d="M1123.26 278.127H1113.01V288.113H1123.26V278.127Z" fill="#DFDFEA"/>
<path d="M1136.28 278.127H1126.03V288.113H1136.28V278.127Z" fill="white"/>
<path d="M1055.08 306.902H1048.79V314.401H1055.08V306.902Z" fill="#EDE3FC"/>
<path d="M1055.08 331.786H1048.79V339.286H1055.08V331.786Z" fill="#EDE3FC"/>
<path d="M1055.08 356.671H1048.79V364.17H1055.08V356.671Z" fill="#EDE3FC"/>
<path d="M1084.16 306.02H1073.91V316.006H1084.16V306.02Z" fill="white"/>
<path d="M1097.18 306.02H1086.93V316.006H1097.18V306.02Z" fill="#DFDFEA"/>
<path d="M1110.22 306.02H1099.97V316.006H1110.22V306.02Z" fill="#DFDFEA"/>
<path d="M1123.26 306.02H1113.01V316.006H1123.26V306.02Z" fill="white"/>
<path d="M1136.28 306.02H1126.03V316.006H1136.28V306.02Z" fill="#DFDFEA"/>
<path d="M1084.16 330.543H1073.91V340.529H1084.16V330.543Z" fill="#DFDFEA"/>
<path d="M1097.18 330.543H1086.93V340.529H1097.18V330.543Z" fill="white"/>
<path d="M1110.22 330.543H1099.97V340.529H1110.22V330.543Z" fill="white"/>
<path d="M1123.26 330.543H1113.01V340.529H1123.26V330.543Z" fill="#DFDFEA"/>
<path d="M1136.28 330.543H1126.03V340.529H1136.28V330.543Z" fill="white"/>
<path d="M1084.16 355.067H1073.91V365.053H1084.16V355.067Z" fill="white"/>
<path d="M1097.18 355.067H1086.93V365.053H1097.18V355.067Z" fill="white"/>
<path d="M1110.22 355.067H1099.97V365.053H1110.22V355.067Z" fill="white"/>
<path d="M1123.26 355.067H1113.01V365.053H1123.26V355.067Z" fill="white"/>
<path d="M1136.28 355.067H1126.03V365.053H1136.28V355.067Z" fill="white"/>
<path d="M104.453 218.553H72.2588V375.018H104.453V218.553Z" fill="#59599B"/>
<path d="M173.582 218.553H104.453V375.018H173.582V218.553Z" fill="#BCB4C8"/>
<path d="M89.9423 229.962H83.6543V237.462H89.9423V229.962Z" fill="#EDE3FC"/>
<path d="M89.9423 254.847H83.6543V262.347H89.9423V254.847Z" fill="#EDE3FC"/>
<path d="M89.9423 279.731H83.6543V287.231H89.9423V279.731Z" fill="#EDE3FC"/>
<path d="M119.003 229.08H108.749V239.066H119.003V229.08Z" fill="white"/>
<path d="M132.042 229.08H121.788V239.066H132.042V229.08Z" fill="white"/>
<path d="M145.083 229.08H134.829V239.066H145.083V229.08Z" fill="#DFDFEA"/>
<path d="M158.105 229.08H147.851V239.066H158.105V229.08Z" fill="white"/>
<path d="M171.144 229.08H160.89V239.066H171.144V229.08Z" fill="white"/>
<path d="M119.003 253.604H108.749V263.59H119.003V253.604Z" fill="white"/>
<path d="M132.042 253.604H121.788V263.59H132.042V253.604Z" fill="#DFDFEA"/>
<path d="M145.083 253.604H134.829V263.59H145.083V253.604Z" fill="white"/>
<path d="M158.105 253.604H147.851V263.59H158.105V253.604Z" fill="white"/>
<path d="M171.144 253.604H160.89V263.59H171.144V253.604Z" fill="white"/>
<path d="M119.003 278.127H108.749V288.113H119.003V278.127Z" fill="white"/>
<path d="M132.042 278.127H121.788V288.113H132.042V278.127Z" fill="#DFDFEA"/>
<path d="M145.083 278.127H134.829V288.113H145.083V278.127Z" fill="white"/>
<path d="M158.105 278.127H147.851V288.113H158.105V278.127Z" fill="#DFDFEA"/>
<path d="M171.144 278.127H160.89V288.113H171.144V278.127Z" fill="white"/>
<path d="M89.9423 306.902H83.6543V314.401H89.9423V306.902Z" fill="#EDE3FC"/>
<path d="M89.9423 331.786H83.6543V339.286H89.9423V331.786Z" fill="#EDE3FC"/>
<path d="M89.9423 356.671H83.6543V364.17H89.9423V356.671Z" fill="#EDE3FC"/>
<path d="M119.003 306.02H108.749V316.006H119.003V306.02Z" fill="#DFDFEA"/>
<path d="M132.042 306.02H121.788V316.006H132.042V306.02Z" fill="white"/>
<path d="M145.083 306.02H134.829V316.006H145.083V306.02Z" fill="white"/>
<path d="M158.105 306.02H147.851V316.006H158.105V306.02Z" fill="#DFDFEA"/>
<path d="M171.144 306.02H160.89V316.006H171.144V306.02Z" fill="white"/>
<path d="M119.003 330.543H108.749V340.529H119.003V330.543Z" fill="white"/>
<path d="M132.042 330.543H121.788V340.529H132.042V330.543Z" fill="white"/>
<path d="M145.083 330.543H134.829V340.529H145.083V330.543Z" fill="#DFDFEA"/>
<path d="M158.105 330.543H147.851V340.529H158.105V330.543Z" fill="white"/>
<path d="M171.144 330.543H160.89V340.529H171.144V330.543Z" fill="white"/>
<path d="M119.003 355.067H108.749V365.053H119.003V355.067Z" fill="white"/>
<path d="M132.042 355.067H121.788V365.053H132.042V355.067Z" fill="white"/>
<path d="M145.083 355.067H134.829V365.053H145.083V355.067Z" fill="white"/>
<path d="M158.105 355.067H147.851V365.053H158.105V355.067Z" fill="white"/>
<path d="M171.144 355.067H160.89V365.053H171.144V355.067Z" fill="white"/>
<path d="M1181.13 332.889C1181.13 336.679 1177.84 339.747 1173.8 339.747C1169.75 339.747 1166.47 336.679 1166.47 332.889C1166.47 329.099 1169.74 326.031 1173.8 326.031C1177.86 326.031 1181.13 329.099 1181.13 332.889Z" fill="#EDE3FC"/>
<path d="M1186.37 342.253C1186.37 347.427 1180.76 351.618 1173.82 351.618C1166.87 351.618 1161.26 347.427 1161.26 342.253C1161.26 337.08 1166.87 332.889 1173.82 332.889C1180.76 332.889 1186.37 337.08 1186.37 342.253Z" fill="#EDE3FC"/>
<path d="M1163.43 339.507C1163.43 339.507 1170.84 342.013 1173.12 342.795L1173.59 330.162L1173.86 337.341C1175.4 336.399 1179.91 333.611 1179.91 333.611C1179.91 333.611 1175.25 338.003 1173.93 339.226L1174.18 346.104C1177.05 344.6 1184.21 340.85 1184.21 340.85C1184.21 340.85 1176.16 346.625 1174.24 348.009L1175.25 375.019H1171.92L1173.04 344.64C1172.37 344.299 1163.43 339.507 1163.43 339.507Z" fill="#59599B"/>
<path d="M927.367 366.155C934.782 366.155 940.794 361.855 940.794 356.55C940.794 351.246 934.782 346.945 927.367 346.945C919.951 346.945 913.939 351.246 913.939 356.55C913.939 361.855 919.951 366.155 927.367 366.155Z" fill="#EDE3FC"/>
<path d="M936.847 344.72C936.847 350.033 932.494 354.324 927.134 354.324C921.775 354.324 917.422 350.013 917.422 344.72C917.422 339.406 921.775 335.115 927.134 335.115C932.494 335.115 936.847 339.426 936.847 344.72Z" fill="#EDE3FC"/>
<path d="M938.22 351.277C938.22 351.277 931.255 354.826 928.159 356.41L927.811 347.126C928.295 346.685 933.267 342.053 933.267 342.053C933.267 342.053 929.34 344.74 927.753 345.842L927.347 335.155L927.095 341.952C925.954 341.251 922.839 339.346 922.839 339.346C922.839 339.346 926.051 342.313 927.037 343.236L926.766 350.474C924.406 349.251 918.776 346.284 918.776 346.284C918.776 346.284 925.354 351.858 926.689 352.981L926.437 359.979C923.168 358.255 916.048 354.545 916.048 354.545C916.048 354.545 924.232 360.861 926.341 362.486L925.876 375.018H928.837L928.237 358.916C930.152 357.453 938.22 351.277 938.22 351.277Z" fill="#59599B"/>
<path d="M1025.54 346.083L1013.27 367.9H1037.78L1025.54 346.083Z" fill="#636393"/>
<path d="M1025.54 337.1L1014.35 356.972H1036.72L1025.54 337.1Z" fill="#636393"/>
<path d="M1025.54 330.002L1016.37 346.304H1034.69L1025.54 330.002Z" fill="#636393"/>
<path d="M1025.54 335.135L1024.05 375.018H1027.01L1025.54 335.135Z" fill="#59599B"/>
<path d="M906.781 343.557C906.781 350.234 901.828 355.628 895.714 355.628C889.6 355.628 884.647 350.214 884.647 343.557C884.647 336.88 889.6 331.486 895.714 331.486C901.828 331.466 906.781 336.88 906.781 343.557Z" fill="#636393"/>
<path d="M904.962 343.457C904.962 343.457 898.365 345.683 896.353 346.364L895.927 335.135L895.695 341.512C894.321 340.67 890.316 338.203 890.316 338.203C890.316 338.203 894.476 342.093 895.637 343.196L895.405 349.312C892.87 347.989 886.485 344.64 886.485 344.64C886.485 344.64 893.644 349.773 895.327 350.996L894.457 375.019H897.417L896.411 348.029C897.03 347.708 904.962 343.457 904.962 343.457Z" fill="#59599B"/>
<path d="M589.344 366.155C596.76 366.155 602.772 361.855 602.772 356.55C602.772 351.246 596.76 346.945 589.344 346.945C581.929 346.945 575.917 351.246 575.917 356.55C575.917 361.855 581.929 366.155 589.344 366.155Z" fill="#EDE3FC"/>
<path d="M598.824 344.72C598.824 350.033 594.471 354.324 589.112 354.324C583.753 354.324 579.399 350.013 579.399 344.72C579.399 339.426 583.753 335.115 589.112 335.115C594.491 335.115 598.824 339.426 598.824 344.72Z" fill="#EDE3FC"/>
<path d="M600.198 351.277C600.198 351.277 593.233 354.826 590.137 356.41L589.789 347.126C590.272 346.685 595.245 342.053 595.245 342.053C595.245 342.053 591.317 344.74 589.731 345.842L589.324 335.155L589.073 341.952C587.931 341.251 584.816 339.346 584.816 339.346C584.816 339.346 588.028 342.313 589.015 343.236L588.744 350.474C586.384 349.251 580.753 346.284 580.753 346.284C580.753 346.284 587.332 351.858 588.667 352.981L588.415 359.979C585.145 358.255 578.025 354.545 578.025 354.545C578.025 354.545 586.209 360.861 588.318 362.486L587.854 375.018H590.814L590.214 358.916C592.149 357.453 600.198 351.277 600.198 351.277Z" fill="#59599B"/>
<path d="M520.524 346.083L508.277 367.9H532.791L520.524 346.083Z" fill="#636393"/>
<path d="M520.525 337.1L509.342 356.972H531.708L520.525 337.1Z" fill="#636393"/>
<path d="M520.524 330.002L511.373 346.304H529.695L520.524 330.002Z" fill="#636393"/>
<path d="M520.524 335.135L519.034 375.018H522.014L520.524 335.135Z" fill="#59599B"/>
<path d="M622.835 343.557C622.835 350.234 617.882 355.628 611.768 355.628C605.654 355.628 600.701 350.214 600.701 343.557C600.701 336.88 605.654 331.486 611.768 331.486C617.901 331.466 622.835 336.88 622.835 343.557Z" fill="#636393"/>
<path d="M621.036 343.457C621.036 343.457 614.438 345.683 612.426 346.364L612 335.135L611.768 341.512C610.394 340.67 606.389 338.203 606.389 338.203C606.389 338.203 610.549 342.093 611.71 343.196L611.478 349.312C608.943 347.989 602.559 344.64 602.559 344.64C602.559 344.64 609.717 349.773 611.401 350.996L610.53 375.019H613.49L612.484 348.029C613.103 347.708 621.036 343.457 621.036 343.457Z" fill="#59599B"/>
<path d="M483.183 356.55C483.183 360.982 478.23 364.571 472.117 364.571C466.003 364.571 461.05 360.982 461.05 356.55C461.05 352.119 466.003 348.53 472.117 348.53C478.23 348.53 483.183 352.119 483.183 356.55Z" fill="#636393"/>
<path d="M485.351 348.189C485.351 353.723 479.43 358.215 472.136 358.215C464.842 358.215 458.922 353.723 458.922 348.189C458.922 342.654 464.842 338.163 472.136 338.163C479.43 338.163 485.351 342.654 485.351 348.189Z" fill="#636393"/>
<path d="M479.817 339.045C479.817 342.273 476.373 344.88 472.116 344.88C467.86 344.88 464.416 342.273 464.416 339.045C464.416 335.817 467.86 333.21 472.116 333.21C476.373 333.21 479.817 335.817 479.817 339.045Z" fill="#636393"/>
<path d="M462.966 352.259C462.966 352.259 467.996 354.826 471.092 356.39L471.44 347.106C470.956 346.665 465.984 342.033 465.984 342.033C465.984 342.033 469.912 344.72 471.498 345.823L471.904 335.135L472.156 341.933C473.297 341.231 476.412 339.326 476.412 339.326C476.412 339.326 473.22 342.294 472.214 343.216L472.485 350.455C474.845 349.232 480.475 346.264 480.475 346.264C480.475 346.264 473.897 351.838 472.582 352.961L472.833 359.959C476.103 358.235 481.133 355.608 481.133 355.608C481.133 355.608 475.039 360.842 472.93 362.466L473.394 374.998H470.434L471.034 358.897C469.08 357.453 462.966 352.259 462.966 352.259Z" fill="#59599B"/>
<path d="M114.631 346.083L102.364 367.9H126.878L114.631 346.083Z" fill="#636393"/>
<path d="M114.63 337.1L103.447 356.972H125.794L114.63 337.1Z" fill="#636393"/>
<path d="M114.631 330.002L105.46 346.304H123.782L114.631 330.002Z" fill="#636393"/>
<path d="M114.631 335.135L113.142 375.018H116.102L114.631 335.135Z" fill="#59599B"/>
<path d="M77.289 356.55C77.289 360.982 72.336 364.571 66.2221 364.571C60.1083 364.571 55.1553 360.982 55.1553 356.55C55.1553 352.119 60.1083 348.53 66.2221 348.53C72.336 348.53 77.289 352.119 77.289 356.55Z" fill="#636393"/>
<path d="M79.4367 348.189C79.4367 353.723 73.5163 358.215 66.2223 358.215C58.9282 358.215 53.0078 353.723 53.0078 348.189C53.0078 342.654 58.9282 338.163 66.2223 338.163C73.5163 338.163 79.4367 342.654 79.4367 348.189Z" fill="#636393"/>
<path d="M73.9027 339.045C73.9027 342.273 70.4588 344.88 66.2023 344.88C61.9458 344.88 58.502 342.273 58.502 339.045C58.502 335.817 61.9458 333.21 66.2023 333.21C70.4588 333.21 73.9027 335.817 73.9027 339.045Z" fill="#636393"/>
<path d="M57.0703 352.259C57.0703 352.259 62.1007 354.826 65.1963 356.39L65.5446 347.106C65.0609 346.665 60.0885 342.033 60.0885 342.033C60.0885 342.033 64.0161 344.72 65.6026 345.823L66.0089 335.135L66.2604 341.933C67.402 341.231 70.5169 339.326 70.5169 339.326C70.5169 339.326 67.3052 342.294 66.3185 343.216L66.5894 350.455C68.9498 349.232 74.5799 346.264 74.5799 346.264C74.5799 346.264 68.0017 351.838 66.6861 352.961L66.9376 359.959C70.2074 358.235 75.2377 355.608 75.2377 355.608C75.2377 355.608 69.1432 360.842 67.0343 362.466L67.4987 374.998H64.4998L65.0996 358.897C63.1842 357.453 57.0703 352.259 57.0703 352.259Z" fill="#59599B"/>
<path d="M725.551 356.55C725.551 360.982 720.598 364.571 714.484 364.571C708.37 364.571 703.417 360.982 703.417 356.55C703.417 352.119 708.37 348.53 714.484 348.53C720.598 348.53 725.551 352.119 725.551 356.55Z" fill="#636393"/>
<path d="M727.718 348.189C727.718 353.723 721.798 358.215 714.504 358.215C707.209 358.215 701.289 353.723 701.289 348.189C701.289 342.654 707.209 338.163 714.504 338.163C721.798 338.163 727.718 342.654 727.718 348.189Z" fill="#636393"/>
<path d="M722.184 339.045C722.184 342.273 718.74 344.88 714.484 344.88C710.227 344.88 706.783 342.273 706.783 339.045C706.783 335.817 710.227 333.21 714.484 333.21C718.74 333.21 722.184 335.817 722.184 339.045Z" fill="#636393"/>
<path d="M705.332 352.259C705.332 352.259 710.362 354.826 713.458 356.39L713.806 347.106C713.323 346.665 708.35 342.033 708.35 342.033C708.35 342.033 712.278 344.72 713.864 345.823L714.271 335.135L714.522 341.933C715.664 341.231 718.779 339.326 718.779 339.326C718.779 339.326 715.586 342.294 714.58 343.216L714.851 350.455C717.212 349.232 722.842 346.264 722.842 346.264C722.842 346.264 716.263 351.838 714.948 352.961L715.199 359.959C718.469 358.235 723.499 355.608 723.499 355.608C723.499 355.608 717.405 360.842 715.296 362.466L715.76 374.998H712.8L713.4 358.897C711.446 357.453 705.332 352.259 705.332 352.259Z" fill="#59599B"/>
<path d="M762.196 356.55C762.196 360.982 757.243 364.571 751.129 364.571C745.016 364.571 740.062 360.982 740.062 356.55C740.062 352.119 745.016 348.53 751.129 348.53C757.243 348.53 762.196 352.119 762.196 356.55Z" fill="#636393"/>
<path d="M764.363 348.189C764.363 353.723 758.443 358.215 751.149 358.215C743.855 358.215 737.935 353.723 737.935 348.189C737.935 342.654 743.855 338.163 751.149 338.163C758.443 338.163 764.363 342.654 764.363 348.189Z" fill="#636393"/>
<path d="M758.829 339.045C758.829 342.273 755.386 344.88 751.129 344.88C746.873 344.88 743.429 342.273 743.429 339.045C743.429 335.817 746.873 333.21 751.129 333.21C755.386 333.21 758.829 335.817 758.829 339.045Z" fill="#636393"/>
<path d="M741.979 352.259C741.979 352.259 747.009 354.826 750.104 356.39L750.453 347.106C749.969 346.665 744.997 342.033 744.997 342.033C744.997 342.033 748.924 344.72 750.511 345.823L750.917 335.135L751.169 341.933C752.31 341.231 755.425 339.326 755.425 339.326C755.425 339.326 752.233 342.294 751.227 343.216L751.497 350.455C753.858 349.232 759.488 346.264 759.488 346.264C759.488 346.264 752.91 351.838 751.575 352.961L751.826 359.959C755.096 358.235 760.127 355.608 760.127 355.608C760.127 355.608 754.032 360.842 751.923 362.466L752.388 374.998H749.408L750.008 358.897C748.092 357.453 741.979 352.259 741.979 352.259Z" fill="#59599B"/>
<path d="M798.84 356.55C798.84 360.982 793.887 364.571 787.773 364.571C781.659 364.571 776.706 360.982 776.706 356.55C776.706 352.119 781.659 348.53 787.773 348.53C793.887 348.53 798.84 352.119 798.84 356.55Z" fill="#636393"/>
<path d="M801.007 348.189C801.007 353.723 795.087 358.215 787.793 358.215C780.498 358.215 774.578 353.723 774.578 348.189C774.578 342.654 780.498 338.163 787.793 338.163C795.087 338.163 801.007 342.654 801.007 348.189Z" fill="#636393"/>
<path d="M795.473 339.045C795.473 342.273 792.029 344.88 787.773 344.88C783.516 344.88 780.072 342.273 780.072 339.045C780.072 335.817 783.516 333.21 787.773 333.21C792.029 333.21 795.473 335.817 795.473 339.045Z" fill="#636393"/>
<path d="M778.622 352.259C778.622 352.259 783.652 354.826 786.748 356.39L787.096 347.106C786.613 346.665 781.64 342.033 781.64 342.033C781.64 342.033 785.568 344.72 787.154 345.823L787.561 335.135L787.812 341.933C788.954 341.231 792.069 339.326 792.069 339.326C792.069 339.326 788.857 342.294 787.87 343.216L788.141 350.455C790.501 349.232 796.132 346.264 796.132 346.264C796.132 346.264 789.553 351.838 788.238 352.961L788.489 359.959C791.759 358.235 796.789 355.608 796.789 355.608C796.789 355.608 790.695 360.842 788.586 362.466L789.05 374.998H786.09L786.69 358.897C784.736 357.453 778.622 352.259 778.622 352.259Z" fill="#59599B"/>
<path d="M835.504 356.55C835.504 360.982 830.551 364.571 824.437 364.571C818.323 364.571 813.37 360.982 813.37 356.55C813.37 352.119 818.323 348.53 824.437 348.53C830.551 348.53 835.504 352.119 835.504 356.55Z" fill="#636393"/>
<path d="M837.651 348.189C837.651 353.723 831.731 358.215 824.437 358.215C817.143 358.215 811.223 353.723 811.223 348.189C811.223 342.654 817.143 338.163 824.437 338.163C831.731 338.163 837.651 342.654 837.651 348.189Z" fill="#636393"/>
<path d="M832.118 339.045C832.118 342.273 828.674 344.88 824.417 344.88C820.161 344.88 816.717 342.273 816.717 339.045C816.717 335.817 820.161 333.21 824.417 333.21C828.674 333.21 832.118 335.817 832.118 339.045Z" fill="#636393"/>
<path d="M815.285 352.259C815.285 352.259 820.316 354.826 823.411 356.39L823.759 347.106C823.276 346.665 818.303 342.033 818.303 342.033C818.303 342.033 822.231 344.72 823.817 345.823L824.224 335.135L824.475 341.933C825.617 341.231 828.732 339.326 828.732 339.326C828.732 339.326 825.52 342.294 824.533 343.216L824.804 350.455C827.165 349.232 832.795 346.264 832.795 346.264C832.795 346.264 826.217 351.838 824.901 352.961L825.152 359.959C828.422 358.235 833.453 355.608 833.453 355.608C833.453 355.608 827.358 360.842 825.249 362.466L825.714 374.998H822.753L823.353 358.897C821.399 357.453 815.285 352.259 815.285 352.259Z" fill="#59599B"/>
<path d="M872.148 356.55C872.148 360.982 867.195 364.571 861.082 364.571C854.968 364.571 850.015 360.982 850.015 356.55C850.015 352.119 854.968 348.53 861.082 348.53C867.195 348.53 872.148 352.119 872.148 356.55Z" fill="#636393"/>
<path d="M874.316 348.189C874.316 353.723 868.395 358.215 861.101 358.215C853.807 358.215 847.887 353.723 847.887 348.189C847.887 342.654 853.807 338.163 861.101 338.163C868.395 338.163 874.316 342.654 874.316 348.189Z" fill="#636393"/>
<path d="M868.782 339.045C868.782 342.273 865.338 344.88 861.081 344.88C856.825 344.88 853.381 342.273 853.381 339.045C853.381 335.817 856.825 333.21 861.081 333.21C865.338 333.21 868.782 335.817 868.782 339.045Z" fill="#636393"/>
<path d="M851.931 352.259C851.931 352.259 856.961 354.826 860.057 356.39L860.405 347.106C859.921 346.665 854.949 342.033 854.949 342.033C854.949 342.033 858.876 344.72 860.463 345.823L860.869 335.135L861.121 341.933C862.262 341.231 865.377 339.326 865.377 339.326C865.377 339.326 862.166 342.294 861.179 343.216L861.45 350.455C863.81 349.232 869.44 346.264 869.44 346.264C869.44 346.264 862.862 351.838 861.546 352.961L861.798 359.959C865.068 358.235 870.098 355.608 870.098 355.608C870.098 355.608 864.004 360.842 861.895 362.466L862.359 374.998H859.399L859.999 358.897C858.045 357.453 851.931 352.259 851.931 352.259Z" fill="#59599B"/>
<path d="M510.192 325.39C510.192 329.861 506.322 333.471 501.563 333.471C496.803 333.471 492.934 329.841 492.934 325.39C492.934 320.918 496.803 317.309 501.563 317.309C506.322 317.309 510.192 320.918 510.192 325.39Z" fill="#EDE3FC"/>
<path d="M516.364 336.418C516.364 342.514 509.747 347.447 501.582 347.447C493.418 347.447 486.801 342.514 486.801 336.418C486.801 330.323 493.418 325.39 501.582 325.39C509.747 325.39 516.364 330.323 516.364 336.418Z" fill="#EDE3FC"/>
<path d="M489.335 333.19C489.335 333.19 498.061 336.138 500.75 337.06L501.311 322.161L501.621 330.603C503.439 329.48 508.76 326.212 508.76 326.212C508.76 326.212 503.265 331.365 501.698 332.809L502.008 340.91C505.374 339.145 513.829 334.714 513.829 334.714C513.829 334.714 504.349 341.532 502.104 343.136L503.285 374.998H499.357L500.692 339.226C499.86 338.825 489.335 333.19 489.335 333.19Z" fill="#59599B"/>
<path d="M198.792 325.39C198.792 329.861 194.923 333.471 190.163 333.471C185.404 333.471 181.534 329.841 181.534 325.39C181.534 320.918 185.404 317.309 190.163 317.309C194.923 317.309 198.792 320.918 198.792 325.39Z" fill="#CFC6DC"/>
<path d="M204.945 336.418C204.945 342.514 198.328 347.447 190.163 347.447C181.999 347.447 175.382 342.514 175.382 336.418C175.382 330.323 181.999 325.39 190.163 325.39C198.328 325.39 204.945 330.323 204.945 336.418Z" fill="#CFC6DC"/>
<path d="M177.936 333.19C177.936 333.19 186.661 336.138 189.351 337.06L189.912 322.161L190.221 330.603C192.04 329.48 197.361 326.212 197.361 326.212C197.361 326.212 191.866 331.365 190.299 332.809L190.608 340.91C193.975 339.145 202.43 334.714 202.43 334.714C202.43 334.714 192.949 341.532 190.705 343.136L191.866 375.018H187.938L189.273 339.246C188.441 338.825 177.936 333.19 177.936 333.19Z" fill="#59599B"/>
<path opacity="0.33" d="M1088.11 24.5704C1088.11 38.0854 1077.54 49.0338 1064.5 49.0338C1051.46 49.0338 1040.9 38.0854 1040.9 24.5704C1040.9 11.0554 1051.46 0.107056 1064.5 0.107056C1077.52 0.107056 1088.11 11.0554 1088.11 24.5704Z" fill="#2D2D7B"/>
<path opacity="0.33" d="M1238.19 58.1774C1236.77 58.1774 1235.5 58.7589 1234.55 59.6813C1232.98 56.3727 1228.2 53.9264 1222.5 53.9264C1218.94 53.9264 1215.74 54.8688 1213.44 56.3727C1211.93 53.385 1208.93 51.3197 1205.45 51.3197C1203.01 51.3197 1200.83 52.3223 1199.18 53.9465C1195.97 48.9936 1189.33 45.5848 1181.65 45.5848C1176.29 45.5848 1171.44 47.2491 1167.9 49.9361C1164.96 41.6546 1157.29 35.7192 1148.26 35.7192C1139.3 35.7192 1131.68 41.5744 1128.7 49.7756C1127.21 49.0538 1125.56 48.6327 1123.82 48.6327C1117.38 48.6327 1112.18 54.0467 1112.18 60.704C1112.18 61.8269 1112.37 62.9097 1112.66 63.9323H1128.31H1135.01H1162.52H1168.25H1196.98H1200.81H1210.25H1213.91H1232.83H1234.72H1243.53C1243.53 63.8722 1243.55 63.792 1243.55 63.7318C1243.57 60.6639 1241.17 58.1774 1238.19 58.1774Z" fill="#2D2D7B"/>
<path opacity="0.33" d="M986.9 51.3195C985.081 51.3195 983.456 52.0614 982.198 53.2244C981.25 45.1435 974.672 38.8472 966.604 38.8472C959.62 38.8472 953.757 43.5794 951.668 50.0963C949.733 46.7677 946.27 44.5219 942.245 44.5219C937.06 44.5219 932.746 48.2515 931.565 53.2445C930.424 52.302 928.992 51.7005 927.425 51.7005C923.749 51.7005 920.77 54.7885 920.77 58.5983C920.77 59.3804 920.924 60.1022 921.156 60.804H932.301H933.674H951.784H952.151H980.205H981.347H993.517C993.73 60.1022 993.884 59.3603 993.884 58.5983C993.923 54.5879 990.789 51.3195 986.9 51.3195Z" fill="#BABADD"/>
<path opacity="0.33" d="M236.829 23.287C235.011 23.287 233.366 24.0289 232.128 25.1919C231.18 17.111 224.602 10.8147 216.534 10.8147C209.549 10.8147 203.687 15.547 201.597 22.0638C199.663 18.7352 196.199 16.4894 192.175 16.4894C186.99 16.4894 182.675 20.2191 181.495 25.212C180.354 24.2696 178.922 23.668 177.355 23.668C173.679 23.668 170.699 26.756 170.699 30.5659C170.699 31.3479 170.854 32.0698 171.086 32.7716H182.23H183.604H201.713H202.081H230.135H231.277H243.446C243.659 32.0698 243.814 31.3278 243.814 30.5659C243.853 26.5555 240.699 23.287 236.829 23.287Z" fill="#2D2D7B"/>
<path opacity="0.21" d="M533.835 64.273C532.229 64.273 530.797 64.9348 529.714 65.9574C527.934 62.2077 522.536 59.4405 516.074 59.4405C512.05 59.4405 508.412 60.5033 505.82 62.2277C504.098 58.839 500.712 56.5129 496.765 56.5129C494.018 56.5129 491.522 57.6559 489.664 59.4806C486.008 53.8661 478.501 50.0161 469.814 50.0161C463.738 50.0161 458.244 51.901 454.239 54.9489C450.911 45.5646 442.224 38.8472 432.008 38.8472C421.851 38.8472 413.222 45.4643 409.836 54.7684C408.153 53.9663 406.295 53.465 404.303 53.465C397.008 53.465 391.107 59.5809 391.107 67.1405C391.107 68.4238 391.34 69.6269 391.649 70.81H409.391H416.975H448.144H454.645H487.207H491.541H502.24H506.381H527.799H529.946H539.929C539.929 70.7298 539.949 70.6496 539.949 70.5894C539.93 67.1004 537.201 64.273 533.835 64.273Z" fill="#2D2D7B"/>
<path opacity="0.21" d="M841.095 104.718C839.373 104.718 837.806 105.42 836.626 106.543C834.691 102.472 828.868 99.5046 821.864 99.5046C817.511 99.5046 813.583 100.668 810.758 102.512C808.901 98.8429 805.244 96.3163 800.968 96.3163C797.989 96.3163 795.3 97.5395 793.307 99.5246C789.36 93.4689 781.234 89.2781 771.831 89.2781C765.272 89.2781 759.313 91.3033 754.979 94.6119C751.38 84.4456 741.977 77.1868 730.93 77.1868C719.96 77.1868 710.615 84.3453 706.958 94.3913C705.139 93.509 703.127 92.9877 700.98 92.9877C693.105 92.9877 686.701 99.6048 686.701 107.786C686.701 109.17 686.953 110.473 687.282 111.756H706.455H714.659H748.362H755.385H790.598H795.28H806.85H811.319H834.537H836.858H847.654C847.654 111.676 847.674 111.596 847.674 111.516C847.693 107.766 844.733 104.718 841.095 104.718Z" fill="#2D2D7B"/>
<path opacity="0.33" d="M715.703 29.7237C714.368 29.7237 713.149 30.2651 712.24 31.1474C710.75 27.9992 706.223 25.6933 700.786 25.6933C697.4 25.6933 694.363 26.5956 692.177 28.0193C690.745 25.1719 687.901 23.2269 684.592 23.2269C682.271 23.2269 680.181 24.1894 678.633 25.7133C675.576 21.0011 669.269 17.7727 661.975 17.7727C656.886 17.7727 652.262 19.3568 648.896 21.9034C646.09 14.023 638.816 8.38843 630.245 8.38843C621.732 8.38843 614.476 13.9428 611.652 21.743C610.239 21.0613 608.672 20.6602 607.008 20.6602C600.894 20.6602 595.941 25.7935 595.941 32.1299C595.941 33.2127 596.135 34.2153 596.406 35.1979H611.284H617.649H643.788H649.244H676.563H680.2H689.178H692.66H710.634H712.434H720.811C720.811 35.1377 720.83 35.0776 720.83 34.9974C720.811 32.0898 718.528 29.7237 715.703 29.7237Z" fill="#2D2D7B"/>
<path opacity="0.21" d="M1168.48 421.799C1168.48 424.546 1165.61 426.772 1162.09 426.772H1111.94C1108.42 426.772 1105.56 424.546 1105.56 421.799C1105.56 419.052 1108.42 416.826 1111.94 416.826H1162.09C1165.63 416.826 1168.48 419.052 1168.48 421.799Z" fill="#2D2D7B"/>
<path d="M1139.49 362.566H1134.04V181.737C1134.04 162.808 1126.94 145.002 1114.05 131.587L1097.04 113.861L1100.91 109.871L1117.94 127.597C1131.85 142.075 1139.51 161.304 1139.51 181.737V362.566H1139.49Z" fill="#2D2D7B"/>
<path d="M1139.49 362.566H1134.04V181.737C1134.04 161.304 1141.7 142.075 1155.61 127.597L1172.62 109.871L1176.49 113.861L1159.46 131.587C1146.58 145.002 1139.47 162.808 1139.47 181.737V362.566H1139.49Z" fill="#2D2D7B"/>
<path d="M1105.62 112.438L1099.33 118.955C1097.39 120.96 1094.26 120.96 1092.33 118.955L1074.83 100.828C1072.9 98.8225 1072.9 95.5741 1074.83 93.5689L1081.12 87.052C1083.06 85.0468 1086.19 85.0468 1088.13 87.052L1105.62 105.179C1107.53 107.204 1107.53 110.453 1105.62 112.438Z" fill="#2D2D7B"/>
<path d="M1099.66 113.08L1096.02 116.849C1094.9 118.012 1092.77 117.671 1091.26 116.107L1077.58 101.931C1076.07 100.367 1075.74 98.1609 1076.87 96.9979L1080.5 93.2281C1081.63 92.0651 1083.75 92.406 1085.26 93.97L1098.94 108.147C1100.47 109.711 1100.78 111.917 1099.66 113.08Z" fill="white"/>
<path d="M1166.6 112.438L1172.89 118.955C1174.82 120.96 1177.96 120.96 1179.89 118.955L1197.38 100.828C1199.32 98.8225 1199.32 95.5741 1197.38 93.5689L1191.09 87.052C1189.16 85.0468 1186.03 85.0468 1184.09 87.052L1166.6 105.179C1164.67 107.204 1164.67 110.453 1166.6 112.438Z" fill="#2D2D7B"/>
<path d="M1172.54 113.08L1176.18 116.849C1177.3 118.012 1179.43 117.671 1180.94 116.107L1194.62 101.931C1196.12 100.367 1196.45 98.1609 1195.33 96.9979L1191.69 93.2281C1190.57 92.0651 1188.44 92.406 1186.93 93.97L1173.26 108.147C1171.75 109.711 1171.44 111.917 1172.54 113.08Z" fill="white"/>
<path d="M1147.23 413.017H1126.3L1129.61 337.22C1129.7 334.794 1131.66 332.869 1134 332.869H1139.55C1141.91 332.869 1143.85 334.794 1143.94 337.22L1147.23 413.017Z" fill="#2D2D7B"/>
<path d="M1153.6 420.897H1119.92V417.548C1119.92 415.042 1121.87 413.037 1124.27 413.037H1149.23C1151.63 413.037 1153.58 415.062 1153.58 417.548V420.897H1153.6Z" fill="#2D2D7B"/>
</svg>
