<svg width="573" height="531" viewBox="0 0 573 531" fill="none" xmlns="http://www.w3.org/2000/svg">
<path d="M52.5371 530.971H188.723L200.027 501.435C204.04 490.972 212.234 482.556 222.702 477.942C232.569 473.621 245.846 465.725 258.722 451.688C283.772 424.394 297.049 395.085 297.049 395.085L212.636 394.695C212.636 394.695 220.228 348.814 178.288 287.922C173.807 281.391 171.767 273.593 172.469 265.762L176.449 221.344C176.449 221.344 204.943 190.41 187.452 152.003C187.452 152.003 170.73 129.518 164.108 137.739C164.108 137.739 113.607 254.617 108.991 272.001C104.376 289.384 98.2557 300.302 104.376 354.923C106.015 369.383 106.583 381.438 106.55 391.348C106.516 410.389 102.135 429.17 93.7741 446.359L52.5371 530.971Z" fill="#F7C29E"/>
<path opacity="0.2" d="M179.559 455.165C166.917 441.517 149.359 443.695 130.897 437.456C112.436 431.25 106.516 386.409 106.516 386.409C106.55 388.099 106.55 389.756 106.55 391.316C106.516 410.357 102.135 429.138 93.7741 446.326L52.5371 530.971H188.723L200.027 501.435C204.04 490.972 212.234 482.556 222.702 477.942C231.097 474.238 241.966 467.999 252.936 457.569C215.412 472.873 192.201 468.779 179.559 455.165Z" fill="#F7C29E"/>
<path d="M119.326 1.52747C150.63 49.5199 227.787 92.2809 227.787 92.2809C227.787 92.2809 166.449 87.4394 136.015 48.935L147.052 40.0644C147.052 40.0644 138.289 40.8767 130.931 41.7215C124.176 30.7713 119.794 17.5466 119.326 1.52747Z" fill="#BF4019"/>
<path d="M201.466 21.3482C196.717 23.4603 189.66 26.6446 189.66 26.6446L196.449 17.1566C188.556 11.1779 179.861 7.21371 171.232 4.58176C167.754 9.52073 163.64 15.0446 163.64 15.0446L162.837 2.43721C139.727 -2.40427 119.326 1.46242 119.326 1.46242C150.63 49.4548 227.787 92.2159 227.787 92.2159C227.452 57.0257 216.415 34.9954 201.466 21.3482Z" fill="#E95E2A"/>
<path d="M107.82 69.2432C117.018 63.9793 126.382 61.1524 135.445 59.9827C138.188 63.0045 141.532 66.5788 141.532 66.5788L141.733 59.4303C176.616 57.8056 206.047 79.1537 206.047 79.1537C186.08 90.9487 168.89 94.263 154.743 93.2882C153.84 90.7862 152.569 87.082 152.569 87.082L150.194 92.8333C143.405 91.891 137.385 89.9739 132.168 87.6344C133.439 84.645 134.743 81.2332 134.743 81.2332L127.318 85.1974C114.543 78.1789 107.82 69.2432 107.82 69.2432Z" fill="#AD8DCE"/>
<path d="M154.743 93.2882C153.84 90.7862 152.569 87.082 152.569 87.082L150.194 92.8332C143.405 91.8909 137.385 89.9738 132.168 87.6343C133.439 84.645 134.743 81.2332 134.743 81.2332L127.318 85.1974C114.542 78.1788 107.854 69.2107 107.854 69.2107C148.455 64.6942 206.08 79.1536 206.08 79.1536C186.08 90.9811 168.89 94.2954 154.743 93.2882Z" fill="#9369BF"/>
<path d="M451.463 64.3042L448.52 85.8472L464.272 74.6695L512.499 50.722L475.175 54.0364C475.175 54.0364 456.178 58.5204 455.142 59.4302C454.138 60.34 451.463 64.3042 451.463 64.3042Z" fill="#9369BF"/>
<path d="M434.941 51.2744L512.499 50.722L451.463 64.3042L434.941 51.2744Z" fill="#AD8DCE"/>
<path d="M476.379 85.9772L456.045 70.1205L512.499 50.722L476.379 85.9772Z" fill="#AD8DCE"/>
<path d="M443.435 75.5143C446.412 74.442 448.586 74.1821 448.619 74.1821L448.485 72.8499C448.385 72.8499 446.111 73.1098 442.967 74.2471L443.435 75.5143Z" fill="#292929"/>
<path d="M394.573 195.577C397.784 193.984 400.794 192.295 403.57 190.508L404.339 191.612C401.53 193.432 398.486 195.154 395.209 196.746L394.573 195.577ZM411.73 184.334C414.339 182.027 416.68 179.525 418.687 176.925L419.79 177.738C417.717 180.402 415.309 182.969 412.633 185.341L411.73 184.334ZM424.038 168.38C424.707 166.983 425.342 165.553 425.911 164.091C426.546 162.434 427.081 160.711 427.549 158.957L428.887 159.282C428.419 161.069 427.85 162.856 427.182 164.546C426.613 166.04 425.978 167.535 425.275 168.965L424.038 168.38ZM429.656 138.941L431.028 138.908C431.128 142.548 430.994 145.927 430.693 149.144L429.322 149.014C429.623 145.83 429.723 142.548 429.656 138.941ZM427.683 118.763L429.054 118.568C429.623 122.499 430.058 125.716 430.359 128.706L428.988 128.836C428.653 125.879 428.252 122.694 427.683 118.763ZM426.111 108.625C425.576 104.986 425.376 101.574 425.576 98.422L426.947 98.5195C426.747 101.574 426.914 104.921 427.449 108.462V108.527L426.078 108.722L426.111 108.625ZM427.85 88.3166C429.255 85.0023 431.262 82.1104 433.87 79.7384L434.807 80.7132C432.365 82.9552 430.459 85.6847 429.121 88.8365L427.85 88.3166Z" fill="#292929"/>
<path d="M380.326 202.855C382.098 202.238 383.871 201.62 385.543 200.97L385.041 199.703C383.369 200.353 381.63 200.97 379.857 201.555L380.326 202.855Z" fill="#292929"/>
<path d="M373.136 59.7877C373.136 59.7877 401.965 41.0391 408.554 53.3865C415.142 65.734 371.062 109.47 371.062 109.47L373.136 59.7877Z" fill="#F19C61"/>
<path d="M373.136 141.508C373.136 141.508 401.965 122.759 408.554 135.107C415.142 147.454 371.062 191.19 371.062 191.19L373.136 141.508Z" fill="#F19C61"/>
<path d="M373.136 197.201C373.136 197.201 401.965 178.453 408.554 190.8C415.142 203.148 371.062 246.883 371.062 246.883L373.136 197.201Z" fill="#F19C61"/>
<path d="M353.236 38.7646H194.877C183.071 38.7646 173.539 48.0577 173.539 59.4953V315.542V373.964C173.539 385.499 183.205 394.695 194.877 394.695H353.236C365.009 394.695 374.574 385.402 374.574 373.964V117.918V59.5278C374.574 47.9602 364.908 38.7646 353.236 38.7646Z" fill="#292929"/>
<path opacity="0.2" d="M187.954 303.162C187.954 303.162 159.326 371.267 162.102 384.167C164.878 397.034 182.269 414.256 224.91 408.537C267.552 402.786 297.017 395.117 297.017 395.117C297.017 395.117 298.789 303.194 297.017 298.515C295.244 293.868 218.556 260.758 215.546 260.758C212.536 260.758 187.954 303.162 187.954 303.162Z" fill="#F7C29E"/>
<path d="M364.239 67.0662H183.873V366.426H364.239V67.0662Z" fill="white"/>
<path d="M364.507 66.1564H183.205V367.206H364.507V66.1564Z" fill="#1C396B"/>
<path fill-rule="evenodd" clip-rule="evenodd" d="M219.024 135.757C239.86 129.486 260.963 128.186 282.301 128.478C286.682 128.543 293.003 131.013 295.144 126.366C297.618 120.972 293.873 115.351 290.16 110.997C285.578 105.636 279.291 103.199 272.033 102.744C246.248 101.151 232.536 117.95 219.024 135.757ZM183.205 310.538V278.597C209.058 268.686 236.449 264.04 264.676 261.278C288.555 258.938 312.1 257.541 335.946 259.978C339.926 260.368 343.872 260.628 347.584 262.318C347.484 262.903 347.35 263.455 347.25 264.04C344.641 277.752 334.006 276.452 323.638 276.16C275.378 274.73 230.663 287.597 187.887 308.133C186.282 308.88 184.744 309.693 183.205 310.538ZM183.205 367.206V338.514C217.352 323.47 253.639 317.361 291.331 317.329C305.812 317.329 320.294 317.036 334.809 318.661C343.605 319.636 344.675 325.712 344.541 331.138C344.374 337.507 337.819 334.777 334.073 334.972C286.749 337.182 240.228 343.226 196.784 363.079C192.068 365.191 187.519 364.476 183.205 367.206ZM364.507 180.37V230.084C347.417 243.602 330.361 241.262 322.702 239.15C297.819 232.262 291.498 220.499 289.926 209.516C289.257 205 290.796 200.386 290.996 195.837C291.565 182.124 287.217 177.998 273.003 179.298C255.244 180.922 238.054 185.146 221.165 190.54C213.941 192.847 210.262 196.876 209.559 205C208.188 220.499 208.188 235.933 209.024 251.432C209.325 257.021 208.79 262.285 202.737 264.787C198.489 266.542 194.041 269.044 189.259 266.509C184.208 263.845 186.483 259.036 186.416 255.104C186.315 248.443 186.75 241.75 186.75 235.056C186.75 230.864 185.513 227.29 183.205 224.398V186.186C185.479 186.771 187.319 184.302 189.125 183.327C224.743 164.546 262.636 158.827 302.702 163.636C324.274 166.268 344.809 171.792 364.507 180.37ZM364.507 144.465V163.051C364.24 162.954 363.972 162.856 363.738 162.726C307.986 141.378 252.167 141.021 196.483 162.759C190.897 164.936 186.014 168.185 183.205 173.611V153.336C183.974 152.881 184.81 152.458 185.647 152.036C190.964 149.436 193.172 144.725 194.844 139.558C201.967 117.496 217.853 103.199 238.957 94.2954C249.425 89.8764 258.656 86.1071 263.973 74.6046C269.492 62.7121 288.221 64.3692 293.204 77.3665C297.184 87.7318 303.806 90.3313 313.705 92.2484C333.906 96.2125 345.143 111.224 353.705 127.763C356.915 133.905 360.26 139.558 364.507 144.465Z" fill="#234077"/>
<path opacity="0.3" d="M320.393 241.652H163.74C158.322 241.652 153.94 245.909 153.94 251.172V313.982C153.94 319.246 158.322 323.502 163.74 323.502H287.049C292.033 330.261 301.096 342.381 301.899 342.381C302.634 342.381 301.196 330.943 300.193 323.502H320.393C325.811 323.502 330.193 319.246 330.193 313.982V251.172C330.193 245.909 325.811 241.652 320.393 241.652Z" fill="#3E82D7"/>
<path opacity="0.3" d="M376.447 99.3644H209.693C204.275 99.3644 199.894 103.621 199.894 108.885V176.373C199.894 181.637 204.275 185.894 209.693 185.894H227.017C226.014 193.335 224.709 203.992 225.412 203.992C226.181 203.992 234.575 192.782 239.659 185.894H376.447C381.865 185.894 386.246 181.637 386.246 176.373V108.885C386.246 103.653 381.865 99.3644 376.447 99.3644Z" fill="#3E82D7"/>
<path d="M311.23 57.6431H237.151C236.281 57.6431 235.612 56.9607 235.612 56.1484V55.4011C235.612 54.5562 236.315 53.9064 237.151 53.9064H311.23C312.1 53.9064 312.769 54.5887 312.769 55.4011V56.1484C312.769 56.9607 312.1 57.6431 311.23 57.6431Z" fill="white"/>
<path d="M169.927 248.118C169.927 248.118 171.031 252.05 173.472 253.967L176.382 221.279C176.382 221.279 197.352 198.501 192.268 167.795C190.529 157.267 185.144 147.617 176.917 140.566C172.235 136.569 167.051 133.872 164.008 137.641C164.008 137.641 140.262 192.587 123.841 232.749L169.927 248.118Z" fill="#F7C29E"/>
<path d="M313.906 225.373H157.286C151.868 225.373 147.486 229.629 147.486 234.893V297.703C147.486 302.967 151.868 307.223 157.286 307.223H280.595C285.578 313.982 294.642 326.102 295.445 326.102C296.18 326.102 294.742 314.664 293.739 307.223H313.939C319.357 307.223 323.739 302.967 323.739 297.703V234.893C323.705 229.629 319.324 225.373 313.906 225.373Z" fill="#4385D8"/>
<path opacity="0.3" d="M282.802 380.853C282.802 385.597 278.822 389.463 273.939 389.463C269.056 389.463 265.076 385.597 265.076 380.853C265.076 376.109 269.056 372.242 273.939 372.242C278.822 372.242 282.802 376.076 282.802 380.853Z" fill="#3E82D7"/>
<path d="M276.581 384.427H271.297C270.728 384.427 270.26 383.972 270.26 383.42V378.286C270.26 377.733 270.728 377.279 271.297 377.279H276.581C277.149 377.279 277.618 377.733 277.618 378.286V383.42C277.618 383.972 277.149 384.427 276.581 384.427ZM271.297 377.539C270.862 377.539 270.527 377.863 270.527 378.286V383.42C270.527 383.842 270.862 384.167 271.297 384.167H276.581C277.016 384.167 277.35 383.842 277.35 383.42V378.286C277.35 377.863 277.016 377.539 276.581 377.539H271.297Z" fill="#3E82D7"/>
<path d="M364.239 348.717H183.873V366.426H364.239V348.717Z" fill="#8ABBFA"/>
<path d="M364.239 67.0662H183.873V82.9553H364.239V67.0662Z" fill="#8ABBFA"/>
<path d="M168.322 170.004C174.877 167.08 178.322 150.476 179.526 143.035C174.242 137.901 167.653 133.255 164.041 137.739C164.041 137.739 158.824 149.826 151.566 166.82C156.55 169.485 163.406 172.181 168.322 170.004Z" fill="#F19C61"/>
<path d="M333.704 264.202C333.704 264.202 309.357 266.184 308.487 272.488C307.651 278.792 309.524 289.872 332.5 292.016H356.313C356.313 292.016 349.189 272.813 349.523 272.163C349.891 271.513 333.704 264.202 333.704 264.202Z" fill="#F3AA78"/>
<path d="M294.641 358.043C291.33 359.732 290.193 363.794 292.066 366.946C303.27 385.727 347.851 460.364 351.865 466.44C356.48 473.393 367.717 489.77 405.008 498.218C442.298 506.666 457.649 530.971 457.649 530.971H572.632C572.632 530.971 545.542 489.25 523.067 381.015C523.067 381.015 505.676 291.139 473.001 294.129C473.001 294.129 453.068 273.788 433.636 277.752C433.636 277.752 396.847 256.404 375.878 256.404L325.544 198.631C320.561 192.912 311.798 191.775 305.644 196.357C303.671 197.819 302.166 199.768 301.765 202.303C300.226 211.726 313.002 235.576 333.437 264.365C353.871 293.154 404.473 384.525 382.5 424.719C382.5 424.719 360.025 408.342 340.594 382.023C324.34 359.992 305.21 352.584 294.641 358.043Z" fill="#F7C29E"/>
<path d="M376.079 256.436C382.767 261.993 389.022 268.004 394.941 274.34C402.935 282.788 413.001 295.298 418.921 304.949C426.379 316.906 431.295 327.369 433.637 340.529L433.503 340.561C430.827 328.214 423.804 314.892 417.717 305.696C413.135 298.515 404.707 287.077 394.038 275.12C388.687 269.109 381.898 262.025 376.012 256.534L376.079 256.436Z" fill="#F19C61"/>
<path d="M433.301 277.589C438.719 280.286 443.569 284.055 447.85 288.312C452.198 292.569 455.776 297.378 458.886 302.609C461.896 307.808 464.238 313.397 465.81 319.181C467.114 324.574 467.983 328.246 468.117 336.792H467.95C467.448 330.943 466.345 325.127 464.639 319.506C462.9 314.047 460.492 308.198 457.549 303.356C454.606 298.223 451.027 293.446 446.947 289.124C443.101 285.03 438.051 280.611 433.201 277.719L433.301 277.589Z" fill="#F19C61"/>
<path d="M472.566 293.739C477.382 297.28 482.232 303.519 484.606 307.743C487.583 312.715 489.924 318.466 491.462 324.769C492.599 328.799 492.9 332.73 493.068 336.824L492.9 336.857C492.198 332.893 491.763 329.903 490.292 325.094C488.051 317.816 486.312 314.047 483.302 308.425C481.529 304.949 476.88 298.093 472.466 293.869L472.566 293.739Z" fill="#F19C61"/>
<path d="M317.851 381.145C318.855 376.109 312.835 368.148 307.383 362.137C303.972 358.368 298.588 356.97 293.838 358.562C291.196 360.48 290.394 364.086 292.099 366.946C295.109 371.982 300.527 381.08 306.915 391.771C311.664 389.399 316.882 385.792 317.851 381.145Z" fill="#F19C61"/>
<path d="M322.668 221.311C325.578 220.759 338.755 216.47 337.952 214.163L324.943 199.216C322.367 196.259 318.755 194.537 315.043 194.179C315.01 194.179 315.01 194.179 314.976 194.179C314.876 194.179 314.642 194.147 314.307 194.147C312.568 194.147 308.254 194.634 307.317 199.216C306.381 203.732 314.107 214.748 317.518 219.329C318.688 220.921 320.695 221.669 322.668 221.311Z" fill="#F19C61"/>
<path d="M91.7676 452.89C106.182 461.501 152.57 487.203 200.529 492.694C203.338 493.019 205.311 495.521 204.475 497.666L196.081 519.469C195.512 520.898 193.873 521.743 191.967 521.548C177.82 519.891 119.493 511.345 78.4567 480.509C77.0521 479.47 76.4835 477.877 76.9852 476.513L85.547 454.255C86.4165 452.175 89.4265 451.493 91.7676 452.89Z" fill="#292929"/>
<path d="M87.5538 473.751L87.3866 473.686C86.5505 473.393 86.1157 472.483 86.4167 471.639L88.9919 464.913C89.2929 464.1 90.2294 463.678 91.0989 463.97L91.2662 464.035C92.1023 464.328 92.537 465.238 92.236 466.082L89.6608 472.808C89.3264 473.653 88.3899 474.043 87.5538 473.751Z" fill="#141414"/>
<path d="M96.1818 478.917L96.0145 478.852C95.1784 478.56 94.7437 477.65 95.0447 476.805L97.6199 470.079C97.9209 469.267 98.8573 468.844 99.7269 469.137L99.8941 469.202C100.73 469.494 101.165 470.404 100.864 471.249L98.2888 477.975C97.9543 478.82 97.0179 479.21 96.1818 478.917Z" fill="#141414"/>
<path d="M104.844 484.051L104.677 483.986C103.841 483.694 103.406 482.784 103.707 481.939L106.282 475.213C106.583 474.401 107.519 473.978 108.389 474.271L108.556 474.336C109.392 474.628 109.827 475.538 109.526 476.383L106.951 483.109C106.616 483.954 105.68 484.344 104.844 484.051Z" fill="#141414"/>
<path d="M113.707 488.21L113.54 488.145C112.704 487.853 112.269 486.943 112.57 486.098L115.145 479.372C115.446 478.56 116.383 478.137 117.252 478.43L117.419 478.495C118.256 478.787 118.69 479.697 118.389 480.542L115.814 487.268C115.513 488.113 114.577 488.535 113.707 488.21Z" fill="#141414"/>
<path d="M122.47 493.084L122.303 493.019C121.467 492.727 121.032 491.817 121.333 490.972L123.908 484.246C124.209 483.434 125.145 483.011 126.015 483.304L126.182 483.369C127.018 483.661 127.453 484.571 127.152 485.416L124.577 492.142C124.242 492.954 123.306 493.377 122.47 493.084Z" fill="#141414"/>
<path d="M131.6 496.918L131.433 496.853C130.596 496.561 130.162 495.651 130.463 494.806L133.038 488.08C133.339 487.268 134.275 486.845 135.145 487.138L135.312 487.203C136.148 487.495 136.583 488.405 136.282 489.25L133.707 495.976C133.372 496.821 132.436 497.211 131.6 496.918Z" fill="#141414"/>
<path d="M140.931 500.298L140.764 500.233C139.927 499.94 139.493 499.03 139.794 498.186L142.369 491.46C142.67 490.647 143.606 490.225 144.476 490.517L144.643 490.582C145.479 490.875 145.914 491.785 145.613 492.629L143.038 499.355C142.703 500.2 141.767 500.59 140.931 500.298Z" fill="#141414"/>
<path d="M150.429 503.222L150.262 503.157C149.426 502.865 148.991 501.955 149.292 501.11L151.867 494.384C152.168 493.572 153.104 493.149 153.974 493.442L154.141 493.507C154.977 493.799 155.412 494.709 155.111 495.554L152.536 502.28C152.201 503.092 151.265 503.515 150.429 503.222Z" fill="#141414"/>
<path d="M160.295 505.107L160.128 505.042C159.292 504.749 158.857 503.839 159.158 502.995L161.733 496.269C162.034 495.456 162.971 495.034 163.84 495.326L164.007 495.391C164.844 495.684 165.278 496.593 164.977 497.438L162.402 504.164C162.068 505.009 161.131 505.431 160.295 505.107Z" fill="#141414"/>
<path d="M169.927 507.706L169.76 507.641C168.924 507.349 168.489 506.439 168.79 505.594L171.365 498.868C171.666 498.056 172.602 497.633 173.472 497.926L173.639 497.991C174.475 498.283 174.91 499.193 174.609 500.038L172.034 506.764C171.699 507.576 170.763 507.999 169.927 507.706Z" fill="#141414"/>
<path d="M179.894 509.331L179.726 509.266C178.89 508.973 178.456 508.064 178.757 507.219L181.332 500.493C181.633 499.68 182.569 499.258 183.439 499.55L183.606 499.615C184.442 499.908 184.877 500.818 184.576 501.662L182.001 508.388C181.7 509.233 180.763 509.623 179.894 509.331Z" fill="#141414"/>
<path d="M189.927 510.923L189.76 510.858C188.924 510.566 188.489 509.656 188.79 508.811L191.365 502.085C191.666 501.272 192.602 500.85 193.472 501.142L193.639 501.207C194.475 501.5 194.91 502.41 194.609 503.254L192.034 509.981C191.699 510.825 190.763 511.215 189.927 510.923Z" fill="#141414"/>
<path d="M120.229 503.384L120.262 503.287C120.095 503.255 119.961 503.222 119.794 503.19L108.456 499.063C107.319 498.641 106.784 497.373 107.252 496.204L117.486 469.559C117.955 468.389 119.226 467.772 120.329 468.162L131.667 472.289C132.336 472.516 132.804 473.068 132.971 473.751C133.874 474.141 134.744 474.498 135.68 474.888C135.981 472.646 134.811 470.469 132.704 469.722L121.366 465.595C118.891 464.685 116.048 466.082 115.045 468.682L104.811 495.326C103.808 497.926 105.012 500.785 107.487 501.695L118.824 505.821C120.53 506.439 122.403 505.984 123.74 504.782C122.57 504.327 121.399 503.872 120.229 503.384Z" fill="#E95E2A"/>
<path d="M117.754 482.264L112.804 480.477C111.935 480.152 110.898 480.639 110.563 481.582C110.196 482.524 110.63 483.531 111.533 483.856L116.483 485.643L117.754 482.264Z" fill="#BF4019"/>
<path opacity="0.2" d="M457.649 530.971H572.631C572.631 530.971 554.872 503.612 536.177 435.766C527.983 485.741 482.699 482.849 464.739 485.643C444.071 488.828 363.771 472.581 352.533 467.447C357.55 474.856 369.389 490.16 405.008 498.218C442.298 506.634 457.649 530.971 457.649 530.971Z" fill="#F7C29E"/>
<path opacity="0.2" d="M339.523 273.398C362.065 308.588 402.499 389.431 382.5 424.719L395.777 437.456C395.777 437.456 429.322 401.323 375.944 321.683C363.537 303.129 351.196 287.11 339.523 273.398Z" fill="#F7C29E"/>
<path d="M205.679 266.282C205.679 279.474 194.676 290.132 181.131 290.132C167.553 290.132 156.583 279.442 156.583 266.282C156.583 253.09 167.586 242.432 181.131 242.432C194.676 242.432 205.679 253.122 205.679 266.282Z" fill="white"/>
<path d="M168.322 266.932C168.322 266.932 165.88 257.216 171.7 253.577C177.485 249.938 183.706 249.093 187.92 251.205C193.773 254.097 196.214 261.96 194.308 266.282L178.723 262.48L168.322 266.932Z" fill="black"/>
<path d="M185.01 278.304H177.786V285.29H185.01V278.304Z" fill="#F7C29E"/>
<path d="M184.977 282.496V278.304H177.753V281.879C179.325 282.691 181.633 283.146 184.977 282.496Z" fill="#F19A5E"/>
<path d="M196.348 265.794C195.612 265.437 194.709 265.502 193.94 265.892C194.207 259.003 188.422 253.187 181.097 253.415C173.773 253.155 167.987 258.971 168.255 265.892C167.452 265.502 166.582 265.437 165.847 265.794C164.409 266.477 163.94 268.459 164.843 270.213C165.746 271.968 167.619 272.813 169.057 272.131C169.258 272.033 169.425 271.903 169.592 271.773C170.429 277.492 175.311 281.749 181.097 281.684C186.85 281.749 191.766 277.492 192.602 271.773C192.769 271.903 192.937 272.033 193.137 272.131C194.575 272.813 196.482 271.968 197.351 270.213C198.254 268.459 197.819 266.477 196.348 265.794Z" fill="#F7C29E"/>
<path d="M185.813 273.95C185.512 275.347 183.873 276.42 181.867 276.485C179.86 276.55 178.188 275.542 177.753 274.178L185.813 273.95Z" fill="white"/>
<path d="M168.255 265.892C168.255 265.892 177.686 263.098 181.834 258.483C181.834 258.483 180.663 264.072 179.793 264.95C180.061 265.112 189.225 260.79 190.462 256.826C191.7 252.862 181.098 251.4 181.098 251.4C181.098 251.4 177.452 252.895 177.285 252.992C177.118 253.09 173.707 253.479 173.305 254.324C172.804 255.429 170.396 255.527 170.396 255.527L168.891 258.581L167.82 261.798L168.255 265.892Z" fill="black"/>
<path d="M160.529 253.252C162.603 254.064 165.011 254.454 167.519 253.707C173.038 252.05 175.211 252.7 175.947 253.09C176.382 253.317 176.917 253.414 177.385 253.284C177.92 253.122 178.422 252.635 178.288 251.432C178.288 251.432 178.522 246.363 174.007 243.439C168.422 245.064 163.673 248.606 160.529 253.252Z" fill="black"/>
<path d="M172.368 252.927C172.201 252.732 172.268 252.407 172.469 252.277C173.405 251.692 175.746 250.36 178.589 250.23C178.856 250.23 179.091 250.425 179.091 250.685C179.091 250.913 178.89 251.14 178.656 251.14C176.047 251.27 173.84 252.505 173.004 253.057C172.803 253.155 172.535 253.122 172.368 252.927Z" fill="#7FBF43"/>
<path d="M384.44 81.4281H217.686C212.268 81.4281 207.887 85.6847 207.887 90.9486V158.437C207.887 163.701 212.268 167.957 217.686 167.957H235.01C234.007 175.398 232.702 186.056 233.405 186.056C234.174 186.056 242.569 174.846 247.652 167.957H384.44C389.858 167.957 394.239 163.701 394.239 158.437V90.9486C394.239 85.6847 389.825 81.4281 384.44 81.4281Z" fill="#AD8DCE"/>
<path d="M261.958 135.933C268.212 124.246 263.53 109.846 251.5 103.769C239.47 97.6931 224.649 102.242 218.394 113.929C212.14 125.617 216.822 140.017 228.852 146.094C240.882 152.17 255.704 147.621 261.958 135.933Z" fill="white"/>
<path d="M244.074 136.959H236.85V143.945H244.074V136.959Z" fill="#F7C29E"/>
<path d="M244.04 141.15V136.959H236.816V140.533C238.388 141.345 240.696 141.8 244.04 141.15Z" fill="#F19A5E"/>
<path d="M255.411 124.449C254.676 124.092 253.773 124.157 253.003 124.547C253.271 117.658 247.485 111.842 240.161 112.069C232.836 111.809 227.051 117.626 227.318 124.547C226.515 124.157 225.646 124.092 224.91 124.449C223.472 125.131 223.004 127.114 223.907 128.868C224.81 130.623 226.683 131.468 228.121 130.785C228.321 130.688 228.489 130.558 228.656 130.428C229.492 136.147 234.375 140.403 240.161 140.338C245.913 140.403 250.83 136.147 251.666 130.428C251.833 130.558 252 130.688 252.201 130.785C253.639 131.468 255.545 130.623 256.415 128.868C257.318 127.114 256.883 125.131 255.411 124.449Z" fill="#F7C29E"/>
<path d="M231.399 109.34C231.399 109.34 235.011 106.35 243.238 106.838C251.465 107.325 253.037 111.484 253.505 117.43L253.037 124.514C253.037 124.514 250.897 122.369 248.121 116.456C248.121 116.456 243.505 121.492 241.499 120.875C239.492 120.29 242.268 116.651 242.268 116.651C242.268 116.651 232.87 124.481 227.352 124.481C227.352 124.481 224.442 115.286 228.522 111.939C228.522 111.939 225.445 112.069 225.278 111.484C225.111 110.899 226.75 110.022 229.726 110.347C229.726 110.347 227.619 106.318 228.79 105.895C229.96 105.538 231.399 109.34 231.399 109.34Z" fill="#050505"/>
<path d="M244.876 132.605C244.575 134.002 242.937 135.074 240.93 135.139C238.923 135.204 237.251 134.197 236.816 132.832L244.876 132.605Z" fill="white"/>
<path d="M368.888 105.018H275.21C274.106 105.018 273.17 104.141 273.17 103.036V102.841C273.17 101.769 274.073 100.859 275.21 100.859H368.888C369.992 100.859 370.928 101.736 370.928 102.841V103.036C370.928 104.141 370.025 105.018 368.888 105.018Z" fill="white"/>
<path d="M294.24 115.968H275.21C274.106 115.968 273.17 115.091 273.17 113.986V113.791C273.17 112.719 274.073 111.809 275.21 111.809H294.24C295.344 111.809 296.28 112.687 296.28 113.791V113.986C296.247 115.091 295.344 115.968 294.24 115.968Z" fill="white"/>
<path d="M368.888 115.968H306.982C305.879 115.968 304.942 115.091 304.942 113.986V113.791C304.942 112.719 305.845 111.809 306.982 111.809H368.888C369.992 111.809 370.928 112.687 370.928 113.791V113.986C370.928 115.091 370.025 115.968 368.888 115.968Z" fill="white"/>
<path d="M321.631 126.919H275.21C274.106 126.919 273.17 126.041 273.17 124.936V124.741C273.17 123.669 274.073 122.759 275.21 122.759H321.664C322.768 122.759 323.704 123.637 323.704 124.741V124.936C323.671 126.041 322.768 126.919 321.631 126.919Z" fill="white"/>
<path d="M368.888 126.919H333.069C331.966 126.919 331.029 126.041 331.029 124.936V124.741C331.029 123.669 331.932 122.759 333.069 122.759H368.888C369.992 122.759 370.928 123.637 370.928 124.741V124.936C370.928 126.041 370.026 126.919 368.888 126.919Z" fill="white"/>
<path d="M368.888 137.869H275.21C274.106 137.869 273.17 136.991 273.17 135.887V135.692C273.17 134.619 274.073 133.71 275.21 133.71H368.888C369.992 133.71 370.928 134.587 370.928 135.692V135.887C370.928 136.959 370.025 137.869 368.888 137.869Z" fill="white"/>
<path d="M241.331 249.873H212.502C211.398 249.873 210.462 248.995 210.462 247.891V247.696C210.462 246.623 211.365 245.714 212.502 245.714H241.331C242.435 245.714 243.371 246.591 243.371 247.696V247.891C243.371 248.995 242.435 249.873 241.331 249.873Z" fill="white"/>
<path d="M230.662 260.823H212.502C211.398 260.823 210.462 259.946 210.462 258.841V258.646C210.462 257.574 211.365 256.664 212.502 256.664H230.662C231.766 256.664 232.703 257.541 232.703 258.646V258.841C232.669 259.946 231.766 260.823 230.662 260.823Z" fill="white"/>
<path d="M261.832 260.823H238.555C237.451 260.823 236.515 259.946 236.515 258.841V258.646C236.515 257.574 237.418 256.664 238.555 256.664H261.832C262.936 256.664 263.872 257.541 263.872 258.646V258.841C263.872 259.946 262.936 260.823 261.832 260.823Z" fill="white"/>
<path d="M302.535 260.823H269.726C268.622 260.823 267.686 259.946 267.686 258.841V258.646C267.686 257.574 268.589 256.664 269.726 256.664H302.535C303.638 256.664 304.575 257.541 304.575 258.646V258.841C304.575 259.946 303.638 260.823 302.535 260.823Z" fill="white"/>
<path d="M302.534 249.873H250.829C249.725 249.873 248.789 248.995 248.789 247.891V247.696C248.789 246.623 249.692 245.714 250.829 245.714H302.534C303.638 245.714 304.574 246.591 304.574 247.696V247.891C304.574 248.995 303.638 249.873 302.534 249.873Z" fill="white"/>
<path d="M302.535 282.268H212.469C211.365 282.268 210.429 281.391 210.429 280.286V280.091C210.429 278.987 211.332 278.109 212.469 278.109H302.501C303.605 278.109 304.541 278.987 304.541 280.091V280.286C304.575 281.391 303.638 282.268 302.535 282.268Z" fill="white"/>
<path d="M257.05 271.773H212.469C211.365 271.773 210.429 270.896 210.429 269.791V269.596C210.429 268.524 211.332 267.614 212.469 267.614H257.017C258.12 267.614 259.057 268.491 259.057 269.596V269.791C259.057 270.863 258.154 271.773 257.05 271.773Z" fill="white"/>
<path d="M302.535 271.773H268.221C267.117 271.773 266.181 270.896 266.181 269.791V269.596C266.181 268.524 267.084 267.614 268.221 267.614H302.535C303.638 267.614 304.575 268.491 304.575 269.596V269.791C304.575 270.863 303.638 271.773 302.535 271.773Z" fill="white"/>
<path d="M66.517 254.194C64.109 252.18 62.1357 251.237 62.1357 251.205L62.7378 250.003C62.8381 250.035 64.8782 251.042 67.42 253.155L66.517 254.194Z" fill="#292929"/>
<path d="M68.724 384.167C66.2491 381.567 63.9749 378.903 62.0017 376.271L63.1053 375.491C65.0451 378.091 67.2859 380.69 69.7274 383.257L68.724 384.167ZM56.383 367.563C54.7108 364.444 53.373 361.259 52.3697 358.042L53.7075 357.653C54.6774 360.772 55.9817 363.891 57.6205 366.946L56.383 367.563ZM50.363 347.97C50.2292 346.41 50.1289 344.785 50.1289 343.193C50.1289 341.373 50.2292 339.521 50.4299 337.669L51.8011 337.799C51.6005 339.619 51.5336 341.406 51.5336 343.193C51.5336 344.753 51.6005 346.312 51.7677 347.84L50.363 347.97ZM53.674 327.921L52.3362 327.564C53.2058 324.412 54.276 321.228 55.6472 317.848L56.9516 318.336C55.5803 321.683 54.5101 324.834 53.674 327.921ZM61.1656 309.075L59.9281 308.49C61.2659 305.793 62.8044 302.934 64.7441 299.425L65.9481 300.075C64.0083 303.551 62.5034 306.411 61.1656 309.075ZM70.9982 291.139L69.7608 290.522L69.7942 290.457C71.5333 287.337 72.9046 284.25 73.8076 281.294L75.1453 281.684C74.2089 284.705 72.8377 287.89 71.0317 291.107L70.9982 291.139ZM75.2122 271.448C75.0785 268.069 74.2758 264.852 72.7708 261.928L74.0082 261.343C75.6136 264.462 76.4831 267.841 76.6169 271.416L75.2122 271.448Z" fill="#292929"/>
<path d="M80.4964 394.857C79.0249 393.687 77.6202 392.518 76.249 391.348L77.1855 390.341C78.5232 391.51 79.9279 392.68 81.366 393.817L80.4964 394.857Z" fill="#292929"/>
<path d="M57.3866 231.449L55.5471 253.122L42.6041 238.955L0.698242 205.584L36.4169 216.535C36.4169 216.535 54.0087 224.853 54.8114 225.925C55.6475 227.03 57.3866 231.449 57.3866 231.449Z" fill="#BF4019"/>
<path d="M76.383 222.124L0.698242 205.584L57.3866 231.449L76.383 222.124Z" fill="#E95E2A"/>
<path d="M28.2899 247.468L51.6007 236.161L0.698242 205.584L28.2899 247.468Z" fill="#E95E2A"/>
</svg>
