<svg width="149" height="35" viewBox="0 0 149 35" fill="none" xmlns="http://www.w3.org/2000/svg">
<path d="M40.2656 4.13208H49.8403V6.48818H43.0503V9.57833H48.999V11.9108H43.0503V17.5346H40.2656V4.13208Z" fill="white"/>
<path d="M54.2243 17.5346H51.4277V4.1084H54.2124V17.5346H54.2243Z" fill="white"/>
<path d="M56.7959 4.1084H59.7347L65.0671 13.4617V4.1084H67.6859V17.5228H64.8775L59.4147 8.00365V17.5228H56.7959V4.1084Z" fill="white"/>
<path d="M72.8882 17.5346H70.1035V4.1084H72.8882V17.5346Z" fill="white"/>
<path d="M77.5338 13.3908C77.6167 14.0065 77.7945 14.4564 78.0433 14.7642C78.5055 15.3207 79.2994 15.593 80.437 15.593C81.1125 15.593 81.6576 15.5219 82.0841 15.3799C82.8899 15.0957 83.281 14.5866 83.281 13.817C83.281 13.3789 83.0795 13.0356 82.6885 12.787C82.2974 12.5502 81.6694 12.3371 80.8281 12.1595L79.3705 11.8398C77.9367 11.5201 76.965 11.1768 76.4199 10.8097C75.5193 10.1941 75.0572 9.22322 75.0572 7.90902C75.0572 6.70137 75.4956 5.70684 76.3844 4.91358C77.2731 4.12032 78.5647 3.71777 80.283 3.71777C81.7168 3.71777 82.9373 4.09664 83.9446 4.84254C84.9518 5.58844 85.4851 6.67769 85.5325 8.11029H82.8307C82.7833 7.3052 82.4159 6.72505 81.7524 6.39354C81.3021 6.16859 80.7451 6.06203 80.0815 6.06203C79.335 6.06203 78.7543 6.2041 78.304 6.5001C77.8656 6.79609 77.6404 7.19864 77.6404 7.71958C77.6404 8.20501 77.8537 8.5602 78.2922 8.79699C78.5766 8.95091 79.1691 9.14035 80.0815 9.35346L82.4396 9.90992C83.4706 10.1586 84.2527 10.4782 84.7622 10.8808C85.568 11.5083 85.9591 12.4199 85.9591 13.6157C85.9591 14.8471 85.4851 15.8653 84.5371 16.6704C83.5891 17.4755 82.25 17.8899 80.52 17.8899C78.7543 17.8899 77.3561 17.4873 76.3488 16.6941C75.3416 15.9008 74.832 14.7997 74.832 13.4026H77.5338V13.3908Z" fill="white"/>
<path d="M97.7141 4.1084V6.48817H93.697V17.5346H90.8767V6.48817H86.8359V4.1084H97.7141Z" fill="white"/>
<path d="M109.279 6.48817H102.169V9.34154H108.698V11.674H102.169V15.1193H109.599V17.5346H99.4199V4.1084H109.267V6.48817H109.279Z" fill="white"/>
<path d="M120.406 4.46359C120.904 4.6767 121.318 4.98453 121.662 5.39892C121.947 5.74227 122.172 6.1093 122.338 6.52369C122.503 6.93808 122.586 7.41167 122.586 7.93261C122.586 8.57196 122.421 9.19946 122.101 9.81512C121.781 10.4308 121.247 10.8689 120.501 11.1175C121.117 11.3661 121.555 11.7213 121.816 12.1831C122.077 12.6448 122.207 13.3433 122.207 14.2787V15.1785C122.207 15.7942 122.231 16.2085 122.278 16.4217C122.349 16.765 122.527 17.0255 122.8 17.1912V17.5228H119.707C119.624 17.2268 119.565 16.99 119.529 16.8005C119.458 16.4217 119.411 16.0428 119.411 15.6402L119.387 14.3971C119.375 13.5446 119.233 12.9645 118.949 12.6803C118.664 12.3962 118.131 12.2541 117.349 12.2541H114.611V17.5109H111.862V4.1084H118.285C119.209 4.13208 119.908 4.25047 120.406 4.46359ZM114.6 6.44081V10.0401H117.621C118.226 10.0401 118.676 9.96904 118.972 9.82696C119.505 9.56649 119.766 9.06922 119.766 8.31148C119.766 7.49455 119.505 6.94992 118.996 6.67761C118.712 6.52369 118.273 6.44081 117.692 6.44081H114.6Z" fill="white"/>
<path d="M133.88 4.46359C134.377 4.6767 134.792 4.98453 135.136 5.39892C135.42 5.74227 135.645 6.1093 135.811 6.52369C135.977 6.93808 136.06 7.41167 136.06 7.93261C136.06 8.57196 135.894 9.19946 135.574 9.81512C135.254 10.4308 134.721 10.8689 133.974 11.1175C134.591 11.3661 135.029 11.7213 135.29 12.1831C135.55 12.6448 135.681 13.3433 135.681 14.2787V15.1785C135.681 15.7942 135.704 16.2085 135.752 16.4217C135.823 16.765 136.001 17.0255 136.273 17.1912V17.5228H133.18C133.097 17.2268 133.038 16.99 133.003 16.8005C132.932 16.4217 132.884 16.0428 132.884 15.6402L132.86 14.3971C132.849 13.5446 132.706 12.9645 132.422 12.6803C132.138 12.3962 131.604 12.2541 130.822 12.2541H128.085V17.5109H125.348V4.1084H131.77C132.683 4.13208 133.382 4.25047 133.88 4.46359ZM128.085 6.44081V10.0401H131.107C131.711 10.0401 132.161 9.96904 132.458 9.82696C132.991 9.56649 133.252 9.06922 133.252 8.31148C133.252 7.49455 132.991 6.94992 132.481 6.67761C132.197 6.52369 131.758 6.44081 131.178 6.44081H128.085Z" fill="white"/>
<path d="M148.679 6.48817H141.569V9.34154H148.099V11.674H141.569V15.1193H148.999V17.5346H138.82V4.1084H148.668V6.48817H148.679Z" fill="white"/>
<path d="M40.7516 30.1438C40.9649 30.5109 41.2374 30.7832 41.5692 30.9608C41.901 31.1384 42.292 31.2331 42.7186 31.2331C42.9912 31.2331 43.24 31.1976 43.4652 31.1147C43.7022 31.0318 43.9036 30.9253 44.0814 30.7713C44.2591 30.6293 44.3895 30.4517 44.4961 30.2386C44.6028 30.0373 44.6502 29.8005 44.6502 29.54C44.6502 29.244 44.5909 28.9954 44.4606 28.7941C44.3302 28.6047 44.1643 28.4389 43.951 28.3205C43.7377 28.1903 43.5007 28.0837 43.24 28.0009C42.9793 27.9061 42.7068 27.8233 42.4224 27.7285C42.138 27.6338 41.8773 27.5391 41.6047 27.4207C41.344 27.3023 41.107 27.1602 40.8937 26.9826C40.6805 26.805 40.5146 26.5682 40.3842 26.2959C40.2539 26.0236 40.1946 25.6803 40.1946 25.2777C40.1946 24.8989 40.2657 24.5555 40.4198 24.2595C40.5738 23.9635 40.7753 23.7149 41.0241 23.5255C41.2848 23.3242 41.5692 23.1821 41.901 23.0755C42.2328 22.969 42.5764 22.9216 42.9438 22.9216C43.4178 22.9216 43.8444 23.0045 44.2473 23.1703C44.6502 23.336 44.9938 23.6083 45.29 23.999L44.6028 24.4963C44.4013 24.2122 44.1643 23.999 43.8918 23.857C43.6192 23.7149 43.2993 23.6438 42.9319 23.6438C42.6712 23.6438 42.4224 23.6794 42.1972 23.7504C41.9602 23.8214 41.7588 23.9162 41.581 24.0582C41.4033 24.1885 41.2729 24.3542 41.1663 24.5555C41.0597 24.7568 41.0123 24.9936 41.0123 25.2659C41.0123 25.6921 41.1189 26.0236 41.344 26.2604C41.5573 26.4854 41.8299 26.6748 42.1617 26.805C42.4935 26.9353 42.849 27.0537 43.2282 27.1602C43.6074 27.2668 43.9629 27.397 44.2947 27.5628C44.6265 27.7285 44.899 27.9653 45.1123 28.2732C45.3256 28.581 45.4441 28.9954 45.4441 29.5282C45.4441 29.9189 45.373 30.2622 45.2308 30.5582C45.0886 30.8542 44.8871 31.1147 44.6383 31.316C44.3895 31.5172 44.1051 31.683 43.7851 31.7777C43.4652 31.8843 43.1215 31.9316 42.7779 31.9316C42.2091 31.9316 41.6877 31.8369 41.2137 31.6356C40.7397 31.4344 40.325 31.1028 39.9932 30.6293L40.7516 30.1438Z" fill="white"/>
<path d="M47.624 23.1465H52.8854V23.8687H48.4298V26.9233H52.601V27.6456H48.4298V30.9962H53.075V31.7184H47.624V23.1465Z" fill="white"/>
<path d="M62.2585 31.1738C61.7608 31.4579 61.2394 31.6592 60.6943 31.7776C60.1611 31.896 59.6042 31.9552 59.0472 31.9552C58.3955 31.9552 57.7911 31.8486 57.246 31.6237C56.7009 31.3987 56.2388 31.0909 55.8477 30.6883C55.4567 30.2858 55.1605 29.8122 54.9353 29.2557C54.722 28.6993 54.6035 28.0954 54.6035 27.4443C54.6035 26.7931 54.7102 26.1893 54.9353 25.6328C55.1486 25.0882 55.4567 24.6027 55.8477 24.212C56.2388 23.8095 56.7009 23.5017 57.246 23.2767C57.7911 23.0517 58.3955 22.9333 59.0472 22.9333C60.327 22.9333 61.3579 23.3241 62.14 24.1173L61.5594 24.7211C61.429 24.5672 61.275 24.4251 61.0854 24.2949C60.8958 24.1647 60.6943 24.0463 60.4692 23.9516C60.244 23.8568 60.0189 23.7858 59.77 23.7384C59.5212 23.6911 59.2842 23.6556 59.0591 23.6556C58.5021 23.6556 57.9926 23.7503 57.5423 23.9516C57.092 24.141 56.7128 24.4133 56.3928 24.7567C56.0729 25.1 55.8359 25.4907 55.67 25.9525C55.5041 26.4142 55.4093 26.9115 55.4093 27.4443C55.4093 27.9771 55.4923 28.4743 55.67 28.9361C55.8359 29.3978 56.0847 29.8004 56.3928 30.1319C56.7128 30.4752 57.092 30.7357 57.5423 30.937C57.9926 31.1264 58.4903 31.233 59.0591 31.233C59.5212 31.233 59.9478 31.1974 60.3625 31.1264C60.7654 31.0554 61.1328 30.9251 61.4646 30.7239V27.8231H59.4027V27.1009H62.2704V31.1738H62.2585Z" fill="white"/>
<path d="M71.0751 28.4389C71.0751 28.9007 71.0277 29.3388 70.921 29.765C70.8144 30.1912 70.6366 30.5582 70.3878 30.8779C70.139 31.1976 69.819 31.4581 69.4161 31.6593C69.0132 31.8488 68.5274 31.9553 67.9467 31.9553C67.3661 31.9553 66.8684 31.8606 66.4773 31.6593C66.0744 31.4699 65.7545 31.2094 65.5056 30.8779C65.2568 30.5582 65.0791 30.1794 64.9724 29.765C64.8658 29.3506 64.8184 28.9007 64.8184 28.4389V23.1348H65.6242V28.2258C65.6242 28.5337 65.6479 28.8652 65.7071 29.2085C65.7663 29.5519 65.873 29.8834 66.0389 30.1794C66.2048 30.4754 66.4418 30.724 66.738 30.9134C67.0461 31.1029 67.449 31.2094 67.9467 31.2094C68.4444 31.2094 68.8473 31.1147 69.1554 30.9134C69.4635 30.724 69.6887 30.4754 69.8546 30.1794C70.0205 29.8834 70.1271 29.5519 70.1863 29.2085C70.2456 28.8652 70.2693 28.5337 70.2693 28.2258V23.1348H71.0751V28.4389Z" fill="white"/>
<path d="M73.6232 23.1465H75.8746C75.9931 23.1465 76.1472 23.1465 76.3368 23.1583C76.5264 23.1702 76.7397 23.1938 76.9648 23.2294C77.19 23.2649 77.427 23.3359 77.6521 23.4188C77.8891 23.5135 78.1024 23.6319 78.2802 23.8095C78.4698 23.9753 78.6238 24.1884 78.7423 24.4489C78.8608 24.7093 78.9201 25.029 78.9201 25.396C78.9201 25.8104 78.849 26.1538 78.7068 26.4142C78.5646 26.6866 78.3868 26.8997 78.1735 27.0654C77.9602 27.2312 77.7232 27.3496 77.4625 27.4325C77.2018 27.5153 76.953 27.5745 76.7278 27.5982L79.2282 31.7184H78.3276L75.9102 27.6456H74.4171V31.7184H73.6113V23.1465H73.6232ZM74.429 26.9233H76.1235C76.5501 26.9233 76.8819 26.876 77.1544 26.7694C77.4151 26.6629 77.6166 26.5326 77.7706 26.3787C77.9128 26.2248 78.0195 26.059 78.0669 25.8815C78.1143 25.7039 78.1498 25.5381 78.1498 25.396C78.1498 25.254 78.1261 25.0882 78.0669 24.9106C78.0195 24.733 77.9128 24.5672 77.7706 24.4133C77.6284 24.2594 77.4151 24.1292 77.1544 24.0226C76.8937 23.9161 76.5501 23.8687 76.1235 23.8687H74.429V26.9233Z" fill="white"/>
<path d="M80.6143 27.4325C80.6143 26.7814 80.7209 26.1775 80.9461 25.6211C81.1593 25.0765 81.4675 24.591 81.8585 24.2003C82.2495 23.7978 82.7117 23.4899 83.2568 23.265C83.8019 23.04 84.4062 22.9216 85.058 22.9216C85.7097 22.9216 86.314 23.04 86.8591 23.265C87.4042 23.4899 87.8782 23.8096 88.2574 24.2003C88.6485 24.6029 88.9447 25.0765 89.1699 25.6211C89.395 26.1657 89.5016 26.7695 89.5016 27.4325C89.5016 28.0837 89.395 28.6876 89.1699 29.244C88.9566 29.8005 88.6485 30.2741 88.2574 30.6766C87.8664 31.0792 87.4042 31.387 86.8591 31.612C86.314 31.8369 85.7097 31.9435 85.058 31.9435C84.4062 31.9435 83.8019 31.8369 83.2568 31.612C82.7117 31.387 82.2495 31.0792 81.8585 30.6766C81.4675 30.2741 81.1712 29.8005 80.9461 29.244C80.7209 28.6994 80.6143 28.0956 80.6143 27.4325ZM81.42 27.4325C81.42 27.9653 81.503 28.4626 81.6807 28.9243C81.8466 29.3861 82.0955 29.7886 82.4036 30.1202C82.7235 30.4635 83.1027 30.724 83.553 30.9253C84.0033 31.1147 84.501 31.2212 85.0698 31.2212C85.6386 31.2212 86.1363 31.1265 86.5866 30.9253C87.0369 30.7358 87.4161 30.4635 87.736 30.1202C88.056 29.7768 88.293 29.3861 88.4589 28.9243C88.6248 28.4626 88.7196 27.9653 88.7196 27.4325C88.7196 26.8998 88.6366 26.4025 88.4589 25.9407C88.293 25.479 88.0441 25.0765 87.736 24.7449C87.4161 24.4016 87.0369 24.1411 86.5866 23.9398C86.1363 23.7504 85.6386 23.6438 85.0698 23.6438C84.501 23.6438 84.0033 23.7386 83.553 23.9398C83.1027 24.1293 82.7235 24.4016 82.4036 24.7449C82.0836 25.0883 81.8466 25.479 81.6807 25.9407C81.503 26.4025 81.42 26.8998 81.42 27.4325Z" fill="white"/>
<path d="M91.8834 30.1438C92.0967 30.5109 92.3692 30.7832 92.701 30.9608C93.0328 31.1384 93.4239 31.2331 93.8505 31.2331C94.123 31.2331 94.3719 31.1976 94.597 31.1147C94.834 31.0318 95.0355 30.9253 95.2132 30.7713C95.391 30.6293 95.5213 30.4517 95.628 30.2386C95.7346 30.0254 95.782 29.8005 95.782 29.54C95.782 29.244 95.7228 28.9954 95.5924 28.7941C95.4621 28.6047 95.2962 28.4389 95.0829 28.3205C94.8696 28.1903 94.6326 28.0837 94.3719 28.0009C94.1112 27.9061 93.8386 27.8233 93.5542 27.7285C93.2698 27.6338 93.0091 27.5391 92.7366 27.4207C92.4759 27.3023 92.2389 27.1602 92.0256 26.9826C91.8123 26.805 91.6464 26.5682 91.516 26.2959C91.3857 26.0236 91.3264 25.6803 91.3264 25.2777C91.3264 24.8989 91.3975 24.5555 91.5516 24.2595C91.7056 23.9635 91.9071 23.7149 92.1559 23.5255C92.4166 23.3242 92.701 23.1821 93.0328 23.0755C93.3646 22.969 93.7083 22.9216 94.0756 22.9216C94.5496 22.9216 94.9762 23.0045 95.3791 23.1703C95.782 23.336 96.1257 23.6083 96.4219 23.999L95.7346 24.4963C95.5332 24.2122 95.2962 23.999 95.0236 23.857C94.7511 23.7149 94.4311 23.6438 94.0638 23.6438C93.8031 23.6438 93.5542 23.6794 93.3291 23.7504C93.0921 23.8214 92.8906 23.9162 92.7129 24.0582C92.5351 24.1885 92.4048 24.3542 92.2981 24.5555C92.1915 24.7568 92.1441 24.9936 92.1441 25.2659C92.1441 25.6921 92.2507 26.0236 92.4759 26.2604C92.6892 26.4854 92.9617 26.6748 93.2935 26.805C93.6253 26.9353 93.9808 27.0537 94.36 27.1602C94.7392 27.2668 95.0947 27.397 95.4265 27.5628C95.7583 27.7285 96.0309 27.9653 96.2442 28.2732C96.4575 28.581 96.576 28.9954 96.576 29.5282C96.576 29.9189 96.5049 30.2622 96.3627 30.5582C96.2205 30.8542 96.019 31.1147 95.7702 31.316C95.5213 31.5172 95.2369 31.683 94.917 31.7777C94.597 31.8843 94.2534 31.9316 93.9097 31.9316C93.3409 31.9316 92.8195 31.8369 92.3455 31.6356C91.8715 31.4344 91.4568 31.1028 91.125 30.6293L91.8834 30.1438Z" fill="white"/>
<path d="M22.6808 11.4727C19.1258 10.0756 15.559 10.052 12.0041 11.4727C11.4945 11.674 11.0798 12.0174 11.0087 12.7159C11.0087 12.7396 10.985 12.8935 11.0561 12.9527C11.2575 13.1303 11.3997 12.9053 11.5419 12.8224C13.8171 11.5911 16.2345 11.2123 18.794 11.5319C20.2516 11.7095 21.638 12.1121 22.9652 12.7277C23.1429 12.8106 23.3562 13 23.534 12.8224C23.7354 12.633 23.6525 12.266 23.5103 12.0884C23.2614 11.7924 23.0363 11.603 22.6808 11.4727Z" fill="white"/>
<path d="M14.7885 9.38884C15.6772 9.24677 16.5778 9.22309 17.4902 9.21125C18.2723 9.21125 19.2914 9.31781 20.0261 9.41252C20.429 9.47172 20.6897 8.99814 20.4409 8.67846C20.1091 8.28775 19.6469 7.84969 19.0307 7.64841C18.5923 7.50634 18.3197 7.38794 17.2414 7.38794C16.1275 7.39978 15.1795 7.90889 14.4211 8.59559C14.0893 8.90342 14.3382 9.45988 14.7885 9.38884Z" fill="white"/>
<path d="M31.1296 0H3.04541C1.37458 0 0 1.3734 0 3.0428V31.091C0 32.7722 1.37458 34.1338 3.04541 34.1338H31.1177C32.8004 34.1338 34.1631 32.7604 34.1631 31.091V3.0428C34.175 1.3734 32.8122 0 31.1296 0ZM8.42524 27.6101C8.40154 27.5983 8.38969 27.5864 8.36599 27.5746C8.37784 27.5864 8.40154 27.5983 8.42524 27.6101ZM24.387 13.4262C24.0552 14.0063 23.5931 13.9708 23.0006 13.7459C22.728 13.6393 22.5147 13.8406 22.5384 14.1247C22.5977 14.8114 22.574 14.9417 22.6569 15.4626C22.8228 16.3743 22.1829 16.2677 22.0052 16.2559C21.7208 16.244 21.5075 16.3151 21.4364 15.5455C21.3653 14.7404 21.3416 13.8406 21.0453 13.4025C20.7728 13 17.7985 12.7632 16.8742 12.8105C15.7366 12.8579 14.6109 13.0236 13.5088 13.2723C13.0467 13.4262 12.3594 13.663 12.466 14.1839C12.5016 14.397 12.5371 14.5983 12.5727 14.7996C12.9874 14.1958 13.6273 13.9116 14.2791 14.0774C15.3574 14.3497 15.6181 15.2021 15.6181 16.6111C15.6181 17.1675 15.4522 17.5819 15.1678 17.8779C15.8669 17.7477 16.5898 17.653 17.3126 17.5819C18.8413 17.428 20.3462 17.3333 21.863 17.499C22.1118 17.5227 22.337 17.5701 22.6095 17.653C22.5977 17.6885 22.5977 17.724 22.5858 17.7714C22.4199 18.6712 21.7445 18.5883 21.0809 18.5646C17.9999 18.4699 15.1441 19.3105 12.4068 20.6602C11.6247 21.0509 10.973 21.5837 10.6649 22.448C10.5701 22.7085 10.499 23.0518 10.7123 23.2413C10.9137 23.4189 11.127 23.1466 11.3285 23.0519C13.734 21.785 16.3291 21.2759 19.0309 21.2759C19.9551 21.2759 20.8794 21.2522 21.8037 21.3588C22.3607 21.418 22.4318 21.8205 22.4199 22.1757C22.4081 22.5901 21.9933 22.4125 21.7563 22.4243C18.7346 22.5664 15.7603 22.969 12.9874 24.2713C12.229 24.6265 11.5299 25.0883 10.9967 25.7395C10.3923 26.4854 10.4871 27.1365 11.3285 27.622C11.8143 27.8943 11.7551 28.285 11.6958 28.6994C11.1863 28.8651 10.8426 28.5573 10.5938 28.4152C10.3449 28.2731 9.57468 27.7167 9.50358 27.6575C8.04605 26.509 8.0342 25.2659 9.47988 24.1174C9.55098 24.0582 9.62208 23.999 9.70503 23.9161C9.51543 23.7859 9.34953 23.6675 9.18363 23.5491C8.36599 22.9216 8.18825 22.0573 8.67409 21.1575C9.02958 20.5063 9.58653 20.0564 10.2027 19.6775C11.1507 19.0974 12.1461 18.6712 13.177 18.3633C12.5134 18.1857 12.1935 17.6056 12.1105 17.0136C11.8025 17.0136 11.4707 17.1202 11.364 16.9307C11.1152 16.4572 11.3048 15.3916 11.3048 14.9535C11.3048 14.4918 11.0915 14.1484 10.6886 13.9353C9.76428 13.4499 9.42063 13.142 9.59838 12.2422C9.77613 11.3187 10.3805 11.224 11.3048 10.7623C11.6484 10.5965 11.7906 10.2768 11.8972 9.94533C12.3475 8.50089 13.3666 7.55371 14.7175 6.97357C15.3811 6.68942 15.9736 6.44078 16.3172 5.68305C16.6727 4.90163 17.8696 5.00818 18.1895 5.86064C18.4384 6.54734 18.865 6.7131 19.5049 6.84333C20.7846 7.10381 21.4956 8.0865 22.0407 9.17575C22.4318 9.96901 22.9176 10.5728 23.7115 11.0346C23.9959 11.2003 24.3514 11.52 24.5647 12.0054C24.7899 12.4909 24.7069 12.8816 24.387 13.4262Z" fill="white"/>
</svg>
