<svg width="17" height="17" viewBox="0 0 17 17" fill="none" xmlns="http://www.w3.org/2000/svg">
<path d="M16.2176 16.6814V16.6807H16.2215V10.9102C16.2215 8.0872 15.6139 5.9126 12.314 5.9126C10.7276 5.9126 9.66302 6.78323 9.22841 7.60862H9.18252V6.17615H6.05371V16.6807H9.31166V11.4793C9.31166 10.1097 9.57125 8.78541 11.2671 8.78541C12.938 8.78541 12.9629 10.3484 12.9629 11.5671V16.6814H16.2176Z" fill="white"/>
<path d="M0.749023 6.17749H4.01086V16.6824H0.749023V6.17749Z" fill="white"/>
<path d="M2.37846 0.946777C1.33553 0.946777 0.489258 1.79317 0.489258 2.83624C0.489258 3.87932 1.33553 4.74341 2.37846 4.74341C3.42138 4.74341 4.26766 3.87932 4.26766 2.83624C4.267 1.79317 3.42073 0.946777 2.37846 0.946777V0.946777Z" fill="white"/>
</svg>
