<svg width="17" height="17" viewBox="0 0 17 17" fill="none" xmlns="http://www.w3.org/2000/svg">
<path d="M12.0754 0.946777H4.86021C2.51195 0.946777 0.601562 2.85742 0.601562 5.206V12.4223C0.601562 14.7708 2.51195 16.6814 4.86021 16.6814H12.0755C14.4237 16.6814 16.3341 14.7708 16.3341 12.4223V5.206C16.3341 2.85742 14.4237 0.946777 12.0754 0.946777V0.946777ZM8.46782 13.1164C6.0958 13.1164 4.16608 11.1864 4.16608 8.81409C4.16608 6.44175 6.0958 4.51177 8.46782 4.51177C10.8398 4.51177 12.7696 6.44175 12.7696 8.81409C12.7696 11.1864 10.8398 13.1164 8.46782 13.1164ZM12.8724 5.5264C12.1715 5.5264 11.6013 4.95618 11.6013 4.25511C11.6013 3.55405 12.1715 2.98371 12.8724 2.98371C13.5734 2.98371 14.1437 3.55405 14.1437 4.25511C14.1437 4.95618 13.5734 5.5264 12.8724 5.5264Z" fill="white"/>
<path d="M8.46784 5.66821C6.73291 5.66821 5.32129 7.08007 5.32129 8.81555C5.32129 10.5509 6.73291 11.9629 8.46784 11.9629C10.2029 11.9629 11.6144 10.5509 11.6144 8.81555C11.6144 7.08007 10.2029 5.66821 8.46784 5.66821Z" fill="white"/>
</svg>
