<?xml version="1.0" encoding="utf-8"?>
<!-- Generator: Adobe Illustrator 24.3.0, SVG Export Plug-In . SVG Version: 6.00 Build 0)  -->
<svg version="1.1" id="Capa_1" xmlns="http://www.w3.org/2000/svg" xmlns:xlink="http://www.w3.org/1999/xlink" x="0px" y="0px"
	 viewBox="0 0 550 440" style="enable-background:new 0 0 550 440;" xml:space="preserve">
<style type="text/css">
	.st0{fill:#FFFFFF;}
	.st1{fill:#E95E2A;}
	.st2{fill:#CEDFF4;}
	.st3{fill:#B2CBEC;}
	.st4{opacity:0.5;fill:#FFFFFF;enable-background:new    ;}
	.st5{fill:#E0EBF9;}
	.st6{fill:#BF4019;}
	.st7{fill:#AD8DCE;}
	.st8{fill:#936DBA;}
	.st9{fill:#6E4697;}
	.st10{fill:#D1B4EF;}
	.st11{fill:#F7B17F;}
	.st12{fill:#19365E;}
	.st13{fill:#B6463D;}
	.st14{fill:#F0DECE;}
	.st15{fill:#FDECDB;}
	.st16{fill:#1C478A;}
	.st17{fill:#243862;}
	.st18{fill:#EE985E;}
	.st19{fill:#7AA2D6;}
	.st20{fill:#EFEDFF;}
	.st21{fill:#CEAFEE;}
	.st22{fill:#8F94E0;}
	.st23{fill:#184071;}
	.st24{fill:#709AD1;}
	.st25{fill:#5B8AC8;}
	.st26{fill:#5B8AC7;}
	.st27{fill:#D39E7A;}
	.st28{fill:#F5A369;}
	.st29{fill:#7896CD;}
	.st30{fill:#4D73B7;}
	.st31{fill:#2C488C;}
	.st32{fill:#A5C3E8;}
	.st33{fill:#C8DBF3;}
	.st34{fill:#D2E3F6;}
	.st35{fill:#F9FCFE;}
</style>
<path class="st0" d="M532,137H410.5c0,0,10.6-16.4,41.9-13.9c30,2.2,31.3-8,46.4-9.3C514.5,112.7,527,122.4,532,137z"/>
<path class="st0" d="M250.7,45.8H13.4c0,0,21.3-32,81.8-27.2c58.1,4.1,61.4-15.7,90.8-18.4C216.3-1.9,240.9,17.2,250.7,45.8z"/>
<path class="st0" d="M37.4,293.9h121.6c0,0-10.6-16.4-41.9-13.9c-30,2.2-31.3-8-46.4-9.3C54.9,269.6,42.4,279.3,37.4,293.9z"/>
<path class="st1" d="M308.6,300.4c0,0,31.1-4.8,52.5,11.4c21.2,16.2,8.6,43.6,26.1,47.3c25.3,5.1,83.4,12.6,77.1,63
	c-0.5,5.1-177.2,0-177.2,0l7.6-109.1L308.6,300.4z"/>
<path class="st2" d="M120.1,44h296.8v379.3H120.1V44z"/>
<path class="st3" d="M116.2,216.3h304.7v12.1H116.2V216.3z"/>
<path class="st4" d="M161.9,97h81v99.8h-81V97z"/>
<path class="st5" d="M163.7,98.7h77.1v96.2h-77.1V98.7z"/>
<path class="st3" d="M222.5,97.8v27.4c0,0.2,0,0.5,0,0.7c0,2.2,0.3,3.9,0.5,3.9s0.5-1.5,0.5-3.4c0-0.2,0-0.2,0-0.5
	c0-0.2,0-0.5,0-0.7V97.8C223.6,97.8,223,97.8,222.5,97.8z"/>
<path class="st3" d="M223.6,126.1c5.2,0,9.1,4.1,9.1,9.2h-18.6C214.4,130.2,218.6,126.1,223.6,126.1z"/>
<path class="st2" d="M222.8,126.3c0.3,0,0.5,0,0.8,0c3.4,0,6,4.1,6,9H228C228,130.7,225.9,126.8,222.8,126.3z"/>
<path class="st6" d="M225.1,165.6c0,0,4.4-4.8,0.3-8c0,0-3.1-1.7-5.7-1.7c0,0,3.7,5.6,2.4,6.3c-1,0.5-3.7-6.5-3.7-6.5
	s-7.1-0.7-9.4,0.5c0,0,6,4.6,4.7,4.8c-1.3,0.2-7.8-4.4-7.8-4.4s-6.5,1-6.3,4.8c0.3,3.6,2.6,4.8,3.7,4.8c1,0,6.8-2.2,7.1-1.5
	c0,0.7-3.4,3.2-6,3.4c0,0,4.7,4.8,7.8,3.4c3.1-1.5,3.4-3.6,5.2-4.4c1.8-0.7,3.7-0.7,2.9,0s-4.2,1.7-5.5,3.4c-1,1.7-2.1,3.1,1,2.7
	c3.1-0.5,8.4-2.7,8.6-5.1C225.1,165.6,225.1,165.6,225.1,165.6z"/>
<path class="st6" d="M203.2,161.2c0,0,18-0.7,21.9,4.1c0,0,0.8,2.4,3.7,4.6l0.5,1c0,0-3.1-3.2-4.2-3.2
	C224.9,168,226.7,162,203.2,161.2z"/>
<path class="st6" d="M228.8,170.2c0,0,3.9,2.7,4.2,7.3h-0.8c0,0-1.3-4.8-3.4-6.8C226.4,168.8,228.8,170.2,228.8,170.2z"/>
<path class="st1" d="M236.9,166.1c0,0,0,0,1,1.9c0,0,0,0.2,0.3,0.2c0.5,1,1.6,1.5,2.9,1.7v-16.2c-1,0.5-1.6,0.7-1.6,0.7
	s0.5,7.3-0.8,7.3c-1.3-0.2,0-6.5,0-6.5c-2.4,0.7-4.7,3.4-4.7,3.4C230.9,162.9,236.9,166.1,236.9,166.1z"/>
<path class="st6" d="M235.3,171.7v1.2c0,0,0,0,0-0.2c0,0,0-0.2,0.3-0.2c0-0.2,0.3-0.5,0.5-0.7c0.5-1.2,1.6-2.7,2.1-2.9
	c0,0,0,0-0.3-0.2c-0.3-0.7-0.5-2.4,2.9-5.3v-1c-2.1,1.2-3.4,2.7-3.9,4.1C236.9,166.1,236.9,168.8,235.3,171.7z"/>
<path class="st6" d="M235.3,171.7c0,0-2.6,3.6-1,8.2l0.8-0.2c0,0-0.8-4.8,0.8-7.5C236.9,169.7,235.3,171.7,235.3,171.7z"/>
<path class="st1" d="M229.6,158.1c0,0,8.1-4.1,4.2-9.9c0,0-2.9-3.4-6.3-4.4c0,0,1.8,8.5,0,8.7c-1.8,0.2-1.3-9.5-1.3-9.5
	s-8.4-3.9-11.8-3.4c0,0,5.2,8.2,3.7,8c-1.8-0.2-7.6-8.5-7.6-8.5s-8.6-1.5-10.2,3.4c-1.3,4.8,0.8,7,2.1,7.5c1.3,0.2,9.4,0.2,9.4,1.2
	c-0.3,1-5.7,2.7-8.9,1.7c0,0,3.4,7.8,7.8,7.5c4.4-0.5,6-2.9,8.6-3.2c2.9-0.2,4.7,0.5,3.4,1.2c-1.3,0.7-6,0.2-8.4,1.9
	c-2.4,1.7-4.2,2.9,0,3.6s11.8,0.2,13.1-2.7C228.8,158.6,229.6,158.1,229.6,158.1z"/>
<path class="st6" d="M204.5,143.8c0,0,22.5,6.8,25.1,14.3c0,0,0,3.4,2.1,7.3v1.5c0,0-2.4-5.1-3.7-5.8
	C228,161,233.2,154.5,204.5,143.8z"/>
<path class="st6" d="M231.7,165.4c0,0,3.4,4.8,1.6,10.9l-0.8-0.2c0,0,0.8-6.5-1-9.9C229.6,162.7,231.7,165.4,231.7,165.4z"/>
<path class="st7" d="M181,179.7c0,0-11.8-44.8-12.8-48.7c-0.3-1.7-1.6-2.2-2.9-2.4c2.1-0.2,3.7-0.2,3.7-0.2c4.2,0,7.8,2.7,9.1,6.8
	c2.9,9,14.1,23.8,19.3,40.2C197.4,175.5,181,179.7,181,179.7z"/>
<path class="st7" d="M240.8,194.9v-8.5c-2.1-3.9-4.4-7.3-6.3-10.2c-0.3-0.5-0.5-0.7-0.8-1.2c0-0.2-0.3-0.2-0.3-0.5
	c-0.3-0.5-0.8-1-1-1.5c-0.5-0.7-1-1.2-1.3-1.7c-0.5-0.7-1.3-1.2-2.1-1.5h-0.3c-0.3-0.2-0.8-0.2-1-0.5c-1-0.2-2.1-0.5-3.1-0.5
	c-2.6-0.2-5.5,0-8.4,0.2c-0.3,0-0.8,0-1,0.2c-1.6,0.2-3.1,0.5-4.7,1c-0.5,0-1,0.2-1.6,0.2c-0.3,0-0.3,0-0.5,0.2
	c-0.8,0.2-1.6,0.5-2.4,0.5c-2.9,0.7-4.7,1.5-4.7,1.5v0.5v1.5v0.7v1.9v0.2v1.7v0.2l-0.5,15.5h40V194.9z"/>
<path class="st8" d="M184.9,178.9c0.3,0,0.5-0.2,1-0.5c0,0,0.3,0,0.3-0.2c0.3,0,0.5-0.2,0.8-0.5c0.3-0.2,0.8-0.2,1.3-0.5
	c0.5-0.2,1.3-0.5,2.1-0.7c0.3,0,0.5-0.2,0.5-0.2c0.3,0,0.5-0.2,0.5-0.2c0.8-0.2,1.8-0.7,2.6-1s1.8-0.7,2.9-1h0.3
	c2.6-1,5.5-1.7,8.4-2.4c0.8-0.2,1.8-0.5,2.6-0.5h0.3c0.5,0,1-0.2,1.6-0.2c1.6-0.2,2.9-0.5,4.2-0.5c0.3,0,0.5,0,1,0
	c2.6,0,4.7,0.2,6.5,1c1.3,0.5,2.1,1.5,2.9,2.4c0.8,1.2,1.6,2.9,2.6,5.1c1.8,4.1,4.4,9.9,6.3,16.2h-47.8V194l-0.3-2.4l-1.3-12.1
	C184.4,179.2,184.6,179.2,184.9,178.9z"/>
<path class="st9" d="M163.7,128.5v66.4h2.9c2.1-0.2,3.9-0.5,5.7-0.7c3.4-0.5,6.3-1.2,9.1-1.7c0.8-0.2,1.6-0.5,2.4-0.5
	c0.5,0,0.8-0.2,1.3-0.5c0.3,0,0.5-0.2,0.8-0.2c3.1-1,5-1.9,5.2-3.2c0.3-1-0.3-3.6-1.3-6.8c-0.3-0.7-0.3-1.2-0.5-1.9
	c0-0.2-0.3-0.7-0.3-1c0,0,0-0.2,0-0.5v-0.2v-0.2c-0.3-0.7-0.5-1.5-0.8-2.2c-0.3-1-0.8-2.2-1.3-3.4c-0.5-1.5-1-3.2-1.8-4.6
	c-0.3-0.5-0.3-1-0.5-1.5c-0.5-1.7-1.3-3.4-2.1-4.8c-1.8-4.4-3.4-8.5-5.2-12.6c-0.5-1.2-1-2.4-1.6-3.4c-0.3-0.7-0.5-1.5-1-2.2
	c-0.8-2.2-1.6-4.1-2.1-6.1c-0.8-2.7-1.6-5.1-3.1-6.5c-0.8-0.7-1.8-1.5-3.4-1.7h-0.3c-0.3,0-0.5,0-0.8,0H163.7z"/>
<path class="st10" d="M172.3,194.2l4.7-14.8v-0.2c0,0,0.5,0,1.6-0.2c0.5,0,1.3,0,2.1-0.2c1.3,0,2.9-0.2,4.7-0.2c0,0,0,0,0.3,0h0.3
	c0.3,0,0.8,0,1,0c0.3,0,0.3,0,0.5,0c0.3,0,0.8,0,1,0c2.6-0.2,5.7-0.2,8.9-0.5c0.8,0,1.6,0,2.4,0c0.3,0,0.5,0,0.8,0
	c1.8,0,3.9,0,5.7-0.2c2.6,0,5.2,0,7.6,0c0.3,0,0.3,0,0.5,0c1.3,0,2.4,0,3.7,0.2c2.1,0,4.2,0.2,6,0.5c1,0.2,2.1,0.2,3.1,0.5
	c2.1,0.5,3.7,1,4.4,1.9c1.8,1.7,3.1,7.3,3.9,14.3h-63.8L172.3,194.2z"/>
<path class="st11" d="M190.1,150.3c0,0,2.6,1,5,4.8c2.1,4.1,3.1,15,4.2,15c1,0,9.1-1.5,9.1-1.5l-0.3,1.9c0,0-8.4,5.1-10.2,4.4
	c-1.8-1-6.5-13.6-7.1-15.5C190.6,157.9,190.1,150.3,190.1,150.3z"/>
<path class="st0" d="M171.3,148.9c0,0,11-2.2,18.8,1.5c0,0,5,10.2,5,11.9c-0.3,1.7-1.8,8.7-0.3,11.4c1.6,2.7-14.6,7.5-17.5,5.8
	C174.4,177.7,170.8,150.8,171.3,148.9z"/>
<path class="st12" d="M210.8,189.6c0.8,1.7,1.8,3.4,2.9,5.3h14.9c-1.8-8.2-3.1-14.1-3.9-16.7c-0.3-1.2-0.5-1.7-0.5-1.7
	c-0.8-1.2-1.6-1.9-2.6-2.2c-2.1-0.5-4.4,0.7-6.5,2.4c-0.3,0.2-0.5,0.5-0.8,0.7c-0.8,0.7-1.6,1.7-2.1,2.4c-1.6,1.9-2.6,3.6-2.6,4.6
	C209.2,185.7,209.7,187.7,210.8,189.6z"/>
<path class="st12" d="M221.5,174.6c0,0-3.4-1.7-11-0.2c-7.6,1.5-13.8,5.1-13.8,5.1l19.3,0.7L221.5,174.6z"/>
<path class="st11" d="M174.4,148.9c0,0-5-0.7-5.5,2.9c-0.8,3.6,0,25.9,3.7,26.9c3.7,1.2,19.1-5.1,19.1-5.1l-0.5-2.4
	c0,0-14.6,1.9-15.2,1.7C175.5,172.6,174.4,148.9,174.4,148.9z"/>
<path class="st13" d="M212.1,165.6l0.8-5.8l-9.1,10.9c0,0,3.7,1.7,3.9,1.5C207.9,171.9,212.1,165.6,212.1,165.6z"/>
<path class="st13" d="M198.5,165.6l-8.4,11.9h14.1l7.8-11.9H198.5z"/>
<path class="st0" d="M212.1,165.6l0.5-5.8l-4.7,5.6L212.1,165.6z"/>
<path class="st14" d="M190.6,177l-0.5-0.5l8.1-11.4l0.3,0.5L190.6,177z"/>
<path class="st15" d="M198.2,165.1l13.3,0.2l0.5,0.2h-13.6L198.2,165.1z"/>
<path class="st16" d="M193.8,194.9h14.9c0.8-1.9,1.3-3.6,2.1-5.3c1.6-4.1,2.6-7.5,3.4-9.7c0.3-1.2,0.5-1.9,0.8-2.4
	c0-0.2,0.3-0.5,0.3-0.5v-0.2c0-1.5-0.5-2.7-1.6-3.2c0,0,0,0-0.3,0c-1.6-1-3.9-1-6.3-0.5c-2.1,0.5-4.4,1.2-6.3,2.2
	c-1.3,0.7-2.4,1.5-2.9,1.9c0,0,0,0,0,0.2c0,0-0.3,0.2-0.3,0.5c-0.3,0.5-0.5,1-0.8,1.5c-0.8,2.4-1.6,6.1-2.4,10.2
	C194.3,191.3,194,193.2,193.8,194.9z"/>
<path class="st16" d="M213.4,173.6c0,0-5.7-4.8-29.3,5.6l19.3,0.2L213.4,173.6z"/>
<path class="st11" d="M191.2,171.2c0,0,2.1-1.2,2.9-1.5c1,0,1.8-1.2,1.8-0.5c0,0.7-1,1.5-1.3,1.7c-0.3,0.2,1.6,0.2,2.4-0.2
	c0.3-0.2,2.4-0.7,2.4,0c0,0.5-0.8,2.2-2.6,2.7c-0.8,0.2-5,0.2-5,0.2L191.2,171.2z"/>
<path class="st17" d="M181.2,138.7c0,0-4.2,2.2-1,6.3c0,0-3.7,0.5-4.4-0.5c0,0,0.3,0.5,0.3,0.7c0,0-3.4-0.2-4.7-1.5
	c-1.3-1.2,2.1-17.4,11.5-14.3c0,0,8.1,0.5,6,9c-2.1,8.7,1,9,1,9s-0.8,0.2-1.3,0.2c0,0-0.5-0.2-0.5-0.7c0,0,0,0.5,0.3,0.7
	c0,0-3.4-0.2-4.7-1.5C182,144.8,180.4,140.4,181.2,138.7z"/>
<path class="st17" d="M179.9,143.1c0,0-2.4-2.9-2.9-5.6c-0.5-1.9-2.9-9.2,4.4-8.7c0,0,5.2,0.7,7.3,1.9c1.6,1,4.2,2.9,1.8,9l-0.5,1.9
	L179.9,143.1z"/>
<path class="st11" d="M184.6,151.8c-0.5,0.5-2.9,0.7-5,0c-1.8-0.7-2.6-2.7-2.4-3.4s1-1,2.1-5.6l0.3,0.2l6,2.2c0,0-0.5,1.7-0.8,3.4
	C184.6,150.1,184.9,151.5,184.6,151.8z"/>
<path class="st18" d="M185.7,145.2c0,0-0.5,1.7-0.8,3.4c-3.4-0.7-4.7-3.9-5-5.8L185.7,145.2z"/>
<path class="st11" d="M186.5,146.9c0,0-8.4-1.5-7.3-6.1c1-4.8,0.5-8.2,6-7.5c5.2,0.7,6,2.7,6,4.4
	C191.4,139.4,188.8,147.2,186.5,146.9z"/>
<path class="st17" d="M188.8,132.4c0,0-4.2,6.3-8.1,6.8c-3.9,0.5-5-1.2-5-1.2s3.4-1.7,4.4-5.6C180.2,132.4,187.2,129.3,188.8,132.4z
	"/>
<path class="st17" d="M188,132.9c0,0,1.6,1.7,1.8,3.1c0.3,1.5,0,4.1,1,4.1c0,0,2.6-3.9,0.8-6.5C189.9,130.5,188,132.9,188,132.9z"/>
<path class="st17" d="M188.3,133.1c0,0-2.9,6.3-7.8,7.8c0,0,5.5-3.4,6.5-7.5C188,129,188.3,133.1,188.3,133.1z"/>
<path class="st17" d="M171.6,143.6c1.3,1.2,4.7,1.5,4.7,1.5c-0.3-0.2-0.3-0.7-0.3-0.7c1.8,1.2,6,0.2,6,0.2c-3.4-0.7-2.6-5.3-1.3-5.6
	c0.5-3.6,1.8-8,2.4-9.9c-0.3,0-0.3,0-0.3,0C173.7,126.1,170.3,142.3,171.6,143.6z"/>
<path class="st0" d="M176,148.6c0,0-5.5,0-6.8,1.2c-1.3,1-2.1,16.5-2.1,16.5s2.6-0.7,4.7-0.2c2.4,0.5,5.2,0,5.2,0L176,148.6z"/>
<path class="st0" d="M185.1,148.9c0,0,6.8,1.2,8.4,2.9c1.6,1.7,4.7,9.9,4.7,9.9s-1.3,0.2-1.8,1c-0.5,0.7-2.6,0.5-2.6,0.5
	L185.1,148.9z"/>
<path class="st7" d="M197.4,194.9c-1-1.9-1.8-3.6-2.9-5.3c-1.8-3.4-3.7-6.3-5.2-8.5c-0.5-0.7-1-1.5-1.3-1.9
	c-0.3-0.2-0.3-0.5-0.5-0.7c0,0,0,0-0.3-0.2c0,0,0-0.2-0.3-0.2c-0.8-0.7-1.8-1.2-2.9-1.5c-1.3-0.5-2.6-0.7-4.2-0.7
	c-1.6,0-2.9,0-4.4,0c-1.6,0-3.1,0.2-4.7,0.5c-0.5,0-1,0.2-1.6,0.2c-2.1,0.5-3.9,0.7-5.5,1.2v17.2H197.4z"/>
<path class="st8" d="M186.5,194.9c-0.3-0.5-0.3-0.7-0.5-1.2c-0.3-0.7-0.5-1.5-0.8-2.2c-0.8-2.2-1.6-4.1-2.4-5.8
	c-1-2.4-2.1-4.4-2.9-5.6l-0.3-0.2c-0.3-0.2-0.5-0.5-0.5-0.7c-0.3-0.2-0.5-0.5-1-0.7c-0.5-0.5-1-0.7-1.8-1c-1.6-0.5-3.1-0.7-5.2-0.7
	c-0.5,0-1,0-1.6,0c-1,0-1.8,0.2-2.9,0.2c-0.3,0-0.3,0-0.5,0c-0.8,0-1.3,0.2-2.1,0.2v17.7H186.5z"/>
<path class="st19" d="M158,194.9h1.8v-74.4v-4.1V95.1h84.9v21.3v4.1v74.4h1.8c4.4,0,7.8,3.2,7.8,7.3v0.2H150.1v-0.2
	C150.1,198.3,153.5,194.9,158,194.9z M240.8,98.7h-77.1v17.7h77.1V98.7z M240.8,120.5h-77.1v74.4h77.1V120.5z"/>
<path class="st0" d="M165,100.2h74.5v3.4H165V100.2z"/>
<path class="st0" d="M165,105.7h74.5v3.4H165V105.7z"/>
<path class="st0" d="M165,111.3h74.5v3.4H165V111.3z"/>
<path class="st0" d="M165,116.4h74.5v3.4H165V116.4z"/>
<path class="st0" d="M165,122h74.5v3.4H165V122z"/>
<path class="st0" d="M235.1,98.7h0.8v29.8h-0.8V98.7z"/>
<path class="st0" d="M167.9,98.7h0.8v29.8h-0.8V98.7z"/>
<path class="st20" d="M160.1,270.8h81v99.8h-81V270.8z"/>
<path class="st0" d="M199,272.5c0,0-0.3,29.6,32.1,54.5c0,0-6.8,32.5-5.7,41.7h15.4v-96.2H199z"/>
<path class="st11" d="M196.1,322.9c0,0,3.4,0.2,5.2,3.4c2.1,3.2,5.7,16.5,8.6,19.1c2.9,2.7,12.5,8.2,12.5,8.2l-2.6,1.5
	c0,0-14.9-4.1-17.2-6.8c-2.4-2.7-5.2-15.5-5.2-15.5L196.1,322.9z"/>
<path class="st17" d="M192.7,304c0,0-0.3-4.4-7.1-4.6c-6.8-0.2-11.8,5.1-12,8c-0.3,2.9,1,7.5-3.4,10.4c-4.4,2.9-2.4,17,8.4,17
	c10.5,0,17-0.5,17-5.6c0-5.1,0.3-9.7-3.9-11.1C187.5,316.8,192.7,304,192.7,304z"/>
<path class="st16" d="M181.2,360.4c0,0.2,0.3,0.5,0.3,0.5s0,0.2,0,0.5v0.2c0.3,0.7,0.5,1.7,1,2.9c0,0.2,0.3,0.7,0.3,1
	c0,0.2,0,0.2,0.3,0.5c0,0,0,0,0,0.2c0,0,0,0.2,0,0.5c0,0.2,0,0.2,0.3,0.5c0,0.2,0.3,0.7,0.3,1c0.3,0.7,0.5,1.7,0.8,2.7h15.9
	c0-1,0-1.7-0.3-2.7c0-0.2,0-0.5,0-0.5c0-1-0.3-1.7-0.3-2.7c0-0.2,0-0.5,0-0.5c0-0.5,0-0.7-0.3-1.2v-0.2v-0.2c0-0.5,0-0.7-0.3-1v-0.2
	v-0.2v-0.2v-0.2v-0.2c0,0,0,0,0-0.2c0,0,0,0,0-0.2s0-0.5-0.3-0.5c0,0,0-0.2-0.3-0.2c0,0,0,0-0.3,0c0,0-0.3,0-0.3-0.2c0,0,0,0-0.3,0
	c0,0,0,0-0.3,0c0,0,0,0-0.3,0c0,0,0,0-0.3,0c-0.3,0-0.3,0-0.5-0.2c0,0,0,0-0.3,0h-0.3h-0.3h-0.3c0,0,0,0-0.3,0h-0.3h-0.3
	c-0.5,0-1,0-1.8,0c-0.3,0-0.3,0-0.5,0c-0.3,0-0.5,0-0.8,0c-0.3,0-0.8,0-1,0c-0.3,0-0.3,0-0.5,0c-0.5,0-1,0.2-1.6,0.2
	c-0.3,0-0.3,0-0.5,0h-0.5c-0.5,0-1,0.2-1.6,0.2c-0.3,0-0.3,0-0.5,0c0,0,0,0-0.3,0h-0.3h-0.3c-0.3,0-0.5,0-0.5,0.2h-0.3h-0.3
	c-0.3,0-0.5,0.2-0.8,0.2h-0.3h-0.3H182h-0.3h-0.3c0,0,0,0-0.3,0c0,0,0,0-0.3,0C181.5,360.4,181.2,360.4,181.2,360.4z"/>
<path class="st12" d="M181.2,360.4c0,0.2,0.3,0.5,0.3,0.5s0,0.2,0,0.5v0.2c0.3,0.7,0.5,1.7,1,2.9c0,0.2,0.3,0.7,0.3,1
	c0,0.2,0,0.2,0.3,0.5c0,0,0,0,0,0.2c0,0,0,0.2,0,0.5c0,0.2,0,0.2,0.3,0.5c0,0.2,0.3,0.7,0.3,1c0.3,0.7,0.5,1.7,0.8,2.7h15.9
	c0-1,0-1.7-0.3-2.7c0-0.2,0-0.5,0-0.5c0-1-0.3-1.7-0.3-2.7c0-0.2,0-0.5,0-0.5c0-0.5,0-0.7-0.3-1.2v-0.2v-0.2c0-0.5,0-0.7-0.3-1v-0.2
	v-0.2v-0.2v-0.2v-0.2c0,0,0,0,0-0.2c0,0,0,0,0-0.2s0-0.5-0.3-0.5c0,0,0-0.2-0.3-0.2c0,0,0,0-0.3,0c0,0-0.3,0-0.3-0.2c0,0,0,0-0.3,0
	c0,0,0,0-0.3,0c0,0,0,0-0.3,0c0,0,0,0-0.3,0c-0.3,0-0.3,0-0.5-0.2c0,0,0,0-0.3,0h-0.3h-0.3h-0.3c0,0,0,0-0.3,0h-0.3h-0.3
	c-0.5,0-1,0-1.8,0c-0.3,0-0.3,0-0.5,0c-0.3,0-0.5,0-0.8,0c-0.3,0-0.8,0-1,0c-0.3,0-0.3,0-0.5,0c-0.5,0-1,0.2-1.6,0.2
	c-0.3,0-0.3,0-0.5,0h-0.5c-0.5,0-1,0.2-1.6,0.2c-0.3,0-0.3,0-0.5,0c0,0,0,0-0.3,0h-0.3h-0.3c-0.3,0-0.5,0-0.5,0.2h-0.3h-0.3
	c-0.3,0-0.5,0.2-0.8,0.2h-0.3h-0.3H182h-0.3h-0.3c0,0,0,0-0.3,0c0,0,0,0-0.3,0C181.5,360.4,181.2,360.4,181.2,360.4z"/>
<path class="st16" d="M173.4,370.6h15.7c0.5-1.9,0.8-3.9,1-5.6c0.5-2.9,1-4.8,1.3-5.8c0-0.5,0-0.5,0-0.5s-0.3-0.2-0.5-0.5
	c-1.6-1.7-7.8-7.8-10.7-5.1c-0.5,0.5-1,1-1.6,1.5c-1.8,1.7-3.7,4.1-4.7,7.3C173.4,364.3,172.9,367.2,173.4,370.6z"/>
<path class="st11" d="M192.7,324.8l-2.6,3.6l-5.5-0.2l-2.6-6.1c0,0,0.8-0.2,1-7.5l6.8,1.9c0,0-0.3,1.9,0,4.1
	C190.6,322.2,191.4,323.9,192.7,324.8z"/>
<path class="st11" d="M193.5,322.4c-0.3,0-6.8-1.9-15.7,1.5c0,0,4.2,22.8,2.4,27.1c-1.8,4.4-2.6,8.2-2.6,8.2l19.9,0.2
	c0,0-0.3-15,0.5-20.1C199.3,333.8,193.5,322.4,193.5,322.4z"/>
<path class="st9" d="M173.9,361.4c0.3,0.7,1,1.2,2.1,1.7c1.3,0.5,2.6,1,3.9,1.2c0.8,0.2,2.4,0.5,3.9,0.5c0.8,0,1.8,0.2,2.6,0.2
	c0.3,0,0.3,0,0.5,0c6,0.2,12.8,0.2,13.6-2.4c0-0.2,0-0.7,0-1.5c0-1.5-0.5-3.4-0.8-5.3c-0.3-1.9-0.5-3.6-0.8-4.4
	c-0.5-4.6,0.5-11.4,0.5-15.8c0-3.6-3.4-12.6-3.4-12.6s-0.8-0.5-3.4-0.7c0,0-0.3,4.4-2.9,4.8c-4.2,0.7-7.6-2.9-8.6-4.4
	c0,0-4.7,1.2-6.3,2.7c-1,1-0.8,3.6-0.5,5.3c0,0.5,0.3,1,0.3,1.2c0.3,0.7,1.3,6.1,1.8,8.2c0,0,0,0,0,0.2s0,0.2,0,0.5v0.2
	c0.8,2.2,1.3,4.4,1,7.3c0,0.2,0,0.7-0.3,1.2C177.3,352.2,174.4,358.5,173.9,361.4z"/>
<path class="st18" d="M190.1,320.7c-2.9-0.2-6.8-6.1-6.8-6.1l6.8,1.9C190.1,316.8,189.8,318.8,190.1,320.7z"/>
<path class="st9" d="M192.7,322.2c0,0,6.5,0.7,8.6,3.4c2.1,2.9,3.4,7,3.4,7s-1.6,4.4-6,3.6C194.6,335.7,192.7,322.2,192.7,322.2z"/>
<path class="st11" d="M191.2,318.5c0,0-8.1-0.2-7.8-4.8c0.3-4.8-0.8-8,4.7-8c5.2,0,6.3,1.7,6.5,3.4
	C194.8,310.5,193.5,318.3,191.2,318.5z"/>
<path class="st17" d="M190.6,305c0,0-0.3,1.5-3.4,3.6c-3.1,1.9-3.7,6.8-3.7,6.8s-2.4-8.5,0.5-10.4C186.7,303,190.6,305,190.6,305z"
	/>
<path class="st17" d="M188,302.3c0,0,4.2-0.5,7.1,3.9c1.3,1.9,0.3,4.8-1,6.3c0,0-0.5-4.1-2.6-5.3C189.1,305.9,188,302.3,188,302.3z"
	/>
<path class="st0" d="M189.3,315.6c0,0,0,0.5,1.6,0.7c0,0,1.3,0,1.3-0.5C192.2,315.9,191.2,315.1,189.3,315.6z"/>
<path class="st6" d="M216,347.1c0,0,2.1-2.4,0.3-3.9c0,0-1.6-0.7-2.6-0.7c0,0,1.8,2.7,1,2.9c-0.5,0.2-1.6-3.1-1.6-3.1
	s-3.4-0.2-4.4,0.2c0,0,2.9,2.2,2.4,2.4c-0.5,0.2-3.7-1.9-3.7-1.9s-3.1,0.5-2.9,2.2c0.3,1.7,1.3,2.4,1.8,2.2c0.5,0,3.1-1,3.4-0.7
	c0,0.2-1.6,1.5-2.9,1.7c0,0,2.1,2.2,3.7,1.7c1.6-0.7,1.6-1.7,2.6-2.2c1-0.5,1.8-0.5,1.3,0c-0.3,0.5-2.1,0.7-2.6,1.7
	c-0.5,1-1,1.5,0.5,1.2c1.6-0.2,3.9-1.2,4.2-2.4C216,347.1,216,347.1,216,347.1z"/>
<path class="st6" d="M205.5,345.2c0,0,8.6-0.2,10.5,1.9c0,0,0.5,1.2,1.6,2.2l0.3,0.5c0,0-1.6-1.5-2.1-1.5
	C216,348.3,216.8,345.7,205.5,345.2z"/>
<path class="st6" d="M217.8,349.5c0,0,1.8,1.2,1.8,3.4h-0.3c0,0-0.5-2.4-1.6-3.1C216.5,348.8,217.8,349.5,217.8,349.5z"/>
<path class="st1" d="M223.6,344.2c0,0-3.4-1.7-1.8-4.1c0,0,1.3-1.5,2.6-1.9c0,0-0.8,3.6,0,3.6s0.5-4.1,0.5-4.1s3.7-1.7,5-1.5
	c0,0-2.4,3.6-1.6,3.4c0.8,0,3.1-3.6,3.1-3.6s3.7-0.7,4.4,1.5c0.5,1.9-0.3,3.1-1,3.1c-0.5,0.2-4.2,0-3.9,0.5c0,0.5,2.4,1.2,3.9,0.7
	c0,0-1.6,3.4-3.4,3.1c-1.8-0.2-2.6-1.2-3.7-1.5c-1.3,0-2.1,0.2-1.6,0.5c0.5,0.2,2.6,0,3.7,1c1,0.7,1.8,1.2,0,1.5
	c-1.8,0.2-5,0.2-5.7-1.2C223.6,344.2,223.6,344.2,223.6,344.2z"/>
<path class="st6" d="M234.3,338.2c0,0-9.7,2.9-10.7,6.1c0,0,0,1.5-1,3.1v0.7c0,0,1-2.2,1.6-2.4C224.1,345.7,222,342.8,234.3,338.2z"
	/>
<path class="st6" d="M222.5,347.4c0,0-1.6,2.2-0.5,4.6h0.3c0,0-0.3-2.9,0.5-4.1C223.6,346.4,222.5,347.4,222.5,347.4z"/>
<path class="st1" d="M218.1,341.8c0,0,4.4-2.4,2.4-5.6c0,0-1.6-1.9-3.4-2.4c0,0,1,4.8,0,4.8c-1,0-0.8-5.3-0.8-5.3s-4.7-2.2-6.5-1.9
	c0,0,2.9,4.6,2.1,4.6c-1,0-4.2-4.8-4.2-4.8s-5-0.7-5.7,1.9c-0.8,2.7,0.5,4.1,1.3,4.1c0.8,0.2,5.5,0,5.2,0.7c0,0.5-3.1,1.5-5,1
	c0,0,1.8,4.4,4.4,4.1c2.6-0.2,3.4-1.7,5-1.7s2.6,0.2,1.8,0.7c-0.8,0.5-3.4,0.2-4.7,1.2c-1.3,1-2.4,1.7,0,2.2
	c2.4,0.5,6.5,0.2,7.3-1.5C218.1,341.8,218.1,341.8,218.1,341.8z"/>
<path class="st6" d="M204,333.8c0,0,12.8,3.9,14.1,8c0,0,0,1.9,1.3,4.1v0.7c0,0-1.3-2.9-2.1-3.2C217.3,343.5,220.2,339.8,204,333.8z
	"/>
<path class="st6" d="M219.4,345.9c0,0,1.8,2.7,0.8,6.1l-0.5-0.2c0,0,0.5-3.6-0.5-5.6C218.1,344.5,219.4,345.9,219.4,345.9z"/>
<path class="st7" d="M209.4,351c0,4.6,3.9,8.2,8.9,8.2c1,0,2.1-0.2,2.9-0.5c3.4-1.2,6-4.1,6-7.8H209.4z"/>
<path class="st21" d="M218.3,359.2c0.3,0-1.6,0-1,0c5,0,8.9-3.6,8.9-8.2h-2.1C223.8,355.4,222.5,358.8,218.3,359.2z"/>
<path class="st22" d="M209.2,351h18.3v0.2h-18.3V351z"/>
<path class="st11" d="M208.9,354.1c0.3-0.5,2.1-1,2.9-1.2c0,0,0.5,0.2-0.3,1c-0.3,0.2-0.5,0.5-0.8,0.5h0.3c0.8-0.2,5.2,1.2,5.7,2.2
	c0.5,1-2.6,3.1-5,2.4c-1.3-0.5-5-1-5-1l0.5-2.9C207.4,355.1,208.7,354.6,208.9,354.1z"/>
<path class="st11" d="M174.4,327c0,0-1,5.8,5.7,14.5c6.5,8.7,6.3,9.2,9.9,11.6c3.9,2.4,16.5,4.8,16.5,4.8l0.5-2.9
	c0,0-12.3-7.3-13.6-8.7c-1.3-1.5-9.1-17.9-9.1-17.9L174.4,327z"/>
<path class="st9" d="M181,324.8c0,0,5.2,3.9,6.8,5.8c1.3,1.9,2.6,6.1,2.6,6.1s-5.5,3.1-15.2,1c0,0-2.6-10.9,0-12.4
	c2.6-1.5,5-0.2,5-0.2h0.8V324.8z"/>
<path class="st0" d="M196.9,272.5c0,0-6,24.2-33.2,32.7c0,0,0.3,37.3,3.4,47c3.1,9.7,3.9,16.5,3.9,16.5H164v-96.2H196.9z"/>
<path class="st19" d="M158,368.9h1.8v-74.6v-4.1v-21.3h84.9v21.3v4.1v74.4h1.8c4.4,0,7.8,3.1,7.8,7.3v0.2H150.1V376
	C150.1,372.1,153.5,368.9,158,368.9z M240.8,272.5h-77.1v17.7h77.1V272.5z M240.8,294.3h-77.1v74.4h77.1V294.3z"/>
<path class="st23" d="M116.1,399.7h304.7v38.8H116.1V399.7z"/>
<path class="st6" d="M283.2,438.3c0,0,5.7-18.9,29-25.2c23.5-6.3,21.9-3.2,43.1-14.3c21.2-11.1,54.4-4.1,61.4,4.8
	c6.8,9.2,22.7,14.1,44.7,13.6c22-0.2,22.6,21.1,22.6,21.1H283.2z"/>
<path class="st4" d="M291,270.8h81v99.8h-81V270.8z"/>
<path class="st7" d="M292.8,272.5h77.1v96.2h-77.1V272.5z"/>
<path class="st17" d="M338.5,357.3c0,0,4.4,5.6,4.4,11.4h-30.3c0,0,1.6-9.2,8.4-11.4C328.1,354.9,338.5,357.3,338.5,357.3z"/>
<path class="st11" d="M301.7,327c0,0,4.7,11.1,5.2,11.6c1.3,1,10.2-11.4,11.5-13.6c1.3-2.2,9.7-0.2,10.5-4.4
	c0.3-1.2,0.8-2.7,0.8-3.4v-0.2c0-0.7,0-1.7-0.3-2.4h0.5l7.1,0.5c0,0-0.8,1.5-0.5,3.4c0,0.7,0,1.7,0.3,2.9c0,1.2,1,2.4,2.4,2.7
	c2.9,0.7,6.8,1.9,7.3,3.6c1.3,2.9,4.2,16.5,4.7,21.1c0.5,4.6,5.5,18.2,5.5,18.2H354c0,0-9.4-14.8-10.2-17c-0.3-0.7-1-3.6-2.4-7
	c-1,3.9-2.6,7.8-2.9,9.2c-0.5,2.7,5,11.6,4.4,14.1c-0.5,2.4-29.3,3.9-29,0c0.5-3.9,4.4-10.2,5.2-13.3c0.5-2.2-0.8-9.7-1.3-14.3
	c-4.4,4.6-10.5,9-12.3,8.2c-4.7-2.2-6.3-19.1-6.3-19.1L301.7,327z"/>
<path class="st17" d="M334.4,311c0,0,3.7,2.7,0.5,6.8c0,0,3.7-0.2,4.7-1l-0.3,0.5c0,0,3.4-0.2,4.7-1.5c1.3-1.2-1.6-17.2-11-14.3
	c0,0-8.1,0.2-6.3,8.7c1.8,8.5-1,8.7-1,8.7s0.8,0.2,1.3,0.2c0,0,0.5-0.2,0.5-0.5c0,0,0,0.5-0.3,0.7c0,0,3.4,0,4.7-1.5
	C333.6,316.8,335.1,312.7,334.4,311z"/>
<path class="st17" d="M337.7,314.4c0,0,1.6-3.2,1.8-5.8c0-1.9-1.8-8.2-8.9-6.5c0,0-2.1,0.5-3.9,1.9c-1.3,1.2-3.4,3.4-0.3,9l0.8,1.9
	L337.7,314.4z"/>
<path class="st18" d="M328.9,320.7c5-0.7,7.8-5.6,7.8-5.6c-2.1-0.2-5,0.7-7.3,1.9v0.2C329.4,318.3,329.1,319.5,328.9,320.7z"/>
<path class="st11" d="M328.6,319c0,0,9.1-1,8.4-6.1c-0.8-5.3,0-9-5.7-8.5c-5.7,0.2-6.8,2.4-6.8,4.1C324.2,310.3,326.3,319,328.6,319
	z"/>
<path class="st17" d="M327.3,304.7c0,0,3.1,5.8,7.1,6.3c3.9,0.5,5.5-0.7,5.5-0.7s-3.1-1.9-4.2-5.6
	C335.7,304.7,328.6,301.6,327.3,304.7z"/>
<path class="st17" d="M327.8,305c0,0-1.6,1.5-1.8,2.9c-0.3,1.5,0,4.1-1,4.1c0,0-2.4-3.9-0.5-6.5C326.3,302.8,327.8,305,327.8,305z"
	/>
<path class="st17" d="M327.6,305.2c0,0,2.6,6.3,7.6,7.8c0,0-5.2-3.4-6.3-7.5C328.1,301.3,327.6,305.2,327.6,305.2z"/>
<path class="st0" d="M330.7,315.9c0,0-0.3,0.7-0.8,1c-0.5,0-2.1,0.2-2.1,0.2l-0.5-0.7C327.3,316.3,329.4,315.6,330.7,315.9z"/>
<path class="st11" d="M301.7,327.7c0,0,0.3-3.9-0.3-5.3c-0.5-1.5-1.6-3.6-1.6-3.4c-0.3,0-0.8,3.1-0.5,3.6c0.3,0.7-0.3,2.2-0.5,1.9
	c-0.3-0.2-0.8-2.4-1-2.4c-0.3,0.2,0,1.5-0.3,1.7c-0.3,0.2-0.3,1.2,0.5,2.2c0.8,1.2,1.3,2.4,1.3,2.4L301.7,327.7z"/>
<path class="st11" d="M355.8,366.8c0,0,3.7-0.7,5-0.5c1.3,0.5,3.4,2.4,2.9,2.4c-0.5,0-3.1-0.5-3.4-0.5c-0.3,0-1.3,0.2-1.3,0.2
	s1.6,0,1.3,0.2c0,0.2-3.9,0.2-4.2,0c-0.5-0.2-2.1-1.9-2.1-1.9H355.8z"/>
<path class="st0" d="M342.7,325.3c0,0-4.4,3.6-10.5,3.4c-5.7-0.2-10.5-4.6-10.5-4.6s-2.6,0-3.9,1.5c-1.3,1.5-6.8,7.5-6.8,7.5
	s-0.5,4.6,5.5,7.8l0.5-1c0,0,1,11.6,0.3,12.6c-0.5,1-5.5,12.4-4.7,14.1c0.8,1.7,28,6.1,29.8-0.2c2.1-6.3-3.1-11.6-2.9-14.1
	c0.3-2.2,1.3-9.5,1.3-9.5s7.8-1.2,8.1-5.3C349.2,337.4,347.9,325.3,342.7,325.3z"/>
<path class="st19" d="M287.1,368.9h1.8v-74.6v-4.1v-21.3h84.9v21.3v4.1v74.4h1.8c4.4,0,7.8,3.1,7.8,7.3v0.2H279.2V376
	C279.2,372.1,282.9,368.9,287.1,368.9z M369.9,272.5h-77.1v17.7h77.1V272.5z M369.9,294.3h-77.1v74.4h77.1V294.3z"/>
<path class="st0" d="M294.1,274.2h74.5v3.4h-74.5V274.2z"/>
<path class="st0" d="M294.1,279.5h74.5v3.4h-74.5V279.5z"/>
<path class="st0" d="M294.1,285.1h74.5v3.4h-74.5V285.1z"/>
<path class="st0" d="M294.1,290.2h74.5v3.4h-74.5V290.2z"/>
<path class="st0" d="M294.1,296h74.5v3.4h-74.5V296z"/>
<path class="st0" d="M364.1,272.5h0.8v29.8h-0.8V272.5z"/>
<path class="st0" d="M297,272.5h0.8v29.8H297V272.5z"/>
<path class="st15" d="M313.7,366h11v-3.6h-11c-1,0-1.6,0.7-1.6,1.5v0.5C311.9,365.3,312.7,366,313.7,366z"/>
<path class="st24" d="M302.5,363.8v0.5c0,0.2,0,0.5,0.3,0.7c0.3,0.5,0.8,0.7,1.6,0.7h20.6c0.3,0,0.3,0,0.3-0.2c0-0.2,0-0.2-0.3-0.2
	h-12.5c0,0,0-0.2-0.3-0.2c0-0.2-0.3-0.5-0.3-0.7v-0.7c0-0.2,0-0.2,0-0.5c0-0.2,0.3-0.5,0.3-0.5h12.5c0.3,0,0.3,0,0.3-0.2
	c0-0.2,0-0.2-0.3-0.2H304c-0.8,0-1.3,0.5-1.6,1C302.5,363.6,302.5,363.8,302.5,363.8z"/>
<path class="st25" d="M302.7,363.6h9.4c0-0.2,0.3-0.5,0.3-0.5h12.5c0.3,0,0.3,0,0.3-0.2c0-0.2,0-0.2-0.3-0.2h-20.6
	C303.5,362.4,302.7,362.9,302.7,363.6z"/>
<path class="st6" d="M322.1,368.9h-11.8V366h11.8c0.8,0,1.6,0.7,1.6,1.5C323.6,368.2,323.1,368.9,322.1,368.9z"/>
<path class="st15" d="M311.4,368.9h-13.6V366h13.6c0.8,0,1.3,0.5,1.3,1.2v0.5C312.7,368.2,312.1,368.9,311.4,368.9z"/>
<path class="st6" d="M313.5,368.9h-16.2c0,0-0.3,0-0.3-0.2c0,0,0-0.2,0.3-0.2h16.2C313.7,368.4,313.7,368.4,313.5,368.9
	C313.7,368.9,313.7,368.7,313.5,368.9z"/>
<path class="st6" d="M313.5,366.5h-16.2c0,0-0.3,0-0.3-0.2c0,0,0-0.2,0.3-0.2h16.2C313.7,366,313.7,366,313.5,366.5
	C313.7,366.5,313.7,366.3,313.5,366.5z"/>
<path class="st24" d="M302,366.8c0,0-0.3,0-0.3,0.2c0,0.2,0,1,0,1l-0.5-0.2l-0.5,0.2v-0.7c0-0.2,0-0.2,0.3-0.5c0,0,0,0,0.3,0H302z"
	/>
<path class="st26" d="M302,366.8c0,0-0.3,0-0.3,0.2h-1c0,0,0-0.2,0.3-0.2H302z"/>
<path class="st20" d="M292.5,97h81v99.8h-81V97z"/>
<path class="st0" d="M334.6,98.7c0,0,0.3,29.6-32.1,54.5c0,0,6.8,32.5,5.7,41.7h-15.4V98.7H334.6z"/>
<path class="st27" d="M363.6,154.7c0,0,6.8,1,8.6,2.2c2.9,2.4,0.8,38.8,0.8,38.8s-10.2,0.7-10.2,0
	C362.8,194.9,363.6,154.7,363.6,154.7z"/>
<path class="st8" d="M337,195.9l14.6,1l10.2,0.7l2.1,0.2l0.3-0.7v-0.7v-0.2l0.5-3.4l0.3-1.2l0.5-4.1l3.1-20.4l0.8-5.8
	c0,0,0.8-5.3-4.7-6.3c-0.5,0-0.8-0.2-1.3-0.2c-1.8-0.2-3.9-0.7-6-1c-1.6-0.2-3.4-0.2-5-0.2c-0.5,0-1.3,0-1.8,0.2
	c-0.8,0-1.3,0.2-1.8,0.5c0,0,0,0-0.3,0s-0.5,0.2-0.5,0.2s-0.3,0-0.3,0.2c-0.3,0.2-0.5,0.5-0.5,1c-0.3,0.5-0.5,1.2-0.8,2.2
	c-0.5,1.2-1,2.9-1.6,4.6c-1.3,5.1-3.1,11.6-4.4,17.4c0,0.2,0,0.2,0,0.5c-0.3,0.7-0.3,1.5-0.5,2.2c0,0.2,0,0.2,0,0.5
	c0,0.5-0.3,0.7-0.3,1.2c-0.3,0.7-0.3,1.5-0.5,2.2C338,191.3,337.2,194.7,337,195.9z"/>
<path class="st28" d="M346.4,157.9c0,0-2.4,3.2-3.7,9.7c-1,5.8-2.1,8-3.9,9.2c-1.6,1.2-11,4.6-11,4.6l0.8,1.5c0,0,13.6-1.7,15.2-3.9
	c1.6-2.2,7.3-14.5,6.8-17.4C350,159.1,346.4,157.9,346.4,157.9z"/>
<path class="st6" d="M315.3,196.9h11.2c0.3-1,0.8-1.7,1.6-1.7s4.4,0.2,9.1,0.5c7.3,0.2,16.7,0,18.8-3.6c0.5-0.7,0.8-1.7,1-2.4v-0.2
	c0.5-1.5,0.5-2.9,0.5-4.1c0-0.7-0.3-1.5-0.3-1.9c-0.3-1.5-0.8-2.4-0.8-2.4l-3.7,2.4l-0.5,0.2c0,0-3.1-0.2-7.3-0.5c-1,0-2.1,0-3.1,0
	c-0.5,0-1,0-1.6,0c-0.3,0-0.3,0-0.5,0c-1.3,0-2.6,0-3.9,0c-0.3,0-0.3,0-0.5,0c-0.3,0-0.5,0-1,0c-5.2,0-9.9,0.2-12.5,1.2
	c-0.3,0-0.5,0.2-0.8,0.5C319.5,185.7,317.4,190.8,315.3,196.9z"/>
<path class="st1" d="M325.5,196.9h26.1l10.2,0.7c0.5-0.2,1-0.5,1.3-0.7c0.3-0.2,0.8-0.5,1-0.7c0,0,0,0,0.3-0.2
	c0.3-0.2,0.3-0.5,0.5-0.5c0.5-1,0.8-1.7,0.5-2.7c0-0.5-0.3-1-0.3-1.5c-0.5-1-1-1.9-2.1-2.9c-2.1-2.2-5.2-3.4-5.2-3.4
	c-0.3,0-3.4,0.2-7.3,0.5c-0.3,0-0.8,0-1.3,0c-3.1,0.2-6.8,0.7-9.9,1.2c-4.2,0.7-8.1,1.5-9.7,2.4C328.3,190.1,326.8,193,325.5,196.9z
	"/>
<path class="st6" d="M346.9,146.5c0-0.5,0-1,0-1.2c0-1.2,0.3-2.4,0.5-3.4c0.3-0.7,0.3-1.2,0.5-1.7v-0.2c0.5-1.2,1-1.9,1.6-2.4
	c1-0.7,2.4-0.7,3.1-0.7c-0.3-0.2-0.8-0.2-0.8-0.2c0.5,0,1.8,0.2,1.8,0.2c7.6-3.2,9.7,7.3,9.7,9.7c0,2.4,0.3,5.3,4.2,7.3
	c1.6,0.7,2.6,1.7,3.1,2.7c2.6,4.1-1,9.2-1,9.2s-0.5,0.5-1,1.2c-1.6,1.9-4.2,5.3-4.2,5.3c0-0.5-0.5-1.5-1-2.4
	c-0.5-0.7-1.3-1.7-2.1-2.9c-0.3-0.5-0.8-1-1.3-1.5c-0.5-0.7-1-1.5-1.8-1.9c-0.3-0.2-0.5-0.5-0.8-0.7c-1-1.2-2.4-2.2-3.4-3.2
	c-0.3-0.2-0.5-0.5-0.8-0.7c-0.3-0.2-0.5-0.5-1-0.7c-0.5-0.5-1.3-0.7-1.8-1.2c0,0-0.3,0-0.3-0.2c-0.3-0.2-0.5-0.5-0.5-1
	c0-0.2-0.3-0.2-0.3-0.5c-0.3-0.5-0.3-0.7-0.5-1.2c-0.5-1.2-0.8-2.2-0.8-2.4c0.3,1,0.3,1.9,0.5,2.4c0.3,0.5,0.3,0.7,0.5,1.2
	c0,0.2,0.3,0.5,0.3,0.5v0.2c0,0,0,0-0.3-0.2c-0.3-0.2-0.5-0.5-0.5-0.7c-0.3-0.2-0.5-0.5-0.5-1C347.2,152.5,346.6,149.4,346.9,146.5z
	"/>
<path class="st11" d="M350.6,155.2c0.3,0,0.3,0,0.5-0.2c0-0.2,0-0.7,0-1c0-1.7-0.3-3.1-0.3-3.1l5.7-1.5h0.3c0.3,2.4,0.8,3.9,1,5.1
	c0.5,0,1,0,1,0c0,0.2,0,0.7-0.3,1.5v0.2c0.3,1.5-3.7,3.6-5.5,3.6c-1,0-1.6-0.2-2.1-1C348.7,158.1,349,155.9,350.6,155.2z"/>
<path class="st28" d="M350.8,150.5c0,0,0.3,1.7,0.3,3.2c3.1-0.2,4.7-3.2,5.2-4.6L350.8,150.5z"/>
<path class="st6" d="M356.8,148.6c0,0,1.6-2.7,1.8-4.8c0.3-1.5-1-7-7.1-5.8c0,0-1.8,0.2-3.4,1.5c-1.3,1-3.1,2.9-0.5,7.5l0.8,1.7
	H356.8z"/>
<path class="st11" d="M349.8,152.3c0,0,7.6-0.2,7.3-4.8c-0.3-4.4,0.5-7.5-4.4-7.3c-5,0-5.7,1.7-6,3.4
	C346.4,145,347.7,152.3,349.8,152.3z"/>
<path class="st6" d="M349,140.2c0,0,2.4,5.1,5.7,5.6c3.1,0.5,4.7-0.2,4.7-0.2s-2.6-1.7-3.4-4.8C356,140.9,350.6,137.7,349,140.2z"/>
<path class="st6" d="M349.5,140.6c0,0-1.6,1.2-1.8,2.4c-0.3,1.2-0.3,3.4-1,3.4c0,0-1.8-3.4-0.3-5.6
	C348.2,138.7,349.5,140.6,349.5,140.6z"/>
<path class="st29" d="M341.9,184c0.5,0.7,2.6,1,4.7,1.2c1.6,0.2,3.4,0.5,4.4,1.2c2.9,1.5,11.8,6.5,14.4,6.3c1,0,0.8-1.9,0.3-4.4
	c-1-3.9-3.1-9-3.1-11.4c0-1.2-0.5-4.1-1-7.5c0-0.2,0-0.5-0.3-0.7c-1.3-6.5-2.9-14.3-2.9-14.3s-1.8,3.6-5.5,3.6
	c-3.7,0-2.6-2.9-2.6-2.9s-3.1,0.2-3.9,1.2c-0.8,0.7-2.6,4.1-3.1,5.1c0,0,0,1.2,2.9,1.7c0,0-0.8,3.2-0.8,5.3c0,1.5,1,6.3,1.6,9.5
	c0,1,0.3,1.9,0,2.2c-0.3,0.5-1,1-1.8,1.5C343.5,182.3,341.1,183.1,341.9,184z"/>
<path class="st30" d="M345.1,181.4c-2.1,3.2,5.2,4.1,6.5,4.6c2.9,1.5,11.2,7,13.9,6.8c1,0,0.8-1.9,0.3-4.4c-1-3.9-3.1-9-3.1-11.4
	c0-1.2-0.5-4.1-1-7.5l-3.1-2.9c0,0-3.4,8.2-6.5,9.5c-1.8,0.7-3.4,1.2-4.7,1.5c0,1,0.3,1.9,0,2.2
	C346.9,180.4,346.1,180.9,345.1,181.4z"/>
<path class="st17" d="M334.6,183.5h9.9v1.2h-9.9V183.5z"/>
<path class="st17" d="M336.7,184.5c0-0.2-9.1-13.6-9.1-13.6h-20.1l10.2,13.3L336.7,184.5z"/>
<path class="st31" d="M335.7,184.8c0-0.2-9.1-13.8-9.1-13.8h-19.3l9.7,13.8H335.7z"/>
<path class="st3" d="M319.7,178.2c0.3,0.5,0.8,1,1.3,1c0.5,0,0.8-0.5,0.8-1c-0.3-0.5-0.8-1-1.3-1C320,177.2,319.5,177.7,319.7,178.2
	z"/>
<path class="st11" d="M339.1,180.1c0.5-0.2,3.7,0.5,4.4,0.5c2.9-0.5,12.5-2.4,13.1-2.9c0.5-0.7,1.8-20.8,3.1-21.1
	c0,0,2.6-1.5,5.2,1.5c2.6,2.9-1.8,23.8-5.7,24.7c-4.4,1.2-16.7-0.2-16.7-0.2c-1,0.2-2.9,0.5-3.7,0.7c-1.3,0.5-2.4,0-2.6-0.5
	C335.7,182.6,338.5,180.4,339.1,180.1z"/>
<path class="st29" d="M358.7,154.2c0,0,5.5,0.5,7.3,2.2c1.6,1.7,2.1,6.3,2.1,6.3s-5,3.6-10.7,2.2L358.7,154.2z"/>
<path class="st0" d="M336.7,98.7c0,0,6,24.2,33.2,32.7c0,0-0.3,37.3-3.4,47c-3.1,9.7-3.9,16.5-3.9,16.5h7.1V98.7H336.7z"/>
<path class="st19" d="M383.5,202.2v0.2H279.2v-0.2c0-4.1,3.4-7.3,7.8-7.3h1.8v-74.4v-4.1V95.1h84.9v21.3v4.1v74.4h1.8
	C379.8,194.9,383.5,198.3,383.5,202.2z M292.8,116.4h77.1V98.7h-77.1V116.4z M292.8,194.9h77.1v-74.4h-77.1V194.9z"/>
<path class="st6" d="M305.9,187.7c0,0-2.6,1-4.7-1.5C301.2,186.2,304.3,185.7,305.9,187.7z"/>
<path class="st6" d="M306.1,186.7c0,0,0.3-1,1.3-1C307.4,185.7,306.9,186.7,306.1,186.7z"/>
<path class="st6" d="M305.6,181.4c0,0-1.3,0.2-1.8-1.2C303.8,180.1,305.1,180.4,305.6,181.4z"/>
<path class="st6" d="M302.5,163.4c2.6-0.5,2.6-2.7,2.6-2.7C302,162,302.5,163.4,302.5,163.4z"/>
<path class="st6" d="M302.2,163.2c0,0-1.6,0.7-2.9-1C299.3,162.2,301.2,161.7,302.2,163.2z"/>
<path class="st6" d="M305.9,193.7l0.3,0.5h0.3c0-10.4-1.6-19.9-2.6-25.2c-1.3-6.1-2.6-9.5-2.6-9.5s1.3,3.6,2.6,9.7
	C304.8,174.3,306.1,181.6,305.9,193.7z"/>
<path class="st7" d="M301.2,157.9c0.5,0.2,2.1,1.7,0.5,2.7c0,0-1.3,0.2-1.6-0.5c-0.3-0.7-0.3-1.5-0.5-1.7c0,0,0-0.2,0.3-0.2h0.3
	c0.3,0,0.3-0.2,0.5-0.2C300.6,157.6,300.6,157.6,301.2,157.9C300.9,157.9,300.9,157.6,301.2,157.9z"/>
<path class="st6" d="M302,160c0,0-0.5,0.2-0.3,1v0.2c0,0,0-0.5-0.8-0.7C300.9,160.5,301.4,160.8,302,160z"/>
<path class="st1" d="M302.5,163.4c2.6-0.5,2.6-2.7,2.6-2.7S303,162,302.5,163.4z"/>
<path class="st6" d="M304.8,162.2c0,0,1.6,0.5,2.9-1C307.7,161.2,305.9,160.8,304.8,162.2z"/>
<path class="st6" d="M302,192.7l-0.3,0.5h-0.3c-0.3-10.4,1-19.9,2.1-25.2c1.3-6.1,2.4-9.5,2.4-9.7c0,0-1,3.6-2.4,9.7
	C302.5,173.4,301.4,180.6,302,192.7z"/>
<path class="st7" d="M305.9,156.9c-0.5,0.2-2.1,1.7-0.5,2.7c0,0,1.3,0.2,1.6-0.5c0.3-0.7,0.3-1.5,0.3-1.7c0,0,0-0.2-0.3-0.2h-0.3
	c-0.3,0-0.3-0.2-0.5-0.2C306.4,156.9,306.4,156.6,305.9,156.9C306.1,156.9,306.1,156.9,305.9,156.9z"/>
<path class="st6" d="M305.1,159.3c0,0,0.5,0.2,0.3,1v0.2c0,0,0-0.5,0.8-0.7C306.1,159.5,305.6,159.8,305.1,159.3z"/>
<path class="st6" d="M304.3,160.3c0,0-1.8,0.2-2.6-1.5C301.7,158.8,303.5,158.8,304.3,160.3z"/>
<path class="st6" d="M300.6,191.1l0.3,0.5h0.3c2.4-10.2,3.1-19.6,3.4-25.2c0-6.1-0.3-9.9-0.3-9.9s0.3,3.9,0.3,9.9
	C304,171.9,303.8,179.2,300.6,191.1C300.6,190.8,300.6,190.8,300.6,191.1z"/>
<path class="st7" d="M304.3,154.9c0.3,0.5,1.6,1.9-0.3,2.7c0,0-1.3,0-1.6-0.7c-0.3-0.7,0-1.5,0-1.7c0,0,0-0.2,0.3-0.2h0.3
	c0.3,0,0.3-0.2,0.5-0.2C303.8,154.7,304,154.7,304.3,154.9z"/>
<path class="st6" d="M304.6,157.4c0,0-0.5,0.2-0.5,1v0.2c0,0,0-0.5-0.5-0.7C303.5,157.6,304,157.9,304.6,157.4z"/>
<path class="st6" d="M302.7,158.6c0,0,0-1.2-1.3-1.7C301.4,156.6,301.2,157.9,302.7,158.6z"/>
<path class="st7" d="M305.6,156.4c0,0,0-1,1-1.2C306.7,155.2,306.9,155.9,305.6,156.4z"/>
<path class="st7" d="M302.2,162.5c0,0-0.5-1,0.5-1.7C302.7,160.5,303.3,161.7,302.2,162.5z"/>
<path class="st6" d="M301.7,162.2c0,0,0-0.5-0.5-0.5C301.2,161.7,301.2,162.2,301.7,162.2z"/>
<path class="st6" d="M306.7,160.5c0,0,0.5-0.7,1.8-0.7C308.5,160,308.2,160.8,306.7,160.5z"/>
<path class="st9" d="M299.1,194.9h8.9c0.5,0,1-0.5,1-1l-4.2-26.2c0-0.2-0.3-0.5-0.5-0.5H303c-0.3,0-0.5,0.2-0.5,0.5l-4.2,26.2
	C298,194.4,298.6,194.9,299.1,194.9z"/>
<path class="st7" d="M305.9,194.2l-2.1-26.9c0.3,0,0.5,0.2,0.5,0.5l4.2,26.2c0,0.5-0.3,1-1,1h-1.8
	C305.9,194.7,306.1,194.4,305.9,194.2z"/>
<path class="st32" d="M435.1,255.8h1.8v-0.2l-0.5-4.6c0-0.2-0.3-0.2-0.3-0.2h-0.3l-0.3,0.2L435.1,255.8z"/>
<path class="st3" d="M436.9,254.6l-0.5-3.6c0-0.2-0.3-0.2-0.3-0.2s0,0.2-0.3,0.2v2.7C435.9,254.4,436.4,254.6,436.9,254.6z"/>
<path class="st32" d="M434.1,276.2h3.7v146.4h-3.7V276.2z"/>
<path class="st3" d="M436.2,276.2h1.6v146.4h-1.6V276.2z"/>
<path class="st32" d="M430.1,399.3h11.5v38.8h-11.5V399.3z"/>
<path class="st3" d="M434.9,399.3h6.8v38.8h-6.8V399.3z"/>
<path class="st32" d="M429.6,258c0,1.7,2.9,3.4,6.5,3.4c0.3,0,0.5,0,0.8,0c3.1-0.2,5.7-1.7,5.7-3.1c0-1.7-2.6-3.2-5.7-3.2
	c-0.3,0-0.5,0-0.8,0C432.5,254.6,429.6,256.1,429.6,258z"/>
<path class="st3" d="M433,258c0,1.5,1.6,2.7,3.9,3.1c3.1-0.2,5.7-1.7,5.7-3.1c0-1.7-2.6-3.1-5.7-3.1C434.6,255.4,433,256.6,433,258z
	"/>
<path class="st3" d="M430.1,279.1h11.5l3.9-17.9h-18.8L430.1,279.1z"/>
<path class="st32" d="M425.7,259.7h20.9v1.7h-20.9V259.7z"/>
<path class="st3" d="M433.5,259.7h13.1v1.7h-13.1V259.7z"/>
<path class="st32" d="M439.6,399.3h-7.3l1-2.9c0-0.2,0.3-0.5,0.8-0.5h3.4c0.3,0,0.8,0.2,0.8,0.5L439.6,399.3z"/>
<path class="st33" d="M444.3,261.9h-16.2l3.1,16.2h9.4L444.3,261.9z"/>
<path class="st33" d="M442.2,258.3c0,0-1.3-2.4-3.7-2.4c0,0,1.6,1.2,1.3,2.4C439.8,259.2,442.2,258.3,442.2,258.3z"/>
<path class="st32" d="M427,259.7h18.3l-1.6-1.9h-15.2L427,259.7z"/>
<path class="st3" d="M431.5,259.7h13.8l-1.6-1.9H433L431.5,259.7z"/>
<path class="st34" d="M443.2,262.6h-3.7l-1,15h1L443.2,262.6z"/>
<path class="st35" d="M453,165.1c0-2.9-2.6-5.3-5.7-5.3c-3.1,0-5.7,2.4-5.7,5.3c0,2.9,2.6,5.3,5.7,5.3
	C450.4,170.5,453,168,453,165.1z"/>
<path class="st19" d="M103,28l331.4,11.1l-0.8,21.1L102.1,49.1L103,28z"/>
<path class="st3" d="M282.4,71.6h97.7V91h-97.7V71.6z"/>
<path class="st3" d="M153.5,71.6h97.7V91h-97.7V71.6z"/>
<path class="st3" d="M282.4,241.9h97.7v19.4h-97.7V241.9z"/>
<path class="st3" d="M153.5,241.9h97.7v19.4h-97.7V241.9z"/>
</svg>
