<svg width="23" height="23" viewBox="0 0 23 23" fill="none" xmlns="http://www.w3.org/2000/svg">
<path d="M22.0145 11.6985H13.9333L17.6595 3.18557L19.0298 5.82768C18.3446 6.31574 17.9035 7.09946 17.9035 7.98173C17.9035 9.39899 19.0767 10.5769 20.4987 10.5769C21.4795 10.5769 22.3571 10.0372 22.7513 9.15965C22.9953 8.67159 22.8498 8.08498 22.3618 7.84094C21.8737 7.59691 21.2871 7.79401 21.0431 8.23046C20.9445 8.42756 20.7005 8.57304 20.4564 8.57304C20.0669 8.57304 19.7713 8.27738 19.7713 7.9348C19.7713 7.59222 20.0669 7.29187 20.4564 7.29656C20.9586 7.30595 21.7986 6.64425 21.2871 5.82768L18.3962 0.49183C18.232 0.102318 17.2559 -0.423289 16.6833 0.590382L11.8309 11.6985H11.7417V7.05253C11.7417 6.51285 11.3006 6.07171 10.7609 6.07171H6.30728C6.01163 6.07171 5.72067 6.26882 5.52357 6.51285L0.145481 14.3876C0.0469292 14.533 0 14.7302 0 14.9273V19.3292C0 19.8689 0.441134 20.31 0.98082 20.31H2.2526C2.69843 21.8634 4.12977 22.9991 5.82861 22.9991C7.54622 22.9991 8.98694 21.8399 9.414 20.2584H13.3467C13.7737 21.8399 15.2191 22.9991 16.9321 22.9991C18.645 22.9991 20.0904 21.8399 20.5174 20.2584H22.0192C22.5589 20.2584 23 19.8173 23 19.3292V12.6747C22.9953 12.1397 22.5542 11.6985 22.0145 11.6985ZM5.82391 21.0421C4.79616 21.0421 4.01245 20.2584 4.01245 19.2823C4.01245 18.3062 4.84309 17.5224 5.82391 17.5224C6.80473 17.5224 7.63538 18.3062 7.63538 19.2823C7.63538 20.2584 6.80004 21.0421 5.82391 21.0421ZM16.9274 21.0421C15.8996 21.0421 15.1159 20.2584 15.1159 19.2823C15.1159 18.3062 15.9465 17.5224 16.9274 17.5224C17.9551 17.5224 18.7388 18.3062 18.7388 19.2823C18.7388 20.2584 17.9082 21.0421 16.9274 21.0421ZM21.0853 18.3015H20.5128C20.0857 16.7199 18.6403 15.5608 16.9274 15.5608C15.2144 15.5608 13.769 16.7199 13.342 18.3015H9.4093C8.98225 16.7199 7.53683 15.5608 5.82391 15.5608C4.09223 15.5608 2.63273 16.7434 2.22444 18.3484H1.91002V15.2182L6.85166 7.93011H9.83636V12.5761C9.83636 13.1158 10.2775 13.5569 10.8172 13.5569H21.09V18.3015H21.0853Z" fill="white"/>
</svg>
