<svg width="139" height="38" viewBox="0 0 139 38" fill="none" xmlns="http://www.w3.org/2000/svg">
<path d="M32.0145 19.6985H23.9333L27.6595 11.1856L29.0298 13.8277C28.3446 14.3158 27.9035 15.0995 27.9035 15.9817C27.9035 17.399 29.0767 18.5769 30.4987 18.5769C31.4795 18.5769 32.3571 18.0372 32.7513 17.1597C32.9953 16.6716 32.8498 16.085 32.3618 15.841C31.8737 15.5969 31.2871 15.794 31.0431 16.2305C30.9445 16.4276 30.7005 16.573 30.4564 16.573C30.0669 16.573 29.7713 16.2774 29.7713 15.9348C29.7713 15.5922 30.0669 15.2919 30.4564 15.2966C30.9586 15.306 31.7986 14.6443 31.2871 13.8277L28.3962 8.49184C28.232 8.10233 27.2559 7.57672 26.6833 8.59039L21.8309 19.6985H21.7417V15.0525C21.7417 14.5129 21.3006 14.0717 20.7609 14.0717H16.3073C16.0116 14.0717 15.7207 14.2688 15.5236 14.5129L10.1455 22.3876C10.0469 22.5331 10 22.7302 10 22.9273V27.3292C10 27.8689 10.4411 28.31 10.9808 28.31H12.2526C12.6984 29.8634 14.1298 30.9991 15.8286 30.9991C17.5462 30.9991 18.9869 29.8399 19.414 28.2584H23.3467C23.7737 29.8399 25.2191 30.9991 26.9321 30.9991C28.645 30.9991 30.0904 29.8399 30.5174 28.2584H32.0192C32.5589 28.2584 33 27.8173 33 27.3292V20.6747C32.9953 20.1397 32.5542 19.6985 32.0145 19.6985ZM15.8239 29.0421C14.7962 29.0421 14.0124 28.2584 14.0124 27.2823C14.0124 26.3062 14.8431 25.5224 15.8239 25.5224C16.8047 25.5224 17.6354 26.3062 17.6354 27.2823C17.6354 28.2584 16.8 29.0421 15.8239 29.0421ZM26.9274 29.0421C25.8996 29.0421 25.1159 28.2584 25.1159 27.2823C25.1159 26.3062 25.9465 25.5224 26.9274 25.5224C27.9551 25.5224 28.7388 26.3062 28.7388 27.2823C28.7388 28.2584 27.9082 29.0421 26.9274 29.0421ZM31.0853 26.3015H30.5128C30.0857 24.72 28.6403 23.5608 26.9274 23.5608C25.2144 23.5608 23.769 24.72 23.342 26.3015H19.4093C18.9822 24.72 17.5368 23.5608 15.8239 23.5608C14.0922 23.5608 12.6327 24.7434 12.2244 26.3484H11.91V23.2182L16.8517 15.9301H19.8364V20.5761C19.8364 21.1158 20.2775 21.5569 20.8172 21.5569H31.09V26.3015H31.0853Z" fill="white"/>
<path d="M45.8691 10.9102C45.8691 11.7422 45.7148 12.4785 45.4062 13.1191C45.0977 13.7598 44.6582 14.2539 44.0879 14.6016C43.5215 14.9453 42.875 15.1172 42.1484 15.1172C41.4219 15.1172 40.7773 14.9512 40.2148 14.6191C39.6523 14.2832 39.2129 13.8047 38.8965 13.1836C38.584 12.5625 38.4199 11.8496 38.4043 11.0449V10.5645C38.4043 9.72852 38.5566 8.99219 38.8613 8.35547C39.1699 7.71484 39.6094 7.2207 40.1797 6.87305C40.7539 6.52539 41.4062 6.35156 42.1367 6.35156C42.8594 6.35156 43.5039 6.52344 44.0703 6.86719C44.6367 7.21094 45.0762 7.70117 45.3887 8.33789C45.7051 8.9707 45.8652 9.69727 45.8691 10.5176V10.9102ZM43.7773 10.5527C43.7773 9.70508 43.6348 9.0625 43.3496 8.625C43.0684 8.18359 42.6641 7.96289 42.1367 7.96289C41.1055 7.96289 40.5605 8.73633 40.502 10.2832L40.4961 10.9102C40.4961 11.7461 40.6348 12.3887 40.9121 12.8379C41.1895 13.2871 41.6016 13.5117 42.1484 13.5117C42.668 13.5117 43.0684 13.291 43.3496 12.8496C43.6309 12.4082 43.7734 11.7734 43.7773 10.9453V10.5527ZM49.2263 12.1055V15H47.1697V6.46875H50.574C51.2263 6.46875 51.8025 6.58984 52.3025 6.83203C52.8064 7.07031 53.1951 7.41211 53.4685 7.85742C53.7459 8.29883 53.8845 8.80078 53.8845 9.36328C53.8845 10.1953 53.5857 10.8613 52.988 11.3613C52.3943 11.8574 51.5779 12.1055 50.5388 12.1055H49.2263ZM49.2263 10.5176H50.574C50.9724 10.5176 51.2752 10.418 51.4822 10.2188C51.6931 10.0195 51.7986 9.73828 51.7986 9.375C51.7986 8.97656 51.6912 8.6582 51.4763 8.41992C51.2615 8.18164 50.9685 8.06055 50.5974 8.05664H49.2263V10.5176ZM62.1284 12.1113C62.1011 12.7051 61.9409 13.2305 61.648 13.6875C61.355 14.1406 60.9429 14.4922 60.4116 14.7422C59.8843 14.9922 59.2808 15.1172 58.6011 15.1172C57.48 15.1172 56.5972 14.752 55.9527 14.0215C55.3081 13.291 54.9859 12.2598 54.9859 10.9277V10.5059C54.9859 9.66992 55.1304 8.93945 55.4195 8.31445C55.7124 7.68555 56.1323 7.20117 56.6792 6.86133C57.2261 6.51758 57.8589 6.3457 58.5777 6.3457C59.6128 6.3457 60.4448 6.61914 61.0737 7.16602C61.7027 7.70898 62.0601 8.45898 62.146 9.41602H60.0952C60.0796 8.89648 59.9487 8.52344 59.7027 8.29688C59.4566 8.07031 59.0816 7.95703 58.5777 7.95703C58.0659 7.95703 57.6909 8.14844 57.4527 8.53125C57.2144 8.91406 57.0894 9.52539 57.0777 10.3652V10.9688C57.0777 11.8789 57.1909 12.5293 57.4175 12.9199C57.648 13.3105 58.0425 13.5059 58.6011 13.5059C59.0737 13.5059 59.4351 13.3945 59.6851 13.1719C59.9351 12.9492 60.0679 12.5957 60.0835 12.1113H62.1284ZM65.5325 15H63.4817V6.46875H65.5325V15ZM74.4268 10.9102C74.4268 11.7422 74.2725 12.4785 73.9639 13.1191C73.6553 13.7598 73.2159 14.2539 72.6455 14.6016C72.0791 14.9453 71.4327 15.1172 70.7061 15.1172C69.9795 15.1172 69.335 14.9512 68.7725 14.6191C68.21 14.2832 67.7705 13.8047 67.4541 13.1836C67.1416 12.5625 66.9776 11.8496 66.962 11.0449V10.5645C66.962 9.72852 67.1143 8.99219 67.419 8.35547C67.7276 7.71484 68.167 7.2207 68.7373 6.87305C69.3116 6.52539 69.9639 6.35156 70.6944 6.35156C71.417 6.35156 72.0616 6.52344 72.628 6.86719C73.1944 7.21094 73.6338 7.70117 73.9463 8.33789C74.2627 8.9707 74.4229 9.69727 74.4268 10.5176V10.9102ZM72.335 10.5527C72.335 9.70508 72.1924 9.0625 71.9073 8.625C71.626 8.18359 71.2217 7.96289 70.6944 7.96289C69.6631 7.96289 69.1182 8.73633 69.0596 10.2832L69.0537 10.9102C69.0537 11.7461 69.1924 12.3887 69.4698 12.8379C69.7471 13.2871 70.1592 13.5117 70.7061 13.5117C71.2256 13.5117 71.626 13.291 71.9073 12.8496C72.1885 12.4082 72.3311 11.7734 72.335 10.9453V10.5527ZM82.8523 15H80.8074L77.784 9.69141V15H75.7273V6.46875H77.784L80.8016 11.7773V6.46875H82.8523V15ZM89.3443 13.4062H86.5259L86.0337 15H83.8365L86.9654 6.46875H88.899L92.0513 15H89.8423L89.3443 13.4062ZM87.0181 11.8184H88.8521L87.9322 8.85938L87.0181 11.8184ZM94.9749 13.418H98.555V15H92.9183V6.46875H94.9749V13.418ZM41.5039 26.1973C40.5391 25.9199 39.8359 25.5801 39.3945 25.1777C38.957 24.7715 38.7383 24.2715 38.7383 23.6777C38.7383 23.0059 39.0059 22.4512 39.541 22.0137C40.0801 21.5723 40.7793 21.3516 41.6387 21.3516C42.2246 21.3516 42.7461 21.4648 43.2031 21.6914C43.6641 21.918 44.0195 22.2305 44.2695 22.6289C44.5234 23.0273 44.6504 23.4629 44.6504 23.9355H43.5195C43.5195 23.4199 43.3555 23.0156 43.0273 22.7227C42.6992 22.4258 42.2363 22.2773 41.6387 22.2773C41.084 22.2773 40.6504 22.4004 40.3379 22.6465C40.0293 22.8887 39.875 23.2266 39.875 23.6602C39.875 24.0078 40.0215 24.3027 40.3145 24.5449C40.6113 24.7832 41.1133 25.002 41.8203 25.2012C42.5312 25.4004 43.0859 25.6211 43.4844 25.8633C43.8867 26.1016 44.1836 26.3809 44.375 26.7012C44.5703 27.0215 44.668 27.3984 44.668 27.832C44.668 28.5234 44.3984 29.0781 43.8594 29.4961C43.3203 29.9102 42.5996 30.1172 41.6973 30.1172C41.1113 30.1172 40.5645 30.0059 40.0566 29.7832C39.5488 29.5566 39.1562 29.248 38.8789 28.8574C38.6055 28.4668 38.4688 28.0234 38.4688 27.5273H39.5996C39.5996 28.043 39.7891 28.4512 40.168 28.752C40.5508 29.0488 41.0605 29.1973 41.6973 29.1973C42.291 29.1973 42.7461 29.0762 43.0625 28.834C43.3789 28.5918 43.5371 28.2617 43.5371 27.8438C43.5371 27.4258 43.3906 27.1035 43.0977 26.877C42.8047 26.6465 42.2734 26.4199 41.5039 26.1973ZM48.8162 30.1172C47.9568 30.1172 47.2576 29.8359 46.7185 29.2734C46.1795 28.707 45.9099 27.9512 45.9099 27.0059V26.8066C45.9099 26.1777 46.0291 25.6172 46.2673 25.125C46.5095 24.6289 46.8455 24.2422 47.2752 23.9648C47.7087 23.6836 48.1775 23.543 48.6814 23.543C49.5056 23.543 50.1462 23.8145 50.6033 24.3574C51.0603 24.9004 51.2888 25.6777 51.2888 26.6895V27.1406H46.9939C47.0095 27.7656 47.1912 28.2715 47.5388 28.6582C47.8904 29.041 48.3357 29.2324 48.8748 29.2324C49.2576 29.2324 49.5818 29.1543 49.8474 28.998C50.113 28.8418 50.3455 28.6348 50.5447 28.377L51.2068 28.8926C50.6755 29.709 49.8787 30.1172 48.8162 30.1172ZM48.6814 24.4336C48.2439 24.4336 47.8767 24.5938 47.5798 24.9141C47.283 25.2305 47.0994 25.6758 47.0291 26.25H50.2048V26.168C50.1736 25.6172 50.0252 25.1914 49.7595 24.8906C49.4939 24.5859 49.1345 24.4336 48.6814 24.4336ZM55.853 24.6328C55.689 24.6055 55.5112 24.5918 55.3198 24.5918C54.6089 24.5918 54.1265 24.8945 53.8726 25.5V30H52.7886V23.6602H53.8433L53.8609 24.3926C54.2163 23.8262 54.7202 23.543 55.3726 23.543C55.5835 23.543 55.7437 23.5703 55.853 23.625V24.6328ZM59.2923 28.5293L60.8626 23.6602H61.97L59.6966 30H58.8704L56.5735 23.6602H57.6809L59.2923 28.5293ZM64.4307 30H63.3467V23.6602H64.4307V30ZM63.2588 21.9785C63.2588 21.8027 63.3116 21.6543 63.417 21.5332C63.5264 21.4121 63.6866 21.3516 63.8975 21.3516C64.1084 21.3516 64.2686 21.4121 64.378 21.5332C64.4873 21.6543 64.542 21.8027 64.542 21.9785C64.542 22.1543 64.4873 22.3008 64.378 22.418C64.2686 22.5352 64.1084 22.5938 63.8975 22.5938C63.6866 22.5938 63.5264 22.5352 63.417 22.418C63.3116 22.3008 63.2588 22.1543 63.2588 21.9785ZM68.9539 29.2324C69.3406 29.2324 69.6785 29.1152 69.9676 28.8809C70.2566 28.6465 70.4168 28.3535 70.448 28.002H71.4734C71.4539 28.3652 71.3289 28.7109 71.0984 29.0391C70.868 29.3672 70.5594 29.6289 70.1727 29.8242C69.7898 30.0195 69.3836 30.1172 68.9539 30.1172C68.0906 30.1172 67.4031 29.8301 66.8914 29.2559C66.3836 28.6777 66.1297 27.8887 66.1297 26.8887V26.707C66.1297 26.0898 66.243 25.541 66.4695 25.0605C66.6961 24.5801 67.0203 24.207 67.4422 23.9414C67.868 23.6758 68.3699 23.543 68.948 23.543C69.659 23.543 70.2488 23.7559 70.7176 24.1816C71.1902 24.6074 71.4422 25.1602 71.4734 25.8398H70.448C70.4168 25.4297 70.2605 25.0938 69.9793 24.832C69.702 24.5664 69.3582 24.4336 68.948 24.4336C68.3973 24.4336 67.9695 24.6328 67.6648 25.0312C67.3641 25.4258 67.2137 25.998 67.2137 26.748V26.9531C67.2137 27.6836 67.3641 28.2461 67.6648 28.6406C67.9656 29.0352 68.3953 29.2324 68.9539 29.2324ZM74.1099 30H73.0259V23.6602H74.1099V30ZM72.938 21.9785C72.938 21.8027 72.9908 21.6543 73.0962 21.5332C73.2056 21.4121 73.3658 21.3516 73.5767 21.3516C73.7877 21.3516 73.9478 21.4121 74.0572 21.5332C74.1666 21.6543 74.2212 21.8027 74.2212 21.9785C74.2212 22.1543 74.1666 22.3008 74.0572 22.418C73.9478 22.5352 73.7877 22.5938 73.5767 22.5938C73.3658 22.5938 73.2056 22.5352 73.0962 22.418C72.9908 22.3008 72.938 22.1543 72.938 21.9785ZM75.803 26.7715C75.803 26.1504 75.9241 25.5918 76.1663 25.0957C76.4124 24.5996 76.7523 24.2168 77.1859 23.9473C77.6234 23.6777 78.1214 23.543 78.68 23.543C79.5433 23.543 80.2405 23.8418 80.7718 24.4395C81.307 25.0371 81.5745 25.832 81.5745 26.8242V26.9004C81.5745 27.5176 81.4554 28.0723 81.2171 28.5645C80.9827 29.0527 80.6448 29.4336 80.2034 29.707C79.7659 29.9805 79.262 30.1172 78.6917 30.1172C77.8323 30.1172 77.1351 29.8184 76.5999 29.2207C76.0687 28.623 75.803 27.832 75.803 26.8477V26.7715ZM76.8929 26.9004C76.8929 27.6035 77.055 28.168 77.3792 28.5938C77.7073 29.0195 78.1448 29.2324 78.6917 29.2324C79.2425 29.2324 79.68 29.0176 80.0042 28.5879C80.3284 28.1543 80.4905 27.5488 80.4905 26.7715C80.4905 26.0762 80.3245 25.5137 79.9925 25.084C79.6644 24.6504 79.2269 24.4336 78.68 24.4336C78.1448 24.4336 77.7132 24.6465 77.3851 25.0723C77.057 25.498 76.8929 26.1074 76.8929 26.9004ZM86.1268 26.7773C86.1268 25.8047 86.3573 25.0234 86.8182 24.4336C87.2791 23.8398 87.8827 23.543 88.6287 23.543C89.3709 23.543 89.9588 23.7969 90.3924 24.3047V21H91.4764V30H90.4803L90.4276 29.3203C89.994 29.8516 89.3905 30.1172 88.617 30.1172C87.8827 30.1172 87.283 29.8164 86.8182 29.2148C86.3573 28.6133 86.1268 27.8281 86.1268 26.8594V26.7773ZM87.2108 26.9004C87.2108 27.6191 87.3592 28.1816 87.6561 28.5879C87.953 28.9941 88.3631 29.1973 88.8866 29.1973C89.5741 29.1973 90.076 28.8887 90.3924 28.2715V25.3594C90.0682 24.7617 89.5702 24.4629 88.8983 24.4629C88.367 24.4629 87.953 24.668 87.6561 25.0781C87.3592 25.4883 87.2108 26.0957 87.2108 26.9004ZM96.0348 30.1172C95.1754 30.1172 94.4762 29.8359 93.9371 29.2734C93.398 28.707 93.1285 27.9512 93.1285 27.0059V26.8066C93.1285 26.1777 93.2477 25.6172 93.4859 25.125C93.7281 24.6289 94.0641 24.2422 94.4938 23.9648C94.9273 23.6836 95.3961 23.543 95.9 23.543C96.7242 23.543 97.3648 23.8145 97.8219 24.3574C98.2789 24.9004 98.5074 25.6777 98.5074 26.6895V27.1406H94.2125C94.2281 27.7656 94.4098 28.2715 94.7574 28.6582C95.109 29.041 95.5543 29.2324 96.0934 29.2324C96.4762 29.2324 96.8004 29.1543 97.066 28.998C97.3316 28.8418 97.5641 28.6348 97.7633 28.377L98.4254 28.8926C97.8941 29.709 97.0973 30.1172 96.0348 30.1172ZM95.9 24.4336C95.4625 24.4336 95.0953 24.5938 94.7984 24.9141C94.5016 25.2305 94.318 25.6758 94.2477 26.25H97.4234V26.168C97.3922 25.6172 97.2438 25.1914 96.9781 24.8906C96.7125 24.5859 96.3531 24.4336 95.9 24.4336ZM109.692 28.8809C109.403 29.2949 108.999 29.6055 108.48 29.8125C107.964 30.0156 107.362 30.1172 106.675 30.1172C105.98 30.1172 105.362 29.9551 104.823 29.6309C104.284 29.3027 103.866 28.8379 103.569 28.2363C103.276 27.6348 103.126 26.9375 103.118 26.1445V25.4004C103.118 24.1152 103.417 23.1191 104.015 22.4121C104.616 21.7051 105.46 21.3516 106.546 21.3516C107.437 21.3516 108.153 21.5801 108.696 22.0371C109.239 22.4902 109.571 23.1348 109.692 23.9707H108.567C108.357 22.8418 107.685 22.2773 106.552 22.2773C105.798 22.2773 105.226 22.543 104.835 23.0742C104.448 23.6016 104.253 24.3672 104.249 25.3711V26.0684C104.249 27.0254 104.468 27.7871 104.905 28.3535C105.343 28.916 105.935 29.1973 106.681 29.1973C107.103 29.1973 107.472 29.1504 107.788 29.0566C108.105 28.9629 108.366 28.8047 108.573 28.582V26.666H106.599V25.752H109.692V28.8809ZM114.708 24.6328C114.544 24.6055 114.366 24.5918 114.175 24.5918C113.464 24.5918 112.981 24.8945 112.727 25.5V30H111.643V23.6602H112.698L112.716 24.3926C113.071 23.8262 113.575 23.543 114.227 23.543C114.438 23.543 114.599 23.5703 114.708 23.625V24.6328ZM119.864 29.373C119.442 29.8691 118.823 30.1172 118.006 30.1172C117.331 30.1172 116.815 29.9219 116.46 29.5312C116.108 29.1367 115.93 28.5547 115.926 27.7852V23.6602H117.01V27.7559C117.01 28.7168 117.401 29.1973 118.182 29.1973C119.01 29.1973 119.561 28.8887 119.835 28.2715V23.6602H120.919V30H119.887L119.864 29.373ZM118.985 21H120.298L118.727 22.7227H117.854L118.985 21ZM126.725 30C126.662 29.875 126.612 29.6523 126.573 29.332C126.069 29.8555 125.467 30.1172 124.768 30.1172C124.143 30.1172 123.629 29.9414 123.227 29.5898C122.829 29.2344 122.629 28.7852 122.629 28.2422C122.629 27.582 122.879 27.0703 123.379 26.707C123.883 26.3398 124.59 26.1562 125.5 26.1562H126.555V25.6582C126.555 25.2793 126.442 24.9785 126.215 24.7559C125.989 24.5293 125.655 24.416 125.213 24.416C124.827 24.416 124.502 24.5137 124.241 24.709C123.979 24.9043 123.848 25.1406 123.848 25.418H122.758C122.758 25.1016 122.87 24.7969 123.092 24.5039C123.319 24.207 123.623 23.9727 124.006 23.8008C124.393 23.6289 124.817 23.543 125.278 23.543C126.008 23.543 126.58 23.7266 126.995 24.0938C127.409 24.457 127.623 24.959 127.639 25.5996V28.5176C127.639 29.0996 127.713 29.5625 127.862 29.9062V30H126.725ZM124.926 29.1738C125.266 29.1738 125.588 29.0859 125.893 28.9102C126.198 28.7344 126.418 28.5059 126.555 28.2246V26.9238H125.705C124.377 26.9238 123.713 27.3125 123.713 28.0898C123.713 28.4297 123.827 28.6953 124.053 28.8867C124.28 29.0781 124.571 29.1738 124.926 29.1738Z" fill="white"/>
<rect x="0.5" y="0.5" width="135" height="37" rx="9.5" stroke="white"/>
</svg>
