<svg width="415" height="401" viewBox="0 0 415 401" fill="none" xmlns="http://www.w3.org/2000/svg">
<path opacity="0.3" d="M123.975 357.84H246.293C278.222 357.84 304.108 332.073 304.108 300.29V102.007C304.108 70.2244 278.222 44.4575 246.293 44.4575H123.975C92.0453 44.4575 66.1592 70.2244 66.1592 102.007V300.29C66.1592 332.073 92.0453 357.84 123.975 357.84Z" fill="#3E82D7"/>
<path d="M342.189 0.297128C290.283 3.62447 289.32 62.372 289.32 62.372V342.055H80.9473V62.3454C80.9473 62.3454 80.7066 3.8108 134.083 0.270508H342.189V0.297128Z" fill="url(#paint0_linear)"/>
<path d="M251.427 73.3657H108.305V85.9297H251.427V73.3657Z" fill="#9E84AF"/>
<path d="M230.515 102.433H108.305V111.324H230.515V102.433Z" fill="#9E84AF"/>
<path d="M169.731 125.938H108.305V139.167H169.731V125.938Z" fill="#9E84AF"/>
<path d="M251.427 125.938H187.889V139.167H251.427V125.938Z" fill="#9E84AF"/>
<path d="M206.18 151.385H108.305V160.808H206.18V151.385Z" fill="#9E84AF"/>
<path d="M218.561 174.969H108.305V180.213H218.561V174.969Z" fill="#9E84AF"/>
<path d="M240.891 198.527H108.305V203.771H240.891V198.527Z" fill="#9E84AF"/>
<path d="M170.159 251.338H107.877V221.685H170.159V251.338ZM108.733 250.487H169.33V222.51H108.733V250.487Z" fill="#9E84AF"/>
<path d="M240.917 222.111H185.134V228.925H240.917V222.111Z" fill="#9E84AF"/>
<path d="M224.658 236.512H185.134V243.326H224.658V236.512Z" fill="#9E84AF"/>
<path d="M217.572 269.226H108.305V274.47H217.572V269.226Z" fill="#9E84AF"/>
<path d="M171.121 292.81H108.305V298.054H171.121V292.81Z" fill="#9E84AF"/>
<path d="M268.087 306.652H228.83V267.576H268.087V306.652ZM232.52 302.979H264.424V271.222H232.52V302.979Z" fill="#E95E2A"/>
<path d="M249.074 295.286L235.275 282.322L239.474 277.904L249.368 287.167L270.949 269.492L274.853 274.204L249.074 295.286Z" fill="#E95E2A"/>
<path d="M110.391 298.267C110.391 298.267 111.247 299.066 111.541 299.838C111.782 300.45 112.557 301.222 112.932 301.674C113.306 302.127 114.67 304.256 114.884 304.842C114.964 305.081 114.857 306.758 115.071 307.238C115.285 307.717 115.846 308.622 115.419 308.781C114.991 308.941 114.269 308.276 114.269 308.276C114.269 308.276 114.429 308.728 114.108 308.994C113.466 309.5 113.012 309.287 113.012 309.287C113.012 309.287 112.878 309.846 112.557 310.006C111.862 310.325 111.407 310.112 111.407 310.112C111.407 310.112 111.167 310.458 110.632 310.591C109.963 310.725 109.535 310.245 109.535 310.245C109.535 310.245 108.76 310.618 108.385 310.272C108.038 309.953 107.958 309.527 107.744 309.181C107.556 308.861 106.701 305.667 107.129 303.112C107.556 300.583 105.551 298.666 105.551 298.666L110.391 298.267Z" fill="#F7C29E"/>
<path d="M117.45 317.805H106.433C105.31 317.805 104.4 316.9 104.4 315.782V308.861C104.4 307.743 105.31 306.838 106.433 306.838H117.45C118.574 306.838 119.483 307.743 119.483 308.861V315.782C119.456 316.9 118.547 317.805 117.45 317.805ZM106.406 308.196C106.032 308.196 105.737 308.489 105.737 308.861V315.782C105.737 316.155 106.032 316.448 106.406 316.448H117.424C117.798 316.448 118.092 316.155 118.092 315.782V308.861C118.092 308.489 117.798 308.196 117.424 308.196H106.406Z" fill="#1A232F"/>
<path d="M132.587 314.824H91.2441V344.317H132.587V314.824Z" fill="#5A5C5A"/>
<path d="M94.372 235.926C94.372 235.926 92.2594 235.952 91.3502 242.261C90.441 248.57 92.1524 251.205 92.3664 253.814C92.5803 256.422 95.6557 273.378 95.7359 274.124C95.8161 274.869 96.244 283.893 97.4473 286.288C98.6507 288.684 107.502 302.233 107.636 302.925C107.743 303.591 111.941 300.556 111.941 300.556C111.941 300.556 104.989 286.049 104.587 284.398C104.186 282.748 101.378 274.283 101.833 271.701C102.288 269.119 100.603 254.878 100.763 253.308C100.897 251.737 98.4368 236.884 94.372 235.926Z" fill="#F7C29E"/>
<path d="M94.3726 235.926C94.3726 235.926 92.26 235.952 91.3508 242.261C90.4416 248.57 91.2706 250.832 91.8054 253.574C92.3135 256.156 94.0785 271.941 94.1587 272.686C94.2389 273.432 96.3515 282.961 97.4479 286.288C98.2769 288.844 106.193 302.153 106.299 302.845C106.406 303.511 112.45 299.731 112.45 299.731C112.45 299.731 104.722 284.718 104.321 283.068C103.919 281.417 102.609 275.694 102.556 273.059C102.502 269.971 100.55 254.905 100.737 253.308C100.898 251.737 100.283 238.082 94.3726 235.926Z" fill="#E95E2A"/>
<path d="M76.6438 382.941C76.6438 382.941 80.3341 388.398 81.8317 389.702C81.8317 389.702 85.2546 390.9 85.4686 393.216C85.6023 394.733 85.4686 397.156 81.5643 397.262C77.66 397.369 75.1462 396.011 74.4242 393.669C73.7021 391.3 72.3651 390.261 72.3651 390.261V395.186H71.4826C71.4826 395.186 71.2686 390.421 71.2152 389.543C71.1617 388.664 70.5734 385.284 72.4453 383.793C74.2905 382.302 76.6438 382.941 76.6438 382.941Z" fill="#BF4019"/>
<path d="M101.674 378.576C101.674 378.576 102.316 380.066 103.519 381.637C104.402 382.781 107.156 387.493 108.36 387.839C109.563 388.158 113.307 388.824 113.655 390.9C113.975 392.976 114.163 394.467 110.472 394.627C106.782 394.787 104.375 394.999 102.61 392.444C100.845 389.862 98.0374 387.999 98.0374 387.999V394.707H96.6201C96.6201 394.707 95.9515 387.706 95.5771 387.227C95.2028 386.748 94.2133 381.371 97.6095 378.576C100.979 375.781 101.674 378.576 101.674 378.576Z" fill="#BF4019"/>
<path d="M74.1823 277.717C74.1823 277.717 69.5292 283.733 68.2724 290.894C67.0155 298.054 69.0211 322.038 68.9676 325.578C68.9142 329.118 65.5982 337.902 66.2667 344.557C66.9353 351.212 72.4441 383.793 72.4441 383.793L76.6693 382.941C76.6693 382.941 76.2682 349.162 76.6693 346.367C77.0704 343.572 77.8994 333.377 78.0866 332.233C78.2471 331.088 88.5694 300.876 88.5694 295.712C88.5427 290.574 85.4139 269.306 74.1823 277.717Z" fill="#F7C29E"/>
<path d="M97.5552 280.06C97.5552 280.06 105.203 309.127 106.113 313.147C107.022 317.166 108.332 320.494 108.332 322.197C108.332 326.163 106.861 332.525 106.861 332.525L101.647 378.549H97.5552C97.5552 378.549 94.9613 351.664 94.5602 346.261C94.159 340.83 97.5285 332.445 96.6995 330.156C95.8705 327.867 83.4088 301.302 83.4088 301.302C83.4088 301.302 73.9689 271.622 97.5552 280.06Z" fill="#F7C29E"/>
<path d="M82.4462 389.995C82.4462 389.995 79.2372 391.646 76.3223 389.463C73.4074 387.28 72.418 383.793 72.418 383.793L76.6432 382.941L82.4462 389.995Z" fill="#F7C29E"/>
<path d="M108.359 387.839C108.359 387.839 105.043 388.664 103.786 387.839C102.529 387.014 98.2234 379.774 96.7793 379.348C96.7793 379.348 98.1699 376.553 101.646 378.576C101.673 378.576 107.423 386.641 108.359 387.839Z" fill="#F7C29E"/>
<path d="M107.37 317.805C107.37 317.805 93.3035 326.031 66.9627 326.031C66.9627 326.031 65.4652 295.605 69.2893 287.061C73.1134 278.49 98.545 283.813 98.545 283.813C98.545 283.813 106.461 311.497 107.37 317.805Z" fill="#2C3D54"/>
<path d="M88.1423 233.663C88.1423 233.663 92.2338 235.58 93.6511 235.873C95.0684 236.166 100.577 243.273 101.54 245.881C102.503 248.49 101.54 252.376 99.561 256.955C97.5821 261.533 99.4541 263.05 98.5449 267.629C97.6356 272.207 96.8334 281.897 97.0206 284.425C97.181 286.954 74.076 287.46 68.7811 282.802C68.7811 282.802 74.076 274.896 74.7713 273.751C75.4398 272.633 74.8783 266.458 74.2632 264.887C73.6481 263.317 69.4764 249.848 69.4764 249.848C69.4764 249.848 66.0802 239.52 69.1555 237.15C71.8297 235.101 79.1035 234.355 80.3871 233.903C81.6974 233.45 85.4948 233.264 88.1423 233.663Z" fill="#F3E4DC"/>
<path d="M89.4524 242.74L91.9393 239.839L89.7733 232.226C89.7733 232.226 89.0513 236.458 89.4524 242.74Z" fill="#CFC3BC"/>
<path d="M83.0079 204.809C85.4415 203.957 94.3465 201.881 96.4592 213.22C98.5718 224.587 92.2607 232.652 86.4577 230.496C80.6814 228.34 77.098 220.487 76.7503 214.498C76.4027 208.535 79.9326 205.874 83.0079 204.809Z" fill="#F7C29E"/>
<path d="M96.4584 213.22C96.4584 213.22 96.8863 203.504 87.179 203.158C77.4717 202.812 74.8509 210.771 75.6532 216.574C76.4555 222.377 80.4667 225.438 80.4667 225.438C80.4667 225.438 80.1191 220.753 81.9911 219.529C83.863 218.304 91.431 215.882 94.7202 210.239C94.7202 210.212 96.2445 211.996 96.4584 213.22Z" fill="#BF4019"/>
<path d="M84.3447 212.182C83.0611 216.042 79.2638 218.278 75.8676 217.186C72.4714 216.068 70.7599 212.022 72.0167 208.163C73.3003 204.303 77.0977 202.067 80.4939 203.158C83.9169 204.276 85.6284 208.322 84.3447 212.182Z" fill="#BF4019"/>
<path d="M90.094 228.978C90.094 228.978 89.2651 236.432 89.4523 238.881C89.4523 238.881 85.2003 243.113 80.3867 233.929C80.3867 233.929 82.4191 230.15 80.8948 224.986C79.3438 219.822 90.094 228.978 90.094 228.978Z" fill="#F7C29E"/>
<path d="M89.4524 238.854V242.74L84.5586 239.094L89.4524 238.854Z" fill="#F7C29E"/>
<path d="M89.452 242.741L87.4196 240.238L80.6004 233.451L78.3809 235.58L89.452 242.741Z" fill="#CFC3BC"/>
<path d="M79.6382 234.089C79.6382 234.089 85.361 242.74 85.6551 246.574C85.9226 250.38 83.5158 278.915 81.5904 288.072C79.665 297.229 65.7324 287.034 65.7324 287.034C65.7324 287.034 75.0921 271.968 71.5087 259.91C67.9253 247.851 66.6149 243.033 66.6149 243.033C66.6149 243.033 67.845 236.325 72.2307 235.367C76.0816 234.542 79.6382 234.089 79.6382 234.089Z" fill="#E95E2A"/>
<path d="M101.915 247.026C101.915 247.026 102.958 250.673 98.9198 258.711C98.9198 258.711 98.9733 269.013 99.107 272.234C99.214 275.455 99.9895 287.619 99.9895 287.619L96.005 289.935C95.2027 290.414 94.2132 289.749 94.3202 288.844C95.4434 279.58 99.1338 244.417 91.1914 234.994L94.3737 235.926C94.3737 235.926 100.016 240.531 101.915 247.026Z" fill="#E95E2A"/>
<path d="M82.9815 217.452C82.6338 216.574 81.4572 216.308 80.7619 216.814C80.0933 217.319 79.6922 218.837 80.7619 220.833C81.8583 222.829 85.6557 224.187 82.9815 217.452Z" fill="#F7C29E"/>
<path d="M91.9395 239.839L95.0684 240.691L89.7734 232.226L91.9395 239.839Z" fill="#F3E4DC"/>
<path d="M87.42 240.238L84.5586 243.965L78.7021 234.223L80.6008 233.451L87.42 240.238Z" fill="#F3E4DC"/>
<path d="M89.9333 230.602L89.7996 232.093C89.7996 232.093 86.4302 232.732 82.0177 227.355C81.991 227.382 85.1465 231.188 89.9333 230.602Z" fill="#997761"/>
<path d="M107.289 276.28C107.289 276.28 109.268 277.557 110.418 276.839C111.381 276.227 113.092 276.147 113.6 276.12C114.296 276.093 116.408 275.188 116.462 276.067C116.515 276.945 113.065 277.717 112.37 278.037C111.675 278.356 114.723 279.82 115.044 280.512C115.392 281.204 112.638 286.075 110.685 284.824C108.733 283.573 107.45 280.938 107.075 280.778C106.674 280.619 105.604 279.927 105.604 279.927L107.289 276.28Z" fill="#F7C29E"/>
<path d="M69.6098 236.725C69.6098 236.725 72.3642 236.033 74.7443 238.588C77.1243 241.143 78.3277 245.322 78.9427 246.653C79.5578 248.011 87.4467 260.548 87.9013 260.841C88.3559 261.134 96.3785 267.549 100.015 271.01C103.652 274.443 110.739 278.303 110.739 278.303L108.065 282.03C108.065 282.03 86.5642 270.61 83.8365 266.431C81.1089 262.252 70.2249 250.673 70.2249 250.673C70.2249 250.673 63.7266 240.93 69.6098 236.725Z" fill="#F7C29E"/>
<path d="M114.696 280.113C114.696 280.113 120.445 284.346 120.606 284.958C120.74 285.57 120.499 285.863 119.937 285.49C119.376 285.118 114.241 281.551 114.241 281.551C114.241 281.551 120.205 287.7 120.445 288.179C120.579 288.445 120.125 289.057 119.804 288.871C119.483 288.685 113.225 282.935 113.225 282.935C113.225 282.935 118.787 288.685 118.868 289.137C118.921 289.536 118.386 289.989 117.932 289.59C117.477 289.19 112.022 284.133 112.022 284.133C112.022 284.133 115.819 288.578 115.659 288.977C115.552 289.244 115.204 289.776 114.268 288.605C113.332 287.433 110.818 284.878 110.818 284.878L114.696 280.113Z" fill="#F7C29E"/>
<path d="M99.8813 256.688C99.8813 256.688 100.068 269.545 99.2929 275.774L98.9453 258.712L99.8813 256.688Z" fill="#2F386C"/>
<path d="M71.0272 235.766C71.0272 235.766 72.6049 236.032 74.985 238.561C77.365 241.116 78.5684 245.296 79.1835 246.627C79.7985 247.984 87.6874 260.522 88.142 260.814C88.5966 261.107 95.1751 265.579 98.7852 269.04C102.422 272.473 109.188 276.599 109.188 276.599L105.711 281.737C105.711 281.737 86.7514 271.276 83.7296 267.309C80.5206 263.05 69.0483 250.566 69.0483 250.566C69.0483 250.566 61.6408 239.173 71.0272 235.766Z" fill="#E95E2A"/>
<path d="M114.296 307.956C114.296 307.956 113.547 305.081 112.638 304.655C111.702 304.23 111.916 305.268 111.916 305.268C111.916 305.268 111.729 304.23 110.873 304.283C110.017 304.336 110.312 305.56 110.312 305.56C110.312 305.56 109.964 304.815 109.135 305.188C108.306 305.56 108.814 306.492 108.814 306.492C108.814 306.492 107.718 305.72 107.45 306.785C106.996 308.595 108.359 310.299 108.359 310.299C108.359 310.299 108.787 310.671 109.536 310.272C109.536 310.272 110.419 311.257 111.435 310.166C111.435 310.166 112.906 310.565 113.039 309.34C113.039 309.34 114.724 309.607 114.296 307.956Z" fill="#C99A7D"/>
<path d="M83.971 270.317L77.4727 259.883C77.4727 259.883 83.0083 266.378 83.5966 267.097C84.1849 267.789 84.2116 267.842 84.2116 267.842C84.2116 267.842 84.0512 269.971 83.971 270.317Z" fill="#2F386C"/>
<path d="M272.125 138.076H212.598V182.529V191.899L221.69 182.529H272.125V138.076Z" fill="#AD8DCE"/>
<path d="M0 141.829H59.5006V186.282V195.652L50.4351 186.282H0V141.829Z" fill="#AD8DCE"/>
<path d="M37.0907 157.96C36.8768 157.72 36.5559 157.454 36.128 157.161C35.7002 156.868 35.1921 156.602 34.6305 156.336C34.0689 156.07 33.4538 155.857 32.7585 155.671C32.09 155.484 31.3947 155.378 30.6727 155.325L30.6459 162.938L31.3412 163.097C32.6783 163.417 33.8817 163.789 34.9246 164.162C35.9943 164.561 36.9035 165.04 37.6256 165.599C38.3743 166.158 38.9359 166.85 39.3371 167.676C39.7382 168.501 39.9521 169.486 39.9254 170.684C39.9254 171.988 39.6847 173.079 39.2033 174.011C38.722 174.916 38.0802 175.688 37.2512 176.3C36.4222 176.912 35.4595 177.365 34.3631 177.658C33.2666 177.951 32.09 178.11 30.8331 178.137V181.997H28.9077V178.057C27.1427 177.924 25.458 177.578 23.8535 176.992C22.2489 176.407 20.8049 175.608 19.4678 174.57L21.3664 171.056C21.6339 171.349 22.035 171.668 22.5431 172.015C23.0512 172.361 23.6663 172.68 24.3616 172.999C25.0569 173.319 25.8056 173.612 26.6346 173.851C27.4636 174.091 28.3194 174.277 29.2018 174.384L29.2286 166.771C29.0681 166.717 28.9344 166.691 28.774 166.638C28.6135 166.611 28.4531 166.558 28.3194 166.504C27.009 166.158 25.8859 165.786 24.8964 165.413C23.9337 165.04 23.1314 164.561 22.4896 164.029C21.8478 163.497 21.3665 162.858 21.0456 162.139C20.7247 161.42 20.5642 160.542 20.5642 159.504C20.5642 158.306 20.7781 157.241 21.206 156.309C21.6339 155.378 22.2222 154.579 22.9977 153.914C23.7732 153.248 24.6557 152.716 25.6719 152.343C26.6881 151.971 27.8113 151.731 29.0414 151.651V147.951H30.9668V151.651C32.5713 151.758 34.0421 152.077 35.406 152.609C36.7698 153.142 37.9465 153.807 38.9894 154.579L37.0907 157.96ZM24.8964 158.891C24.8964 159.93 25.244 160.702 25.9661 161.207C26.6881 161.713 27.7845 162.192 29.2553 162.565L29.2821 155.325C27.7845 155.404 26.6614 155.75 25.9661 156.363C25.2708 157.002 24.9231 157.827 24.8964 158.891ZM35.5397 171.109C35.5397 170.018 35.1118 169.22 34.2561 168.661C33.4003 168.102 32.197 167.596 30.6459 167.17L30.6192 174.437C32.197 174.41 33.4003 174.117 34.2561 173.558C35.1118 173.026 35.5397 172.201 35.5397 171.109Z" fill="white"/>
<path d="M316.464 308.489C316.464 308.489 314.351 308.915 313.362 308.941C312.346 308.968 307.719 306.865 306.222 307.078C304.724 307.264 295.044 311.364 294.616 311.683C294.188 311.976 294.83 312.641 294.83 312.641L317.079 312.908L316.464 308.489Z" fill="#F7C29E"/>
<path d="M286.921 315.794L323.932 316.073L323.957 312.692L286.947 312.413L286.921 315.794Z" fill="#363957"/>
<path d="M276.155 280.587L286.977 315.817L290.224 314.829L279.402 279.598L276.155 280.587Z" fill="#363957"/>
<path d="M354.544 383.98L355.961 387.067C355.961 387.067 361.978 384.831 362.005 384.752C362.032 384.672 360.347 380.493 360.347 380.493L354.544 383.98Z" fill="#525368"/>
<path d="M303.039 383.926L301.381 388.771C301.381 388.771 307.986 390.208 308.949 390.155C309.029 390.155 310.206 384.672 310.206 384.672L303.039 383.926Z" fill="#6A6B87"/>
<path d="M309.672 388.718C309.672 388.718 305.072 387.467 304.912 387.28C304.778 387.094 303.093 385.949 302.211 386.083C301.328 386.216 301.248 387.254 300.392 387.467C299.51 387.68 292.771 389.836 291.861 390.368C290.925 390.927 286.46 389.303 285.604 390.448C284.748 391.593 283.919 394.627 290.925 395.665C297.932 396.703 305.42 399.818 307.104 399.392C308.789 398.993 309.939 390.581 309.672 388.718Z" fill="#26283A"/>
<path d="M362.486 383.926C362.486 383.926 358.208 385.736 357.994 385.683C357.78 385.603 355.801 385.763 355.213 386.402C354.624 387.041 355.213 387.866 354.678 388.558C354.143 389.25 351.094 393.243 350.212 394.174C349.49 394.92 345.479 395.638 344.195 396.969C343.232 397.981 344.355 402 351.175 400.084C357.807 398.221 366.016 394.973 367.033 393.642C368.022 392.311 363.797 385.204 362.486 383.926Z" fill="#26283A"/>
<path d="M358.1 323.608C358.1 323.608 339.301 331.94 335.316 334.762C331.332 337.61 322.614 342.854 322.32 344.132C322.025 345.409 320.314 344.158 323.389 350.573C326.491 356.988 341.092 372.401 342.483 374.078C343.9 375.834 354.062 386.296 354.062 386.296L361.684 380.573C361.684 380.573 347.029 359.091 344.89 355.95C342.777 352.783 341.814 352.33 343.071 350.919C344.328 349.535 349.329 349.535 375.162 338.914C377.729 337.849 384.949 335.401 385.885 331.94C387.597 325.711 386.126 317.806 379.2 314.345C372.247 310.858 358.1 323.608 358.1 323.608Z" fill="#2E3048"/>
<path d="M349.142 263.397C349.303 263.53 349.49 263.849 349.677 264.302C349.944 264.941 350.239 265.792 350.506 266.751C351.362 269.732 352.137 273.538 352.137 273.538C352.137 273.538 362.888 264.621 361.363 264.062C359.839 263.503 358.716 260.895 358.716 260.895C358.716 260.895 348.019 262.385 349.142 263.397Z" fill="#F7C29E"/>
<path d="M358.395 320.255C358.395 320.255 338.981 324.806 334.167 326.324C329.353 327.841 321.117 330.529 318.897 331.807C317.721 332.472 315.929 333.484 313.763 340.458C311.329 348.364 305.74 370.644 304.484 374.104C303.681 376.287 301.408 384.858 301.408 384.858L311.329 386.562C311.329 386.562 323.149 362.871 324.112 356.562C325.717 345.942 329.862 345.888 331.546 344.903C333.231 343.945 341.28 345.755 369.894 343.466C372.756 343.226 380.591 343.093 382.597 340.032C386.26 334.469 389.951 328.16 384.255 322.597C378.558 317.034 358.395 320.255 358.395 320.255Z" fill="#2E3048"/>
<path d="M345.372 241.037C345.372 241.037 342.003 246.813 342.778 248.384C343.554 249.954 339.275 253.761 339.97 254.586C340.666 255.385 342.11 256.369 342.083 256.609C342.056 256.849 343.313 264.382 344.971 264.541C346.629 264.701 357.887 264.115 358.823 260.628C359.759 257.115 362.514 249.422 363.156 248.011C363.824 246.547 357.326 235.5 345.372 241.037Z" fill="#F7C29E"/>
<path d="M359.251 239.919C360.187 240.611 360.936 241.356 361.551 242.102C362.299 242.448 366.658 244.604 365.749 246.946C364.519 250.087 359.598 258.472 359.171 259.351C359.117 259.457 359.117 259.244 359.144 258.765C358.85 255.81 355.186 252.483 355.186 252.483L353.234 251.605C354.25 249.715 353.849 247.958 353.849 247.958C351.629 245.589 344.275 243.06 344.275 243.06C345.345 232.572 354.33 236.272 359.251 239.919Z" fill="#234077"/>
<path d="M355.934 250.008C356.443 249.209 359.197 249.342 358.796 251.685C358.395 254.027 355.025 255.891 354.303 254.852C353.554 253.814 355.373 250.86 355.934 250.008Z" fill="#F7C29E"/>
<path d="M361.39 264.036C361.39 264.036 375.028 271.941 378.104 285.73C381.179 299.518 386.741 323.768 386.848 326.643C386.848 326.643 368.396 317.805 358.422 320.228C358.422 320.228 352.137 297.735 348.821 292.438C345.505 287.114 350.426 274.63 350.426 274.63C350.426 274.63 355.105 267.15 361.39 264.036Z" fill="#4385D8"/>
<path d="M411.049 270.211L400.059 302.26C399.978 302.5 399.925 302.766 399.898 303.005L397.277 345.143L351.362 346.154L337.991 394.627C337.589 396.091 337.857 397.662 338.739 398.913C339.328 399.738 340.157 400.456 341.307 400.59C344.221 400.936 403.161 400.59 403.161 400.59V398.167C403.161 396.969 402.144 395.985 400.914 395.985H345.826C344.917 395.985 344.034 395.585 343.499 394.893C343.179 394.494 342.938 393.962 343.018 393.403C343.259 391.859 355.025 352.356 355.025 352.356L399.417 351.584C401.449 351.558 403.08 349.987 403.161 348.018L405.086 302.659C405.086 302.366 405.14 302.074 405.22 301.807L414.205 271.169C414.205 271.169 415.141 269.04 413.429 268.827C411.691 268.667 411.263 269.652 411.049 270.211Z" fill="#5E5E5B"/>
<path d="M351.148 347.086C351.148 347.086 351.122 343.599 355.935 343.333C361.471 343.04 397.439 342.8 397.439 342.8L397.198 346.527L351.148 347.086Z" fill="#C59661"/>
<path d="M328.926 318.551V320.174H250.732V318.551C250.732 317.033 251.749 315.782 253.032 315.782H326.653C327.883 315.809 328.926 317.033 328.926 318.551Z" fill="#C59661"/>
<path d="M278.784 399.818H255.145V396.064H274.987C277.1 396.064 278.784 397.741 278.784 399.818Z" fill="#7B6F66"/>
<path d="M259.798 320.174H256.669V399.791H259.798V320.174Z" fill="#7B6F66"/>
<path d="M266.056 320.174H262.927V399.791H266.056V320.174Z" fill="#7B6F66"/>
<path d="M349.678 264.302C349.945 264.94 350.239 265.792 350.507 266.75C352.111 266.085 355.186 263.263 355.293 263.184C354.01 263.663 349.678 264.302 349.678 264.302Z" fill="#997761"/>
<path d="M295.739 320.174H239.875V318.551C239.875 317.033 241.185 315.782 242.817 315.782H286.994L295.739 320.174Z" fill="#F7C29E"/>
<path d="M355.4 274.736C355.4 274.736 352.164 279.315 350.158 282.775C347.885 286.715 345.639 290.574 345.158 291.453C344.141 293.236 340.585 294.168 339.007 294.86C337.563 295.472 313.361 308.382 313.041 308.356C312.746 308.329 315.635 313.147 315.635 313.147C315.635 313.147 349.249 303.564 350.747 302.18C352.244 300.796 356.737 294.541 358.582 291.985C360.32 289.536 363.021 285.517 364.439 283.76C366.016 281.817 369.359 275.189 365.134 271.888C359.705 267.656 356.71 272.793 355.4 274.736Z" fill="#4385D8"/>
<path d="M364.6 283.521C364.6 283.521 360.722 294.008 358.369 297.602C356.042 301.169 353.448 304.15 353.448 304.15L352.191 300.53C352.218 300.53 362.273 286.768 364.6 283.521Z" fill="#46688D"/>
<path d="M210.806 388.079C210.806 388.079 212.303 390.874 213.293 391.965C214.282 393.083 218.026 395.053 218.053 398.327C218.08 401.894 211.715 400.909 209.228 400.776C206.741 400.643 206.554 398.753 205.511 396.73C204.468 394.707 203.398 395.053 203.211 393.429C203.024 391.806 204.227 388.079 204.227 388.079H210.806Z" fill="#26283A"/>
<path d="M172.994 387.759C172.994 387.759 169.945 391.166 166.816 391.885C163.714 392.604 161.548 393.509 161.522 395.452C161.495 397.395 170.453 398.7 174.01 396.73C179.305 393.802 179.866 394.68 180.455 393.216C181.043 391.752 179.759 387.812 179.786 387.36C179.84 386.748 172.994 387.759 172.994 387.759Z" fill="#26283A"/>
<path d="M173.342 386.135C173.342 386.135 172.941 387.733 172.994 387.759C173.048 387.786 180.001 388.611 179.787 387.333C179.626 386.295 179.385 385.177 179.385 385.177L173.342 386.135Z" fill="#807F7D"/>
<path d="M204.335 387.014C204.335 387.014 204.041 388.531 204.094 388.558C204.148 388.585 211.128 389.836 211.101 388.585C211.074 387.573 210.459 386.402 210.459 386.402L204.335 387.014Z" fill="#807F7D"/>
<path d="M179.652 290.734C179.652 290.734 177.139 315.143 175.828 323.502C174.304 333.271 173.769 341.336 173.341 346.394C172.807 352.756 172.7 384.033 172.325 385.896C171.951 387.759 180.695 386.402 180.695 386.402C180.695 386.402 185.001 345.542 186.605 338.754C188.103 332.446 193.638 305.295 195.002 307.025C196.366 308.755 198.051 338.701 199.067 343.679C200.083 348.656 203.132 387.6 203.132 387.6C203.132 387.6 210.085 388.984 211.93 387.413C211.93 387.413 212.759 353.847 212.117 344.531C211.876 340.964 216.289 301.914 210.62 286.209C207.625 277.904 179.652 290.734 179.652 290.734Z" fill="#2E3048"/>
<path d="M202.33 285.331C202.33 285.331 200.645 282.802 198.854 282.482C197.062 282.163 223.43 269.466 223.349 264.941C223.296 261.267 214.123 254.479 214.123 254.479V254.426C213.936 255.145 210.914 266.005 210.834 270.85C210.727 275.881 211.128 293.13 211.128 293.13L204.363 294.94L182.782 295.126L177.861 293.13C177.861 293.13 178.396 287.567 178.61 283.68C178.744 281.205 179.225 276.759 179.091 272.447C179.091 272.447 179.172 267.895 178.717 265.926C178.664 257.274 178.129 248.677 178.129 248.677C177.835 244.737 177.621 241.09 177.514 237.656C178.476 237.151 179.6 236.565 180.536 236.139C183.37 234.808 187.328 232.998 189.842 231.827C191.312 231.161 192.783 230.656 192.783 230.656C192.783 230.656 202.918 229.697 203.721 229.751C203.988 229.777 205.245 230.203 206.903 230.842C210.486 232.2 217.413 234.968 218.509 235.74C220.114 236.884 230.703 264.781 230.864 266.697C231.185 270.131 202.33 285.331 202.33 285.331Z" fill="#D8D6E1"/>
<path d="M178.53 291.293C178.53 291.293 193.344 292.544 206.341 291.293V295.525C206.341 295.525 187.007 297.362 177.888 294.727L178.53 291.293Z" fill="#232536"/>
<path d="M177.298 237.576C177.405 241.063 177.592 244.79 177.887 248.81C177.887 248.81 178.154 258.579 178.742 267.842C178.929 269.173 179.036 270.53 178.929 271.915C178.796 273.725 178.582 275.694 178.341 277.771C178.341 277.797 178.341 277.824 178.341 277.851C178.288 278.33 178.234 278.835 178.154 279.341V279.368C176.897 289.696 174.758 301.541 173.635 305.108C173.394 305.853 174.223 306.546 174.784 307.078L178.849 309.633C178.849 309.633 180.534 294.328 181.069 289.11C181.604 284.106 183.288 277.371 184.037 270.823C184.973 262.518 186.257 254.373 186.952 249.528C188.77 236.938 191.177 231.294 191.177 231.294C190.027 231.587 177.298 237.576 177.298 237.576Z" fill="#4385D8"/>
<path d="M220.327 263.663C222.092 267.496 204.201 274.337 204.602 275.295C205.565 277.558 209.523 282.19 209.523 282.19C209.523 282.19 233.083 270.584 232.815 267.975C232.628 266.059 221.584 237.124 219.979 235.98C219.043 235.314 212.117 232.865 208.721 231.534C208.106 231.295 205.993 230.496 205.431 230.283C204.709 231.082 199.735 236.539 197.997 257.142C197.703 260.602 198.639 267.975 199.254 273.965C199.923 280.353 200.645 285.357 201.206 290.708C202.276 301.249 203.025 309.66 203.025 309.66L213.561 304.975C215.272 304.124 218.214 301.914 217.572 300.131C215.139 293.343 211.475 280.46 211.475 274.497C211.475 274.497 213.187 258.047 214.123 254.826C214.123 254.772 218.374 259.351 220.327 263.663Z" fill="#4385D8"/>
<path d="M202.81 230.789C202.81 230.789 202.89 227.328 204.227 220.328C204.575 218.464 193.29 225.252 193.29 225.252C193.29 225.252 193.317 225.918 193.344 226.796C193.344 227.275 193.37 227.807 193.37 228.34C193.37 228.526 193.37 228.713 193.37 228.899C193.37 229.405 193.344 229.857 193.29 230.283C193.237 230.709 192.996 231.428 192.916 231.641C192.434 232.705 199.013 233.504 202.81 230.789Z" fill="#DBA686"/>
<path d="M195.778 234.436L193.906 236.938C193.906 236.938 195.003 238.402 196.955 237.31L195.778 234.436Z" fill="#2E3048"/>
<path d="M194.415 237.017C194.415 237.017 187.328 264.222 188.772 285.384L191.152 289.563L193.399 285.171C193.399 285.171 194.014 247.292 195.966 236.938L194.415 237.017Z" fill="#2E3048"/>
<path d="M193.771 232.093L195.777 234.436C195.777 234.436 198.986 233.824 199.949 232.147C200.885 230.47 193.771 232.093 193.771 232.093Z" fill="#DBA686"/>
<path d="M193.318 230.043C193.318 230.043 193.558 231.827 195.778 234.409L193.345 237.656L192.034 230.895L193.318 230.043Z" fill="#C1BFC9"/>
<path d="M203.026 228.074C203.026 228.074 199.014 233.158 195.752 234.436L197.276 238.162L204.176 229.857L203.026 228.074Z" fill="#C1BFC9"/>
<path d="M136.036 265.686C136.036 265.686 128.602 266.538 128.174 267.017C127.746 267.496 127.853 267.895 128.549 267.842C129.244 267.789 135.769 267.23 135.769 267.23C135.769 267.23 127.238 269.732 126.811 270.052C126.543 270.238 126.704 271.01 127.078 271.036C127.452 271.036 136.09 269.04 136.09 269.04C136.09 269.04 128.148 271.382 127.853 271.755C127.613 272.075 127.934 272.767 128.522 272.634C129.137 272.5 136.652 270.744 136.652 270.744C136.652 270.744 131.009 272.82 130.956 273.299C130.929 273.592 131.036 274.257 132.453 273.672C133.897 273.086 137.454 272.075 137.454 272.075L136.036 265.686Z" fill="#F7C29E"/>
<path d="M144.834 266.059C144.834 266.059 142.347 266.192 141.599 264.941C140.957 263.876 139.379 262.918 138.898 262.625C138.256 262.225 136.678 260.309 136.223 261.081C135.769 261.853 138.684 264.355 139.192 264.994C139.7 265.633 136.143 265.393 135.475 265.872C134.833 266.351 135.181 272.207 137.614 272.101C140.074 271.994 142.481 270.238 142.936 270.318C143.364 270.371 144.727 270.291 144.727 270.291L144.834 266.059Z" fill="#F7C29E"/>
<path d="M143.819 271.861C143.819 271.861 162.057 269.306 166.095 268.321C167.967 267.869 170.427 265.287 172.781 262.279C173.556 261.294 174.305 260.229 175.027 259.191C177.888 255.065 180.161 251.099 180.161 251.099C180.161 251.099 188.665 241.197 181.846 236.778C181.846 236.778 178.931 236.725 177.327 237.577C175.669 238.455 172.166 245.775 171.577 247.053C170.989 248.357 164.517 260.362 164.089 260.628C163.662 260.894 157.217 262.305 154.355 262.891C150.184 263.743 142.375 265.366 142.375 265.366L143.819 271.861Z" fill="#4385D8"/>
<path d="M189.459 296.743H196.385V291.499H189.459V296.743Z" fill="#3E4265"/>
<path d="M201.046 285.65C201.046 285.65 201.901 285.623 202.276 285.411C202.276 285.411 202.918 285.011 203.399 284.745C203.559 284.665 203.693 284.585 203.773 284.559C204.148 284.399 205.03 284.186 205.859 283.574C206.662 282.962 209.309 280.486 209.309 280.486L207.597 277.877L206.795 275.295C206.795 275.295 200.618 275.908 199.816 276.387C199.735 276.44 199.655 276.493 199.602 276.547C198.933 277.026 198.666 277.664 198.345 277.957C198.238 278.064 197.168 279.208 197.222 279.661C197.302 280.3 197.623 280.726 198.024 280.912C198.024 280.912 198.238 282.163 198.906 282.722C198.906 282.722 199.067 283.893 200.083 284.346C200.03 284.346 200.35 285.517 201.046 285.65Z" fill="#DCA787"/>
<path d="M209.523 282.163C209.523 282.163 206.1 279.368 204.229 275.269L214.765 269.519L218.669 277.425L209.523 282.163Z" fill="#4385D8"/>
<path d="M187.355 208.03C187.355 208.03 184.868 212.608 186.098 213.327C187.114 213.912 184.921 218.411 184.627 219.13C184.333 219.875 186.472 220.407 186.927 220.86C187.382 221.339 188.719 227.142 190.484 227.328C192.249 227.515 200.138 224.773 202.277 222.537C204.416 220.301 206.181 210.266 204.764 206.007C203.32 201.801 191.741 200.044 187.355 208.03Z" fill="#F7C29E"/>
<path d="M186.846 209.041C186.846 209.041 184.306 204.09 188.905 200.443C193.505 196.77 201.982 203.212 202.945 203.451C203.908 203.691 209.336 204.064 206.582 213.54C204.229 221.685 203.908 222.031 203.908 222.031C203.908 222.031 202.143 217.32 201.153 216.601C199.602 215.483 196.206 215.749 196.206 215.749C196.206 215.749 197.837 211.464 195.297 210.851C192.756 210.212 189.414 208.083 186.846 209.041Z" fill="#234077"/>
<path d="M198.907 213.273C199.121 212.688 199.843 210.159 202.036 211.65C204.202 213.14 200.672 217.905 200.298 217.958C199.923 218.012 197.035 218.225 198.907 213.273Z" fill="#F7C29E"/>
<path d="M193.371 228.34C193.371 228.526 193.371 228.712 193.371 228.899C199.816 226.743 201.073 223.495 201.073 223.495C199.067 224.906 193.345 226.796 193.345 226.796C193.371 227.275 193.371 227.807 193.371 228.34Z" fill="#997761"/>
<defs>
<linearGradient id="paint0_linear" x1="211.573" y1="-74.4966" x2="211.573" y2="37.6511" gradientUnits="userSpaceOnUse">
<stop stop-color="#E0E8EE"/>
<stop offset="1" stop-color="#FCF8F4"/>
</linearGradient>
</defs>
</svg>
