<svg width="150" height="44" viewBox="0 0 150 44" fill="none" xmlns="http://www.w3.org/2000/svg">
<g filter="url(#filter0_d)">
<rect x="4" width="142" height="36" rx="18" fill="#E5531C"/>
</g>
<path d="M52.937 21.5205H57.7783V23H51.084V12.3359H52.937V21.5205ZM60.6204 23H58.8406V11.75H60.6204V23ZM67.0001 23C66.922 22.8486 66.8536 22.6021 66.795 22.2603C66.2286 22.8511 65.5353 23.1465 64.7149 23.1465C63.919 23.1465 63.2696 22.9194 62.7667 22.4653C62.2638 22.0112 62.0123 21.4497 62.0123 20.7808C62.0123 19.936 62.3248 19.2891 62.9498 18.8398C63.5797 18.3857 64.4781 18.1587 65.6451 18.1587H66.7364V17.6387C66.7364 17.2285 66.6217 16.9014 66.3922 16.6572C66.1627 16.4082 65.8136 16.2837 65.3448 16.2837C64.9396 16.2837 64.6075 16.3862 64.3487 16.5913C64.0899 16.7915 63.9605 17.0479 63.9605 17.3604H62.1808C62.1808 16.9258 62.3248 16.5205 62.6129 16.1445C62.901 15.7637 63.2916 15.4658 63.7848 15.251C64.2828 15.0361 64.837 14.9287 65.4474 14.9287C66.3751 14.9287 67.1148 15.1631 67.6666 15.6318C68.2184 16.0957 68.5016 16.75 68.5162 17.5947V21.1689C68.5162 21.8818 68.6163 22.4507 68.8165 22.8755V23H67.0001ZM65.0445 21.7183C65.3961 21.7183 65.7257 21.6328 66.0333 21.4619C66.3458 21.291 66.5802 21.0615 66.7364 20.7734V19.2793H65.777C65.1178 19.2793 64.6222 19.394 64.2901 19.6235C63.9581 19.853 63.7921 20.1777 63.7921 20.5977C63.7921 20.9395 63.9044 21.2129 64.129 21.418C64.3585 21.6182 64.6637 21.7183 65.0445 21.7183ZM71.7538 15.0752L71.8051 15.9028C72.3617 15.2534 73.1234 14.9287 74.0902 14.9287C75.1498 14.9287 75.8749 15.334 76.2655 16.1445C76.8417 15.334 77.6522 14.9287 78.6972 14.9287C79.5712 14.9287 80.2206 15.1704 80.6454 15.6538C81.0751 16.1372 81.2948 16.8501 81.3046 17.7925V23H79.5248V17.8438C79.5248 17.3408 79.4149 16.9722 79.1952 16.7378C78.9755 16.5034 78.6117 16.3862 78.1039 16.3862C77.6986 16.3862 77.3666 16.4961 77.1078 16.7158C76.8539 16.9307 76.6757 17.2139 76.5731 17.5654L76.5805 23H74.8007V17.7852C74.7763 16.8525 74.3002 16.3862 73.3725 16.3862C72.6596 16.3862 72.1542 16.6768 71.8563 17.2578V23H70.0766V15.0752H71.7538ZM87.5671 23C87.489 22.8486 87.4206 22.6021 87.362 22.2603C86.7956 22.8511 86.1022 23.1465 85.2819 23.1465C84.486 23.1465 83.8366 22.9194 83.3337 22.4653C82.8308 22.0112 82.5793 21.4497 82.5793 20.7808C82.5793 19.936 82.8918 19.2891 83.5168 18.8398C84.1467 18.3857 85.0451 18.1587 86.2121 18.1587H87.3034V17.6387C87.3034 17.2285 87.1887 16.9014 86.9592 16.6572C86.7297 16.4082 86.3806 16.2837 85.9118 16.2837C85.5065 16.2837 85.1745 16.3862 84.9157 16.5913C84.6569 16.7915 84.5275 17.0479 84.5275 17.3604H82.7478C82.7478 16.9258 82.8918 16.5205 83.1799 16.1445C83.468 15.7637 83.8586 15.4658 84.3518 15.251C84.8498 15.0361 85.404 14.9287 86.0144 14.9287C86.9421 14.9287 87.6818 15.1631 88.2336 15.6318C88.7854 16.0957 89.0686 16.75 89.0832 17.5947V21.1689C89.0832 21.8818 89.1833 22.4507 89.3835 22.8755V23H87.5671ZM85.6115 21.7183C85.9631 21.7183 86.2927 21.6328 86.6003 21.4619C86.9128 21.291 87.1472 21.0615 87.3034 20.7734V19.2793H86.3439C85.6848 19.2793 85.1892 19.394 84.8571 19.6235C84.5251 19.853 84.3591 20.1777 84.3591 20.5977C84.3591 20.9395 84.4714 21.2129 84.696 21.418C84.9255 21.6182 85.2307 21.7183 85.6115 21.7183ZM94.7964 16.7012C94.562 16.6621 94.3203 16.6426 94.0713 16.6426C93.2559 16.6426 92.7065 16.9551 92.4233 17.5801V23H90.6436V15.0752H92.3428L92.3867 15.9614C92.8164 15.2729 93.4121 14.9287 94.1738 14.9287C94.4277 14.9287 94.6377 14.9629 94.8037 15.0312L94.7964 16.7012ZM107.402 21.6157C107.016 22.1187 106.482 22.4995 105.798 22.7583C105.114 23.0171 104.338 23.1465 103.469 23.1465C102.575 23.1465 101.784 22.9438 101.096 22.5386C100.407 22.1333 99.8751 21.5547 99.4991 20.8027C99.128 20.0459 98.9352 19.1646 98.9205 18.1587V17.3237C98.9205 15.7124 99.3063 14.4551 100.078 13.5518C100.849 12.6436 101.926 12.1895 103.308 12.1895C104.494 12.1895 105.437 12.4824 106.135 13.0684C106.833 13.6543 107.253 14.499 107.395 15.6025H105.578C105.373 14.3184 104.629 13.6763 103.344 13.6763C102.514 13.6763 101.882 13.9766 101.447 14.5771C101.018 15.1729 100.796 16.0493 100.781 17.2065V18.0269C100.781 19.1792 101.023 20.0752 101.506 20.7148C101.994 21.3496 102.671 21.667 103.535 21.667C104.482 21.667 105.156 21.4521 105.556 21.0225V18.9351H103.359V17.5288H107.402V21.6157ZM113.115 16.7012C112.881 16.6621 112.639 16.6426 112.39 16.6426C111.575 16.6426 111.025 16.9551 110.742 17.5801V23H108.962V15.0752H110.662L110.705 15.9614C111.135 15.2729 111.731 14.9287 112.493 14.9287C112.746 14.9287 112.956 14.9629 113.122 15.0312L113.115 16.7012ZM118.74 22.2236C118.218 22.8389 117.476 23.1465 116.514 23.1465C115.654 23.1465 115.003 22.895 114.558 22.3921C114.119 21.8892 113.899 21.1616 113.899 20.2095V15.0752H115.679V20.1875C115.679 21.1934 116.096 21.6963 116.931 21.6963C117.796 21.6963 118.379 21.3862 118.682 20.7661V15.0752H120.462V23H118.784L118.74 22.2236ZM117.722 11.75H119.751L117.722 13.9692H116.294L117.722 11.75ZM126.709 23C126.631 22.8486 126.563 22.6021 126.504 22.2603C125.938 22.8511 125.245 23.1465 124.424 23.1465C123.628 23.1465 122.979 22.9194 122.476 22.4653C121.973 22.0112 121.722 21.4497 121.722 20.7808C121.722 19.936 122.034 19.2891 122.659 18.8398C123.289 18.3857 124.188 18.1587 125.354 18.1587H126.446V17.6387C126.446 17.2285 126.331 16.9014 126.102 16.6572C125.872 16.4082 125.523 16.2837 125.054 16.2837C124.649 16.2837 124.317 16.3862 124.058 16.5913C123.799 16.7915 123.67 17.0479 123.67 17.3604H121.89C121.89 16.9258 122.034 16.5205 122.322 16.1445C122.61 15.7637 123.001 15.4658 123.494 15.251C123.992 15.0361 124.546 14.9287 125.157 14.9287C126.084 14.9287 126.824 15.1631 127.376 15.6318C127.928 16.0957 128.211 16.75 128.226 17.5947V21.1689C128.226 21.8818 128.326 22.4507 128.526 22.8755V23H126.709ZM124.754 21.7183C125.105 21.7183 125.435 21.6328 125.743 21.4619C126.055 21.291 126.29 21.0615 126.446 20.7734V19.2793H125.486C124.827 19.2793 124.332 19.394 124 19.6235C123.667 19.853 123.501 20.1777 123.501 20.5977C123.501 20.9395 123.614 21.2129 123.838 21.418C124.068 21.6182 124.373 21.7183 124.754 21.7183Z" fill="white"/>
<path d="M40.9716 18.2036H32.5391L36.4273 9.32054L37.8572 12.0775C37.1422 12.5868 36.6819 13.4046 36.6819 14.3252C36.6819 15.8041 37.9061 17.0333 39.3899 17.0333C40.4134 17.0333 41.3291 16.4701 41.7405 15.5544C41.9951 15.0451 41.8433 14.433 41.334 14.1783C40.8247 13.9237 40.2126 14.1294 39.958 14.5848C39.8551 14.7904 39.6005 14.9423 39.3458 14.9423C38.9394 14.9423 38.6309 14.6337 38.6309 14.2763C38.6309 13.9188 38.9394 13.6054 39.3458 13.6103C39.8698 13.6201 40.7464 12.9296 40.2126 12.0775L37.1961 6.50969C37.0247 6.10324 36.0061 5.55478 35.4087 6.61252L30.3452 18.2036H30.2522V13.3556C30.2522 12.7925 29.7919 12.3322 29.2287 12.3322H24.5815C24.273 12.3322 23.9694 12.5378 23.7637 12.7925L18.1518 21.0096C18.049 21.1614 18 21.3671 18 21.5727V26.1661C18 26.7292 18.4603 27.1896 19.0235 27.1896H20.3505C20.8158 28.8104 22.3093 29.9955 24.082 29.9955C25.8743 29.9955 27.3777 28.786 27.8233 27.1357H31.927C32.3726 28.786 33.8808 29.9955 35.6682 29.9955C37.4556 29.9955 38.9639 28.786 39.4095 27.1357H40.9765C41.5397 27.1357 42 26.6754 42 26.1661V19.2222C41.9951 18.6639 41.5348 18.2036 40.9716 18.2036ZM24.0771 27.9535C23.0047 27.9535 22.1869 27.1357 22.1869 26.1171C22.1869 25.0985 23.0537 24.2808 24.0771 24.2808C25.1006 24.2808 25.9674 25.0985 25.9674 26.1171C25.9674 27.1357 25.0957 27.9535 24.0771 27.9535ZM35.6633 27.9535C34.5909 27.9535 33.7731 27.1357 33.7731 26.1171C33.7731 25.0985 34.6399 24.2808 35.6633 24.2808C36.7358 24.2808 37.5536 25.0985 37.5536 26.1171C37.5536 27.1357 36.6868 27.9535 35.6633 27.9535ZM40.002 25.0937H39.4046C38.959 23.4434 37.4507 22.2338 35.6633 22.2338C33.8759 22.2338 32.3677 23.4434 31.9221 25.0937H27.8184C27.3728 23.4434 25.8645 22.2338 24.0771 22.2338C22.2701 22.2338 20.7472 23.4679 20.3212 25.1426H19.9931V21.8763L25.1496 14.2714H28.264V19.1194C28.264 19.6825 28.7243 20.1428 29.2875 20.1428H40.0069V25.0937H40.002Z" fill="white"/>
<defs>
<filter id="filter0_d" x="0" y="0" width="150" height="44" filterUnits="userSpaceOnUse" color-interpolation-filters="sRGB">
<feFlood flood-opacity="0" result="BackgroundImageFix"/>
<feColorMatrix in="SourceAlpha" type="matrix" values="0 0 0 0 0 0 0 0 0 0 0 0 0 0 0 0 0 0 127 0"/>
<feOffset dy="4"/>
<feGaussianBlur stdDeviation="2"/>
<feColorMatrix type="matrix" values="0 0 0 0 0 0 0 0 0 0 0 0 0 0 0 0 0 0 0.25 0"/>
<feBlend mode="normal" in2="BackgroundImageFix" result="effect1_dropShadow"/>
<feBlend mode="normal" in="SourceGraphic" in2="effect1_dropShadow" result="shape"/>
</filter>
</defs>
</svg>
