<svg width="23" height="19" viewBox="0 0 23 19" fill="none" xmlns="http://www.w3.org/2000/svg">
<path d="M8.76897 18.1552C7.82093 18.1552 6.84513 18.0784 5.86347 17.9245C4.13449 17.6531 2.38427 16.7483 1.88901 16.4774L0.590057 15.767L1.99639 15.3043C3.53369 14.7986 4.46885 14.4849 5.62646 13.9936C4.46734 13.4321 3.574 12.4219 3.14397 11.1161L2.81681 10.1225L3.08509 10.1635C2.83069 9.90694 2.62981 9.64658 2.47409 9.40981C1.92029 8.56831 1.62708 7.54008 1.68947 6.65892L1.75102 5.79166L2.27003 5.99279C2.05109 5.57915 1.89286 5.1374 1.79986 4.6744C1.57322 3.54527 1.76289 2.34569 2.33409 1.29671L2.7862 0.466421L3.39085 1.19296C5.30315 3.49106 7.72526 4.85428 10.6 5.25336C10.4826 4.44366 10.5705 3.66223 10.8617 2.96179C11.2008 2.14623 11.8039 1.45466 12.6054 0.961714C13.4956 0.414382 14.5751 0.149166 15.6451 0.214926C16.7803 0.284702 17.811 0.710219 18.6295 1.4463C19.0293 1.34239 19.3238 1.23145 19.7219 1.08152C19.9614 0.991331 20.2331 0.888926 20.5729 0.771796L21.8254 0.340088L21.0087 2.67365C21.0625 2.66914 21.118 2.66529 21.1761 2.66278L22.5135 2.6022L21.723 3.68298C21.6777 3.74489 21.6662 3.76246 21.6501 3.78672C21.5864 3.88277 21.5071 4.00224 20.4221 5.45165C20.1504 5.81458 20.0148 6.28729 20.04 6.78291C20.1362 8.66637 19.9052 10.3704 19.3531 11.8476C18.8309 13.2451 18.0217 14.4442 16.9482 15.4116C15.6198 16.6083 13.926 17.4277 11.9135 17.8467C10.9263 18.0522 9.8662 18.1552 8.76897 18.1552Z" fill="white"/>
</svg>
