<svg width="23" height="23" viewBox="0 0 23 23" fill="none" xmlns="http://www.w3.org/2000/svg">
<path d="M22.8508 22.4946V22.4937H22.8563V14.4524C22.8563 10.5186 22.0095 7.48828 17.4111 7.48828C15.2005 7.48828 13.717 8.7015 13.1114 9.85169H13.0474V7.85554H8.68744V22.4937H13.2274V15.2454C13.2274 13.337 13.5891 11.4916 15.9523 11.4916C18.2807 11.4916 18.3154 13.6695 18.3154 15.3678V22.4946H22.8508Z" fill="white"/>
<path d="M1.29607 7.85742H5.84144V22.496H1.29607V7.85742Z" fill="white"/>
<path d="M3.56647 0.568359C2.11315 0.568359 0.933868 1.74781 0.933868 3.20133C0.933868 4.65485 2.11315 5.85897 3.56647 5.85897C5.01979 5.85897 6.19907 4.65485 6.19907 3.20133C6.19815 1.74781 5.01887 0.568359 3.56647 0.568359V0.568359Z" fill="white"/>
</svg>
