<svg width="23" height="23" viewBox="0 0 23 23" fill="none" xmlns="http://www.w3.org/2000/svg">
<path d="M16.5995 0.568359H6.54512C3.27282 0.568359 0.610687 3.23085 0.610687 6.50358V16.5595C0.610687 19.8321 3.27282 22.4946 6.54512 22.4946H16.5997C19.8718 22.4946 22.534 19.8321 22.534 16.5595V6.50358C22.534 3.23085 19.8718 0.568359 16.5995 0.568359V0.568359ZM11.5723 17.5267C8.2669 17.5267 5.57784 14.8373 5.57784 11.5315C5.57784 8.2256 8.2669 5.53618 11.5723 5.53618C14.8777 5.53618 17.5668 8.2256 17.5668 11.5315C17.5668 14.8373 14.8777 17.5267 11.5723 17.5267ZM17.7101 6.95006C16.7333 6.95006 15.9388 6.15547 15.9388 5.17853C15.9388 4.20159 16.7333 3.40683 17.7101 3.40683C18.6869 3.40683 19.4816 4.20159 19.4816 5.17853C19.4816 6.15547 18.6869 6.95006 17.7101 6.95006Z" fill="white"/>
<path d="M11.5723 7.14746C9.15462 7.14746 7.18753 9.11489 7.18753 11.5333C7.18753 13.9515 9.15462 15.9191 11.5723 15.9191C13.99 15.9191 15.957 13.9515 15.957 11.5333C15.957 9.11489 13.99 7.14746 11.5723 7.14746Z" fill="white"/>
</svg>
