<svg width="22" height="22" viewBox="0 0 22 22" fill="none" xmlns="http://www.w3.org/2000/svg">
<path d="M11.9167 11.9166H10.0833V6.41659H11.9167V11.9166ZM11.9167 15.5833H10.0833V13.7499H11.9167V15.5833ZM11 1.83325C9.79623 1.83325 8.60423 2.07035 7.49208 2.53102C6.37993 2.99169 5.3694 3.6669 4.5182 4.51811C2.79911 6.23719 1.83334 8.56877 1.83334 10.9999C1.83334 13.4311 2.79911 15.7626 4.5182 17.4817C5.3694 18.3329 6.37993 19.0081 7.49208 19.4688C8.60423 19.9295 9.79623 20.1666 11 20.1666C13.4312 20.1666 15.7627 19.2008 17.4818 17.4817C19.2009 15.7626 20.1667 13.4311 20.1667 10.9999C20.1667 9.79613 19.9296 8.60414 19.4689 7.49199C19.0082 6.37984 18.333 5.36931 17.4818 4.51811C16.6306 3.6669 15.6201 2.99169 14.5079 2.53102C13.3958 2.07035 12.2038 1.83325 11 1.83325Z" fill="#E5531C"/>
</svg>
