<svg width="69" height="64" viewBox="0 0 69 64" fill="none" xmlns="http://www.w3.org/2000/svg">
<g clip-path="url(#clip0)">
<path d="M56.5001 24.79C56.4112 24.6359 56.2827 24.5084 56.128 24.4205C55.9734 24.3326 55.798 24.2875 55.6201 24.29H12.6201C12.4422 24.2875 12.2669 24.3326 12.1122 24.4205C11.9575 24.5084 11.8291 24.6359 11.7401 24.79L6.87012 32.79H9.28012L13.1601 26.39H55.0001L59.0901 33H61.6201L56.5001 24.79Z" fill="#B4ADBB"/>
<path d="M34.0996 33.56C33.8344 33.56 33.58 33.4546 33.3925 33.2671C33.205 33.0796 33.0996 32.8252 33.0996 32.56V16.66C33.0996 16.3868 33.2081 16.1248 33.4013 15.9317C33.5945 15.7385 33.8564 15.63 34.1296 15.63C34.4028 15.63 34.6648 15.7385 34.8579 15.9317C35.0511 16.1248 35.1596 16.3868 35.1596 16.66V32.53C35.164 32.669 35.1394 32.8075 35.0873 32.9364C35.0352 33.0654 34.9568 33.1821 34.857 33.279C34.7572 33.376 34.6384 33.451 34.5079 33.4994C34.3775 33.5478 34.2385 33.5684 34.0996 33.56Z" fill="#B4ADBB"/>
<path d="M34.0995 16.66C38.7001 16.66 42.4295 12.9305 42.4295 8.33C42.4295 3.72947 38.7001 0 34.0995 0C29.499 0 25.7695 3.72947 25.7695 8.33C25.7695 12.9305 29.499 16.66 34.0995 16.66Z" fill="#2D2D7B"/>
<path d="M34.0998 11.88C36.0604 11.88 37.6498 10.2906 37.6498 8.33003C37.6498 6.36942 36.0604 4.78003 34.0998 4.78003C32.1392 4.78003 30.5498 6.36942 30.5498 8.33003C30.5498 10.2906 32.1392 11.88 34.0998 11.88Z" fill="#487C9F"/>
<path d="M15.32 64H1.1C0.808262 64 0.528473 63.8841 0.322183 63.6778C0.115893 63.4716 0 63.1918 0 62.9L0 33.63C0 33.3383 0.115893 33.0585 0.322183 32.8522C0.528473 32.6459 0.808262 32.53 1.1 32.53H15.32C15.464 32.53 15.6065 32.5585 15.7394 32.6139C15.8723 32.6694 15.993 32.7505 16.0943 32.8528C16.1957 32.9551 16.2757 33.0764 16.3299 33.2098C16.3841 33.3432 16.4113 33.4861 16.41 33.63V62.9C16.4113 63.044 16.3841 63.1868 16.3299 63.3202C16.2757 63.4536 16.1957 63.575 16.0943 63.6772C15.993 63.7795 15.8723 63.8607 15.7394 63.9161C15.6065 63.9715 15.464 64 15.32 64Z" fill="#EFF2FA"/>
<path d="M41.2104 64H27.0004C26.7087 64 26.4289 63.8841 26.2226 63.6778C26.0163 63.4716 25.9004 63.1918 25.9004 62.9V33.63C25.9004 33.3383 26.0163 33.0585 26.2226 32.8522C26.4289 32.6459 26.7087 32.53 27.0004 32.53H41.2104C41.5021 32.53 41.7819 32.6459 41.9882 32.8522C42.1945 33.0585 42.3104 33.3383 42.3104 33.63V62.9C42.3104 63.1918 42.1945 63.4716 41.9882 63.6778C41.7819 63.8841 41.5021 64 41.2104 64Z" fill="#EFF2FA"/>
<path d="M67.1001 64H52.8801C52.7361 64 52.5935 63.9715 52.4606 63.9161C52.3277 63.8607 52.2071 63.7795 52.1058 63.6772C52.0044 63.575 51.9244 63.4536 51.8702 63.3202C51.816 63.1868 51.7888 63.044 51.7901 62.9V33.63C51.7888 33.4861 51.816 33.3432 51.8702 33.2098C51.9244 33.0764 52.0044 32.9551 52.1058 32.8528C52.2071 32.7505 52.3277 32.6694 52.4606 32.6139C52.5935 32.5585 52.7361 32.53 52.8801 32.53H67.1001C67.3918 32.53 67.6716 32.6459 67.8779 32.8522C68.0842 33.0585 68.2001 33.3383 68.2001 33.63V62.9C68.2001 63.1918 68.0842 63.4716 67.8779 63.6778C67.6716 63.8841 67.3918 64 67.1001 64Z" fill="#EFF2FA"/>
<path d="M15.3196 64H13.5596V32.53H15.3196C15.4636 32.53 15.6061 32.5585 15.739 32.6139C15.8719 32.6694 15.9925 32.7505 16.0939 32.8528C16.1952 32.9551 16.2753 33.0764 16.3295 33.2098C16.3837 33.3432 16.4109 33.4861 16.4096 33.63V62.9C16.4109 63.044 16.3837 63.1868 16.3295 63.3202C16.2753 63.4536 16.1952 63.575 16.0939 63.6772C15.9925 63.7795 15.8719 63.8607 15.739 63.9161C15.6061 63.9715 15.4636 64 15.3196 64Z" fill="#E4EAF6"/>
<path d="M41.2098 64H39.3398V32.53H41.2098C41.5016 32.53 41.7814 32.6459 41.9877 32.8522C42.1939 33.0585 42.3098 33.3383 42.3098 33.63V62.9C42.3098 63.1918 42.1939 63.4716 41.9877 63.6778C41.7814 63.8841 41.5016 64 41.2098 64Z" fill="#E4EAF6"/>
<path d="M67.1 64H65V32.53H67.1C67.3917 32.53 67.6715 32.6459 67.8778 32.8522C68.0841 33.0585 68.2 33.3383 68.2 33.63V62.9C68.2 63.1918 68.0841 63.4716 67.8778 63.6778C67.6715 63.8841 67.3917 64 67.1 64Z" fill="#E4EAF6"/>
<path d="M6.13047 40.81H4.13047C3.85862 40.81 3.59791 40.702 3.40568 40.5098C3.21346 40.3176 3.10547 40.0569 3.10547 39.785C3.10547 39.5132 3.21346 39.2525 3.40568 39.0602C3.59791 38.868 3.85862 38.76 4.13047 38.76H6.13047C6.40232 38.76 6.66303 38.868 6.85525 39.0602C7.04748 39.2525 7.15547 39.5132 7.15547 39.785C7.15547 40.0569 7.04748 40.3176 6.85525 40.5098C6.66303 40.702 6.40232 40.81 6.13047 40.81Z" fill="#744C76"/>
<path d="M12.6896 45.62H4.08957C3.95431 45.62 3.82037 45.5934 3.69541 45.5416C3.57044 45.4898 3.45689 45.414 3.36125 45.3183C3.26561 45.2227 3.18974 45.1091 3.13797 44.9842C3.08621 44.8592 3.05957 44.7253 3.05957 44.59C3.05957 44.4547 3.08621 44.3208 3.13797 44.1958C3.18974 44.0709 3.26561 43.9573 3.36125 43.8617C3.45689 43.766 3.57044 43.6902 3.69541 43.6384C3.82037 43.5866 3.95431 43.56 4.08957 43.56H12.6896C12.9627 43.56 13.2247 43.6685 13.4179 43.8617C13.6111 44.0548 13.7196 44.3168 13.7196 44.59C13.7196 44.8632 13.6111 45.1252 13.4179 45.3183C13.2247 45.5115 12.9627 45.62 12.6896 45.62Z" fill="#744C76"/>
<path d="M12.6898 49.29H4.08984C3.82463 49.29 3.57027 49.1846 3.38274 48.9971C3.1952 48.8095 3.08984 48.5552 3.08984 48.29C3.08984 48.0248 3.1952 47.7704 3.38274 47.5829C3.57027 47.3953 3.82463 47.29 4.08984 47.29H12.6898C12.9551 47.29 13.2094 47.3953 13.397 47.5829C13.5845 47.7704 13.6898 48.0248 13.6898 48.29C13.6898 48.5552 13.5845 48.8095 13.397 48.9971C13.2094 49.1846 12.9551 49.29 12.6898 49.29Z" fill="#744C76"/>
<path d="M12.6896 53H4.08957C3.8164 53 3.55441 52.8915 3.36125 52.6983C3.16809 52.5052 3.05957 52.2432 3.05957 51.97C3.05957 51.6968 3.16809 51.4348 3.36125 51.2417C3.55441 51.0485 3.8164 50.94 4.08957 50.94H12.6896C12.9627 50.94 13.2247 51.0485 13.4179 51.2417C13.6111 51.4348 13.7196 51.6968 13.7196 51.97C13.7196 52.2432 13.6111 52.5052 13.4179 52.6983C13.2247 52.8915 12.9627 53 12.6896 53Z" fill="#744C76"/>
<path d="M12.6896 56.64H4.08957C3.8164 56.64 3.55441 56.5315 3.36125 56.3383C3.16809 56.1452 3.05957 55.8832 3.05957 55.61C3.05957 55.3368 3.16809 55.0749 3.36125 54.8817C3.55441 54.6885 3.8164 54.58 4.08957 54.58H12.6896C12.9627 54.58 13.2247 54.6885 13.4179 54.8817C13.6111 55.0749 13.7196 55.3368 13.7196 55.61C13.7196 55.8832 13.6111 56.1452 13.4179 56.3383C13.2247 56.5315 12.9627 56.64 12.6896 56.64Z" fill="#744C76"/>
<path d="M31.8404 40.81H29.8404C29.5686 40.81 29.3079 40.702 29.1156 40.5098C28.9234 40.3176 28.8154 40.0569 28.8154 39.785C28.8154 39.5132 28.9234 39.2525 29.1156 39.0602C29.3079 38.868 29.5686 38.76 29.8404 38.76H31.8404C32.1123 38.76 32.373 38.868 32.5652 39.0602C32.7574 39.2525 32.8654 39.5132 32.8654 39.785C32.8654 40.0569 32.7574 40.3176 32.5652 40.5098C32.373 40.702 32.1123 40.81 31.8404 40.81Z" fill="#744C76"/>
<path d="M38.3995 45.62H29.7995C29.5264 45.62 29.2644 45.5115 29.0712 45.3183C28.878 45.1252 28.7695 44.8632 28.7695 44.59C28.7695 44.3168 28.878 44.0548 29.0712 43.8617C29.2644 43.6685 29.5264 43.56 29.7995 43.56H38.3995C38.6727 43.56 38.9347 43.6685 39.1278 43.8617C39.321 44.0548 39.4295 44.3168 39.4295 44.59C39.4295 44.8632 39.321 45.1252 39.1278 45.3183C38.9347 45.5115 38.6727 45.62 38.3995 45.62Z" fill="#744C76"/>
<path d="M38.3998 49.29H29.7998C29.5346 49.29 29.2802 49.1846 29.0927 48.9971C28.9052 48.8095 28.7998 48.5552 28.7998 48.29C28.7998 48.0248 28.9052 47.7704 29.0927 47.5829C29.2802 47.3953 29.5346 47.29 29.7998 47.29H38.3998C38.665 47.29 38.9194 47.3953 39.1069 47.5829C39.2944 47.7704 39.3998 48.0248 39.3998 48.29C39.3998 48.5552 39.2944 48.8095 39.1069 48.9971C38.9194 49.1846 38.665 49.29 38.3998 49.29Z" fill="#744C76"/>
<path d="M38.3995 53H29.7995C29.5264 53 29.2644 52.8915 29.0712 52.6983C28.878 52.5052 28.7695 52.2432 28.7695 51.97C28.7695 51.6968 28.878 51.4348 29.0712 51.2417C29.2644 51.0485 29.5264 50.94 29.7995 50.94H38.3995C38.6727 50.94 38.9347 51.0485 39.1278 51.2417C39.321 51.4348 39.4295 51.6968 39.4295 51.97C39.4295 52.2432 39.321 52.5052 39.1278 52.6983C38.9347 52.8915 38.6727 53 38.3995 53Z" fill="#744C76"/>
<path d="M38.3995 56.64H29.7995C29.5264 56.64 29.2644 56.5315 29.0712 56.3383C28.878 56.1452 28.7695 55.8832 28.7695 55.61C28.7695 55.3368 28.878 55.0749 29.0712 54.8817C29.2644 54.6885 29.5264 54.58 29.7995 54.58H38.3995C38.6727 54.58 38.9347 54.6885 39.1278 54.8817C39.321 55.0749 39.4295 55.3368 39.4295 55.61C39.4295 55.8832 39.321 56.1452 39.1278 56.3383C38.9347 56.5315 38.6727 56.64 38.3995 56.64Z" fill="#744C76"/>
<path d="M57.5504 40.81H55.5504C55.2785 40.81 55.0178 40.702 54.8256 40.5098C54.6334 40.3176 54.5254 40.0569 54.5254 39.785C54.5254 39.5132 54.6334 39.2525 54.8256 39.0602C55.0178 38.868 55.2785 38.76 55.5504 38.76H57.5504C57.8222 38.76 58.0829 38.868 58.2752 39.0602C58.4674 39.2525 58.5754 39.5132 58.5754 39.785C58.5754 40.0569 58.4674 40.3176 58.2752 40.5098C58.0829 40.702 57.8222 40.81 57.5504 40.81Z" fill="#E5531C"/>
<path d="M64.1102 45.62H55.5202C55.2471 45.62 54.9851 45.5115 54.7919 45.3183C54.5987 45.1252 54.4902 44.8632 54.4902 44.59C54.4902 44.3168 54.5987 44.0548 54.7919 43.8617C54.9851 43.6685 55.2471 43.56 55.5202 43.56H64.1102C64.3834 43.56 64.6454 43.6685 64.8386 43.8617C65.0317 44.0548 65.1402 44.3168 65.1402 44.59C65.1402 44.8632 65.0317 45.1252 64.8386 45.3183C64.6454 45.5115 64.3834 45.62 64.1102 45.62Z" fill="#E5531C"/>
<path d="M64.1095 49.29H55.5195C55.2543 49.29 55 49.1846 54.8124 48.9971C54.6249 48.8095 54.5195 48.5552 54.5195 48.29C54.5195 48.0248 54.6249 47.7704 54.8124 47.5829C55 47.3953 55.2543 47.29 55.5195 47.29H64.1095C64.3747 47.29 64.6291 47.3953 64.8166 47.5829C65.0042 47.7704 65.1095 48.0248 65.1095 48.29C65.1095 48.5552 65.0042 48.8095 64.8166 48.9971C64.6291 49.1846 64.3747 49.29 64.1095 49.29Z" fill="#E5531C"/>
<path d="M64.1102 53H55.5202C55.2471 53 54.9851 52.8915 54.7919 52.6983C54.5987 52.5052 54.4902 52.2432 54.4902 51.97C54.4902 51.6968 54.5987 51.4348 54.7919 51.2417C54.9851 51.0485 55.2471 50.94 55.5202 50.94H64.1102C64.3834 50.94 64.6454 51.0485 64.8386 51.2417C65.0317 51.4348 65.1402 51.6968 65.1402 51.97C65.1402 52.2432 65.0317 52.5052 64.8386 52.6983C64.6454 52.8915 64.3834 53 64.1102 53Z" fill="#E5531C"/>
<path d="M64.1102 56.64H55.5202C55.2471 56.64 54.9851 56.5315 54.7919 56.3383C54.5987 56.1452 54.4902 55.8832 54.4902 55.61C54.4902 55.3368 54.5987 55.0749 54.7919 54.8817C54.9851 54.6885 55.2471 54.58 55.5202 54.58H64.1102C64.3834 54.58 64.6454 54.6885 64.8386 54.8817C65.0317 55.0749 65.1402 55.3368 65.1402 55.61C65.1402 55.8832 65.0317 56.1452 64.8386 56.3383C64.6454 56.5315 64.3834 56.64 64.1102 56.64Z" fill="#E5531C"/>
</g>
<defs>
<clipPath id="clip0">
<rect width="68.2" height="64" fill="white"/>
</clipPath>
</defs>
</svg>
