<svg width="158" height="96" viewBox="0 0 158 96" fill="none" xmlns="http://www.w3.org/2000/svg">
<path d="M43.0293 61.8643V65H40.8013V55.7578H44.4893C45.196 55.7578 45.8201 55.889 46.3618 56.1514C46.9077 56.4095 47.3288 56.7798 47.625 57.2622C47.9255 57.7404 48.0757 58.2842 48.0757 58.8936C48.0757 59.7949 47.752 60.5164 47.1045 61.0581C46.4613 61.5955 45.5768 61.8643 44.4512 61.8643H43.0293ZM43.0293 60.144H44.4893C44.9209 60.144 45.2489 60.0361 45.4731 59.8203C45.7017 59.6045 45.8159 59.2998 45.8159 58.9062C45.8159 58.4746 45.6995 58.1297 45.4668 57.8716C45.234 57.6134 44.9167 57.4823 44.5146 57.478H43.0293V60.144ZM52.7031 61.7373H51.4971V65H49.269V55.7578H52.9062C54.0023 55.7578 54.8592 56.0011 55.4771 56.4878C56.0949 56.9744 56.4038 57.6621 56.4038 58.5508C56.4038 59.194 56.2726 59.7272 56.0103 60.1504C55.7521 60.5736 55.3459 60.9163 54.7915 61.1787L56.7212 64.9048V65H54.3345L52.7031 61.7373ZM51.4971 60.0171H52.9062C53.3294 60.0171 53.6468 59.9071 53.8584 59.687C54.0742 59.4627 54.1821 59.1517 54.1821 58.7539C54.1821 58.3561 54.0742 58.0451 53.8584 57.8208C53.6426 57.5923 53.3252 57.478 52.9062 57.478H51.4971V60.0171ZM65.5762 60.5693C65.5762 61.4707 65.409 62.2684 65.0747 62.9624C64.7404 63.6564 64.2643 64.1917 63.6465 64.5684C63.0329 64.9408 62.3325 65.127 61.5454 65.127C60.7583 65.127 60.0601 64.9471 59.4507 64.5874C58.8413 64.2235 58.3652 63.7051 58.0225 63.0322C57.6839 62.3594 57.5062 61.5871 57.4893 60.7153V60.1948C57.4893 59.2892 57.6543 58.4915 57.9844 57.8018C58.3187 57.1077 58.7948 56.5724 59.4126 56.1958C60.0347 55.8192 60.7414 55.6309 61.5327 55.6309C62.3156 55.6309 63.0138 55.8171 63.6274 56.1895C64.241 56.5618 64.7171 57.0929 65.0557 57.7827C65.3984 58.4683 65.5719 59.2554 65.5762 60.144V60.5693ZM63.3101 60.1821C63.3101 59.2638 63.1556 58.5677 62.8467 58.0938C62.542 57.6156 62.104 57.3765 61.5327 57.3765C60.4155 57.3765 59.8252 58.2144 59.7617 59.8901L59.7554 60.5693C59.7554 61.4749 59.9056 62.1711 60.2061 62.6577C60.5065 63.1444 60.953 63.3877 61.5454 63.3877C62.1082 63.3877 62.542 63.1486 62.8467 62.6704C63.1514 62.1922 63.3058 61.5046 63.3101 60.6074V60.1821ZM66.7251 65V55.7578H69.7021C70.5189 55.7578 71.2531 55.944 71.9048 56.3164C72.5565 56.6846 73.0643 57.2072 73.4282 57.8843C73.7964 58.5571 73.9826 59.3125 73.9868 60.1504V60.5757C73.9868 61.422 73.807 62.1816 73.4473 62.8545C73.0918 63.5231 72.5882 64.0479 71.9365 64.4287C71.2891 64.8053 70.5654 64.9958 69.7656 65H66.7251ZM68.9531 57.478V63.2861H69.7275C70.3665 63.2861 70.8574 63.0597 71.2002 62.6069C71.543 62.1499 71.7144 61.4728 71.7144 60.5757V60.1758C71.7144 59.2829 71.543 58.61 71.2002 58.1572C70.8574 57.7044 70.3581 57.478 69.7021 57.478H68.9531ZM82.3784 55.7578V61.8071C82.3784 62.4927 82.2324 63.0872 81.9404 63.5908C81.6484 64.0902 81.2295 64.471 80.6836 64.7334C80.1377 64.9958 79.4924 65.127 78.7476 65.127C77.6219 65.127 76.7354 64.835 76.0879 64.251C75.4404 63.667 75.1104 62.8672 75.0977 61.8516V55.7578H77.3384V61.896C77.3638 62.9074 77.8335 63.4131 78.7476 63.4131C79.2088 63.4131 79.5579 63.2861 79.7949 63.0322C80.0319 62.7783 80.1504 62.3657 80.1504 61.7944V55.7578H82.3784ZM91.2524 61.8706C91.2228 62.5138 91.0493 63.083 90.7319 63.5781C90.4146 64.069 89.9681 64.4499 89.3926 64.7207C88.8213 64.9915 88.1675 65.127 87.4312 65.127C86.2166 65.127 85.2603 64.7313 84.562 63.9399C83.8638 63.1486 83.5146 62.0314 83.5146 60.5884V60.1313C83.5146 59.2257 83.6712 58.4344 83.9844 57.7573C84.3018 57.076 84.7567 56.5513 85.3491 56.1831C85.9416 55.8107 86.6271 55.6245 87.4058 55.6245C88.5272 55.6245 89.4285 55.9207 90.1099 56.5132C90.7912 57.1014 91.1784 57.9139 91.2715 58.9507H89.0498C89.0329 58.3879 88.8911 57.9837 88.6245 57.7383C88.3579 57.4928 87.9517 57.3701 87.4058 57.3701C86.8514 57.3701 86.4451 57.5775 86.187 57.9922C85.9289 58.4069 85.7935 59.0692 85.7808 59.979V60.6328C85.7808 61.6188 85.9035 62.3234 86.1489 62.7466C86.3986 63.1698 86.826 63.3813 87.4312 63.3813C87.9432 63.3813 88.3346 63.2607 88.6055 63.0195C88.8763 62.7783 89.0202 62.3953 89.0371 61.8706H91.2524ZM99.3711 57.478H96.5972V65H94.3691V57.478H91.646V55.7578H99.3711V57.478ZM107.966 60.5693C107.966 61.4707 107.799 62.2684 107.464 62.9624C107.13 63.6564 106.654 64.1917 106.036 64.5684C105.423 64.9408 104.722 65.127 103.935 65.127C103.148 65.127 102.45 64.9471 101.84 64.5874C101.231 64.2235 100.755 63.7051 100.412 63.0322C100.074 62.3594 99.8958 61.5871 99.8789 60.7153V60.1948C99.8789 59.2892 100.044 58.4915 100.374 57.8018C100.708 57.1077 101.184 56.5724 101.802 56.1958C102.424 55.8192 103.131 55.6309 103.922 55.6309C104.705 55.6309 105.403 55.8171 106.017 56.1895C106.631 56.5618 107.107 57.0929 107.445 57.7827C107.788 58.4683 107.962 59.2554 107.966 60.144V60.5693ZM105.7 60.1821C105.7 59.2638 105.545 58.5677 105.236 58.0938C104.932 57.6156 104.494 57.3765 103.922 57.3765C102.805 57.3765 102.215 58.2144 102.151 59.8901L102.145 60.5693C102.145 61.4749 102.295 62.1711 102.596 62.6577C102.896 63.1444 103.343 63.3877 103.935 63.3877C104.498 63.3877 104.932 63.1486 105.236 62.6704C105.541 62.1922 105.695 61.5046 105.7 60.6074V60.1821ZM112.549 61.7373H111.343V65H109.115V55.7578H112.752C113.848 55.7578 114.705 56.0011 115.323 56.4878C115.941 56.9744 116.25 57.6621 116.25 58.5508C116.25 59.194 116.118 59.7272 115.856 60.1504C115.598 60.5736 115.192 60.9163 114.637 61.1787L116.567 64.9048V65H114.18L112.549 61.7373ZM111.343 60.0171H112.752C113.175 60.0171 113.493 59.9071 113.704 59.687C113.92 59.4627 114.028 59.1517 114.028 58.7539C114.028 58.3561 113.92 58.0451 113.704 57.8208C113.488 57.5923 113.171 57.478 112.752 57.478H111.343V60.0171Z" fill="#E95E2A"/>
<path d="M92.9071 32.0962L79.6274 15.1052C79.3608 14.7642 78.9393 14.5606 78.4999 14.5606C78.0605 14.5606 77.639 14.7642 77.3724 15.1053L75.8623 17.0373C75.7107 17.2313 75.7489 17.5087 75.9476 17.6566C76.1465 17.8048 76.4303 17.7673 76.5821 17.5734L78.092 15.6414C78.1885 15.518 78.341 15.4443 78.4999 15.4443C78.6589 15.4443 78.8113 15.518 78.9078 15.6413L91.6326 31.9224H90.3421L78.8598 17.2311C78.7742 17.1215 78.6411 17.0572 78.4999 17.0572C78.3588 17.0572 78.2257 17.1215 78.1401 17.2311L77.4806 18.0748C77.3289 18.2688 77.3671 18.5461 77.5659 18.6941C77.7648 18.8421 78.0486 18.8048 78.2003 18.6108L78.4999 18.2274L89.6656 32.5135V36.4081C89.6656 36.6521 89.8682 36.85 90.1182 36.85C90.3682 36.85 90.5708 36.6521 90.5708 36.4081V32.806H92.5473C92.7194 32.806 92.8766 32.7106 92.9529 32.5601C93.0293 32.4095 93.0115 32.2297 92.9071 32.0962Z" fill="url(#paint0_linear)"/>
<path d="M90.742 41.8934H90.5707V38.2913C90.5707 38.0472 90.3682 37.8494 90.1181 37.8494C89.8681 37.8494 89.6655 38.0472 89.6655 38.2913V39.7586H81.3795V38.8549C81.3795 37.2886 80.0742 36.0144 78.4698 36.0144C76.8653 36.0144 75.5601 37.2886 75.5601 38.8549V39.7587H72.2864C72.0364 39.7587 71.8338 39.9565 71.8338 40.2005C71.8338 40.4446 72.0364 40.6424 72.2864 40.6424H75.5601V41.8935H67.3343V40.6423H70.3575C70.6076 40.6423 70.8102 40.4445 70.8102 40.2005C70.8102 39.9565 70.6076 39.7586 70.3575 39.7586H67.3343V32.5135L68.0258 31.6288C68.1774 31.4348 68.1392 31.1575 67.9405 31.0095C67.7416 30.8614 67.4577 30.8988 67.3061 31.0928L66.6577 31.9224H65.3673L66.5757 30.3763C66.7273 30.1823 66.6891 29.905 66.4904 29.757C66.2914 29.6088 66.0076 29.6463 65.856 29.8403L64.0928 32.0962C63.9884 32.2297 63.9706 32.4095 64.0469 32.5601C64.1233 32.7107 64.2805 32.806 64.4526 32.806H66.4291V41.8934H66.2579C65.7081 41.8934 65.2608 42.3301 65.2608 42.8668V44.2341C65.2608 44.4781 65.4634 44.676 65.7134 44.676H91.2865C91.5365 44.676 91.7391 44.4781 91.7391 44.2341V42.8668C91.7391 42.3301 91.2918 41.8934 90.742 41.8934V41.8934ZM89.6655 40.6423V41.8934H81.3795V40.6423H89.6655ZM76.4653 38.8549C76.4653 37.7759 77.3645 36.8981 78.4698 36.8981C79.5751 36.8981 80.4742 37.7759 80.4742 38.8549V41.8935H76.4653V38.8549ZM90.8339 43.7923H66.166V42.8669C66.166 42.8174 66.2072 42.7772 66.2579 42.7772H90.742C90.7926 42.7772 90.8338 42.8174 90.8338 42.8669V43.7923H90.8339Z" fill="url(#paint1_linear)"/>
<path d="M71.7146 31.4694V32.3262C71.4882 32.3505 71.312 32.5377 71.312 32.7652C71.312 33.0092 71.5146 33.207 71.7646 33.207H74.6097C74.8597 33.207 75.0623 33.0092 75.0623 32.7652C75.0623 32.5562 74.9135 32.3815 74.7138 32.3355V31.1482C75.5072 30.8863 76.2372 30.4895 76.876 29.9865L84.9742 36.0764C85.2657 36.2956 85.6156 36.4113 85.9775 36.4113C86.049 36.4113 86.121 36.4068 86.1931 36.3977C86.6301 36.3424 87.0188 36.1242 87.2877 35.7835C87.5566 35.4427 87.6735 35.0201 87.6168 34.5935C87.56 34.1669 87.3366 33.7875 86.9876 33.525L85.2248 32.1994V29.7772C85.2248 28.97 84.5521 28.3132 83.7252 28.3132C82.8982 28.3132 82.2255 28.9699 82.2255 29.7772V29.944L78.8917 27.4369C79.2847 26.5808 79.5036 25.6327 79.5036 24.6354C79.5036 20.8456 76.3453 17.7624 72.4632 17.7624C70.8563 17.7624 69.343 18.2774 68.0868 19.2516C67.8912 19.4034 67.8585 19.6813 68.014 19.8724C68.1695 20.0635 68.4542 20.0954 68.65 19.9436C69.7443 19.0948 71.0628 18.6462 72.4632 18.6462C75.8462 18.6462 78.5984 21.3329 78.5984 24.6355C78.5984 27.9381 75.8462 30.6246 72.4633 30.6246C69.0803 30.6246 66.3281 27.9379 66.3281 24.6353C66.3281 23.4079 66.706 22.228 67.4209 21.2232C67.5634 21.0227 67.5127 20.7474 67.3073 20.6082C67.102 20.469 66.8199 20.5186 66.6774 20.7191C65.8566 21.8726 65.4229 23.2268 65.4229 24.6353C65.4228 28.1782 68.1831 31.1034 71.7146 31.4694V31.4694ZM73.8086 32.3233H72.6198V31.5064C73.0254 31.4977 73.4225 31.4551 73.8086 31.3819V32.3233ZM83.1308 30.5474V29.7771C83.1308 29.4571 83.3975 29.1968 83.7252 29.1968C84.053 29.1968 84.3197 29.4571 84.3197 29.7771V31.5186L83.1243 30.6197C83.1282 30.5961 83.1308 30.5721 83.1308 30.5474V30.5474ZM86.4351 34.225C86.5926 34.3435 86.6935 34.5147 86.7191 34.7072C86.7447 34.8997 86.6919 35.0903 86.5706 35.2441C86.4492 35.3979 86.2738 35.4963 86.0766 35.5213C85.8796 35.5463 85.6841 35.4948 85.5267 35.3764L77.5526 29.3798C77.8954 29.0295 78.2005 28.6438 78.4621 28.2292L86.4351 34.225Z" fill="#E95E2A"/>
<path d="M72.4634 29.7412C75.3472 29.7412 77.6933 27.4508 77.6933 24.6355C77.6933 21.8202 75.3472 19.5299 72.4634 19.5299C69.5796 19.5299 67.2334 21.8202 67.2334 24.6355C67.2334 27.4508 69.5795 29.7412 72.4634 29.7412ZM72.4634 20.4136C74.8481 20.4136 76.7881 22.3076 76.7881 24.6356C76.7881 26.9636 74.8481 28.8575 72.4634 28.8575C70.0787 28.8575 68.1386 26.9636 68.1386 24.6356C68.1386 22.3076 70.0787 20.4136 72.4634 20.4136V20.4136Z" fill="#E95E2A"/>
<defs>
<linearGradient id="paint0_linear" x1="84.3847" y1="14.5606" x2="84.3847" y2="36.85" gradientUnits="userSpaceOnUse">
<stop stop-color="#233862"/>
<stop offset="0.776042" stop-color="#7AA2D6"/>
</linearGradient>
<linearGradient id="paint1_linear" x1="77.8695" y1="29.6664" x2="77.8695" y2="44.676" gradientUnits="userSpaceOnUse">
<stop stop-color="#233862"/>
<stop offset="0.776042" stop-color="#7AA2D6"/>
</linearGradient>
</defs>
</svg>
