<svg width="22" height="22" viewBox="0 0 22 22" fill="none" xmlns="http://www.w3.org/2000/svg">
<g clip-path="url(#clip0)">
<path d="M17.25 0H4.75C2.67846 0 1 1.67846 1 3.75V16.25C1 18.3215 2.67846 20 4.75 20H17.25C19.3215 20 21 18.3215 21 16.25V3.75C21 1.67846 19.3215 0 17.25 0ZM15.4462 13.38L14.3785 14.4469C14.1831 14.6431 13.8631 14.6431 13.6677 14.4469L11 11.7792L8.33308 14.4462C8.13692 14.6423 7.81769 14.6423 7.62154 14.4446L6.55385 13.38C6.35923 13.1831 6.35923 12.8654 6.55385 12.6677L9.22154 10.0008L6.55462 7.33385C6.35923 7.13692 6.35923 6.81692 6.55462 6.62231L7.62231 5.55462C7.81846 5.35692 8.13846 5.35692 8.33385 5.55462L11 8.22231L13.6677 5.55462C13.8638 5.35692 14.1838 5.35692 14.3785 5.55462L15.4462 6.62077C15.6415 6.81692 15.6415 7.13692 15.4469 7.33385L12.7792 10.0008L15.4469 12.6677C15.6408 12.8654 15.6408 13.1831 15.4462 13.38Z" fill="#BF4019"/>
</g>
<defs>
<clipPath id="clip0">
<rect width="22" height="22" fill="white"/>
</clipPath>
</defs>
</svg>
