<svg width="618" height="538" viewBox="0 0 618 538" fill="none" xmlns="http://www.w3.org/2000/svg">
<path d="M35.8265 353.78C35.8265 353.78 36.5771 353.167 38.0782 351.94C39.5793 350.714 41.7358 348.969 44.8754 347.057C50.9961 342.983 60.5523 337.787 72.8462 333.791C74.3789 333.346 76.0068 332.806 77.5396 332.361C79.1675 331.822 80.6897 331.523 82.4021 331.034C85.7319 330.152 89.0406 329.563 92.6134 328.98C99.5795 327.859 106.778 327.184 113.839 327.188C120.9 327.192 128.099 327.736 134.811 328.902C136.555 329.195 138.12 329.532 139.769 329.92C141.417 330.308 143.066 330.696 144.62 331.179C147.823 332.051 150.751 333.06 153.668 334.216C164.915 338.584 172.388 343.871 178.011 349.105C183.634 354.339 187.503 359.426 190.684 364.249C193.781 369.022 196.307 373.143 198.093 376.512C199.89 379.735 200.957 382.059 201.179 382.651C193.526 382.289 186.37 381.16 179.415 379.694C178.632 378.306 177.755 377.012 176.973 375.624L174.806 371.414C173.337 368.542 172.133 365.678 170.938 362.667C168.539 356.792 166.415 350.778 163.942 344.706C165.696 350.953 167.556 356.96 169.765 363.025C170.272 364.552 170.875 365.984 171.562 367.468L173.538 371.867C174.775 374.293 176.001 376.865 177.417 379.248C175.852 378.911 174.203 378.523 172.734 378.091C167.016 376.612 161.582 374.848 156.34 372.894C155.145 369.884 154.036 366.924 152.926 363.965C151.827 360.859 150.728 357.754 149.629 354.648C147.346 348.386 144.968 342.219 141.893 335.934C144.345 342.299 146.268 348.648 148.466 354.859C149.47 358.06 150.485 361.114 151.584 364.22C152.45 366.88 153.412 369.444 154.458 372.06C148.095 369.734 141.922 367.217 135.833 364.751L134.459 364.225L131.722 356.925C130.76 354.36 129.714 351.744 128.573 349.223C126.205 344.129 123.574 339.028 120.308 334.154C123.035 339.16 125.307 344.348 127.315 349.529C128.361 352.145 129.323 354.71 130.285 357.275L132.567 363.537C125.961 360.91 119.259 358.379 112.262 356.278C111.342 354.349 110.423 352.42 109.408 350.585L107.844 347.808C107.294 346.865 106.65 346.018 106.1 345.075C103.638 341.296 100.805 337.752 97.4438 334.192C98.8072 336.085 100.086 337.927 101.365 339.768C102.549 341.705 103.743 343.496 104.842 345.381C106.808 348.706 108.499 352.17 110.19 355.634C108.203 355.041 106.121 354.543 104.133 353.95C102.051 353.452 99.9686 352.954 97.8862 352.456L93.0979 351.54L88.2143 350.719C87.4956 349.674 86.7663 348.775 85.9525 347.825C85.1386 346.875 84.3248 345.925 83.3312 345.018C82.3377 344.112 81.3441 343.205 80.3505 342.299C79.2618 341.487 78.0886 340.624 76.9999 339.813C77.8137 340.763 78.7122 341.765 79.6212 342.62C80.5301 343.475 81.3334 344.571 82.1473 345.522C83.5319 347.122 84.7368 348.767 86.1214 350.368C83.1511 349.942 79.9905 349.707 77.0097 349.427C69.716 348.977 62.0207 349.2 54.1773 350.247C62.0101 349.346 69.5152 349.313 76.7982 349.909L81.6184 350.387C83.1933 350.578 84.7683 350.769 86.2482 351.054C83.3412 352.192 80.6139 353.287 77.7809 354.622C76.227 355.359 74.6731 356.096 73.2037 356.884C71.7343 357.672 70.265 358.461 68.8801 359.3C70.5186 358.614 71.9774 357.972 73.6159 357.286C75.2544 356.6 76.7978 356.01 78.4362 355.324C80.0747 354.638 81.6181 354.047 83.3411 353.412C84.8845 352.822 86.6075 352.187 88.246 351.501L88.6054 351.414L93.2246 352.227L97.6536 353.231C101.903 354.278 106.152 355.325 110.116 356.657C104.714 358.115 99.4818 359.675 94.3232 361.433C91.522 362.33 88.6996 363.519 85.9829 364.467C83.2556 365.562 80.6128 366.707 78.0547 367.904C80.7714 366.956 83.4987 365.861 86.2999 364.964C89.0166 364.016 91.913 363.024 94.7989 362.178L99.1329 360.837L103.456 359.641C106.342 358.795 109.217 358.095 112.188 357.301L112.367 357.257C119.27 359.453 125.876 362.079 132.483 364.706L123.064 366.783C119.385 367.606 115.707 368.429 112.197 369.355C108.603 370.23 105.083 371.302 101.479 372.323C97.9586 373.395 94.523 374.518 91.0769 375.787C94.597 374.715 98.1065 373.789 101.616 372.863C105.125 371.937 108.72 371.063 112.398 370.239C116.077 369.416 119.671 368.541 123.339 367.864L134.364 365.54L135.305 365.957C141.658 368.43 147.915 370.997 154.458 373.28C150.505 374.243 146.562 375.059 142.524 375.97C138.042 376.917 133.56 377.864 129.162 378.862C124.765 379.861 120.283 380.808 115.97 381.857C111.657 382.907 107.344 383.957 103.021 385.152C107.323 384.249 111.721 383.25 116.107 382.398C120.494 381.546 124.976 380.599 129.448 379.798C133.919 378.997 138.401 378.049 142.883 377.102C147.365 376.155 151.847 375.208 156.244 374.209L156.424 374.166C161.678 375.973 167.026 377.686 172.66 379.113L175.26 379.772L177.871 380.285C173.801 381.635 169.837 382.743 165.694 383.895C163.442 384.514 161.106 385.083 158.854 385.703C156.518 386.271 154.362 386.796 152.026 387.365C147.533 388.458 142.956 389.5 138.379 390.542C133.897 391.489 129.404 392.583 124.922 393.53C127.248 393.107 129.478 392.78 131.719 392.306L138.611 390.988C143.178 390.092 147.84 389.101 152.406 388.205C157.068 387.214 161.656 386.026 166.148 384.932L172.903 383.073C175.25 382.359 177.417 381.688 179.584 381.017L179.943 380.929C186.814 382.343 194.076 383.231 201.655 383.396C200.915 383.864 197.934 386.024 192.796 388.71C187.754 391.301 180.196 394.504 171.031 396.734C161.866 398.964 150.999 400.317 139.837 399.66C128.664 399.15 117.28 396.682 106.9 392.533C104.151 391.48 101.763 390.339 99.3737 389.198C98.1793 388.627 97.0694 388.108 95.9701 387.442C94.8603 386.923 93.761 386.258 92.7463 385.643C88.5923 383.281 84.7131 380.78 81.0876 378.433C77.4727 375.94 74.196 373.651 70.9193 371.363C69.3232 370.244 67.7272 369.125 66.1205 368.153C65.2749 367.641 64.5245 367.034 63.7634 366.574C63.0024 366.113 62.1568 365.601 61.3957 365.14C55.318 361.309 49.1662 358.5 44.4307 356.853C42.1158 355.91 40.0335 355.412 38.7439 354.936C36.6933 354 35.8265 353.78 35.8265 353.78Z" fill="#BCA5DB"/>
<path d="M182.091 377.778C179.883 378.415 177.492 379.093 175.284 379.73L168.402 381.492C163.728 382.618 159.053 383.744 154.4 384.59C149.736 385.576 144.997 386.373 140.344 387.22L133.321 388.464C130.951 388.863 128.679 389.171 126.395 389.619C130.962 388.723 135.539 387.688 140.106 386.792C144.673 385.897 149.337 384.911 154.011 383.785C156.392 383.247 158.589 382.75 160.969 382.212C163.349 381.673 165.644 381.086 167.938 380.498C172.159 379.406 176.198 378.355 180.345 377.074L177.683 376.577L175.032 375.94C169.288 374.56 163.834 372.909 158.478 371.167L158.295 371.208C153.814 372.153 149.15 373.139 144.68 373.944C140.114 374.839 135.547 375.735 130.99 376.49C126.434 377.246 121.867 378.142 117.397 378.946C112.927 379.751 108.446 380.696 104.063 381.55C108.285 380.458 112.776 379.373 117.256 378.429C121.737 377.484 126.218 376.539 130.698 375.595C135.179 374.65 139.832 373.804 144.313 372.859C148.33 372.088 152.445 371.226 156.473 370.315C149.898 368.024 143.421 365.643 136.943 363.261L135.984 362.86L124.749 365.057C121.001 365.836 117.253 366.615 113.602 367.304C109.853 368.083 106.278 368.96 102.616 369.788C99.0398 370.666 95.4641 371.543 91.8777 372.56C95.3884 371.354 98.7917 370.378 102.475 369.27C106.061 368.253 109.637 367.376 113.396 366.457C116.972 365.58 120.72 364.801 124.468 364.022L134.065 362.057C127.328 359.528 120.592 356.999 113.554 354.882L113.371 354.923C110.345 355.676 107.415 356.339 104.475 357.141L100.07 358.275L95.6543 359.548C92.7141 360.351 89.9464 361.251 86.9956 362.193C84.1416 363.045 81.3633 364.085 78.5956 364.986C81.2015 363.847 83.9798 362.807 86.6718 361.717C89.3533 360.767 92.3147 359.685 95.1687 358.834C100.424 357.164 105.852 355.593 111.259 354.302C107.12 353.109 102.885 352.006 98.5529 350.994L94.0376 350.023L89.3286 349.233L88.9624 349.316C87.3039 349.829 85.6348 350.481 83.9657 351.133C82.2966 351.785 80.6381 352.298 78.969 352.95C77.2999 353.602 75.7276 354.164 74.0585 354.816C72.3894 355.468 70.9034 356.079 69.2343 356.731C70.6446 355.932 72.1413 355.181 73.6379 354.43C75.1345 353.68 76.7173 352.978 78.3002 352.277C81.0997 350.957 83.9643 349.966 86.9257 348.884C85.3202 348.697 83.8116 348.42 82.2061 348.234L77.2928 347.765C69.9554 347.227 62.22 347.19 54.2378 348.034C62.2306 347.05 69.9872 346.807 77.5077 347.305C80.7293 347.538 83.7678 347.812 86.7956 348.226C85.5655 346.65 84.1524 345.115 82.7392 343.58C81.9085 342.669 81.0779 341.758 80.1609 340.797C79.3303 339.886 78.4134 338.926 77.4859 338.105C78.7796 338.843 79.7934 339.713 80.904 340.492C81.9177 341.362 82.9315 342.231 83.9452 343.101C84.8727 343.922 85.7897 344.882 86.6203 345.793C87.451 346.704 88.2816 347.615 88.9292 348.568L93.9075 349.365L98.789 350.253C100.912 350.735 103.035 351.216 105.158 351.698C107.184 352.27 109.307 352.751 111.333 353.324C109.692 350.054 107.878 346.687 105.87 343.5C104.747 341.694 103.441 339.928 102.319 338.122C101.013 336.356 99.7074 334.591 98.3154 332.776C101.842 336.1 104.637 339.589 107.152 343.211C107.713 344.114 108.371 344.927 108.932 345.83L110.53 348.491C111.566 350.249 112.506 352.097 113.445 353.945C120.483 356.062 127.316 358.501 134.15 360.939L131.815 354.942C130.832 352.485 129.849 350.029 128.779 347.523C126.726 342.561 124.307 337.682 121.619 332.795C125.039 337.517 127.825 342.313 130.061 347.234C131.314 349.698 132.297 352.154 133.28 354.611L136.079 361.602L137.48 362.109C143.775 364.532 150.07 366.955 156.472 369.148C155.402 366.642 154.515 364.095 153.532 361.639C152.408 358.665 151.284 355.69 150.343 352.675C148.278 346.685 146.127 340.647 143.62 334.551C146.763 340.571 149.194 346.478 151.528 352.476C152.738 355.499 153.776 358.424 154.9 361.398C156.035 364.232 157.169 367.067 158.39 369.95C163.736 371.832 169.459 373.491 175.106 374.962C176.69 375.428 178.285 375.754 179.88 376.08C178.434 373.797 177.181 371.333 175.918 369.009L173.898 364.795C173.282 363.423 172.677 361.911 172.061 360.539C169.792 354.87 167.9 348.979 166.104 342.997C168.546 348.764 170.718 354.524 173.257 360.2C174.574 362.993 175.806 365.737 177.21 368.579L179.423 372.612C180.222 373.942 181.021 375.273 181.917 376.512C188.911 378.022 196.389 379.078 204.103 379.394C204.189 379.443 204.179 379.583 204.179 379.583C204.179 379.583 204.082 379.674 203.985 379.764C196.26 379.588 188.954 378.63 181.853 377.351L182.091 377.778Z" fill="#9369BF"/>
<path d="M156.852 188.459C156.852 188.459 159.523 189.189 163.63 190.941C167.737 192.693 173.446 195.416 179.446 199.18C185.527 203.002 191.9 207.864 197.661 213.96C203.422 220.055 208.576 227.22 212.133 235.751C215.616 244.063 216.976 252.367 217.287 260.26C217.403 264.178 217.275 268.088 216.906 271.829C216.623 275.463 216.01 279.197 215.329 282.547C214.726 285.955 213.97 289.086 213.139 291.997C212.308 294.909 211.653 297.445 210.844 299.705C209.39 304.174 208.064 307.234 207.713 307.985L203.362 301.225L199.182 294.251C200.04 290.525 200.977 286.856 201.829 283.292C202.767 279.623 203.869 275.904 204.807 272.235C206.847 264.846 209.046 257.571 211.331 250.19C208.642 257.45 206.198 264.718 203.913 272.1C202.731 275.762 201.793 279.431 200.691 283.15C199.849 286.388 199.013 289.462 198.251 292.756L196.48 289.496C195.321 287.505 194.327 285.464 193.247 283.53L191.63 280.546L190.099 277.457C191.116 273.844 192.133 270.231 193.315 266.569C194.498 262.907 195.685 259.081 196.867 255.419C199.237 247.932 201.767 240.557 204.296 233.183C201.362 240.437 198.588 247.804 196.059 255.178C194.712 258.89 193.609 262.609 192.342 266.377C191.341 269.501 190.334 272.788 189.413 275.969C187.041 271.115 184.839 266.048 182.718 261.038L182.181 259.99C183.177 257.029 184.172 254.068 185.168 251.107C186.249 248.039 187.25 244.915 188.331 241.848C190.493 235.714 192.575 229.523 194.822 223.282C192.256 229.296 189.849 235.423 187.523 241.607C186.277 244.724 185.196 247.791 184.115 250.858L181.5 258.339L178.172 250.303C177.119 247.554 175.981 244.911 175.013 242.055C176.722 237.267 178.432 232.478 180.226 227.583C182.021 222.688 183.735 217.737 185.45 212.786C183.331 217.616 181.292 222.504 179.418 227.342C177.724 231.642 176.111 235.998 174.412 240.461C173.291 237.329 172.089 234.14 170.967 231.008C170.063 228.698 169.244 226.282 168.426 223.866C169.496 221.125 170.572 218.22 171.562 215.422L173.09 211.172C173.548 209.663 174.001 208.317 174.539 206.865C173.841 208.204 173.224 209.599 172.606 210.995L170.753 215.181C169.779 217.49 168.719 219.906 167.825 222.272L165.592 215.682C163.8 210.573 162.009 205.464 160.302 200.249C161.844 205.514 163.385 210.778 165.012 215.937L167.234 222.852C165.212 222.249 163.191 221.646 161.249 221.1C158.982 220.489 156.716 219.879 154.364 219.375C156.535 220.418 158.711 221.297 160.972 222.07C163.148 222.95 165.494 223.617 167.675 224.333L167.92 224.34C168.659 226.7 169.483 228.953 170.222 231.313C171.339 234.607 172.455 237.902 173.657 241.091C169.853 240.055 166.213 238.969 162.409 237.933L156.259 236.231C154.152 235.734 152.13 235.131 150.103 234.691C152.12 235.457 154.056 236.166 156.073 236.932L162.047 239.01C166.006 240.323 170.129 241.585 174.092 242.735L174.172 242.792L177.331 251.04L180.574 259.181L173.849 257.57C171.258 256.896 168.667 256.222 166.076 255.548L158.223 253.468C155.632 252.794 153.041 252.12 150.37 251.389C152.871 252.333 155.456 253.17 157.957 254.113L165.719 256.461C168.305 257.299 170.896 257.973 173.487 258.647C176.078 259.321 178.669 259.995 181.26 260.669L181.643 261.442C182.701 264.028 183.924 266.565 185.067 269.045C186.211 271.525 187.434 274.062 188.657 276.599C185.816 276.081 182.895 275.505 180.054 274.987C176.808 274.348 173.648 273.603 170.402 272.964C167.242 272.218 163.917 271.523 160.756 270.778C157.516 269.976 154.356 269.23 151.116 268.428C154.265 269.5 157.42 270.408 160.49 271.422C163.645 272.33 166.885 273.132 170.04 274.04C173.195 274.949 176.441 275.588 179.686 276.227C182.847 276.972 186.177 277.505 189.423 278.144L189.503 278.2L190.954 281.233L192.491 284.16C193.571 286.095 194.565 288.135 195.73 289.964L197.82 293.45C194.809 293.144 191.882 292.732 188.791 292.37C185.46 291.837 182.209 291.361 178.879 290.828C175.548 290.295 172.303 289.656 169.057 289.017C165.726 288.484 162.566 287.739 159.156 287.15C162.39 288.115 165.551 288.86 168.871 289.718C172.196 290.414 175.356 291.159 178.682 291.855C182.007 292.551 185.258 293.027 188.588 293.56C191.919 294.092 195.255 294.462 198.506 294.938L198.751 294.946L203.022 301.65L207.463 308.141C206.723 308.282 203.924 308.961 199.667 309.271C197.539 309.426 195.006 309.461 192.314 309.381C189.542 309.246 186.695 308.89 183.615 308.202C180.534 307.513 177.385 306.442 174.161 305.151C170.942 303.697 167.819 301.812 164.712 299.437C158.579 294.744 153.09 287.841 149.149 278.537C145.135 269.014 143.691 258.315 143.784 248.043C143.797 237.713 145.354 227.646 147.277 218.841C149.2 210.035 151.655 202.442 153.545 197.115C155.441 191.625 156.852 188.459 156.852 188.459Z" fill="#AD8DCE"/>
<path d="M201.058 291.886C197.649 291.496 194.328 291.003 190.925 290.455C187.523 289.907 184.202 289.414 180.805 288.708C177.489 288.058 174.18 287.25 170.783 286.544C167.473 285.737 164.164 284.929 160.86 283.963C164.176 284.613 167.572 285.319 170.975 285.867C174.29 286.518 177.693 287.066 181.008 287.716C184.411 288.264 187.732 288.757 191.135 289.305C194.206 289.788 197.283 290.114 200.36 290.439L198.231 287.045C197.131 285.162 196.032 283.279 194.933 281.397L193.368 278.549L191.89 275.6L191.809 275.544C188.494 274.894 185.178 274.244 181.863 273.594C178.635 272.842 175.238 272.136 172.01 271.384C168.787 270.474 165.478 269.666 162.256 268.756C159.033 267.846 155.817 266.779 152.682 265.767C155.991 266.575 159.219 267.327 162.529 268.135C165.757 268.887 169.067 269.695 172.382 270.345C175.61 271.097 179.007 271.803 182.241 272.398C185.225 272.983 188.127 273.512 191.03 274.042C189.698 271.677 188.621 269.164 187.377 266.697C186.132 264.23 185.056 261.716 183.892 259.305L183.502 258.554C180.769 257.978 178.21 257.198 175.563 256.52C172.917 255.843 170.189 255.109 167.629 254.329L159.701 251.981C157.061 251.145 154.507 250.208 151.954 249.271C154.6 249.948 157.247 250.626 159.975 251.36L167.996 253.449C170.642 254.126 173.289 254.804 175.935 255.482L182.804 257.107L179.506 249.196L176.295 241.183L176.214 241.128C172.084 239.921 167.867 238.816 163.912 237.405L157.81 235.335C155.751 234.574 153.774 233.869 151.715 233.108C153.867 233.609 155.932 234.213 158.002 234.658L164.284 236.367C168.088 237.351 171.886 238.493 175.772 239.533C174.55 236.435 173.416 233.235 172.282 230.036C171.444 227.847 170.693 225.557 169.943 223.266L169.693 223.257C167.384 222.486 165.069 221.874 162.847 221.001C160.625 220.129 158.316 219.358 156.1 218.328C158.502 218.839 160.817 219.452 163.132 220.065C165.197 220.668 167.18 221.216 169.245 221.819L166.988 215.105C165.336 210.097 163.771 204.987 162.206 199.877C164.027 204.839 165.761 209.902 167.581 214.864L169.85 221.263C170.769 218.982 171.769 216.757 172.857 214.43L174.759 210.397C175.392 209.053 176.026 207.708 176.742 206.419C176.271 207.875 175.805 209.173 175.253 210.573L173.683 214.671C172.665 217.369 171.566 220.012 170.461 222.812C171.293 225.158 172.212 227.402 173.043 229.749C174.184 232.791 175.405 235.888 176.545 238.93C178.203 234.73 179.86 230.53 181.686 226.284C183.699 221.518 185.705 216.91 187.88 212.256C186.118 217.031 184.275 221.75 182.512 226.525C180.756 231.142 178.912 235.862 177.156 240.479C178.226 243.15 179.297 245.821 180.367 248.492L183.752 256.301L186.439 249.087C187.55 246.129 188.661 243.172 189.941 240.168C192.331 234.206 194.803 228.3 197.437 222.505C195.297 228.476 192.988 234.494 190.766 240.409C189.656 243.367 188.626 246.38 187.515 249.338C186.492 252.194 185.468 255.049 184.445 257.905L184.992 258.925C187.15 263.794 189.389 268.719 191.803 273.439C192.751 270.37 193.78 267.357 194.816 264.186C196.118 260.552 197.252 256.963 198.637 253.384C201.236 246.273 204.086 239.171 207.099 232.18C204.499 239.292 201.981 246.459 199.463 253.626C198.247 257.158 197.026 260.849 195.81 264.381C194.595 267.914 193.548 271.4 192.501 274.886L194.06 277.891L195.706 280.794C196.806 282.677 197.818 284.662 198.999 286.6L200.802 289.772C201.668 286.647 202.535 283.523 203.314 280.5C204.367 276.856 205.414 273.37 206.629 269.837C208.979 262.716 211.491 255.707 214.254 248.707C211.991 255.726 209.729 262.744 207.542 269.977C206.577 273.518 205.443 277.107 204.477 280.649C203.512 284.191 202.634 287.63 201.75 291.228L206.008 298.017L210.44 304.602C210.353 304.704 210.347 304.862 210.347 304.862C210.347 304.862 210.266 304.806 210.178 304.908L205.653 298.583L201.302 292.053L201.058 291.886Z" fill="#37159C"/>
<path d="M227.89 510.748C208.025 510.748 192 494.598 192 474.873V75.8754C192 56.0182 208.157 40 227.89 40H392.11C411.975 40 428 56.1505 428 75.8754V474.873C428 494.73 411.843 510.748 392.11 510.748H227.89Z" fill="#1A191C"/>
<path d="M416.081 83.4211H203.787V467.327H416.081V83.4211Z" fill="url(#paint0_linear)"/>
<path d="M415.684 83.5535H203.787V466.798H415.684V83.5535Z" fill="#1C396B"/>
<path fill-rule="evenodd" clip-rule="evenodd" d="M245.637 167.219C270.005 159.673 294.638 158.084 319.668 158.481C324.833 158.614 332.117 161.526 334.633 155.966C337.547 149.479 333.177 142.728 328.806 137.433C323.509 130.946 316.092 128.034 307.616 127.504C277.554 125.651 261.397 145.905 245.637 167.219ZM203.787 377.44V339.05C233.982 327.135 266.032 321.575 299.008 318.266C326.952 315.486 354.499 313.765 382.31 316.677C386.945 317.207 391.581 317.471 395.951 319.457C395.818 320.119 395.686 320.781 395.554 321.575C392.508 338.123 380.059 336.534 368.007 336.137C311.59 334.416 259.278 349.905 209.349 374.66C207.363 375.454 205.509 376.381 203.787 377.44ZM203.787 445.617V411.065C243.65 392.929 286.162 385.648 330.131 385.516C347.082 385.516 364.034 385.118 380.986 387.104C391.316 388.296 392.508 395.577 392.375 402.063C392.243 409.741 384.561 406.432 380.191 406.697C324.833 409.344 270.535 416.625 219.679 440.454C214.117 443.234 208.82 442.307 203.787 445.617ZM415.684 220.965V280.802C395.686 297.085 375.688 294.305 366.815 291.657C337.679 283.317 330.395 269.152 328.541 256.046C327.747 250.619 329.601 245.059 329.866 239.631C330.528 223.216 325.495 218.185 308.808 219.774C288.016 221.76 268.018 226.79 248.153 233.277C239.677 236.057 235.439 240.955 234.512 250.619C232.923 269.285 232.923 287.818 233.85 306.484C234.247 313.235 233.585 319.59 226.566 322.502C221.666 324.62 216.368 327.665 210.806 324.62C204.979 321.443 207.495 315.618 207.495 310.852C207.363 302.777 207.893 294.834 207.893 286.759C207.893 281.728 206.436 277.36 203.787 273.918V227.982C206.436 228.644 208.555 225.731 210.674 224.54C252.258 201.902 296.624 195.019 343.374 200.843C368.669 203.888 392.64 210.64 415.684 220.965ZM415.684 177.677V200.049C415.419 199.917 415.022 199.784 414.757 199.652C349.599 173.97 284.308 173.573 219.282 199.652C212.793 202.3 207.098 206.139 203.787 212.758V188.4C204.714 187.87 205.641 187.341 206.701 186.811C212.925 183.634 215.441 177.941 217.428 171.852C225.771 145.376 244.312 128.166 268.945 117.443C281.129 112.148 291.989 107.647 298.214 93.7469C304.703 79.4497 326.555 81.4354 332.382 97.0564C337.017 109.5 344.831 112.677 356.353 114.928C379.926 119.694 393.17 137.697 403.102 157.687C406.811 164.968 410.784 171.852 415.684 177.677Z" fill="#234077"/>
<path d="M270.932 60.9163C270.932 59.0629 272.388 57.6068 274.243 57.6068C276.097 57.6068 277.553 59.0629 277.553 60.9163C277.553 62.7696 276.097 64.2258 274.243 64.2258C272.388 64.2258 270.932 62.7696 270.932 60.9163Z" fill="white"/>
<path d="M308.278 55.3563C308.278 54.4296 309.073 53.6353 310 53.6353C310.927 53.6353 311.722 54.4296 311.722 55.3563C311.722 56.2829 310.927 57.0772 310 57.0772C309.073 57.0772 308.278 56.2829 308.278 55.3563Z" fill="white"/>
<path d="M326.157 63.1668H293.843C292.916 63.1668 292.121 62.3725 292.121 61.4458C292.121 60.5191 292.916 59.7249 293.843 59.7249H326.157C327.084 59.7249 327.879 60.5191 327.879 61.4458C327.879 62.5049 327.084 63.1668 326.157 63.1668Z" fill="white"/>
<rect x="219" y="149" width="187.824" height="39.3659" rx="19.6829" fill="#4385D8"/>
<rect x="219" y="192.403" width="187.824" height="39.3659" rx="19.6829" fill="#4385D8"/>
<rect x="219" y="236.816" width="187.824" height="39.3659" rx="19.6829" fill="#4385D8"/>
<rect x="219" y="280.22" width="187.824" height="39.3659" rx="19.6829" fill="#4385D8"/>
<rect x="219" y="323.623" width="187.824" height="39.3659" rx="19.6829" fill="#4385D8"/>
<rect x="219" y="367.026" width="187.824" height="39.3658" rx="19.6829" fill="#4385D8"/>
<path d="M244.594 177.103H242.959V166.266L239.681 167.47V165.994L244.339 164.245H244.594V177.103ZM255.704 164.306L259.887 174.748L264.071 164.306H266.259V177.103H264.572V172.12L264.73 166.741L260.529 177.103H259.237L255.045 166.767L255.212 172.12V177.103H253.524V164.306H255.704ZM276.112 171.188H270.566V175.723H277.009V177.103H268.879V164.306H276.921V165.695H270.566V169.808H276.112V171.188ZM282.52 171.399C281.073 170.983 280.018 170.473 279.356 169.87C278.7 169.26 278.372 168.51 278.372 167.62C278.372 166.612 278.773 165.78 279.576 165.124C280.384 164.462 281.433 164.131 282.722 164.131C283.601 164.131 284.383 164.3 285.069 164.64C285.76 164.98 286.293 165.449 286.668 166.047C287.049 166.644 287.24 167.298 287.24 168.007H285.543C285.543 167.233 285.297 166.627 284.805 166.187C284.313 165.742 283.619 165.519 282.722 165.519C281.89 165.519 281.24 165.704 280.771 166.073C280.308 166.436 280.077 166.943 280.077 167.593C280.077 168.115 280.296 168.557 280.736 168.921C281.181 169.278 281.934 169.606 282.995 169.905C284.061 170.204 284.893 170.535 285.491 170.898C286.094 171.256 286.539 171.674 286.827 172.155C287.12 172.635 287.266 173.201 287.266 173.851C287.266 174.888 286.862 175.72 286.053 176.347C285.245 176.968 284.164 177.279 282.81 177.279C281.931 177.279 281.111 177.112 280.349 176.778C279.587 176.438 278.998 175.975 278.582 175.389C278.172 174.803 277.967 174.138 277.967 173.394H279.664C279.664 174.168 279.948 174.78 280.516 175.231C281.09 175.676 281.855 175.899 282.81 175.899C283.701 175.899 284.383 175.717 284.858 175.354C285.332 174.991 285.57 174.496 285.57 173.869C285.57 173.242 285.35 172.758 284.911 172.419C284.471 172.073 283.674 171.733 282.52 171.399Z" fill="white"/>
<path d="M247.635 220.507H239.25V219.338L243.68 214.416C244.336 213.672 244.787 213.068 245.033 212.605C245.285 212.136 245.411 211.653 245.411 211.155C245.411 210.487 245.209 209.939 244.805 209.511C244.4 209.084 243.861 208.87 243.188 208.87C242.379 208.87 241.749 209.101 241.298 209.564C240.853 210.021 240.63 210.66 240.63 211.48H239.004C239.004 210.302 239.382 209.35 240.138 208.624C240.899 207.897 241.916 207.534 243.188 207.534C244.377 207.534 245.317 207.847 246.009 208.474C246.7 209.095 247.046 209.924 247.046 210.962C247.046 212.221 246.243 213.721 244.638 215.462L241.21 219.179H247.635V220.507ZM255.704 207.71L259.887 218.151L264.071 207.71H266.259V220.507H264.572V215.523L264.73 210.144L260.529 220.507H259.237L255.045 210.171L255.212 215.523V220.507H253.524V207.71H255.704ZM276.112 214.591H270.566V219.127H277.009V220.507H268.879V207.71H276.921V209.098H270.566V213.212H276.112V214.591ZM282.52 214.802C281.073 214.386 280.018 213.877 279.356 213.273C278.7 212.664 278.372 211.914 278.372 211.023C278.372 210.015 278.773 209.183 279.576 208.527C280.384 207.865 281.433 207.534 282.722 207.534C283.601 207.534 284.383 207.704 285.069 208.044C285.76 208.383 286.293 208.852 286.668 209.45C287.049 210.048 287.24 210.701 287.24 211.41H285.543C285.543 210.636 285.297 210.03 284.805 209.591C284.313 209.145 283.619 208.923 282.722 208.923C281.89 208.923 281.24 209.107 280.771 209.476C280.308 209.84 280.077 210.346 280.077 210.997C280.077 211.518 280.296 211.961 280.736 212.324C281.181 212.681 281.934 213.009 282.995 213.308C284.061 213.607 284.893 213.938 285.491 214.301C286.094 214.659 286.539 215.078 286.827 215.558C287.12 216.039 287.266 216.604 287.266 217.255C287.266 218.292 286.862 219.124 286.053 219.751C285.245 220.372 284.164 220.682 282.81 220.682C281.931 220.682 281.111 220.515 280.349 220.181C279.587 219.841 278.998 219.379 278.582 218.793C278.172 218.207 277.967 217.542 277.967 216.798H279.664C279.664 217.571 279.948 218.183 280.516 218.634C281.09 219.08 281.855 219.302 282.81 219.302C283.701 219.302 284.383 219.121 284.858 218.758C285.332 218.394 285.57 217.899 285.57 217.272C285.57 216.645 285.35 216.162 284.911 215.822C284.471 215.476 283.674 215.136 282.52 214.802ZM296.31 214.591H290.764V219.127H297.207V220.507H289.077V207.71H297.119V209.098H290.764V213.212H296.31V214.591ZM302.718 214.802C301.271 214.386 300.216 213.877 299.554 213.273C298.898 212.664 298.569 211.914 298.569 211.023C298.569 210.015 298.971 209.183 299.774 208.527C300.582 207.865 301.631 207.534 302.92 207.534C303.799 207.534 304.581 207.704 305.267 208.044C305.958 208.383 306.491 208.852 306.866 209.45C307.247 210.048 307.438 210.701 307.438 211.41H305.741C305.741 210.636 305.495 210.03 305.003 209.591C304.511 209.145 303.817 208.923 302.92 208.923C302.088 208.923 301.438 209.107 300.969 209.476C300.506 209.84 300.275 210.346 300.275 210.997C300.275 211.518 300.494 211.961 300.934 212.324C301.379 212.681 302.132 213.009 303.193 213.308C304.259 213.607 305.091 213.938 305.689 214.301C306.292 214.659 306.737 215.078 307.025 215.558C307.318 216.039 307.464 216.604 307.464 217.255C307.464 218.292 307.06 219.124 306.251 219.751C305.443 220.372 304.361 220.682 303.008 220.682C302.129 220.682 301.309 220.515 300.547 220.181C299.785 219.841 299.196 219.379 298.78 218.793C298.37 218.207 298.165 217.542 298.165 216.798H299.861C299.861 217.571 300.146 218.183 300.714 218.634C301.288 219.08 302.053 219.302 303.008 219.302C303.899 219.302 304.581 219.121 305.056 218.758C305.53 218.394 305.768 217.899 305.768 217.272C305.768 216.645 305.548 216.162 305.109 215.822C304.669 215.476 303.872 215.136 302.718 214.802Z" fill="white"/>
<path d="M241.614 257.73H242.836C243.604 257.718 244.207 257.516 244.646 257.123C245.086 256.731 245.306 256.201 245.306 255.533C245.306 254.033 244.559 253.283 243.064 253.283C242.361 253.283 241.799 253.485 241.377 253.889C240.961 254.287 240.753 254.818 240.753 255.48H239.127C239.127 254.466 239.496 253.625 240.234 252.957C240.979 252.284 241.922 251.947 243.064 251.947C244.271 251.947 245.218 252.266 245.903 252.905C246.589 253.543 246.932 254.431 246.932 255.568C246.932 256.124 246.75 256.663 246.387 257.185C246.029 257.706 245.54 258.096 244.919 258.354C245.622 258.577 246.164 258.946 246.545 259.461C246.932 259.977 247.125 260.607 247.125 261.351C247.125 262.499 246.75 263.411 246 264.084C245.25 264.758 244.274 265.095 243.073 265.095C241.872 265.095 240.894 264.77 240.138 264.12C239.388 263.469 239.013 262.611 239.013 261.544H240.647C240.647 262.218 240.867 262.757 241.307 263.161C241.746 263.566 242.335 263.768 243.073 263.768C243.858 263.768 244.459 263.563 244.875 263.153C245.291 262.743 245.499 262.154 245.499 261.386C245.499 260.642 245.271 260.071 244.813 259.672C244.356 259.274 243.697 259.069 242.836 259.057H241.614V257.73ZM255.704 252.122L259.887 262.564L264.071 252.122H266.259V264.919H264.572V259.936L264.73 254.557L260.529 264.919H259.237L255.045 254.583L255.212 259.936V264.919H253.524V252.122H255.704ZM276.112 259.004H270.566V263.539H277.009V264.919H268.879V252.122H276.921V253.511H270.566V257.624H276.112V259.004ZM282.52 259.215C281.073 258.799 280.018 258.289 279.356 257.686C278.7 257.077 278.372 256.327 278.372 255.436C278.372 254.428 278.773 253.596 279.576 252.94C280.384 252.278 281.433 251.947 282.722 251.947C283.601 251.947 284.383 252.117 285.069 252.456C285.76 252.796 286.293 253.265 286.668 253.863C287.049 254.46 287.24 255.114 287.24 255.823H285.543C285.543 255.049 285.297 254.443 284.805 254.003C284.313 253.558 283.619 253.335 282.722 253.335C281.89 253.335 281.24 253.52 280.771 253.889C280.308 254.252 280.077 254.759 280.077 255.41C280.077 255.931 280.296 256.373 280.736 256.737C281.181 257.094 281.934 257.422 282.995 257.721C284.061 258.02 284.893 258.351 285.491 258.714C286.094 259.072 286.539 259.491 286.827 259.971C287.12 260.452 287.266 261.017 287.266 261.667C287.266 262.704 286.862 263.536 286.053 264.163C285.245 264.785 284.164 265.095 282.81 265.095C281.931 265.095 281.111 264.928 280.349 264.594C279.587 264.254 278.998 263.791 278.582 263.205C278.172 262.62 277.967 261.954 277.967 261.21H279.664C279.664 261.984 279.948 262.596 280.516 263.047C281.09 263.493 281.855 263.715 282.81 263.715C283.701 263.715 284.383 263.534 284.858 263.17C285.332 262.807 285.57 262.312 285.57 261.685C285.57 261.058 285.35 260.575 284.911 260.235C284.471 259.889 283.674 259.549 282.52 259.215ZM296.31 259.004H290.764V263.539H297.207V264.919H289.077V252.122H297.119V253.511H290.764V257.624H296.31V259.004ZM302.718 259.215C301.271 258.799 300.216 258.289 299.554 257.686C298.898 257.077 298.569 256.327 298.569 255.436C298.569 254.428 298.971 253.596 299.774 252.94C300.582 252.278 301.631 251.947 302.92 251.947C303.799 251.947 304.581 252.117 305.267 252.456C305.958 252.796 306.491 253.265 306.866 253.863C307.247 254.46 307.438 255.114 307.438 255.823H305.741C305.741 255.049 305.495 254.443 305.003 254.003C304.511 253.558 303.817 253.335 302.92 253.335C302.088 253.335 301.438 253.52 300.969 253.889C300.506 254.252 300.275 254.759 300.275 255.41C300.275 255.931 300.494 256.373 300.934 256.737C301.379 257.094 302.132 257.422 303.193 257.721C304.259 258.02 305.091 258.351 305.689 258.714C306.292 259.072 306.737 259.491 307.025 259.971C307.318 260.452 307.464 261.017 307.464 261.667C307.464 262.704 307.06 263.536 306.251 264.163C305.443 264.785 304.361 265.095 303.008 265.095C302.129 265.095 301.309 264.928 300.547 264.594C299.785 264.254 299.196 263.791 298.78 263.205C298.37 262.62 298.165 261.954 298.165 261.21H299.861C299.861 261.984 300.146 262.596 300.714 263.047C301.288 263.493 302.053 263.715 303.008 263.715C303.899 263.715 304.581 263.534 305.056 263.17C305.53 262.807 305.768 262.312 305.768 261.685C305.768 261.058 305.548 260.575 305.109 260.235C304.669 259.889 303.872 259.549 302.718 259.215Z" fill="white"/>
<path d="M246.114 305.034H247.89V306.361H246.114V309.332H244.479V306.361H238.652V305.403L244.383 296.535H246.114V305.034ZM240.498 305.034H244.479V298.759L244.286 299.11L240.498 305.034ZM255.704 296.535L259.887 306.977L264.071 296.535H266.259V309.332H264.572V304.349L264.73 298.97L260.529 309.332H259.237L255.045 298.996L255.212 304.349V309.332H253.524V296.535H255.704ZM276.112 303.417H270.566V307.952H277.009V309.332H268.879V296.535H276.921V297.924H270.566V302.037H276.112V303.417ZM282.52 303.628C281.073 303.212 280.018 302.702 279.356 302.099C278.7 301.489 278.372 300.739 278.372 299.849C278.372 298.841 278.773 298.009 279.576 297.353C280.384 296.69 281.433 296.359 282.722 296.359C283.601 296.359 284.383 296.529 285.069 296.869C285.76 297.209 286.293 297.678 286.668 298.275C287.049 298.873 287.24 299.526 287.24 300.235H285.543C285.543 299.462 285.297 298.856 284.805 298.416C284.313 297.971 283.619 297.748 282.722 297.748C281.89 297.748 281.24 297.933 280.771 298.302C280.308 298.665 280.077 299.172 280.077 299.822C280.077 300.344 280.296 300.786 280.736 301.149C281.181 301.507 281.934 301.835 282.995 302.134C284.061 302.433 284.893 302.764 285.491 303.127C286.094 303.484 286.539 303.903 286.827 304.384C287.12 304.864 287.266 305.43 287.266 306.08C287.266 307.117 286.862 307.949 286.053 308.576C285.245 309.197 284.164 309.508 282.81 309.508C281.931 309.508 281.111 309.341 280.349 309.007C279.587 308.667 278.998 308.204 278.582 307.618C278.172 307.032 277.967 306.367 277.967 305.623H279.664C279.664 306.397 279.948 307.009 280.516 307.46C281.09 307.905 281.855 308.128 282.81 308.128C283.701 308.128 284.383 307.946 284.858 307.583C285.332 307.22 285.57 306.725 285.57 306.098C285.57 305.471 285.35 304.987 284.911 304.648C284.471 304.302 283.674 303.962 282.52 303.628ZM296.31 303.417H290.764V307.952H297.207V309.332H289.077V296.535H297.119V297.924H290.764V302.037H296.31V303.417ZM302.718 303.628C301.271 303.212 300.216 302.702 299.554 302.099C298.898 301.489 298.569 300.739 298.569 299.849C298.569 298.841 298.971 298.009 299.774 297.353C300.582 296.69 301.631 296.359 302.92 296.359C303.799 296.359 304.581 296.529 305.267 296.869C305.958 297.209 306.491 297.678 306.866 298.275C307.247 298.873 307.438 299.526 307.438 300.235H305.741C305.741 299.462 305.495 298.856 305.003 298.416C304.511 297.971 303.817 297.748 302.92 297.748C302.088 297.748 301.438 297.933 300.969 298.302C300.506 298.665 300.275 299.172 300.275 299.822C300.275 300.344 300.494 300.786 300.934 301.149C301.379 301.507 302.132 301.835 303.193 302.134C304.259 302.433 305.091 302.764 305.689 303.127C306.292 303.484 306.737 303.903 307.025 304.384C307.318 304.864 307.464 305.43 307.464 306.08C307.464 307.117 307.06 307.949 306.251 308.576C305.443 309.197 304.361 309.508 303.008 309.508C302.129 309.508 301.309 309.341 300.547 309.007C299.785 308.667 299.196 308.204 298.78 307.618C298.37 307.032 298.165 306.367 298.165 305.623H299.861C299.861 306.397 300.146 307.009 300.714 307.46C301.288 307.905 302.053 308.128 303.008 308.128C303.899 308.128 304.581 307.946 305.056 307.583C305.53 307.22 305.768 306.725 305.768 306.098C305.768 305.471 305.548 304.987 305.109 304.648C304.669 304.302 303.872 303.962 302.718 303.628Z" fill="white"/>
<path d="M245.631 339.93V341.31H245.332C244.066 341.333 243.059 341.708 242.309 342.435C241.559 343.161 241.125 344.184 241.008 345.502C241.682 344.729 242.602 344.342 243.768 344.342C244.881 344.342 245.769 344.734 246.431 345.52C247.099 346.305 247.433 347.318 247.433 348.561C247.433 349.879 247.072 350.934 246.352 351.725C245.637 352.516 244.676 352.911 243.469 352.911C242.244 352.911 241.251 352.442 240.489 351.505C239.728 350.562 239.347 349.349 239.347 347.866V347.242C239.347 344.887 239.848 343.088 240.85 341.846C241.857 340.598 243.354 339.959 245.341 339.93H245.631ZM243.495 345.695C242.938 345.695 242.426 345.862 241.957 346.196C241.488 346.53 241.163 346.949 240.981 347.453V348.051C240.981 349.106 241.219 349.955 241.693 350.6C242.168 351.244 242.76 351.566 243.469 351.566C244.201 351.566 244.775 351.297 245.191 350.758C245.613 350.219 245.824 349.513 245.824 348.64C245.824 347.761 245.61 347.052 245.183 346.513C244.761 345.968 244.198 345.695 243.495 345.695ZM255.704 339.939L259.887 350.38L264.071 339.939H266.259V352.735H264.572V347.752L264.73 342.373L260.529 352.735H259.237L255.045 342.4L255.212 347.752V352.735H253.524V339.939H255.704ZM276.112 346.82H270.566V351.356H277.009V352.735H268.879V339.939H276.921V341.327H270.566V345.441H276.112V346.82ZM282.52 347.031C281.073 346.615 280.018 346.106 279.356 345.502C278.7 344.893 278.372 344.143 278.372 343.252C278.372 342.244 278.773 341.412 279.576 340.756C280.384 340.094 281.433 339.763 282.722 339.763C283.601 339.763 284.383 339.933 285.069 340.273C285.76 340.612 286.293 341.081 286.668 341.679C287.049 342.276 287.24 342.93 287.24 343.639H285.543C285.543 342.865 285.297 342.259 284.805 341.819C284.313 341.374 283.619 341.151 282.722 341.151C281.89 341.151 281.24 341.336 280.771 341.705C280.308 342.068 280.077 342.575 280.077 343.226C280.077 343.747 280.296 344.19 280.736 344.553C281.181 344.91 281.934 345.238 282.995 345.537C284.061 345.836 284.893 346.167 285.491 346.53C286.094 346.888 286.539 347.307 286.827 347.787C287.12 348.268 287.266 348.833 287.266 349.483C287.266 350.521 286.862 351.353 286.053 351.98C285.245 352.601 284.164 352.911 282.81 352.911C281.931 352.911 281.111 352.744 280.349 352.41C279.587 352.07 278.998 351.608 278.582 351.022C278.172 350.436 277.967 349.771 277.967 349.026H279.664C279.664 349.8 279.948 350.412 280.516 350.863C281.09 351.309 281.855 351.531 282.81 351.531C283.701 351.531 284.383 351.35 284.858 350.986C285.332 350.623 285.57 350.128 285.57 349.501C285.57 348.874 285.35 348.391 284.911 348.051C284.471 347.705 283.674 347.365 282.52 347.031ZM296.31 346.82H290.764V351.356H297.207V352.735H289.077V339.939H297.119V341.327H290.764V345.441H296.31V346.82ZM302.718 347.031C301.271 346.615 300.216 346.106 299.554 345.502C298.898 344.893 298.569 344.143 298.569 343.252C298.569 342.244 298.971 341.412 299.774 340.756C300.582 340.094 301.631 339.763 302.92 339.763C303.799 339.763 304.581 339.933 305.267 340.273C305.958 340.612 306.491 341.081 306.866 341.679C307.247 342.276 307.438 342.93 307.438 343.639H305.741C305.741 342.865 305.495 342.259 305.003 341.819C304.511 341.374 303.817 341.151 302.92 341.151C302.088 341.151 301.438 341.336 300.969 341.705C300.506 342.068 300.275 342.575 300.275 343.226C300.275 343.747 300.494 344.19 300.934 344.553C301.379 344.91 302.132 345.238 303.193 345.537C304.259 345.836 305.091 346.167 305.689 346.53C306.292 346.888 306.737 347.307 307.025 347.787C307.318 348.268 307.464 348.833 307.464 349.483C307.464 350.521 307.06 351.353 306.251 351.98C305.443 352.601 304.361 352.911 303.008 352.911C302.129 352.911 301.309 352.744 300.547 352.41C299.785 352.07 299.196 351.608 298.78 351.022C298.37 350.436 298.165 349.771 298.165 349.026H299.861C299.861 349.8 300.146 350.412 300.714 350.863C301.288 351.309 302.053 351.531 303.008 351.531C303.899 351.531 304.581 351.35 305.056 350.986C305.53 350.623 305.768 350.128 305.768 349.501C305.768 348.874 305.548 348.391 305.109 348.051C304.669 347.705 303.872 347.365 302.718 347.031Z" fill="white"/>
<path d="M244.594 396.139H242.959V385.302L239.681 386.506V385.029L244.339 383.28H244.594V396.139ZM257.382 396.139H248.997V394.97L253.427 390.048C254.083 389.304 254.535 388.7 254.781 388.237C255.033 387.769 255.159 387.285 255.159 386.787C255.159 386.119 254.956 385.571 254.552 385.144C254.148 384.716 253.609 384.502 252.935 384.502C252.126 384.502 251.496 384.734 251.045 385.196C250.6 385.653 250.377 386.292 250.377 387.112H248.751C248.751 385.935 249.129 384.983 249.885 384.256C250.647 383.529 251.663 383.166 252.935 383.166C254.124 383.166 255.065 383.48 255.756 384.107C256.448 384.728 256.793 385.557 256.793 386.594C256.793 387.854 255.991 389.354 254.385 391.094L250.957 394.812H257.382V396.139ZM265.451 383.342L269.635 393.783L273.818 383.342H276.007V396.139H274.319V391.155L274.478 385.777L270.276 396.139H268.984L264.792 385.803L264.959 391.155V396.139H263.272V383.342H265.451ZM285.86 390.224H280.314V394.759H286.756V396.139H278.626V383.342H286.668V384.731H280.314V388.844H285.86V390.224ZM292.267 390.435C290.82 390.019 289.765 389.509 289.103 388.905C288.447 388.296 288.119 387.546 288.119 386.655C288.119 385.648 288.52 384.816 289.323 384.159C290.132 383.497 291.18 383.166 292.47 383.166C293.348 383.166 294.131 383.336 294.816 383.676C295.508 384.016 296.041 384.485 296.416 385.082C296.797 385.68 296.987 386.333 296.987 387.042H295.291C295.291 386.269 295.045 385.662 294.553 385.223C294.06 384.777 293.366 384.555 292.47 384.555C291.638 384.555 290.987 384.739 290.518 385.109C290.055 385.472 289.824 385.979 289.824 386.629C289.824 387.151 290.044 387.593 290.483 387.956C290.929 388.314 291.681 388.642 292.742 388.941C293.808 389.239 294.64 389.57 295.238 389.934C295.842 390.291 296.287 390.71 296.574 391.191C296.867 391.671 297.013 392.236 297.013 392.887C297.013 393.924 296.609 394.756 295.801 395.383C294.992 396.004 293.911 396.315 292.557 396.315C291.679 396.315 290.858 396.148 290.096 395.814C289.335 395.474 288.746 395.011 288.33 394.425C287.92 393.839 287.715 393.174 287.715 392.43H289.411C289.411 393.203 289.695 393.816 290.263 394.267C290.838 394.712 291.602 394.935 292.557 394.935C293.448 394.935 294.131 394.753 294.605 394.39C295.08 394.027 295.317 393.531 295.317 392.904C295.317 392.277 295.097 391.794 294.658 391.454C294.219 391.109 293.422 390.769 292.267 390.435ZM306.058 390.224H300.512V394.759H306.954V396.139H298.824V383.342H306.866V384.731H300.512V388.844H306.058V390.224ZM312.465 390.435C311.018 390.019 309.963 389.509 309.301 388.905C308.645 388.296 308.317 387.546 308.317 386.655C308.317 385.648 308.718 384.816 309.521 384.159C310.33 383.497 311.378 383.166 312.668 383.166C313.546 383.166 314.329 383.336 315.014 383.676C315.706 384.016 316.239 384.485 316.614 385.082C316.995 385.68 317.185 386.333 317.185 387.042H315.489C315.489 386.269 315.243 385.662 314.751 385.223C314.258 384.777 313.564 384.555 312.668 384.555C311.835 384.555 311.185 384.739 310.716 385.109C310.253 385.472 310.022 385.979 310.022 386.629C310.022 387.151 310.242 387.593 310.681 387.956C311.126 388.314 311.879 388.642 312.94 388.941C314.006 389.239 314.838 389.57 315.436 389.934C316.04 390.291 316.485 390.71 316.772 391.191C317.065 391.671 317.211 392.236 317.211 392.887C317.211 393.924 316.807 394.756 315.999 395.383C315.19 396.004 314.109 396.315 312.755 396.315C311.876 396.315 311.056 396.148 310.294 395.814C309.533 395.474 308.944 395.011 308.528 394.425C308.118 393.839 307.913 393.174 307.913 392.43H309.609C309.609 393.203 309.893 393.816 310.461 394.267C311.036 394.712 311.8 394.935 312.755 394.935C313.646 394.935 314.329 394.753 314.803 394.39C315.278 394.027 315.515 393.531 315.515 392.904C315.515 392.277 315.295 391.794 314.856 391.454C314.417 391.109 313.62 390.769 312.465 390.435Z" fill="white"/>
<path d="M346.054 173.542C346.054 172.925 345.901 172.441 345.597 172.089C345.292 171.738 344.757 171.406 343.991 171.093C343.226 170.781 342.519 170.464 341.87 170.144C341.222 169.823 340.663 169.452 340.194 169.031C339.726 168.609 339.366 168.12 339.116 167.566C338.866 167.011 338.741 166.339 338.741 165.55C338.741 164.23 339.187 163.144 340.077 162.292C340.968 161.433 342.155 160.933 343.64 160.792V158.32H345.503V160.839C346.933 161.05 348.054 161.64 348.866 162.609C349.687 163.57 350.097 164.792 350.097 166.277H346.136C346.136 165.464 345.979 164.839 345.667 164.402C345.354 163.964 344.909 163.745 344.331 163.745C343.815 163.745 343.413 163.909 343.124 164.238C342.843 164.558 342.702 165.003 342.702 165.573C342.702 166.152 342.866 166.613 343.194 166.956C343.522 167.292 344.05 167.616 344.776 167.929C345.503 168.234 346.187 168.554 346.827 168.89C347.476 169.218 348.034 169.593 348.503 170.015C348.972 170.437 349.339 170.929 349.604 171.491C349.87 172.054 350.003 172.73 350.003 173.519C350.003 174.855 349.577 175.945 348.726 176.788C347.882 177.632 346.729 178.124 345.269 178.265V180.62H343.405V178.253C341.702 178.073 340.394 177.491 339.479 176.507C338.573 175.515 338.12 174.21 338.12 172.593H342.069C342.069 173.484 342.265 174.163 342.655 174.632C343.054 175.093 343.616 175.323 344.343 175.323C344.874 175.323 345.292 175.167 345.597 174.855C345.901 174.534 346.054 174.097 346.054 173.542ZM363.515 178.066H351.609V175.488L357.093 169.722C358.445 168.183 359.121 166.96 359.121 166.054C359.121 165.32 358.96 164.761 358.64 164.378C358.32 163.995 357.855 163.804 357.246 163.804C356.644 163.804 356.156 164.062 355.781 164.577C355.406 165.085 355.218 165.722 355.218 166.488H351.257C351.257 165.441 351.519 164.476 352.042 163.593C352.566 162.702 353.292 162.007 354.222 161.507C355.152 161.007 356.191 160.757 357.339 160.757C359.183 160.757 360.601 161.183 361.593 162.034C362.593 162.886 363.093 164.109 363.093 165.702C363.093 166.374 362.968 167.031 362.718 167.671C362.468 168.304 362.078 168.972 361.546 169.675C361.023 170.37 360.175 171.304 359.003 172.476L356.8 175.019H363.515V178.066ZM376.875 171.093C376.875 173.398 376.355 175.175 375.316 176.425C374.285 177.675 372.828 178.3 370.945 178.3C369.047 178.3 367.578 177.671 366.539 176.413C365.5 175.156 364.98 173.382 364.98 171.093V167.976C364.98 165.671 365.496 163.894 366.527 162.644C367.566 161.394 369.031 160.769 370.922 160.769C372.812 160.769 374.277 161.398 375.316 162.656C376.355 163.913 376.875 165.691 376.875 167.988V171.093ZM372.926 167.472C372.926 166.245 372.766 165.331 372.445 164.73C372.125 164.12 371.617 163.816 370.922 163.816C370.242 163.816 369.746 164.097 369.434 164.659C369.129 165.222 368.965 166.073 368.941 167.214V171.573C368.941 172.847 369.102 173.781 369.422 174.374C369.742 174.96 370.25 175.253 370.945 175.253C371.617 175.253 372.113 174.968 372.434 174.398C372.754 173.82 372.918 172.917 372.926 171.691V167.472ZM390.293 171.093C390.293 173.398 389.774 175.175 388.735 176.425C387.704 177.675 386.247 178.3 384.364 178.3C382.465 178.3 380.997 177.671 379.957 176.413C378.918 175.156 378.399 173.382 378.399 171.093V167.976C378.399 165.671 378.914 163.894 379.946 162.644C380.985 161.394 382.45 160.769 384.34 160.769C386.231 160.769 387.696 161.398 388.735 162.656C389.774 163.913 390.293 165.691 390.293 167.988V171.093ZM386.344 167.472C386.344 166.245 386.184 165.331 385.864 164.73C385.543 164.12 385.036 163.816 384.34 163.816C383.661 163.816 383.164 164.097 382.852 164.659C382.547 165.222 382.383 166.073 382.36 167.214V171.573C382.36 172.847 382.52 173.781 382.84 174.374C383.161 174.96 383.668 175.253 384.364 175.253C385.036 175.253 385.532 174.968 385.852 174.398C386.172 173.82 386.336 172.917 386.344 171.691V167.472Z" fill="white"/>
<path d="M346.054 216.946C346.054 216.328 345.901 215.844 345.597 215.492C345.292 215.141 344.757 214.809 343.991 214.496C343.226 214.184 342.519 213.867 341.87 213.547C341.222 213.227 340.663 212.856 340.194 212.434C339.726 212.012 339.366 211.524 339.116 210.969C338.866 210.414 338.741 209.742 338.741 208.953C338.741 207.633 339.187 206.547 340.077 205.696C340.968 204.836 342.155 204.336 343.64 204.196V201.723H345.503V204.242C346.933 204.453 348.054 205.043 348.866 206.012C349.687 206.973 350.097 208.196 350.097 209.68H346.136C346.136 208.867 345.979 208.242 345.667 207.805C345.354 207.367 344.909 207.149 344.331 207.149C343.815 207.149 343.413 207.313 343.124 207.641C342.843 207.961 342.702 208.407 342.702 208.977C342.702 209.555 342.866 210.016 343.194 210.36C343.522 210.696 344.05 211.02 344.776 211.332C345.503 211.637 346.187 211.957 346.827 212.293C347.476 212.621 348.034 212.996 348.503 213.418C348.972 213.84 349.339 214.332 349.604 214.895C349.87 215.457 350.003 216.133 350.003 216.922C350.003 218.258 349.577 219.348 348.726 220.192C347.882 221.035 346.729 221.528 345.269 221.668V224.024H343.405V221.657C341.702 221.477 340.394 220.895 339.479 219.91C338.573 218.918 338.12 217.614 338.12 215.996H342.069C342.069 216.887 342.265 217.567 342.655 218.035C343.054 218.496 343.616 218.727 344.343 218.727C344.874 218.727 345.292 218.571 345.597 218.258C345.901 217.938 346.054 217.5 346.054 216.946ZM355.218 211.285H357.082C358.558 211.285 359.296 210.563 359.296 209.117C359.296 208.555 359.121 208.098 358.769 207.746C358.417 207.387 357.921 207.207 357.281 207.207C356.757 207.207 356.3 207.36 355.91 207.664C355.527 207.969 355.335 208.348 355.335 208.801H351.386C351.386 207.903 351.636 207.102 352.136 206.399C352.636 205.696 353.328 205.149 354.21 204.758C355.101 204.36 356.078 204.16 357.14 204.16C359.039 204.16 360.531 204.594 361.617 205.461C362.703 206.328 363.246 207.52 363.246 209.035C363.246 209.77 363.019 210.465 362.566 211.121C362.121 211.77 361.468 212.297 360.609 212.703C361.515 213.032 362.226 213.532 362.742 214.203C363.257 214.867 363.515 215.692 363.515 216.676C363.515 218.2 362.929 219.418 361.757 220.332C360.585 221.246 359.046 221.703 357.14 221.703C356.023 221.703 354.984 221.492 354.023 221.071C353.07 220.641 352.347 220.051 351.855 219.301C351.363 218.543 351.117 217.684 351.117 216.723H355.089C355.089 217.246 355.3 217.7 355.722 218.082C356.144 218.465 356.664 218.657 357.281 218.657C357.976 218.657 358.531 218.465 358.945 218.082C359.359 217.692 359.566 217.196 359.566 216.594C359.566 215.735 359.351 215.125 358.921 214.766C358.492 214.407 357.898 214.227 357.14 214.227H355.218V211.285ZM376.535 208.965C376.535 209.793 376.328 210.524 375.914 211.157C375.508 211.789 374.945 212.297 374.227 212.68C375.039 213.078 375.684 213.625 376.16 214.321C376.637 215.008 376.875 215.825 376.875 216.77C376.875 218.293 376.348 219.496 375.293 220.379C374.246 221.262 372.801 221.703 370.957 221.703C369.105 221.703 367.644 221.262 366.574 220.379C365.504 219.489 364.969 218.285 364.969 216.77C364.969 215.856 365.203 215.047 365.672 214.344C366.141 213.641 366.805 213.086 367.664 212.68C366.937 212.297 366.367 211.789 365.953 211.157C365.539 210.524 365.332 209.793 365.332 208.965C365.332 207.481 365.836 206.309 366.844 205.45C367.852 204.59 369.211 204.16 370.922 204.16C372.648 204.16 374.016 204.59 375.023 205.45C376.031 206.309 376.535 207.481 376.535 208.965ZM372.914 216.453C372.914 215.75 372.73 215.211 372.363 214.836C372.004 214.453 371.527 214.262 370.934 214.262C370.34 214.262 369.859 214.453 369.492 214.836C369.125 215.211 368.941 215.75 368.941 216.453C368.941 217.133 369.125 217.672 369.492 218.071C369.867 218.461 370.355 218.657 370.957 218.657C371.543 218.657 372.016 218.461 372.375 218.071C372.734 217.68 372.914 217.141 372.914 216.453ZM370.922 207.207C370.391 207.207 369.984 207.383 369.703 207.735C369.43 208.078 369.293 208.559 369.293 209.176C369.293 209.785 369.434 210.278 369.715 210.653C369.996 211.028 370.41 211.215 370.957 211.215C371.496 211.215 371.898 211.028 372.164 210.653C372.437 210.278 372.574 209.785 372.574 209.176C372.574 208.567 372.434 208.086 372.152 207.735C371.879 207.383 371.469 207.207 370.922 207.207ZM390.293 214.496C390.293 216.801 389.774 218.578 388.735 219.828C387.704 221.078 386.247 221.703 384.364 221.703C382.465 221.703 380.997 221.075 379.957 219.817C378.918 218.559 378.399 216.785 378.399 214.496V211.379C378.399 209.075 378.914 207.297 379.946 206.047C380.985 204.797 382.45 204.172 384.34 204.172C386.231 204.172 387.696 204.801 388.735 206.059C389.774 207.317 390.293 209.094 390.293 211.391V214.496ZM386.344 210.875C386.344 209.649 386.184 208.735 385.864 208.133C385.543 207.524 385.036 207.219 384.34 207.219C383.661 207.219 383.164 207.5 382.852 208.063C382.547 208.625 382.383 209.477 382.36 210.617V214.977C382.36 216.25 382.52 217.184 382.84 217.778C383.161 218.364 383.668 218.657 384.364 218.657C385.036 218.657 385.532 218.371 385.852 217.801C386.172 217.223 386.336 216.321 386.344 215.094V210.875Z" fill="white"/>
<path d="M346.054 261.358C346.054 260.741 345.901 260.257 345.597 259.905C345.292 259.554 344.757 259.222 343.991 258.909C343.226 258.597 342.519 258.28 341.87 257.96C341.222 257.64 340.663 257.269 340.194 256.847C339.726 256.425 339.366 255.936 339.116 255.382C338.866 254.827 338.741 254.155 338.741 253.366C338.741 252.046 339.187 250.96 340.077 250.108C340.968 249.249 342.155 248.749 343.64 248.608V246.136H345.503V248.655C346.933 248.866 348.054 249.456 348.866 250.425C349.687 251.386 350.097 252.608 350.097 254.093H346.136C346.136 253.28 345.979 252.655 345.667 252.218C345.354 251.78 344.909 251.561 344.331 251.561C343.815 251.561 343.413 251.726 343.124 252.054C342.843 252.374 342.702 252.819 342.702 253.39C342.702 253.968 342.866 254.429 343.194 254.772C343.522 255.108 344.05 255.433 344.776 255.745C345.503 256.05 346.187 256.37 346.827 256.706C347.476 257.034 348.034 257.409 348.503 257.831C348.972 258.253 349.339 258.745 349.604 259.308C349.87 259.87 350.003 260.546 350.003 261.335C350.003 262.671 349.577 263.761 348.726 264.604C347.882 265.448 346.729 265.94 345.269 266.081V268.436H343.405V266.069C341.702 265.89 340.394 265.308 339.479 264.323C338.573 263.331 338.12 262.026 338.12 260.409H342.069C342.069 261.3 342.265 261.979 342.655 262.448C343.054 262.909 343.616 263.14 344.343 263.14C344.874 263.14 345.292 262.983 345.597 262.671C345.901 262.351 346.054 261.913 346.054 261.358ZM351.843 257.538L352.886 248.819H362.859V251.89H356.097L355.71 255.276C355.992 255.112 356.359 254.968 356.812 254.843C357.273 254.718 357.722 254.655 358.16 254.655C359.855 254.655 361.156 255.159 362.062 256.167C362.976 257.167 363.433 258.573 363.433 260.386C363.433 261.479 363.187 262.472 362.695 263.362C362.21 264.245 361.527 264.925 360.644 265.401C359.761 265.878 358.718 266.116 357.515 266.116C356.445 266.116 355.441 265.897 354.503 265.46C353.566 265.015 352.832 264.409 352.3 263.644C351.769 262.87 351.507 261.999 351.515 261.03H355.476C355.515 261.655 355.714 262.151 356.074 262.519C356.433 262.886 356.906 263.069 357.492 263.069C358.82 263.069 359.484 262.085 359.484 260.116C359.484 258.296 358.671 257.386 357.046 257.386C356.124 257.386 355.437 257.683 354.984 258.276L351.843 257.538ZM374.566 248.573V251.679H374.391C372.914 251.679 371.699 252.034 370.746 252.745C369.801 253.448 369.219 254.429 369 255.686C369.891 254.811 371.016 254.374 372.375 254.374C373.852 254.374 375.027 254.913 375.902 255.991C376.777 257.069 377.215 258.483 377.215 260.233C377.215 261.319 376.957 262.315 376.441 263.222C375.934 264.128 375.219 264.839 374.297 265.354C373.383 265.862 372.367 266.116 371.25 266.116C370.039 266.116 368.957 265.843 368.004 265.296C367.051 264.741 366.309 263.952 365.777 262.929C365.246 261.905 364.973 260.726 364.957 259.39V257.808C364.957 256.05 365.332 254.472 366.082 253.073C366.84 251.667 367.918 250.565 369.316 249.769C370.715 248.972 372.266 248.573 373.969 248.573H374.566ZM371.004 257.397C370.48 257.397 370.043 257.519 369.691 257.761C369.34 258.003 369.078 258.3 368.906 258.651V259.835C368.906 261.991 369.652 263.069 371.144 263.069C371.746 263.069 372.246 262.8 372.644 262.261C373.051 261.722 373.254 261.046 373.254 260.233C373.254 259.397 373.047 258.718 372.633 258.194C372.227 257.663 371.684 257.397 371.004 257.397ZM390.293 258.909C390.293 261.214 389.774 262.991 388.735 264.241C387.704 265.491 386.247 266.116 384.364 266.116C382.465 266.116 380.997 265.487 379.957 264.229C378.918 262.972 378.399 261.198 378.399 258.909V255.792C378.399 253.487 378.914 251.71 379.946 250.46C380.985 249.21 382.45 248.585 384.34 248.585C386.231 248.585 387.696 249.214 388.735 250.472C389.774 251.729 390.293 253.507 390.293 255.804V258.909ZM386.344 255.288C386.344 254.061 386.184 253.147 385.864 252.546C385.543 251.936 385.036 251.632 384.34 251.632C383.661 251.632 383.164 251.913 382.852 252.476C382.547 253.038 382.383 253.89 382.36 255.03V259.39C382.36 260.663 382.52 261.597 382.84 262.19C383.161 262.776 383.668 263.069 384.364 263.069C385.036 263.069 385.532 262.784 385.852 262.214C386.172 261.636 386.336 260.733 386.344 259.507V255.288Z" fill="white"/>
<path d="M346.054 305.771C346.054 305.154 345.901 304.67 345.597 304.318C345.292 303.966 344.757 303.634 343.991 303.322C343.226 303.009 342.519 302.693 341.87 302.373C341.222 302.052 340.663 301.681 340.194 301.259C339.726 300.838 339.366 300.349 339.116 299.795C338.866 299.24 338.741 298.568 338.741 297.779C338.741 296.459 339.187 295.373 340.077 294.521C340.968 293.662 342.155 293.162 343.64 293.021V290.548H345.503V293.068C346.933 293.279 348.054 293.869 348.866 294.838C349.687 295.798 350.097 297.021 350.097 298.505H346.136C346.136 297.693 345.979 297.068 345.667 296.63C345.354 296.193 344.909 295.974 344.331 295.974C343.815 295.974 343.413 296.138 343.124 296.466C342.843 296.787 342.702 297.232 342.702 297.802C342.702 298.38 342.866 298.841 343.194 299.185C343.522 299.521 344.05 299.845 344.776 300.158C345.503 300.463 346.187 300.783 346.827 301.119C347.476 301.447 348.034 301.822 348.503 302.244C348.972 302.666 349.339 303.158 349.604 303.72C349.87 304.283 350.003 304.959 350.003 305.748C350.003 307.084 349.577 308.173 348.726 309.017C347.882 309.861 346.729 310.353 345.269 310.494V312.849H343.405V310.482C341.702 310.302 340.394 309.72 339.479 308.736C338.573 307.744 338.12 306.439 338.12 304.822H342.069C342.069 305.713 342.265 306.392 342.655 306.861C343.054 307.322 343.616 307.552 344.343 307.552C344.874 307.552 345.292 307.396 345.597 307.084C345.901 306.763 346.054 306.326 346.054 305.771ZM363.468 295.341L357.093 310.295H352.921L359.308 296.279H351.175V293.232H363.468V295.341ZM375.457 303.627H377.191V306.673H375.457V310.295H371.508V306.673H364.91L364.676 304.259L371.508 293.267V293.232H375.457V303.627ZM368.437 303.627H371.508V298.377L371.262 298.775L368.437 303.627ZM390.293 303.322C390.293 305.627 389.774 307.404 388.735 308.654C387.704 309.904 386.247 310.529 384.364 310.529C382.465 310.529 380.997 309.9 379.957 308.642C378.918 307.384 378.399 305.611 378.399 303.322V300.205C378.399 297.9 378.914 296.123 379.946 294.873C380.985 293.623 382.45 292.998 384.34 292.998C386.231 292.998 387.696 293.627 388.735 294.884C389.774 296.142 390.293 297.92 390.293 300.216V303.322ZM386.344 299.701C386.344 298.474 386.184 297.56 385.864 296.959C385.543 296.349 385.036 296.045 384.34 296.045C383.661 296.045 383.164 296.326 382.852 296.888C382.547 297.451 382.383 298.302 382.36 299.443V303.802C382.36 305.076 382.52 306.009 382.84 306.603C383.161 307.189 383.668 307.482 384.364 307.482C385.036 307.482 385.532 307.197 385.852 306.627C386.172 306.048 386.336 305.146 386.344 303.92V299.701Z" fill="white"/>
<path d="M332.926 349.174C332.926 348.557 332.773 348.073 332.469 347.721C332.164 347.37 331.629 347.038 330.863 346.725C330.098 346.413 329.391 346.096 328.742 345.776C328.094 345.456 327.535 345.085 327.066 344.663C326.598 344.241 326.238 343.753 325.988 343.198C325.738 342.643 325.613 341.971 325.613 341.182C325.613 339.862 326.059 338.776 326.949 337.924C327.84 337.065 329.027 336.565 330.512 336.424V333.952H332.375V336.471C333.805 336.682 334.926 337.272 335.738 338.241C336.559 339.202 336.969 340.424 336.969 341.909H333.008C333.008 341.096 332.852 340.471 332.539 340.034C332.227 339.596 331.781 339.378 331.203 339.378C330.688 339.378 330.285 339.542 329.996 339.87C329.715 340.19 329.574 340.635 329.574 341.206C329.574 341.784 329.738 342.245 330.066 342.589C330.395 342.924 330.922 343.249 331.648 343.561C332.375 343.866 333.059 344.186 333.699 344.522C334.348 344.85 334.906 345.225 335.375 345.647C335.844 346.069 336.211 346.561 336.477 347.124C336.742 347.686 336.875 348.362 336.875 349.151C336.875 350.487 336.449 351.577 335.598 352.421C334.754 353.264 333.602 353.757 332.141 353.897V356.253H330.277V353.885C328.574 353.706 327.266 353.124 326.352 352.139C325.445 351.147 324.992 349.842 324.992 348.225H328.941C328.941 349.116 329.137 349.796 329.527 350.264C329.926 350.725 330.488 350.956 331.215 350.956C331.746 350.956 332.164 350.799 332.469 350.487C332.773 350.167 332.926 349.729 332.926 349.174ZM347.235 353.698H343.274V341.089L339.383 342.225V339.225L346.872 336.635H347.235V353.698ZM363.747 346.725C363.747 349.03 363.228 350.807 362.188 352.057C361.157 353.307 359.7 353.932 357.817 353.932C355.919 353.932 354.45 353.303 353.411 352.046C352.372 350.788 351.853 349.014 351.853 346.725V343.608C351.853 341.303 352.368 339.526 353.399 338.276C354.438 337.026 355.903 336.401 357.794 336.401C359.685 336.401 361.149 337.03 362.188 338.288C363.228 339.546 363.747 341.323 363.747 343.62V346.725ZM359.798 343.104C359.798 341.878 359.638 340.964 359.317 340.362C358.997 339.753 358.489 339.448 357.794 339.448C357.114 339.448 356.618 339.729 356.306 340.292C356.001 340.854 355.837 341.706 355.813 342.846V347.206C355.813 348.479 355.974 349.413 356.294 350.007C356.614 350.592 357.122 350.885 357.817 350.885C358.489 350.885 358.985 350.6 359.306 350.03C359.626 349.452 359.79 348.549 359.798 347.323V343.104ZM376.826 341.194C376.826 342.022 376.619 342.753 376.205 343.385C375.798 344.018 375.236 344.526 374.517 344.909C375.33 345.307 375.974 345.854 376.451 346.549C376.927 347.237 377.165 348.053 377.165 348.999C377.165 350.522 376.638 351.725 375.583 352.608C374.537 353.491 373.091 353.932 371.248 353.932C369.396 353.932 367.935 353.491 366.865 352.608C365.794 351.717 365.259 350.514 365.259 348.999C365.259 348.085 365.494 347.276 365.962 346.573C366.431 345.87 367.095 345.315 367.955 344.909C367.228 344.526 366.658 344.018 366.244 343.385C365.83 342.753 365.623 342.022 365.623 341.194C365.623 339.71 366.126 338.538 367.134 337.678C368.142 336.819 369.501 336.389 371.212 336.389C372.939 336.389 374.306 336.819 375.314 337.678C376.322 338.538 376.826 339.71 376.826 341.194ZM373.205 348.682C373.205 347.979 373.021 347.44 372.654 347.065C372.294 346.682 371.818 346.491 371.224 346.491C370.63 346.491 370.15 346.682 369.783 347.065C369.415 347.44 369.232 347.979 369.232 348.682C369.232 349.362 369.415 349.901 369.783 350.299C370.158 350.69 370.646 350.885 371.248 350.885C371.833 350.885 372.306 350.69 372.665 350.299C373.025 349.909 373.205 349.37 373.205 348.682ZM371.212 339.436C370.681 339.436 370.275 339.612 369.994 339.964C369.72 340.307 369.583 340.788 369.583 341.405C369.583 342.014 369.724 342.507 370.005 342.882C370.287 343.257 370.701 343.444 371.248 343.444C371.787 343.444 372.189 343.257 372.455 342.882C372.728 342.507 372.865 342.014 372.865 341.405C372.865 340.796 372.724 340.315 372.443 339.964C372.169 339.612 371.759 339.436 371.212 339.436ZM390.584 346.725C390.584 349.03 390.064 350.807 389.025 352.057C387.994 353.307 386.537 353.932 384.654 353.932C382.756 353.932 381.287 353.303 380.248 352.046C379.209 350.788 378.689 349.014 378.689 346.725V343.608C378.689 341.303 379.205 339.526 380.236 338.276C381.275 337.026 382.74 336.401 384.631 336.401C386.521 336.401 387.986 337.03 389.025 338.288C390.064 339.546 390.584 341.323 390.584 343.62V346.725ZM386.635 343.104C386.635 341.878 386.475 340.964 386.154 340.362C385.834 339.753 385.326 339.448 384.631 339.448C383.951 339.448 383.455 339.729 383.143 340.292C382.838 340.854 382.674 341.706 382.65 342.846V347.206C382.65 348.479 382.81 349.413 383.131 350.007C383.451 350.592 383.959 350.885 384.654 350.885C385.326 350.885 385.822 350.6 386.143 350.03C386.463 349.452 386.627 348.549 386.635 347.323V343.104Z" fill="white"/>
<path d="M332.926 392.578C332.926 391.961 332.773 391.476 332.469 391.125C332.164 390.773 331.629 390.441 330.863 390.129C330.098 389.816 329.391 389.5 328.742 389.179C328.094 388.859 327.535 388.488 327.066 388.066C326.598 387.644 326.238 387.156 325.988 386.601C325.738 386.047 325.613 385.375 325.613 384.586C325.613 383.265 326.059 382.179 326.949 381.328C327.84 380.468 329.027 379.968 330.512 379.828V377.355H332.375V379.875C333.805 380.086 334.926 380.676 335.738 381.644C336.559 382.605 336.969 383.828 336.969 385.312H333.008C333.008 384.5 332.852 383.875 332.539 383.437C332.227 383 331.781 382.781 331.203 382.781C330.688 382.781 330.285 382.945 329.996 383.273C329.715 383.593 329.574 384.039 329.574 384.609C329.574 385.187 329.738 385.648 330.066 385.992C330.395 386.328 330.922 386.652 331.648 386.965C332.375 387.269 333.059 387.59 333.699 387.926C334.348 388.254 334.906 388.629 335.375 389.051C335.844 389.472 336.211 389.965 336.477 390.527C336.742 391.09 336.875 391.765 336.875 392.554C336.875 393.89 336.449 394.98 335.598 395.824C334.754 396.668 333.602 397.16 332.141 397.301V399.656H330.277V397.289C328.574 397.109 327.266 396.527 326.352 395.543C325.445 394.551 324.992 393.246 324.992 391.629H328.941C328.941 392.519 329.137 393.199 329.527 393.668C329.926 394.129 330.488 394.359 331.215 394.359C331.746 394.359 332.164 394.203 332.469 393.89C332.773 393.57 332.926 393.133 332.926 392.578ZM347.235 397.101H343.274V384.492L339.383 385.629V382.629L346.872 380.039H347.235V397.101ZM359.681 390.504C358.829 391.269 357.876 391.652 356.821 391.652C355.274 391.652 354.048 391.129 353.142 390.082C352.235 389.035 351.782 387.636 351.782 385.886C351.782 384.793 352.036 383.777 352.544 382.84C353.052 381.902 353.763 381.16 354.677 380.613C355.599 380.066 356.614 379.793 357.724 379.793C358.849 379.793 359.864 380.078 360.77 380.648C361.685 381.211 362.395 382.011 362.903 383.051C363.411 384.082 363.673 385.273 363.688 386.625V388.136C363.688 390.019 363.317 391.652 362.575 393.035C361.841 394.418 360.79 395.48 359.423 396.222C358.056 396.965 356.462 397.336 354.642 397.336H354.395V394.172L355.145 394.16C357.864 394.027 359.376 392.808 359.681 390.504ZM357.888 388.804C358.747 388.804 359.364 388.433 359.739 387.691V386.051C359.739 384.957 359.556 384.148 359.188 383.625C358.821 383.101 358.325 382.84 357.7 382.84C357.145 382.84 356.681 383.136 356.306 383.73C355.931 384.324 355.743 385.043 355.743 385.886C355.743 386.777 355.935 387.488 356.317 388.019C356.7 388.543 357.224 388.804 357.888 388.804ZM377.224 397.101H365.318V394.523L370.802 388.758C372.154 387.218 372.83 385.996 372.83 385.09C372.83 384.355 372.669 383.797 372.349 383.414C372.029 383.031 371.564 382.84 370.955 382.84C370.353 382.84 369.865 383.097 369.49 383.613C369.115 384.121 368.927 384.758 368.927 385.523H364.966C364.966 384.476 365.228 383.511 365.751 382.629C366.275 381.738 367.001 381.043 367.931 380.543C368.861 380.043 369.9 379.793 371.048 379.793C372.892 379.793 374.31 380.218 375.302 381.07C376.302 381.922 376.802 383.144 376.802 384.738C376.802 385.41 376.677 386.066 376.427 386.707C376.177 387.34 375.787 388.008 375.255 388.711C374.732 389.406 373.884 390.34 372.712 391.511L370.509 394.054H377.224V397.101ZM390.584 390.129C390.584 392.433 390.064 394.211 389.025 395.461C387.994 396.711 386.537 397.336 384.654 397.336C382.756 397.336 381.287 396.707 380.248 395.449C379.209 394.191 378.689 392.418 378.689 390.129V387.011C378.689 384.707 379.205 382.929 380.236 381.679C381.275 380.429 382.74 379.804 384.631 379.804C386.521 379.804 387.986 380.433 389.025 381.691C390.064 382.949 390.584 384.726 390.584 387.023V390.129ZM386.635 386.508C386.635 385.281 386.475 384.367 386.154 383.765C385.834 383.156 385.326 382.851 384.631 382.851C383.951 382.851 383.455 383.133 383.143 383.695C382.838 384.258 382.674 385.109 382.65 386.25V390.609C382.65 391.883 382.81 392.816 383.131 393.41C383.451 393.996 383.959 394.289 384.654 394.289C385.326 394.289 385.822 394.004 386.143 393.433C386.463 392.855 386.627 391.953 386.635 390.726V386.508Z" fill="white"/>
<path d="M154.578 366.58C149.979 359.244 134.322 356.309 126.983 355.331V355.233H126.396C124.439 354.94 123.167 354.842 123.167 354.842H119.252L115.338 354.646C115.338 354.646 114.066 354.744 112.109 354.842H111.522V354.94C104.182 355.625 88.4276 357.972 83.5348 365.015C79.8163 370.395 86.9598 400.033 88.9169 424.389C90.3848 442.583 86.5684 468.504 86.5684 468.504L147.533 469.874C147.533 469.874 144.695 441.409 147.141 421.553C149.979 398.272 157.905 371.764 154.578 366.58Z" fill="#E95E2A"/>
<path d="M194.504 500.393L168.572 498.828C163.777 498.73 160.156 495.697 160.254 490.904C160.352 486.111 164.364 483.177 169.159 483.275L193.329 486.209C198.124 486.307 203.311 488.068 203.213 492.861C203.311 492.861 204.485 501.371 194.504 500.393Z" fill="#032075"/>
<path d="M150.273 480.242L168.083 486.503C170.04 487.187 169.061 495.991 166.419 495.893L150.273 495.502V480.242Z" fill="#FD9F88"/>
<path d="M160.156 498.828C166.028 493.056 162.113 482.883 162.113 482.883C162.113 482.883 89.9935 458.136 42.5333 440.627C38.619 439.16 34.0198 440.431 31.6712 443.953C31.6712 443.953 31.6712 444.05 31.5734 444.05C29.0291 447.963 29.127 453.05 31.9648 456.767C41.1633 468.113 86.275 494.524 160.156 498.828Z" fill="url(#paint1_linear)"/>
<path d="M34.5093 499.219L58.484 498.828C63.279 498.73 66.8996 495.697 66.8018 490.904C66.7039 486.111 62.6918 483.177 57.8969 483.275L39.7935 485.035C36.075 485.133 31.3778 485.72 28.2465 487.872C21.7879 492.274 29.0293 499.414 34.5093 499.219Z" fill="#032075"/>
<path d="M76.7832 480.242L58.9734 486.503C57.0163 487.187 57.9948 495.991 60.6369 495.893L76.7832 495.502V480.242Z" fill="#FD9F88"/>
<path d="M66.8999 498.827C61.0285 493.056 64.9428 482.883 64.9428 482.883C64.9428 482.883 137.063 458.136 184.523 440.627C188.437 439.16 193.036 440.431 195.385 443.953C195.385 443.953 195.385 444.05 195.483 444.05C198.027 447.963 197.929 453.05 195.091 456.767C185.893 468.113 140.781 494.524 66.8999 498.827Z" fill="url(#paint2_linear)"/>
<path d="M105.553 411.869C99.1925 414.901 87.6455 420.477 76.4899 426.248C80.502 414.901 87.6455 401.011 93.0276 391.327C87.1562 385.948 80.4041 381.742 72.967 378.611C67.3892 393.088 55.1572 426.737 57.31 440.236C57.5057 441.312 57.7993 442.388 58.1907 443.561C69.4442 449.822 97.4311 428.595 109.174 419.009C108.195 416.564 107.021 414.216 105.553 411.869Z" fill="#FD9F88"/>
<path d="M104.966 355.82C104.966 355.82 98.7029 356.407 91.6572 358.657C82.7523 361.494 72.771 373.623 69.5417 381.252C64.9425 392.012 60.4411 403.065 57.5054 414.412C55.3526 422.726 52.6126 432.215 54.0805 440.92C54.2762 442.094 54.5698 443.366 55.059 444.735L55.4505 446.007L56.6247 446.691C58.484 447.767 60.7347 448.257 63.1811 448.257C74.3367 448.257 90.8744 437.497 102.617 428.693C99.1921 423.998 96.6479 418.814 95.5715 413.141C91.0701 415.292 86.8623 417.444 82.8502 419.401C90.483 401.696 102.617 381.644 102.813 381.448L102.911 381.252L103.009 381.057C103.498 379.883 103.889 378.709 104.085 377.535C105.553 373.818 106.336 359.439 104.966 355.82Z" fill="#E95E2A"/>
<path d="M167.201 391.621C159.862 392.012 152.621 393.577 145.771 396.903C152.425 411.086 159.862 429.085 159.275 438.181C158.884 440.529 126.787 457.94 116.512 463.418C117.393 466.059 118.567 468.602 119.937 470.95C131.093 467.331 172.29 452.952 175.324 439.16C177.574 429.28 172.192 407.956 167.201 391.621Z" fill="#FD9F88"/>
<path d="M157.905 368.438C151.936 356.407 139.508 353.766 126.494 355.233C124.928 358.755 130.114 370.688 131.582 374.307C131.778 375.481 132.071 376.753 132.463 377.927L132.561 378.122L132.659 378.318C139.215 390.251 155.948 423.509 156.046 437.008C152.915 439.551 139.998 447.083 122.481 456.571C123.264 462.049 126.2 467.037 129.919 471.341C146.652 465.374 175.911 453.245 178.749 440.04C181.391 427.911 174.835 413.434 171.703 401.794C168.67 390.741 158.003 368.536 157.905 368.438Z" fill="#E95E2A"/>
<path d="M106.531 459.505C106.238 459.31 105.846 459.408 105.651 459.701C104.379 461.657 107.412 463.222 109.663 464.201C103.498 466.646 94.8866 468.407 90.7767 470.265C89.9938 470.656 90.1895 472.319 91.1681 472.221C94.3973 471.928 100.171 471.243 103.204 470.461C98.6051 472.613 93.1252 475.254 90.4831 476.917C89.7002 477.406 90.2874 478.971 91.1681 478.775C94.2995 477.993 104.379 474.471 104.379 474.569C100.856 476.819 95.963 479.753 94.0059 481.416C93.3209 482.003 94.1038 483.568 94.9845 483.177C97.6266 482.101 106.531 478.09 106.629 478.188C104.281 479.655 100.66 482.003 99.2901 483.177C98.6051 483.764 99.388 485.329 100.269 484.938C103.204 483.764 108.195 481.612 110.935 479.949C112.794 479.069 115.143 477.895 116.904 476.721C120.329 474.471 125.222 470.265 122.58 465.374C119.644 459.505 109.174 461.168 106.531 459.505Z" fill="#FD9F88"/>
<path d="M138.725 322.563C137.649 317.574 136.181 312.683 134.224 307.988C133.636 306.521 132.56 305.445 131.19 304.76C126.982 302.706 117.294 299.478 107.509 306.521C107.117 306.814 106.628 307.205 106.139 307.695C100.463 313.074 98.506 321.389 100.757 328.823L112.108 364.037C112.108 364.037 115.827 375.383 123.655 373.72C127.08 373.036 127.178 369.906 127.569 365.895C127.569 365.895 127.863 351.027 127.667 350.44C133.832 348.582 139.606 345.256 140.193 338.311C140.78 333.127 139.801 327.649 138.725 322.563Z" fill="#FD9F88"/>
<path d="M102.421 297.033C103.302 296.544 104.084 296.152 104.867 295.859C110.347 293.903 116.904 294.587 122.579 294.392C122.873 294.392 123.166 294.392 123.46 294.294C123.949 294.098 124.243 293.805 124.536 293.413C127.178 290.772 130.506 285.979 134.811 287.544C138.725 289.012 140.976 293.903 141.172 297.815C141.27 300.652 140.878 303.391 139.998 306.13C139.215 308.379 138.04 311.705 135.79 312.977C133.539 314.346 131.19 314.64 128.548 314.248C124.83 313.661 120.916 312.683 117.197 313.466C114.457 314.053 112.109 316.107 111.228 318.748C110.836 320.117 110.739 321.584 111.032 322.954C111.326 324.421 112.206 325.595 112.011 327.062C111.913 327.747 110.934 327.551 110.445 327.649C104.965 329.312 107.509 337.724 112.989 336.061C113.087 336.061 113.185 335.963 113.283 335.963C113.283 335.963 111.815 347.408 106.824 348.484C104.867 348.973 93.7116 327.258 92.5373 323.052C89.9931 313.661 92.6352 302.413 102.421 297.033Z" fill="#1C396B"/>
<g opacity="0.37">
<path opacity="0.37" d="M107.607 388.589C108.096 389.371 108.684 390.154 109.369 390.838C111.717 393.088 114.849 394.262 116.414 397.392C117.98 400.424 115.044 402.576 112.304 402.772C106.727 403.261 107.705 405.315 106.139 409.913C105.357 411.967 103.204 412.847 101.247 412.065C97.1366 410.597 97.9195 405.511 97.3323 402.087C96.6473 397.686 92.6352 394.262 94.8859 389.567C96.2559 386.632 100.757 383.698 104.084 385.067C105.65 385.654 106.629 387.121 107.607 388.589Z" fill="white"/>
<path opacity="0.37" d="M125.123 398.175C124.634 397.294 124.732 396.316 124.83 395.338C125.123 393.186 125.319 391.425 125.025 389.273C124.732 386.926 126.689 383.111 129.135 386.143C129.918 387.121 130.212 388.393 131.093 389.469C133.539 392.501 141.172 389.567 140.291 395.338C139.997 397.099 138.334 398.077 136.67 398.273C135.496 398.37 134.42 398.077 133.245 397.881C131.288 397.392 130.505 398.077 129.135 399.153C127.668 400.131 125.906 399.74 125.123 398.175Z" fill="white"/>
<path opacity="0.37" d="M95.6687 376.264C93.8094 376.753 92.3416 375.286 90.7759 375.579C88.8187 375.873 88.3295 378.416 87.1552 379.687C85.2959 381.742 82.0667 382.035 79.7181 380.959C76.8803 379.687 74.7274 376.851 73.9446 373.916C78.5438 367.46 85.4916 360.613 91.8523 358.657C92.2437 358.559 92.733 358.364 93.1244 358.266C93.0266 359.537 92.048 361.005 92.1458 362.276C92.3416 364.428 94.5922 366.189 95.8644 367.754C96.9408 369.025 98.0172 370.297 98.3108 371.96C98.5065 373.916 97.7237 375.677 95.6687 376.264Z" fill="white"/>
<path opacity="0.37" d="M78.6425 396.903C80.3061 400.424 80.4039 405.12 77.5661 405.804C75.4133 406.293 73.3583 405.022 71.2055 406.391C70.2269 406.978 69.8355 408.347 68.6612 408.739C66.6062 409.521 64.747 407.565 63.8663 405.902C62.7898 403.848 62.692 401.109 64.2577 399.251C65.9212 397.196 68.4655 399.446 69.6398 397.979C70.6183 396.707 70.129 395.044 71.499 393.871C74.3369 391.425 77.1747 393.675 78.6425 396.903Z" fill="white"/>
<path opacity="0.37" d="M159.178 384.774C156.927 388.295 155.655 392.795 150.371 392.11C148.022 391.817 145.869 390.056 144.989 387.904C144.206 385.85 144.793 383.6 144.01 381.546C143.129 379.394 141.368 378.514 139.313 377.633C138.041 377.046 136.769 376.362 135.986 375.286C133.539 372.156 136.475 369.319 139.704 369.123C144.206 368.83 148.903 370.395 153.208 369.123C154.774 368.634 155.459 366.874 156.536 365.798C157.123 366.678 157.612 367.558 158.101 368.536C158.101 368.634 160.939 374.308 163.973 381.35C162.896 381.937 161.82 382.524 160.841 383.209C160.058 383.6 159.569 384.187 159.178 384.774Z" fill="white"/>
<path opacity="0.37" d="M151.838 417.151C152.23 413.923 149.979 410.695 151.74 407.565C152.817 405.707 155.067 404.533 157.22 404.924C160.45 405.511 167.789 411.869 165.049 415.39C164.07 416.564 162.504 416.858 161.526 417.934C160.352 419.107 160.058 420.868 159.373 422.335C158.884 423.313 158.199 424.194 157.122 424.683C155.85 425.27 154.48 425.172 153.502 424.487C152.915 422.824 152.327 420.966 151.642 419.205C151.642 418.52 151.74 417.836 151.838 417.151Z" fill="white"/>
<path opacity="0.37" d="M171.116 431.334C167.006 426.541 174.247 425.857 178.651 427.128C179.336 431.53 179.532 435.834 178.651 439.942C178.259 441.801 177.379 443.561 176.009 445.322C174.737 445.322 173.464 444.931 172.486 444.246C170.822 443.17 169.452 441.312 170.235 439.355C170.529 438.475 171.116 437.986 171.801 437.399C173.073 436.323 175.03 435.932 173.073 432.899C172.682 432.313 171.703 431.921 171.116 431.334Z" fill="white"/>
<path opacity="0.37" d="M131.387 451.974C132.365 451.289 150.86 440.431 152.523 439.355C153.208 441.312 152.621 447.67 152.621 448.746C152.621 449.333 152.621 449.822 152.523 450.409C151.741 453.147 149.686 453.343 147.239 452.952C142.444 452.071 141.074 451.778 137.258 455.202C135.888 456.375 134.42 457.549 132.561 457.745C130.799 457.843 128.744 456.571 128.842 454.81C128.842 453.343 130.017 452.854 131.387 451.974Z" fill="white"/>
<path opacity="0.37" d="M111.521 442.485C110.347 441.214 110.738 439.257 111.815 437.986C112.695 437.008 113.87 436.616 115.044 436.225C116.61 435.638 118.665 435.443 118.86 433.095C118.958 432.312 118.567 431.53 118.665 430.747C118.86 428.987 120.23 428.009 121.992 428.106C123.264 428.204 124.732 429.671 125.417 430.65C126.102 431.628 125.71 432.899 126.102 433.975C127.08 436.812 129.135 439.453 125.417 441.507C124.536 441.996 123.655 442.192 122.677 441.996C122.089 441.898 121.6 441.605 121.111 441.507C119.839 440.823 118.469 440.823 117.001 441.507C116.805 441.801 116.512 442.094 116.316 442.29C114.75 443.268 112.891 444.05 111.521 442.485Z" fill="white"/>
<path opacity="0.37" d="M138.529 429.965C137.942 429.574 137.355 429.182 136.768 428.693C135.692 427.715 135.202 426.444 135.887 424.976C136.572 423.705 138.04 423.02 139.508 423.411C141.465 423.9 144.401 424.585 145.869 426.248C146.162 426.639 146.358 427.03 146.554 427.422C146.358 430.258 146.26 433.095 146.162 436.03C145.379 437.79 144.205 439.257 142.639 439.747C139.41 440.822 136.279 437.497 138.334 434.464C138.823 433.878 139.899 433.584 140.291 432.997C141.074 431.823 139.312 430.552 138.529 429.965Z" fill="white"/>
<path opacity="0.37" d="M102.128 445.224C104.379 446.496 117.981 452.463 115.143 456.18C114.849 456.571 114.36 456.864 113.773 457.06C111.424 457.94 109.076 457.451 106.923 456.278C104.281 454.81 102.519 454.126 99.3879 454.81C97.3329 455.299 95.6693 455.886 93.7122 454.615C91.9508 453.441 91.1679 451.387 91.8529 449.333C93.4186 445.126 98.4093 443.072 102.128 445.224Z" fill="white"/>
<path opacity="0.37" d="M67.2907 439.355C67.4864 439.355 67.6821 439.355 67.7799 439.453C68.9542 439.649 70.1285 440.04 71.4006 440.04C73.847 440.138 74.6299 438.573 75.902 436.812C78.8377 432.802 84.7091 436.421 87.0576 439.16C80.1098 443.268 73.0642 446.692 66.9971 447.767C65.2357 447.181 63.5721 446.007 62.8871 444.54C61.615 441.605 64.355 439.062 67.2907 439.355Z" fill="white"/>
<path opacity="0.37" d="M57.505 414.412C57.505 414.314 57.505 414.216 57.6028 414.119C59.7557 415.097 60.7342 419.988 62.0063 421.259C63.3763 422.629 65.3335 423.313 66.7035 424.683C68.1713 425.954 68.9541 428.4 67.682 429.867C66.8013 430.845 65.3335 430.943 63.9635 430.845C62.5935 430.747 61.2235 430.552 60.0492 431.041C58.8749 431.53 58.0921 432.606 57.0157 433.095C56.0371 433.584 54.765 433.486 53.7864 432.899C54.1779 426.639 55.9393 420.183 57.505 414.412Z" fill="white"/>
<path opacity="0.37" d="M116.023 380.176C113.087 379.981 109.858 379.198 108.194 379.003C105.944 378.709 104.769 376.851 105.748 374.601C107.509 370.688 110.739 369.221 113.968 372.449C115.142 373.623 116.219 374.992 117.784 375.579C119.056 376.068 123.264 376.557 121.601 378.905C120.72 380.079 118.469 380.274 116.023 380.176Z" fill="white"/>
<path opacity="0.37" d="M142.737 356.505C140.193 356.798 139.9 357.483 138.823 359.733C138.627 360.124 138.432 360.515 138.04 360.809C137.258 361.396 136.083 361.102 135.3 360.515C133.637 359.244 132.56 357.092 131.484 355.233C131.386 355.038 131.288 354.94 131.288 354.744C135.594 354.646 139.802 355.038 143.618 356.211C143.52 356.211 143.422 356.309 143.325 356.309C143.129 356.505 142.933 356.505 142.737 356.505Z" fill="white"/>
<path opacity="0.37" d="M161.233 452.854C162.994 451.876 164.462 453.147 165.832 454.028C165.93 453.93 166.125 453.93 166.321 453.93H166.419C164.364 455.299 162.211 456.669 159.863 457.94C159.765 456.962 159.863 455.886 159.96 455.104C160.156 454.223 160.45 453.343 161.233 452.854Z" fill="white"/>
<path opacity="0.37" d="M164.07 396.903C162.7 395.142 162.602 392.697 165.049 390.838C165.44 390.545 166.125 390.349 166.614 390.838C167.593 392.012 168.572 393.382 169.354 394.653C170.137 396.707 170.724 398.566 171.312 400.327C169.648 400.131 166.614 398.859 166.321 398.664C165.342 398.272 164.559 397.686 164.07 396.903Z" fill="white"/>
<path opacity="0.37" d="M79.4246 421.357C80.5989 420.183 86.6659 417.542 88.0359 416.662C88.6231 416.368 94.2988 413.923 95.5709 413.434C95.7666 414.119 95.9623 415.684 96.2559 416.271C94.788 417.738 92.3416 419.303 91.8523 420.085C90.8738 421.455 90.9716 422.824 90.7759 424.389C90.4824 426.933 89.3081 427.422 87.6445 427.03C85.296 426.443 82.2624 424.194 80.501 424.194C78.3482 424.292 78.0546 422.726 79.4246 421.357Z" fill="white"/>
</g>
<path d="M126.983 419.303H112.207C111.229 419.303 110.544 418.52 110.544 417.64V387.317C110.544 386.339 111.327 385.654 112.207 385.654H126.983C127.962 385.654 128.647 386.437 128.647 387.317V417.64C128.745 418.52 127.962 419.303 126.983 419.303Z" fill="#545358"/>
<path d="M109.271 400.522C109.369 400.229 110.25 399.446 110.641 399.446V406C116.61 403.065 123.656 397.783 127.766 395.925C128.549 395.534 129.625 396.903 128.94 397.49C126.494 399.74 122.188 403.555 119.546 405.315C124.243 403.359 129.821 400.913 132.855 400.131C133.735 399.935 134.616 401.403 133.735 401.892C130.995 403.652 121.699 408.837 121.797 408.934C125.809 407.761 131.191 406.098 133.833 405.804C134.714 405.706 135.399 407.272 134.518 407.663C131.974 408.837 123.069 412.847 123.069 413.043C125.711 412.26 129.919 411.086 131.68 410.891C132.561 410.793 133.246 412.358 132.365 412.749C129.527 414.119 124.635 416.368 121.503 417.444C119.546 418.227 117.198 419.205 115.045 419.694C111.033 420.77 104.672 421.553 102.813 416.368C100.562 410.304 108.097 403.359 109.271 400.522Z" fill="#FD9F88"/>
<path d="M241.914 120.18H237.602V122.891H242.695V125H234.859V113.625H242.711V115.742H237.602V118.141H241.914V120.18ZM246.789 125H244.148V113H246.789V125ZM252.828 125.156C251.531 125.156 250.481 124.771 249.679 124C248.877 123.224 248.476 122.216 248.476 120.977V120.758C248.476 119.893 248.635 119.13 248.953 118.469C249.275 117.807 249.744 117.297 250.359 116.938C250.973 116.573 251.703 116.391 252.546 116.391C253.734 116.391 254.671 116.76 255.359 117.5C256.046 118.234 256.39 119.26 256.39 120.578V121.602H251.156C251.249 122.076 251.455 122.448 251.773 122.719C252.091 122.99 252.502 123.125 253.007 123.125C253.841 123.125 254.492 122.833 254.96 122.25L256.163 123.672C255.835 124.125 255.369 124.487 254.765 124.758C254.166 125.023 253.52 125.156 252.828 125.156ZM252.531 118.422C251.76 118.422 251.301 118.932 251.156 119.953H253.812V119.75C253.822 119.328 253.716 119.003 253.492 118.773C253.268 118.539 252.947 118.422 252.531 118.422ZM257.468 120.711C257.468 119.857 257.608 119.102 257.89 118.445C258.171 117.789 258.575 117.284 259.101 116.93C259.627 116.57 260.239 116.391 260.937 116.391C261.817 116.391 262.504 116.688 262.999 117.281L263.093 116.547H265.483V124.68C265.483 125.424 265.309 126.07 264.96 126.617C264.616 127.169 264.116 127.591 263.46 127.883C262.804 128.18 262.043 128.328 261.179 128.328C260.559 128.328 259.957 128.211 259.374 127.977C258.796 127.742 258.353 127.438 258.046 127.062L259.147 125.516C259.637 126.094 260.283 126.383 261.085 126.383C262.252 126.383 262.835 125.784 262.835 124.586V124.32C262.33 124.878 261.692 125.156 260.921 125.156C259.89 125.156 259.056 124.763 258.421 123.977C257.786 123.185 257.468 122.128 257.468 120.805V120.711ZM260.108 120.875C260.108 121.568 260.239 122.117 260.499 122.523C260.759 122.924 261.124 123.125 261.593 123.125C262.161 123.125 262.575 122.935 262.835 122.555V119C262.58 118.615 262.171 118.422 261.608 118.422C261.14 118.422 260.772 118.633 260.507 119.055C260.241 119.471 260.108 120.078 260.108 120.875ZM270.171 125H267.522V116.547H270.171V125ZM269.186 113.156H271.967L269.796 115.609H267.647L269.186 113.156ZM279.553 114.445V116.547H280.943V118.375H279.553V122.242C279.553 122.56 279.61 122.781 279.725 122.906C279.839 123.031 280.066 123.094 280.404 123.094C280.665 123.094 280.884 123.078 281.061 123.047V124.93C280.587 125.081 280.092 125.156 279.576 125.156C278.67 125.156 278.001 124.943 277.568 124.516C277.136 124.089 276.92 123.44 276.92 122.57V118.375H275.842V116.547H276.92V114.445H279.553ZM287.342 124.086C286.784 124.799 286.032 125.156 285.084 125.156C284.157 125.156 283.454 124.888 282.974 124.352C282.5 123.81 282.263 123.034 282.263 122.023V116.547H284.896V122.039C284.896 122.763 285.248 123.125 285.951 123.125C286.555 123.125 286.985 122.909 287.24 122.477V116.547H289.888V125H287.42L287.342 124.086ZM298.825 121.141V125H296.083V113.625H300.622C301.492 113.625 302.26 113.786 302.927 114.109C303.599 114.427 304.117 114.883 304.482 115.477C304.851 116.065 305.036 116.734 305.036 117.484C305.036 118.594 304.638 119.482 303.841 120.148C303.049 120.81 301.961 121.141 300.575 121.141H298.825ZM298.825 119.023H300.622C301.153 119.023 301.557 118.891 301.833 118.625C302.114 118.359 302.255 117.984 302.255 117.5C302.255 116.969 302.112 116.544 301.825 116.227C301.539 115.909 301.148 115.747 300.653 115.742H298.825V119.023ZM309.481 125H306.841V113H309.481V125ZM316.192 125C316.098 124.828 316.015 124.576 315.942 124.242C315.457 124.852 314.78 125.156 313.911 125.156C313.114 125.156 312.437 124.917 311.879 124.438C311.322 123.953 311.043 123.346 311.043 122.617C311.043 121.701 311.382 121.008 312.059 120.539C312.736 120.07 313.721 119.836 315.012 119.836H315.825V119.391C315.825 118.615 315.489 118.227 314.817 118.227C314.192 118.227 313.879 118.534 313.879 119.148H311.247C311.247 118.331 311.593 117.667 312.286 117.156C312.984 116.646 313.872 116.391 314.95 116.391C316.028 116.391 316.879 116.654 317.504 117.18C318.129 117.706 318.45 118.427 318.465 119.344V123.086C318.476 123.862 318.596 124.456 318.825 124.867V125H316.192ZM314.543 123.281C314.872 123.281 315.142 123.211 315.356 123.07C315.575 122.93 315.731 122.771 315.825 122.594V121.242H315.059C314.142 121.242 313.684 121.654 313.684 122.477C313.684 122.716 313.765 122.911 313.926 123.062C314.088 123.208 314.293 123.281 314.543 123.281ZM322.668 116.547L322.754 117.539C323.337 116.773 324.142 116.391 325.168 116.391C326.048 116.391 326.705 116.654 327.137 117.18C327.574 117.706 327.801 118.497 327.817 119.555V125H325.176V119.664C325.176 119.237 325.09 118.924 324.918 118.727C324.746 118.523 324.434 118.422 323.981 118.422C323.465 118.422 323.082 118.625 322.832 119.031V125H320.199V116.547H322.668ZM334.027 125V113.625H338.113C339.576 113.625 340.688 113.893 341.449 114.43C342.214 114.966 342.597 115.745 342.597 116.766C342.597 117.354 342.462 117.857 342.191 118.273C341.92 118.69 341.522 118.997 340.996 119.195C341.589 119.352 342.045 119.643 342.363 120.07C342.681 120.497 342.839 121.018 342.839 121.633C342.839 122.747 342.485 123.586 341.777 124.148C341.074 124.706 340.029 124.99 338.644 125H334.027ZM336.769 120.164V122.891H338.566C339.061 122.891 339.441 122.779 339.707 122.555C339.972 122.326 340.105 122.005 340.105 121.594C340.105 120.646 339.634 120.169 338.691 120.164H336.769ZM336.769 118.367H338.199C338.798 118.362 339.225 118.253 339.48 118.039C339.735 117.826 339.863 117.51 339.863 117.094C339.863 116.615 339.725 116.271 339.449 116.062C339.173 115.849 338.727 115.742 338.113 115.742H336.769V118.367ZM349.316 125C349.222 124.828 349.139 124.576 349.066 124.242C348.581 124.852 347.904 125.156 347.034 125.156C346.238 125.156 345.56 124.917 345.003 124.438C344.446 123.953 344.167 123.346 344.167 122.617C344.167 121.701 344.506 121.008 345.183 120.539C345.86 120.07 346.844 119.836 348.136 119.836H348.948V119.391C348.948 118.615 348.613 118.227 347.941 118.227C347.316 118.227 347.003 118.534 347.003 119.148H344.37C344.37 118.331 344.717 117.667 345.409 117.156C346.107 116.646 346.995 116.391 348.073 116.391C349.152 116.391 350.003 116.654 350.628 117.18C351.253 117.706 351.573 118.427 351.589 119.344V123.086C351.599 123.862 351.719 124.456 351.948 124.867V125H349.316ZM347.667 123.281C347.995 123.281 348.266 123.211 348.48 123.07C348.698 122.93 348.855 122.771 348.948 122.594V121.242H348.183C347.266 121.242 346.808 121.654 346.808 122.477C346.808 122.716 346.889 122.911 347.05 123.062C347.211 123.208 347.417 123.281 347.667 123.281ZM348.323 113H351.105L348.933 115.453H346.784L348.323 113ZM357.8 122.625C357.8 122.401 357.683 122.221 357.448 122.086C357.214 121.951 356.768 121.81 356.112 121.664C355.456 121.518 354.914 121.328 354.487 121.094C354.06 120.854 353.735 120.565 353.511 120.227C353.287 119.888 353.175 119.5 353.175 119.062C353.175 118.286 353.495 117.648 354.136 117.148C354.776 116.643 355.615 116.391 356.651 116.391C357.766 116.391 358.662 116.643 359.339 117.148C360.016 117.654 360.354 118.318 360.354 119.141H357.714C357.714 118.464 357.357 118.125 356.643 118.125C356.367 118.125 356.136 118.203 355.948 118.359C355.761 118.51 355.667 118.701 355.667 118.93C355.667 119.164 355.781 119.354 356.011 119.5C356.24 119.646 356.604 119.766 357.104 119.859C357.61 119.953 358.052 120.065 358.433 120.195C359.703 120.633 360.339 121.417 360.339 122.547C360.339 123.318 359.995 123.945 359.308 124.43C358.625 124.914 357.74 125.156 356.651 125.156C355.927 125.156 355.281 125.026 354.714 124.766C354.146 124.505 353.703 124.151 353.386 123.703C353.068 123.255 352.909 122.784 352.909 122.289H355.37C355.38 122.68 355.511 122.966 355.761 123.148C356.011 123.326 356.331 123.414 356.722 123.414C357.081 123.414 357.349 123.341 357.526 123.195C357.709 123.049 357.8 122.859 357.8 122.625ZM364.674 125H362.034V116.547H364.674V125ZM361.878 114.367C361.878 113.992 362.013 113.685 362.284 113.445C362.555 113.206 362.906 113.086 363.338 113.086C363.771 113.086 364.122 113.206 364.393 113.445C364.664 113.685 364.799 113.992 364.799 114.367C364.799 114.742 364.664 115.049 364.393 115.289C364.122 115.529 363.771 115.648 363.338 115.648C362.906 115.648 362.555 115.529 362.284 115.289C362.013 115.049 361.878 114.742 361.878 114.367ZM370.197 123.125C370.567 123.125 370.854 123.026 371.057 122.828C371.26 122.625 371.359 122.344 371.354 121.984H373.822C373.822 122.911 373.489 123.672 372.822 124.266C372.161 124.859 371.307 125.156 370.26 125.156C369.031 125.156 368.062 124.771 367.354 124C366.645 123.229 366.291 122.161 366.291 120.797V120.688C366.291 119.833 366.447 119.081 366.76 118.43C367.078 117.773 367.533 117.271 368.127 116.922C368.721 116.568 369.424 116.391 370.237 116.391C371.336 116.391 372.208 116.695 372.854 117.305C373.5 117.914 373.822 118.74 373.822 119.781H371.354C371.354 119.344 371.247 119.008 371.033 118.773C370.82 118.539 370.533 118.422 370.174 118.422C369.492 118.422 369.093 118.857 368.979 119.727C368.942 120.003 368.924 120.383 368.924 120.867C368.924 121.716 369.026 122.305 369.229 122.633C369.432 122.961 369.755 123.125 370.197 123.125ZM374.924 120.695C374.924 119.852 375.088 119.102 375.416 118.445C375.744 117.784 376.215 117.276 376.83 116.922C377.445 116.568 378.166 116.391 378.994 116.391C380.26 116.391 381.257 116.784 381.986 117.57C382.715 118.352 383.08 119.417 383.08 120.766V120.859C383.08 122.177 382.713 123.224 381.978 124C381.249 124.771 380.26 125.156 379.01 125.156C377.807 125.156 376.84 124.797 376.111 124.078C375.382 123.354 374.989 122.375 374.932 121.141L374.924 120.695ZM377.557 120.859C377.557 121.641 377.679 122.214 377.924 122.578C378.169 122.943 378.531 123.125 379.01 123.125C379.947 123.125 380.426 122.404 380.447 120.961V120.695C380.447 119.18 379.963 118.422 378.994 118.422C378.114 118.422 377.637 119.076 377.564 120.383L377.557 120.859Z" fill="white"/>
<defs>
<linearGradient id="paint0_linear" x1="223.845" y1="91.2788" x2="389.72" y2="446.113" gradientUnits="userSpaceOnUse">
<stop offset="0.3696" stop-color="#9ED8FF"/>
<stop offset="1" stop-color="#528CFF"/>
</linearGradient>
<linearGradient id="paint1_linear" x1="5.55619" y1="427.364" x2="143.837" y2="495.228" gradientUnits="userSpaceOnUse">
<stop offset="0.00200776" stop-color="#8DD1FF"/>
<stop offset="1" stop-color="#528CFF"/>
</linearGradient>
<linearGradient id="paint2_linear" x1="197.245" y1="469.402" x2="63.6334" y2="469.402" gradientUnits="userSpaceOnUse">
<stop offset="0.00200776" stop-color="#8DD1FF"/>
<stop offset="1" stop-color="#528CFF"/>
</linearGradient>
</defs>
</svg>
