<svg width="61" height="69" viewBox="0 0 61 69" fill="none" xmlns="http://www.w3.org/2000/svg">
<g clip-path="url(#clip0)">
<path d="M40.28 59.3499V11.3499C39.3232 11.1361 38.4679 10.6025 37.8552 9.83711C37.2426 9.07173 36.9091 8.12034 36.91 7.13994V0.759945C36.9112 0.663464 36.8845 0.568696 36.833 0.487074C36.7815 0.405452 36.7076 0.340462 36.62 0.299945C36.2015 0.100707 35.7435 -0.00182492 35.28 -5.54417e-05H4.28C3.71984 -0.00534022 3.16418 0.100429 2.64514 0.311142C2.12609 0.521855 1.65394 0.833333 1.25598 1.22758C0.858009 1.62183 0.542111 2.09103 0.326534 2.60807C0.110957 3.12512 -2.49246e-05 3.67976 4.19868e-09 4.23994L4.19868e-09 58.8699C4.19868e-09 59.9945 0.446713 61.0729 1.24187 61.8681C2.03702 62.6632 3.11548 63.1099 4.24 63.1099H38.08C38.7469 62.7343 39.3021 62.1882 39.6886 61.5276C40.0752 60.8669 40.2793 60.1154 40.28 59.3499Z" fill="#EFF2FA"/>
<path d="M40.8497 11.75C40.5365 11.7491 40.2244 11.7122 39.9197 11.64V58.87C39.9197 59.9945 39.473 61.0729 38.6778 61.8681C37.8827 62.6632 36.8042 63.11 35.6797 63.11H44.1097C45.2342 63.11 46.3127 62.6632 47.1078 61.8681C47.903 61.0729 48.3497 59.9945 48.3497 58.87V13.08C48.3511 12.6208 48.2521 12.1669 48.0597 11.75H40.8497Z" fill="#E4EAF6"/>
<path d="M47.4104 10.8099L37.5504 0.939917C37.2745 0.673492 36.957 0.453932 36.6104 0.289917V7.50992C36.6104 8.63444 37.0571 9.7129 37.8522 10.508C38.6474 11.3032 39.7258 11.7499 40.8503 11.7499H48.0604C47.9087 11.3963 47.6876 11.0767 47.4104 10.8099Z" fill="#B4ADBB"/>
<path d="M35.9996 43.9999L36.7696 42.6899L33.7096 40.8799C31.7096 39.7199 30.7096 39.4999 28.9196 40.2099L26.9196 40.9799C26.3224 41.2084 25.6814 41.2992 25.0442 41.2455C24.4071 41.1918 23.7902 40.9951 23.2396 40.6699L17.9996 37.4799L10.3896 50.2399L17.1996 54.2399C17.6635 54.5095 18.0709 54.866 18.3996 55.2899L20.6896 58.2899C22.3399 60.0005 24.2135 61.4805 26.2596 62.6899L28.6396 64.1099C29.1515 63.8714 29.58 63.4847 29.8696 62.9999C30.2318 62.4002 30.3533 61.6856 30.2096 60.9999C30.1882 60.8928 30.1986 60.7818 30.2395 60.6805C30.2803 60.5793 30.3499 60.4922 30.4396 60.4299C30.5298 60.3741 30.6337 60.3446 30.7396 60.3446C30.8456 60.3446 30.9495 60.3741 31.0396 60.4299L31.9996 60.9999C32.6432 61.3875 33.4123 61.5092 34.1441 61.3393C34.8758 61.1694 35.5127 60.7213 35.9196 60.0899C36.2209 59.6038 36.3678 59.0379 36.341 58.4667C36.3142 57.8954 36.115 57.3457 35.7696 56.8899C35.7526 56.8686 35.7433 56.8422 35.7433 56.8149C35.7433 56.7877 35.7526 56.7612 35.7696 56.7399C35.7894 56.7237 35.8141 56.7148 35.8396 56.7148C35.8652 56.7148 35.8899 56.7237 35.9096 56.7399L37.0797 57.4399C37.6373 57.7745 38.2932 57.9068 38.9369 57.8146C39.5807 57.7224 40.173 57.4112 40.6143 56.9336C41.0556 56.4559 41.3189 55.8408 41.36 55.1918C41.401 54.5427 41.2173 53.8994 40.8396 53.3699C40.8145 53.346 40.7998 53.3131 40.7988 53.2785C40.7979 53.2438 40.8108 53.2101 40.8346 53.1849C40.8585 53.1597 40.8914 53.145 40.9261 53.1441C40.9608 53.1432 40.9945 53.1561 41.0196 53.1799L42.4996 53.9999C43.0564 54.3365 43.7102 54.4762 44.3558 54.3964C45.0015 54.3166 45.6016 54.022 46.0597 53.5599C46.406 53.1799 46.6593 52.7246 46.7996 52.2299L36.5896 46.2299C36.2175 46.0108 35.9468 45.6537 35.8363 45.2362C35.7259 44.8187 35.7846 44.3744 35.9996 43.9999Z" fill="#FFECE3"/>
<path d="M51.74 55.1599L46.52 52.0699C46.4162 52.4791 46.2222 52.86 45.9522 53.1845C45.6822 53.509 45.343 53.769 44.9595 53.9454C44.576 54.1218 44.1578 54.2102 43.7357 54.204C43.3136 54.1979 42.8982 54.0974 42.52 53.9099L40.45 52.6899C40.2153 52.5507 39.9349 52.5104 39.6704 52.5779C39.406 52.6454 39.1792 52.8152 39.04 53.0499C38.9008 53.2847 38.8605 53.5651 38.928 53.8295C38.9955 54.0939 39.1653 54.3207 39.4 54.4599L41 55.3999C40.9348 55.6609 40.8303 55.9104 40.69 56.1399C40.3434 56.7324 39.7926 57.178 39.1409 57.3934C38.4892 57.6088 37.7814 57.5791 37.15 57.3099L35.46 56.3099C35.3438 56.241 35.2151 56.1956 35.0814 56.1764C34.9476 56.1572 34.8114 56.1645 34.6804 56.1979C34.5495 56.2314 34.4264 56.2902 34.3183 56.3712C34.2101 56.4522 34.1189 56.5537 34.05 56.6699C33.9811 56.7862 33.9357 56.9148 33.9165 57.0486C33.8972 57.1823 33.9046 57.3186 33.938 57.4495C33.9714 57.5804 34.0303 57.7035 34.1113 57.8117C34.1923 57.9198 34.2938 58.011 34.41 58.0799L36 58.9999C35.9292 59.2827 35.8144 59.5527 35.66 59.7999C35.253 60.4313 34.6162 60.8795 33.8844 61.0493C33.1527 61.2192 32.3835 61.0975 31.74 60.7099L30.74 60.1399C30.6499 60.0842 30.546 60.0546 30.44 60.0546C30.334 60.0546 30.2301 60.0842 30.14 60.1399C30.0503 60.2022 29.9807 60.2893 29.9398 60.3906C29.8989 60.4918 29.8886 60.6029 29.91 60.7099C30.0537 61.3956 29.9322 62.1103 29.57 62.7099C29.2637 63.2264 28.8016 63.6326 28.25 63.8699L35 67.8499C35.5626 68.1787 36.2316 68.2738 36.8635 68.1149C37.4954 67.956 38.0398 67.5557 38.38 66.9999C38.6938 66.4456 38.7774 65.7903 38.6128 65.175C38.4482 64.5597 38.0486 64.0336 37.5 63.7099L40.18 65.2899C40.4609 65.4585 40.7723 65.57 41.0964 65.618C41.4204 65.666 41.7508 65.6496 42.0685 65.5697C42.3862 65.4898 42.685 65.348 42.9478 65.1524C43.2106 64.9568 43.4322 64.7113 43.6 64.4299C43.9112 63.8751 43.9933 63.2206 43.8289 62.606C43.6645 61.9915 43.2666 61.4654 42.72 61.1399L44.49 62.1399C45.0565 62.4772 45.7335 62.5761 46.3728 62.4149C47.012 62.2537 47.5612 61.8455 47.9 61.2799C48.2064 60.7236 48.2837 60.0698 48.1157 59.4573C47.9476 58.8448 47.5474 58.322 47 57.9999L49.17 59.2899C49.4509 59.4585 49.7623 59.57 50.0864 59.618C50.4104 59.666 50.7408 59.6496 51.0585 59.5697C51.3762 59.4898 51.675 59.348 51.9378 59.1524C52.2006 58.9568 52.4222 58.7113 52.59 58.4299C52.9038 57.8756 52.9874 57.2203 52.8228 56.605C52.6582 55.9897 52.2586 55.4636 51.71 55.1399L51.74 55.1599Z" fill="#FFDDCE"/>
<path d="M53.9196 44.1399L50.4296 38.2399L46.3396 40.6199C45.789 40.9451 45.1722 41.1419 44.535 41.1955C43.8979 41.2492 43.2568 41.1584 42.6596 40.9299L40.4196 39.9999C39.7179 39.7277 38.9485 39.6822 38.2196 39.8699L34.7796 40.7299C34.0025 40.9294 33.3136 41.3814 32.8213 42.0149C32.3289 42.6485 32.061 43.4276 32.0596 44.2299V48.8099C32.0583 48.9657 32.0878 49.1202 32.1465 49.2646C32.2053 49.4089 32.292 49.5402 32.4017 49.6508C32.5114 49.7614 32.6419 49.8492 32.7857 49.9092C32.9295 49.9691 33.0838 49.9999 33.2396 49.9999C34.1785 49.9999 35.0789 49.627 35.7428 48.9631C36.4066 48.2992 36.7796 47.3988 36.7796 46.4599V46.2999L43.4796 50.2999L53.9196 44.1399Z" fill="#F1D0A4"/>
<path d="M53.69 43.7399L43 49.9999L51.46 54.9999C51.7308 54.7077 52.0444 54.4581 52.39 54.2599L58 50.9999L53.69 43.7399Z" fill="#ECBB88"/>
<path d="M20.19 57L18.81 58.92C18.6182 59.1793 18.3773 59.3984 18.1009 59.5646C17.8245 59.7309 17.5181 59.841 17.1991 59.8889C16.8802 59.9367 16.5549 59.9212 16.2419 59.8433C15.9289 59.7655 15.6343 59.6267 15.375 59.435C15.1156 59.2432 14.8965 59.0023 14.7303 58.7259C14.5641 58.4495 14.4539 58.1431 14.4061 57.8241C14.3582 57.5051 14.3737 57.1799 14.4516 56.8669C14.5295 56.5539 14.6682 56.2593 14.86 56L16.24 54.08C16.6166 53.5495 17.1885 53.1904 17.8298 53.0816C18.1474 53.0278 18.4725 53.037 18.7865 53.1088C19.1005 53.1806 19.3973 53.3135 19.66 53.5C19.9226 53.6864 20.146 53.9228 20.3172 54.1956C20.4885 54.4684 20.6044 54.7723 20.6583 55.0898C20.7121 55.4074 20.7029 55.7325 20.6311 56.0465C20.5594 56.3605 20.4264 56.6573 20.24 56.92L20.19 57Z" fill="#F1D0A4"/>
<path d="M25.6602 57.6799L22.7702 61.6799C22.3936 62.2104 21.8217 62.5695 21.1804 62.6783C20.539 62.787 19.8807 62.6366 19.3502 62.2599C18.8198 61.8833 18.4607 61.3114 18.3519 60.6701C18.2432 60.0287 18.3936 59.3704 18.7702 58.8399L21.6702 54.8399C21.8567 54.5806 22.0924 54.3605 22.364 54.1922C22.6355 54.024 22.9375 53.9109 23.2528 53.8593C23.568 53.8078 23.8904 53.8188 24.2013 53.8919C24.5123 53.9649 24.8059 54.0985 25.0652 54.2849C25.3246 54.4714 25.5447 54.7072 25.7129 54.9787C25.8812 55.2502 25.9943 55.5523 26.0459 55.8675C26.0974 56.1828 26.0863 56.5051 26.0133 56.8161C25.9403 57.127 25.8067 57.4206 25.6202 57.6799H25.6602Z" fill="#F1D0A4"/>
<path d="M29.6204 60.5199L26.7204 64.5199C26.5373 64.7859 26.303 65.0127 26.0312 65.1871C25.7594 65.3614 25.4555 65.4799 25.1374 65.5355C24.8193 65.5911 24.4933 65.5827 24.1785 65.5109C23.8637 65.439 23.5663 65.3052 23.3038 65.1171C23.0413 64.929 22.8189 64.6905 22.6497 64.4155C22.4804 64.1405 22.3676 63.8345 22.318 63.5154C22.2683 63.1964 22.2827 62.8706 22.3604 62.5571C22.4381 62.2437 22.5775 61.9489 22.7704 61.6899L25.6604 57.6899C26.037 57.1595 26.6089 56.8004 27.2503 56.6916C27.8917 56.5829 28.55 56.7333 29.0804 57.1099C29.6109 57.4866 29.97 58.0585 30.0787 58.6998C30.1875 59.3412 30.037 59.9995 29.6604 60.5299L29.6204 60.5199Z" fill="#F1D0A4"/>
<path d="M32.2796 65.1499L31.2796 66.4899C31.0931 66.7493 30.8574 66.9694 30.5858 67.1376C30.3143 67.3059 30.0123 67.419 29.697 67.4706C29.3818 67.5221 29.0594 67.511 28.7485 67.438C28.4375 67.365 28.1439 67.2314 27.8846 67.0449C27.6252 66.8585 27.4051 66.6227 27.2369 66.3512C27.0686 66.0796 26.9555 65.7776 26.9039 65.4624C26.8524 65.1471 26.8635 64.8248 26.9365 64.5138C27.0095 64.2028 27.1431 63.9093 27.3296 63.6499L28.3296 62.3099C28.516 62.0473 28.7524 61.8239 29.0252 61.6527C29.298 61.4814 29.6019 61.3655 29.9194 61.3116C30.237 61.2578 30.5621 61.267 30.8761 61.3388C31.1901 61.4105 31.4869 61.5435 31.7496 61.7299C32.0122 61.9164 32.2355 62.1528 32.4068 62.4256C32.5781 62.6984 32.694 63.0022 32.7479 63.3198C32.8017 63.6374 32.7925 63.9625 32.7207 64.2765C32.649 64.5905 32.516 64.8873 32.3296 65.1499H32.2796Z" fill="#F1D0A4"/>
<path d="M20.8 36.16L18.67 34.89C18.3872 34.7256 18.0509 34.6796 17.7344 34.762C17.4178 34.8444 17.1467 35.0485 16.98 35.33L8.20996 50.12C8.04558 50.4027 7.99959 50.739 8.082 51.0555C8.16441 51.3721 8.36855 51.6432 8.64996 51.81L10.78 53.07C11.1204 53.2715 11.4973 53.4038 11.8891 53.4591C12.2808 53.5144 12.6797 53.4917 13.0626 53.3922C13.4455 53.2928 13.805 53.1186 14.1204 52.8796C14.4357 52.6407 14.7006 52.3417 14.9 52L21.9 40.27C22.0987 39.9281 22.228 39.5504 22.2802 39.1585C22.3325 38.7666 22.3068 38.3682 22.2046 37.9862C22.1024 37.6043 21.9256 37.2463 21.6846 36.9329C21.4435 36.6195 21.1429 36.3568 20.8 36.16Z" fill="#487C9F"/>
<path d="M49.7098 34.89L47.5798 36.16C47.2389 36.3601 46.9409 36.6257 46.7029 36.9414C46.465 37.2571 46.2918 37.6167 46.1933 37.9996C46.0947 38.3824 46.0729 38.781 46.1289 39.1724C46.185 39.5637 46.3178 39.9401 46.5198 40.28L53.5198 52.01C53.72 52.3509 53.9855 52.6489 54.3012 52.8868C54.6169 53.1248 54.9766 53.298 55.3594 53.3965C55.7423 53.495 56.1409 53.5169 56.5322 53.4608C56.9236 53.4048 57.3 53.272 57.6398 53.07L59.7698 51.81C59.9093 51.7275 60.0312 51.6183 60.1283 51.4886C60.2255 51.359 60.2961 51.2114 60.3361 51.0543C60.376 50.8973 60.3846 50.7339 60.3612 50.5735C60.3378 50.4132 60.283 50.259 60.1998 50.12L51.3998 35.33C51.2331 35.0485 50.9619 34.8444 50.6454 34.762C50.3289 34.6796 49.9926 34.7256 49.7098 34.89Z" fill="#2D2D7B"/>
<path d="M41.0003 19.9999H7.35031C7.07714 19.9999 6.81515 19.8914 6.62199 19.6983C6.42883 19.5051 6.32031 19.2431 6.32031 18.9699C6.32031 18.6968 6.42883 18.4348 6.62199 18.2416C6.81515 18.0485 7.07714 17.9399 7.35031 17.9399H41.0003C41.2735 17.9399 41.5355 18.0485 41.7286 18.2416C41.9218 18.4348 42.0303 18.6968 42.0303 18.9699C42.0303 19.2431 41.9218 19.5051 41.7286 19.6983C41.5355 19.8914 41.2735 19.9999 41.0003 19.9999Z" fill="#E5531C"/>
<path d="M24.1803 12.78H7.35031C7.07714 12.78 6.81515 12.6715 6.62199 12.4783C6.42883 12.2851 6.32031 12.0231 6.32031 11.75C6.32031 11.4768 6.42883 11.2148 6.62199 11.0217C6.81515 10.8285 7.07714 10.72 7.35031 10.72H24.1803C24.4535 10.72 24.7155 10.8285 24.9086 11.0217C25.1018 11.2148 25.2103 11.4768 25.2103 11.75C25.2103 12.0231 25.1018 12.2851 24.9086 12.4783C24.7155 12.6715 24.4535 12.78 24.1803 12.78Z" fill="#E5531C"/>
<path d="M41.0002 26.2999H7.3502C7.07835 26.2999 6.81764 26.1919 6.62541 25.9997C6.43319 25.8075 6.3252 25.5468 6.3252 25.2749C6.3252 25.0031 6.43319 24.7424 6.62541 24.5502C6.81764 24.3579 7.07835 24.2499 7.3502 24.2499H41.0002C41.272 24.2499 41.5328 24.3579 41.725 24.5502C41.9172 24.7424 42.0252 25.0031 42.0252 25.2749C42.0252 25.5468 41.9172 25.8075 41.725 25.9997C41.5328 26.1919 41.272 26.2999 41.0002 26.2999Z" fill="#E5531C"/>
</g>
<defs>
<clipPath id="clip0">
<rect width="60.34" height="68.2" fill="white"/>
</clipPath>
</defs>
</svg>
