<svg width="710" height="443" viewBox="0 0 710 443" fill="none" xmlns="http://www.w3.org/2000/svg">
<path d="M138.667 376.903C138.667 376.903 27.6892 238.709 114.834 154.007C244.511 27.9294 332.763 207.101 382.731 132.965C465.361 10.298 735.692 41.7732 652.995 194.32C609.6 274.348 754.789 262.387 695.594 377.08L138.667 376.903Z" fill="#EBF3FA"/>
<path d="M227.45 286.896C227.45 286.896 213.443 270.572 226.604 260.217C226.604 260.217 236.171 254.406 243.994 254.882C243.994 254.882 232.894 273.425 236.488 275.274C240.082 277.123 247.323 253.719 247.323 253.719C247.323 253.719 269.153 251.606 276.13 254.987C276.13 254.987 257.472 270.255 261.436 271.153C265.4 272.051 285.485 257.1 285.485 257.1C285.485 257.1 305.781 260.534 304.724 272.949C303.667 285.364 296.637 289.168 293.572 288.798C290.506 288.429 272.535 281.614 272.113 284.149C271.69 286.685 282.525 294.874 290.136 295.296C290.136 295.296 275.813 311.093 266.299 306.496C256.785 301.953 255.992 294.715 250.019 292.021C244.046 289.327 239.025 289.327 241.457 292.074C243.888 294.821 254.618 297.515 258 303.538C261.383 309.561 264.449 313.576 254.617 312.096C244.786 310.617 228.771 303.432 228.084 295.191C227.45 286.897 227.45 286.896 227.45 286.896Z" fill="#C8DBF4"/>
<path d="M294.735 273.267C294.735 273.267 239.607 271.154 227.45 286.897C227.45 286.897 224.754 294.98 216.456 302.323L215.188 305.863C215.188 305.863 224.754 295.772 228.137 295.191C228.137 295.138 222.799 275.591 294.735 273.267Z" fill="#C8DBF4"/>
<path d="M216.456 302.271C216.456 302.271 204.616 311.041 203.823 326.625L205.99 326.837C205.99 326.837 209.796 310.671 216.614 304.331C223.38 298.044 216.456 302.271 216.456 302.271Z" fill="#C8DBF4"/>
<path d="M178.557 266.346C178.557 266.346 200.809 253.878 190.397 236.973C190.397 236.973 182.098 226.618 173.219 223.924C173.219 223.924 177.976 249.124 173.219 249.705C168.462 250.286 169.942 221.229 169.942 221.229C169.942 221.229 146.527 209.977 137.33 210.875C137.33 210.875 151.865 235.494 147.108 234.912C142.351 234.331 126.072 209.396 126.072 209.396C126.072 209.396 102.023 204.958 98.2171 219.169C94.3586 233.38 100.596 240.512 104.137 241.41C107.678 242.309 130.512 241.992 129.93 244.95C129.349 247.908 113.915 252.663 105.3 249.969C105.3 249.969 114.814 273.372 127.235 272.21C139.708 271.048 143.567 263.335 151.284 262.701C159.001 262.12 164.656 264.18 160.798 266.24C156.939 268.301 143.884 266.927 137.647 272.21C131.41 277.493 126.389 280.769 137.964 283.146C149.54 285.523 170.312 284.044 174.434 275.116C178.557 266.188 178.557 266.346 178.557 266.346Z" fill="#C8DBF4"/>
<path d="M109.159 223.659C109.159 223.659 171.422 243.84 178.558 266.345C178.558 266.345 178.241 276.436 184.478 288.006V292.443C184.478 292.443 177.976 277.334 174.382 275.274C174.382 275.274 188.336 255.674 109.159 223.659Z" fill="#C8DBF4"/>
<path d="M184.478 288.006C184.478 288.006 194.098 302.587 188.601 320.338L186.117 319.651C186.117 319.651 188.495 300.104 183.474 290.278C178.506 280.451 184.478 288.006 184.478 288.006Z" fill="#C8DBF4"/>
<path d="M213.917 249.176C213.917 249.176 184.582 232.746 198.272 210.504C198.272 210.504 209.213 196.821 220.947 193.335C220.947 193.335 214.71 226.565 220.947 227.357C227.184 228.15 225.228 189.848 225.228 189.848C225.228 189.848 256.095 175.003 268.252 176.165C268.252 176.165 249.119 208.603 255.356 207.81C261.592 207.018 283.105 174.21 283.105 174.21C283.105 174.21 314.765 168.346 319.839 187.101C324.913 205.855 316.721 215.259 312.016 216.421C307.312 217.584 277.238 217.214 277.977 221.123C278.77 225.033 299.067 231.267 310.431 227.78C310.431 227.78 297.904 258.632 281.519 257.1C265.081 255.515 260.007 245.372 249.858 244.58C239.71 243.787 232.258 246.534 237.332 249.282C242.406 252.029 259.637 250.18 267.829 257.153C276.022 264.127 282.682 268.406 267.459 271.576C252.237 274.693 224.858 272.738 219.361 261.01C213.917 249.176 213.917 249.176 213.917 249.176Z" fill="#D4E4F8"/>
<path d="M305.414 192.912C305.414 192.912 223.329 219.485 213.921 249.176C213.921 249.176 214.291 262.436 206.098 277.704V283.568C206.098 283.568 214.714 263.651 219.365 260.904C219.418 260.904 201.024 235.123 305.414 192.912Z" fill="#D4E4F8"/>
<path d="M206.096 277.704C206.096 277.704 193.411 296.934 200.652 320.338L203.929 319.44C203.929 319.44 200.758 293.659 207.418 280.715C214.025 267.772 206.096 277.704 206.096 277.704Z" fill="#D4E4F8"/>
<path d="M212.965 371.054C244.679 371.054 270.42 345.326 270.42 313.628H155.565C155.512 345.379 181.252 371.054 212.965 371.054Z" fill="#D4E4F8"/>
<path d="M271.159 374.013H154.719C154.719 370.103 157.89 366.933 161.801 366.933H264.077C267.988 366.881 271.159 370.103 271.159 374.013Z" fill="#D4E4F8"/>
<path d="M271.688 313.68H153.608V315.424H271.688V313.68Z" fill="#9FC1F4"/>
</svg>
