<svg width="350" height="48" viewBox="0 0 350 48" fill="none" xmlns="http://www.w3.org/2000/svg">
<path d="M157 34.4971H159.159L161.069 40.3572C161.069 40.2624 161.069 40.1296 161.069 39.9969C161.069 39.8641 161.069 39.6934 161.069 39.5417C161.06 39.3838 161.06 39.2255 161.069 39.0676V34.4971H162.731V43.2019H160.63L158.719 37.0952C158.719 37.1901 158.719 37.3228 158.719 37.5125C158.719 37.7021 158.719 37.8728 158.719 38.0814C158.719 38.29 158.719 38.4797 158.719 38.6883V43.2019H157V34.4971ZM165.081 40.3382C164.85 40.3593 164.616 40.3256 164.401 40.2399C164.185 40.1542 163.992 40.0189 163.839 39.8452C163.544 39.3541 163.411 38.784 163.457 38.2142C163.435 37.9111 163.435 37.6069 163.457 37.3039C163.502 37.0641 163.6 36.8373 163.744 36.6401C163.874 36.4564 164.052 36.3119 164.26 36.2229C164.521 36.1182 164.8 36.0666 165.081 36.0712C165.319 36.047 165.558 36.0791 165.781 36.1648C166.003 36.2506 166.202 36.3874 166.361 36.5642C166.656 37.0552 166.79 37.6253 166.743 38.1952C166.791 38.7736 166.65 39.352 166.342 39.8452C166.181 40.0092 165.988 40.1379 165.774 40.2228C165.56 40.3078 165.331 40.3471 165.1 40.3382H165.081ZM163.591 40.7175H166.705V41.7227H163.591V40.7175ZM165.138 39.6365C165.238 39.6399 165.335 39.6099 165.415 39.5514C165.495 39.4928 165.552 39.4092 165.578 39.3141C165.672 38.9489 165.711 38.5718 165.693 38.1952C165.712 37.8249 165.673 37.4539 165.578 37.0952C165.548 37.0054 165.488 36.9283 165.408 36.8766C165.329 36.8249 165.233 36.8017 165.138 36.8108C165.042 36.8063 164.946 36.8335 164.867 36.8884C164.787 36.9433 164.728 37.0227 164.699 37.1142C164.605 37.4795 164.566 37.8566 164.584 38.2331C164.565 38.6035 164.604 38.9745 164.699 39.3331C164.735 39.4245 164.798 39.5027 164.88 39.5571C164.962 39.6114 165.059 39.6392 165.158 39.6365H165.138Z" fill="white"/>
<path d="M174.404 42.4812C174.255 42.7588 174.03 42.989 173.754 43.145C173.481 43.2767 173.179 43.3418 172.876 43.3347C172.561 43.3559 172.247 43.2911 171.968 43.1473C171.688 43.0035 171.454 42.7862 171.29 42.5192C170.901 41.6767 170.73 40.7509 170.793 39.8262C170.732 38.8954 170.903 37.9641 171.29 37.1142C171.547 36.7338 171.935 36.4589 172.381 36.3403C172.827 36.2218 173.301 36.2676 173.716 36.4694C173.961 36.6265 174.169 36.8334 174.327 37.0763V34.2505H176.104V43.2019H174.442V42.4812H174.404ZM172.704 41.4761C172.736 41.6417 172.827 41.7903 172.96 41.8948C173.093 41.9993 173.26 42.0526 173.43 42.045C173.605 42.058 173.779 42.0075 173.919 41.9029C174.06 41.7983 174.157 41.6467 174.194 41.4761C174.328 40.9367 174.386 40.3814 174.366 39.8262C174.385 39.2647 174.328 38.7031 174.194 38.1572C174.153 37.9902 174.054 37.843 173.914 37.7421C173.774 37.6413 173.602 37.5935 173.43 37.6073C173.263 37.5989 173.098 37.6496 172.965 37.7503C172.832 37.851 172.74 37.9952 172.704 38.1572C172.57 38.7031 172.512 39.2647 172.532 39.8262C172.511 40.3814 172.569 40.9367 172.704 41.4761Z" fill="white"/>
<path d="M178.76 40.6226C178.74 40.8181 178.74 41.0151 178.76 41.2105C178.784 41.3818 178.836 41.5481 178.912 41.7036C178.968 41.8452 179.06 41.9696 179.18 42.064C179.294 42.1527 179.436 42.1996 179.581 42.1967C179.705 42.2029 179.829 42.1763 179.94 42.1197C180.051 42.0631 180.144 41.9784 180.211 41.8743C180.371 41.5809 180.469 41.2582 180.498 40.9261H182.065C182.077 41.5761 181.853 42.2088 181.434 42.7088C181.182 42.9459 180.879 43.1248 180.549 43.233C180.219 43.3412 179.869 43.3759 179.524 43.3346C179.013 43.3602 178.505 43.2489 178.053 43.0122C177.71 42.8316 177.435 42.5455 177.269 42.1967C177.09 41.8344 176.98 41.4421 176.945 41.0399C176.945 40.6037 176.945 40.1864 176.945 39.7503C176.916 39.3209 176.916 38.89 176.945 38.4606C177.005 38.0684 177.134 37.6897 177.327 37.3417C177.52 37.0101 177.805 36.7403 178.148 36.5642C178.588 36.3544 179.074 36.2566 179.562 36.2797C179.99 36.2613 180.416 36.3458 180.804 36.5262C181.121 36.6741 181.387 36.9116 181.568 37.209C181.763 37.5419 181.893 37.9088 181.95 38.29C182.014 38.7551 182.046 39.224 182.046 39.6934V40.0916H178.607L178.76 40.6226ZM180.479 38.3658C180.46 38.1957 180.415 38.0294 180.345 37.8727C180.289 37.742 180.196 37.6301 180.078 37.5503C179.947 37.486 179.803 37.4535 179.657 37.4555C179.508 37.4446 179.36 37.481 179.233 37.5594C179.105 37.6378 179.007 37.7541 178.951 37.8917C178.874 38.027 178.822 38.1746 178.798 38.3279C178.778 38.4853 178.778 38.6446 178.798 38.802V39.0486H180.574C180.536 38.8083 180.504 38.5808 180.479 38.3658Z" fill="white"/>
<path d="M186.268 34.2505H188.178V43.2019H186.268V34.2505Z" fill="white"/>
<path d="M191.063 36.4504V37.2469C191.222 36.9319 191.476 36.6735 191.789 36.5073C192.103 36.3501 192.451 36.2719 192.802 36.2797C193.035 36.2652 193.269 36.2981 193.489 36.3764C193.709 36.4546 193.911 36.5766 194.082 36.7349C194.414 37.1465 194.571 37.6702 194.521 38.1952V43.2019H192.783V38.5365C192.808 38.284 192.747 38.0303 192.611 37.8159C192.538 37.7396 192.448 37.6812 192.349 37.645C192.249 37.6088 192.143 37.5959 192.038 37.6072C191.426 37.6072 191.121 37.9676 191.121 38.7262V43.2019H189.478V36.4504H191.063Z" fill="white"/>
<path d="M196.985 41.2106C196.974 41.4702 197.055 41.7255 197.215 41.9313C197.3 42.0209 197.404 42.0911 197.52 42.1369C197.635 42.1828 197.759 42.2032 197.883 42.1968C198.118 42.204 198.347 42.1303 198.533 41.9882C198.613 41.9094 198.675 41.8143 198.714 41.7096C198.754 41.6049 198.77 41.4929 198.762 41.3813C198.768 41.2903 198.755 41.199 198.722 41.1138C198.689 41.0286 198.637 40.9516 198.571 40.8882C198.442 40.7738 198.293 40.6838 198.132 40.6227L196.909 40.1865C196.488 40.0561 196.111 39.8133 195.82 39.4848C195.571 39.1438 195.443 38.7301 195.457 38.309C195.458 38.0426 195.51 37.7787 195.61 37.5315C195.694 37.275 195.845 37.0457 196.049 36.8677C196.275 36.6775 196.534 36.5297 196.813 36.4315C197.186 36.327 197.572 36.2759 197.96 36.2798C198.586 36.2343 199.208 36.4089 199.717 36.7729C199.907 36.9574 200.056 37.1791 200.155 37.424C200.254 37.669 200.3 37.9316 200.29 38.1952V38.4797H198.724C198.747 38.2092 198.687 37.9382 198.552 37.7021C198.479 37.6135 198.385 37.5444 198.278 37.5013C198.171 37.4583 198.055 37.4425 197.941 37.4556C197.733 37.4512 197.531 37.5182 197.368 37.6453C197.286 37.707 197.22 37.7876 197.177 37.8802C197.134 37.9727 197.114 38.0744 197.119 38.1763C197.118 38.3438 197.179 38.5058 197.291 38.6314C197.451 38.7997 197.657 38.9183 197.883 38.9728L198.934 39.3142C199.381 39.4463 199.783 39.6952 200.099 40.0348C200.35 40.3886 200.471 40.8169 200.443 41.2486C200.447 41.5683 200.382 41.885 200.252 42.1779C200.127 42.4364 199.944 42.6634 199.717 42.8416C199.485 43.0201 199.219 43.1492 198.934 43.2209C198.596 43.3005 198.25 43.3387 197.902 43.3347C197.497 43.3368 197.094 43.2923 196.699 43.202C196.41 43.1222 196.142 42.9797 195.916 42.7847C195.732 42.5902 195.594 42.3568 195.514 42.102C195.483 41.812 195.483 41.5196 195.514 41.2296V40.9831H197.081L196.985 41.2106Z" fill="white"/>
<path d="M204.551 38.3848C204.533 38.2409 204.495 38.1004 204.436 37.9676C204.388 37.8431 204.309 37.7324 204.207 37.6452C204.082 37.5654 203.935 37.5257 203.787 37.5314C203.605 37.5203 203.424 37.5668 203.271 37.6641C203.133 37.7815 203.028 37.9316 202.965 38.1003C202.892 38.3344 202.847 38.5763 202.831 38.821C202.831 39.1055 202.831 39.4468 202.831 39.8451C202.831 40.2433 202.831 40.6037 202.831 40.9071C202.847 41.158 202.892 41.4062 202.965 41.6467C203.023 41.8078 203.122 41.9514 203.252 42.064C203.396 42.15 203.561 42.1959 203.729 42.1967C203.863 42.2008 203.994 42.1673 204.109 42.1002C204.224 42.0331 204.318 41.935 204.379 41.8174C204.533 41.432 204.598 41.0173 204.57 40.6037H206.251C206.301 41.3312 206.084 42.0521 205.64 42.6329C205.387 42.8744 205.087 43.0614 204.759 43.1821C204.43 43.3029 204.079 43.3548 203.729 43.3346C203.342 43.3385 202.956 43.2874 202.583 43.1829C202.266 43.0741 201.987 42.8765 201.781 42.6139C201.544 42.2857 201.381 41.9105 201.303 41.514C201.178 40.9602 201.12 40.3935 201.131 39.8261C201.119 39.2439 201.19 38.663 201.341 38.1003C201.451 37.7011 201.64 37.3273 201.895 37.0004C202.134 36.7387 202.437 36.5427 202.774 36.4314C203.135 36.3307 203.508 36.2796 203.882 36.2797C204.218 36.2531 204.556 36.3025 204.871 36.424C205.185 36.5455 205.468 36.7361 205.697 36.9814C206.141 37.5119 206.366 38.1894 206.328 38.8779H204.646C204.624 38.7118 204.592 38.5472 204.551 38.3848Z" fill="white"/>
<path d="M208.812 36.4506V37.3609C208.963 37.0543 209.178 36.7829 209.442 36.5644C209.706 36.369 210.03 36.2687 210.359 36.2799H210.684V37.9298H210.149C209.997 37.9116 209.843 37.9116 209.69 37.9298C209.541 37.9802 209.4 38.0504 209.27 38.1385C209.139 38.2382 209.034 38.3684 208.964 38.5178C208.883 38.6961 208.843 38.8908 208.85 39.0867V43.1452H207.111V36.4506H208.812Z" fill="white"/>
<path d="M213.167 34.1367V35.597H211.409V34.1367H213.167ZM213.167 36.4315V43.1829H211.409V36.4504L213.167 36.4315Z" fill="white"/>
<path d="M216.051 36.4503V37.171C216.206 36.893 216.43 36.6582 216.701 36.4883C216.974 36.3351 217.285 36.2627 217.598 36.2796C217.912 36.2572 218.226 36.3237 218.504 36.4715C218.781 36.6192 219.01 36.842 219.165 37.1141C219.571 37.9583 219.749 38.8929 219.681 39.8261C219.749 40.7531 219.571 41.6817 219.165 42.5191C219.006 42.7861 218.775 43.0038 218.499 43.1479C218.222 43.2919 217.91 43.3566 217.598 43.3346C217.306 43.347 217.015 43.2814 216.756 43.1447C216.498 43.008 216.28 42.8051 216.127 42.557V45.3638H214.312V36.4503H216.051ZM216.299 41.476C216.338 41.6436 216.433 41.7933 216.568 41.9005C216.703 42.0077 216.871 42.066 217.044 42.066C217.218 42.066 217.386 42.0077 217.521 41.9005C217.656 41.7933 217.751 41.6436 217.79 41.476C217.924 40.9366 217.982 40.3813 217.961 39.8261C217.981 39.2646 217.923 38.703 217.79 38.1572C217.738 38.0009 217.639 37.8647 217.505 37.7681C217.371 37.6715 217.21 37.6195 217.044 37.6195C216.879 37.6195 216.718 37.6715 216.584 37.7681C216.45 37.8647 216.35 38.0009 216.299 38.1572C216.197 38.7074 216.172 39.2689 216.223 39.8261C216.146 40.3734 216.146 40.9287 216.223 41.476H216.299Z" fill="white"/>
<path d="M223.865 38.3846C223.888 38.2338 223.888 38.0803 223.865 37.9295C223.83 37.7983 223.748 37.684 223.636 37.6071C223.519 37.525 223.377 37.4849 223.234 37.4933C223.053 37.4822 222.872 37.5287 222.719 37.626C222.581 37.7434 222.476 37.8935 222.413 38.0622C222.339 38.2963 222.295 38.5382 222.279 38.7829C222.279 39.0674 222.279 39.4087 222.279 39.807C222.279 40.2053 222.279 40.5656 222.279 40.869C222.295 41.1199 222.34 41.3681 222.413 41.6087C222.471 41.7697 222.57 41.9133 222.699 42.0259C222.842 42.1147 223.008 42.1608 223.177 42.1586C223.308 42.1637 223.438 42.1305 223.55 42.063C223.662 41.9956 223.751 41.8969 223.807 41.7793C223.97 41.3959 224.042 40.9808 224.018 40.5656H225.68C225.735 41.2908 225.525 42.0114 225.087 42.5948C224.835 42.8363 224.535 43.0233 224.206 43.144C223.877 43.2648 223.527 43.3167 223.177 43.2965C222.79 43.3004 222.404 43.2493 222.031 43.1448C221.714 43.036 221.435 42.8384 221.228 42.5759C220.984 42.2492 220.815 41.8739 220.732 41.4759C220.624 40.9198 220.572 40.3543 220.579 39.788C220.562 39.2068 220.626 38.626 220.77 38.0622C220.878 37.6585 221.073 37.283 221.343 36.9623C221.582 36.7006 221.884 36.5046 222.222 36.3933C222.582 36.2911 222.955 36.2401 223.33 36.2416C223.666 36.2151 224.004 36.2644 224.318 36.3859C224.633 36.5074 224.915 36.698 225.145 36.9433C225.583 37.4756 225.802 38.1535 225.756 38.8398H224.094C224.036 38.6796 223.959 38.5269 223.865 38.3846Z" fill="white"/>
<path d="M228.335 34.1367V35.597H226.597V34.1367H228.335ZM228.335 36.4315V43.1829H226.597V36.4504L228.335 36.4315Z" fill="white"/>
<path d="M229.482 38.2901C229.559 37.8998 229.708 37.5269 229.921 37.1901C230.129 36.8866 230.421 36.6494 230.762 36.5074C231.156 36.3465 231.578 36.269 232.004 36.2798C232.453 36.2495 232.904 36.3208 233.322 36.4884C233.658 36.6205 233.945 36.8523 234.144 37.1522C234.355 37.4949 234.497 37.8748 234.564 38.2711C234.653 38.7847 234.698 39.305 234.698 39.8262C234.701 40.3359 234.65 40.8445 234.545 41.3434C234.478 41.7457 234.321 42.128 234.086 42.4623C233.877 42.752 233.593 42.9811 233.265 43.1261C232.861 43.2741 232.434 43.3449 232.004 43.3347C231.563 43.35 231.123 43.2857 230.705 43.1451C230.375 43.0107 230.095 42.779 229.902 42.4813C229.671 42.1472 229.52 41.7641 229.463 41.3624C229.374 40.8551 229.329 40.3411 229.329 39.8262C229.326 39.3103 229.377 38.7954 229.482 38.2901ZM231.106 40.7745C231.12 41.0304 231.158 41.2844 231.221 41.5331C231.279 41.7103 231.377 41.8723 231.507 42.0072C231.572 42.0709 231.65 42.1205 231.736 42.1532C231.821 42.1858 231.912 42.2006 232.004 42.1968C232.172 42.2024 232.338 42.151 232.473 42.0511C232.609 41.9512 232.706 41.8087 232.749 41.6468C232.913 41.0286 232.977 40.3886 232.94 39.7504C232.98 39.1121 232.916 38.4716 232.749 37.8539C232.712 37.732 232.645 37.621 232.554 37.5308C232.464 37.4405 232.352 37.3737 232.23 37.3363C232.107 37.2988 231.977 37.2918 231.851 37.316C231.725 37.3401 231.607 37.3945 231.507 37.4746C231.377 37.6168 231.28 37.7849 231.221 37.9677C231.157 38.216 231.118 38.4702 231.106 38.7263C231.106 39.0107 231.106 39.3331 231.106 39.6745C231.106 40.0159 231.087 40.49 231.106 40.7745ZM233.609 33.8523L232.386 35.654H231.201L231.87 33.8523H233.609Z" fill="white"/>
<path d="M237.238 36.4504V37.2469C237.398 36.9319 237.651 36.6735 237.964 36.5073C238.278 36.3501 238.626 36.2719 238.977 36.2797C239.21 36.2652 239.444 36.2981 239.664 36.3764C239.884 36.4546 240.086 36.5766 240.257 36.7349C240.589 37.1465 240.747 37.6702 240.696 38.1952V43.2019H238.958V38.5365C238.983 38.284 238.923 38.0303 238.786 37.8159C238.713 37.7396 238.623 37.6812 238.524 37.645C238.424 37.6088 238.318 37.5959 238.213 37.6072C237.601 37.6072 237.296 37.9676 237.296 38.7262V43.2019H235.538V36.4504H237.238Z" fill="white"/>
<path d="M244.67 37.285C244.697 36.7634 244.813 36.2503 245.014 35.7678C245.183 35.3444 245.476 34.9811 245.855 34.7247C246.316 34.435 246.857 34.2957 247.402 34.3264C247.865 34.3098 248.327 34.3872 248.759 34.554C249.114 34.7082 249.414 34.9662 249.618 35.2936C249.87 35.703 250.027 36.163 250.077 36.6401C250.177 37.2991 250.222 37.9652 250.211 38.6315C250.211 39.2573 250.211 39.8452 250.211 40.4142C250.182 40.9354 250.066 41.4482 249.867 41.9313C249.697 42.3489 249.404 42.7058 249.026 42.9554C248.553 43.2322 248.008 43.3642 247.46 43.3347C247.005 43.3448 246.552 43.2741 246.122 43.1261C245.767 42.972 245.467 42.714 245.262 42.3865C245.01 41.9842 244.854 41.5302 244.804 41.059C244.703 40.3937 244.659 39.7213 244.67 39.0487C244.632 38.4418 244.632 37.8539 244.67 37.285ZM246.466 40.8124C246.48 41.1038 246.538 41.3915 246.638 41.6658C246.684 41.8327 246.785 41.9795 246.925 42.0831C247.071 42.1625 247.236 42.2018 247.402 42.1968C247.581 42.2054 247.756 42.1518 247.899 42.0451C248.049 41.9156 248.156 41.7435 248.205 41.552C248.277 41.2526 248.329 40.9484 248.357 40.6417C248.357 40.2435 248.357 39.7693 248.357 39.2004V38.2332C248.357 37.6832 248.357 37.2281 248.357 36.8677C248.334 36.5837 248.277 36.3035 248.185 36.0333C248.137 35.8676 248.036 35.7215 247.899 35.616C247.747 35.5342 247.575 35.4948 247.402 35.5023C247.232 35.4911 247.064 35.5379 246.925 35.635C246.778 35.7674 246.672 35.9384 246.619 36.1281C246.537 36.432 246.486 36.7433 246.466 37.0574C246.466 37.4367 246.466 37.9108 246.466 38.4797V39.4469C246.428 39.9969 246.447 40.471 246.466 40.8124Z" fill="white"/>
<path d="M250.993 39.2382C251.119 39.0396 251.286 38.8706 251.484 38.7428C251.682 38.6151 251.906 38.5318 252.14 38.4986C251.914 38.4427 251.7 38.3463 251.509 38.2141C251.362 38.0947 251.233 37.9541 251.127 37.7969C251.025 37.6411 250.954 37.4673 250.917 37.2849C250.891 37.1215 250.891 36.9551 250.917 36.7918C250.878 36.4429 250.922 36.0898 251.045 35.7605C251.167 35.4313 251.366 35.1351 251.624 34.8953C252.192 34.5273 252.856 34.3313 253.534 34.3313C254.213 34.3313 254.877 34.5273 255.445 34.8953C255.703 35.1351 255.901 35.4313 256.024 35.7605C256.147 36.0898 256.191 36.4429 256.152 36.7918C256.178 36.9551 256.178 37.1215 256.152 37.2849C256.107 37.4648 256.036 37.6373 255.941 37.7969C255.828 37.9541 255.693 38.0945 255.54 38.2141C255.361 38.3422 255.161 38.4385 254.948 38.4986C255.178 38.5343 255.398 38.6189 255.593 38.7465C255.787 38.8742 255.952 39.0419 256.075 39.2382C256.336 39.6738 256.468 40.1731 256.457 40.6796C256.452 40.9663 256.42 41.252 256.362 41.533C256.306 41.8531 256.167 42.1535 255.961 42.4054C255.738 42.6984 255.442 42.9275 255.101 43.0691C254.133 43.4233 253.069 43.4233 252.102 43.0691C251.767 42.9172 251.473 42.6899 251.242 42.4054C251.051 42.144 250.915 41.8474 250.841 41.533C250.783 41.252 250.751 40.9663 250.745 40.6796C250.693 40.1856 250.779 39.687 250.993 39.2382ZM252.484 41.2485C252.499 41.4216 252.552 41.5896 252.636 41.7416C252.714 41.8757 252.826 41.987 252.961 42.064C253.115 42.1614 253.295 42.2079 253.477 42.1968C253.653 42.2051 253.826 42.1587 253.974 42.064C254.109 41.987 254.221 41.8757 254.299 41.7416C254.383 41.5896 254.435 41.4216 254.451 41.2485C254.472 41.0531 254.472 40.856 254.451 40.6606C254.471 40.4588 254.471 40.2555 254.451 40.0537C254.432 39.8872 254.38 39.7261 254.299 39.5796C254.221 39.4455 254.109 39.3342 253.974 39.2572C253.824 39.1692 253.65 39.1294 253.477 39.1434C253.297 39.1266 253.117 39.1665 252.961 39.2572C252.826 39.3342 252.714 39.4455 252.636 39.5796C252.554 39.7261 252.503 39.8872 252.484 40.0537C252.464 40.2555 252.464 40.4588 252.484 40.6606C252.476 40.8574 252.488 41.0544 252.522 41.2485H252.484ZM252.827 37.6642C252.906 37.759 253.005 37.8342 253.118 37.8836C253.231 37.9331 253.354 37.9553 253.477 37.9486C253.597 37.9538 253.717 37.9308 253.827 37.8814C253.936 37.8319 254.032 37.7575 254.107 37.6642C254.295 37.3846 254.382 37.0507 254.356 36.7159C254.356 35.9004 254.05 35.5022 253.477 35.5022C252.904 35.5022 252.579 35.9004 252.579 36.7159C252.561 37.0499 252.648 37.3813 252.827 37.6642Z" fill="white"/>
<path d="M258.578 35.9004L258.387 37.9107C258.549 37.6856 258.775 37.5138 259.037 37.4176C259.353 37.2944 259.691 37.2363 260.03 37.2469C260.402 37.241 260.769 37.3257 261.1 37.4934C261.367 37.6579 261.595 37.8779 261.769 38.1382C261.929 38.4228 262.045 38.7297 262.113 39.0485C262.174 39.393 262.206 39.7419 262.208 40.0916C262.216 40.5378 262.171 40.9834 262.074 41.4191C262.007 41.7946 261.857 42.1508 261.635 42.4622C261.412 42.7575 261.106 42.9816 260.756 43.107C260.304 43.2734 259.824 43.3507 259.342 43.3346C258.879 43.3513 258.418 43.2738 257.986 43.107C257.666 42.985 257.387 42.7744 257.184 42.5001C256.995 42.2681 256.864 41.9953 256.802 41.7036C256.744 41.4418 256.712 41.1751 256.706 40.9071V40.6606H258.445C258.445 40.8123 258.445 40.964 258.445 41.1347C258.468 41.2978 258.513 41.4572 258.578 41.6088C258.634 41.7504 258.726 41.8748 258.846 41.9691C258.975 42.0731 259.138 42.127 259.304 42.1208C259.471 42.1431 259.64 42.1174 259.793 42.0468C259.945 41.9762 260.074 41.8637 260.164 41.7226C260.357 41.3209 260.442 40.8769 260.412 40.433C260.436 40.1237 260.436 39.813 260.412 39.5037C260.404 39.3027 260.345 39.107 260.24 38.9348C260.181 38.799 260.071 38.6906 259.935 38.6313C259.771 38.5652 259.596 38.533 259.419 38.5365C259.309 38.5288 259.199 38.5452 259.097 38.5845C258.995 38.6239 258.902 38.6852 258.827 38.7641C258.675 38.9255 258.581 39.1322 258.559 39.352H256.935L257.26 34.5349H261.922V35.9383L258.578 35.9004Z" fill="white"/>
<path d="M268.34 35.8814C267.954 36.4032 267.621 36.9623 267.347 37.5503C267.05 38.1649 266.795 38.7984 266.583 39.4467C266.171 40.6811 265.877 41.951 265.704 43.2397H263.793C263.855 42.6719 263.95 42.1083 264.08 41.5518C264.223 40.9395 264.408 40.3376 264.634 39.7502C264.85 39.0977 265.118 38.4635 265.436 37.8537C265.765 37.191 266.148 36.5566 266.583 35.9572H262.762V34.4021H268.264L268.34 35.8814Z" fill="white"/>
<path d="M64.3056 34.4023H65.7002C65.8245 34.3944 65.949 34.4122 66.066 34.4547C66.183 34.4971 66.2897 34.5632 66.3796 34.6488C66.4694 34.7344 66.5403 34.8377 66.5878 34.9519C66.6353 35.0662 66.6583 35.1891 66.6554 35.3126C66.6617 35.4388 66.6403 35.5648 66.5928 35.6819C66.5452 35.7991 66.4726 35.9046 66.38 35.9911C66.2873 36.0777 66.1769 36.1432 66.0562 36.1833C65.9355 36.2233 65.8075 36.2368 65.6811 36.223H64.3056V34.4023ZM63.9999 34.1368V37.9298H64.3056V36.4695H65.3563L66.6936 37.9298H67.0948L65.7193 36.4505C65.8824 36.4669 66.0472 36.4484 66.2025 36.3962C66.3578 36.3439 66.5001 36.2592 66.6196 36.1478C66.7391 36.0363 66.8331 35.9007 66.8953 35.7501C66.9576 35.5995 66.9865 35.4374 66.9802 35.2747C66.9805 35.1112 66.947 34.9494 66.8818 34.7993C66.8166 34.6491 66.7211 34.5139 66.6011 34.4019C66.4811 34.2899 66.3392 34.2035 66.1843 34.1481C66.0293 34.0928 65.8645 34.0695 65.7002 34.0799L63.9999 34.1368ZM60.3509 34.1368V37.9298H63.0447V37.6453H60.6566V36.1281H62.9109V35.8626H60.6566V34.3644H63.0447V34.1368H60.3509ZM56.7975 34.4213H58.1921C58.3997 34.4802 58.5823 34.6046 58.7124 34.7756C58.8424 34.9467 58.9127 35.1552 58.9127 35.3695C58.9127 35.5839 58.8424 35.7923 58.7124 35.9634C58.5823 36.1345 58.3997 36.2589 58.1921 36.3178H56.7975V34.4213ZM56.4918 34.1368V37.9298H56.7975V36.6022H58.1921C58.5023 36.5644 58.7877 36.4153 58.9947 36.183C59.2018 35.9507 59.3161 35.6513 59.3161 35.3411C59.3161 35.0309 59.2018 34.7315 58.9947 34.4992C58.7877 34.2669 58.5023 34.1177 58.1921 34.0799L56.4918 34.1368ZM55.1354 34.1368V36.5264C55.1354 36.8382 55.0106 37.1373 54.7885 37.3578C54.5664 37.5783 54.2651 37.7022 53.951 37.7022C53.6368 37.7022 53.3355 37.5783 53.1134 37.3578C52.8913 37.1373 52.7665 36.8382 52.7665 36.5264V34.1368H52.4608V36.5264C52.4371 36.7334 52.4577 36.9431 52.5213 37.1417C52.5848 37.3403 52.69 37.5233 52.8297 37.6787C52.9695 37.8342 53.1408 37.9585 53.3324 38.0437C53.524 38.1289 53.7315 38.1729 53.9414 38.1729C54.1513 38.1729 54.3588 38.1289 54.5504 38.0437C54.742 37.9585 54.9133 37.8342 55.0531 37.6787C55.1928 37.5233 55.298 37.3403 55.3615 37.1417C55.4251 36.9431 55.4457 36.7334 55.422 36.5264V34.1368H55.1354ZM48.5826 35.1609C48.5826 35.8626 49.3086 35.9954 50.0154 36.1281C50.7223 36.2609 51.2954 36.3936 51.2954 36.9626C51.2954 37.5315 50.5313 37.7781 50.0536 37.7781C49.7911 37.7868 49.5309 37.7265 49.2994 37.6033C49.0679 37.4801 48.8734 37.2983 48.7354 37.0764L48.468 37.2091C48.6324 37.4768 48.8664 37.6956 49.1454 37.8424C49.4245 37.9892 49.7382 38.0587 50.0536 38.0436C50.7032 38.0436 51.582 37.835 51.582 36.9626C51.582 36.0902 50.8178 35.9954 50.0728 35.8626C49.3277 35.7299 48.8883 35.635 48.8883 35.142C48.8883 34.6489 49.5951 34.3644 50.0536 34.3644C50.2791 34.3378 50.5076 34.3712 50.7157 34.4612C50.9239 34.5512 51.1042 34.6945 51.2381 34.8764L51.4674 34.7437C51.3098 34.5243 51.0948 34.3518 50.8456 34.2449C50.5965 34.1379 50.3226 34.1006 50.0536 34.1368C49.4232 34.1368 48.5635 34.3265 48.5826 35.142V35.1609ZM110.806 4.62754V20.4252L98.1395 4.66547H94.3186V30.0973H99.1521V13.029L112.64 30.2111H115.639V4.62754H110.806ZM71.4506 11.2083C71.4506 16.8978 76.284 18.2822 81.5187 18.9081C84.9193 19.2684 87.4601 20.2546 87.4601 22.701C87.4601 25.4699 84.5945 26.494 81.5569 26.494C80.0852 26.626 78.6079 26.3102 77.3214 25.5887C76.0349 24.8671 75.0001 23.7739 74.3545 22.4545L70.3235 24.5217C72.2339 29.187 76.2458 30.78 81.4805 30.78C87.2118 30.78 92.2554 28.3336 92.2554 22.6631C92.2554 16.5943 87.2691 15.2289 81.9199 14.5651C78.844 14.2048 76.1885 13.5789 76.1885 11.3601C76.1885 9.46357 77.9079 7.98431 81.4996 7.98431C82.6654 7.94332 83.8243 8.17819 84.8806 8.66953C85.937 9.16086 86.8604 9.89457 87.5748 10.8101L91.3957 8.91359C89.5043 4.91201 85.3587 3.79308 81.3849 3.79308C76.647 3.79308 71.4506 5.95507 71.4506 11.2083ZM49.3659 11.2083C49.3659 16.8978 54.1993 18.2822 59.4339 18.9081C62.8536 19.2684 65.3754 20.2546 65.3754 22.701C65.3754 25.4699 62.5097 26.494 59.4721 26.494C58.0005 26.626 56.5232 26.3102 55.2367 25.5887C53.9502 24.8671 52.9153 23.7739 52.2698 22.4545L48.2387 24.5217C50.1492 29.187 54.1611 30.78 59.3957 30.78C65.1271 30.78 70.1706 28.3336 70.1706 22.6631C70.1706 16.5943 65.1844 15.2289 59.8351 14.5651C56.7593 14.2048 54.1038 13.5789 54.1038 11.3601C54.1038 9.46357 55.8232 7.98431 59.4148 7.98431C60.5845 7.94119 61.7479 8.17294 62.8103 8.6607C63.8726 9.14845 64.8039 9.8784 65.5282 10.7911L69.3491 8.89462C67.4196 4.91201 63.293 3.79308 59.2238 3.79308C54.5623 3.79308 49.3659 5.95507 49.3659 11.2083ZM7.43163 8.38257C4.0326 11.7597 1.91836 16.2023 1.44917 20.9534C0.979977 25.7045 2.18486 30.4701 4.85852 34.4382C7.53218 38.4063 11.5092 41.3313 16.1118 42.7148C20.7145 44.0983 25.658 43.8547 30.1 42.0255C34.542 40.1963 38.2076 36.8947 40.4723 32.6833C42.7369 28.4719 43.4605 23.6113 42.5196 18.9296C41.5787 14.248 39.0317 10.0351 35.3125 7.00873C31.5932 3.98238 26.932 2.32988 22.1229 2.33279C19.3935 2.33134 16.6906 2.86503 14.1695 3.90321C11.6484 4.9414 9.35859 6.46365 7.43163 8.38257ZM4.42706e-08 22.9665C-0.000323792 17.8807 1.776 12.9521 5.02623 9.02076C8.27646 5.08941 12.7995 2.39857 17.8244 1.40684C22.8493 0.41511 28.0652 1.18386 32.5831 3.58209C37.101 5.98031 40.6414 9.85958 42.6008 14.5588C44.5602 19.258 44.8174 24.4862 43.3286 29.3526C41.8397 34.219 38.697 38.4222 34.436 41.246C30.175 44.0699 25.0594 45.3395 19.961 44.8385C14.8627 44.3375 10.0971 42.097 6.47641 38.4987C2.32972 34.3777 0.00037093 28.7913 4.42706e-08 22.9665H4.42706e-08ZM9.64775 32.961C9.24655 33.2644 8.40596 33.6437 9.05551 34.3834C9.88613 35.4088 10.8497 36.3207 11.9212 37.0953C12.1227 37.2545 12.3614 37.3606 12.6152 37.4037C12.8691 37.4468 13.1298 37.4255 13.3731 37.3419C19.1057 35.4267 25.3122 35.4267 31.0447 37.3419C31.2645 37.4414 31.5078 37.4782 31.7474 37.448C31.987 37.4179 32.2134 37.322 32.4011 37.1712C33.4383 36.3557 34.386 35.434 35.2286 34.4213C35.7062 33.8334 35.2286 33.5679 34.7128 33.1127C31.0825 30.3399 26.6069 28.8812 22.0274 28.9784H21.9128C17.4881 28.8891 13.1639 30.2932 9.64775 32.961ZM7.89014 14.2237C6.06152 16.2916 5.01462 18.9266 4.92895 21.6769C16.3916 14.1858 27.8543 14.1858 39.3169 21.6769C39.202 18.886 38.1456 16.2144 36.3176 14.091C34.451 12.2594 32.237 10.8135 29.8038 9.83693C27.3706 8.86035 24.7664 8.37247 22.1421 8.40154C19.4976 8.39448 16.8777 8.90507 14.4322 9.90411C11.9867 10.9031 9.76361 12.371 7.89014 14.2237ZM13.7361 19.7994C10.8059 20.7456 8.12398 22.3262 5.88417 24.4268C5.58964 24.6448 5.35488 24.9326 5.20135 25.2639C5.04782 25.5952 4.98044 25.9595 5.00536 26.3233C5.27524 27.482 5.61983 28.6222 6.037 29.737C6.51462 31.4059 7.12596 31.899 8.88357 30.7611C13.6899 27.4014 19.6126 26.0028 25.428 26.8543C29.1965 27.453 32.7811 28.8854 35.9164 31.0456C37.0626 31.8231 37.4256 31.5386 37.9223 30.4576C38.6139 29.1634 39.0668 27.7568 39.2596 26.3043C39.1924 25.6268 38.8961 24.9918 38.419 24.5027C36.3296 22.5186 33.834 21.005 31.102 20.0649C28.2175 19.151 25.2082 18.6841 22.1803 18.6805C19.3274 18.671 16.4866 19.0475 13.7361 19.7994ZM115.009 39.8263V42.9934L112.411 39.8263H112.277V43.6192H112.582V40.528L115.2 43.6192H115.314V39.8263H115.009ZM107.902 41.7228C107.88 41.4996 107.906 41.2743 107.98 41.0623C108.053 40.8503 108.172 40.6566 108.328 40.4944C108.484 40.3323 108.674 40.2056 108.884 40.123C109.094 40.0404 109.319 40.0039 109.545 40.0159C109.77 40.0073 109.995 40.0461 110.205 40.1296C110.414 40.2131 110.603 40.3395 110.76 40.5006C110.917 40.6617 111.038 40.8538 111.115 41.0644C111.192 41.275 111.223 41.4993 111.207 41.7228C111.232 41.953 111.208 42.1859 111.136 42.4063C111.064 42.6266 110.947 42.8296 110.791 43.0019C110.635 43.1742 110.444 43.3119 110.231 43.4063C110.018 43.5006 109.788 43.5493 109.554 43.5493C109.321 43.5493 109.09 43.5006 108.877 43.4063C108.664 43.3119 108.474 43.1742 108.318 43.0019C108.162 42.8296 108.044 42.6266 107.973 42.4063C107.901 42.1859 107.877 41.953 107.902 41.7228ZM107.596 41.7228C107.596 42.2257 107.798 42.7081 108.156 43.0638C108.514 43.4194 109 43.6192 109.507 43.6192C110.013 43.6192 110.499 43.4194 110.858 43.0638C111.216 42.7081 111.417 42.2257 111.417 41.7228C111.417 41.2198 111.216 40.7374 110.858 40.3817C110.499 40.0261 110.013 39.8263 109.507 39.8263C109 39.8263 108.514 40.0261 108.156 40.3817C107.798 40.7374 107.596 41.2198 107.596 41.7228ZM109.812 38.6694L109.392 39.3332H109.66L110.175 38.6505H109.812V38.6694ZM106.431 43.6192H106.737V39.8263H106.431V43.6192ZM102.266 41.7228C102.266 42.2257 102.467 42.7081 102.826 43.0638C103.184 43.4194 103.67 43.6192 104.177 43.6192C104.44 43.6234 104.702 43.5734 104.945 43.4722C105.189 43.371 105.408 43.2209 105.59 43.0313L105.38 42.8606C105.221 43.0147 105.033 43.136 104.826 43.2174C104.62 43.2987 104.399 43.3386 104.177 43.3348C103.754 43.2904 103.363 43.0924 103.079 42.779C102.795 42.4656 102.638 42.059 102.638 41.6374C102.638 41.2158 102.795 40.8092 103.079 40.4958C103.363 40.1824 103.754 39.9844 104.177 39.9401C104.4 39.9397 104.621 39.9831 104.828 40.0677C105.034 40.1523 105.222 40.2765 105.38 40.4331L105.59 40.2625C105.407 40.0763 105.186 39.9297 104.943 39.8318C104.7 39.734 104.439 39.6869 104.177 39.6935C103.914 39.6929 103.654 39.746 103.413 39.8495C103.172 39.953 102.955 40.1047 102.776 40.2951C102.597 40.4855 102.459 40.7105 102.371 40.9562C102.284 41.2018 102.248 41.4628 102.266 41.7228ZM100.241 40.0728L101.254 42.4813H99.1903L100.241 40.0728ZM100.069 39.8263L98.3497 43.6192H98.6553L99.0757 42.671H101.387L101.808 43.6192H102.132L100.394 39.8263H100.069ZM97.4327 39.8263V42.9934L94.9109 39.8263H94.7772V43.6192H95.0828V40.528L97.7001 43.6192H97.8148V39.8263H97.4327ZM90.7079 40.1107L91.7586 42.4434H89.7909L90.7079 40.1107ZM90.6315 39.8263L88.893 43.6192H89.2178L89.6381 42.671H91.9497L92.37 43.6192H92.6948L90.9563 39.8263H90.6315ZM86.1802 39.8263V43.6192H88.6637V43.4296H86.4858V39.8263H86.1802ZM81.1366 39.8263V43.6192H83.8685V43.3348H81.4231V41.9124H83.6966V41.7228H81.4231V40.2435H83.8112V39.8263H81.1366ZM77.4303 40.1107H78.4237C78.8595 40.1107 79.2774 40.2826 79.5855 40.5884C79.8936 40.8943 80.0667 41.3092 80.0667 41.7417C80.0667 42.1743 79.8936 42.5891 79.5855 42.895C79.2774 43.2009 78.8595 43.3727 78.4237 43.3727H77.4303V40.1107ZM77.1246 39.8263V43.6192H78.4237C78.9304 43.6192 79.4164 43.4194 79.7746 43.0638C80.1329 42.7081 80.3342 42.2257 80.3342 41.7228C80.3342 41.2198 80.1329 40.7374 79.7746 40.3817C79.4164 40.0261 78.9304 39.8263 78.4237 39.8263H77.1246ZM71.8709 40.8314C71.8709 41.5521 72.5969 41.6848 73.3038 41.8176C74.0106 41.9503 74.5646 42.0641 74.5646 42.652C74.5646 43.2399 73.8196 43.4486 73.342 43.4486C73.0816 43.4574 72.8233 43.3992 72.5923 43.2795C72.3613 43.1599 72.1654 42.9829 72.0238 42.7658L71.7563 42.8986C71.9176 43.1691 72.151 43.3902 72.4307 43.5375C72.7105 43.6847 73.0259 43.7524 73.342 43.733C73.9915 43.733 74.8703 43.5244 74.8703 42.652C74.8703 41.7797 74.087 41.6848 73.342 41.5521C72.5969 41.4193 72.1575 41.3055 72.1575 40.8314C72.1575 40.3573 72.8835 40.0349 73.342 40.0349C73.5663 40.0118 73.7928 40.049 73.9977 40.1424C74.2027 40.2358 74.3787 40.382 74.5073 40.5659L74.7557 40.4142C74.6012 40.1894 74.388 40.0106 74.139 39.897C73.8899 39.7834 73.6144 39.7393 73.342 39.7694C72.6924 39.8263 71.8518 40.0538 71.8709 40.8693V40.8314ZM67.496 41.7228C67.496 41.2852 67.6711 40.8655 67.9828 40.5561C68.2945 40.2466 68.7173 40.0728 69.1581 40.0728C69.5989 40.0728 70.0217 40.2466 70.3334 40.5561C70.6451 40.8655 70.8202 41.2852 70.8202 41.7228C70.8335 41.9455 70.8 42.1686 70.722 42.3779C70.6439 42.5871 70.5229 42.778 70.3667 42.9385C70.2104 43.0989 70.0224 43.2254 69.8143 43.31C69.6063 43.3945 69.3828 43.4352 69.1581 43.4296C68.9341 43.4324 68.712 43.3898 68.5052 43.3042C68.2985 43.2187 68.1116 43.0922 67.9559 42.9323C67.8003 42.7725 67.6792 42.5827 67.6001 42.3747C67.521 42.1667 67.4856 41.9448 67.496 41.7228ZM67.2094 41.7228C67.2094 42.2257 67.4107 42.7081 67.769 43.0638C68.1273 43.4194 68.6132 43.6192 69.1199 43.6192C69.6266 43.6192 70.1125 43.4194 70.4708 43.0638C70.829 42.7081 71.0303 42.2257 71.0303 41.7228C71.0303 41.2198 70.829 40.7374 70.4708 40.3817C70.1125 40.0261 69.6266 39.8263 69.1199 39.8263C68.6132 39.8263 68.1273 40.0261 67.769 40.3817C67.4107 40.7374 67.2094 41.2198 67.2094 41.7228ZM64.019 40.0728H65.4327C65.5571 40.0674 65.6812 40.0878 65.7973 40.1326C65.9133 40.1774 66.0187 40.2457 66.1067 40.333C66.1947 40.4204 66.2635 40.525 66.3086 40.6402C66.3537 40.7554 66.3743 40.8786 66.3688 41.0021C66.3786 41.1291 66.3596 41.2566 66.3132 41.3754C66.2668 41.4942 66.1943 41.6011 66.1008 41.6884C66.0074 41.7757 65.8955 41.8411 65.7733 41.8799C65.651 41.9186 65.5216 41.9298 65.3945 41.9124H64.019V40.0728ZM63.7324 39.8263V43.6192H64.019V42.1779H65.0888L66.4262 43.6192H66.8656L65.5091 42.1589C65.6715 42.1757 65.8355 42.1572 65.9899 42.1049C66.1443 42.0525 66.2854 41.9675 66.4035 41.8557C66.5216 41.7439 66.6138 41.6079 66.6738 41.4573C66.7338 41.3066 66.7601 41.1449 66.7509 40.9831C66.7539 40.8205 66.7229 40.6591 66.6598 40.509C66.5968 40.3589 66.503 40.2234 66.3845 40.1112C66.266 39.9989 66.1253 39.9122 65.9714 39.8566C65.8174 39.8011 65.6535 39.7778 65.49 39.7883L63.7324 39.8263ZM62.548 39.8263V42.2158C62.548 42.3703 62.5173 42.5232 62.4578 42.6658C62.3983 42.8085 62.311 42.9381 62.201 43.0473C62.091 43.1565 61.9605 43.2431 61.8168 43.3022C61.6731 43.3612 61.519 43.3917 61.3635 43.3917C61.2079 43.3917 61.0539 43.3612 60.9102 43.3022C60.7665 43.2431 60.6359 43.1565 60.5259 43.0473C60.4159 42.9381 60.3287 42.8085 60.2692 42.6658C60.2096 42.5232 60.179 42.3703 60.179 42.2158V39.8263H59.8733V42.2158C59.8496 42.4229 59.8702 42.6325 59.9338 42.8311C59.9974 43.0297 60.1025 43.2127 60.2423 43.3682C60.382 43.5236 60.5533 43.648 60.7449 43.7331C60.9365 43.8183 61.144 43.8623 61.3539 43.8623C61.5638 43.8623 61.7714 43.8183 61.9629 43.7331C62.1545 43.648 62.3258 43.5236 62.4656 43.3682C62.6054 43.2127 62.7105 43.0297 62.7741 42.8311C62.8376 42.6325 62.8582 42.4229 62.8345 42.2158V39.8263H62.548ZM55.5557 41.7228C55.5557 42.2257 55.757 42.7081 56.1153 43.0638C56.4736 43.4194 56.9595 43.6192 57.4662 43.6192C57.7412 43.6185 58.0132 43.5627 58.266 43.4552C58.5187 43.3476 58.747 43.1906 58.9372 42.9934V41.7228H57.3133V41.9693H58.6698V43.0503C58.345 43.3396 57.9216 43.4956 57.4853 43.4865C57.2601 43.5001 57.0345 43.4664 56.8232 43.3876C56.612 43.3088 56.4199 43.1867 56.2595 43.0292C56.099 42.8717 55.9738 42.6824 55.8921 42.4736C55.8103 42.2648 55.7738 42.0413 55.785 41.8176C55.7685 41.59 55.8008 41.3615 55.8799 41.1472C55.959 40.933 56.083 40.7378 56.2437 40.5747C56.4044 40.4115 56.5982 40.2841 56.8123 40.2009C57.0263 40.1176 57.2557 40.0805 57.4853 40.0918C57.9477 40.0913 58.3925 40.2679 58.7271 40.5849L58.899 40.3952C58.7154 40.2091 58.4951 40.0625 58.2518 39.9646C58.0086 39.8667 57.7477 39.8196 57.4853 39.8263C57.2328 39.8238 56.9823 39.871 56.7483 39.9652C56.5143 40.0593 56.3014 40.1986 56.122 40.375C55.9426 40.5513 55.8002 40.7613 55.703 40.9926C55.6058 41.2239 55.5557 41.4721 55.5557 41.7228ZM52.2889 39.8263V43.6192H55.0208V43.3348H52.5754V41.9124H54.8489V41.7228H52.5754V40.2435H54.9635V39.8263H52.2889ZM48.5826 40.8314C48.5826 41.5521 49.3086 41.6848 50.0154 41.8176C50.7223 41.9503 51.2954 42.0641 51.2954 42.652C51.2954 43.2399 50.5313 43.4486 50.0536 43.4486C49.7932 43.4574 49.535 43.3992 49.304 43.2795C49.073 43.1599 48.8771 42.9829 48.7354 42.7658L48.468 42.8986C48.6324 43.1663 48.8664 43.385 49.1454 43.5319C49.4245 43.6787 49.7382 43.7482 50.0536 43.733C50.7032 43.733 51.582 43.5244 51.582 42.652C51.582 41.7797 50.8178 41.6848 50.0728 41.5521C49.3277 41.4193 48.8883 41.3055 48.8883 40.8314C48.8883 40.3573 49.5951 40.0349 50.0536 40.0349C50.2807 40.0124 50.5097 40.0496 50.7176 40.1428C50.9255 40.236 51.105 40.3819 51.2381 40.5659L51.4674 40.4142C51.3061 40.1998 51.0899 40.0322 50.8413 39.9288C50.5927 39.8254 50.3207 39.79 50.0536 39.8263C49.4232 39.8263 48.5635 40.0538 48.5826 40.8693V40.8314ZM112.525 34.1368V37.9298H115.257V37.6453H112.812V36.1281H115.085V35.8626H112.812V34.3644H115.181V34.1368H112.525ZM108.704 34.4213H109.717C109.949 34.3965 110.183 34.4205 110.405 34.4916C110.627 34.5627 110.832 34.6795 111.005 34.8342C111.179 34.9889 111.318 35.1782 111.413 35.3897C111.508 35.6012 111.557 35.8302 111.557 36.0618C111.557 36.2933 111.508 36.5223 111.413 36.7338C111.318 36.9453 111.179 37.1346 111.005 37.2893C110.832 37.444 110.627 37.5608 110.405 37.6319C110.183 37.703 109.949 37.727 109.717 37.7022H108.704V34.4213ZM108.322 34.1368V37.9298H109.64C110.147 37.9298 110.633 37.73 110.991 37.3743C111.35 37.0187 111.551 36.5363 111.551 36.0333C111.551 35.5303 111.35 35.0479 110.991 34.6923C110.633 34.3366 110.147 34.1368 109.64 34.1368H108.322ZM104.005 34.4213L105.074 36.735H102.954L104.005 34.4213ZM103.833 34.1368L102.094 37.9298H102.419L102.839 36.9815H105.074L105.495 37.9298H105.82L104.081 34.1368H103.833ZM101.101 37.9298H101.387V34.1368H101.101V37.9298ZM96.7449 36.0333C96.7449 36.5363 96.9462 37.0187 97.3045 37.3743C97.6627 37.73 98.1487 37.9298 98.6553 37.9298C98.9177 37.9364 99.1787 37.8894 99.4219 37.7915C99.6651 37.6936 99.8854 37.547 100.069 37.3608L99.878 37.1712C99.5494 37.4853 99.1116 37.6618 98.6553 37.6643C98.233 37.6199 97.8422 37.422 97.5582 37.1086C97.2741 36.7952 97.1169 36.3885 97.1169 35.9669C97.1169 35.5454 97.2741 35.1387 97.5582 34.8253C97.8422 34.5119 98.233 34.3139 98.6553 34.2696C99.1093 34.2649 99.5474 34.4348 99.878 34.7437L100.069 34.573C99.8854 34.3869 99.6651 34.2403 99.4219 34.1424C99.1787 34.0445 98.9177 33.9974 98.6553 34.0041C98.3928 34.0034 98.1329 34.0565 97.892 34.16C97.651 34.2635 97.4342 34.4152 97.2549 34.6056C97.0756 34.796 96.9378 35.0211 96.8501 35.2667C96.7623 35.5124 96.7265 35.7733 96.7449 36.0333ZM95.5222 34.1368V37.3229L92.9431 34.1368H92.8094V37.9298H93.1151V34.7816L95.7324 37.9298H95.847V34.1368H95.5222ZM89.0267 34.1368V37.9298H91.7013V37.6453H89.3515V36.1281H91.7013V35.8626H89.3515V34.3644H91.7013V34.1368H89.0267ZM85.2058 34.4213H86.2184C86.4369 34.4079 86.6558 34.4401 86.861 34.5158C87.0663 34.5916 87.2532 34.7092 87.4098 34.8611C87.5664 35.013 87.6892 35.1958 87.7703 35.3977C87.8513 35.5996 87.8889 35.8161 87.8804 36.0333C87.897 36.2559 87.8657 36.4795 87.7885 36.6892C87.7114 36.8988 87.5902 37.0898 87.433 37.2495C87.2758 37.4091 87.0862 37.5337 86.8768 37.615C86.6674 37.6964 86.4429 37.7325 86.2184 37.7212H85.2058V34.4213ZM84.8619 34.1368V37.9298H86.161C86.6677 37.9298 87.1537 37.73 87.5119 37.3743C87.8702 37.0187 88.0715 36.5363 88.0715 36.0333C88.0715 35.5303 87.8702 35.0479 87.5119 34.6923C87.1537 34.3366 86.6677 34.1368 86.161 34.1368H84.8619ZM83.4864 34.1368V37.3229L80.8691 34.1368H80.7545V37.9298H81.0411V34.7816L83.6584 37.9298H83.773V34.1368H83.4864ZM76.9909 34.1368V37.9298H79.7228V37.6453H77.2775V36.1281H79.5509V35.8626H77.2775V34.3644H79.6464V34.1368H76.9909ZM73.17 34.1368V34.4023H74.5073V37.9298H74.813V34.3834H76.2076V34.1368H73.17ZM72.062 34.1368V37.3229L69.3682 34.1368H69.2345V37.9298H69.5402V34.7816L72.1384 37.9298H72.2721V34.1368H72.062ZM67.9354 37.9298H68.222V34.1368H67.9354V37.9298Z" fill="white"/>
<path d="M159.178 16.5563C158.792 16.7376 158.457 17.0113 158.204 17.3528C157.909 17.778 157.695 18.2538 157.574 18.7562C157.4 19.4441 157.323 20.1525 157.344 20.8613V22.7578C157.344 23.3968 157.421 24.0335 157.574 24.6543C157.693 25.1547 157.914 25.6257 158.223 26.0387C158.466 26.3944 158.803 26.6766 159.197 26.8542C159.588 27.0164 160.007 27.1 160.43 27.1C160.853 27.1 161.272 27.0164 161.662 26.8542C162.056 26.6766 162.393 26.3944 162.636 26.0387C162.932 25.6205 163.146 25.1509 163.267 24.6543C163.43 23.9904 163.507 23.3084 163.496 22.625V20.8613C163.509 20.1841 163.432 19.5082 163.267 18.851C163.145 18.3487 162.932 17.8729 162.636 17.4476C162.387 17.1021 162.051 16.8274 161.662 16.6511C161.296 16.451 160.893 16.3283 160.477 16.2908C160.049 16.2891 159.625 16.3797 159.236 16.5563H159.178ZM160.057 25.2611C159.916 25.1503 159.805 25.0071 159.732 24.8439C159.639 24.5915 159.569 24.3313 159.522 24.0664C159.5 23.6747 159.5 23.2822 159.522 22.8905V20.482C159.499 20.0904 159.499 19.6978 159.522 19.3062C159.566 19.0468 159.636 18.7925 159.732 18.5476C159.799 18.3808 159.911 18.2362 160.057 18.1304C160.18 18.0438 160.327 17.9973 160.477 17.9973C160.628 17.9973 160.775 18.0438 160.898 18.1304C161.044 18.2362 161.156 18.3808 161.222 18.5476C161.32 18.7908 161.384 19.046 161.414 19.3062C161.447 19.6974 161.447 20.0908 161.414 20.482V22.8905C161.436 23.2822 161.436 23.6747 161.414 24.0664C161.376 24.3332 161.306 24.5944 161.203 24.8439C161.143 25.0142 161.029 25.1606 160.879 25.2611C160.766 25.3529 160.623 25.4002 160.477 25.3939C160.307 25.4084 160.138 25.3612 160 25.2611H160.057ZM166.858 16.4804C166.517 16.6056 166.204 16.7993 165.941 17.0494C165.682 17.3154 165.48 17.6318 165.349 17.9786C165.205 18.3803 165.134 18.804 165.139 19.2303C165.133 19.705 165.245 20.1739 165.464 20.5958C165.682 20.9798 165.998 21.3002 166.381 21.5251C165.943 21.7645 165.579 22.1188 165.33 22.5492C165.076 23.0142 164.951 23.5377 164.967 24.0664C164.957 24.5132 165.035 24.9577 165.196 25.3749C165.333 25.7333 165.549 26.0571 165.827 26.3232C166.109 26.5769 166.441 26.7705 166.801 26.8921C167.195 27.024 167.608 27.0881 168.024 27.0818C168.433 27.0898 168.841 27.0256 169.227 26.8921C169.584 26.7744 169.91 26.5801 170.182 26.3232C170.461 26.0571 170.676 25.7333 170.813 25.3749C170.974 24.9577 171.052 24.5132 171.042 24.0664C171.058 23.5377 170.933 23.0142 170.679 22.5492C170.421 22.132 170.068 21.7811 169.648 21.5251C170.02 21.2944 170.329 20.975 170.545 20.5958C170.765 20.1739 170.876 19.705 170.87 19.2303C170.875 18.804 170.804 18.3803 170.66 17.9786C170.516 17.6352 170.301 17.3253 170.03 17.0683C169.773 16.8187 169.468 16.6249 169.132 16.4994C168.756 16.3766 168.362 16.3126 167.966 16.3097C167.571 16.3029 167.177 16.3606 166.801 16.4804H166.858ZM167.412 20.2734C167.261 19.9669 167.189 19.6281 167.202 19.2872C167.187 18.94 167.259 18.5945 167.412 18.2821C167.467 18.1746 167.553 18.0852 167.658 18.0246C167.763 17.9641 167.883 17.9349 168.005 17.9407C168.131 17.9353 168.256 17.9665 168.364 18.0305C168.473 18.0945 168.56 18.1885 168.616 18.3011C168.76 18.6092 168.826 18.9479 168.807 19.2872C168.826 19.6265 168.76 19.9653 168.616 20.2734C168.569 20.3915 168.488 20.4929 168.382 20.564C168.276 20.6351 168.151 20.6727 168.024 20.6717C167.89 20.6906 167.754 20.6679 167.635 20.6068C167.515 20.5456 167.417 20.449 167.355 20.3303L167.412 20.2734ZM167.279 24.9387C167.083 24.6131 166.989 24.2365 167.011 23.8577C166.992 23.4732 167.085 23.0915 167.279 22.7578C167.356 22.6364 167.463 22.5364 167.59 22.4671C167.717 22.3978 167.86 22.3615 168.005 22.3615C168.149 22.3615 168.292 22.3978 168.419 22.4671C168.546 22.5364 168.653 22.6364 168.731 22.7578C168.917 23.0934 169.003 23.4751 168.979 23.8577C169.006 24.2346 168.92 24.611 168.731 24.9387C168.662 25.0644 168.56 25.1685 168.435 25.2389C168.31 25.3094 168.167 25.3434 168.024 25.337C167.871 25.3585 167.716 25.338 167.574 25.2778C167.433 25.2176 167.311 25.12 167.221 24.9956L167.279 24.9387ZM174.233 16.5563C173.85 16.7432 173.517 17.0159 173.258 17.3528C172.963 17.778 172.749 18.2538 172.628 18.7562C172.472 19.4468 172.401 20.1537 172.418 20.8613V22.7578C172.417 23.3968 172.494 24.0335 172.647 24.6543C172.768 25.1509 172.982 25.6205 173.277 26.0387C173.52 26.3944 173.857 26.6766 174.252 26.8542C174.643 27.0249 175.066 27.109 175.494 27.1007C175.92 27.1072 176.344 27.0232 176.735 26.8542C177.123 26.6662 177.457 26.3861 177.71 26.0387C178.005 25.6205 178.219 25.1509 178.34 24.6543C178.487 23.9879 178.558 23.3072 178.55 22.625V20.8613C178.563 20.1841 178.486 19.5082 178.321 18.851C178.205 18.3142 177.985 17.8052 177.671 17.3528C177.422 17.0072 177.086 16.7326 176.697 16.5563C176.307 16.3797 175.884 16.2891 175.455 16.2908C175.034 16.2935 174.617 16.384 174.233 16.5563ZM175.054 25.2611C174.914 25.1542 174.808 25.0093 174.748 24.8439C174.638 24.5974 174.567 24.3349 174.538 24.0664C174.505 23.6751 174.505 23.2818 174.538 22.8905V20.482C174.505 20.0908 174.505 19.6974 174.538 19.3062C174.567 19.046 174.632 18.7908 174.729 18.5476C174.796 18.3808 174.908 18.2362 175.054 18.1304C175.177 18.0438 175.324 17.9973 175.474 17.9973C175.625 17.9973 175.772 18.0438 175.895 18.1304C176.041 18.2362 176.153 18.3808 176.219 18.5476C176.316 18.7925 176.386 19.0468 176.43 19.3062C176.453 19.6978 176.453 20.0904 176.43 20.482V22.8905C176.452 23.2822 176.452 23.6747 176.43 24.0664C176.392 24.3332 176.322 24.5944 176.219 24.8439C176.16 25.0093 176.054 25.1542 175.914 25.2611C175.792 25.35 175.644 25.3967 175.494 25.3939C175.337 25.3967 175.183 25.3502 175.054 25.2611ZM181.76 16.5563C181.377 16.7432 181.044 17.0159 180.785 17.3528C180.488 17.7746 180.28 18.2521 180.174 18.7562C180.001 19.4441 179.924 20.1525 179.945 20.8613V22.7578C179.945 23.3968 180.022 24.0335 180.174 24.6543C180.295 25.1509 180.509 25.6205 180.805 26.0387C181.047 26.3944 181.385 26.6766 181.779 26.8542C182.17 27.0249 182.594 27.109 183.021 27.1007C183.448 27.1072 183.871 27.0232 184.262 26.8542C184.65 26.6662 184.985 26.3861 185.237 26.0387C185.532 25.6205 185.746 25.1509 185.867 24.6543C186.024 23.9895 186.094 23.3076 186.077 22.625V20.8613C186.09 20.1841 186.013 19.5082 185.848 18.851C185.768 18.3223 185.586 17.8138 185.313 17.3528C185.064 17.0072 184.728 16.7326 184.339 16.5563C183.949 16.3797 183.525 16.2891 183.097 16.2908C182.637 16.2768 182.179 16.3677 181.76 16.5563ZM182.6 25.2611C182.45 25.1606 182.336 25.0142 182.276 24.8439C182.165 24.5974 182.094 24.3349 182.065 24.0664C182.032 23.6751 182.032 23.2818 182.065 22.8905V20.482C182.032 20.0908 182.032 19.6974 182.065 19.3062C182.095 19.046 182.159 18.7908 182.256 18.5476C182.323 18.3808 182.435 18.2362 182.581 18.1304C182.703 18.0415 182.851 17.9949 183.002 17.9976C183.153 17.9918 183.302 18.0388 183.422 18.1304C183.568 18.2362 183.68 18.3808 183.747 18.5476C183.852 18.7896 183.922 19.0449 183.957 19.3062C183.98 19.6978 183.98 20.0904 183.957 20.482V22.8905C183.979 23.2822 183.979 23.6747 183.957 24.0664C183.92 24.3332 183.849 24.5944 183.747 24.8439C183.687 25.0093 183.581 25.1542 183.441 25.2611C183.319 25.35 183.172 25.3967 183.021 25.3939C182.869 25.3997 182.721 25.3527 182.6 25.2611ZM195.534 16.3287C194.873 16.3209 194.22 16.4636 193.624 16.7459C193.055 17.0299 192.558 17.4384 192.172 17.9407C191.757 18.5102 191.459 19.1544 191.293 19.8372C191.078 20.5961 190.975 21.3818 190.987 22.1699V22.9854C190.98 23.5561 191.058 24.1247 191.216 24.6732C191.328 25.1555 191.543 25.6082 191.847 26.0008C192.101 26.3634 192.442 26.6568 192.84 26.8542C193.248 27.0612 193.701 27.1654 194.159 27.1576C194.6 27.1618 195.036 27.0712 195.439 26.8921C195.814 26.7107 196.146 26.4521 196.413 26.1335C196.693 25.7901 196.907 25.3978 197.043 24.9767C197.184 24.5155 197.255 24.0362 197.253 23.5543C197.253 23.095 197.202 22.6371 197.101 22.1888C197.005 21.7862 196.844 21.4019 196.623 21.051C196.428 20.734 196.159 20.4675 195.84 20.2734C195.504 20.0795 195.12 19.9811 194.732 19.9889C194.409 19.9819 194.089 20.0467 193.796 20.1786C193.525 20.3121 193.284 20.4993 193.089 20.7286C193.124 20.3571 193.214 19.9929 193.356 19.6476C193.484 19.3463 193.665 19.0702 193.891 18.8321C194.118 18.6061 194.392 18.4314 194.693 18.32C195.037 18.2003 195.399 18.1425 195.763 18.1493V16.3287H195.534ZM193.28 24.8439C193.058 24.3231 192.96 23.7585 192.993 23.194V22.4544C193.067 22.2234 193.199 22.0147 193.375 21.8475C193.557 21.6809 193.797 21.5923 194.044 21.6009C194.201 21.5981 194.355 21.6446 194.483 21.7337C194.637 21.8327 194.762 21.97 194.846 22.1319C194.952 22.3222 195.029 22.5266 195.076 22.7388C195.106 22.9908 195.106 23.2454 195.076 23.4974C195.107 23.7493 195.107 24.0041 195.076 24.256C195.041 24.4687 194.97 24.6739 194.865 24.8629C194.782 25.0193 194.664 25.1553 194.522 25.2611C194.387 25.3529 194.226 25.3994 194.063 25.3939C193.893 25.3874 193.728 25.332 193.589 25.2344C193.45 25.1367 193.343 25.0011 193.28 24.8439ZM203.061 16.3287C202.401 16.3209 201.747 16.4636 201.151 16.7459C200.582 17.0299 200.085 17.4384 199.699 17.9407C199.285 18.5102 198.986 19.1544 198.82 19.8372C198.605 20.5961 198.502 21.3818 198.514 22.1699V22.9854C198.491 23.547 198.549 24.109 198.686 24.6543C198.798 25.1365 199.013 25.5893 199.317 25.9818C199.571 26.3444 199.912 26.6378 200.31 26.8352C200.718 27.0423 201.171 27.1465 201.628 27.1387C202.061 27.1493 202.49 27.0626 202.883 26.8853C203.277 26.7079 203.625 26.4445 203.902 26.1146C204.169 25.7655 204.376 25.3745 204.513 24.9577C204.654 24.4966 204.725 24.0172 204.723 23.5353C204.732 23.0755 204.681 22.6165 204.57 22.1699C204.482 21.7651 204.32 21.3796 204.093 21.032C203.903 20.7106 203.633 20.4429 203.31 20.2544C202.973 20.0606 202.59 19.9622 202.202 19.97C201.879 19.963 201.559 20.0278 201.265 20.1596C200.998 20.298 200.758 20.4845 200.559 20.7096C200.594 20.3382 200.684 19.9739 200.826 19.6286C200.961 19.3265 201.148 19.0504 201.38 18.8131C201.594 18.5805 201.863 18.4045 202.163 18.3011C202.507 18.1814 202.869 18.1236 203.233 18.1304H203.329V16.3287H203.061ZM200.807 24.8439C200.585 24.3231 200.487 23.7585 200.52 23.194V22.4544C200.594 22.2234 200.726 22.0147 200.902 21.8475C201.084 21.6809 201.324 21.5923 201.571 21.6009C201.734 21.6002 201.893 21.6464 202.03 21.7337C202.173 21.8395 202.29 21.9755 202.373 22.1319C202.479 22.3222 202.556 22.5266 202.603 22.7388C202.633 22.9908 202.633 23.2454 202.603 23.4974C202.634 23.7493 202.634 24.0041 202.603 24.256C202.568 24.4687 202.497 24.6739 202.393 24.8629C202.309 25.0193 202.192 25.1553 202.049 25.2611C201.914 25.3529 201.753 25.3994 201.59 25.3939C201.421 25.383 201.259 25.3258 201.12 25.2287C200.982 25.1316 200.874 24.9985 200.807 24.8439ZM210.588 16.3287C209.928 16.3209 209.274 16.4636 208.678 16.7459C208.111 17.0253 207.62 17.4349 207.245 17.9407C206.817 18.5044 206.511 19.1502 206.347 19.8372C206.133 20.5961 206.03 21.3818 206.042 22.1699V22.9854C206.035 23.5561 206.112 24.1247 206.271 24.6732C206.392 25.1523 206.606 25.6032 206.901 26.0008C207.155 26.3634 207.497 26.6568 207.895 26.8542C208.302 27.0612 208.755 27.1654 209.213 27.1576C209.66 27.1616 210.103 27.0711 210.512 26.8921C210.887 26.7107 211.219 26.4521 211.486 26.1335C211.754 25.7845 211.96 25.3935 212.098 24.9767C212.247 24.5176 212.319 24.0368 212.308 23.5543C212.317 23.0945 212.265 22.6355 212.155 22.1888C212.066 21.784 211.904 21.3985 211.677 21.051C211.487 20.7296 211.218 20.4619 210.894 20.2734C210.558 20.0795 210.175 19.9811 209.786 19.9889C209.47 19.9801 209.156 20.0451 208.869 20.1786C208.592 20.3117 208.345 20.4988 208.143 20.7286C208.178 20.3571 208.268 19.9929 208.41 19.6476C208.545 19.3455 208.733 19.0694 208.964 18.8321C209.179 18.5994 209.448 18.4234 209.748 18.32C210.091 18.2003 210.454 18.1425 210.818 18.1493H210.913V16.3287H210.588ZM208.334 24.8439C208.112 24.3231 208.014 23.7585 208.047 23.194V22.4544C208.121 22.2234 208.253 22.0147 208.43 21.8475C208.611 21.6809 208.851 21.5923 209.098 21.6009C209.261 21.6002 209.42 21.6464 209.557 21.7337C209.7 21.8395 209.817 21.9755 209.901 22.1319C210.014 22.3271 210.098 22.538 210.149 22.7578C210.179 23.0098 210.179 23.2644 210.149 23.5164C210.18 23.7683 210.18 24.0231 210.149 24.275C210.114 24.4876 210.043 24.6929 209.939 24.8819C209.855 25.0383 209.738 25.1743 209.595 25.2801C209.46 25.3719 209.3 25.4184 209.136 25.4129C208.962 25.4037 208.794 25.3454 208.652 25.2446C208.51 25.1438 208.399 25.0048 208.334 24.8439ZM218.822 16.4804C218.486 16.606 218.181 16.7998 217.924 17.0494C217.652 17.3054 217.449 17.6248 217.332 17.9786C217.179 18.3778 217.107 18.8034 217.122 19.2303C217.107 19.706 217.219 20.1771 217.447 20.5958C217.658 20.979 217.968 21.2997 218.345 21.5251C217.912 21.7649 217.555 22.1195 217.313 22.5492C217.053 23.0124 216.921 23.536 216.931 24.0664C216.921 24.5132 216.999 24.9577 217.16 25.3749C217.311 25.731 217.532 26.0535 217.81 26.3232C218.086 26.5847 218.42 26.7793 218.784 26.8921C219.171 27.024 219.579 27.0882 219.988 27.0818C220.403 27.0881 220.817 27.024 221.21 26.8921C221.567 26.7744 221.893 26.5801 222.166 26.3232C222.444 26.0571 222.659 25.7333 222.796 25.3749C222.958 24.9577 223.035 24.5132 223.025 24.0664C223.036 23.536 222.904 23.0124 222.643 22.5492C222.396 22.1236 222.04 21.7703 221.612 21.5251C221.989 21.2997 222.298 20.979 222.51 20.5958C222.743 20.1786 222.862 19.7076 222.853 19.2303C222.862 18.8021 222.784 18.3765 222.624 17.9786C222.507 17.6295 222.311 17.3116 222.051 17.0494C221.791 16.7957 221.478 16.6015 221.134 16.4804C220.765 16.3562 220.378 16.2921 219.988 16.2908C219.592 16.2937 219.199 16.3576 218.822 16.4804ZM219.396 20.2734C219.237 19.9695 219.165 19.6287 219.185 19.2872C219.161 18.9394 219.234 18.5916 219.396 18.2821C219.449 18.173 219.533 18.0822 219.639 18.0214C219.745 17.9605 219.866 17.9324 219.988 17.9407C220.114 17.9353 220.239 17.9665 220.348 18.0305C220.456 18.0945 220.544 18.1885 220.599 18.3011C220.743 18.6092 220.809 18.9479 220.79 19.2872C220.809 19.6265 220.743 19.9653 220.599 20.2734C220.552 20.3946 220.467 20.4981 220.358 20.5695C220.248 20.6409 220.119 20.6766 219.988 20.6717C219.866 20.6799 219.745 20.6519 219.639 20.591C219.533 20.5302 219.449 20.4394 219.396 20.3303V20.2734ZM219.262 24.9387C219.066 24.6131 218.973 24.2365 218.994 23.8577C218.976 23.4732 219.068 23.0915 219.262 22.7578C219.336 22.6334 219.443 22.531 219.57 22.461C219.698 22.391 219.842 22.356 219.988 22.3595C220.131 22.3574 220.271 22.3932 220.396 22.4632C220.52 22.5333 220.623 22.6349 220.695 22.7578C220.888 23.0915 220.981 23.4732 220.962 23.8577C220.975 24.2334 220.89 24.606 220.714 24.9387C220.641 25.0645 220.535 25.168 220.407 25.2382C220.279 25.3084 220.134 25.3426 219.988 25.337C219.847 25.3466 219.707 25.3202 219.58 25.2604C219.453 25.2006 219.343 25.1095 219.262 24.9956V24.9387ZM227.801 16.3856L224.21 23.2888V24.6163H227.706V26.8921H229.769V24.6543H230.667V22.9664H229.769V16.4425L227.801 16.3856ZM227.801 19.4958V19.401V22.9285H226.216L227.801 19.4958ZM233.838 16.4994C233.449 16.6757 233.113 16.9503 232.864 17.2959C232.569 17.7211 232.355 18.1969 232.234 18.6993C232.069 19.3565 231.992 20.0324 232.004 20.7096V22.6061C231.993 23.2894 232.07 23.9714 232.234 24.6353C232.353 25.1357 232.574 25.6068 232.883 26.0197C233.126 26.3755 233.463 26.6577 233.858 26.8352C234.248 26.9974 234.667 27.081 235.09 27.081C235.513 27.081 235.932 26.9974 236.322 26.8352C236.716 26.6577 237.053 26.3755 237.296 26.0197C237.592 25.6015 237.806 25.1319 237.927 24.6353C238.09 23.9714 238.167 23.2894 238.156 22.6061V20.8613C238.169 20.1841 238.092 19.5082 237.927 18.851C237.806 18.3487 237.592 17.8729 237.296 17.4476C237.047 17.1021 236.711 16.8274 236.322 16.6511C235.932 16.4762 235.508 16.3857 235.08 16.3856C234.646 16.3483 234.209 16.4066 233.8 16.5563L233.838 16.4994ZM234.66 25.2043C234.519 25.0934 234.408 24.9502 234.335 24.787C234.242 24.5346 234.172 24.2744 234.125 24.0095C234.102 23.6179 234.102 23.2252 234.125 22.8336V20.482C234.101 20.0904 234.101 19.6978 234.125 19.3062C234.168 19.0468 234.239 18.7925 234.335 18.5476C234.395 18.3773 234.509 18.2309 234.66 18.1304C234.78 18.0388 234.929 17.9918 235.08 17.9976C235.231 17.9949 235.379 18.0415 235.501 18.1304C235.641 18.2373 235.747 18.3822 235.806 18.5476C235.92 18.7864 235.991 19.0431 236.016 19.3062C236.05 19.6974 236.05 20.0908 236.016 20.482V22.8905C236.039 23.2822 236.039 23.6747 236.016 24.0664C235.97 24.3313 235.9 24.5915 235.806 24.8439C235.746 25.0142 235.632 25.1606 235.481 25.2611C235.363 25.3558 235.213 25.4031 235.061 25.3939C234.904 25.4009 234.749 25.3541 234.622 25.2611L234.66 25.2043ZM241.366 16.4994C240.976 16.6757 240.64 16.9503 240.391 17.2959C240.096 17.7211 239.882 18.1969 239.761 18.6993C239.596 19.3565 239.519 20.0324 239.532 20.7096V22.6061C239.52 23.2894 239.597 23.9714 239.761 24.6353C239.881 25.1357 240.102 25.6068 240.41 26.0197C240.653 26.3755 240.99 26.6577 241.385 26.8352C241.775 26.9974 242.194 27.081 242.617 27.081C243.04 27.081 243.459 26.9974 243.849 26.8352C244.243 26.6577 244.581 26.3755 244.824 26.0197C245.119 25.6015 245.333 25.1319 245.454 24.6353C245.618 23.9714 245.695 23.2894 245.683 22.6061V20.8613C245.696 20.1841 245.619 19.5082 245.454 18.851C245.333 18.3487 245.119 17.8729 244.824 17.4476C244.575 17.1021 244.239 16.8274 243.849 16.6511C243.459 16.4762 243.036 16.3857 242.607 16.3856C242.173 16.3483 241.736 16.4066 241.327 16.5563L241.366 16.4994ZM242.187 25.2043C242.046 25.0934 241.935 24.9502 241.862 24.787C241.767 24.5364 241.703 24.2754 241.671 24.0095C241.638 23.6182 241.638 23.2249 241.671 22.8336V20.482C241.638 20.0908 241.638 19.6974 241.671 19.3062C241.7 19.046 241.765 18.7908 241.862 18.5476C241.929 18.3808 242.041 18.2362 242.187 18.1304C242.307 18.0388 242.456 17.9918 242.607 17.9976C242.758 17.9949 242.906 18.0415 243.028 18.1304C243.168 18.2412 243.28 18.3844 243.352 18.5476C243.45 18.7908 243.514 19.046 243.544 19.3062C243.577 19.6974 243.577 20.0908 243.544 20.482V22.8905C243.566 23.2822 243.566 23.6747 243.544 24.0664C243.506 24.3332 243.436 24.5944 243.333 24.8439C243.273 25.0142 243.159 25.1606 243.009 25.2611C242.896 25.3529 242.753 25.4002 242.607 25.3939C242.444 25.4038 242.282 25.3569 242.149 25.2611L242.187 25.2043ZM261.101 19.0786L260.394 23.4595L259.343 19.0786H257.91L256.859 23.4785L256.172 19.0786H254.261L255.885 26.8921H257.604L258.712 22.3785L259.84 26.8921H261.54L263.164 19.0786H261.101ZM270.519 19.0786L269.812 23.4595L268.781 19.0786H267.309L266.259 23.4785L265.552 19.1355H263.641L265.265 26.949H266.985L268.093 22.4354L269.22 26.949H270.92L272.544 19.1355L270.519 19.0786ZM279.938 19.0786L279.231 23.4595L278.18 19.0786H276.728L275.677 23.4785L274.989 19.0786H273.079L274.703 26.8921H276.422L277.53 22.3785L278.658 26.8921H280.358L281.982 19.0786H279.938ZM282.899 24.7681C282.754 24.8204 282.623 24.9047 282.517 25.0146C282.415 25.1167 282.336 25.2397 282.287 25.3749C282.226 25.5125 282.194 25.6608 282.192 25.8111C282.196 25.9673 282.228 26.1214 282.287 26.2663C282.341 26.3936 282.419 26.5094 282.517 26.6076C282.63 26.7051 282.759 26.7821 282.899 26.8352C283.057 26.8975 283.225 26.9296 283.395 26.9301C283.559 26.9296 283.722 26.8973 283.873 26.8352C284.019 26.7824 284.154 26.7054 284.274 26.6076C284.372 26.5094 284.45 26.3936 284.503 26.2663C284.53 26.1157 284.53 25.9617 284.503 25.8111C284.532 25.6671 284.532 25.5189 284.503 25.3749C284.454 25.2397 284.376 25.1167 284.274 25.0146C284.16 24.9043 284.023 24.8201 283.873 24.7681C283.715 24.7379 283.553 24.7379 283.395 24.7681C283.212 24.7635 283.031 24.7958 282.86 24.8629L282.899 24.7681ZM287.828 19.0786C287.516 19.2035 287.226 19.3763 286.968 19.5907C286.742 19.7993 286.56 20.0508 286.433 20.3303C286.319 20.627 286.261 20.942 286.261 21.2596C286.253 21.5436 286.298 21.8266 286.395 22.094C286.494 22.3317 286.644 22.5452 286.834 22.7199C287.039 22.9202 287.271 23.0924 287.522 23.2319C287.809 23.3836 288.114 23.5353 288.477 23.6871L289.108 23.9715C289.256 24.0469 289.396 24.1358 289.528 24.237C289.625 24.3042 289.709 24.3877 289.776 24.4836C289.798 24.5772 289.798 24.6745 289.776 24.7681C289.776 25.2422 289.49 25.5077 288.936 25.5077C288.803 25.5274 288.667 25.5274 288.535 25.5077C288.41 25.478 288.296 25.417 288.202 25.3306C288.108 25.2443 288.039 25.1354 288 25.0146C287.966 24.8392 287.966 24.659 288 24.4836H286.089C286.095 24.8084 286.16 25.1295 286.28 25.4318C286.417 25.7326 286.605 26.0083 286.834 26.2473C287.105 26.5011 287.423 26.7007 287.77 26.8352C288.172 26.9875 288.601 27.0584 289.031 27.0438C289.431 27.045 289.829 26.994 290.216 26.8921C290.536 26.7767 290.838 26.6171 291.114 26.418C291.363 26.2169 291.565 25.9646 291.706 25.6784C291.84 25.3805 291.905 25.0564 291.897 24.7301C291.905 24.4399 291.86 24.1507 291.763 23.8767C291.669 23.6356 291.526 23.4161 291.343 23.2319C291.137 23.0107 290.891 22.8305 290.617 22.7009C290.297 22.5123 289.958 22.3597 289.604 22.2457L288.974 21.9613C288.83 21.8959 288.696 21.813 288.573 21.7147C288.478 21.6593 288.399 21.581 288.343 21.4871C288.324 21.3997 288.324 21.3091 288.343 21.2216C288.338 21.1197 288.354 21.0179 288.39 20.9224C288.427 20.8269 288.482 20.74 288.554 20.6669C288.626 20.5939 288.712 20.5364 288.807 20.4981C288.903 20.4597 289.005 20.4413 289.108 20.4441C289.224 20.4332 289.341 20.4519 289.448 20.4983C289.555 20.5448 289.648 20.6175 289.719 20.7096C289.846 20.9212 289.905 21.1656 289.891 21.4113H291.954C291.963 21.0666 291.897 20.7241 291.763 20.4061C291.635 20.1068 291.439 19.8408 291.19 19.6286C290.928 19.4053 290.622 19.2375 290.292 19.1355C289.909 19.0172 289.509 18.9596 289.108 18.9648C288.659 18.9524 288.212 19.0232 287.789 19.1734L287.828 19.0786ZM294.591 19.0786C294.274 19.1948 293.983 19.3684 293.731 19.5907C293.499 19.7942 293.316 20.047 293.196 20.3303C293.076 20.6259 293.011 20.9408 293.005 21.2596C293.002 21.5448 293.054 21.828 293.158 22.094C293.257 22.327 293.4 22.5394 293.578 22.7199C293.79 22.9202 294.028 23.0923 294.285 23.2319C294.594 23.402 294.913 23.554 295.24 23.6871L295.871 23.9715C296.019 24.0469 296.159 24.1358 296.291 24.237C296.387 24.299 296.466 24.3838 296.52 24.4836C296.551 24.576 296.551 24.6757 296.52 24.7681C296.52 25.2422 296.253 25.5077 295.699 25.5077C295.566 25.5289 295.43 25.5289 295.297 25.5077C295.178 25.4742 295.068 25.416 294.973 25.337C294.877 25.2482 294.805 25.1375 294.763 25.0146C294.705 24.843 294.673 24.6642 294.667 24.4836H292.757C292.753 24.8094 292.818 25.1323 292.948 25.4318C293.078 25.7364 293.266 26.0133 293.502 26.2473C293.766 26.5009 294.077 26.7007 294.419 26.8352C294.828 26.9871 295.262 27.0579 295.699 27.0438C296.098 27.0437 296.496 26.9927 296.883 26.8921C297.203 26.7767 297.506 26.6171 297.781 26.418C298.024 26.2158 298.22 25.9634 298.354 25.6784C298.495 25.382 298.567 25.0579 298.564 24.7301C298.563 24.4406 298.518 24.1529 298.431 23.8767C298.336 23.6356 298.193 23.4161 298.01 23.2319C297.801 23.0151 297.555 22.8355 297.284 22.7009C296.963 22.516 296.624 22.3635 296.272 22.2457L295.641 21.9613C295.498 21.8959 295.363 21.813 295.24 21.7147C295.146 21.6593 295.067 21.581 295.011 21.4871C294.983 21.4008 294.983 21.308 295.011 21.2216C295.003 21.1207 295.016 21.0192 295.05 20.9238C295.084 20.8283 295.138 20.7411 295.209 20.6677C295.279 20.5944 295.364 20.5365 295.458 20.498C295.553 20.4595 295.654 20.4411 295.756 20.4441C295.875 20.4334 295.995 20.4521 296.105 20.4984C296.215 20.5447 296.311 20.6173 296.386 20.7096C296.513 20.9212 296.573 21.1656 296.558 21.4113H298.622C298.621 21.0674 298.556 20.7266 298.431 20.4061C298.302 20.1068 298.106 19.8408 297.857 19.6286C297.592 19.4094 297.288 19.2421 296.96 19.1355C296.576 19.0172 296.177 18.9596 295.775 18.9648C295.358 18.9623 294.944 19.0329 294.552 19.1734L294.591 19.0786ZM302.614 19.0786C302.299 19.2359 302.029 19.471 301.831 19.7613V18.9838H299.921V26.7973H301.85V21.1078C301.935 20.9413 302.06 20.7981 302.213 20.6906C302.363 20.584 302.545 20.5306 302.729 20.5389C302.862 20.5176 302.997 20.5176 303.13 20.5389C303.235 20.5775 303.327 20.643 303.398 20.7286C303.481 20.8487 303.54 20.9841 303.57 21.1268C303.592 21.3348 303.592 21.5446 303.57 21.7527V26.7214H305.671V21.9802C305.687 21.5076 305.635 21.0352 305.518 20.5768C305.44 20.2487 305.298 19.9393 305.098 19.6665C304.931 19.4338 304.698 19.2556 304.429 19.1545C304.164 19.0416 303.877 18.9897 303.589 19.0028C303.238 19.0001 302.892 19.078 302.576 19.2303L302.614 19.0786ZM308.078 24.7681C307.934 24.8204 307.803 24.9047 307.696 25.0146C307.588 25.1112 307.508 25.236 307.467 25.3749C307.438 25.5189 307.438 25.6671 307.467 25.8111C307.44 25.9617 307.44 26.1157 307.467 26.2663C307.514 26.3972 307.592 26.5146 307.696 26.6076C307.941 26.8153 308.253 26.9296 308.575 26.9301C308.739 26.9296 308.901 26.8973 309.053 26.8352C309.195 26.7868 309.325 26.7093 309.435 26.6076C309.544 26.5157 309.63 26.3985 309.683 26.2663C309.711 26.1158 309.711 25.9616 309.683 25.8111C309.712 25.6671 309.712 25.5189 309.683 25.3749C309.635 25.2346 309.549 25.1101 309.435 25.0146C309.331 24.9005 309.2 24.8155 309.053 24.7681C308.895 24.7379 308.733 24.7379 308.575 24.7681C308.392 24.7619 308.21 24.7942 308.04 24.8629L308.078 24.7681ZM311.899 19.8372C311.367 20.6945 311.119 21.6963 311.192 22.7009V23.2129C311.181 23.7627 311.245 24.3115 311.383 24.8439C311.474 25.2664 311.649 25.6663 311.899 26.0197C312.11 26.3278 312.391 26.5814 312.721 26.7594C313.075 26.9167 313.46 26.9944 313.848 26.9869C314.146 26.9964 314.442 26.9311 314.708 26.7973C314.972 26.6619 315.201 26.4671 315.376 26.2284V26.8542C315.402 27.0811 315.402 27.31 315.376 27.5369C315.326 27.7082 315.234 27.8646 315.109 27.9921C314.992 28.0938 314.855 28.1711 314.708 28.2197C314.524 28.2407 314.338 28.2407 314.154 28.2197C314.001 28.2379 313.847 28.2379 313.695 28.2197L313.256 28.0679C313.114 28.0144 312.979 27.9444 312.854 27.8593L312.511 27.5749L311.823 28.9972C311.967 29.1545 312.134 29.2889 312.32 29.3955C312.527 29.5094 312.744 29.6047 312.969 29.68C313.187 29.7546 313.411 29.8116 313.638 29.8506H314.249C314.702 29.8581 315.154 29.7941 315.586 29.661C315.959 29.5508 316.304 29.3633 316.599 29.111C316.895 28.8526 317.124 28.5274 317.268 28.1628C317.437 27.7207 317.521 27.2511 317.516 26.7783V19.1355H315.605L315.51 19.8372C315.339 19.5621 315.096 19.3388 314.806 19.1916C314.516 19.0444 314.192 18.9791 313.867 19.0028C313.496 18.9896 313.128 19.0675 312.794 19.2296C312.461 19.3917 312.173 19.633 311.957 19.932L311.899 19.8372ZM313.542 24.787C313.315 24.2946 313.216 23.7532 313.256 23.2129V22.7578C313.219 22.2115 313.317 21.6646 313.542 21.1647C313.63 21.0032 313.764 20.8705 313.927 20.783C314.09 20.6955 314.275 20.6568 314.459 20.6717C314.646 20.6659 314.832 20.7119 314.994 20.8044C315.152 20.8882 315.284 21.0127 315.376 21.1647V24.9577C315.277 25.0942 315.146 25.2048 314.994 25.2801C314.824 25.3686 314.632 25.408 314.44 25.3939C314.265 25.3969 314.094 25.3503 313.945 25.2596C313.796 25.1689 313.676 25.0378 313.6 24.8819L313.542 24.787ZM320.554 19.0976C320.164 19.2459 319.821 19.4947 319.56 19.8182C319.262 20.1672 319.041 20.5742 318.911 21.013C318.749 21.5415 318.672 22.0918 318.681 22.644V23.1561C318.673 23.7082 318.75 24.2582 318.911 24.787C319.045 25.2183 319.266 25.6183 319.56 25.9628C319.821 26.2864 320.164 26.5351 320.554 26.6835C320.971 26.8543 321.42 26.9382 321.872 26.9301C322.324 26.9415 322.773 26.8575 323.19 26.6835C323.582 26.5304 323.93 26.2828 324.202 25.9628C324.483 25.6125 324.697 25.2139 324.833 24.787C324.993 24.2582 325.07 23.7082 325.062 23.1561V22.7578C325.072 22.2056 324.995 21.6553 324.833 21.1268C324.703 20.688 324.481 20.281 324.183 19.932C323.918 19.6129 323.577 19.3651 323.19 19.2114C322.772 19.0406 322.324 18.9567 321.872 18.9648C321.436 18.9732 321.007 19.07 320.611 19.2493L320.554 19.0976ZM321.05 24.787C320.817 24.296 320.712 23.7548 320.745 23.2129V22.7578C320.705 22.2094 320.81 21.6601 321.05 21.1647C321.123 21.0103 321.24 20.8799 321.385 20.7891C321.531 20.6984 321.7 20.651 321.872 20.6527C322.046 20.6519 322.217 20.6995 322.365 20.7899C322.514 20.8804 322.634 21.0102 322.712 21.1647C322.935 21.6653 323.033 22.2116 322.999 22.7578V23.2698C323.036 23.81 322.938 24.351 322.712 24.8439C322.64 25.003 322.521 25.1368 322.371 25.228C322.221 25.3193 322.047 25.3639 321.872 25.356C321.714 25.3489 321.561 25.3016 321.427 25.2185C321.293 25.1355 321.183 25.0195 321.108 24.8819L321.05 24.787ZM326.342 15.7598V26.8542H328.253V26.0766C328.439 26.3499 328.679 26.5822 328.96 26.7594C329.247 26.9134 329.569 26.9918 329.896 26.9869C330.27 27.0108 330.644 26.9356 330.98 26.769C331.316 26.6024 331.601 26.3504 331.806 26.0387C332.269 25.1641 332.48 24.1799 332.417 23.194V22.7578C332.474 21.7784 332.263 20.802 331.806 19.932C331.599 19.6217 331.314 19.3708 330.979 19.2043C330.643 19.0379 330.27 18.9619 329.896 18.9838C329.592 18.9767 329.29 19.0417 329.017 19.1734C328.765 19.3275 328.545 19.5269 328.367 19.7613V15.8546L326.342 15.7598ZM328.749 25.2422C328.595 25.1432 328.47 25.0059 328.386 24.8439V21.2975C328.465 21.1217 328.59 20.9707 328.749 20.8613C328.924 20.7463 329.133 20.6929 329.342 20.7096C329.533 20.7025 329.723 20.7416 329.896 20.8234C330.038 20.9247 330.15 21.0623 330.22 21.2216C330.3 21.4288 330.352 21.6457 330.373 21.8664C330.373 22.1319 330.373 22.4354 330.373 22.7768V23.2888C330.373 23.6681 330.373 23.9905 330.373 24.256C330.354 24.4772 330.303 24.6943 330.22 24.9008C330.156 25.0584 330.042 25.1914 329.896 25.2801C329.723 25.3619 329.533 25.401 329.342 25.3939C329.153 25.3885 328.969 25.3363 328.807 25.2422H328.749ZM334.481 24.8629C334.334 24.9103 334.202 24.9953 334.099 25.1094C333.984 25.2049 333.898 25.3295 333.85 25.4698C333.821 25.6137 333.821 25.762 333.85 25.906C333.823 26.0564 333.823 26.2106 333.85 26.3611C333.904 26.4933 333.989 26.6105 334.099 26.7025C334.208 26.8041 334.339 26.8817 334.481 26.9301C334.632 26.9922 334.794 27.0244 334.958 27.0249C335.128 27.0245 335.297 26.9923 335.455 26.9301C335.595 26.877 335.724 26.7999 335.837 26.7025C335.947 26.6105 336.032 26.4933 336.085 26.3611C336.113 26.2106 336.113 26.0564 336.085 25.906C336.114 25.762 336.114 25.6137 336.085 25.4698C336.037 25.3295 335.951 25.2049 335.837 25.1094C335.73 24.9995 335.6 24.9152 335.455 24.8629C335.291 24.8325 335.122 24.8325 334.958 24.8629C334.85 24.849 334.741 24.849 334.634 24.8629H334.481ZM339.543 19.1734C339.215 19.2958 338.91 19.4757 338.645 19.7045C338.389 19.9214 338.187 20.1939 338.053 20.501C337.922 20.8065 337.857 21.1361 337.862 21.4682H340.059C340.049 21.2323 340.116 20.9996 340.25 20.8044C340.326 20.7255 340.418 20.6642 340.521 20.6248C340.623 20.5855 340.733 20.5691 340.842 20.5768C340.942 20.5685 341.042 20.583 341.134 20.6192C341.227 20.6554 341.31 20.7123 341.377 20.7854C341.51 21.0084 341.571 21.2668 341.549 21.5251V22.1509H340.995C340.529 22.138 340.065 22.2021 339.62 22.3406C339.259 22.4328 338.925 22.6082 338.645 22.8526C338.384 23.0725 338.181 23.3524 338.053 23.6681C337.928 24.0149 337.863 24.3806 337.862 24.7491C337.859 25.0731 337.917 25.3949 338.034 25.6973C338.154 25.9711 338.322 26.2216 338.531 26.437C338.737 26.6439 338.984 26.8055 339.257 26.9111C339.546 27.0105 339.849 27.0618 340.155 27.0628C340.468 27.0777 340.779 27.0055 341.053 26.8542C341.284 26.7183 341.485 26.5378 341.645 26.3232C341.652 26.4305 341.652 26.5382 341.645 26.6456V26.9301H343.88V26.7973C343.824 26.6948 343.779 26.5868 343.746 26.4749C343.746 26.3611 343.746 26.2473 343.651 26.0956C343.64 25.9377 343.64 25.7793 343.651 25.6215C343.64 25.4193 343.64 25.2168 343.651 25.0146V21.582C343.658 21.1802 343.587 20.7809 343.441 20.4061C343.317 20.0986 343.121 19.8252 342.868 19.6096C342.627 19.39 342.34 19.2278 342.027 19.1355C341.672 19.0424 341.305 18.9978 340.938 19.0028C340.516 18.987 340.094 19.0514 339.696 19.1924L339.543 19.1734ZM339.964 25.2422C339.819 25.0593 339.751 24.8286 339.773 24.5974C339.744 24.4407 339.744 24.28 339.773 24.1233C339.807 23.9803 339.88 23.8493 339.983 23.744C340.075 23.6298 340.193 23.5389 340.327 23.4785C340.491 23.4143 340.666 23.3821 340.842 23.3836H341.32V25.0146C341.227 25.1498 341.103 25.2605 340.957 25.337C340.779 25.4255 340.583 25.471 340.384 25.4698C340.255 25.4383 340.141 25.3648 340.059 25.2611L339.964 25.2422ZM347.701 19.2493C347.451 19.4446 347.254 19.6988 347.128 19.9889V19.1355H345.217V26.949H347.281V21.7906C347.366 21.5718 347.512 21.3812 347.701 21.2406C347.916 21.1022 348.171 21.0357 348.427 21.051H348.771H349.115V19.0976H348.847H348.542C348.252 19.0462 347.954 19.1 347.701 19.2493Z" fill="white"/>
<path d="M135.813 0H134.839V48H135.813V0Z" fill="white"/>
</svg>
