<svg width="16" height="14" viewBox="0 0 16 14" fill="none" xmlns="http://www.w3.org/2000/svg">
<path d="M6.07831 13.156C5.39799 13.156 4.69773 13.1009 3.99328 12.9904C2.75253 12.7957 1.49654 12.1464 1.14113 11.952L0.208984 11.4421L1.21819 11.1101C2.32139 10.7472 2.99247 10.5221 3.8232 10.1695C2.99139 9.76656 2.35031 9.04165 2.04172 8.10457L1.80694 7.39154L1.99947 7.42096C1.8169 7.23688 1.67275 7.05004 1.561 6.88013C1.16358 6.27626 0.953168 5.53838 0.997939 4.90605L1.04211 4.28368L1.41456 4.42802C1.25744 4.13118 1.1439 3.81418 1.07716 3.48192C0.914519 2.67164 1.05063 1.8108 1.46053 1.05803L1.78497 0.462202L2.21888 0.983581C3.59118 2.63273 5.32933 3.61101 7.39228 3.89739C7.30802 3.31634 7.37115 2.75557 7.58012 2.25293C7.82342 1.66767 8.25625 1.17138 8.83143 0.817633C9.47023 0.424858 10.2449 0.234534 11.0127 0.281725C11.8274 0.331798 12.567 0.637156 13.1544 1.16538C13.4413 1.09081 13.6527 1.0112 13.9383 0.903609C14.1102 0.838887 14.3051 0.765399 14.549 0.681345L15.4478 0.371543L14.8617 2.04615C14.9004 2.04291 14.9402 2.04015 14.9819 2.03835L15.9416 1.99488L15.3744 2.77046C15.3418 2.81489 15.3336 2.8275 15.322 2.84491C15.2763 2.91383 15.2194 2.99957 14.4408 4.03969C14.2458 4.30013 14.1485 4.63935 14.1666 4.99503C14.2356 6.34662 14.0699 7.5695 13.6737 8.62955C13.2989 9.63244 12.7182 10.4929 11.9479 11.1871C10.9946 12.0459 9.77907 12.6339 8.33487 12.9346C7.62646 13.082 6.86571 13.156 6.07831 13.156Z" fill="white"/>
</svg>
