<svg width="20" height="20" viewBox="0 0 20 20" fill="none" xmlns="http://www.w3.org/2000/svg">
<path d="M11.8582 4.39819H2.93828V5.84403H11.8582V4.39819Z" fill="#398852"/>
<path d="M16.2272 15.2691C16.9187 14.0476 16.7182 12.4913 15.7124 11.4865C15.1173 10.8915 14.3261 10.5631 13.4818 10.5631C12.6375 10.5631 11.8452 10.8915 11.2502 11.4865C10.6552 12.0816 10.3268 12.8728 10.3268 13.7182C10.3268 14.5603 10.6552 15.3526 11.2502 15.9498C11.8452 16.5426 12.6364 16.871 13.4797 16.871C14.0292 16.871 14.5613 16.7312 15.0339 16.4646L18.5693 20.0001L19.7626 18.8057L16.2272 15.2691ZM14.8095 15.0448C14.1029 15.7514 12.863 15.7514 12.1563 15.0448C11.4247 14.3121 11.4247 13.1231 12.1563 12.3905C12.5096 12.0371 12.9822 11.842 13.484 11.842C13.9858 11.842 14.4562 12.0371 14.8106 12.3905C15.165 12.7438 15.3601 13.2163 15.3601 13.7182C15.3601 14.22 15.1639 14.6904 14.8095 15.0448Z" fill="#398852"/>
<path d="M14.4497 17.6665H2.01269C1.81543 17.6665 1.65611 17.5061 1.65611 17.311V1.77532C1.65611 1.57806 1.81543 1.41874 2.01269 1.41874H14.4497C14.6469 1.41874 14.8052 1.57806 14.8052 1.77532V9.70032C15.32 9.81304 15.8001 10.0331 16.225 10.3474V1.77532C16.225 0.796618 15.4295 0 14.4497 0H2.01269C1.03398 0 0.237366 0.796618 0.237366 1.77532V17.311C0.237366 18.2886 1.03398 19.0852 2.01269 19.0852H14.4497C15.1921 19.0852 15.5433 18.9097 15.8077 18.2615L15.1639 17.6177C14.9266 17.7174 14.5516 17.6665 14.4497 17.6665Z" fill="#398852"/>
<path d="M11.8582 8.47339H2.93828V9.91922H11.8582V8.47339Z" fill="#398852"/>
</svg>
