<svg width="318" height="355" viewBox="0 0 318 355" fill="none" xmlns="http://www.w3.org/2000/svg">
<path d="M260.339 354.752C260.339 354.752 252.887 318.479 222.738 306.388C192.251 294.297 194.283 300.342 166.844 278.95C139.405 257.559 96.384 271.045 87.2377 288.251C78.4302 305.923 57.7664 315.223 29.3113 314.293C0.856285 313.828 -0.000976562 354.752 -0.000976562 354.752H260.339Z" fill="#BF4019"/>
<path d="M163.626 9.60095H160.046V9.14377L161.069 0.457182C161.069 -6.98296e-06 161.58 0 161.58 0H162.091L162.603 0.457182L163.626 9.60095Z" fill="#A5C3E8"/>
<path d="M160.046 7.31567L161.069 0.457223C161.069 -6.98359e-06 161.58 0 161.58 0C161.58 0 161.58 0.457223 162.091 0.457223V5.48678C162.091 6.85847 161.069 7.31567 160.046 7.31567Z" fill="#B2CBEC"/>
<path d="M165.676 48.0156H158.515V324.221H165.676V48.0156Z" fill="#A5C3E8"/>
<path d="M161.584 48.0156H158.515V324.221H161.584V48.0156Z" fill="#B2CBEC"/>
<path d="M174.212 279.273H150.723V354.752H174.212V279.273Z" fill="#A5C3E8"/>
<path d="M164.425 281.16H150.723V354.752H164.425V281.16Z" fill="#B2CBEC"/>
<path d="M174.371 13.718C174.371 16.919 168.744 20.1201 161.583 20.1201C161.072 20.1201 160.56 20.1201 160.049 20.1201C153.911 19.6628 148.796 16.919 148.796 14.1753C148.796 10.9742 153.911 8.23048 160.049 8.23048C160.56 8.23048 161.072 8.23048 161.583 8.23048C168.744 7.3159 174.371 10.0596 174.371 13.718Z" fill="#A5C3E8"/>
<path d="M167.717 13.7163C167.717 16.4595 164.649 18.7456 160.047 19.66C153.91 19.2028 148.796 16.4595 148.796 13.7163C148.796 10.5159 153.91 7.77271 160.047 7.77271C164.649 8.68711 167.717 10.9731 167.717 13.7163Z" fill="#B2CBEC"/>
<path d="M173.349 53.5007H150.843L143.171 19.6617H179.999L173.349 53.5007Z" fill="#B2CBEC"/>
<path d="M182.042 16.9167H141.122V20.1184H182.042V16.9167Z" fill="#A5C3E8"/>
<path d="M166.697 16.9167H141.122V20.1184H166.697V16.9167Z" fill="#B2CBEC"/>
<path d="M154.935 280.32H169.254L167.208 274.834C167.208 274.377 166.697 273.919 165.674 273.919H159.026C158.514 273.919 157.492 274.377 157.492 274.834L154.935 280.32Z" fill="#A5C3E8"/>
<path d="M145.724 21.0322H177.437L171.299 51.6708H152.885L145.724 21.0322Z" fill="#C8DBF3"/>
<path d="M149.818 14.1735C149.818 14.1735 152.375 9.60132 156.978 9.60132C156.978 9.60132 153.91 11.8874 154.421 14.1735C154.421 16.0024 149.818 14.1735 149.818 14.1735Z" fill="#C8DBF3"/>
<path d="M179.488 16.9189H143.683L146.752 13.26H176.419L179.488 16.9189Z" fill="#A5C3E8"/>
<path d="M170.792 16.9189H143.683L146.752 13.26H167.723L170.792 16.9189Z" fill="#B2CBEC"/>
<path d="M147.771 22.4033H154.933L156.979 50.7553H154.933L147.771 22.4033Z" fill="#D2E3F6"/>
<path d="M267.287 309.346C267.287 309.346 260.033 300.267 266.38 294.819C266.38 294.819 271.82 292.096 275.447 292.096C275.447 292.096 269.1 302.083 271.82 302.99C273.633 303.898 277.26 291.188 277.26 291.188C277.26 291.188 289.047 290.28 292.673 292.096C292.673 292.096 282.7 300.267 284.513 301.175C286.327 302.082 297.207 293.912 297.207 293.912C297.207 293.912 308.087 295.727 307.18 302.082C306.273 308.438 302.647 311.161 300.833 310.253C299.02 310.253 289.953 306.622 289.047 307.53C289.047 308.438 294.487 312.977 299.02 313.885C299.02 313.885 291.767 322.056 286.327 320.24C280.887 317.517 280.887 313.885 277.26 312.069C273.633 310.254 270.913 310.254 272.727 312.069C273.633 313.885 279.98 314.793 281.793 318.425C283.607 322.056 285.42 323.872 279.98 322.964C274.54 322.056 266.38 318.425 265.473 313.885C267.287 309.346 267.287 309.346 267.287 309.346Z" fill="#BF4019"/>
<path d="M303.556 302.081C303.556 302.081 273.636 301.173 267.289 309.345C267.289 309.345 265.476 313.885 261.849 317.516L260.942 319.332C260.942 319.332 266.382 313.885 268.196 313.885C267.289 313.885 264.569 303.897 303.556 302.081Z" fill="#BF4019"/>
<path d="M260.942 318.426C260.942 318.426 254.595 322.965 254.595 331.135H255.501C255.501 331.135 257.315 322.057 260.942 319.333C265.475 315.702 260.942 318.426 260.942 318.426Z" fill="#BF4019"/>
<path d="M240.996 298.45C240.996 298.45 252.786 292.093 247.345 283.013C247.345 283.013 242.81 277.565 238.276 275.749C238.276 275.749 240.997 289.369 238.276 289.369C235.555 289.369 236.462 273.933 236.462 273.933C236.462 273.933 223.766 267.576 219.232 268.484C219.232 268.484 227.394 282.105 224.673 281.197C221.953 281.197 213.791 267.576 213.791 267.576C213.791 267.576 201.095 264.852 198.374 273.025C196.561 280.289 199.281 284.829 202.002 284.829C203.816 285.737 216.512 284.829 215.605 286.645C215.605 288.461 207.443 291.185 202.002 289.369C202.002 289.369 207.443 302.082 213.791 301.174C220.139 300.266 222.859 296.634 226.487 295.726C231.021 295.726 233.742 296.634 231.928 297.542C230.114 298.45 222.86 297.542 219.232 301.174C215.605 303.898 212.884 305.714 219.232 306.622C225.58 307.53 236.462 307.53 239.183 302.082C240.996 298.45 240.996 298.45 240.996 298.45Z" fill="#E95E2A"/>
<path d="M203.816 275.747C203.816 275.747 237.363 286.641 240.99 298.443C240.99 298.443 240.99 303.89 244.616 310.245V312.969C244.616 312.969 240.99 304.798 239.176 303.891C239.176 303.891 246.43 292.996 203.816 275.747Z" fill="#BF4019"/>
<path d="M244.624 310.258C244.624 310.258 250.065 318.428 246.438 327.506H245.531C245.531 327.506 246.438 316.613 243.718 312.073C240.998 306.626 244.624 310.258 244.624 310.258Z" fill="#BF4019"/>
<path d="M260.041 289.375C260.041 289.375 244.625 280.294 251.88 268.49C251.88 268.49 257.321 261.225 263.669 259.409C263.669 259.409 260.041 277.57 263.669 277.57C267.296 277.57 266.389 257.593 266.389 257.593C266.389 257.593 282.712 249.421 289.06 250.329C289.06 250.329 279.085 267.582 281.806 267.582C285.433 267.582 296.315 249.421 296.315 249.421C296.315 249.421 313.546 246.696 316.266 256.685C318.987 266.673 314.452 272.122 311.732 272.122C309.011 273.03 292.688 272.122 293.595 274.846C293.595 276.662 304.477 280.294 310.825 278.478C310.825 278.478 304.477 294.823 295.409 293.915C286.34 293.007 283.62 287.559 278.178 287.559C272.737 287.559 269.11 288.467 271.83 290.283C274.551 292.099 283.62 291.191 288.154 294.823C292.688 298.455 296.316 301.179 288.154 302.996C279.992 304.812 265.482 303.904 262.762 297.547C260.041 289.375 260.041 289.375 260.041 289.375Z" fill="#E95E2A"/>
<path d="M309.002 259.405C309.002 259.405 264.567 273.933 260.032 289.369C260.032 289.369 260.032 296.634 255.498 304.806V307.53C255.498 307.53 260.032 296.634 262.753 295.726C262.753 295.726 252.777 282.105 309.002 259.405Z" fill="#BF4019"/>
<path d="M255.507 304.808C255.507 304.808 249.161 314.795 252.787 327.505L254.601 326.597C254.601 326.597 252.788 312.979 256.414 305.716C260.041 299.361 255.507 304.808 255.507 304.808Z" fill="#BF4019"/>
<path d="M289.962 323.879C289.962 341.132 276.359 354.752 259.129 354.752C255.501 354.752 251.874 353.844 249.153 352.936C237.364 348.396 228.296 337.5 228.296 323.879H289.962Z" fill="#AD8DCE"/>
<path d="M259.127 354.746C258.22 354.746 264.567 354.746 262.753 354.746C245.527 354.746 231.927 341.128 231.927 323.879H239.18C240.087 340.221 244.62 352.931 259.127 354.746Z" fill="#CEAFEE"/>
<path d="M290.863 323.879H227.384V324.786H290.863V323.879Z" fill="#8F94E0"/>
</svg>
