<svg width="629" height="297" viewBox="0 0 629 297" fill="none" xmlns="http://www.w3.org/2000/svg">
<g clip-path="url(#clip0)">
<path d="M521.14 209.33C501.87 191.73 500.77 163.83 504.96 139.46C505.66 135.39 505.79 131.02 508.25 127.71C510.71 124.4 515.64 122.58 519.12 124.81C521.99 126.66 522.85 130.37 524.12 133.53C525.916 137.751 528.865 141.38 532.63 144C535.08 145.71 538.23 147 541.03 145.93C544.87 144.47 545.95 139.66 546.49 135.59C547.47 128.01 548.47 120.427 549.49 112.84C550.02 108.78 550.58 104.62 552.38 100.94C554.18 97.26 557.51 94.07 561.58 93.52C565.65 92.97 570.18 95.87 570.47 99.96C570.59 101.67 570.01 103.34 569.89 105.04C569.77 106.74 570.32 108.72 571.89 109.41C573.46 110.1 575.27 109.19 576.66 108.17C581.48 104.65 585.08 99.76 588.5 94.87C591.92 89.98 595.22 85 599.68 81C604.14 77 609.97 74.24 615.92 74.72C621.87 75.2 627.65 79.66 628.36 85.58C629.07 91.5 624.89 96.9 620.57 101C614.159 107.148 606.894 112.338 599 116.41C597.57 117.14 596 117.93 595.33 119.41C594.06 122 596.33 125.05 598.89 126.31C601.82 127.74 605.19 127.89 608.35 128.7C611.51 129.51 614.8 131.39 615.61 134.55C616.72 138.94 612.61 142.81 608.75 145.19C601.014 149.959 592.518 153.365 583.63 155.26C580.45 155.94 577.13 156.46 574.4 158.26C571.67 160.06 569.7 163.47 570.78 166.54C571.86 169.61 575.53 171.05 578.78 170.9C582.03 170.75 585.11 169.45 588.29 168.74C594.23 167.4 601.49 168.79 604.45 174.12C606.45 177.62 606.01 182.12 604.28 185.69C602.55 189.26 599.67 192.22 596.67 194.87C586.16 204.13 573.39 210.99 559.67 213.68C545.95 216.37 533.6 215.91 521.19 209.41" fill="#EBEBEB"/>
<path d="M522.67 219.25C524.91 209.68 524.34 206.73 529.67 194.89C535.612 182.117 542.29 169.699 549.67 157.7L555.42 148.22C557.32 145.11 559.2 142.03 561.22 139.13C565.123 133.564 569.337 128.223 573.84 123.13C578.1 118.23 582.33 113.73 586.31 109.55C590.29 105.37 594.1 101.55 597.71 98.24C603.41 92.9351 609.526 88.0962 616 83.77C618.28 82.23 620.08 81.1 621.32 80.34L622.72 79.49C623.04 79.3 623.21 79.22 623.21 79.22C623.067 79.3356 622.916 79.4425 622.76 79.54L621.38 80.45C620.17 81.24 618.38 82.45 616.14 83.97C609.779 88.3667 603.762 93.2408 598.14 98.55C594.55 101.89 590.78 105.72 586.81 109.9C582.84 114.08 578.64 118.59 574.4 123.49C569.923 128.587 565.733 133.928 561.85 139.49C559.85 142.38 557.98 145.44 556.08 148.56L550.25 158C542.881 169.979 536.204 182.369 530.25 195.11C524.87 206.9 525.4 209.8 523.12 219.33" fill="#E0E0E0"/>
<path d="M561.43 139.09C561.339 138.498 561.296 137.899 561.3 137.3C561.24 136.14 561.22 134.47 561.21 132.41C561.21 128.28 561.36 122.59 561.56 116.3C561.76 110.01 561.82 104.3 561.72 100.21C561.67 98.15 561.61 96.48 561.55 95.33C561.496 94.7346 561.496 94.1354 561.55 93.54C561.686 94.1251 561.773 94.7205 561.81 95.32C561.94 96.46 562.06 98.13 562.16 100.19C562.38 104.32 562.39 110.03 562.16 116.32C561.93 122.61 561.77 128.19 561.63 132.42C561.63 134.42 561.55 136.03 561.52 137.3C561.549 137.898 561.518 138.498 561.43 139.09Z" fill="#E0E0E0"/>
<path d="M615.72 136.6C615.534 136.623 615.346 136.623 615.16 136.6L613.57 136.52C612.2 136.44 610.21 136.33 607.75 136.26C602.83 136.1 596.02 136.12 588.52 136.48C581.02 136.84 574.23 137.48 569.35 138.07C566.9 138.36 564.93 138.64 563.56 138.83L561.99 139.04C561.804 139.069 561.615 139.069 561.43 139.04C561.601 138.961 561.783 138.908 561.97 138.88L563.52 138.55C564.88 138.29 566.85 137.94 569.29 137.6C574.17 136.89 580.96 136.19 588.49 135.82C596.02 135.45 602.84 135.51 607.77 135.82C610.23 135.94 612.22 136.12 613.59 136.27L615.17 136.46C615.53 136.54 615.72 136.57 615.72 136.6Z" fill="#E0E0E0"/>
<path d="M530.43 194C530.316 193.781 530.229 193.549 530.17 193.31L529.53 191.31C528.99 189.56 528.26 187 527.4 183.83C525.68 177.49 523.57 168.66 521.4 158.89C519.23 149.12 517.16 140.28 515.54 133.89C514.74 130.77 514.08 128.22 513.6 126.37C513.39 125.53 513.22 124.85 513.08 124.37C513.007 124.132 512.96 123.888 512.94 123.64C513.051 123.86 513.138 124.091 513.2 124.33L513.84 126.33C514.38 128.09 515.11 130.64 515.97 133.81C517.69 140.15 519.8 148.98 521.97 158.76C524.14 168.54 526.21 177.37 527.82 183.76C528.63 186.88 529.29 189.43 529.76 191.29C529.98 192.12 530.15 192.8 530.29 193.29C530.361 193.521 530.408 193.759 530.43 194Z" fill="#E0E0E0"/>
<path d="M603.85 181.28C603.609 181.361 603.361 181.418 603.11 181.45L600.97 181.83L593.1 183.19C586.46 184.33 577.31 186.04 567.2 187.94C557.09 189.84 547.91 191.48 541.2 192.52C537.87 193.04 535.2 193.43 533.3 193.67L531.15 193.94C530.898 193.981 530.644 193.998 530.39 193.99C530.629 193.905 530.877 193.848 531.13 193.82L533.26 193.43L541.13 192.08C547.77 190.93 556.93 189.23 567.04 187.33C577.15 185.43 586.33 183.79 592.99 182.75C596.32 182.23 598.99 181.84 600.89 181.6L603.05 181.33C603.313 181.279 603.582 181.262 603.85 181.28Z" fill="#E0E0E0"/>
<path d="M2.04985 86.61C2.04985 86.61 8.04985 79.83 21.5898 94.79C35.1298 109.75 41.2498 118.87 41.2498 118.87C41.2498 118.87 44.5798 121.87 46.4298 118.81C48.2798 115.75 49.8698 108.07 54.4298 108.13C59.1798 108.19 61.9698 112.71 63.0998 120.13C64.2298 127.55 67.2898 143.84 67.5698 145.31C67.8498 146.78 69.2299 148.61 70.8198 146.73C72.4098 144.85 80.2898 129.2 87.4898 133.37C94.6898 137.54 94.4198 158.85 94.4298 161.17C94.4398 163.49 95.1299 164.31 96.2999 164.57C97.4698 164.83 99.6299 159.32 102.05 154.96C104.47 150.6 108.05 145.96 112.05 148.73C116.05 151.5 121 166.09 113.4 194L109.05 206.71L95.8598 209.52C67.2699 213.82 53.3698 207.2 51.0898 202.95C48.8098 198.7 53.8098 195.69 58.4198 193.79C63.0298 191.89 68.7498 190.38 68.6298 189.18C68.5098 187.98 67.7798 187.18 65.4698 186.93C63.1598 186.68 41.9998 184.48 38.6498 176.85C35.2998 169.22 51.7698 163.19 53.8298 161.85C55.8898 160.51 54.1898 158.9 52.8298 158.46C51.4698 158.02 35.6098 153.1 28.3298 151.12C21.0498 149.14 16.8798 145.86 17.3298 141.12C17.7898 136.56 25.6098 135.87 28.8598 134.38C32.1098 132.89 29.5098 129.24 29.5098 129.24C29.5098 129.24 21.1598 122.15 7.84984 106.94C-5.46016 91.73 2.17985 86.48 2.17985 86.48" fill="#EBEBEB"/>
<path d="M14.23 100C14.23 100 14.33 100.08 14.5 100.26L15.23 101.06L18 104.16L28.16 115.59L61.83 153.18C75.02 167.84 86.89 181.18 95.4 190.88L105.4 202.43L108.1 205.59L108.79 206.42C108.875 206.511 108.949 206.612 109.01 206.72L108.75 206.46L108.02 205.66L105.24 202.56L95.12 191.12C86.54 181.46 74.63 168.18 61.45 153.52C48.27 138.86 36.4 125.52 27.89 115.82C23.66 110.97 20.24 107.03 17.89 104.28L15.19 101.12L14.5 100.28C14.4002 100.197 14.3097 100.103 14.23 100Z" fill="#E0E0E0"/>
<path d="M52.6597 119C52.8023 120.198 52.8625 121.404 52.8397 122.61C52.9197 124.98 53.0097 127.99 53.1097 131.31C53.2097 134.63 53.3097 137.79 53.2997 140.03C53.2997 141.14 53.2997 142.03 53.2297 142.67C53.2416 143.008 53.2011 143.345 53.1097 143.67C53.0397 143.67 53.0197 142.29 52.9297 140.06C52.8397 137.83 52.7197 134.69 52.5897 131.36C52.4597 128.03 52.4397 124.88 52.4697 122.64C52.4697 121.53 52.5197 120.64 52.5597 120C52.5496 119.664 52.5832 119.328 52.6597 119Z" fill="#E0E0E0"/>
<path d="M51.9999 144.15C51.9999 144.3 45.6299 144.32 37.7899 144.21C29.9499 144.1 23.5799 143.89 23.5899 143.74C23.5999 143.59 29.9499 143.58 37.7999 143.69C45.6499 143.8 51.9999 144 51.9999 144.15Z" fill="#E0E0E0"/>
<path d="M76.4497 168.92C76.1658 169.091 75.8596 169.223 75.5397 169.31C74.9397 169.53 74.0697 169.82 72.9797 170.17C70.8097 170.85 67.7797 171.72 64.3897 172.5C60.9997 173.28 57.8997 173.85 55.6397 174.19C54.5197 174.36 53.6397 174.48 52.9697 174.54C52.64 174.6 52.3043 174.62 51.9697 174.6C53.1553 174.266 54.3611 174.009 55.5797 173.83C57.8097 173.4 60.8897 172.78 64.2697 172C67.6497 171.22 70.6797 170.41 72.8797 169.81C74.0492 169.436 75.2417 169.139 76.4497 168.92Z" fill="#E0E0E0"/>
<path d="M82.0798 146.27C81.9368 147.399 81.7095 148.515 81.3997 149.61C80.9097 151.61 80.1997 154.47 79.3997 157.61C78.5997 160.75 77.8197 163.52 77.2397 165.54C76.9903 166.644 76.6559 167.727 76.2397 168.78C76.3837 167.651 76.611 166.535 76.9197 165.44C77.4097 163.44 78.1197 160.58 78.9197 157.44C79.7197 154.3 80.4998 151.53 81.0798 149.51C81.3292 148.406 81.6636 147.323 82.0798 146.27Z" fill="#E0E0E0"/>
<path d="M106.46 165.39C106.433 165.78 106.363 166.166 106.25 166.54C106.04 167.38 105.79 168.42 105.49 169.65C104.83 172.26 103.88 175.86 102.8 179.83C101.72 183.8 100.71 187.38 99.9999 190C99.6299 191.21 99.3299 192.23 99.0799 193.06C98.9906 193.443 98.8528 193.812 98.6699 194.16C98.6968 193.77 98.7672 193.384 98.8799 193.01C99.0899 192.17 99.3399 191.13 99.6399 189.91C100.3 187.29 101.25 183.69 102.33 179.72C103.41 175.75 104.42 172.17 105.18 169.58C105.54 168.37 105.85 167.35 106.09 166.52C106.17 166.131 106.294 165.751 106.46 165.39Z" fill="#E0E0E0"/>
<path d="M98.6296 193.39C98.2485 193.571 97.8497 193.711 97.4396 193.81C96.6696 194.05 95.5396 194.37 94.1496 194.75C91.3596 195.49 87.4796 196.45 83.1496 197.32C78.8196 198.19 74.8896 198.85 72.0196 199.25C70.5896 199.45 69.4296 199.59 68.6296 199.68C68.2138 199.752 67.7909 199.776 67.3696 199.75C67.7701 199.621 68.182 199.531 68.5996 199.48L71.9696 198.89C74.8096 198.39 78.7396 197.69 83.0496 196.81C87.3596 195.93 91.2496 195.04 94.0496 194.39L97.3796 193.62C97.7876 193.502 98.2063 193.425 98.6296 193.39Z" fill="#E0E0E0"/>
<path d="M351.1 52.13L284.54 58.06L280.29 15.93L346.85 10L351.1 52.13Z" fill="white"/>
<path d="M351.1 52.13C351.1 52.13 351.1 51.86 351 51.35C350.9 50.84 350.85 50.08 350.74 49.12C350.53 47.12 350.22 44.28 349.82 40.63C349.05 33.3 347.94 22.8 346.6 10.02L346.87 10.23L280.32 16.23C280.25 16.29 280.84 15.63 280.6 15.92V16.07V16.25V16.6L280.67 17.3L280.81 18.7C280.9 19.63 281 20.56 281.09 21.49L281.65 27.01C282.01 30.66 282.37 34.26 282.73 37.78C283.43 44.84 284.11 51.62 284.73 58.04L284.42 57.8L332.34 53.66L346.06 52.51L349.73 52.21L350.68 52.15H351.01C350.91 52.1633 350.809 52.1633 350.71 52.15L349.8 52.25L346.2 52.6L332.55 53.89L284.48 58.31H284.2V58.05C283.54 51.63 282.85 44.85 282.13 37.8C281.78 34.27 281.41 30.68 281.04 27.03C280.86 25.1967 280.673 23.3567 280.48 21.51C280.39 20.58 280.29 19.65 280.2 18.72L280.06 17.32L279.99 16.61V16.26V16.09V16L280.27 15.68L346.83 9.79999H347.08V10.03C348.33 22.89 349.35 33.44 350.08 40.81C350.42 44.45 350.69 47.29 350.87 49.26C350.95 50.2 351.02 50.93 351.06 51.46C351.1 51.99 351.1 52.13 351.1 52.13Z" fill="#455A64"/>
<path d="M346.85 10C346.689 10.2171 346.515 10.4242 346.33 10.62L344.76 12.34L338.89 18.6L319.2 39.28L319.03 39.46L318.8 39.33L317 38.27L291 22.57L283.14 17.76L281 16.43C280.747 16.287 280.509 16.1196 280.29 15.93C280.562 16.0376 280.823 16.1716 281.07 16.33L283.25 17.57L291.25 22.22L317.41 37.78L319.18 38.84H318.78L338.61 18.28L344.61 12.14L346.26 10.49C346.436 10.3035 346.634 10.1389 346.85 10Z" fill="#455A64"/>
<path d="M581.73 55.51C581.73 55.51 581.92 55.51 582.3 55.51H583C583.27 55.51 583.59 55.59 584 55.64C586.133 55.9811 588.144 56.8624 589.84 58.2C591.193 59.2732 592.32 60.603 593.158 62.1132C593.995 63.6233 594.526 65.2841 594.72 67C594.806 68.0343 594.836 69.0725 594.81 70.11C594.81 71.18 594.81 72.28 594.81 73.42C594.81 75.69 594.81 78.09 594.81 80.62C594.81 83.15 594.81 85.8 594.81 88.62C594.81 90.01 594.81 91.42 594.81 92.87C594.875 94.3568 594.727 95.8453 594.37 97.29C593.764 99.633 592.52 101.762 590.775 103.439C589.031 105.116 586.855 106.276 584.49 106.79C582.84 107.078 581.163 107.185 579.49 107.11H534.85L535.04 107.03L525 117.07L524.56 117.51V106.81L524.82 107.07C523.715 107.1 522.61 107.06 521.51 106.95C520.409 106.807 519.33 106.525 518.3 106.11C516.27 105.298 514.475 103.992 513.078 102.31C511.681 100.628 510.726 98.6243 510.3 96.48C510.11 95.4344 510.023 94.3726 510.04 93.31V90.2C510.04 86.0667 510.04 82.02 510.04 78.06V72.17C509.98 70.2448 510.04 68.3177 510.22 66.4C510.512 64.5152 511.212 62.7168 512.27 61.13C513.293 59.6102 514.621 58.3208 516.171 57.3444C517.721 56.368 519.458 55.7261 521.27 55.46C522.978 55.2932 524.695 55.2398 526.41 55.3H545.05L571.97 55.38L579.27 55.43H581.17C581.59 55.43 581.81 55.43 581.81 55.43H581.17H579.27H571.97L545 55.69H526.36C524.665 55.6369 522.968 55.6937 521.28 55.86C519.565 56.1287 517.922 56.7409 516.45 57.66C514.939 58.618 513.642 59.8776 512.64 61.36C511.616 62.8934 510.933 64.6294 510.64 66.45C510.467 68.3414 510.41 70.2417 510.47 72.14C510.47 74.08 510.47 76.04 510.47 78.03V90.2C510.386 92.2637 510.473 94.3307 510.73 96.38C511.157 98.4403 512.072 100.368 513.4 102C514.762 103.62 516.499 104.884 518.46 105.68C519.447 106.081 520.483 106.35 521.54 106.48C522.62 106.591 523.705 106.631 524.79 106.6H525.05V116.93L524.6 116.75L534.68 106.68L534.76 106.6H534.86H579.5C581.172 106.684 582.849 106.587 584.5 106.31C586.776 105.802 588.868 104.675 590.545 103.053C592.221 101.432 593.417 99.3783 594 97.12C594.365 95.7106 594.513 94.254 594.44 92.8C594.44 91.35 594.44 89.94 594.44 88.55C594.44 85.78 594.44 83.13 594.44 80.55C594.44 77.97 594.44 75.62 594.44 73.35C594.44 72.21 594.44 71.11 594.44 70.04C594.44 68.97 594.44 67.94 594.36 66.96C594.05 64.2042 592.86 61.6217 590.967 59.5953C589.074 57.5688 586.578 56.2064 583.85 55.71C583.49 55.71 583.17 55.59 582.85 55.56H582.15C581.92 55.54 581.73 55.51 581.73 55.51Z" fill="#263238"/>
<path d="M542.07 82.88C542.07 82.88 542.02 82.62 541.88 82.2C541.692 81.612 541.321 81.1001 540.82 80.74C540.459 80.4823 540.041 80.3166 539.602 80.2574C539.163 80.1981 538.716 80.2471 538.3 80.4C537.943 80.5329 537.62 80.7408 537.351 81.0097C537.082 81.2787 536.875 81.6022 536.742 81.9585C536.61 82.3148 536.555 82.6955 536.583 83.0747C536.61 83.4539 536.719 83.8227 536.902 84.1561C537.084 84.4895 537.337 84.7797 537.641 85.007C537.946 85.2343 538.296 85.3934 538.668 85.4735C539.039 85.5535 539.424 85.5527 539.795 85.471C540.166 85.3893 540.516 85.2286 540.82 85C541.323 84.6384 541.696 84.1223 541.88 83.53C541.932 83.3036 541.995 83.08 542.07 82.86C542.07 82.86 542.16 83.12 542.07 83.58C541.95 84.2506 541.595 84.8567 541.07 85.29C540.668 85.6155 540.189 85.8317 539.679 85.9175C539.169 86.0034 538.646 85.956 538.16 85.78C537.554 85.5673 537.029 85.1716 536.657 84.6476C536.286 84.1236 536.086 83.4972 536.086 82.855C536.086 82.2128 536.286 81.5864 536.657 81.0624C537.029 80.5384 537.554 80.1427 538.16 79.93C538.647 79.7553 539.17 79.7096 539.68 79.7972C540.19 79.8848 540.669 80.1028 541.07 80.43C541.595 80.8596 541.949 81.4624 542.07 82.13C542.16 82.62 542.1 82.88 542.07 82.88Z" fill="#263238"/>
<path d="M555.33 82.75C555.28 82.75 555.27 82.49 555.14 82.07C554.952 81.482 554.581 80.9701 554.08 80.61C553.719 80.3516 553.301 80.1862 552.861 80.1286C552.421 80.071 551.974 80.123 551.56 80.28C551.053 80.4651 550.616 80.8014 550.307 81.2431C549.999 81.6849 549.833 82.211 549.833 82.75C549.833 83.289 549.999 83.815 550.307 84.2568C550.616 84.6986 551.053 85.0348 551.56 85.22C551.974 85.3769 552.421 85.4289 552.861 85.3714C553.301 85.3138 553.719 85.1484 554.08 84.89C554.581 84.5299 554.952 84.018 555.14 83.43C555.27 83 555.28 82.75 555.33 82.75C555.38 82.75 555.42 83.01 555.33 83.47C555.21 84.1406 554.855 84.7467 554.33 85.18C553.925 85.5029 553.444 85.7174 552.933 85.8031C552.422 85.8888 551.898 85.843 551.41 85.67C550.804 85.4573 550.279 85.0616 549.907 84.5376C549.536 84.0136 549.336 83.3872 549.336 82.745C549.336 82.1028 549.536 81.4764 549.907 80.9524C550.279 80.4284 550.804 80.0327 551.41 79.82C551.899 79.6493 552.423 79.6056 552.934 79.6931C553.445 79.7805 553.925 79.9962 554.33 80.32C554.855 80.7496 555.209 81.3524 555.33 82.02C555.42 82.49 555.36 82.75 555.33 82.75Z" fill="#263238"/>
<path d="M568.59 82.75C568.54 82.75 568.53 82.49 568.4 82.07C568.212 81.482 567.841 80.9701 567.34 80.61C566.979 80.3524 566.56 80.1875 566.121 80.13C565.681 80.0724 565.235 80.1239 564.82 80.28C564.313 80.4651 563.876 80.8014 563.567 81.2432C563.259 81.685 563.093 82.211 563.093 82.75C563.093 83.289 563.259 83.8151 563.567 84.2569C563.876 84.6986 564.313 85.0349 564.82 85.22C565.235 85.3761 565.681 85.4276 566.121 85.3701C566.56 85.3125 566.979 85.1476 567.34 84.89C567.841 84.5299 568.212 84.018 568.4 83.43C568.53 83 568.54 82.75 568.59 82.75C568.652 82.986 568.652 83.2341 568.59 83.47C568.472 84.1412 568.117 84.7479 567.59 85.18C567.188 85.5055 566.709 85.7217 566.199 85.8075C565.689 85.8934 565.166 85.846 564.68 85.67C564.074 85.4573 563.549 85.0616 563.177 84.5376C562.806 84.0136 562.606 83.3872 562.606 82.745C562.606 82.1028 562.806 81.4764 563.177 80.9524C563.549 80.4284 564.074 80.0327 564.68 79.82C565.167 79.6454 565.69 79.5996 566.2 79.6872C566.71 79.7748 567.189 79.9928 567.59 80.32C568.116 80.7484 568.471 81.3518 568.59 82.02C568.652 82.2593 568.652 82.5107 568.59 82.75Z" fill="#263238"/>
<path d="M151.69 63.16C151.69 63.16 151.69 63.25 151.77 63.43L151.98 64.22C152.16 64.92 152.42 65.95 152.77 67.29C153.45 70.01 154.45 73.98 155.77 79.09V79.25H155.59L137.86 74.37H137.73V74.25L137.96 74.39C131.215 77.7678 123.783 79.5471 116.24 79.59C114.088 79.6127 111.938 79.5025 109.8 79.26C107.578 78.9824 105.374 78.5751 103.2 78.04C100.955 77.4902 98.7472 76.7988 96.5898 75.97L93.3698 74.54C92.8288 74.3095 92.3042 74.0422 91.7998 73.74L90.2398 72.87C86.0601 70.4679 82.2784 67.4318 79.0298 63.87C75.7555 60.2995 73.1718 56.1527 71.4098 51.64C69.5975 47.048 68.7662 42.1276 68.9694 37.1951C69.1727 32.2627 70.4059 27.4273 72.5898 23C76.7198 14.67 84.1998 8.08 92.8598 4.17C101.537 0.418002 111.09 -0.832431 120.44 0.559998C128.884 1.72159 136.89 5.03042 143.69 10.17C149.278 14.3882 153.722 19.9364 156.62 26.31C158.853 31.3068 159.907 36.7506 159.7 42.22C159.592 46.3037 158.728 50.332 157.15 54.1C156.15 56.5312 154.886 58.8451 153.38 61C152.85 61.74 152.44 62.3 152.15 62.64L151.69 63.2L152.1 62.64C152.38 62.26 152.79 61.7 153.3 60.96C154.772 58.7929 156.012 56.4768 157 54.05C158.536 50.2868 159.37 46.2738 159.46 42.21C159.634 36.7704 158.564 31.3628 156.33 26.4C153.438 20.0791 149.014 14.5797 143.46 10.4C136.722 5.33697 128.807 2.07122 120.46 0.909998C111.199 -0.456219 101.74 0.790596 93.1498 4.51C84.5098 8.41 77.1098 14.93 72.9998 23.2C70.8498 27.576 69.6378 32.3529 69.4415 37.2246C69.2452 42.0963 70.0689 46.9552 71.8598 51.49C73.6071 55.9582 76.167 60.0641 79.4098 63.6C82.6323 67.112 86.3761 70.107 90.5098 72.48C91.0198 72.77 91.5098 73.06 92.0498 73.34C92.5508 73.6422 93.072 73.9095 93.6098 74.14L96.7898 75.57C98.9272 76.3921 101.115 77.0769 103.34 77.62C105.494 78.155 107.678 78.5623 109.88 78.84C112 79.0892 114.135 79.2062 116.27 79.19C123.758 79.1632 131.139 77.4112 137.84 74.07L138.1 73.94V74.21L137.99 74.06L155.7 79.06L155.56 79.17L152.69 67.36C152.37 66.02 152.13 64.98 151.96 64.28C151.88 63.93 151.82 63.67 151.78 63.48C151.74 63.29 151.73 63.21 151.73 63.21L151.69 63.16Z" fill="#263238"/>
<path d="M441.47 56.05C436.58 57.19 433.47 62.14 432.4 67.05C431.33 71.96 431.87 77.05 431.4 82.05C430.93 87.05 429.18 92.36 424.98 95.05L429.16 96.26C428.334 98.885 426.586 101.123 424.24 102.56C425.877 103.827 427.89 104.513 429.96 104.51C427.5 105.16 426.82 108.68 428.18 110.83C429.54 112.98 432.13 114 434.6 114.63C437.488 115.517 440.563 115.611 443.5 114.9C447.55 113.69 450.58 110.13 452.13 106.2C453.68 102.27 453.97 97.95 454.13 93.72C454.43 83.13 453.81 72.43 451.13 62.18C450.47 59.7 449.57 57.07 447.46 55.61C445.35 54.15 441.75 54.74 441.12 57.23" fill="#E5531C"/>
<path d="M552 208.91C550.84 204.49 544.07 179.6 538 163.33C531.29 145.28 517.46 141.56 517.46 141.56C486.31 130.93 458.31 130.87 428.46 141.23C427.51 141.52 426.58 141.84 425.69 142.23H425.59C403.42 150.94 401.13 174.35 401.13 174.35L391.82 231.18C391.715 231.628 391.638 232.082 391.59 232.54L391.5 233.08C391.343 235.735 391.985 238.376 393.343 240.663C394.701 242.95 396.713 244.778 399.12 245.91C412.12 251.91 424.56 250.48 435.24 246.07L427.48 257.38H519.87L513.69 242.44L515.75 233.44L530.06 250.66C531.77 252.721 534.064 254.216 536.64 254.95C553.14 256.87 555.81 232.3 552.71 217.95" fill="#FD9F88"/>
<path d="M493.47 135.36C493.47 135.36 478.57 210.36 473.31 209.78C468.05 209.2 443.43 136.78 443.43 136.78C443.43 136.78 474.91 128.38 493.47 135.36Z" fill="#FFBE9D"/>
<path d="M451.19 140.9C451.11 132.26 450.87 123.18 450.87 123.18C450.87 123.18 439.74 121.4 437.35 106.9C435.07 93.08 437.15 61.11 437.15 61.11C445.022 57.8939 453.69 57.1617 461.991 59.0117C470.291 60.8616 477.828 65.2052 483.59 71.46L483.08 141.58C483 149.72 476 156.15 467.26 156C458.46 155.89 451.27 149.12 451.19 140.9Z" fill="#FFBE9D"/>
<path d="M450.87 123.18C457.702 123.242 464.418 121.407 470.27 117.88C470.27 117.88 465.62 127.88 451.09 126.6L450.87 123.18Z" fill="#EB996E"/>
<path d="M475.78 59.77C470.6 67.44 456.69 75.47 446.66 77.45C447.8 75.89 453.92 71.97 455.06 70.45C450.56 73.94 444.12 78.61 438.06 79.02C437.353 79.1298 436.63 79.0289 435.98 78.73C435.63 78.4678 435.348 78.1261 435.157 77.733C434.965 77.34 434.871 76.907 434.88 76.47C434.46 72.0932 434.52 67.6836 435.06 63.32C435.484 59.6334 437.297 56.247 440.13 53.85C443.96 50.79 449.49 49.95 454.72 49.73C459.1 49.55 463.63 49.73 467.66 51.24C471.69 52.75 475.18 55.82 475.83 59.57" fill="#E5531C"/>
<path d="M492.93 94.86C493.547 91.6482 493.971 88.4024 494.2 85.14C494.5 77.65 496.74 50.6 470.97 53.28L472.43 60.55C472.43 60.55 467.63 77.39 478.69 88.75C478.69 88.75 475.54 112.47 483.24 120.14C483.24 120.14 491.5 102.95 492.93 94.86Z" fill="#E5531C"/>
<path d="M478.36 87.5C479.912 87.1578 481.528 87.2513 483.03 87.77C483.778 88.0308 484.468 88.4372 485.058 88.9658C485.648 89.4945 486.128 90.1349 486.47 90.85C487.083 92.3314 487.108 93.9908 486.54 95.49C485.966 96.971 485.072 98.3064 483.92 99.4C483.15 100.244 482.19 100.892 481.12 101.29C480.582 101.484 480.005 101.541 479.439 101.458C478.874 101.374 478.338 101.151 477.88 100.81" fill="#FFBE9D"/>
<path d="M479.28 96.9C479.1 96.96 479.78 97.9 481.2 97.5C481.574 97.3765 481.92 97.1805 482.219 96.9231C482.517 96.6658 482.762 96.3521 482.94 96C483.357 95.1972 483.615 94.321 483.7 93.42C483.805 92.4581 483.564 91.4902 483.02 90.69C482.797 90.3546 482.501 90.0735 482.155 89.8675C481.809 89.6616 481.421 89.536 481.02 89.5C479.56 89.5 479.11 90.5 479.28 90.5C479.45 90.5 479.96 90.09 480.92 90.32C481.506 90.5409 481.994 90.9657 482.293 91.5165C482.592 92.0674 482.684 92.7075 482.55 93.32C482.39 94.92 481.78 96.38 480.94 96.75C480.1 97.12 479.37 96.77 479.28 96.9Z" fill="#EB996E"/>
<path d="M427.52 210.74C427.38 210.74 427.26 204.85 427.26 197.59C427.26 190.33 427.38 184.43 427.52 184.43C427.66 184.43 427.78 190.32 427.78 197.59C427.78 204.86 427.67 210.74 427.52 210.74Z" fill="#263238"/>
<path d="M465.07 183.89C465.07 183.89 452.07 184.03 451.28 186.89C449.92 191.66 452.35 217.78 452.35 217.78L464.3 221.78C464.3 221.78 470.06 220.45 467.4 209.37C465.662 202.399 463.005 195.691 459.5 189.42C459.5 189.42 475.38 189.86 474.94 186.32C474.5 182.78 465.07 183.89 465.07 183.89Z" fill="#FFBE9D"/>
<path d="M459.91 191.59C460.62 191.46 476.5 190.14 475.5 192.68C474.5 195.22 459.91 195.85 459.91 195.85V191.59Z" fill="#FFBE9D"/>
<path d="M510.9 153.17L508.94 202.74L501.7 221.76L457.22 222.68L455.42 161.29L510.9 153.17Z" fill="#233862"/>
<path d="M450.25 201.35C450.084 201.471 449.902 201.569 449.71 201.64L448.11 202.35L442.18 204.89L422.56 213.07L411.73 217.52C408.752 218.632 405.864 219.969 403.09 221.52C401.228 222.568 399.585 223.963 398.25 225.63C397.34 226.83 397 227.63 396.95 227.63C397.007 227.434 397.088 227.246 397.19 227.07C397.441 226.536 397.743 226.027 398.09 225.55C399.383 223.801 401.02 222.335 402.9 221.24C405.667 219.64 408.56 218.269 411.55 217.14L422.36 212.65L442.04 204.65L448.04 202.26L449.68 201.64C449.861 201.528 450.052 201.431 450.25 201.35Z" fill="#263238"/>
<path d="M465 220.78C464.701 221.204 464.367 221.602 464 221.97C463.34 222.71 462.37 223.76 461.12 225.02C458.64 227.54 455.03 230.85 450.9 234.31C446.77 237.77 442.9 240.75 440.01 242.83C438.58 243.83 437.41 244.69 436.59 245.25C436.181 245.558 435.746 245.829 435.29 246.06C435.658 245.698 436.053 245.364 436.47 245.06L439.79 242.52C442.59 240.36 446.43 237.35 450.56 233.9C454.69 230.45 458.32 227.18 460.86 224.73C462.14 223.52 463.15 222.51 463.86 221.81C464.204 221.428 464.586 221.083 465 220.78Z" fill="#263238"/>
<path d="M532 252.5C531.89 252.59 525.37 245.11 517.43 235.8C509.49 226.49 503.14 218.8 503.25 218.8C503.36 218.8 509.88 226.18 517.83 235.5C525.78 244.82 532.06 252.4 532 252.5Z" fill="#263238"/>
<path d="M544.53 216.48C544.031 216.359 543.545 216.188 543.08 215.97C542.16 215.61 540.85 215.05 539.24 214.33C536.01 212.88 531.64 210.72 526.97 208.03C522.986 205.73 519.121 203.23 515.39 200.54C513.96 199.54 512.82 198.64 512.05 198.03C511.63 197.733 511.239 197.398 510.88 197.03C511.333 197.269 511.765 197.546 512.17 197.86L515.6 200.24C518.5 202.24 522.6 204.89 527.23 207.58C531.86 210.27 536.23 212.47 539.39 213.99L543.16 215.78C543.634 215.977 544.092 216.211 544.53 216.48Z" fill="#263238"/>
<path d="M521.51 205.61C521.36 205.61 520.58 200.33 519.76 193.79C518.94 187.25 518.39 181.93 518.53 181.91C518.67 181.89 519.46 187.18 520.28 193.73C521.1 200.28 521.65 205.59 521.51 205.61Z" fill="#263238"/>
<path d="M483.88 96.8C483.77 97.0263 483.632 97.238 483.47 97.43L482.2 99.14L477.59 105.14V104.82L485.1 110.72L485.78 111.26H485.41L491.91 103.12V103.42L487.02 99.42L485.68 98.28C485.38 98.01 485.22 97.86 485.24 97.85C485.429 97.9325 485.604 98.0438 485.76 98.18L487.17 99.18L492.17 103.03L492.34 103.16L492.21 103.33L485.78 111.53L485.62 111.73L485.41 111.57L484.73 111.03L477.26 105.08L477.08 104.94L477.23 104.76L482 99L483.37 97.38C483.517 97.1681 483.688 96.9735 483.88 96.8Z" fill="#263238"/>
<path d="M503 218C495.799 217.68 488.625 216.911 481.52 215.7C473.11 214.36 473.2 213.6 473.52 212.63C474.32 210.05 488.4 214.43 485.87 211.73C483.34 209.03 468.09 208.38 469.04 205.73C470.28 202.26 484.94 207.13 486.21 207.45C487.48 207.77 487.93 205.93 486.77 205.7C485.11 205.38 467.68 201.52 468.87 198.1C469.52 196.2 472.81 197.79 472.81 197.79C472.81 197.79 488.88 202.61 489.38 200.98C489.88 199.35 480.55 196.17 477.33 195.33C474.11 194.49 473.2 192.64 474.7 191.53C475.7 190.77 485.65 193.1 488.81 194C491.97 194.9 500.63 197.54 497.33 192.75L497.19 192.53C493.81 187.9 492.74 183.22 493.35 181.65C493.96 180.08 496.1 180.23 496.91 181.65C497.073 181.88 497.185 182.143 497.24 182.42C497.24 182.54 497.33 182.7 497.36 182.84C498.16 184.63 499.138 186.336 500.28 187.93C501.268 189.383 502.499 190.655 503.92 191.69C505.57 192.89 509.71 197.27 510.92 198.05" fill="#FFBE9D"/>
<path d="M205.36 159.06C200.856 158.977 196.557 157.167 193.351 154.002C190.146 150.838 188.28 146.562 188.14 142.06C187.9 134.27 187.73 126.77 187.73 126.77C187.73 126.77 173.42 125.44 172.37 111.28C171.32 97.12 171.77 64.42 171.77 64.42C179.612 60.461 188.369 58.6675 197.136 59.2248C205.903 59.782 214.362 62.6699 221.64 67.59L223.84 69.08L223.23 141.68C223.208 143.998 222.727 146.288 221.815 148.418C220.903 150.549 219.578 152.478 217.917 154.094C216.255 155.71 214.29 156.981 212.135 157.833C209.98 158.685 207.677 159.102 205.36 159.06Z" fill="#B78876"/>
<path d="M187.69 126.54C194.24 126.26 200.559 124.036 205.84 120.15C205.84 120.15 202.1 130.62 187.84 130.22L187.69 126.54Z" fill="#A36957"/>
<path d="M223.05 86.57C223.049 86.0248 223.254 85.4995 223.626 85.1004C223.997 84.7012 224.506 84.458 225.05 84.42C227.69 84.35 232.05 85.42 232.42 92.7C233 103.12 222.98 100.52 222.94 100.22C222.9 99.92 223 90.62 223.05 86.57Z" fill="#B78876"/>
<path d="M225.29 96.13C225.29 96.13 225.48 96.24 225.79 96.37C226.233 96.5278 226.719 96.5099 227.15 96.32C228.23 95.85 229.06 94.05 229 92.17C228.981 91.275 228.759 90.396 228.35 89.6C228.233 89.2806 228.041 88.994 227.791 88.7643C227.54 88.5345 227.238 88.3684 226.91 88.28C226.705 88.25 226.495 88.2887 226.314 88.39C226.134 88.4912 225.991 88.6495 225.91 88.84C225.79 89.14 225.91 89.34 225.81 89.36C225.71 89.38 225.58 89.2 225.64 88.77C225.684 88.5084 225.814 88.2691 226.01 88.09C226.147 87.973 226.306 87.8845 226.477 87.8296C226.649 87.7747 226.83 87.7544 227.01 87.77C227.445 87.8282 227.858 87.9978 228.208 88.2624C228.558 88.5269 228.834 88.8774 229.01 89.28C229.504 90.1577 229.775 91.1431 229.8 92.15C229.85 94.26 228.89 96.28 227.4 96.8C227.126 96.897 226.833 96.9313 226.544 96.9001C226.255 96.8689 225.977 96.7732 225.73 96.62C225.32 96.38 225.25 96.15 225.29 96.13Z" fill="#A36957"/>
<path d="M207.57 59.51C206.637 61.718 206.363 64.149 206.782 66.5092C207.201 68.8694 208.294 71.0578 209.93 72.81C211.32 74.26 213.08 75.36 214.29 76.96C216.79 80.29 216.39 84.87 216.78 89.02C216.96 90.94 217.41 93.02 218.78 94.29C220.15 95.56 222.84 95.69 223.78 94.03C224.05 93.5082 224.226 92.9429 224.3 92.36C225.173 87.7467 226.04 83.13 226.9 78.51C227.56 75.04 228.21 71.51 227.61 68.02C227.258 65.9849 226.484 64.0458 225.339 62.3271C224.194 60.6084 222.702 59.1482 220.959 58.0399C219.216 56.9317 217.261 56.2 215.218 55.8917C213.176 55.5835 211.092 55.7055 209.1 56.25" fill="#263238"/>
<path d="M209.74 56.58C204.93 55.66 202.23 54.13 198.83 52.58C195.474 50.9185 191.641 50.4868 188 51.36C185.58 52.05 183.28 53.5 180.79 53.48C178.3 53.46 176.09 51.98 173.73 51.23C172.114 50.7336 170.415 50.5664 168.733 50.7381C167.052 50.9099 165.422 51.4172 163.94 52.23C161.61 53.51 159.52 55.8 159.33 58.6C159.14 61.4 161.63 64.29 164.13 63.5C161.51 64.41 160.45 68.26 161.76 70.83C162.439 72.0402 163.477 73.0096 164.731 73.6044C165.985 74.1991 167.393 74.3897 168.76 74.15C171.525 73.5391 174.008 72.0265 175.82 69.85C175.89 72.96 179.01 75.16 181.91 75.06C184.81 74.96 187.43 73.23 189.82 71.45C192.21 69.67 194.63 67.71 197.47 67.07C199.47 66.63 201.47 66.87 203.47 66.63C205.47 66.39 207.62 65.52 208.59 63.63C209.56 61.74 213.41 59.52 211.39 59.46" fill="#263238"/>
<path d="M181.27 71.93C181.615 72.1408 181.972 72.3311 182.34 72.5C183.382 72.8462 184.508 72.8462 185.55 72.5C186.275 72.2931 186.969 71.9868 187.61 71.59C188.31 71.17 189.02 70.59 189.78 70.09C190.568 69.4815 191.408 68.9428 192.29 68.48C193.264 67.9855 194.338 67.7188 195.43 67.7C197.66 67.7 199.67 68.26 201.5 68.09C202.3 68.0405 203.079 67.8171 203.784 67.4354C204.489 67.0537 205.102 66.5229 205.58 65.88C206.25 65.0096 206.669 63.9719 206.79 62.88C206.87 62.1 206.79 61.67 206.84 61.66C206.89 61.65 206.84 61.76 206.93 61.97C206.987 62.2731 207.007 62.582 206.99 62.89C206.945 64.0446 206.555 65.1593 205.87 66.09C205.379 66.8006 204.736 67.3922 203.986 67.8213C203.237 68.2505 202.401 68.5063 201.54 68.57C199.6 68.76 197.54 68.17 195.45 68.22C193.36 68.27 191.57 69.4 190.06 70.48C189.3 71.02 188.57 71.54 187.83 71.97C187.143 72.3633 186.406 72.6626 185.64 72.86C184.528 73.1913 183.336 73.1348 182.26 72.7C181.978 72.5657 181.716 72.3942 181.48 72.19C181.33 72 181.26 71.94 181.27 71.93Z" fill="#263238"/>
<path d="M208.29 51.64C208.288 52.7531 208.385 53.8642 208.58 54.96C208.924 56.0189 209.359 57.046 209.88 58.03C208.917 57.3229 208.268 56.2682 208.07 55.09C207.697 53.9545 207.776 52.719 208.29 51.64Z" fill="#263238"/>
<path d="M213.62 51.42C213.72 51.54 212.43 52.76 211.47 54.67C210.51 56.58 210.24 58.33 210.09 58.31C209.994 56.9531 210.315 55.5993 211.01 54.43C211.55 53.1825 212.461 52.1315 213.62 51.42Z" fill="#263238"/>
<path d="M280.48 199.7L302.25 255.71H268.93L253.4 215.84L280.48 199.7Z" fill="#B78876"/>
<path d="M162.48 154.22C162.48 154.22 133.8 183.77 121.37 183.77C117.31 183.77 114.13 134.55 114.08 120.37C114.735 118.531 115.68 116.809 116.88 115.27C117.923 113.803 119.131 112.461 120.48 111.27C122.183 109.81 124.077 108.589 126.11 107.64C128.05 106.95 128.21 104.3 126.45 103.77C124.69 103.24 119.29 104.99 114.45 109.57C109.61 114.15 111.07 103.91 111.53 100.17C111.99 96.43 112.87 84.81 111.83 83.79C110.3 82.3 108.37 83.69 108 87.43C107.63 91.17 105.72 102.33 103.75 102.04C101.78 101.75 104.41 82.76 104.41 82.76C104.41 82.76 105.63 78.76 103.41 78.37C99.3098 77.65 97.9998 98 97.9998 100C97.9998 101.34 95.7998 101.11 95.9298 99.66C96.0598 98.21 98.9298 80.76 94.8298 79.97C91.6198 79.33 93.5898 96.68 90.9998 100C88.4098 103.32 90.8498 86.66 87.7798 86.21C86.6498 86.04 85.7798 86.07 85.7798 95.81C85.7798 101.05 87.7798 108.96 86.9998 119.04C88.3298 148.8 86.8598 232.38 120 222.47C156.42 211.57 181.29 187.72 181.29 187.72L162.48 154.22Z" fill="#B78876"/>
<path d="M242.86 180.71C243.009 181.087 243.116 181.479 243.18 181.88C243.36 182.65 243.59 183.76 243.85 185.13C244.37 187.89 244.97 191.72 245.44 195.97C245.91 200.22 246.16 204.09 246.25 206.9C246.3 208.3 246.32 209.43 246.31 210.22C246.341 210.624 246.321 211.031 246.25 211.43C246.164 211.032 246.117 210.627 246.11 210.22C246.05 209.33 245.97 208.22 245.88 206.92C245.69 204.12 245.39 200.27 244.88 196.03C244.37 191.79 243.88 187.96 243.45 185.2C243.25 183.9 243.08 182.8 242.94 181.92C242.866 181.521 242.839 181.115 242.86 180.71Z" fill="#263238"/>
<path d="M157.62 255.71L249.34 256.18L246.25 236.81C247.059 227.622 247.015 218.38 246.12 209.2L250.76 221.79L288.67 202.84C288.67 202.84 274.89 166.09 263.36 153.64C248.78 137.92 222.56 139.48 222.56 139.48L204.83 151.48L188.52 140C179.771 141.026 171.254 143.503 163.32 147.33L162.48 147.58V147.75C152.86 152.75 139.14 165.03 126.06 176.91L141.15 191.61L157.87 207.17C158.813 207.035 159.768 206.994 160.72 207.05C161 208.73 157.62 255.71 157.62 255.71Z" fill="#B4ADBB"/>
<path opacity="0.2" d="M243.3 174.84L255.77 219.29L250.77 221.79L246.13 209.2C246.13 209.2 241.6 182.85 243.3 174.84Z" fill="black"/>
<path d="M187.51 139.82V135C187.51 135 201.83 133.89 204.73 150.81C204.73 150.81 209.4 135 223.3 133.42L225.3 140.81C225.3 140.81 218.72 161.39 217.76 161.57C216.8 161.75 204.76 165.26 204.76 165.26L197.76 163.68L190 154.87L187.51 139.82Z" fill="#B4ADBB"/>
<path d="M225.61 140.26C225.378 140.568 225.113 140.85 224.82 141.1C224.29 141.62 223.53 142.37 222.63 143.33C220.291 145.838 218.211 148.575 216.42 151.5C215.98 152.21 215.58 152.93 215.2 153.62L215 154L214.78 153.59L210.67 146C210.441 145.591 210.132 145.234 209.76 144.95C209.46 144.754 209.116 144.634 208.76 144.6C208.462 144.591 208.165 144.645 207.89 144.76C207.89 144.76 208.12 144.44 208.77 144.42C209.157 144.423 209.537 144.53 209.87 144.73C210.319 145.001 210.704 145.366 211 145.8C212.13 147.69 213.57 150.35 215.24 153.37H214.79C215.17 152.67 215.58 151.95 216.02 151.22C217.824 148.263 219.969 145.528 222.41 143.07C223.35 142.13 224.15 141.42 224.72 140.95C224.985 140.683 225.284 140.451 225.61 140.26Z" fill="#263238"/>
<path d="M186.58 141.11C186.839 141.32 187.071 141.562 187.27 141.83C187.68 142.32 188.27 143.03 188.98 143.92C190.4 145.69 192.34 148.17 194.46 150.92L194.8 151.36H194.37C195.13 149.95 195.19 148.36 195.55 146.9C195.764 145.574 196.48 144.382 197.55 143.57C197.923 143.319 198.349 143.158 198.796 143.101C199.242 143.044 199.695 143.091 200.12 143.24C200.347 143.327 200.555 143.46 200.73 143.63C200.84 143.75 200.89 143.82 200.87 143.83C200.615 143.664 200.344 143.527 200.06 143.42C199.663 143.323 199.251 143.314 198.85 143.391C198.45 143.469 198.071 143.632 197.74 143.87C196.793 144.663 196.173 145.778 196 147C195.67 148.37 195.65 150 194.81 151.6L194.63 151.96L194.38 151.64L194.04 151.2C191.92 148.45 190.04 145.94 188.67 144.1C188 143.19 187.46 142.44 187.1 141.92C186.896 141.671 186.722 141.399 186.58 141.11Z" fill="#263238"/>
<path d="M196.76 255.71C196.753 255.62 196.753 255.53 196.76 255.44C196.76 255.23 196.76 254.97 196.76 254.64C196.76 253.9 196.85 252.88 196.92 251.64C197.1 248.94 197.34 245.12 197.64 240.4C198.29 230.89 199.19 217.81 200.18 203.4C201.17 188.99 202.18 175.87 202.88 166.35C203.24 161.64 203.54 157.82 203.75 155.13C203.87 153.84 203.95 152.82 204.02 152.13C204.02 151.81 204.08 151.55 204.1 151.34C204.102 151.248 204.119 151.157 204.15 151.07C204.157 151.16 204.157 151.25 204.15 151.34V152.14C204.15 152.87 204.06 153.9 203.99 155.19C203.81 157.88 203.57 161.71 203.27 166.42C202.62 175.94 201.72 189.02 200.73 203.48C199.74 217.94 198.73 231 198.03 240.48C197.67 245.19 197.37 249.02 197.16 251.71C197.04 253 196.96 254.02 196.89 254.76C196.89 255.08 196.83 255.34 196.81 255.55C196.799 255.605 196.782 255.658 196.76 255.71Z" fill="#263238"/>
<path d="M163.84 166.75C163.864 167.281 163.837 167.814 163.76 168.34C163.67 169.45 163.55 170.91 163.41 172.66C163.14 176.31 162.86 181.35 162.55 186.93C162.24 192.51 161.9 197.56 161.55 201.2C161.37 203.03 161.19 204.5 161.04 205.51C160.994 206.041 160.897 206.567 160.75 207.08C160.739 206.548 160.769 206.017 160.84 205.49C160.93 204.38 161.04 202.93 161.18 201.17C161.46 197.53 161.73 192.48 162.05 186.9C162.37 181.32 162.7 176.27 163.05 172.63C163.23 170.8 163.42 169.33 163.56 168.32C163.616 167.791 163.71 167.266 163.84 166.75Z" fill="#263238"/>
<path d="M203.72 148.42C203.72 148.42 198.8 154.84 199.52 155.81L203.72 161.41H206.72C206.72 161.41 209.53 153.55 208.81 152.55C208.09 151.55 203.72 148.42 203.72 148.42Z" fill="#BF4019"/>
<path d="M211.27 146.68L205.84 150.93L207.92 154.91L213.51 150.8L211.27 146.68Z" fill="#BF4019"/>
<path d="M195.32 149.36L200.27 153.5L203.01 149.36L196.76 144.61L195.32 149.36Z" fill="#BF4019"/>
<path d="M203.72 161.41L196.16 229.06L203.59 252.59L213.51 229.27L206.98 160.6L203.72 161.41Z" fill="#BF4019"/>
<path d="M256.54 148.83C256.225 148.581 255.89 148.357 255.54 148.16C254.564 147.708 253.452 147.643 252.43 147.98C250.936 148.564 249.607 149.505 248.56 150.72C247.181 152.134 245.991 153.721 245.02 155.44C243.256 158.589 242.23 162.097 242.02 165.7C241.85 168.46 242.21 170.17 242.1 170.18C241.961 169.796 241.87 169.396 241.83 168.99C241.676 167.894 241.616 166.786 241.65 165.68C241.756 161.999 242.755 158.399 244.56 155.19C245.553 153.429 246.781 151.811 248.21 150.38C249.317 149.122 250.734 148.174 252.32 147.63C252.867 147.467 253.442 147.413 254.01 147.473C254.578 147.533 255.129 147.706 255.63 147.98C255.894 148.137 256.133 148.333 256.34 148.56C256.5 148.72 256.55 148.82 256.54 148.83Z" fill="#263238"/>
<path d="M328 65.12C321.6 69.05 317.15 75.62 314.5 82.66C311.85 89.7 310.86 97.22 310.08 104.66C308.011 124.408 307.316 144.276 308 164.12C332.24 167.19 356.66 170.26 381 168.6C376.77 140.77 374.1 112.97 377.48 85.03" fill="#263238"/>
<path d="M382.45 296.43L364.8 260.74L371.54 234.64C372.33 240.17 373 245 373 245L410.86 243C411.192 242.981 411.516 242.894 411.812 242.743C412.108 242.593 412.37 242.383 412.582 242.127C412.793 241.87 412.949 241.573 413.04 241.254C413.131 240.934 413.155 240.599 413.11 240.27L405.74 188C405.74 188 403.37 163.78 380.45 154.78H380.35C379.42 154.42 378.46 154.09 377.47 153.78C346.56 143.07 317.61 143.13 285.4 154.12C285.4 154.12 271.09 157.97 264.15 176.64C257.21 195.31 250.15 222.75 250.15 222.75L282.29 234.1L282.5 228.68L289.61 255.84L274 295.39L328.35 296.74L382.45 296.43Z" fill="#AD8DCE"/>
<path d="M250.2 222.43L246.6 239.43C243.5 254.09 254.34 269.13 269.23 270.81L348.33 278.93C352.498 279.402 356.719 279.036 360.743 277.851C364.768 276.667 368.514 274.689 371.762 272.034C375.01 269.378 377.694 266.1 379.655 262.391C381.615 258.683 382.814 254.619 383.18 250.44L283.44 241L284.06 231.43L250.2 222.43Z" fill="#AD8DCE"/>
<path d="M349.13 239.82L355.27 238.69C355.27 238.69 369.83 222.76 372.57 222.53C374.81 222.34 387.2 222.46 391.52 222.53C391.909 222.535 392.281 222.691 392.557 222.966C392.833 223.24 392.992 223.611 393 224C393 224.388 392.85 224.76 392.582 225.04C392.313 225.32 391.947 225.485 391.56 225.5L376.92 226.07L376.85 227.25L391.51 227.44C393 227.56 393.96 229.92 389.18 230.35L376.92 230.79V231.55L389.35 233.29C389.98 233.37 391.63 233.69 391.65 234.29C391.65 234.29 392.4 235.85 388.86 236.29C387.64 236.44 376.86 236.08 376.86 236.08L377.28 237.08L388.45 239.49C388.841 239.577 389.186 239.808 389.414 240.139C389.642 240.469 389.737 240.873 389.68 241.27C389.625 241.673 389.416 242.04 389.098 242.293C388.779 242.547 388.375 242.667 387.97 242.63L376 241.54L364.3 250.9H348.64L349.13 239.82Z" fill="#FFBE9D"/>
<path d="M310.25 146.46C310.25 146.46 325.66 225.25 331.09 224.68C336.52 224.11 361.99 149.18 361.99 149.18C361.99 149.18 329.44 139.24 310.25 146.46Z" fill="#FAFAFA"/>
<path d="M378.45 222.73C378.3 222.73 378.19 217.3 378.19 210.6C378.19 203.9 378.3 198.46 378.45 198.46C378.6 198.46 378.71 203.89 378.71 210.6C378.71 217.31 378.59 222.73 378.45 222.73Z" fill="#263238"/>
<path d="M283.84 223.24C283.862 222.07 283.969 220.904 284.16 219.75C284.43 217.6 284.83 214.63 285.31 211.36C285.79 208.09 286.25 205.13 286.61 202.99C286.747 201.828 286.975 200.677 287.29 199.55C287.282 200.706 287.185 201.859 287 203C286.73 205.15 286.33 208.12 285.86 211.39C285.39 214.66 284.92 217.62 284.56 219.75C284.408 220.93 284.167 222.096 283.84 223.24Z" fill="#263238"/>
<path d="M328.36 296.74C328.315 296.499 328.298 296.254 328.31 296.01C328.31 295.483 328.31 294.783 328.31 293.91C328.31 292.1 328.31 289.47 328.37 286.22C328.49 279.72 328.84 270.75 329.29 260.84C329.74 250.93 330.15 241.97 330.36 235.48C330.46 232.27 330.53 229.66 330.59 227.79C330.59 226.92 330.64 226.23 330.65 225.7C330.644 225.455 330.664 225.211 330.71 224.97C330.754 225.211 330.771 225.456 330.76 225.7C330.76 226.23 330.76 226.92 330.76 227.79C330.76 229.61 330.76 232.24 330.7 235.49C330.58 241.99 330.23 250.96 329.78 260.87C329.33 270.78 328.92 279.73 328.71 286.23C328.61 289.43 328.53 292.04 328.48 293.92C328.48 294.78 328.43 295.48 328.42 296.01C328.425 296.255 328.405 296.499 328.36 296.74Z" fill="#263238"/>
<path d="M361.86 149C361.937 149.33 361.994 149.663 362.03 150C362.207 150.93 362.471 151.84 362.82 152.72C363.387 154.101 364.056 155.438 364.82 156.72C365.854 158.43 366.798 160.192 367.65 162C368.736 164.22 369.153 166.707 368.85 169.16C368.606 170.521 368.059 171.809 367.25 172.93C366.401 174.095 365.454 175.186 364.42 176.19C362.213 178.298 360.205 180.604 358.42 183.08C356.503 185.718 355.423 188.871 355.32 192.13C355.321 193.769 355.683 195.387 356.38 196.87C357.11 198.329 357.758 199.828 358.32 201.36C358.576 202.143 358.685 202.967 358.64 203.79C358.579 204.607 358.318 205.397 357.88 206.09C356.969 207.324 355.841 208.382 354.55 209.21L342 218.46L333.53 224.65L331.21 226.31L330.6 226.73C330.46 226.82 330.39 226.87 330.38 226.86C330.435 226.794 330.499 226.737 330.57 226.69L331.15 226.22L333.41 224.48L341.78 218.16L354.25 208.84C355.486 208.041 356.567 207.025 357.44 205.84C357.827 205.214 358.057 204.504 358.11 203.77C358.153 203.011 358.051 202.251 357.81 201.53C357.254 200.017 356.61 198.537 355.88 197.1C355.161 195.549 354.785 193.86 354.78 192.15C354.886 188.788 355.997 185.535 357.97 182.81C359.778 180.317 361.813 177.997 364.05 175.88C366.1 173.88 367.99 171.66 368.4 169.11C368.706 166.737 368.317 164.326 367.28 162.17C366.459 160.362 365.541 158.599 364.53 156.89C363.782 155.575 363.137 154.204 362.6 152.79C362.267 151.895 362.032 150.966 361.9 150.02C361.864 149.771 361.84 149.521 361.83 149.27C361.825 149.179 361.835 149.088 361.86 149Z" fill="#263238"/>
<path d="M331 223.88H330.76L330.05 223.75C329.151 223.553 328.263 223.31 327.39 223.02C324.162 221.912 321.175 220.198 318.59 217.97C316.804 216.434 315.234 214.665 313.92 212.71C312.419 210.454 311.273 207.982 310.52 205.38C309.699 202.499 309.361 199.502 309.52 196.51C309.611 194.936 309.822 193.372 310.15 191.83C310.537 190.299 310.581 188.701 310.28 187.15C310.074 186.414 309.652 185.755 309.07 185.26C308.449 184.812 307.755 184.474 307.02 184.26C306.27 184.01 305.5 183.81 304.75 183.5C304.008 183.189 303.331 182.745 302.75 182.19C301.667 181.045 300.95 179.604 300.69 178.05C300.417 176.604 300.336 175.128 300.45 173.66C300.924 168.639 302.026 163.697 303.73 158.95C304.871 155.759 306.276 152.668 307.93 149.71C308.52 148.66 309 147.87 309.35 147.34L309.74 146.74L309.89 146.54C309.89 146.54 309.89 146.62 309.79 146.77C309.69 146.92 309.58 147.14 309.44 147.39C309.12 147.94 308.67 148.75 308.11 149.8C306.54 152.786 305.203 155.889 304.11 159.08C302.475 163.805 301.421 168.711 300.97 173.69C300.864 175.115 300.948 176.547 301.22 177.95C301.464 179.403 302.136 180.75 303.15 181.82C303.687 182.336 304.318 182.744 305.01 183.02C305.72 183.32 306.48 183.52 307.24 183.77C308.039 184.011 308.791 184.39 309.46 184.89C310.12 185.456 310.6 186.204 310.84 187.04C311.161 188.666 311.12 190.342 310.72 191.95C310.39 193.471 310.179 195.016 310.09 196.57C309.937 199.509 310.275 202.452 311.09 205.28C312.447 210.097 315.17 214.417 318.93 217.72C321.462 219.947 324.385 221.686 327.55 222.85C328.411 223.169 329.289 223.443 330.18 223.67L330.87 223.86C330.914 223.862 330.957 223.869 331 223.88Z" fill="#263238"/>
<path d="M372.65 239.93L306.39 237.79L306.49 259.79L350.36 269.44L381.23 274.37C400.42 274.37 415.76 256.76 412.79 237.8H412.71L372.65 239.93Z" fill="#AD8DCE"/>
<path d="M390.89 239.51C390.606 239.556 390.318 239.576 390.03 239.57L387.57 239.64L378.51 239.81C370.86 239.92 360.29 240.05 348.61 239.94C336.93 239.83 326.36 239.4 318.72 238.88C314.91 238.63 311.82 238.38 309.72 238.17L307.27 237.92C306.983 237.901 306.699 237.857 306.42 237.79C306.706 237.772 306.994 237.772 307.28 237.79L309.74 237.94C311.87 238.1 314.96 238.29 318.74 238.5C326.37 238.92 336.93 239.28 348.61 239.4C360.29 239.52 370.85 239.4 378.5 239.4H387.56H390.02C390.313 239.412 390.604 239.449 390.89 239.51Z" fill="#263238"/>
<path d="M305.82 239.82L299.68 238.69C299.68 238.69 285.12 222.76 282.39 222.53C280.14 222.34 267.75 222.46 263.39 222.53C263.017 222.557 262.667 222.723 262.41 222.995C262.153 223.267 262.006 223.626 262 224C262 224.389 262.151 224.763 262.422 225.043C262.692 225.323 263.061 225.487 263.45 225.5L278.08 226.07L278.15 227.25L263.49 227.44C262 227.56 261.05 229.92 265.82 230.35L278.08 230.79V231.55L265.6 233.3C264.97 233.38 263.32 233.7 263.31 234.3C263.31 234.3 262.55 235.86 266.1 236.3C267.31 236.45 278.1 236.09 278.1 236.09L277.69 237.09L266.51 239.5C266.118 239.587 265.774 239.818 265.546 240.149C265.317 240.479 265.223 240.883 265.28 241.28C265.337 241.684 265.548 242.051 265.868 242.304C266.188 242.557 266.594 242.677 267 242.64L278.93 241.53L290.65 250.89H306.31L305.82 239.82Z" fill="#FFBE9D"/>
<path d="M380.05 274C379.799 274.008 379.548 273.991 379.3 273.95L377.16 273.72C375.3 273.52 372.61 273.17 369.29 272.72C362.66 271.81 353.51 270.35 343.48 268.39C333.45 266.43 324.43 264.31 317.94 262.66C314.7 261.83 312.08 261.13 310.28 260.66L308.21 260.06C307.962 260.004 307.721 259.923 307.49 259.82C307.741 259.841 307.989 259.888 308.23 259.96L310.33 260.46L318.03 262.34C324.54 263.9 333.56 265.95 343.58 267.92C353.6 269.89 362.73 271.39 369.34 272.4L377.18 273.57L379.32 273.9C379.566 273.908 379.811 273.941 380.05 274Z" fill="#263238"/>
<path d="M307.08 259.88C306.787 258.858 306.596 257.81 306.51 256.75C306.24 254.8 305.96 252.1 305.8 249.1C305.64 246.1 305.65 243.38 305.72 241.42C305.705 240.355 305.786 239.291 305.96 238.24C306.078 239.296 306.118 240.358 306.08 241.42C306.08 243.42 306.17 246.09 306.32 249.07C306.47 252.05 306.7 254.76 306.87 256.71C307.01 257.761 307.08 258.82 307.08 259.88Z" fill="#263238"/>
<path d="M314.33 260.74C314.187 260.482 314.089 260.201 314.04 259.91C313.88 259.36 313.69 258.56 313.48 257.57C312.965 254.976 312.631 252.35 312.48 249.71C312.316 247.072 312.34 244.425 312.55 241.79C312.63 240.79 312.73 239.97 312.82 239.41C312.837 239.113 312.898 238.82 313 238.54C313.037 239.631 313.01 240.723 312.92 241.81C312.84 243.81 312.81 246.61 313 249.68C313.19 252.75 313.55 255.51 313.87 257.5C314.079 258.571 314.233 259.653 314.33 260.74Z" fill="#263238"/>
<path d="M308.2 241.76C308.26 241.82 307.88 242.1 307.89 242.76C307.889 242.929 307.925 243.097 307.996 243.25C308.067 243.404 308.171 243.541 308.3 243.65C308.463 243.758 308.654 243.815 308.85 243.815C309.045 243.815 309.236 243.758 309.4 243.65C309.581 243.558 309.729 243.413 309.826 243.234C309.922 243.056 309.962 242.852 309.94 242.65C309.906 242.485 309.838 242.33 309.74 242.193C309.642 242.057 309.516 241.944 309.37 241.86C308.83 241.53 308.37 241.72 308.37 241.64C308.37 241.56 308.78 241.21 309.53 241.53C309.744 241.616 309.936 241.752 310.089 241.925C310.241 242.099 310.351 242.306 310.41 242.53C310.454 242.827 310.406 243.13 310.272 243.398C310.137 243.667 309.924 243.887 309.66 244.03C309.414 244.197 309.122 244.284 308.825 244.278C308.528 244.273 308.24 244.176 308 244C307.828 243.838 307.696 243.637 307.614 243.415C307.533 243.193 307.504 242.955 307.53 242.72C307.63 241.9 308.21 241.69 308.2 241.76Z" fill="#263238"/>
<path d="M320.25 264C320.024 264.026 319.796 264.026 319.57 264H317.63C315.244 264.062 312.865 264.286 310.51 264.67C307.023 265.262 303.569 266.029 300.16 266.97C296.3 267.97 292.07 269.23 287.54 270.21C283.28 271.208 278.915 271.682 274.54 271.62C270.963 271.537 267.425 270.861 264.07 269.62C261.815 268.777 259.706 267.586 257.82 266.09C257.31 265.683 256.823 265.249 256.36 264.79C256.189 264.636 256.035 264.465 255.9 264.28C255.9 264.28 256.59 264.92 257.9 265.93C259.812 267.343 261.921 268.468 264.16 269.27C267.488 270.443 270.982 271.074 274.51 271.14C278.835 271.172 283.149 270.689 287.36 269.7C291.86 268.7 296.09 267.5 299.97 266.51C303.399 265.582 306.878 264.847 310.39 264.31C312.76 263.954 315.154 263.784 317.55 263.8C318.4 263.8 319.06 263.85 319.55 263.89C319.785 263.911 320.019 263.947 320.25 264Z" fill="#263238"/>
<path d="M349.4 155.74C350.98 146.95 352.8 137.74 352.8 137.74C352.8 137.74 364.45 137.85 369.4 123.49C374.12 109.79 377.53 76.84 377.53 76.84C370.062 72.1944 361.352 69.944 352.568 70.3909C343.785 70.8377 335.348 73.9605 328.39 79.34L316.77 150.92C315.42 159.23 321.49 167.01 330.4 168.38C339.4 169.76 347.9 164.11 349.4 155.74Z" fill="#FFBE9D"/>
<path d="M352.8 137.73C345.823 136.622 339.291 133.6 333.93 129C333.93 129 336.93 140 351.98 141.22L352.8 137.73Z" fill="#EB996E"/>
<path d="M338.38 68.77C342.33 77.48 355.13 88.08 365.01 91.84C364.11 90.04 358.56 84.99 357.66 83.19C361.66 87.52 367.41 93.4 373.5 94.87C374.204 95.107 374.962 95.1314 375.68 94.94C376.078 94.7291 376.421 94.4287 376.683 94.0626C376.945 93.6965 377.119 93.2746 377.19 92.83C378.37 88.4386 379.07 83.9323 379.28 79.39C379.489 75.5552 378.227 71.7852 375.75 68.85C372.38 65.07 366.88 63.25 361.59 62.13C357.15 61.13 352.51 60.58 348.13 61.42C343.75 62.26 339.67 64.79 338.36 68.5" fill="#263238"/>
<path d="M314.82 101.58C314.741 98.1954 314.868 94.8092 315.2 91.44C316.2 83.75 318.6 55.79 344.41 62.98L341.66 70.14C341.66 70.14 343.66 88.14 330.39 97.81C330.39 97.81 330.45 115.81 321.27 122.25C321.27 122.25 314.87 110.07 314.82 101.58Z" fill="#263238"/>
<path d="M331 96.59C329.474 95.9693 327.805 95.7824 326.18 96.05C324.564 96.3434 323.128 97.259 322.18 98.6C321.294 100.003 320.979 101.692 321.3 103.32C321.626 104.931 322.31 106.448 323.3 107.76C323.938 108.754 324.806 109.581 325.83 110.17C326.342 110.464 326.92 110.624 327.511 110.636C328.101 110.648 328.685 110.512 329.21 110.24" fill="#FFBE9D"/>
<path d="M328.38 106C328.55 106.09 327.7 106.93 326.32 106.28C325.958 106.083 325.638 105.816 325.379 105.495C325.12 105.174 324.927 104.806 324.81 104.41C324.527 103.519 324.419 102.582 324.49 101.65C324.546 100.656 324.958 99.7156 325.65 99C325.94 98.6909 326.298 98.4526 326.695 98.3035C327.092 98.1544 327.518 98.0985 327.94 98.14C329.43 98.36 329.71 99.47 329.54 99.48C329.37 99.49 328.91 98.94 327.9 99.01C327.265 99.1316 326.695 99.4771 326.293 99.9835C325.891 100.49 325.684 101.124 325.71 101.77C325.6 103.42 325.97 105.02 326.77 105.55C327.57 106.08 328.31 105.86 328.38 106Z" fill="#EB996E"/>
<path d="M328.36 110.21C324.36 134.12 327.62 158.56 328.36 182.8C328.43 185.12 328.45 187.56 327.36 189.63C325.77 192.76 322.05 194.28 318.55 194.49C315.05 194.7 311.55 193.89 308.05 193.6C307.68 191.28 307.3 188.95 306.92 186.6L303.42 194.6C304.96 177.593 306.647 160.593 308.48 143.6" fill="#263238"/>
</g>
<defs>
<clipPath id="clip0">
<rect width="628.44" height="296.74" fill="white"/>
</clipPath>
</defs>
</svg>
