<svg width="17" height="17" viewBox="0 0 17 17" fill="none" xmlns="http://www.w3.org/2000/svg">
<g clip-path="url(#clip0)">
<path d="M0.394927 17C0.299468 17 0.206603 16.9623 0.137733 16.8926C0.0469428 16.8008 0.0119239 16.6674 0.0460349 16.5428L1.15121 12.5071C0.463149 11.2629 0.100379 9.85536 0.100898 8.42659C0.102843 3.7801 3.88411 0 8.53021 0C10.7837 0.0009079 12.9012 0.878716 14.4928 2.47143C16.0841 4.06427 16.96 6.18162 16.9594 8.43333C16.9573 13.08 13.1761 16.8603 8.53021 16.8603C8.53021 16.8603 8.52671 16.8603 8.52658 16.8603C7.16953 16.8598 5.82416 16.5291 4.62625 15.9026L0.486625 16.9882C0.456275 16.9961 0.425407 17 0.394927 17Z" fill="#E5E5E5"/>
<path d="M0.39502 16.6383L1.53949 12.4589C0.833534 11.2357 0.462204 9.84822 0.462723 8.42671C0.464539 3.9797 4.08342 0.361725 8.5303 0.361725C10.6882 0.362633 12.7138 1.20257 14.237 2.72706C15.76 4.25155 16.5985 6.27798 16.5978 8.4332C16.5958 12.8801 12.9764 16.4986 8.5303 16.4986C8.53004 16.4986 8.53043 16.4986 8.5303 16.4986H8.5268C7.17663 16.4981 5.85006 16.1594 4.67174 15.5167L0.39502 16.6383ZM4.86979 14.0567L5.11479 14.2019C6.14409 14.8127 7.32423 15.1358 8.52771 15.1365H8.5303C12.226 15.1365 15.234 12.129 15.2355 8.43268C15.2362 6.6414 14.5394 4.95699 13.2734 3.68995C12.0073 2.42291 10.3239 1.72474 8.53277 1.72396C4.83412 1.72396 1.82626 4.73105 1.82483 8.42723C1.82431 9.69388 2.17865 10.9273 2.84998 11.9948L3.00951 12.2484L2.33195 14.7221L4.86979 14.0567Z" fill="white"/>
<path d="M0.675293 16.3567L1.7802 12.3219C1.0985 11.1411 0.740143 9.80141 0.740532 8.42931C0.742218 4.13625 4.23594 0.64357 8.52861 0.64357C10.6121 0.644478 12.5676 1.45536 14.0377 2.92706C15.5083 4.39877 16.3176 6.35503 16.3168 8.43541C16.315 12.7286 12.8212 16.2217 8.529 16.2217C8.52861 16.2217 8.52913 16.2217 8.529 16.2217H8.5255C7.22215 16.2212 5.94136 15.8941 4.80389 15.2741L0.675293 16.3567Z" fill="#64B161"/>
<path d="M0.39502 16.6383L1.53949 12.4589C0.833534 11.2357 0.462204 9.84822 0.462723 8.42671C0.464539 3.9797 4.08342 0.361725 8.5303 0.361725C10.6882 0.362633 12.7138 1.20257 14.237 2.72706C15.76 4.25155 16.5985 6.27798 16.5978 8.4332C16.5958 12.8801 12.9764 16.4986 8.5303 16.4986C8.53004 16.4986 8.53043 16.4986 8.5303 16.4986H8.5268C7.17663 16.4981 5.85006 16.1594 4.67174 15.5167L0.39502 16.6383ZM4.86979 14.0567L5.11479 14.2019C6.14409 14.8127 7.32423 15.1358 8.52771 15.1365H8.5303C12.226 15.1365 15.234 12.129 15.2355 8.43268C15.2362 6.6414 14.5394 4.95699 13.2734 3.68995C12.0073 2.42291 10.3239 1.72474 8.53277 1.72396C4.83412 1.72396 1.82626 4.73105 1.82483 8.42723C1.82431 9.69388 2.17865 10.9273 2.84998 11.9948L3.00951 12.2484L2.33195 14.7221L4.86979 14.0567Z" fill="white"/>
<path fill-rule="evenodd" clip-rule="evenodd" d="M6.51377 5.05504C6.3628 4.71938 6.20379 4.71263 6.06008 4.7068C5.94257 4.70174 5.80807 4.702 5.67384 4.702C5.53947 4.702 5.32105 4.75258 5.13636 4.95426C4.95154 5.15595 4.43066 5.64362 4.43066 6.63543C4.43066 7.62738 5.15309 8.58573 5.25387 8.72036C5.35464 8.85485 6.6484 10.9552 8.69726 11.7632C10.4001 12.4348 10.7465 12.3012 11.1162 12.2676C11.4858 12.234 12.3088 11.78 12.4767 11.3093C12.6448 10.8386 12.6448 10.4352 12.5943 10.3508C12.5439 10.2669 12.4095 10.2164 12.208 10.1157C12.0064 10.0149 11.0154 9.52709 10.8306 9.4599C10.6457 9.39259 10.5114 9.35913 10.377 9.56094C10.2425 9.76249 9.85652 10.2164 9.73888 10.3508C9.62124 10.4856 9.50361 10.5024 9.30205 10.4015C9.1005 10.3005 8.45122 10.0878 7.68107 9.40102C7.08185 8.86679 6.67719 8.20687 6.55955 8.00506C6.44205 7.80351 6.55761 7.7039 6.64814 7.59378C6.81117 7.39547 7.08471 7.03893 7.15189 6.90456C7.21908 6.76993 7.18548 6.65229 7.13516 6.55139C7.08471 6.45061 6.69289 5.45374 6.51377 5.05504Z" fill="white"/>
</g>
<defs>
<clipPath id="clip0">
<rect width="17" height="17" fill="white"/>
</clipPath>
</defs>
</svg>
