<svg width="697" height="300" viewBox="0 0 697 300" fill="none" xmlns="http://www.w3.org/2000/svg">
<rect x="1" y="1" width="694.059" height="298" rx="8" fill="white" fill-opacity="0.62" stroke="#2E3052" stroke-width="2"/>
<path d="M17.7344 2.95557L17.7344 101.97L67.2307 101.97L211.595 101.97M294.089 2.95557L294.089 31.2455M241.843 2.95557L294.089 31.2455M294.089 31.2455L294.089 101.97L211.595 101.97M211.595 101.97L28.7336 2.95557" stroke="#2E3052" stroke-width="1.5" stroke-linecap="square" stroke-linejoin="round" stroke-dasharray="3 3"/>
<path d="M396.06 2.95557L396.06 101.97L445.556 101.97L589.92 101.97M672.414 2.95557L672.414 31.2455M620.168 2.95557L672.414 31.2455M672.414 31.2455L672.414 101.97L589.92 101.97M589.92 101.97L407.059 2.95557" stroke="#2E3052" stroke-width="1.5" stroke-linecap="square" stroke-linejoin="round" stroke-dasharray="3 3"/>
<path d="M17.7344 298.522L17.7344 200.985L67.2307 200.985L211.595 200.985M294.089 298.522L294.089 270.654M241.843 298.522L294.089 270.654M294.089 270.654L294.089 200.985L211.595 200.985M211.595 200.985L28.7336 298.522" stroke="#2E3052" stroke-width="1.5" stroke-linecap="square" stroke-linejoin="round" stroke-dasharray="3 3"/>
<path d="M396.06 298.522L396.06 200.985L445.556 200.985L589.92 200.985M672.414 298.522L672.414 270.654M620.168 298.522L672.414 270.654M672.414 270.654L672.414 200.985L589.92 200.985M589.92 200.985L407.059 298.522" stroke="#2E3052" stroke-width="1.5" stroke-linecap="square" stroke-linejoin="round" stroke-dasharray="3 3"/>
</svg>
