<svg width="697" height="300" viewBox="0 0 697 300" fill="none" xmlns="http://www.w3.org/2000/svg">
<g clip-path="url(#clip0_8608_4250)">
<rect width="696.06" height="300" fill="white"/>
<rect x="-14" y="-7" width="741" height="335" fill="white" fill-opacity="0.62"/>
<rect x="1.3125" y="1.00049" width="694.057" height="297.999" rx="8" stroke="#233862" stroke-width="2"/>
<circle cx="346.863" cy="154.434" r="23.6342" stroke="#233862" stroke-width="1.5" stroke-linejoin="round" stroke-dasharray="3 3"/>
<path d="M298.094 2.95605L298.094 74.6308L271.493 101.232L193.907 101.232M149.572 2.95605L149.572 31.0348M177.651 2.95605L149.572 31.0348M149.572 31.0348L149.572 101.232L193.907 101.232M193.907 101.232L292.182 2.95605" stroke="#233862" stroke-width="1.5" stroke-linecap="square" stroke-linejoin="round" stroke-dasharray="3 3"/>
<path d="M396.371 299.26L396.371 227.586L422.972 200.985L500.558 200.985M544.893 299.26L544.893 271.182M516.814 299.26L544.893 271.182M544.893 271.182L544.893 200.985L500.558 200.985M500.558 200.985L402.282 299.26" stroke="#233862" stroke-width="1.5" stroke-linecap="square" stroke-linejoin="round" stroke-dasharray="3 3"/>
<path d="M298.094 299.261L298.094 227.586L271.493 200.985L193.907 200.985M149.572 299.261L149.572 271.182M177.651 299.261L149.572 271.182M149.572 271.182L149.572 200.985L193.907 200.985M193.907 200.985L292.182 299.261" stroke="#233862" stroke-width="1.5" stroke-linecap="square" stroke-linejoin="round" stroke-dasharray="3 3"/>
<path d="M396.371 2.95557L396.371 74.6303L422.972 101.231L500.558 101.231M544.893 2.95558L544.893 31.0343M516.814 2.95558L544.893 31.0343M544.893 31.0343L544.893 101.231L500.558 101.231M500.558 101.231L402.282 2.95557" stroke="#233862" stroke-width="1.5" stroke-linecap="square" stroke-linejoin="round" stroke-dasharray="3 3"/>
<path d="M48.3446 2.95557L48.3446 31.0343M20.2659 2.95557L48.3446 31.0343M48.3446 31.0343L48.3446 101.231L4.00976 101.231" stroke="#233862" stroke-width="1.5" stroke-linecap="square" stroke-linejoin="round" stroke-dasharray="3 3"/>
<path d="M652.036 299.26L652.036 271.181M680.115 299.26L652.036 271.181M652.036 271.181L652.036 200.985L696.371 200.985" stroke="#233862" stroke-width="1.5" stroke-linecap="square" stroke-linejoin="round" stroke-dasharray="3 3"/>
<path d="M652.036 2.95557L652.036 31.0343M680.115 2.95557L652.036 31.0343M652.036 31.0343L652.036 101.231L696.371 101.231" stroke="#233862" stroke-width="1.5" stroke-linecap="square" stroke-linejoin="round" stroke-dasharray="3 3"/>
<path d="M48.3446 299.26L48.3446 271.182M20.2659 299.26L48.3446 271.182M48.3446 271.182L48.3446 200.985L4.00977 200.985" stroke="#233862" stroke-width="1.5" stroke-linecap="square" stroke-linejoin="round" stroke-dasharray="3 3"/>
</g>
<defs>
<clipPath id="clip0_8608_4250">
<rect width="696.06" height="300" fill="white"/>
</clipPath>
</defs>
</svg>
