<svg width="695" height="299" viewBox="0 0 695 299" fill="none" xmlns="http://www.w3.org/2000/svg">
<rect x="1.63281" y="1.09668" width="692.121" height="297.165" rx="8" stroke="#233862" stroke-width="2"/>
<path d="M153.898 3.04445L153.898 101.783L225.165 101.783L433.025 101.783L551.802 101.783" stroke="#233862" stroke-width="1.5" stroke-linecap="square" stroke-linejoin="round" stroke-dasharray="3 3"/>
<path d="M153.898 200.522L225.165 200.522L433.025 200.522L551.802 200.522L551.802 271.05L551.802 299.261" stroke="#233862" stroke-width="1.5" stroke-linecap="square" stroke-linejoin="round" stroke-dasharray="3 3"/>
<path d="M57.3708 5.99137V104.73C57.1252 119.468 62.8235 153.953 87.582 173.995C118.53 199.048 135.479 199.048 153.164 199.785" stroke="#233862" stroke-width="1.5" stroke-linecap="square" stroke-linejoin="round" stroke-dasharray="2 2"/>
<path d="M647.594 294.84L647.594 196.101C647.84 181.364 642.141 146.879 617.383 126.836C586.435 101.783 569.486 101.783 551.801 101.046" stroke="#233862" stroke-width="1.5" stroke-linecap="square" stroke-linejoin="round" stroke-dasharray="2 2"/>
<path d="M551.813 3.04396L551.813 101.783L480.546 101.783L272.686 101.783L153.909 101.783" stroke="#233862" stroke-width="1.5" stroke-linecap="square" stroke-linejoin="round" stroke-dasharray="3 3"/>
<path d="M551.812 200.522L480.546 200.522L272.686 200.522L153.909 200.522L153.909 271.05L153.909 299.261" stroke="#233862" stroke-width="1.5" stroke-linecap="square" stroke-linejoin="round" stroke-dasharray="3 3"/>
<path d="M648.342 5.99137L648.342 104.73C648.588 119.468 642.889 153.953 618.131 173.995C587.183 199.048 570.234 199.048 552.549 199.785" stroke="#233862" stroke-width="1.5" stroke-linecap="square" stroke-linejoin="round" stroke-dasharray="2 2"/>
<path d="M58.115 294.84L58.1149 196.101C57.8693 181.363 63.5677 146.878 88.3261 126.836C119.274 101.783 136.223 101.783 153.908 101.046" stroke="#233862" stroke-width="1.5" stroke-linecap="square" stroke-linejoin="round" stroke-dasharray="2 2"/>
</svg>
