<svg width="27" height="27" viewBox="0 0 27 27" fill="none" xmlns="http://www.w3.org/2000/svg">
<path d="M14.625 14.625H12.375V7.87502H14.625V14.625ZM14.625 19.125H12.375V16.875H14.625V19.125ZM13.5 2.25002C12.0226 2.25002 10.5597 2.54101 9.19481 3.10637C7.8299 3.67174 6.58971 4.50041 5.54505 5.54506C3.43526 7.65485 2.25 10.5163 2.25 13.5C2.25 16.4837 3.43526 19.3452 5.54505 21.455C6.58971 22.4996 7.8299 23.3283 9.19481 23.8937C10.5597 24.459 12.0226 24.75 13.5 24.75C16.4837 24.75 19.3452 23.5648 21.455 21.455C23.5647 19.3452 24.75 16.4837 24.75 13.5C24.75 12.0226 24.459 10.5597 23.8936 9.19483C23.3283 7.82991 22.4996 6.58972 21.455 5.54506C20.4103 4.50041 19.1701 3.67174 17.8052 3.10637C16.4403 2.54101 14.9774 2.25002 13.5 2.25002Z" fill="#E5531C"/>
</svg>
