<svg width="375" height="320" viewBox="0 0 375 320" fill="none" xmlns="http://www.w3.org/2000/svg">
<path d="M-55.777 319.381C-55.777 319.381 -166.755 181.188 -79.6102 96.4859C50.0671 -29.5919 138.319 149.579 188.286 75.4434C270.917 -47.2233 541.248 -15.7482 458.551 136.799C415.155 216.827 560.345 204.866 501.149 319.559L-55.777 319.381Z" fill="#EBF3FA"/>
<path d="M147.45 232.554C147.45 232.554 133.443 216.23 146.604 205.875C146.604 205.875 156.171 200.064 163.994 200.539C163.994 200.539 152.894 219.083 156.488 220.932C160.082 222.781 167.323 199.377 167.323 199.377C167.323 199.377 189.153 197.264 196.13 200.645C196.13 200.645 177.472 215.913 181.436 216.811C185.4 217.709 205.485 202.758 205.485 202.758C205.485 202.758 225.781 206.192 224.724 218.607C223.667 231.022 216.637 234.826 213.572 234.456C210.506 234.086 192.535 227.271 192.113 229.807C191.69 232.343 202.525 240.532 210.136 240.954C210.136 240.954 195.813 256.75 186.299 252.154C176.785 247.611 175.992 240.373 170.019 237.679C164.046 234.984 159.025 234.984 161.457 237.732C163.888 240.479 174.618 243.173 178 249.196C181.383 255.218 184.449 259.233 174.617 257.754C164.786 256.275 148.771 249.09 148.084 240.849C147.45 232.554 147.45 232.554 147.45 232.554Z" fill="#C8DBF4"/>
<path d="M214.735 218.924C214.735 218.924 159.606 216.811 147.45 232.555C147.45 232.555 144.754 240.638 136.456 247.981L135.187 251.52C135.187 251.52 144.754 241.43 148.137 240.849C148.137 240.796 142.798 221.249 214.735 218.924Z" fill="#C8DBF4"/>
<path d="M136.455 247.929C136.455 247.929 124.616 256.698 123.823 272.283L125.99 272.494C125.99 272.494 129.796 256.328 136.614 249.989C143.379 243.702 136.455 247.929 136.455 247.929Z" fill="#C8DBF4"/>
<path d="M98.5572 212.004C98.5572 212.004 120.809 199.536 110.397 182.63C110.397 182.63 102.098 172.276 93.2187 169.581C93.2187 169.581 97.9757 194.781 93.2187 195.362C88.4617 195.944 89.9417 166.887 89.9417 166.887C89.9417 166.887 66.5268 155.634 57.33 156.533C57.33 156.533 71.8652 181.151 67.1082 180.57C62.3513 179.989 46.0718 155.053 46.0718 155.053C46.0718 155.053 22.0226 150.616 18.2171 164.827C14.3586 179.038 20.5955 186.17 24.1368 187.068C27.6781 187.966 50.5117 187.649 49.9303 190.608C49.3488 193.566 33.915 198.321 25.2996 195.627C25.2996 195.627 34.8136 219.03 47.2346 217.868C59.7084 216.706 63.5669 208.992 71.2838 208.358C79.0006 207.777 84.6562 209.838 80.7977 211.898C76.9393 213.958 63.884 212.585 57.6471 217.868C51.4101 223.151 46.3889 226.426 57.9642 228.804C69.5396 231.181 90.3117 229.702 94.4344 220.773C98.5571 211.845 98.5572 212.004 98.5572 212.004Z" fill="#C8DBF4"/>
<path d="M29.1586 169.317C29.1586 169.317 91.4223 189.498 98.5577 212.003C98.5577 212.003 98.2406 222.094 104.478 233.663V238.101C104.478 238.101 97.9762 222.992 94.3821 220.931C94.3821 220.931 108.336 201.331 29.1586 169.317Z" fill="#C8DBF4"/>
<path d="M104.478 233.664C104.478 233.664 114.097 248.245 108.6 265.996L106.116 265.309C106.116 265.309 108.495 245.762 103.474 235.935C98.5053 226.109 104.478 233.664 104.478 233.664Z" fill="#C8DBF4"/>
<path d="M133.917 194.834C133.917 194.834 104.582 178.403 118.272 156.162C118.272 156.162 129.213 142.479 140.947 138.992C140.947 138.992 134.71 172.222 140.947 173.015C147.184 173.807 145.228 135.506 145.228 135.506C145.228 135.506 176.096 120.66 188.252 121.823C188.252 121.823 169.119 154.26 175.356 153.468C181.593 152.675 203.105 119.868 203.105 119.868C203.105 119.868 234.765 114.004 239.839 132.759C244.913 151.513 236.721 160.917 232.017 162.079C227.312 163.241 197.238 162.871 197.978 166.781C198.77 170.69 219.067 176.924 230.431 173.438C230.431 173.438 217.904 204.29 201.519 202.758C185.081 201.173 180.007 191.03 169.859 190.237C159.71 189.445 152.258 192.192 157.332 194.939C162.406 197.686 179.637 195.837 187.829 202.811C196.022 209.784 202.682 214.064 187.459 217.233C172.237 220.35 144.858 218.396 139.361 206.667C133.917 194.834 133.917 194.834 133.917 194.834Z" fill="#D4E4F8"/>
<path d="M225.414 138.57C225.414 138.57 143.329 165.143 133.921 194.833C133.921 194.833 134.291 208.094 126.098 223.362V229.226C126.098 229.226 134.714 209.309 139.365 206.562C139.418 206.562 121.024 180.781 225.414 138.57Z" fill="#D4E4F8"/>
<path d="M126.096 223.362C126.096 223.362 113.411 242.592 120.652 265.996L123.929 265.097C123.929 265.097 120.758 239.316 127.418 226.373C134.025 213.43 126.096 223.362 126.096 223.362Z" fill="#D4E4F8"/>
<path d="M132.966 316.712C164.679 316.712 190.42 290.984 190.42 259.286H75.5647C75.5118 291.037 101.252 316.712 132.966 316.712Z" fill="#D4E4F8"/>
<path d="M191.159 319.67H74.7186C74.7186 315.761 77.89 312.591 81.8013 312.591H184.077C187.988 312.538 191.159 315.761 191.159 319.67Z" fill="#D4E4F8"/>
<path d="M191.688 259.338H73.6086V261.081H191.688V259.338Z" fill="#9FC1F4"/>
</svg>
