<svg width="85" height="84" viewBox="0 0 85 84" fill="none" xmlns="http://www.w3.org/2000/svg">
<path d="M30.6836 35.8021H30.4916H29.8458C28.9624 35.6713 28.1392 35.2746 27.4848 34.6642C26.8305 34.0538 26.3757 33.2585 26.1805 32.3832C25.2709 32.8217 24.2747 33.0494 23.2657 33.0494C22.2567 33.0494 21.2606 32.8217 20.351 32.3832C20.1542 33.2423 19.7071 34.023 19.0667 34.6256C18.4263 35.2283 17.6217 35.6257 16.7555 35.767H16.1271H15.9351C14.6189 35.767 13.3563 36.2911 12.4239 37.2244C11.4916 38.1577 10.9654 39.4241 10.9608 40.7464V48.1628H35.6405V40.7814C35.6405 39.4608 35.1182 38.1943 34.1886 37.2605C33.2591 36.3267 31.9983 35.8021 30.6836 35.8021Z" fill="#F1D0A4"/>
<path d="M30.6836 35.8021H30.4916H29.8458C29.5668 35.7649 29.292 35.7003 29.0255 35.6093L27.9783 36.6437C27.364 37.2608 26.6348 37.7503 25.8322 38.0842C25.0296 38.4182 24.1694 38.5901 23.3007 38.5901C22.4319 38.5901 21.5717 38.4182 20.7691 38.0842C19.9665 37.7503 19.2373 37.2608 18.623 36.6437L17.5933 35.6093C17.3208 35.7003 17.0402 35.7649 16.7555 35.8021H16.1271H15.9351C14.6189 35.8021 13.3563 36.3262 12.4239 37.2595C11.4916 38.1928 10.9654 39.4592 10.9608 40.7815V48.1979H35.6405V40.7815C35.6405 40.1276 35.5123 39.4801 35.2632 38.8759C35.0141 38.2718 34.6489 37.7229 34.1886 37.2605C33.7284 36.7982 33.1819 36.4314 32.5805 36.1811C31.9791 35.9309 31.3346 35.8021 30.6836 35.8021Z" fill="#512466"/>
<path d="M30.4916 35.8021H29.8458C29.5668 35.7649 29.292 35.7003 29.0255 35.6093L27.9783 36.6437C27.364 37.2608 26.6348 37.7503 25.8322 38.0842C25.0296 38.4182 24.1694 38.5901 23.3007 38.5901C22.4319 38.5901 21.5717 38.4182 20.7691 38.0842C19.9665 37.7503 19.2373 37.2608 18.623 36.6437L17.5933 35.6093C17.3208 35.7003 17.0402 35.7649 16.7555 35.8021H16.1271H15.9351C14.6189 35.8021 13.3563 36.3262 12.4239 37.2595C11.4916 38.1928 10.9654 39.4592 10.9608 40.7815V45.3926C11.4321 45.3926 11.8684 45.3926 12.3397 45.3926C16.1882 45.4708 20.0058 44.6886 23.5164 43.1027C27.0271 41.5169 30.1429 39.1669 32.6384 36.2229C32.023 35.9479 31.3572 35.8045 30.6836 35.8021H30.4916Z" fill="#744C76"/>
<path d="M23.301 33.0494C22.401 33.0494 21.5099 32.8711 20.6786 32.5246C19.8474 32.1781 19.0924 31.6703 18.4568 31.0302C17.8213 30.3902 17.3177 29.6304 16.9749 28.7945C16.632 27.9587 16.4568 27.0631 16.4591 26.159V23.4064C16.5478 21.6413 17.3083 19.978 18.5833 18.7602C19.8583 17.5425 21.5504 16.8634 23.3097 16.8634C25.069 16.8634 26.7611 17.5425 28.0361 18.7602C29.3111 19.978 30.0716 21.6413 30.1603 23.4064V26.159C30.1603 27.0639 29.9829 27.9599 29.6382 28.7959C29.2934 29.6319 28.7882 30.3914 28.1512 31.0313C27.5143 31.6711 26.7581 32.1787 25.9259 32.5249C25.0937 32.8712 24.2017 33.0494 23.301 33.0494Z" fill="#F1D0A4"/>
<path d="M69.0645 35.8021H68.8725H68.2442C67.3608 35.6713 66.5376 35.2746 65.8832 34.6642C65.2288 34.0538 64.7741 33.2585 64.5789 32.3832C63.6692 32.8217 62.6731 33.0494 61.6641 33.0494C60.6551 33.0494 59.659 32.8217 58.7493 32.3832C58.5504 33.2412 58.1026 34.0207 57.4626 34.623C56.8226 35.2254 56.0192 35.6235 55.1539 35.767H54.5081H54.3161C53.0014 35.767 51.7406 36.2916 50.811 37.2254C49.8814 38.1592 49.3592 39.4258 49.3592 40.7464V48.1628H74.0389V40.7814C74.0342 39.4592 73.5081 38.1927 72.5758 37.2594C71.6434 36.3261 70.3808 35.8021 69.0645 35.8021Z" fill="#F1D0A4"/>
<path d="M69.0645 35.8021H68.8725H68.2442C67.9591 35.7669 67.6784 35.7022 67.4064 35.6093L66.3766 36.6437C65.1331 37.891 63.4476 38.5916 61.6903 38.5916C59.933 38.5916 58.2475 37.891 57.004 36.6437L55.9742 35.6093C55.7077 35.7003 55.4329 35.7649 55.1539 35.8021H54.5081H54.3161C53.0014 35.8021 51.7406 36.3267 50.811 37.2605C49.8814 38.1943 49.3592 39.4608 49.3592 40.7815V48.1979H74.0389V40.7815C74.0342 39.4592 73.5081 38.1928 72.5758 37.2595C71.6434 36.3262 70.3808 35.8021 69.0645 35.8021Z" fill="#512466"/>
<path d="M68.8725 35.8021H68.2442C67.9591 35.7669 67.6784 35.7022 67.4064 35.6093L66.3766 36.6437C65.1331 37.891 63.4476 38.5916 61.6903 38.5916C59.933 38.5916 58.2475 37.891 57.004 36.6437L55.9742 35.6093C55.7077 35.7003 55.4329 35.7649 55.1539 35.8021H54.5081H54.3161C53.0014 35.8021 51.7406 36.3267 50.811 37.2605C49.8814 38.1943 49.3592 39.4608 49.3592 40.7815V45.3926C49.813 45.3926 50.2668 45.3926 50.7206 45.3926C54.5716 45.4709 58.3919 44.6889 61.9054 43.1031C65.4189 41.5173 68.5378 39.1673 71.0368 36.2229C70.4147 35.9493 69.7436 35.8062 69.0645 35.8021H68.8725Z" fill="#744C76"/>
<path d="M61.6991 33.0494C59.8799 33.0494 58.1352 32.3235 56.8488 31.0313C55.5625 29.7391 54.8398 27.9865 54.8398 26.159V23.4064C54.9285 21.6413 55.689 19.978 56.964 18.7602C58.239 17.5425 59.9311 16.8634 61.6904 16.8634C63.4497 16.8634 65.1418 17.5425 66.4168 18.7602C67.6918 19.978 68.4523 21.6413 68.541 23.4064V26.159C68.541 27.9834 67.8207 29.7334 66.5381 31.0251C65.2555 32.3168 63.5153 33.0448 61.6991 33.0494Z" fill="#F1D0A4"/>
<path d="M49.8828 31.6819H49.6734C49.4643 31.6992 49.2541 31.6992 49.045 31.6819C48.1593 31.55 47.3344 31.1507 46.6798 30.5369C46.0252 29.9232 45.5718 29.124 45.3797 28.2455C44.4701 28.684 43.474 28.9117 42.465 28.9117C41.456 28.9117 40.4599 28.684 39.5502 28.2455C39.3413 29.0916 38.8889 29.8572 38.2495 30.4465C37.61 31.0359 36.8118 31.4229 35.9547 31.5592C35.7456 31.5765 35.5354 31.5765 35.3264 31.5592H35.1169C33.8023 31.5592 32.5415 32.0838 31.6119 33.0176C30.6823 33.9514 30.16 35.2179 30.16 36.5385V42.5698H54.8397V36.6613C54.8397 35.3407 54.3175 34.0741 53.3879 33.1403C52.4583 32.2065 51.1975 31.6819 49.8828 31.6819Z" fill="#F1D0A4"/>
<path d="M49.8828 31.6819H49.6734C49.4643 31.6992 49.2541 31.6992 49.045 31.6819C48.766 31.6446 48.4912 31.5801 48.2247 31.489L47.1775 32.541C46.5632 33.1581 45.834 33.6476 45.0314 33.9815C44.2288 34.3155 43.3686 34.4874 42.4999 34.4874C41.6311 34.4874 40.7709 34.3155 39.9683 33.9815C39.1658 33.6476 38.4365 33.1581 37.8223 32.541L36.775 31.489C36.5085 31.5801 36.2338 31.6446 35.9547 31.6819C35.7456 31.6992 35.5354 31.6992 35.3264 31.6819H35.1169C33.8023 31.6819 32.5415 32.2065 31.6119 33.1403C30.6823 34.0741 30.16 35.3406 30.16 36.6612V42.6925H54.8397V36.6612C54.8397 35.3406 54.3175 34.0741 53.3879 33.1403C52.4583 32.2065 51.1975 31.6819 49.8828 31.6819Z" fill="#512466"/>
<path d="M49.6734 31.6819C49.4643 31.6992 49.2541 31.6992 49.045 31.6819C48.766 31.6446 48.4912 31.5801 48.2247 31.489L47.1775 32.541C46.5632 33.1581 45.834 33.6476 45.0314 33.9815C44.2288 34.3155 43.3686 34.4874 42.4999 34.4874C41.6311 34.4874 40.7709 34.3155 39.9683 33.9815C39.1658 33.6476 38.4365 33.1581 37.8223 32.541L36.775 31.489C36.5085 31.5801 36.2337 31.6446 35.9547 31.6819C35.7456 31.6992 35.5354 31.6992 35.3264 31.6819H35.1169C33.8023 31.6819 32.5415 32.2065 31.6119 33.1403C30.6823 34.0741 30.16 35.3406 30.16 36.6612V41.2548C30.6138 41.2548 31.0676 41.2548 31.5389 41.2548C35.3877 41.3355 39.2062 40.5544 42.7172 38.9684C46.2282 37.3823 49.3437 35.031 51.8377 32.0851C51.2211 31.8156 50.5553 31.6783 49.8828 31.6819H49.6734Z" fill="#744C76"/>
<path d="M42.5 28.9117C41.6 28.914 40.7084 28.738 39.8763 28.3936C39.0442 28.0492 38.2879 27.5433 37.6507 26.9049C37.0136 26.2665 36.508 25.508 36.1631 24.673C35.8182 23.838 35.6406 22.9429 35.6406 22.0388V19.2862C35.6406 17.4587 36.3633 15.7061 37.6497 14.4139C38.9361 13.1217 40.6808 12.3958 42.5 12.3958C44.3192 12.3958 46.0639 13.1217 47.3503 14.4139C48.6366 15.7061 49.3593 17.4587 49.3593 19.2862V22.0388C49.3593 22.9429 49.1818 23.838 48.8368 24.673C48.4919 25.508 47.9864 26.2665 47.3492 26.9049C46.712 27.5433 45.9557 28.0492 45.1236 28.3936C44.2915 28.738 43.3999 28.914 42.5 28.9117Z" fill="#F1D0A4"/>
<path d="M47.9803 67.484L76.7966 59.6117C77.9031 59.2767 79.0873 59.3052 80.1766 59.6931C81.2659 60.0809 82.2036 60.808 82.853 61.7683C83.4125 62.6543 83.7092 63.6821 83.7083 64.7313V66.0989L39.7596 81.2473L31.5389 78.4946H20.5604V56.4558H37.0194L47.9803 67.484Z" fill="#F1D0A4"/>
<path d="M1.37891 53.7031H12.3399V83.9999H1.37891V53.7031Z" fill="#512466"/>
<path d="M12.3397 53.7031H20.5605V81.2473H12.3397V53.7031Z" fill="#744C76"/>
<path d="M43.8612 74.1289C43.1709 74.1306 42.4871 73.9952 41.849 73.7304C41.211 73.4656 40.6314 73.0767 40.1436 72.5861L33.2842 65.6956L35.2216 63.7495L42.081 70.6399C42.5647 70.9694 43.1475 71.1192 43.7293 71.0637C44.3111 71.0081 44.8555 70.7507 45.2687 70.3355C45.682 69.9204 45.9383 69.3736 45.9936 68.7892C46.0489 68.2047 45.8997 67.6192 45.5717 67.1333L36.4434 57.8584H20.5604V55.0882H37.0194C37.1983 55.086 37.3758 55.1206 37.5409 55.1899C37.706 55.2593 37.8552 55.3619 37.9793 55.4915L47.5789 65.1346C48.0671 65.6232 48.4544 66.2039 48.7187 66.8432C48.9829 67.4826 49.119 68.168 49.119 68.8603C49.119 69.5526 48.9829 70.2381 48.7187 70.8774C48.4544 71.5167 48.0671 72.0974 47.5789 72.5861C47.0911 73.0767 46.5115 73.4656 45.8734 73.7304C45.2354 73.9952 44.5516 74.1306 43.8612 74.1289Z" fill="#ECBB88"/>
<path d="M82.9928 55.7195L80.3747 54.8779C80.6365 54.0363 80.8809 53.1246 81.0903 52.3356L83.7433 53.0019C83.5339 53.9136 83.2721 54.7551 82.9928 55.7195ZM84.3368 50.2492L81.6314 49.7758C81.7885 48.9167 81.9107 48.0225 82.0154 47.1634L84.7382 47.479C84.6335 48.4082 84.4938 49.3375 84.3368 50.2492ZM0.558522 49.9511C0.453799 49.092 0.331622 48.0927 0.226899 47.1634L2.94969 46.8829C3.05441 47.7595 3.15914 48.6362 3.31622 49.4778L0.558522 49.9511ZM84.8953 44.6913L82.155 44.5686C82.155 43.9549 82.155 43.3237 82.155 42.7101C82.155 42.4471 82.155 42.1841 82.155 41.9211H84.8953C84.8953 42.2016 84.8953 42.4821 84.8953 42.7627C84.8953 43.4289 84.8953 44.0776 84.8953 44.7439V44.6913ZM0 44.3582C0 43.7971 0 43.2536 0 42.6925C0 42.1315 0 41.9211 0 41.5354H2.74025C2.74025 41.886 2.74025 42.2367 2.74025 42.6049C2.74025 42.9731 2.74025 43.6393 2.74025 44.1653L0 44.3582ZM82.0329 39.2912C82.0329 38.397 81.8409 37.5379 81.7187 36.6788L84.424 36.258C84.5637 37.1872 84.6858 38.1165 84.7556 39.0457L82.0329 39.2912ZM2.91478 38.9931L0.174538 38.7301C0.174538 37.8009 0.383984 36.8716 0.523614 35.9424L3.22895 36.3807C3.10678 37.2398 2.9846 38.1165 2.91478 38.9931ZM81.3347 34.0839C81.1427 33.2248 80.9333 32.3306 80.6889 31.5416L83.3244 30.7702C83.5862 31.6644 83.8131 32.5235 84.0051 33.4878L81.3347 34.0839ZM3.73511 33.8034L1.06468 33.1897C1.25667 32.278 1.50103 31.4364 1.76283 30.4721L4.39836 31.2611C4.154 32.0851 3.9271 32.9443 3.73511 33.8034ZM79.8686 29.0344C79.5719 28.2104 79.2577 27.4039 78.9086 26.5974L81.4045 25.4928C81.7885 26.3344 82.1376 27.2461 82.4517 28.1052L79.8686 29.0344ZM5.23614 28.7714L2.67043 27.8071C3.00205 26.9305 3.35113 26.0538 3.73511 25.1947L6.21355 26.2993C5.86448 27.0883 5.53285 27.8948 5.21869 28.7364L5.23614 28.7714ZM77.7741 24.2304C77.3727 23.459 76.9538 22.7051 76.5 21.9511L78.8388 20.5134C79.3275 21.32 79.7813 22.144 80.2177 22.968L77.7741 24.2304ZM7.38296 23.9674L4.95688 22.67C5.39322 21.8459 5.86448 21.0219 6.35318 20.2329L8.7269 21.6881C8.2731 22.4245 7.83676 23.196 7.43532 23.9674H7.38296ZM75.0513 19.7595C74.5452 19.0407 74.0216 18.3394 73.463 17.6556L75.6099 15.9023C76.1858 16.6387 76.7443 17.3751 77.3552 18.1465L75.0513 19.7595ZM10.1407 19.4965L7.90657 17.8835C8.44764 17.1296 9.02361 16.3757 9.65195 15.6568L11.7813 17.4101C11.1704 18.0764 10.6468 18.7777 10.1407 19.4965ZM71.77 15.6568C71.1766 15.0081 70.5657 14.3769 69.9199 13.7808L71.8224 11.7821C72.5031 12.4308 73.1489 13.1146 73.7772 13.7984L71.77 15.6568ZM13.4569 15.4289L11.4497 13.5354C12.0955 12.8516 12.7587 12.1853 13.422 11.5541L15.307 13.5704C14.6786 14.149 14.0503 14.7802 13.4569 15.4289ZM67.9651 12.0275C67.3018 11.4665 66.6211 10.923 65.9055 10.4145L67.5287 8.18783C68.2793 8.73135 69.0123 9.30994 69.7279 9.94112L67.9651 12.0275ZM17.3491 11.8171L15.6037 9.69566C16.3193 9.09954 17.0524 8.53849 17.8203 7.94237L19.4086 10.1866C18.6407 10.7301 17.9425 11.2736 17.2618 11.8171H17.3491ZM63.7413 8.92422C63.0082 8.45083 62.2577 8.01251 61.4897 7.59172L62.8337 5.25984C63.6598 5.7157 64.4627 6.18909 65.2423 6.68001L63.7413 8.92422ZM21.5205 8.76642L20.0719 6.41701C20.8573 5.92609 21.6776 5.45271 22.4979 5.01438L23.7895 7.45145C23.0216 7.85471 22.2536 8.29303 21.5205 8.76642ZM59.1509 6.41701C58.348 6.04882 57.5452 5.69817 56.7248 5.38257L57.7023 2.82277C58.5749 3.1559 59.4476 3.52409 60.2854 3.90981L59.1509 6.41701ZM26.1807 6.27675L25.0462 3.76955C25.9014 3.40136 26.7916 3.03317 27.6294 2.70004L28.537 5.25984C27.7341 5.57544 26.9138 5.90856 26.1283 6.25922L26.1807 6.27675ZM54.2988 4.52346C53.4784 4.278 52.5534 4.03254 51.768 3.83968L52.3614 1.15715C53.269 1.36755 54.1068 1.61301 55.0667 1.89353L54.2988 4.52346ZM31.0852 4.4358L30.23 1.75327C31.1201 1.49028 31.9754 1.24482 32.9353 1.03442L33.5462 3.71695C32.7084 3.96241 31.8532 4.19034 31.0329 4.4358H31.0852ZM49.2197 3.3137C48.3645 3.17343 47.4743 3.0507 46.6191 2.96304L46.846 0.227909C47.7885 0.30973 48.7136 0.43246 49.6211 0.5961L49.2197 3.3137ZM36.1817 3.3137L35.693 0.543501C36.653 0.403238 37.5431 0.280508 38.3984 0.192844L38.6427 2.92797C37.77 3.01564 36.8973 3.12083 36.0595 3.2611L36.1817 3.3137ZM44.001 2.84031H42.4302H41.383V0.0876465H42.6222H44.1756L44.001 2.84031Z" fill="#E5531C"/>
</svg>
