<svg width="17" height="17" viewBox="0 0 17 17" fill="none" xmlns="http://www.w3.org/2000/svg">
<path d="M8.49992 12.0416C8.87564 12.0416 9.23598 11.8923 9.50165 11.6267C9.76733 11.361 9.91658 11.0006 9.91658 10.6249C9.91658 9.83867 9.27908 9.20825 8.49992 9.20825C8.12419 9.20825 7.76386 9.35751 7.49818 9.62319C7.23251 9.88886 7.08325 10.2492 7.08325 10.6249C7.08325 11.0006 7.23251 11.361 7.49818 11.6267C7.76386 11.8923 8.12419 12.0416 8.49992 12.0416ZM12.7499 5.66659C13.1256 5.66659 13.486 5.81584 13.7517 6.08152C14.0173 6.34719 14.1666 6.70753 14.1666 7.08325V14.1666C14.1666 14.5423 14.0173 14.9026 13.7517 15.1683C13.486 15.434 13.1256 15.5833 12.7499 15.5833H4.24992C3.8742 15.5833 3.51386 15.434 3.24818 15.1683C2.98251 14.9026 2.83325 14.5423 2.83325 14.1666V7.08325C2.83325 6.297 3.47075 5.66659 4.24992 5.66659H4.95825V4.24992C4.95825 3.31061 5.33139 2.40977 5.99558 1.74558C6.65977 1.08139 7.56061 0.708252 8.49992 0.708252C8.96502 0.708252 9.42556 0.79986 9.85525 0.977845C10.2849 1.15583 10.6754 1.41671 11.0043 1.74558C11.3331 2.07446 11.594 2.46489 11.772 2.89458C11.95 3.32428 12.0416 3.78482 12.0416 4.24992V5.66659H12.7499ZM8.49992 2.12492C7.93633 2.12492 7.39583 2.3488 6.99732 2.74732C6.5988 3.14583 6.37492 3.68633 6.37492 4.24992V5.66659H10.6249V4.24992C10.6249 3.68633 10.401 3.14583 10.0025 2.74732C9.60401 2.3488 9.0635 2.12492 8.49992 2.12492Z" fill="#545358"/>
</svg>
