<svg width="257" height="248" viewBox="0 0 257 248" fill="none" xmlns="http://www.w3.org/2000/svg">
<path opacity="0.3" d="M76.8749 221.289H152.722C172.521 221.289 188.573 205.343 188.573 185.674V62.962C188.573 43.2925 172.521 27.3461 152.722 27.3461H76.8749C57.0757 27.3461 41.0242 43.2925 41.0242 62.962V185.674C41.0242 205.343 57.0757 221.289 76.8749 221.289Z" fill="#3E82D7"/>
<path d="M212.186 0.0164822C180 2.07568 179.403 38.4328 179.403 38.4328V211.521H50.1943V38.4164C50.1943 38.4164 50.0451 2.19099 83.1432 7.62939e-06H212.186V0.0164822Z" fill="url(#paint0_linear)"/>
<path d="M155.906 45.2364H67.1577V53.0119H155.906V45.2364Z" fill="#9E84AF"/>
<path d="M142.938 63.2256H67.1577V68.7277H142.938V63.2256Z" fill="#9E84AF"/>
<path d="M105.247 77.7717H67.1577V85.9591H105.247V77.7717Z" fill="#9E84AF"/>
<path d="M155.906 77.7717H116.506V85.9591H155.906V77.7717Z" fill="#9E84AF"/>
<path d="M127.849 93.5204H67.1577V99.3521H127.849V93.5204Z" fill="#9E84AF"/>
<path d="M135.526 108.116H67.1577V111.361H135.526V108.116Z" fill="#9E84AF"/>
<path d="M149.372 122.695H67.1577V125.94H149.372V122.695Z" fill="#9E84AF"/>
<path d="M105.513 155.379H66.8926V137.027H105.513V155.379ZM67.4232 154.852H104.998V137.538H67.4232V154.852Z" fill="#9E84AF"/>
<path d="M149.389 137.291H114.798V141.508H149.389V137.291Z" fill="#9E84AF"/>
<path d="M139.307 146.203H114.798V150.42H139.307V146.203Z" fill="#9E84AF"/>
<path d="M134.913 166.449H67.1577V169.694H134.913V166.449Z" fill="#9E84AF"/>
<path d="M106.109 181.044H67.1577V184.29H106.109V181.044Z" fill="#9E84AF"/>
<path d="M166.237 189.611H141.894V165.428H166.237V189.611ZM144.182 187.337H163.965V167.684H144.182V187.337Z" fill="#E95E2A"/>
<path d="M154.447 182.577L145.89 174.554L148.494 171.819L154.629 177.552L168.011 166.614L170.432 169.53L154.447 182.577Z" fill="#E95E2A"/>
<path d="M68.4516 184.422C68.4516 184.422 68.9822 184.916 69.1646 185.394C69.3138 185.772 69.7947 186.25 70.0269 186.53C70.259 186.81 71.1047 188.128 71.2374 188.491C71.2871 188.639 71.2208 189.677 71.3534 189.973C71.4861 190.27 71.8343 190.83 71.569 190.929C71.3037 191.027 70.856 190.616 70.856 190.616C70.856 190.616 70.9555 190.896 70.7565 191.06C70.3585 191.373 70.0766 191.242 70.0766 191.242C70.0766 191.242 69.9937 191.588 69.7947 191.686C69.3636 191.884 69.0817 191.752 69.0817 191.752C69.0817 191.752 68.9324 191.966 68.6008 192.049C68.1862 192.131 67.9209 191.835 67.9209 191.835C67.9209 191.835 67.44 192.065 67.2079 191.851C66.9923 191.653 66.9426 191.39 66.8099 191.176C66.6938 190.978 66.1632 189.001 66.4285 187.42C66.6939 185.855 65.4502 184.669 65.4502 184.669L68.4516 184.422Z" fill="#F7C29E"/>
<path d="M72.8289 196.513H65.9971C65.3006 196.513 64.7368 195.953 64.7368 195.261V190.978C64.7368 190.286 65.3006 189.726 65.9971 189.726H72.8289C73.5254 189.726 74.0891 190.286 74.0891 190.978V195.261C74.0726 195.953 73.5088 196.513 72.8289 196.513ZM65.9805 190.566C65.7483 190.566 65.5659 190.747 65.5659 190.978V195.261C65.5659 195.492 65.7483 195.673 65.9805 195.673H72.8123C73.0445 195.673 73.2269 195.492 73.2269 195.261V190.978C73.2269 190.747 73.0445 190.566 72.8123 190.566H65.9805Z" fill="#1A232F"/>
<path d="M82.2147 194.668H56.5786V212.921H82.2147V194.668Z" fill="#5A5C5A"/>
<path d="M58.5186 145.84C58.5186 145.84 57.2086 145.857 56.6448 149.761C56.081 153.665 57.1423 155.296 57.2749 156.911C57.4076 158.525 59.3146 169.019 59.3643 169.48C59.4141 169.941 59.6794 175.526 60.4256 177.008C61.1718 178.491 66.6605 186.876 66.7434 187.304C66.8097 187.716 69.4131 185.838 69.4131 185.838C69.4131 185.838 65.1017 176.86 64.853 175.839C64.6043 174.817 62.8631 169.579 63.145 167.981C63.4269 166.383 62.3823 157.57 62.4818 156.598C62.5647 155.626 61.0391 146.434 58.5186 145.84Z" fill="#F7C29E"/>
<path d="M58.5185 145.84C58.5185 145.84 57.2085 145.857 56.6447 149.761C56.081 153.665 56.595 155.066 56.9266 156.762C57.2417 158.36 58.3361 168.129 58.3859 168.59C58.4356 169.052 59.7456 174.949 60.4255 177.008C60.9395 178.59 65.8478 186.827 65.9142 187.255C65.9805 187.667 69.7281 185.328 69.7281 185.328C69.7281 185.328 64.9358 176.037 64.6871 175.015C64.4384 173.994 63.6258 170.452 63.5927 168.821C63.5595 166.91 62.349 157.586 62.4651 156.598C62.5646 155.626 62.1832 147.175 58.5185 145.84Z" fill="#E95E2A"/>
<path d="M47.5249 236.824C47.5249 236.824 49.8133 240.201 50.7419 241.008C50.7419 241.008 52.8644 241.75 52.997 243.183C53.0799 244.122 52.997 245.621 50.576 245.687C48.1551 245.753 46.5963 244.913 46.1486 243.463C45.7009 241.997 44.8718 241.354 44.8718 241.354V244.402H44.3246C44.3246 244.402 44.1919 241.453 44.1587 240.909C44.1256 240.366 43.7608 238.274 44.9215 237.351C46.0657 236.429 47.5249 236.824 47.5249 236.824Z" fill="#BF4019"/>
<path d="M63.0458 234.122C63.0458 234.122 63.4438 235.045 64.19 236.017C64.7372 236.725 66.4452 239.641 67.1914 239.855C67.9376 240.053 70.2591 240.465 70.4746 241.75C70.6736 243.035 70.7897 243.957 68.5014 244.056C66.213 244.155 64.7206 244.287 63.6262 242.705C62.5318 241.107 60.7907 239.954 60.7907 239.954V244.105H59.9118C59.9118 244.105 59.4973 239.773 59.2651 239.476C59.033 239.18 58.4194 235.852 60.5254 234.122C62.6147 232.393 63.0458 234.122 63.0458 234.122Z" fill="#BF4019"/>
<path d="M45.9991 171.704C45.9991 171.704 43.1139 175.427 42.3345 179.858C41.5551 184.29 42.7988 199.132 42.7656 201.323C42.7325 203.514 40.6763 208.951 41.0908 213.069C41.5054 217.187 44.9213 237.351 44.9213 237.351L47.5413 236.824C47.5413 236.824 47.2926 215.919 47.5413 214.189C47.79 212.46 48.3041 206.15 48.4202 205.442C48.5197 204.733 54.9204 186.036 54.9204 182.84C54.9038 179.661 52.9637 166.498 45.9991 171.704Z" fill="#F7C29E"/>
<path d="M60.4922 173.154C60.4922 173.154 65.2347 191.143 65.7985 193.63C66.3623 196.118 67.1748 198.177 67.1748 199.231C67.1748 201.686 66.2628 205.623 66.2628 205.623L63.0293 234.106H60.4922C60.4922 234.106 58.8837 217.468 58.635 214.123C58.3862 210.763 60.4756 205.574 59.9616 204.157C59.4475 202.74 51.7202 186.3 51.7202 186.3C51.7202 186.3 45.8667 167.932 60.4922 173.154Z" fill="#F7C29E"/>
<path d="M51.1229 241.189C51.1229 241.189 49.133 242.211 47.3255 240.86C45.5181 239.509 44.9045 237.351 44.9045 237.351L47.5245 236.824L51.1229 241.189Z" fill="#F7C29E"/>
<path d="M67.1913 239.855C67.1913 239.855 65.1351 240.366 64.3558 239.855C63.5764 239.344 60.9067 234.864 60.0112 234.6C60.0112 234.6 60.8735 232.87 63.0292 234.122C63.0458 234.122 66.6109 239.114 67.1913 239.855Z" fill="#F7C29E"/>
<path d="M66.5779 196.513C66.5779 196.513 57.8556 201.603 41.5222 201.603C41.5222 201.603 40.5936 182.774 42.9648 177.486C45.3361 172.182 61.1058 175.476 61.1058 175.476C61.1058 175.476 66.0141 192.609 66.5779 196.513Z" fill="#2C3D54"/>
<path d="M54.6552 144.44C54.6552 144.44 57.1923 145.626 58.0712 145.808C58.95 145.989 62.366 150.387 62.9629 152.002C63.5599 153.616 62.9629 156.021 61.7358 158.855C60.5087 161.688 61.6695 162.627 61.1057 165.461C60.5419 168.294 60.0444 174.29 60.1605 175.855C60.26 177.42 45.933 177.733 42.6497 174.85C42.6497 174.85 45.933 169.958 46.3641 169.249C46.7787 168.558 46.4305 164.736 46.0491 163.764C45.6677 162.792 43.0808 154.456 43.0808 154.456C43.0808 154.456 40.9749 148.064 42.8819 146.598C44.5401 145.33 49.0504 144.869 49.8464 144.588C50.6589 144.308 53.0136 144.193 54.6552 144.44Z" fill="#F3E4DC"/>
<path d="M55.4676 150.058L57.0097 148.262L55.6665 143.551C55.6665 143.551 55.2188 146.17 55.4676 150.058Z" fill="#CFC3BC"/>
<path d="M51.4711 126.583C52.9801 126.056 58.502 124.771 59.812 131.789C61.122 138.823 57.2086 143.814 53.6103 142.48C50.0285 141.146 47.8065 136.286 47.5909 132.579C47.3753 128.889 49.5642 127.242 51.4711 126.583Z" fill="#F7C29E"/>
<path d="M59.8122 131.789C59.8122 131.789 60.0775 125.776 54.0582 125.562C48.0389 125.347 46.4138 130.273 46.9112 133.864C47.4087 137.455 49.896 139.35 49.896 139.35C49.896 139.35 49.6805 136.451 50.8412 135.693C52.002 134.935 56.6948 133.436 58.7344 129.943C58.7344 129.927 59.6796 131.031 59.8122 131.789Z" fill="#BF4019"/>
<path d="M52.3006 131.146C51.5047 133.535 49.15 134.918 47.0441 134.243C44.9382 133.551 43.8769 131.047 44.6563 128.659C45.4522 126.27 47.8069 124.886 49.9128 125.562C52.0354 126.253 53.0966 128.757 52.3006 131.146Z" fill="#BF4019"/>
<path d="M55.8658 141.541C55.8658 141.541 55.3517 146.154 55.4678 147.669C55.4678 147.669 52.8312 150.288 49.8464 144.605C49.8464 144.605 51.1067 142.266 50.1615 139.07C49.1997 135.874 55.8658 141.541 55.8658 141.541Z" fill="#F7C29E"/>
<path d="M55.4677 147.653V150.058L52.4331 147.801L55.4677 147.653Z" fill="#F7C29E"/>
<path d="M55.4678 150.058L54.2075 148.509L49.9791 144.308L48.6028 145.626L55.4678 150.058Z" fill="#CFC3BC"/>
<path d="M49.382 144.704C49.382 144.704 52.9306 150.058 53.113 152.43C53.2788 154.786 51.7865 172.445 50.5925 178.112C49.3986 183.779 40.7593 177.47 40.7593 177.47C40.7593 177.47 46.563 168.146 44.341 160.683C42.119 153.221 41.3065 150.239 41.3065 150.239C41.3065 150.239 42.0693 146.088 44.7888 145.495C47.1766 144.984 49.382 144.704 49.382 144.704Z" fill="#E95E2A"/>
<path d="M63.1951 152.71C63.1951 152.71 63.8418 154.967 61.3379 159.942C61.3379 159.942 61.3711 166.317 61.454 168.31C61.5203 170.304 62.0012 177.832 62.0012 177.832L59.5305 179.265C59.033 179.562 58.4194 179.15 58.4858 178.59C59.1822 172.857 61.4706 151.096 56.5457 145.264L58.5189 145.84C58.5189 145.84 62.0178 148.69 63.1951 152.71Z" fill="#E95E2A"/>
<path d="M51.4547 134.408C51.2391 133.864 50.5095 133.699 50.0784 134.012C49.6638 134.325 49.4151 135.264 50.0784 136.5C50.7583 137.735 53.113 138.576 51.4547 134.408Z" fill="#F7C29E"/>
<path d="M57.0099 148.262L58.95 148.789L55.6667 143.551L57.0099 148.262Z" fill="#F3E4DC"/>
<path d="M54.2073 148.509L52.433 150.816L48.8015 144.786L49.9788 144.308L54.2073 148.509Z" fill="#F3E4DC"/>
<path d="M55.7661 142.546L55.6832 143.468C55.6832 143.468 53.5938 143.864 50.8578 140.536C50.8412 140.553 52.7979 142.908 55.7661 142.546Z" fill="#997761"/>
<path d="M66.5281 170.814C66.5281 170.814 67.7552 171.605 68.4682 171.16C69.0651 170.781 70.1264 170.732 70.4415 170.716C70.8726 170.699 72.1826 170.139 72.2158 170.683C72.2489 171.226 70.1098 171.704 69.6787 171.902C69.2476 172.099 71.1379 173.005 71.3369 173.434C71.5525 173.862 69.8445 176.877 68.634 176.102C67.4235 175.328 66.6276 173.697 66.3954 173.598C66.1467 173.5 65.4834 173.071 65.4834 173.071L66.5281 170.814Z" fill="#F7C29E"/>
<path d="M43.1636 146.335C43.1636 146.335 44.8716 145.906 46.3474 147.488C47.8232 149.069 48.5694 151.656 48.9508 152.479C49.3322 153.32 54.2239 161.079 54.5058 161.26C54.7877 161.441 59.7624 165.411 62.0176 167.553C64.2727 169.678 68.667 172.066 68.667 172.066L67.0088 174.373C67.0088 174.373 53.6767 167.306 51.9853 164.719C50.2939 162.133 43.545 154.967 43.545 154.967C43.545 154.967 39.5155 148.938 43.1636 146.335Z" fill="#F7C29E"/>
<path d="M71.121 173.187C71.121 173.187 74.6861 175.806 74.7856 176.185C74.8685 176.564 74.7193 176.745 74.3711 176.514C74.0229 176.284 70.8391 174.076 70.8391 174.076C70.8391 174.076 74.5369 177.882 74.6861 178.178C74.769 178.343 74.4872 178.722 74.2882 178.606C74.0892 178.491 70.2089 174.933 70.2089 174.933C70.2089 174.933 73.6581 178.491 73.7078 178.771C73.741 179.018 73.4093 179.298 73.1274 179.051C72.8455 178.804 69.4627 175.674 69.4627 175.674C69.4627 175.674 71.8174 178.425 71.7179 178.672C71.6516 178.837 71.436 179.167 70.8557 178.442C70.2753 177.717 68.7166 176.135 68.7166 176.135L71.121 173.187Z" fill="#F7C29E"/>
<path d="M61.9346 158.69C61.9346 158.69 62.0507 166.647 61.5698 170.501L61.3542 159.942L61.9346 158.69Z" fill="#2F386C"/>
<path d="M44.0426 145.742C44.0426 145.742 45.0209 145.906 46.4967 147.471C47.9725 149.053 48.7187 151.639 49.1001 152.463C49.4815 153.303 54.3733 161.062 54.6552 161.243C54.9371 161.424 59.0163 164.192 61.2549 166.334C63.51 168.459 67.7053 171.012 67.7053 171.012L65.5497 174.191C65.5497 174.191 53.7929 167.717 51.9191 165.263C49.9292 162.627 42.8155 154.901 42.8155 154.901C42.8155 154.901 38.2222 147.85 44.0426 145.742Z" fill="#E95E2A"/>
<path d="M70.8724 190.418C70.8724 190.418 70.4081 188.639 69.8443 188.375C69.2639 188.112 69.3966 188.754 69.3966 188.754C69.3966 188.754 69.2805 188.112 68.7499 188.145C68.2193 188.178 68.4017 188.935 68.4017 188.935C68.4017 188.935 68.1861 188.474 67.672 188.705C67.158 188.935 67.473 189.512 67.473 189.512C67.473 189.512 66.7932 189.034 66.6274 189.693C66.3455 190.813 67.1912 191.868 67.1912 191.868C67.1912 191.868 67.4565 192.098 67.9208 191.851C67.9208 191.851 68.468 192.461 69.0981 191.785C69.0981 191.785 70.0101 192.032 70.0931 191.275C70.0931 191.275 71.1377 191.439 70.8724 190.418Z" fill="#C99A7D"/>
<path d="M52.0688 167.124L48.0393 160.667C48.0393 160.667 51.4718 164.686 51.8366 165.131C52.2015 165.559 52.218 165.592 52.218 165.592C52.218 165.592 52.1185 166.91 52.0688 167.124Z" fill="#2F386C"/>
<path d="M168.741 85.2836H131.829V112.794V118.593L137.467 112.794H168.741V85.2836Z" fill="#AD8DCE"/>
<path d="M0 87.6064H36.8954V115.117V120.916L31.274 115.117H0V87.6064Z" fill="#AD8DCE"/>
<path d="M22.9992 97.5894C22.8666 97.4412 22.6676 97.2764 22.4023 97.0952C22.137 96.914 21.8219 96.7493 21.4737 96.5845C21.1254 96.4198 20.7441 96.288 20.3129 96.1727C19.8984 96.0574 19.4672 95.9915 19.0195 95.9585L19.0029 100.67L19.4341 100.769C20.2632 100.967 21.0094 101.197 21.6561 101.428C22.3194 101.675 22.8832 101.971 23.3309 102.317C23.7952 102.663 24.1434 103.092 24.3921 103.602C24.6409 104.113 24.7735 104.722 24.7569 105.464C24.7569 106.271 24.6077 106.946 24.3092 107.523C24.0108 108.083 23.6128 108.561 23.0987 108.94C22.5847 109.319 21.9877 109.599 21.3079 109.78C20.628 109.961 19.8983 110.06 19.119 110.076V112.465H17.9251V110.027C16.8306 109.945 15.786 109.73 14.791 109.368C13.7961 109.006 12.9006 108.511 12.0715 107.869L13.2489 105.694C13.4147 105.876 13.6634 106.073 13.9785 106.287C14.2936 106.502 14.675 106.699 15.1061 106.897C15.5372 107.095 16.0015 107.276 16.5156 107.424C17.0296 107.572 17.5603 107.688 18.1075 107.754L18.124 103.042C18.0246 103.009 17.9417 102.993 17.8422 102.96C17.7427 102.943 17.6432 102.91 17.5602 102.877C16.7477 102.663 16.0513 102.433 15.4377 102.202C14.8408 101.971 14.3433 101.675 13.9453 101.345C13.5474 101.016 13.2489 100.621 13.0499 100.176C12.8509 99.731 12.7514 99.1874 12.7514 98.5449C12.7514 97.8036 12.8841 97.1446 13.1494 96.5681C13.4147 95.9915 13.7795 95.4973 14.2604 95.0854C14.7413 94.6736 15.2885 94.3441 15.9186 94.1135C16.5487 93.8829 17.2452 93.7346 18.008 93.6852V91.3954H19.2019V93.6852C20.1968 93.7511 21.1088 93.9488 21.9545 94.2782C22.8002 94.6077 23.5299 95.0195 24.1766 95.4973L22.9992 97.5894ZM15.4377 98.166C15.4377 98.8085 15.6533 99.2862 16.101 99.5992C16.5487 99.9122 17.2286 100.209 18.1406 100.439L18.1572 95.9585C17.2286 96.008 16.5322 96.2221 16.101 96.601C15.6699 96.9964 15.4543 97.5071 15.4377 98.166ZM22.0375 105.727C22.0375 105.052 21.7722 104.558 21.2415 104.212C20.7109 103.866 19.9647 103.553 19.0029 103.289L18.9863 107.787C19.9647 107.77 20.7109 107.589 21.2415 107.243C21.7722 106.913 22.0375 106.403 22.0375 105.727Z" fill="white"/>
<path d="M196.233 190.747C196.233 190.747 194.923 191.011 194.31 191.027C193.68 191.044 190.811 189.743 189.882 189.874C188.954 189.99 182.951 192.527 182.686 192.724C182.42 192.905 182.818 193.317 182.818 193.317L196.615 193.482L196.233 190.747Z" fill="#F7C29E"/>
<path d="M177.914 195.268L200.864 195.441L200.88 193.349L177.93 193.176L177.914 195.268Z" fill="#363957"/>
<path d="M171.238 173.48L177.949 195.283L179.963 194.671L173.252 172.868L171.238 173.48Z" fill="#363957"/>
<path d="M219.846 237.466L220.725 239.377C220.725 239.377 224.456 237.994 224.473 237.944C224.489 237.895 223.445 235.308 223.445 235.308L219.846 237.466Z" fill="#525368"/>
<path d="M187.909 237.434L186.881 240.432C186.881 240.432 190.977 241.321 191.574 241.288C191.624 241.288 192.353 237.895 192.353 237.895L187.909 237.434Z" fill="#6A6B87"/>
<path d="M192.022 240.399C192.022 240.399 189.17 239.624 189.07 239.509C188.987 239.394 187.943 238.685 187.395 238.768C186.848 238.85 186.799 239.493 186.268 239.624C185.721 239.756 181.542 241.091 180.978 241.42C180.398 241.766 177.629 240.761 177.098 241.47C176.567 242.178 176.053 244.056 180.398 244.698C184.742 245.341 189.385 247.268 190.43 247.005C191.475 246.758 192.188 241.552 192.022 240.399Z" fill="#26283A"/>
<path d="M224.771 237.434C224.771 237.434 222.118 238.554 221.986 238.521C221.853 238.471 220.626 238.57 220.261 238.966C219.896 239.361 220.261 239.872 219.929 240.3C219.598 240.728 217.707 243.199 217.16 243.776C216.713 244.237 214.225 244.682 213.429 245.506C212.832 246.132 213.529 248.619 217.757 247.433C221.87 246.28 226.96 244.27 227.59 243.446C228.204 242.623 225.584 238.224 224.771 237.434Z" fill="#26283A"/>
<path d="M222.052 200.104C222.052 200.104 210.395 205.261 207.924 207.007C205.453 208.77 200.048 212.015 199.865 212.806C199.683 213.596 198.621 212.822 200.528 216.792C202.452 220.762 211.506 230.3 212.368 231.338C213.247 232.426 219.548 238.9 219.548 238.9L224.274 235.358C224.274 235.358 215.187 222.064 213.86 220.12C212.55 218.159 211.953 217.879 212.733 217.006C213.512 216.15 216.613 216.15 232.631 209.577C234.223 208.918 238.701 207.402 239.281 205.261C240.342 201.406 239.43 196.513 235.135 194.372C230.824 192.214 222.052 200.104 222.052 200.104Z" fill="#2E3048"/>
<path d="M216.497 162.841C216.597 162.924 216.713 163.121 216.829 163.401C216.995 163.797 217.177 164.324 217.343 164.917C217.873 166.762 218.354 169.118 218.354 169.118C218.354 169.118 225.02 163.599 224.075 163.253C223.13 162.907 222.433 161.293 222.433 161.293C222.433 161.293 215.801 162.215 216.497 162.841Z" fill="#F7C29E"/>
<path d="M222.235 198.029C222.235 198.029 210.196 200.846 207.211 201.785C204.226 202.724 199.119 204.388 197.743 205.178C197.013 205.59 195.902 206.216 194.559 210.532C193.05 215.425 189.584 229.213 188.805 231.355C188.307 232.706 186.898 238.01 186.898 238.01L193.05 239.064C193.05 239.064 200.379 224.403 200.976 220.499C201.971 213.926 204.541 213.893 205.586 213.283C206.631 212.69 211.622 213.81 229.365 212.394C231.139 212.245 235.998 212.163 237.241 210.269C239.513 206.826 241.802 202.921 238.27 199.478C234.738 196.035 222.235 198.029 222.235 198.029Z" fill="#2E3048"/>
<path d="M214.159 149.003C214.159 149.003 212.07 152.578 212.551 153.55C213.032 154.522 210.378 156.878 210.81 157.388C211.241 157.883 212.136 158.492 212.12 158.64C212.103 158.789 212.882 163.451 213.91 163.55C214.939 163.648 221.92 163.286 222.5 161.128C223.08 158.953 224.788 154.193 225.186 153.319C225.601 152.413 221.571 145.577 214.159 149.003Z" fill="#F7C29E"/>
<path d="M222.765 148.312C223.345 148.74 223.81 149.201 224.191 149.662C224.655 149.877 227.358 151.211 226.795 152.661C226.032 154.604 222.981 159.794 222.715 160.337C222.682 160.403 222.682 160.271 222.699 159.975C222.516 158.146 220.245 156.087 220.245 156.087L219.034 155.543C219.664 154.374 219.415 153.287 219.415 153.287C218.039 151.82 213.479 150.255 213.479 150.255C214.142 143.765 219.714 146.055 222.765 148.312Z" fill="#234077"/>
<path d="M220.709 154.555C221.024 154.061 222.732 154.143 222.483 155.593C222.234 157.043 220.145 158.196 219.697 157.553C219.233 156.911 220.361 155.082 220.709 154.555Z" fill="#F7C29E"/>
<path d="M224.092 163.237C224.092 163.237 232.549 168.129 234.455 176.663C236.362 185.196 239.812 200.203 239.878 201.982C239.878 201.982 228.436 196.513 222.251 198.012C222.251 198.012 218.354 184.092 216.298 180.814C214.242 177.519 217.293 169.793 217.293 169.793C217.293 169.793 220.195 165.164 224.092 163.237Z" fill="#4385D8"/>
<path d="M254.885 167.058L248.07 186.893C248.02 187.041 247.987 187.206 247.97 187.354L246.345 213.432L217.873 214.058L209.582 244.056C209.334 244.962 209.499 245.934 210.047 246.708C210.411 247.219 210.926 247.664 211.639 247.746C213.446 247.96 249.993 247.746 249.993 247.746V246.247C249.993 245.506 249.363 244.896 248.6 244.896H214.441C213.877 244.896 213.33 244.649 212.998 244.221C212.799 243.974 212.65 243.644 212.7 243.298C212.849 242.343 220.145 217.896 220.145 217.896L247.672 217.418C248.932 217.402 249.943 216.43 249.993 215.211L251.187 187.14C251.187 186.959 251.22 186.777 251.27 186.613L256.842 167.651C256.842 167.651 257.422 166.334 256.361 166.202C255.283 166.103 255.018 166.712 254.885 167.058Z" fill="#5E5E5B"/>
<path d="M217.741 214.634C217.741 214.634 217.724 212.476 220.709 212.311C224.142 212.13 246.445 211.982 246.445 211.982L246.296 214.288L217.741 214.634Z" fill="#C59661"/>
<path d="M203.961 196.974V197.979H155.474V196.974C155.474 196.035 156.105 195.261 156.9 195.261H202.551C203.314 195.278 203.961 196.035 203.961 196.974Z" fill="#C59661"/>
<path d="M172.87 247.268H158.211V244.945H170.515C171.825 244.945 172.87 245.983 172.87 247.268Z" fill="#7B6F66"/>
<path d="M161.096 197.979H159.156V247.252H161.096V197.979Z" fill="#7B6F66"/>
<path d="M164.976 197.979H163.036V247.252H164.976V197.979Z" fill="#7B6F66"/>
<path d="M216.829 163.401C216.995 163.797 217.177 164.324 217.343 164.917C218.338 164.505 220.245 162.759 220.311 162.709C219.515 163.006 216.829 163.401 216.829 163.401Z" fill="#997761"/>
<path d="M183.382 197.979H148.742V196.974C148.742 196.035 149.555 195.261 150.566 195.261H177.96L183.382 197.979Z" fill="#F7C29E"/>
<path d="M220.377 169.859C220.377 169.859 218.371 172.692 217.127 174.834C215.718 177.272 214.325 179.661 214.026 180.204C213.396 181.308 211.191 181.885 210.212 182.313C209.317 182.692 194.31 190.682 194.111 190.665C193.929 190.649 195.719 193.63 195.719 193.63C195.719 193.63 216.563 187.7 217.492 186.843C218.42 185.987 221.206 182.115 222.35 180.534C223.428 179.018 225.103 176.531 225.982 175.443C226.96 174.241 229.033 170.139 226.413 168.096C223.047 165.477 221.19 168.656 220.377 169.859Z" fill="#4385D8"/>
<path d="M226.082 175.295C226.082 175.295 223.677 181.786 222.218 184.01C220.775 186.217 219.167 188.062 219.167 188.062L218.387 185.822C218.404 185.822 224.639 177.305 226.082 175.295Z" fill="#46688D"/>
<path d="M130.717 240.003C130.717 240.003 131.646 241.733 132.26 242.409C132.873 243.1 135.195 244.319 135.211 246.346C135.228 248.553 131.281 247.944 129.739 247.861C128.197 247.779 128.081 246.609 127.434 245.357C126.787 244.105 126.124 244.319 126.008 243.315C125.892 242.31 126.638 240.003 126.638 240.003H130.717Z" fill="#26283A"/>
<path d="M107.27 239.806C107.27 239.806 105.38 241.914 103.44 242.359C101.516 242.804 100.173 243.364 100.157 244.567C100.14 245.769 105.695 246.576 107.901 245.357C111.184 243.545 111.532 244.089 111.897 243.183C112.262 242.277 111.466 239.839 111.482 239.559C111.516 239.18 107.27 239.806 107.27 239.806Z" fill="#26283A"/>
<path d="M107.486 238.801C107.486 238.801 107.238 239.789 107.271 239.806C107.304 239.822 111.615 240.333 111.483 239.542C111.383 238.9 111.234 238.208 111.234 238.208L107.486 238.801Z" fill="#807F7D"/>
<path d="M126.705 239.344C126.705 239.344 126.522 240.283 126.556 240.3C126.589 240.316 130.917 241.091 130.9 240.316C130.884 239.69 130.502 238.966 130.502 238.966L126.705 239.344Z" fill="#807F7D"/>
<path d="M111.399 179.76C111.399 179.76 109.841 194.866 109.028 200.039C108.083 206.084 107.751 211.076 107.486 214.206C107.154 218.143 107.088 237.499 106.856 238.653C106.624 239.806 112.046 238.966 112.046 238.966C112.046 238.966 114.716 213.679 115.711 209.478C116.639 205.574 120.072 188.771 120.918 189.841C121.763 190.912 122.808 209.445 123.438 212.525C124.068 215.606 125.959 239.707 125.959 239.707C125.959 239.707 130.27 240.564 131.414 239.592C131.414 239.592 131.928 218.818 131.53 213.053C131.381 210.845 134.117 186.678 130.602 176.959C128.744 171.819 111.399 179.76 111.399 179.76Z" fill="#2E3048"/>
<path d="M125.461 176.415C125.461 176.415 124.417 174.85 123.306 174.653C122.195 174.455 138.545 166.597 138.495 163.797C138.462 161.523 132.774 157.323 132.774 157.323V157.29C132.658 157.734 130.784 164.456 130.734 167.454C130.668 170.567 130.917 181.242 130.917 181.242L126.722 182.362L113.34 182.478L110.289 181.242C110.289 181.242 110.62 177.799 110.753 175.394C110.836 173.862 111.134 171.111 111.051 168.442C111.051 168.442 111.101 165.625 110.819 164.406C110.786 159.052 110.454 153.731 110.454 153.731C110.272 151.293 110.139 149.036 110.073 146.911C110.67 146.598 111.366 146.236 111.947 145.972C113.705 145.149 116.159 144.028 117.717 143.304C118.629 142.892 119.541 142.579 119.541 142.579C119.541 142.579 125.826 141.986 126.324 142.019C126.489 142.035 127.269 142.299 128.297 142.694C130.519 143.534 134.814 145.247 135.494 145.725C136.488 146.434 143.055 163.698 143.154 164.884C143.353 167.009 125.461 176.415 125.461 176.415Z" fill="#D8D6E1"/>
<path d="M110.703 180.105C110.703 180.105 119.89 180.88 127.949 180.105V182.725C127.949 182.725 115.96 183.862 110.305 182.231L110.703 180.105Z" fill="#232536"/>
<path d="M109.94 146.862C110.006 149.02 110.122 151.326 110.305 153.814C110.305 153.814 110.47 159.859 110.835 165.592C110.951 166.416 111.018 167.256 110.951 168.113C110.868 169.233 110.736 170.452 110.587 171.737C110.587 171.753 110.587 171.77 110.587 171.786C110.553 172.083 110.52 172.396 110.471 172.709V172.725C109.691 179.117 108.365 186.448 107.668 188.655C107.519 189.117 108.033 189.545 108.381 189.874L110.902 191.456C110.902 191.456 111.946 181.983 112.278 178.755C112.61 175.658 113.654 171.49 114.119 167.437C114.699 162.298 115.495 157.257 115.926 154.258C117.054 146.467 118.546 142.974 118.546 142.974C117.833 143.155 109.94 146.862 109.94 146.862Z" fill="#4385D8"/>
<path d="M136.621 163.006C137.715 165.378 126.622 169.612 126.871 170.205C127.468 171.605 129.922 174.472 129.922 174.472C129.922 174.472 144.531 167.289 144.365 165.675C144.249 164.489 137.4 146.582 136.405 145.873C135.825 145.462 131.53 143.946 129.424 143.122C129.043 142.974 127.733 142.48 127.385 142.348C126.937 142.842 123.853 146.219 122.775 158.97C122.592 161.111 123.173 165.675 123.554 169.381C123.969 173.335 124.416 176.432 124.765 179.743C125.428 186.267 125.892 191.472 125.892 191.472L132.426 188.573C133.487 188.046 135.311 186.678 134.913 185.575C133.404 181.374 131.132 173.401 131.132 169.711C131.132 169.711 132.194 159.53 132.774 157.537C132.774 157.504 135.41 160.337 136.621 163.006Z" fill="#4385D8"/>
<path d="M125.76 142.661C125.76 142.661 125.809 140.519 126.638 136.187C126.854 135.034 119.856 139.235 119.856 139.235C119.856 139.235 119.873 139.646 119.889 140.19C119.889 140.487 119.906 140.816 119.906 141.145C119.906 141.261 119.906 141.376 119.906 141.491C119.906 141.804 119.889 142.084 119.856 142.348C119.823 142.612 119.674 143.056 119.624 143.188C119.326 143.847 123.405 144.341 125.76 142.661Z" fill="#DBA686"/>
<path d="M121.399 144.918L120.238 146.466C120.238 146.466 120.918 147.372 122.128 146.697L121.399 144.918Z" fill="#2E3048"/>
<path d="M120.553 146.516C120.553 146.516 116.159 163.352 117.054 176.448L118.53 179.035L119.923 176.317C119.923 176.317 120.304 152.875 121.515 146.466L120.553 146.516Z" fill="#2E3048"/>
<path d="M120.155 143.468L121.398 144.918C121.398 144.918 123.388 144.539 123.985 143.501C124.566 142.463 120.155 143.468 120.155 143.468Z" fill="#DBA686"/>
<path d="M119.873 142.2C119.873 142.2 120.022 143.304 121.399 144.901L119.89 146.911L119.077 142.727L119.873 142.2Z" fill="#C1BFC9"/>
<path d="M125.893 140.981C125.893 140.981 123.405 144.127 121.382 144.918L122.327 147.224L126.606 142.085L125.893 140.981Z" fill="#C1BFC9"/>
<path d="M84.354 164.258C84.354 164.258 79.7441 164.785 79.4788 165.082C79.2135 165.378 79.2798 165.625 79.711 165.592C80.1421 165.559 84.1881 165.213 84.1881 165.213C84.1881 165.213 78.8984 166.762 78.6331 166.96C78.4673 167.075 78.5668 167.553 78.7989 167.569C79.0311 167.569 84.3871 166.334 84.3871 166.334C84.3871 166.334 79.4622 167.783 79.2798 168.014C79.1306 168.212 79.3296 168.64 79.6944 168.558C80.0758 168.475 84.7354 167.388 84.7354 167.388C84.7354 167.388 81.2365 168.673 81.2034 168.969C81.1868 169.151 81.2531 169.562 82.132 169.2C83.0274 168.838 85.2328 168.212 85.2328 168.212L84.354 164.258Z" fill="#F7C29E"/>
<path d="M89.8094 164.489C89.8094 164.489 88.2673 164.571 87.803 163.797C87.405 163.138 86.4266 162.545 86.1281 162.363C85.7302 162.116 84.7518 160.93 84.4699 161.408C84.188 161.886 85.9955 163.434 86.3106 163.83C86.6256 164.225 84.4202 164.077 84.0056 164.373C83.6077 164.67 83.8232 168.294 85.3322 168.228C86.8578 168.162 88.3502 167.075 88.6321 167.124C88.8974 167.157 89.7431 167.108 89.7431 167.108L89.8094 164.489Z" fill="#F7C29E"/>
<path d="M89.1796 168.08C89.1796 168.08 100.489 166.498 102.993 165.889C104.153 165.609 105.679 164.011 107.138 162.149C107.619 161.54 108.083 160.881 108.531 160.238C110.305 157.685 111.715 155.23 111.715 155.23C111.715 155.23 116.988 149.102 112.76 146.368C112.76 146.368 110.952 146.335 109.957 146.862C108.929 147.405 106.757 151.936 106.392 152.726C106.027 153.534 102.014 160.963 101.749 161.128C101.484 161.293 97.4873 162.166 95.713 162.528C93.1262 163.055 88.2842 164.06 88.2842 164.06L89.1796 168.08Z" fill="#4385D8"/>
<path d="M117.48 183.478H121.775V180.233H117.48V183.478Z" fill="#3E4265"/>
<path d="M124.665 176.613C124.665 176.613 125.196 176.597 125.428 176.465C125.428 176.465 125.826 176.218 126.124 176.053C126.224 176.004 126.307 175.954 126.357 175.938C126.589 175.839 127.136 175.707 127.65 175.328C128.147 174.949 129.789 173.417 129.789 173.417L128.728 171.803L128.23 170.205C128.23 170.205 124.4 170.584 123.902 170.88C123.853 170.913 123.803 170.946 123.77 170.979C123.355 171.276 123.189 171.671 122.99 171.852C122.924 171.918 122.261 172.627 122.294 172.907C122.344 173.302 122.543 173.566 122.791 173.681C122.791 173.681 122.924 174.455 123.339 174.801C123.339 174.801 123.438 175.526 124.068 175.806C124.035 175.806 124.234 176.531 124.665 176.613Z" fill="#DCA787"/>
<path d="M129.922 174.455C129.922 174.455 127.799 172.725 126.639 170.188L133.172 166.63L135.593 171.523L129.922 174.455Z" fill="#4385D8"/>
<path d="M116.175 128.576C116.175 128.576 114.633 131.41 115.396 131.854C116.026 132.217 114.666 135.001 114.484 135.446C114.302 135.907 115.628 136.236 115.91 136.516C116.192 136.813 117.021 140.404 118.115 140.52C119.21 140.635 124.102 138.938 125.428 137.554C126.755 136.171 127.849 129.96 126.97 127.324C126.075 124.721 118.895 123.634 116.175 128.576Z" fill="#F7C29E"/>
<path d="M115.86 129.202C115.86 129.202 114.285 126.138 117.137 123.881C119.989 121.608 125.245 125.594 125.842 125.743C126.439 125.891 129.806 126.122 128.098 131.986C126.638 137.027 126.439 137.241 126.439 137.241C126.439 137.241 125.345 134.325 124.731 133.881C123.77 133.189 121.664 133.353 121.664 133.353C121.664 133.353 122.675 130.701 121.1 130.322C119.525 129.927 117.452 128.609 115.86 129.202Z" fill="#234077"/>
<path d="M123.339 131.821C123.471 131.459 123.919 129.894 125.279 130.817C126.622 131.739 124.433 134.688 124.201 134.721C123.969 134.754 122.178 134.886 123.339 131.821Z" fill="#F7C29E"/>
<path d="M119.906 141.146C119.906 141.261 119.906 141.376 119.906 141.491C123.903 140.157 124.682 138.147 124.682 138.147C123.438 139.02 119.89 140.19 119.89 140.19C119.906 140.487 119.906 140.816 119.906 141.146Z" fill="#997761"/>
<defs>
<linearGradient id="paint0_linear" x1="131.193" y1="-46.2712" x2="131.193" y2="23.1338" gradientUnits="userSpaceOnUse">
<stop stop-color="#E0E8EE"/>
<stop offset="1" stop-color="#FCF8F4"/>
</linearGradient>
</defs>
</svg>
