<svg width="345" height="92" viewBox="0 0 345 92" fill="none" xmlns="http://www.w3.org/2000/svg">
<path d="M279.399 6L179 17.4909L186.483 77.1L290 85L279.399 6Z" fill="#E95E2A"/>
<path d="M191.02 59V42.0078H187.875V37.8672H191.02V36.0703C191.02 33.7005 191.697 31.8646 193.051 30.5625C194.418 29.2474 196.326 28.5898 198.773 28.5898C199.555 28.5898 200.512 28.7201 201.645 28.9805L201.586 33.3555C201.117 33.2383 200.544 33.1797 199.867 33.1797C197.745 33.1797 196.684 34.1758 196.684 36.168V37.8672H200.883V42.0078H196.684V59H191.02Z" fill="white"/>
<path d="M216.059 59C215.798 58.4922 215.609 57.8607 215.492 57.1055C214.125 58.6289 212.348 59.3906 210.16 59.3906C208.09 59.3906 206.371 58.7917 205.004 57.5938C203.65 56.3958 202.973 54.8854 202.973 53.0625C202.973 50.8229 203.799 49.1042 205.453 47.9062C207.12 46.7083 209.522 46.1029 212.66 46.0898H215.258V44.8789C215.258 43.9023 215.004 43.1211 214.496 42.5352C214.001 41.9492 213.214 41.6562 212.133 41.6562C211.182 41.6562 210.434 41.8841 209.887 42.3398C209.353 42.7956 209.086 43.4206 209.086 44.2148H203.441C203.441 42.9909 203.819 41.8581 204.574 40.8164C205.329 39.7747 206.397 38.9609 207.777 38.375C209.158 37.776 210.707 37.4766 212.426 37.4766C215.03 37.4766 217.094 38.1341 218.617 39.4492C220.154 40.7513 220.922 42.5872 220.922 44.957V54.1172C220.935 56.1224 221.215 57.6393 221.762 58.668V59H216.059ZM211.391 55.0742C212.224 55.0742 212.992 54.8919 213.695 54.5273C214.398 54.1497 214.919 53.6484 215.258 53.0234V49.3906H213.148C210.323 49.3906 208.819 50.3672 208.637 52.3203L208.617 52.6523C208.617 53.3555 208.865 53.9349 209.359 54.3906C209.854 54.8464 210.531 55.0742 211.391 55.0742ZM213.539 29H219.691L214.281 35.0547H209.691L213.539 29Z" fill="white"/>
<path d="M234.047 54.8398C235.089 54.8398 235.935 54.5534 236.586 53.9805C237.237 53.4076 237.576 52.6458 237.602 51.6953H242.895C242.882 53.1276 242.491 54.4427 241.723 55.6406C240.954 56.8255 239.9 57.75 238.559 58.4141C237.23 59.0651 235.759 59.3906 234.145 59.3906C231.124 59.3906 228.741 58.4336 226.996 56.5195C225.251 54.5924 224.379 51.9362 224.379 48.5508V48.1797C224.379 44.9245 225.245 42.3268 226.977 40.3867C228.708 38.4466 231.085 37.4766 234.105 37.4766C236.749 37.4766 238.865 38.2318 240.453 39.7422C242.055 41.2396 242.868 43.2383 242.895 45.7383H237.602C237.576 44.6445 237.237 43.7591 236.586 43.082C235.935 42.3919 235.076 42.0469 234.008 42.0469C232.693 42.0469 231.697 42.5286 231.02 43.4922C230.355 44.4427 230.023 45.9922 230.023 48.1406V48.7266C230.023 50.901 230.355 52.4635 231.02 53.4141C231.684 54.3646 232.693 54.8398 234.047 54.8398Z" fill="white"/>
<path d="M252.074 59H246.41V37.8672H252.074V59ZM246.078 32.3984C246.078 31.5521 246.358 30.8555 246.918 30.3086C247.491 29.7617 248.266 29.4883 249.242 29.4883C250.206 29.4883 250.974 29.7617 251.547 30.3086C252.12 30.8555 252.406 31.5521 252.406 32.3984C252.406 33.2578 252.113 33.9609 251.527 34.5078C250.954 35.0547 250.193 35.3281 249.242 35.3281C248.292 35.3281 247.523 35.0547 246.938 34.5078C246.365 33.9609 246.078 33.2578 246.078 32.3984Z" fill="white"/>
<path d="M262.699 59H257.035V29H262.699V59Z" fill="white"/>
<path d="M273.109 50.2695H268.422L267.758 30.5625H273.773L273.109 50.2695ZM270.766 53.3555C271.716 53.3555 272.478 53.6354 273.051 54.1953C273.637 54.7552 273.93 55.4714 273.93 56.3438C273.93 57.2031 273.637 57.9128 273.051 58.4727C272.478 59.0326 271.716 59.3125 270.766 59.3125C269.828 59.3125 269.066 59.0326 268.48 58.4727C267.908 57.9128 267.621 57.2031 267.621 56.3438C267.621 55.4844 267.908 54.7747 268.48 54.2148C269.066 53.6419 269.828 53.3555 270.766 53.3555Z" fill="white"/>
<path d="M37.8203 45.957H42.5273L43.1719 65.6445H37.1758L37.8203 45.957ZM43.3281 39.9219C43.3281 40.7943 43.0286 41.5104 42.4297 42.0703C41.8307 42.6302 41.0755 42.9102 40.1641 42.9102C39.2526 42.9102 38.4974 42.6302 37.8984 42.0703C37.2995 41.5104 37 40.7943 37 39.9219C37 39.0495 37.2865 38.3333 37.8594 37.7734C38.4453 37.2135 39.2135 36.9336 40.1641 36.9336C41.1146 36.9336 41.8763 37.2135 42.4492 37.7734C43.0352 38.3333 43.3281 39.0495 43.3281 39.9219Z" fill="#545358"/>
<path d="M65.4375 46.1133H54.1875V53.7305H67.3906V58.4375H48.3281V30H67.3516V34.7461H54.1875V41.5234H65.4375V46.1133Z" fill="#545358"/>
<path d="M81.9023 52.5977C81.9023 51.9076 81.5573 51.3672 80.8672 50.9766C80.1901 50.5729 79.0964 50.2148 77.5859 49.9023C72.5599 48.8477 70.0469 46.7122 70.0469 43.4961C70.0469 41.6211 70.8216 40.0586 72.3711 38.8086C73.9336 37.5456 75.9714 36.9141 78.4844 36.9141C81.1667 36.9141 83.3086 37.5456 84.9102 38.8086C86.5247 40.0716 87.332 41.7122 87.332 43.7305H81.6875C81.6875 42.9232 81.4271 42.2591 80.9062 41.7383C80.3854 41.2044 79.5716 40.9375 78.4648 40.9375C77.5143 40.9375 76.7786 41.1523 76.2578 41.582C75.737 42.0117 75.4766 42.5586 75.4766 43.2227C75.4766 43.8477 75.7695 44.3555 76.3555 44.7461C76.9544 45.1237 77.957 45.4557 79.3633 45.7422C80.7695 46.0156 81.9544 46.3281 82.918 46.6797C85.8997 47.7734 87.3906 49.668 87.3906 52.3633C87.3906 54.2904 86.5638 55.8529 84.9102 57.0508C83.2565 58.2357 81.1211 58.8281 78.5039 58.8281C76.7331 58.8281 75.1576 58.5156 73.7773 57.8906C72.4102 57.2526 71.3359 56.3867 70.5547 55.293C69.7734 54.1862 69.3828 52.9948 69.3828 51.7188H74.7344C74.7865 52.7214 75.1576 53.4896 75.8477 54.0234C76.5378 54.5573 77.4622 54.8242 78.6211 54.8242C79.7018 54.8242 80.5156 54.6224 81.0625 54.2188C81.6224 53.8021 81.9023 53.2617 81.9023 52.5977Z" fill="#545358"/>
<path d="M106.297 37.3047L106.473 39.668C107.97 37.832 109.995 36.9141 112.547 36.9141C115.268 36.9141 117.137 37.9883 118.152 40.1367C119.637 37.9883 121.753 36.9141 124.5 36.9141C126.792 36.9141 128.497 37.5846 129.617 38.9258C130.737 40.2539 131.297 42.2591 131.297 44.9414V58.4375H125.633V44.9609C125.633 43.763 125.398 42.8906 124.93 42.3438C124.461 41.7839 123.634 41.5039 122.449 41.5039C120.757 41.5039 119.585 42.3112 118.934 43.9258L118.953 58.4375H113.309V44.9805C113.309 43.7565 113.068 42.8711 112.586 42.3242C112.104 41.7773 111.284 41.5039 110.125 41.5039C108.523 41.5039 107.365 42.168 106.648 43.4961V58.4375H101.004V37.3047H106.297Z" fill="#545358"/>
<path d="M148.309 56.2891C146.915 57.9818 144.988 58.8281 142.527 58.8281C140.262 58.8281 138.53 58.1771 137.332 56.875C136.147 55.5729 135.542 53.6654 135.516 51.1523V37.3047H141.16V50.957C141.16 53.1576 142.163 54.2578 144.168 54.2578C146.082 54.2578 147.397 53.5938 148.113 52.2656V37.3047H153.777V58.4375H148.465L148.309 56.2891Z" fill="#545358"/>
<path d="M165.926 50.4492L169.832 37.3047H175.887L167.391 61.7188L166.922 62.832C165.659 65.5924 163.576 66.9727 160.672 66.9727C159.852 66.9727 159.018 66.849 158.172 66.6016V62.3242L159.031 62.3438C160.099 62.3438 160.893 62.181 161.414 61.8555C161.948 61.5299 162.365 60.9896 162.664 60.2344L163.328 58.4961L155.926 37.3047H162L165.926 50.4492Z" fill="#545358"/>
</svg>
