<svg width="24" height="21" viewBox="0 0 24 21" fill="none" xmlns="http://www.w3.org/2000/svg">
<path d="M11.7587 1.785C6.60007 1.785 2.37939 5.71375 2.37939 10.5525C2.37939 14.9275 5.81221 18.5587 10.2955 19.215V13.09H7.91317V10.5525H10.2955V8.61875C10.2955 6.4225 11.693 5.215 13.8409 5.215C14.8632 5.215 15.9325 5.38125 15.9325 5.38125V7.5425H14.7507C13.5876 7.5425 13.2218 8.21625 13.2218 8.9075V10.5525H15.8293L15.4072 13.09H13.2218V19.215C15.432 18.8894 17.4446 17.8373 18.8962 16.2488C20.3479 14.6603 21.143 12.6399 21.138 10.5525C21.138 5.71375 16.9173 1.785 11.7587 1.785Z" fill="#4385D8"/>
</svg>
