<svg width="37" height="37" viewBox="0 0 37 37" fill="none" xmlns="http://www.w3.org/2000/svg">
<path d="M21.5832 3.08333L30.8332 12.3333V30.8333C30.8332 31.6511 30.5083 32.4353 29.9301 33.0136C29.3518 33.5918 28.5676 33.9167 27.7498 33.9167H9.24984C8.43209 33.9167 7.64783 33.5918 7.06959 33.0136C6.49135 32.4353 6.1665 31.6511 6.1665 30.8333V6.16667C6.1665 5.34891 6.49135 4.56466 7.06959 3.98642C7.64783 3.40818 8.43209 3.08333 9.24984 3.08333H21.5832ZM27.7498 30.8333V13.875H20.0415V6.16667H9.24984V30.8333H27.7498ZM18.4998 18.5L24.6665 24.6667H20.8123V29.2917H16.1873V24.6667H12.3332L18.4998 18.5Z" fill="#7AA2D6"/>
</svg>
