<svg width="177" height="40" viewBox="0 0 177 40" fill="none" xmlns="http://www.w3.org/2000/svg">
<path d="M47.8085 4.96266H59.1792V7.7197H51.1157V11.3268H58.1859V14.0609H51.1157V20.6318H47.8085V4.96266Z" fill="#545358"/>
<path d="M64.3795 4.95117H61.0723V20.6318H64.3795V4.95117Z" fill="#545358"/>
<path d="M67.4531 4.95117H70.9473L77.2812 15.8874V4.95117H80.3898V20.6318H77.0592L70.5616 9.50028V20.6318H67.4531V4.95117Z" fill="#545358"/>
<path d="M86.5601 4.95117H83.2412V20.6318H86.5601V4.95117Z" fill="#545358"/>
<path d="M92.076 15.7955C92.1265 16.3723 92.3366 16.9246 92.6837 17.3923C93.0536 17.752 93.5004 18.0263 93.9916 18.1952C94.4828 18.3641 95.0061 18.4234 95.5234 18.3687C96.1872 18.3843 96.8494 18.2991 97.4867 18.116C97.8994 18.0148 98.265 17.7791 98.524 17.4474C98.7829 17.1157 98.9198 16.7075 98.9125 16.2895C98.9068 16.0547 98.8392 15.8254 98.7163 15.624C98.5934 15.4226 98.4194 15.2561 98.2113 15.1407C97.5132 14.7868 96.7646 14.5389 95.9909 14.4055L94.2613 14.0379C93.0295 13.8423 91.8425 13.4339 90.7555 12.8317C90.2131 12.4506 89.7798 11.9386 89.4973 11.345C89.2149 10.7514 89.0927 10.0963 89.1427 9.44284C89.1376 8.79058 89.2759 8.14492 89.5482 7.55009C89.8205 6.95526 90.2203 6.42531 90.7204 5.99655C92.0461 4.97331 93.7145 4.47718 95.3949 4.60654C96.9509 4.56235 98.4785 5.02253 99.7422 5.91613C100.332 6.3448 100.813 6.90175 101.147 7.54344C101.482 8.18513 101.661 8.89418 101.67 9.61516H98.41C98.4022 9.19676 98.2784 8.78838 98.0519 8.43409C97.8253 8.0798 97.5047 7.79306 97.1245 7.60482C96.5004 7.32975 95.8214 7.19626 95.1378 7.21424C94.3981 7.18086 93.6641 7.35625 93.0226 7.71969C92.7693 7.87258 92.5628 8.08997 92.425 8.34884C92.2871 8.6077 92.2231 8.89839 92.2396 9.19011C92.2323 9.45102 92.3025 9.70836 92.4416 9.93072C92.5806 10.1531 92.7825 10.3308 93.0226 10.4423C93.6992 10.7383 94.4093 10.9543 95.1378 11.0856L97.9308 11.7404C98.9263 11.9264 99.8703 12.318 100.7 12.8891C101.177 13.2735 101.555 13.7631 101.802 14.318C102.05 14.873 102.161 15.4776 102.126 16.0827C102.137 16.7637 101.99 17.4383 101.696 18.0552C101.403 18.6722 100.97 19.2154 100.432 19.6439C99.0663 20.6716 97.3681 21.1778 95.652 21.0683C93.8861 21.17 92.1379 20.6755 90.697 19.6669C90.1067 19.2155 89.6351 18.6314 89.322 17.9638C89.0088 17.2962 88.8632 16.5644 88.8973 15.83L92.076 15.7955Z" fill="#545358"/>
<path d="M116.056 4.95117V7.7197H111.277V20.6318H107.923V7.7197H103.131V4.95117H116.056Z" fill="#545358"/>
<path d="M129.799 7.7197H121.362V11.0511H129.11V13.7737H121.362V17.8173H130.197V20.6318H118.101V4.95117H129.799V7.7197Z" fill="#545358"/>
<path d="M143.016 5.35325C143.602 5.60633 144.113 6.00163 144.501 6.50202C144.837 6.89865 145.109 7.34433 145.307 7.8231C145.512 8.3508 145.611 8.91254 145.599 9.47732C145.595 10.2439 145.398 10.9976 145.026 11.6715C144.831 12.0377 144.563 12.3617 144.237 12.6241C143.912 12.8865 143.537 13.0822 143.133 13.1993C143.788 13.4185 144.342 13.8579 144.699 14.44C145.055 15.2063 145.215 16.046 145.167 16.8869V17.9437C145.149 18.4315 145.177 18.9197 145.248 19.4026C145.282 19.5863 145.355 19.761 145.461 19.9153C145.568 20.0697 145.707 20.2003 145.868 20.2987V20.6778H142.187C142.081 20.3331 142.011 20.046 141.965 19.8392C141.883 19.3915 141.836 18.9383 141.824 18.4836V16.9788C141.892 16.2709 141.701 15.5625 141.287 14.9799C140.741 14.587 140.065 14.4107 139.394 14.4859H136.133V20.6778H132.873V4.95118H140.504C141.364 4.92457 142.221 5.06108 143.028 5.35325H143.016ZM136.133 7.65078V11.8667H139.721C140.268 11.8954 140.814 11.8052 141.322 11.6025C141.642 11.4378 141.903 11.1817 142.072 10.868C142.241 10.5543 142.31 10.1976 142.268 9.84492C142.318 9.48121 142.263 9.11124 142.11 8.77646C141.957 8.44168 141.713 8.15532 141.404 7.94946C140.92 7.73691 140.39 7.64233 139.861 7.67376L136.133 7.65078Z" fill="#545358"/>
<path d="M159.027 5.35325C159.614 5.60893 160.128 6.00359 160.522 6.50202C160.83 6.88705 161.082 7.31235 161.27 7.76566C161.475 8.29337 161.575 8.85511 161.562 9.41988C161.558 10.1865 161.362 10.9402 160.99 11.614C160.794 11.9803 160.526 12.3042 160.201 12.5667C159.876 12.8291 159.5 13.0247 159.097 13.1419C159.751 13.3611 160.306 13.8005 160.663 14.3825C161.018 15.1488 161.178 15.9886 161.13 16.8294V17.8863C161.113 18.374 161.14 18.8623 161.212 19.3452C161.246 19.5289 161.318 19.7035 161.425 19.8579C161.531 20.0122 161.67 20.1429 161.831 20.2412V20.6778H158.15C158.045 20.3331 157.975 20.046 157.928 19.8392C157.846 19.3915 157.799 18.9383 157.788 18.4836V17.0247C157.864 16.3178 157.677 15.6078 157.262 15.0259C156.717 14.633 156.041 14.4566 155.369 14.5319H152.108V20.6778H148.848V4.95118H156.479C157.339 4.92457 158.196 5.06108 159.003 5.35325H159.027ZM152.108 7.65078V11.8667H155.696C156.243 11.8954 156.79 11.8052 157.297 11.6025C157.617 11.4378 157.879 11.1817 158.047 10.868C158.216 10.5543 158.285 10.1976 158.244 9.84492C158.292 9.47308 158.233 9.09525 158.071 8.75555C157.91 8.41585 157.654 8.1283 157.332 7.92649C156.848 7.71393 156.319 7.61936 155.789 7.65078H152.108Z" fill="#545358"/>
<path d="M176.603 7.7197H168.165V11.0511H175.913V13.7737H168.165V17.8173H177V20.6318H164.905V4.95117H176.603V7.7197Z" fill="#545358"/>
<path d="M109.115 35.3705C109.342 35.7714 109.683 36.0987 110.096 36.3125C110.512 36.533 110.979 36.6439 111.452 36.6341C111.758 36.6377 112.063 36.5872 112.352 36.4848C112.616 36.4013 112.862 36.2687 113.076 36.0942C113.284 35.9251 113.451 35.7134 113.567 35.4739C113.69 35.2191 113.754 34.9404 113.754 34.6582C113.764 34.3548 113.682 34.0552 113.52 33.7967C113.37 33.565 113.166 33.372 112.924 33.2338C112.66 33.0757 112.377 32.9485 112.083 32.8547L111.113 32.5445C110.787 32.4448 110.467 32.3259 110.155 32.1884C109.843 32.0633 109.555 31.8887 109.302 31.6715C109.05 31.4504 108.847 31.1805 108.706 30.8788C108.552 30.5151 108.476 30.1239 108.484 29.73C108.482 29.3319 108.574 28.9389 108.752 28.5813C108.924 28.2434 109.172 27.9487 109.477 27.7197C109.787 27.4811 110.14 27.3018 110.517 27.1913C110.919 27.0754 111.336 27.0174 111.756 27.019C112.298 26.9801 112.843 27.0504 113.357 27.2257C113.851 27.4312 114.276 27.7697 114.584 28.2022L113.766 28.7766C113.548 28.4668 113.26 28.2112 112.924 28.0299C112.561 27.8543 112.16 27.7676 111.756 27.7771C111.459 27.7771 111.164 27.8197 110.879 27.9035C110.612 27.9727 110.362 28.0938 110.143 28.2596C109.94 28.4197 109.773 28.6191 109.652 28.8455C109.521 29.1057 109.456 29.3937 109.465 29.6841C109.435 30.1019 109.574 30.5145 109.851 30.8329C110.123 31.1136 110.454 31.333 110.821 31.4762C111.234 31.6448 111.66 31.7831 112.095 31.8897C112.532 31.9996 112.955 32.1576 113.357 32.3607C113.746 32.5553 114.083 32.839 114.338 33.1878C114.618 33.6272 114.753 34.1408 114.724 34.6582C114.72 35.0545 114.633 35.4457 114.467 35.807C114.298 36.1461 114.059 36.4473 113.766 36.6916C113.466 36.9372 113.12 37.1243 112.749 37.243C112.372 37.3644 111.977 37.4265 111.58 37.4268C110.943 37.4339 110.31 37.3127 109.722 37.0707C109.136 36.8349 108.632 36.4356 108.273 35.9219L109.115 35.3705ZM96.6921 32.1654C96.6825 32.7722 96.7855 33.3755 96.9959 33.946C97.1832 34.4666 97.4776 34.9437 97.8607 35.3475C98.241 35.7508 98.7027 36.0716 99.2163 36.2895C100.371 36.7493 101.661 36.7493 102.816 36.2895C103.329 36.0716 103.791 35.7508 104.171 35.3475C104.554 34.9437 104.849 34.4666 105.036 33.946C105.246 33.3755 105.349 32.7722 105.34 32.1654C105.344 31.5704 105.241 30.9793 105.036 30.4193C104.849 29.8987 104.554 29.4216 104.171 29.0178C103.793 28.6337 103.34 28.3288 102.839 28.1218C101.685 27.6619 100.394 27.6619 99.2397 28.1218C98.7261 28.3396 98.2644 28.6605 97.8841 29.0638C97.4926 29.4655 97.1902 29.9427 96.9959 30.4652C96.7964 31.0107 96.6937 31.5858 96.6921 32.1654ZM95.7338 32.1654C95.7298 31.4425 95.8646 30.7254 96.1311 30.0517C96.3756 29.4328 96.7408 28.867 97.2063 28.386C97.6751 27.892 98.2445 27.5006 98.8774 27.2372C100.254 26.7159 101.778 26.7159 103.155 27.2372C103.787 27.5006 104.357 27.892 104.826 28.386C105.291 28.867 105.656 29.4328 105.901 30.0517C106.431 31.4128 106.431 32.9181 105.901 34.2792C105.659 34.8994 105.294 35.4658 104.826 35.9449C104.357 36.4388 103.787 36.8302 103.155 37.0936C101.778 37.6149 100.254 37.6149 98.8774 37.0936C98.2445 36.8302 97.6751 36.4388 97.2063 35.9449C96.7384 35.4658 96.3728 34.8994 96.1311 34.2792C95.8646 33.6054 95.7298 32.8883 95.7338 32.1654ZM87.4366 27.1453H90.662C90.9127 27.1569 91.1625 27.1838 91.4099 27.2257C91.6883 27.281 91.9619 27.3578 92.2279 27.4555C92.51 27.5569 92.7684 27.7131 92.9875 27.915C93.2098 28.146 93.381 28.4198 93.4901 28.7191C93.7929 29.456 93.7929 30.2797 93.4901 31.0167C93.331 31.31 93.1122 31.5681 92.8473 31.7748C92.5959 31.969 92.3108 32.1169 92.0059 32.2114C91.72 32.3012 91.4268 32.3665 91.1294 32.4067L94.0977 37.22H93.0226L90.1595 32.4641H88.3832V37.22H87.4366V27.1453ZM88.3832 31.5681H90.4049C90.8025 31.5769 91.1985 31.5146 91.5735 31.3843C91.8459 31.3137 92.1005 31.1885 92.3214 31.0167C92.4807 30.8535 92.6005 30.6572 92.672 30.4423C92.7994 30.0696 92.7994 29.6662 92.672 29.2935C92.6033 29.0774 92.4831 28.8805 92.3214 28.7191C92.1125 28.5157 91.8614 28.359 91.5852 28.2596C91.2102 28.1293 90.8142 28.067 90.4166 28.0758H88.3832V31.5681ZM84.4098 33.3372C84.4088 33.8557 84.346 34.3723 84.2229 34.8765C84.1042 35.3503 83.8895 35.7957 83.5918 36.1861C83.2818 36.5763 82.881 36.8875 82.4232 37.0936C81.8677 37.3211 81.272 37.4383 80.6702 37.4383C80.0685 37.4383 79.4727 37.3211 78.9173 37.0936C78.4567 36.8919 78.0549 36.5799 77.7487 36.1861C77.4563 35.8111 77.2454 35.381 77.1293 34.9225C77.0004 34.4193 76.9375 33.902 76.9423 33.3831V27.1913H77.8889V33.1419C77.8917 33.527 77.9269 33.9112 77.9941 34.2906C78.0564 34.6936 78.1909 35.0826 78.3914 35.4394C78.588 35.7987 78.8785 36.1 79.2328 36.3125C79.6634 36.5624 80.1592 36.6822 80.6585 36.6571C81.1614 36.6805 81.6605 36.5608 82.096 36.3125C82.446 36.0985 82.7323 35.7973 82.9257 35.4394C83.1262 35.0826 83.2607 34.6936 83.323 34.2906C83.3902 33.9112 83.4254 33.527 83.4282 33.1419V27.1913H84.3865L84.4098 33.3372ZM73.8922 36.5307C73.3176 36.8575 72.6946 37.0939 72.0458 37.2315C71.4048 37.3695 70.7504 37.4389 70.0942 37.4383C69.3588 37.4422 68.6293 37.3097 67.9439 37.0477C67.316 36.7814 66.751 36.3903 66.2845 35.8989C65.8128 35.4204 65.4433 34.8541 65.1976 34.2332C64.6829 32.8695 64.6829 31.3695 65.1976 30.0057C65.4463 29.3864 65.8155 28.8206 66.2845 28.34C66.751 27.8487 67.316 27.4575 67.9439 27.1913C68.6444 26.9669 69.3831 26.8811 70.1175 26.9385C70.7952 26.9102 71.4716 27.019 72.1049 27.2581C72.7381 27.4972 73.3146 27.8615 73.7987 28.3285L73.0975 29.0293C72.9286 28.8382 72.7363 28.6684 72.5249 28.5238C72.2953 28.3666 72.0483 28.2356 71.7887 28.1333C71.5228 28.0182 71.2444 27.9334 70.959 27.8805C70.6838 27.8127 70.4012 27.778 70.1175 27.7771C69.4998 27.768 68.8869 27.8854 68.3179 28.1218C67.801 28.334 67.3382 28.6556 66.9623 29.0638C66.5752 29.4647 66.2803 29.9426 66.0975 30.4652C65.8968 31.0101 65.7978 31.586 65.8053 32.1654C65.7956 32.7572 65.8987 33.3455 66.1092 33.9001C66.292 34.4227 66.5869 34.9006 66.9739 35.3016C67.3499 35.7097 67.8127 36.0313 68.3295 36.2435C68.8986 36.4799 69.5115 36.5973 70.1292 36.5882C70.6461 36.589 71.1622 36.5467 71.6718 36.4618C72.1324 36.3798 72.5751 36.2205 72.9807 35.9908V32.6594H70.5266V31.8093H73.9273L73.8922 36.5307ZM56.5381 27.1913H62.7903V28.0414H57.4964V31.614H62.4514V32.4641H57.4964V36.3699H63.0123V37.22H56.5381V27.1913ZM48.3577 35.3705C48.5817 35.7739 48.9237 36.1021 49.3394 36.3125C49.755 36.534 50.2223 36.6449 50.695 36.6341C51.0016 36.6377 51.3064 36.5872 51.5948 36.4848C51.858 36.3979 52.1034 36.2657 52.3194 36.0942C52.5204 35.9188 52.6868 35.7086 52.8102 35.4739C52.9299 35.2183 52.9898 34.9396 52.9855 34.6582C52.9986 34.3559 52.9214 34.0564 52.7635 33.7967C52.6103 33.5674 52.4066 33.375 52.1675 33.2338C51.9029 33.0757 51.6205 32.9485 51.326 32.8547L50.3561 32.5445C50.0297 32.4448 49.7097 32.3259 49.3978 32.1884C49.0851 32.0661 48.7964 31.8912 48.5447 31.6715C48.2927 31.4504 48.0898 31.1805 47.9487 30.8788C47.7947 30.5151 47.7191 30.1239 47.7267 29.73C47.7255 29.3319 47.8174 28.9389 47.9955 28.5813C48.1665 28.2465 48.4097 27.9525 48.7083 27.7197C49.0225 27.481 49.3792 27.3018 49.7601 27.1913C50.1624 27.0754 50.5796 27.0174 50.9988 27.019C51.5374 26.9817 52.078 27.052 52.5882 27.2257C53.0574 27.4459 53.4602 27.7824 53.7568 28.2022L52.9387 28.7766C52.7171 28.466 52.4251 28.2104 52.0856 28.0299C51.7233 27.8521 51.3218 27.7653 50.917 27.7771C50.6163 27.7771 50.3172 27.8197 50.0289 27.9035C49.7663 27.9752 49.5202 28.0961 49.3043 28.2596C49.0948 28.4159 48.9231 28.616 48.8018 28.8455C48.6758 29.1075 48.6119 29.3943 48.6148 29.6841C48.5991 29.892 48.6262 30.1009 48.6945 30.2983C48.7627 30.4956 48.8708 30.6775 49.0122 30.8329C49.2845 31.1136 49.6154 31.333 49.9821 31.4762C50.3951 31.6465 50.821 31.7848 51.2559 31.8897C51.6927 32.0016 52.1158 32.1595 52.518 32.3607C52.9021 32.559 53.2341 32.8421 53.488 33.1878C53.7676 33.6272 53.9022 34.1408 53.8736 34.6582C53.8749 35.0551 53.7871 35.4473 53.6166 35.807C53.4474 36.1431 53.2132 36.4436 52.9271 36.6916C52.6236 36.9325 52.2795 37.1191 51.9104 37.243C51.5329 37.3637 51.1386 37.4257 50.7417 37.4268C50.1041 37.4339 49.4718 37.3127 48.8836 37.0707C48.2933 36.8356 47.7857 36.4364 47.4228 35.9219L48.3577 35.3705Z" fill="#545358"/>
<path d="M27.0069 13.4291C24.9916 12.6074 22.8313 12.1845 20.6496 12.1845C18.4679 12.1845 16.3076 12.6074 14.2923 13.4291C13.9731 13.5286 13.6914 13.7196 13.4832 13.9774C13.275 14.2353 13.1498 14.5483 13.1237 14.8765C13.1237 14.8765 13.1237 15.0833 13.1237 15.1522C13.1237 15.2211 13.521 15.1522 13.6963 15.0029C16.3359 13.6025 19.3628 13.071 22.3324 13.4865C24.0679 13.7019 25.7568 14.1906 27.3341 14.9339C27.5562 15.0373 27.8016 15.2441 28.0119 15.0488C28.1086 14.9275 28.1611 14.7779 28.1611 14.6238C28.1611 14.4697 28.1086 14.32 28.0119 14.1987C27.7645 13.8623 27.4237 13.603 27.0303 13.452" fill="#184071"/>
<path d="M17.5995 10.9937C18.6641 10.8482 19.7385 10.7829 20.8132 10.7984C21.8264 10.8136 22.8375 10.8942 23.84 11.0396C23.9477 11.0552 24.0577 11.0383 24.1555 10.991C24.2532 10.9438 24.334 10.8684 24.3872 10.775C24.4405 10.6816 24.4636 10.5745 24.4535 10.4679C24.4434 10.3613 24.4006 10.2602 24.3308 10.1781C23.9044 9.62267 23.3242 9.19989 22.6596 8.96036C21.9796 8.71603 21.2551 8.61429 20.5327 8.66168C19.2708 8.70341 18.0704 9.2074 17.1671 10.0747C17.0804 10.15 17.0208 10.2508 16.997 10.3621C16.9733 10.4734 16.9866 10.5892 17.0352 10.6924C17.0838 10.7956 17.1649 10.8807 17.2666 10.935C17.3682 10.9893 17.485 11.0098 17.5995 10.9937Z" fill="#184071"/>
<path d="M37.0571 0H3.63442C2.67146 0.00302913 1.74882 0.380406 1.0679 1.04975C0.386982 1.7191 0.0030815 2.62606 0 3.57266L0 36.4273C0.0030815 37.3739 0.386982 38.2809 1.0679 38.9502C1.74882 39.6196 2.67146 39.997 3.63442 40H37.0571C38.0201 39.997 38.9427 39.6196 39.6236 38.9502C40.3045 38.2809 40.6884 37.3739 40.6915 36.4273V3.57266C40.6884 2.62606 40.3045 1.7191 39.6236 1.04975C38.9427 0.380406 38.0201 0.00302913 37.0571 0V0ZM10.0268 32.3377H9.95669H10.0268ZM29.0287 15.7266C28.6313 16.4044 28.0938 16.3584 27.3809 16.1057C27.0654 15.9793 26.8083 16.2091 26.8433 16.5537C26.8584 17.0768 26.9052 17.5985 26.9836 18.116C27.1822 19.1729 26.4226 19.058 26.2006 19.0465C25.9785 19.035 25.6046 19.1155 25.5228 18.2079C25.5432 17.3516 25.3882 16.4999 25.067 15.7036C24.7398 15.2441 21.2105 14.9684 20.112 15.0029C18.7586 15.0674 17.4134 15.2481 16.092 15.5428C15.5427 15.7266 14.7364 16.0023 14.8532 16.6111C14.8532 16.8639 14.9467 17.0936 14.9818 17.3349C15.1838 16.9987 15.4908 16.7355 15.8571 16.5844C16.2235 16.4333 16.6296 16.4024 17.0152 16.4963C18.3007 16.8179 18.6162 17.8059 18.6162 19.4486C18.6321 19.7202 18.5928 19.9921 18.5005 20.2485C18.4082 20.505 18.2648 20.7407 18.0786 20.942C18.9084 20.7926 19.7615 20.6778 20.6262 20.5859C22.4257 20.3716 24.2428 20.3408 26.0487 20.494C26.3319 20.5212 26.6106 20.583 26.8784 20.6778V20.8156C26.6797 21.8725 25.8734 21.7691 25.0904 21.7461C21.4919 21.7038 17.9401 22.5491 14.7597 24.2045C14.2898 24.4008 13.864 24.6866 13.507 25.0454C13.15 25.4043 12.8688 25.829 12.6796 26.2952C12.5627 26.6054 12.4809 26.996 12.738 27.2257C12.9951 27.4555 13.2288 27.1223 13.4626 26.996C16.2964 25.5735 19.4432 24.8593 22.6246 24.9167C23.7281 24.8879 24.8324 24.9224 25.9318 25.0201C26.6096 25.089 26.6797 25.56 26.6797 25.9736C26.6797 26.3871 26.1655 26.2608 25.8734 26.2723C22.2837 26.3071 18.7368 27.0411 15.4375 28.4319C14.5357 28.8248 13.7365 29.414 13.1003 30.1551C12.9249 30.3019 12.7916 30.4912 12.7137 30.7043C12.6358 30.9174 12.6159 31.1468 12.6561 31.3698C12.6962 31.5928 12.795 31.8015 12.9427 31.9754C13.0903 32.1492 13.2816 32.282 13.4976 32.3607C14.0702 32.6824 14.0001 33.1304 13.93 33.6244C13.7008 33.6816 13.4609 33.6833 13.2309 33.6292C13.0008 33.5752 12.7876 33.4671 12.6095 33.3142C12.3056 33.1419 11.4408 32.4871 11.3123 32.4182C9.58273 31.0856 9.57104 29.6267 11.3123 28.2826L11.5928 28.0528C11.3707 27.892 11.1604 27.7657 10.9734 27.6163C10.5186 27.3206 10.2001 26.8612 10.0864 26.337C9.97276 25.8127 10.0731 25.2656 10.3657 24.8133C10.804 24.0818 11.4334 23.4789 12.1888 23.0672C13.2873 22.412 14.4651 21.8949 15.6946 21.5279C15.3464 21.4174 15.0394 21.2078 14.8126 20.9255C14.5858 20.6433 14.4495 20.3011 14.4208 19.9426C14.0586 19.9426 13.6612 20.0689 13.5327 19.8392C13.3579 19.0851 13.3341 18.3047 13.4626 17.5416C13.4595 17.3035 13.3904 17.0707 13.2627 16.8683C13.135 16.6659 12.9536 16.5015 12.738 16.3929C11.6395 15.8415 11.2188 15.4624 11.4292 14.417C11.6395 13.3716 12.3641 13.2682 13.4626 12.6939C13.6421 12.5908 13.7974 12.4515 13.9183 12.2852C14.0391 12.1189 14.1228 11.9293 14.1637 11.7289C14.4262 10.9451 14.8636 10.2288 15.4439 9.63257C16.0242 9.0363 16.7327 8.57506 17.5177 8.2826C17.9229 8.16933 18.3006 7.97659 18.6279 7.71598C18.9553 7.45537 19.2256 7.13229 19.4226 6.76623C19.52 6.54075 19.6882 6.35179 19.9026 6.22695C20.1171 6.10211 20.3665 6.04792 20.6144 6.0723C20.8624 6.09667 21.096 6.19834 21.281 6.36245C21.466 6.52655 21.5929 6.74451 21.6429 6.98449C21.7557 7.30883 21.9656 7.59207 22.2451 7.79708C22.5245 8.00208 22.8605 8.11926 23.2089 8.13326C23.8977 8.32332 24.5316 8.66975 25.0593 9.14463C25.5871 9.61951 25.994 10.2096 26.2473 10.8673C26.6615 11.7809 27.3562 12.5441 28.234 13.05C28.687 13.3187 29.0426 13.7205 29.2507 14.1987C29.3449 14.4516 29.3739 14.7235 29.3351 14.9901C29.2964 15.2567 29.1911 15.5097 29.0287 15.7266Z" fill="#184071"/>
</svg>
