<svg width="178" height="38" viewBox="0 0 178 38" fill="none" xmlns="http://www.w3.org/2000/svg">
<path d="M66.2853 3.28564H62.9121V19.4253H66.2853V3.28564Z" fill="#1C3A6B"/>
<path d="M69.5283 3.28564H73.086L79.5339 14.5397V3.28564H82.699V19.4253H79.3022L72.6894 7.97614V19.4253H69.5283V3.28564Z" fill="#1C3A6B"/>
<path d="M89.088 3.28564H85.7148V19.4253H89.088V3.28564Z" fill="#1C3A6B"/>
<path d="M95.4219 14.2158C95.4719 14.7956 95.6872 15.3492 96.0423 15.8118C96.5999 16.4518 97.5777 16.7796 98.956 16.7796C99.6289 16.7984 100.301 16.7129 100.947 16.5259C101.913 16.1982 102.396 15.5972 102.396 14.7153C102.4 14.4699 102.336 14.2281 102.211 14.0167C102.085 13.8053 101.903 13.6324 101.685 13.5173C100.975 13.1643 100.215 12.9196 99.4312 12.7915L97.672 12.4013C95.9441 12.0345 94.7569 11.6364 94.1103 11.2072C93.0134 10.484 92.4663 9.35883 92.4689 7.83175C92.4563 7.16895 92.5942 6.51184 92.8723 5.90924C93.1503 5.30665 93.5614 4.77403 94.075 4.35096C95.1483 3.42743 96.7191 2.96566 98.7872 2.96566C100.368 2.92764 101.92 3.39248 103.217 4.29242C103.821 4.72293 104.312 5.29238 104.647 5.95218C104.982 6.61197 105.151 7.34253 105.141 8.0815H101.882C101.875 7.65887 101.748 7.24674 101.515 6.89304C101.282 6.53935 100.953 6.25863 100.566 6.08355C99.931 5.80528 99.2413 5.67194 98.5477 5.69333C97.7977 5.65634 97.0527 5.83229 96.3997 6.20062C96.1537 6.3458 95.9511 6.55366 95.8131 6.8027C95.675 7.05174 95.6064 7.33291 95.6143 7.61713C95.607 7.87898 95.6776 8.13715 95.8173 8.35928C95.957 8.58142 96.1596 8.75763 96.3997 8.86585C97.093 9.16028 97.8175 9.37626 98.5594 9.50972L101.395 10.1458C102.401 10.3251 103.358 10.7105 104.206 11.2774C104.69 11.6514 105.075 12.1367 105.328 12.6914C105.581 13.2461 105.695 13.8536 105.659 14.4617C105.669 15.1449 105.518 15.821 105.22 16.4366C104.921 17.0522 104.483 17.5904 103.939 18.0088C102.793 18.9479 101.172 19.4175 99.0778 19.4175C96.9389 19.4175 95.2556 18.9544 94.0278 18.0283C93.4331 17.5873 92.9553 17.009 92.6358 16.3434C92.3163 15.6778 92.1646 14.9449 92.194 14.208L95.4219 14.2158Z" fill="#1C3A6B"/>
<path d="M118.434 3.28564V6.14208H114.196V19.4253H110.78V6.14208H106.523V3.28564H118.434Z" fill="#1C3A6B"/>
<path d="M132.527 6.14208H124.47V9.57215H129.677V12.374H124.47V16.5259H132.527V19.4253H121.155V3.28564H132.527V6.14208Z" fill="#1C3A6B"/>
<path d="M178 6.14208H169.942V9.57215H175.149V12.374H169.942V16.5259H178V19.4253H166.624V3.28564H178V6.14208Z" fill="#1C3A6B"/>
<path d="M59.9316 6.14208H52.2703V9.57215H57.3634V12.374H52.2703V19.4253H48.9561V3.28564H59.9316V6.14208Z" fill="#1C3A6B"/>
<path d="M145.631 3.7032C146.221 3.95306 146.742 4.33977 147.151 4.83095C147.495 5.23707 147.771 5.6956 147.968 6.18893C148.177 6.73028 148.28 7.30655 148.27 7.8864C148.264 8.67572 148.063 9.45148 147.685 10.1458C147.483 10.5192 147.208 10.8493 146.878 11.1172C146.547 11.385 146.166 11.5854 145.757 11.7067C146.42 11.9369 146.984 12.3876 147.351 12.9827C147.711 13.774 147.872 14.6406 147.819 15.5075V16.5923C147.802 17.0935 147.833 17.5951 147.909 18.0908C147.94 18.2798 148.012 18.4599 148.12 18.6188C148.228 18.7777 148.369 18.9117 148.533 19.0117V19.4019H144.787C144.685 19.0468 144.61 18.758 144.567 18.5395C144.477 18.0817 144.428 17.6168 144.422 17.1503V15.648C144.422 14.6178 144.229 13.9349 143.884 13.5915C143.538 13.2481 142.898 13.0764 141.952 13.0764H138.618V19.4253H135.304V3.28566H143.071C143.945 3.26435 144.814 3.40598 145.635 3.7032M138.618 6.09137V10.4268H142.274C142.83 10.4564 143.386 10.3659 143.904 10.1614C144.548 9.85703 144.87 9.25218 144.87 8.34687C144.87 7.3674 144.555 6.71183 143.939 6.37233C143.445 6.15704 142.907 6.06077 142.368 6.09137H138.618Z" fill="#1C3A6B"/>
<path d="M161.393 3.70325C161.984 3.95297 162.507 4.33966 162.917 4.831C163.263 5.238 163.544 5.69614 163.749 6.18898C163.957 6.73059 164.058 7.30686 164.048 7.88645C164.035 8.67743 163.828 9.45328 163.443 10.1458C163.241 10.5193 162.966 10.8494 162.635 11.1172C162.305 11.3851 161.924 11.5854 161.515 11.7067C162.178 11.937 162.741 12.3877 163.109 12.9828C163.469 13.7741 163.63 14.6407 163.576 15.5075V16.5923C163.56 17.0935 163.591 17.5951 163.667 18.0908C163.7 18.2794 163.772 18.4589 163.88 18.6176C163.987 18.7763 164.128 18.9106 164.291 19.0117V19.402H160.545C160.443 19.0469 160.372 18.7581 160.325 18.5396C160.238 18.0813 160.191 17.6166 160.184 17.1504L160.16 15.648C160.16 14.6178 159.968 13.9349 159.622 13.5915C159.277 13.2481 158.636 13.0764 157.69 13.0764H154.376V19.4254H151.058V3.28571H158.829C159.702 3.26347 160.572 3.40513 161.393 3.70325M154.38 6.09142V10.4268H158.032C158.589 10.4564 159.146 10.3659 159.665 10.1615C160.294 9.85708 160.608 9.25224 160.608 8.34692C160.608 7.36745 160.297 6.71188 159.677 6.37238C159.183 6.15652 158.645 6.06023 158.106 6.09142H154.38Z" fill="#1C3A6B"/>
<path d="M16.8855 8.97519C18.039 8.81064 19.2034 8.73367 20.3686 8.74496C21.4651 8.76566 22.559 8.8569 23.6436 9.01812C23.7623 9.02966 23.8817 9.00631 23.9872 8.95097C24.0926 8.89563 24.1794 8.81073 24.2367 8.70682C24.294 8.60291 24.3193 8.48456 24.3095 8.36647C24.2997 8.24838 24.2552 8.13575 24.1816 8.04256C23.7279 7.40094 23.0902 6.91004 22.3517 6.63385C21.6184 6.35623 20.8335 6.2391 20.0505 6.29045C18.6725 6.34563 17.3683 6.92383 16.4064 7.90598C16.3045 7.99094 16.2332 8.10658 16.2032 8.2354C16.1733 8.36422 16.1863 8.49922 16.2405 8.62C16.2946 8.74078 16.3868 8.84077 16.5032 8.90485C16.6195 8.96894 16.7538 8.99363 16.8855 8.97519Z" fill="#1C3A6B"/>
<path d="M27.0636 11.7458C24.8885 10.8084 22.5429 10.3247 20.172 10.3247C17.8011 10.3247 15.4555 10.8084 13.2804 11.7458C12.9263 11.8661 12.6156 12.087 12.3867 12.3811C12.1577 12.6752 12.0206 13.0295 11.9924 13.4003C11.9924 13.4393 11.9688 13.6461 12.0513 13.7242C12.3065 13.9622 12.4911 13.6579 12.6717 13.5525C15.5114 11.9563 18.8061 11.3479 22.0333 11.8238C23.9063 12.0598 25.727 12.6031 27.421 13.4315C27.6605 13.5447 27.9236 13.7905 28.1553 13.5642C28.2575 13.4198 28.31 13.2464 28.3051 13.0699C28.3001 12.8934 28.2379 12.7233 28.1278 12.5847C27.8647 12.2064 27.4942 11.9143 27.0636 11.7458V11.7458Z" fill="#1C3A6B"/>
<path d="M29.9618 0H8.28172C6.08527 0 3.97878 0.867068 2.42566 2.41046C0.872536 3.95385 0 6.04714 0 8.22982L0 29.7741C-1.22352e-07 30.8547 0.214241 31.9246 0.630485 32.9229C1.04673 33.9212 1.65682 34.8282 2.4259 35.5921C3.19498 36.356 4.10798 36.9618 5.11274 37.375C6.1175 37.7881 7.19433 38.0005 8.28172 38H29.9618C32.1572 38 34.2627 37.1333 35.8151 35.5907C37.3675 34.048 38.2396 31.9557 38.2396 29.7741V8.22982C38.2401 7.14925 38.0264 6.07917 37.6106 5.0807C37.1949 4.08224 36.5852 3.17496 35.8165 2.4107C35.0478 1.64643 34.1351 1.04017 33.1305 0.626534C32.126 0.212899 31.0492 -1.21586e-07 29.9618 0V0ZM8.66262 33.3641L8.58409 33.3212L8.66262 33.3602V33.3641ZM29.2668 14.3719C28.8348 15.1524 28.2419 15.0978 27.4801 14.8012C27.1267 14.6685 26.8596 14.9222 26.891 15.3124C26.9061 15.9121 26.9585 16.5103 27.0481 17.1035C27.2562 18.3171 26.4355 18.1766 26.1999 18.1688C25.8308 18.1688 25.552 18.2508 25.4656 17.2128C25.3792 16.1748 25.3478 14.93 24.9669 14.3524C24.586 13.7749 20.7809 13.4978 19.5871 13.5525C18.1219 13.6196 16.6663 13.8248 15.2401 14.1651C14.6471 14.368 13.7636 14.6802 13.8932 15.3865C13.9482 15.6675 13.9914 15.9406 14.0306 16.206C14.2431 15.828 14.5742 15.5296 14.9734 15.3562C15.3727 15.1829 15.818 15.1442 16.2414 15.246C17.6355 15.6363 17.9732 16.7484 17.9732 18.6332C18.0086 19.252 17.7986 19.8601 17.3881 20.3268C18.2952 20.159 19.218 20.0302 20.1369 19.9365C22.0902 19.6859 24.0652 19.6466 26.0271 19.8195C26.3539 19.8488 26.6757 19.9182 26.9853 20.0263C26.9853 20.077 26.9853 20.1277 26.9578 20.1785C26.7418 21.3843 25.8661 21.2711 24.9944 21.2438C21.0361 21.115 17.3488 22.2428 13.8225 24.0534C13.3047 24.2832 12.8381 24.613 12.4498 25.0237C12.0615 25.4343 11.7592 25.9176 11.5606 26.4455C11.4389 26.7967 11.3447 27.2259 11.6195 27.503C11.8944 27.78 12.1614 27.382 12.4049 27.2454C15.4561 25.6173 18.8772 24.7963 22.3398 24.8612C23.5335 24.8288 24.728 24.8666 25.9172 24.9743C26.6436 25.0602 26.73 25.5948 26.7026 26.0709C26.7026 26.6289 26.1449 26.3947 25.8386 26.4064C21.9354 26.6055 18.1028 27.1323 14.5215 28.8805C13.5238 29.3245 12.6434 29.9923 11.9494 30.8316C11.164 31.8345 11.2975 32.7086 12.3735 33.3524C12.9939 33.7427 12.9193 34.2304 12.8447 34.7924C12.1929 35.0109 11.757 34.609 11.4271 34.4021C11.0973 34.1953 10.1195 33.4578 10.0252 33.3837C8.14821 31.8501 8.13642 30.1955 9.9899 28.6463C10.0802 28.5722 10.1705 28.4902 10.2883 28.3849C10.0488 28.2093 9.82497 28.0571 9.61685 27.8932C9.12054 27.5384 8.77729 27.0105 8.65571 26.4151C8.53413 25.8197 8.64318 25.2006 8.96106 24.6817C9.42645 23.8581 10.1041 23.1725 10.9245 22.6954C12.1218 21.9412 13.4146 21.3481 14.7689 20.9316C13.9128 20.6936 13.5083 19.9209 13.3866 19.1249C12.9939 19.1249 12.562 19.2654 12.4245 19.0078C12.0947 18.3991 12.3499 16.963 12.3499 16.3777C12.3618 16.1002 12.2943 15.825 12.1553 15.584C12.0163 15.343 11.8115 15.146 11.5646 15.0158C10.3865 14.3758 9.92707 13.9505 10.1509 12.7564C10.3747 11.5623 11.164 11.3984 12.3539 10.778C12.5498 10.6575 12.7184 10.4977 12.8489 10.3089C12.9794 10.1202 13.0689 9.90647 13.1117 9.68145C13.3817 8.79036 13.8486 7.9705 14.4784 7.28183C15.1082 6.59316 15.885 6.05311 16.7519 5.70117C17.6119 5.31095 18.3737 4.98316 18.8135 3.97248C19.2533 2.9618 20.8123 3.07106 21.2246 4.21442C21.5505 5.12364 22.0964 5.35387 22.9171 5.52167C24.5781 5.86897 25.5049 7.19183 26.2117 8.64346C26.6588 9.67391 27.4107 10.5449 28.3675 11.1409C28.8798 11.4599 29.2782 11.9308 29.5063 12.4872C29.7773 13.1115 29.6712 13.6578 29.2668 14.3719Z" fill="#1C3A6B"/>
<path d="M50.02 32.3885C50.2649 32.7658 50.6139 33.0652 51.0253 33.2509C51.4197 33.4352 51.85 33.5311 52.2858 33.5319C52.5374 33.53 52.7874 33.4919 53.028 33.4187C53.2752 33.3462 53.5078 33.2313 53.7152 33.0792C53.9193 32.9297 54.0915 32.7414 54.2217 32.5251C54.3573 32.2875 54.4252 32.0177 54.4181 31.7447C54.4275 31.5693 54.3971 31.394 54.3291 31.2319C54.2611 31.0698 54.1573 30.925 54.0254 30.8081C53.7308 30.5765 53.4006 30.3934 53.0476 30.2657C52.6549 30.1213 52.2387 29.9809 51.7792 29.8482C51.3326 29.7174 50.906 29.5271 50.5109 29.2824C50.0622 29.0156 49.6968 28.6303 49.4555 28.1694C49.2143 27.7084 49.1065 27.19 49.1443 26.6718C49.1491 26.3316 49.2184 25.9953 49.3485 25.6806C49.4912 25.3181 49.7093 24.9896 49.9886 24.7167C50.3141 24.4054 50.6967 24.159 51.1156 23.9909C51.6411 23.7835 52.2035 23.6839 52.7688 23.6982C53.3365 23.6952 53.9015 23.7754 54.4455 23.9363C55.0028 24.1124 55.493 24.4527 55.8514 24.9118L54.6733 25.9811C54.4778 25.6886 54.2064 25.4541 53.8879 25.3021C53.5353 25.1291 53.1463 25.0421 52.7531 25.0484C52.4111 25.0378 52.0702 25.0908 51.7478 25.2045C51.5094 25.2888 51.2914 25.4217 51.1077 25.5947C50.9562 25.7463 50.8397 25.9287 50.7661 26.1293C50.704 26.2983 50.6708 26.4763 50.6679 26.6561C50.655 26.8464 50.6834 27.0372 50.7511 27.2156C50.8189 27.394 50.9244 27.5559 51.0606 27.6902C51.3451 27.9448 51.6755 28.1434 52.0345 28.2756C52.4507 28.4298 52.8755 28.5601 53.3068 28.6658C53.7539 28.7966 54.1827 28.9828 54.583 29.2199C54.9695 29.4332 55.3025 29.7307 55.5568 30.0901C55.8426 30.5407 55.9799 31.0686 55.9495 31.6003C55.957 32.0769 55.8564 32.549 55.655 32.9817C55.4708 33.3794 55.203 33.7333 54.8696 34.0197C54.5236 34.3095 54.1232 34.5284 53.6916 34.6635C53.2243 34.8172 52.7348 34.8937 52.2426 34.8899C51.5712 34.8941 50.9051 34.7723 50.2792 34.5309C49.6924 34.3097 49.1834 33.9232 48.8145 33.4187L50.02 32.3885Z" fill="#1C3A6B"/>
<path d="M68.127 23.9871H75.0303V25.3372H69.576V28.5059H73.6324V29.8599H69.576V33.2666H75.3052V34.6207H68.127V23.9871Z" fill="#1C3A6B"/>
<path d="M96.4948 28.6736V33.9143C96.2114 34.0853 95.9115 34.2278 95.5995 34.3397C94.9153 34.5888 94.2033 34.7552 93.479 34.8352C93.1347 34.8729 92.7887 34.8924 92.4423 34.8938C91.6112 34.9087 90.7856 34.7561 90.0155 34.445C89.3382 34.1663 88.726 33.7519 88.2171 33.2275C87.7286 32.715 87.3493 32.1098 87.1018 31.4481C86.8396 30.764 86.7065 30.0378 86.7091 29.3058C86.7036 28.551 86.8449 27.8024 87.1254 27.101C87.3891 26.4404 87.7799 25.8373 88.276 25.3255C88.7762 24.8205 89.3748 24.4222 90.0352 24.1548C90.7472 23.8621 91.5108 23.7135 92.2813 23.7178C93.1022 23.6906 93.9211 23.815 94.6963 24.0846C95.2866 24.3079 95.8221 24.6538 96.2671 25.0991L95.2383 26.1957C94.846 25.8053 94.373 25.5044 93.8521 25.3138C93.3455 25.1471 92.8149 25.0641 92.2813 25.0679C91.7318 25.0587 91.1865 25.1648 90.681 25.3793C90.1756 25.5938 89.7213 25.9119 89.348 26.3127C88.9898 26.7041 88.7123 27.1615 88.5312 27.659C88.3375 28.1852 88.2404 28.7416 88.2445 29.3019C88.2392 29.8752 88.3473 30.444 88.5626 30.9759C88.7636 31.477 89.0611 31.9343 89.4383 32.3222C89.8135 32.703 90.2605 33.0067 90.7538 33.2158C91.2742 33.4344 91.8342 33.5447 92.3991 33.5397C92.8898 33.5427 93.3795 33.4943 93.8599 33.3953C94.2718 33.3189 94.6692 33.1794 95.038 32.9817V30.0238H92.6819V28.6736H96.4948Z" fill="#1C3A6B"/>
<path d="M110.411 23.9871V30.5038C110.414 30.8515 110.46 31.1976 110.549 31.534C110.637 31.8866 110.79 32.2199 111 32.5174C111.218 32.8225 111.503 33.0746 111.833 33.2549C112.23 33.4425 112.664 33.5399 113.103 33.5399C113.543 33.5399 113.977 33.4425 114.374 33.2549C114.702 33.0745 114.986 32.8223 115.202 32.5174C115.413 32.2201 115.568 31.8867 115.658 31.534C115.745 31.1974 115.79 30.8514 115.791 30.5038V23.9871H117.244V30.7301C117.252 31.3087 117.144 31.8831 116.926 32.4198C116.724 32.9109 116.426 33.3577 116.05 33.7349C115.675 34.1063 115.228 34.3972 114.735 34.5894C113.684 34.9899 112.522 34.9899 111.472 34.5894C110.978 34.3981 110.53 34.1071 110.156 33.7349C109.779 33.3588 109.481 32.9117 109.28 32.4198C109.063 31.8831 108.954 31.3087 108.962 30.7301V23.9871H110.411Z" fill="#1C3A6B"/>
<path d="M129.817 23.9871H133.579C134.156 23.9689 134.731 24.0631 135.272 24.2641C135.671 24.4216 136.03 24.664 136.324 24.9743C136.575 25.2487 136.758 25.5774 136.858 25.9343C136.957 26.2689 137.009 26.6157 137.011 26.9645C137.013 27.6422 136.763 28.2967 136.308 28.8024C135.813 29.3572 135.124 29.7044 134.38 29.7741L137.439 34.6207H135.625L132.904 29.938H131.286V34.6207H129.837L129.817 23.9871ZM131.266 28.6697H133.171C133.453 28.6698 133.734 28.6463 134.011 28.5995C134.271 28.5616 134.523 28.4783 134.753 28.3537C134.971 28.2317 135.151 28.052 135.272 27.8347C135.401 27.5598 135.468 27.2601 135.468 26.9567C135.468 26.6532 135.401 26.3535 135.272 26.0787C135.151 25.8613 134.971 25.6817 134.753 25.5597C134.522 25.4354 134.271 25.351 134.011 25.3099C133.733 25.2664 133.452 25.2442 133.171 25.2436H131.266V28.6697Z" fill="#1C3A6B"/>
<path d="M153.983 34.8899C153.212 34.898 152.447 34.752 151.733 34.4606C151.071 34.1947 150.471 33.7962 149.97 33.29C149.475 32.7773 149.087 32.1726 148.828 31.5106C148.272 30.0911 148.272 28.5165 148.828 27.0971C149.09 26.4369 149.479 25.8338 149.974 25.3216C150.476 24.8166 151.076 24.4183 151.737 24.1509C153.183 23.584 154.792 23.584 156.237 24.1509C156.899 24.4183 157.499 24.8166 158.001 25.3216C158.495 25.8338 158.885 26.4369 159.147 27.0971C159.702 28.5165 159.702 30.0911 159.147 31.5106C158.886 32.1702 158.496 32.7721 158.001 33.2822C157.5 33.7884 156.9 34.1869 156.237 34.4528C155.523 34.7474 154.757 34.896 153.983 34.8899V34.8899ZM153.983 33.5397C154.533 33.5472 155.078 33.4399 155.584 33.2248C156.089 33.0097 156.543 32.6916 156.917 32.291C157.274 31.9007 157.552 31.4447 157.734 30.9486C158.116 29.885 158.116 28.7227 157.734 27.659C157.551 27.1623 157.274 26.7052 156.917 26.3128C156.541 25.9142 156.086 25.5965 155.582 25.3793C155.077 25.1621 154.533 25.05 153.983 25.05C153.434 25.05 152.89 25.1621 152.385 25.3793C151.881 25.5965 151.426 25.9142 151.05 26.3128C150.693 26.7043 150.417 27.1617 150.237 27.659C149.85 28.7218 149.85 29.8859 150.237 30.9486C150.416 31.4452 150.692 31.9015 151.05 32.291C151.424 32.6916 151.878 33.0097 152.383 33.2248C152.889 33.4399 153.434 33.5472 153.983 33.5397V33.5397Z" fill="#1C3A6B"/>
<path d="M171.996 32.3885C172.241 32.7658 172.59 33.0652 173.001 33.2509C173.395 33.4352 173.826 33.5311 174.261 33.5319C174.513 33.5297 174.763 33.4916 175.004 33.4187C175.251 33.3462 175.483 33.2313 175.691 33.0792C175.895 32.9297 176.067 32.7414 176.197 32.5251C176.333 32.2875 176.401 32.0177 176.394 31.7447C176.403 31.5693 176.373 31.394 176.305 31.2319C176.237 31.0698 176.133 30.925 176.001 30.8081C175.706 30.5765 175.376 30.3934 175.023 30.2657C174.631 30.1213 174.214 29.9809 173.755 29.8482C173.308 29.7174 172.882 29.5271 172.486 29.2824C172.038 29.0156 171.672 28.6303 171.431 28.1694C171.19 27.7084 171.082 27.19 171.12 26.6718C171.125 26.3316 171.194 25.9953 171.324 25.6806C171.467 25.3181 171.685 24.9896 171.964 24.7167C172.29 24.4054 172.672 24.159 173.091 23.9909C173.617 23.7835 174.179 23.6839 174.744 23.6982C175.312 23.6952 175.877 23.7754 176.421 23.9363C176.978 24.1124 177.469 24.4527 177.827 24.9118L176.649 25.9811C176.453 25.6886 176.182 25.4541 175.864 25.3021C175.511 25.1291 175.122 25.0421 174.729 25.0484C174.387 25.0378 174.046 25.0908 173.723 25.2045C173.485 25.2888 173.267 25.4217 173.083 25.5947C172.932 25.7463 172.815 25.9287 172.742 26.1293C172.68 26.2983 172.646 26.4763 172.644 26.6561C172.631 26.8464 172.659 27.0372 172.727 27.2156C172.794 27.394 172.9 27.5559 173.036 27.6902C173.321 27.9448 173.651 28.1434 174.01 28.2756C174.426 28.4298 174.851 28.5601 175.282 28.6658C175.724 28.7811 176.15 28.9502 176.551 29.1692C176.937 29.3825 177.27 29.68 177.525 30.0394C177.81 30.4899 177.948 31.0178 177.917 31.5496C177.925 32.0262 177.824 32.4983 177.623 32.9309C177.439 33.3287 177.171 33.6826 176.837 33.9689C176.491 34.2581 176.091 34.4768 175.659 34.6128C175.192 34.7665 174.703 34.843 174.21 34.8391C173.539 34.8434 172.873 34.7216 172.247 34.4801C171.66 34.26 171.15 33.8733 170.782 33.368L171.996 32.3885Z" fill="#1C3A6B"/>
</svg>
