<svg width="370" height="221" viewBox="0 0 370 221" fill="none" xmlns="http://www.w3.org/2000/svg">
<path d="M196.833 146.43C196.833 146.43 212.87 143.84 223.92 152.515C234.835 161.19 228.367 175.82 237.395 177.762C250.467 180.481 280.383 184.495 277.149 211.425C276.879 214.144 185.783 211.425 185.783 211.425L189.691 153.162L196.833 146.43Z" fill="#E95E2A"/>
<path d="M99.6131 9.40796H252.698V212.033H99.6131V9.40796Z" fill="#CEDFF4"/>
<path d="M97.5919 101.463H254.719V107.937H97.5919V101.463Z" fill="#B2CBEC"/>
<path opacity="0.5" d="M121.175 37.7627H162.95V91.1052H121.175V37.7627Z" fill="white"/>
<path d="M122.118 38.6692H161.872V90.0699H122.118V38.6692Z" fill="#E0EBF9"/>
<path d="M152.439 38.1511V52.7817C152.439 52.9112 152.439 53.0407 152.439 53.1702C152.439 54.3354 152.573 55.2418 152.708 55.2418C152.843 55.2418 152.978 54.4649 152.978 53.4291C152.978 53.2996 152.978 53.2996 152.978 53.1702C152.978 53.0407 152.978 52.9112 152.978 52.7817V38.1511C152.978 38.1511 152.708 38.1511 152.439 38.1511Z" fill="#B2CBEC"/>
<path d="M152.977 53.2993C155.672 53.2993 157.694 55.5004 157.694 58.2194H148.126C148.261 55.5004 150.417 53.2993 152.977 53.2993Z" fill="#B2CBEC"/>
<path d="M152.574 53.4285C152.709 53.4285 152.843 53.4285 152.978 53.4285C154.73 53.4285 156.077 55.629 156.077 58.2179H155.268C155.268 55.7585 154.191 53.6874 152.574 53.4285Z" fill="#CEDFF4"/>
<path d="M153.786 74.404C153.786 74.404 156.077 71.8145 153.921 70.1313C153.921 70.1313 152.303 69.225 150.956 69.225C150.956 69.225 152.842 72.2029 152.169 72.5913C151.63 72.8503 150.282 69.0955 150.282 69.0955C150.282 69.0955 146.644 68.7071 145.431 69.3545C145.431 69.3545 148.53 71.8145 147.856 71.944C147.183 72.0734 143.814 69.6134 143.814 69.6134C143.814 69.6134 140.445 70.1313 140.579 72.2029C140.714 74.145 141.927 74.7924 142.466 74.7924C143.005 74.7924 145.97 73.6271 146.105 74.0155C146.105 74.4039 144.353 75.6987 143.005 75.8282C143.005 75.8282 145.431 78.4176 147.048 77.6408C148.665 76.8639 148.8 75.6987 149.743 75.3103C150.686 74.9218 151.63 74.9218 151.225 75.3103C150.821 75.6987 149.069 76.2166 148.395 77.1229C147.856 78.0292 147.317 78.806 148.934 78.5471C150.552 78.2881 153.247 77.1229 153.381 75.8282C153.786 74.4039 153.786 74.404 153.786 74.404Z" fill="#BF4019"/>
<path d="M142.466 72.0734C142.466 72.0734 151.764 71.685 153.785 74.2745C153.785 74.2745 154.19 75.5692 155.672 76.7344L155.942 77.2523C155.942 77.2523 154.325 75.5692 153.785 75.5692C153.651 75.6987 154.594 72.4618 142.466 72.0734Z" fill="#BF4019"/>
<path d="M155.673 76.8643C155.673 76.8643 157.693 78.2879 157.828 80.7469H157.424C157.424 80.7469 156.75 78.1585 155.673 77.1231C154.46 76.0877 155.673 76.8643 155.673 76.8643Z" fill="#BF4019"/>
<path d="M159.85 74.6629C159.85 74.6629 159.85 74.6629 160.389 75.6987C160.389 75.6987 160.389 75.8282 160.523 75.8282C160.793 76.3461 161.332 76.605 162.006 76.7345V68.0598C161.467 68.3188 161.197 68.4482 161.197 68.4482C161.197 68.4482 161.467 72.3324 160.793 72.3324C160.119 72.203 160.793 68.8367 160.793 68.8367C159.58 69.2251 158.367 70.6493 158.367 70.6493C156.75 72.9798 159.85 74.6629 159.85 74.6629Z" fill="#E95E2A"/>
<path d="M159.041 77.639V78.2862C159.041 78.2862 159.041 78.2862 159.041 78.1568C159.041 78.1568 159.041 78.0273 159.176 78.0273C159.176 77.8979 159.31 77.7684 159.445 77.639C159.715 76.9917 160.254 76.215 160.523 76.0855C160.523 76.0855 160.523 76.0855 160.388 75.9561C160.254 75.5677 160.119 74.6616 161.87 73.1081V72.5903C160.792 73.2376 160.119 74.0143 159.849 74.791C159.849 74.6616 159.849 76.0855 159.041 77.639Z" fill="#BF4019"/>
<path d="M159.04 77.641C159.04 77.641 157.692 79.5827 158.501 82.0422L158.905 81.9128C158.905 81.9128 158.501 79.3238 159.309 77.8999C159.848 76.6054 159.04 77.641 159.04 77.641Z" fill="#BF4019"/>
<path d="M156.077 70.3902C156.077 70.3902 160.254 68.1892 158.233 65.0818C158.233 65.0818 156.75 63.2692 154.999 62.7513C154.999 62.7513 155.942 67.2828 154.999 67.4123C154.055 67.5418 154.325 62.3629 154.325 62.3629C154.325 62.3629 150.013 60.2914 148.261 60.5503C148.261 60.5503 150.956 64.9524 150.147 64.8229C149.204 64.6934 146.239 60.2914 146.239 60.2914C146.239 60.2914 141.792 59.5145 140.984 62.104C140.31 64.6934 141.388 65.8587 142.062 66.1176C142.736 66.2471 146.913 66.2471 146.913 66.765C146.778 67.2828 143.948 68.1892 142.331 67.6713C142.331 67.6713 144.083 71.8144 146.374 71.6849C148.665 71.4259 149.474 70.1312 150.821 70.0018C152.303 69.8723 153.247 70.2607 152.573 70.6491C151.899 71.0375 149.474 70.7786 148.261 71.6849C147.048 72.5912 146.105 73.2386 148.261 73.627C150.417 74.0154 154.325 73.7564 154.999 72.2028C155.672 70.6491 156.077 70.3902 156.077 70.3902Z" fill="#E95E2A"/>
<path d="M143.14 62.7512C143.14 62.7512 154.729 66.3765 156.077 70.3901C156.077 70.3901 156.077 72.2027 157.155 74.2743V75.0511C157.155 75.0511 155.942 72.3322 155.268 71.9438C155.268 71.9438 157.964 68.448 143.14 62.7512Z" fill="#BF4019"/>
<path d="M157.154 74.2747C157.154 74.2747 158.906 76.8636 157.963 80.0998L157.558 79.9704C157.558 79.9704 157.963 76.4753 157.02 74.663C156.076 72.8508 157.154 74.2747 157.154 74.2747Z" fill="#BF4019"/>
<path d="M131.012 81.9125C131.012 81.9125 124.947 57.9601 124.408 55.8885C124.274 54.9822 123.6 54.7233 122.926 54.5938C124.004 54.4644 124.813 54.4644 124.813 54.4644C126.969 54.4644 128.855 55.8885 129.529 58.0896C131.012 62.88 136.806 70.7779 139.501 79.582C139.501 79.7114 131.012 81.9125 131.012 81.9125Z" fill="#AD8DCE"/>
<path d="M161.872 90.0698V85.5382C160.794 83.4667 159.581 81.6541 158.638 80.1004C158.503 79.8415 158.368 79.712 158.233 79.453C158.233 79.3236 158.099 79.3236 158.099 79.1941C157.964 78.9351 157.694 78.6762 157.56 78.4173C157.29 78.0288 157.021 77.7699 156.886 77.511C156.616 77.1225 156.212 76.8636 155.808 76.7341H155.673C155.538 76.6046 155.269 76.6046 155.134 76.4752C154.595 76.3457 154.056 76.2162 153.517 76.2162C152.169 76.0868 150.687 76.2162 149.205 76.3457C149.07 76.3457 148.8 76.3457 148.666 76.4752C147.857 76.6046 147.049 76.7341 146.24 76.9931C145.97 76.9931 145.701 77.1225 145.431 77.1225C145.297 77.1225 145.297 77.1225 145.162 77.252C144.758 77.3815 144.353 77.511 143.949 77.511C142.467 77.8994 141.523 78.2878 141.523 78.2878V78.5467V79.3236V79.712V80.7478V80.8772V81.7835V81.913L141.254 90.1993H161.872V90.0698Z" fill="#AD8DCE"/>
<path d="M133.035 81.5245C133.169 81.5245 133.304 81.395 133.574 81.2655C133.574 81.2655 133.708 81.2655 133.708 81.1361C133.843 81.1361 133.978 81.0066 134.113 80.8771C134.247 80.7476 134.517 80.7476 134.786 80.6182C135.056 80.4887 135.46 80.3592 135.865 80.2297C135.999 80.2297 136.134 80.1003 136.134 80.1003C136.269 80.1003 136.404 79.9708 136.404 79.9708C136.808 79.8413 137.347 79.5824 137.751 79.4529C138.155 79.3234 138.694 79.0645 139.233 78.935H139.368C140.716 78.4171 142.198 78.0287 143.68 77.6403C144.085 77.5108 144.624 77.3813 145.028 77.3813H145.163C145.432 77.3813 145.702 77.2519 145.971 77.2519C146.78 77.1224 147.454 76.9929 148.127 76.9929C148.262 76.9929 148.397 76.9929 148.666 76.9929C150.014 76.9929 151.092 77.1224 152.035 77.5108C152.709 77.7698 153.113 78.2877 153.518 78.8055C153.922 79.4529 154.326 80.3592 154.865 81.5245C155.809 83.7255 157.156 86.8329 158.099 90.1992H133.439V89.5518L133.304 88.2571L132.63 81.7834C132.765 81.6539 132.9 81.654 133.035 81.5245Z" fill="#936DBA"/>
<path d="M122.118 54.594V90.0703H123.601C124.679 89.9408 125.622 89.8114 126.565 89.6819C128.317 89.4229 129.799 89.0345 131.282 88.7756C131.686 88.6461 132.09 88.5166 132.494 88.5166C132.764 88.5166 132.899 88.3871 133.168 88.2577C133.303 88.2577 133.438 88.1282 133.573 88.1282C135.19 87.6103 136.133 87.0924 136.268 86.445C136.402 85.9271 136.133 84.5029 135.594 82.8197C135.459 82.4313 135.459 82.1723 135.324 81.7839C135.324 81.6544 135.19 81.3955 135.19 81.266C135.19 81.266 135.19 81.1365 135.19 81.007V80.8776V80.7481C135.055 80.3597 134.92 79.9712 134.785 79.5828C134.651 79.0649 134.381 78.4175 134.112 77.7701C133.842 76.9933 133.573 76.087 133.168 75.3101C133.033 75.0511 133.034 74.7922 132.899 74.5332C132.629 73.6269 132.225 72.7206 131.821 71.9437C130.877 69.6132 130.069 67.4121 129.126 65.211C128.856 64.5636 128.587 63.9162 128.317 63.3983C128.182 63.0099 128.047 62.6215 127.778 62.2331C127.374 61.0678 126.969 60.032 126.7 58.9962C126.296 57.5719 125.891 56.2772 125.083 55.5003C124.679 55.1119 124.14 54.7235 123.331 54.594H123.196C123.061 54.594 122.927 54.594 122.792 54.594H122.118Z" fill="#6E4697"/>
<path d="M126.565 89.681L128.991 81.783V81.6536C128.991 81.6536 129.261 81.6536 129.8 81.5241C130.069 81.5241 130.473 81.5241 130.878 81.3946C131.551 81.3946 132.36 81.2651 133.303 81.2651C133.303 81.2651 133.303 81.2651 133.438 81.2651H133.573C133.708 81.2651 133.977 81.2651 134.112 81.2651C134.247 81.2651 134.247 81.2651 134.381 81.2651C134.516 81.2651 134.786 81.2651 134.92 81.2651C136.268 81.1357 137.885 81.1357 139.502 81.0062C139.906 81.0062 140.311 81.0062 140.715 81.0062C140.85 81.0062 140.984 81.0062 141.119 81.0062C142.063 81.0062 143.141 81.0062 144.084 80.8767C145.431 80.8767 146.779 80.8767 147.992 80.8767C148.127 80.8767 148.127 80.8767 148.261 80.8767C148.935 80.8767 149.474 80.8767 150.148 81.0062C151.226 81.0062 152.304 81.1357 153.247 81.2651C153.786 81.3946 154.325 81.3946 154.864 81.5241C155.943 81.783 156.751 82.042 157.155 82.5599C158.099 83.4662 158.772 86.4441 159.177 90.1989H126.296L126.565 89.681Z" fill="#D1B4EF"/>
<path d="M135.729 66.2466C135.729 66.2466 137.076 66.7645 138.289 68.836C139.367 71.0371 139.906 76.8633 140.445 76.8633C140.984 76.8633 145.162 76.0865 145.162 76.0865L145.027 77.1223C145.027 77.1223 140.715 79.8412 139.772 79.4528C138.828 78.9349 136.403 72.2023 136.133 71.1665C135.998 70.2602 135.729 66.2466 135.729 66.2466Z" fill="#F7B17F"/>
<path d="M126.026 65.4697C126.026 65.4697 131.686 64.3045 135.729 66.2466C135.729 66.2466 138.289 71.6844 138.289 72.5907C138.154 73.497 137.346 77.2517 138.154 78.6759C138.963 80.1001 130.608 82.6896 129.126 81.7833C127.643 80.877 125.757 66.5055 126.026 65.4697Z" fill="white"/>
<path d="M146.374 87.2214C146.778 88.1278 147.317 89.0342 147.856 90.07H155.538C154.594 85.6677 153.92 82.5601 153.516 81.1358C153.381 80.4884 153.247 80.2295 153.247 80.2295C152.842 79.5821 152.438 79.1936 151.899 79.0641C150.821 78.8052 149.608 79.4526 148.53 80.3589C148.395 80.4884 148.261 80.6179 148.126 80.7474C147.722 81.1358 147.317 81.6538 147.048 82.0422C146.239 83.0781 145.7 83.9844 145.7 84.5023C145.565 85.1497 145.835 86.1856 146.374 87.2214Z" fill="#19365E"/>
<path d="M151.899 79.1935C151.899 79.1935 150.147 78.2874 146.239 79.0641C142.331 79.8407 139.097 81.7824 139.097 81.7824L149.069 82.1707L151.899 79.1935Z" fill="#19365E"/>
<path d="M127.644 65.4697C127.644 65.4697 125.083 65.0813 124.814 67.0234C124.409 68.9655 124.814 80.877 126.7 81.3949C128.587 82.0422 136.537 78.6759 136.537 78.6759L136.268 77.3812C136.268 77.3812 128.722 78.417 128.452 78.2875C128.183 78.158 127.644 65.4697 127.644 65.4697Z" fill="#F7B17F"/>
<path d="M147.047 74.4037L147.452 71.2964L142.735 77.1226C142.735 77.1226 144.622 78.0288 144.757 77.8994C144.891 77.7699 147.047 74.4037 147.047 74.4037Z" fill="#B6463D"/>
<path d="M140.04 74.4031L135.728 80.7471H143.005L147.048 74.4031H140.04Z" fill="#B6463D"/>
<path d="M147.045 74.4044L147.314 71.2979L144.889 74.275L147.045 74.4044Z" fill="white"/>
<path d="M135.999 80.4867L135.73 80.2278L139.906 74.1438L140.041 74.4027L135.999 80.4867Z" fill="#F0DECE"/>
<path d="M139.906 74.1438L146.778 74.2733L147.048 74.4028H140.04L139.906 74.1438Z" fill="#FDECDB"/>
<path d="M137.616 90.0693H145.297C145.701 89.0335 145.971 88.1272 146.375 87.2209C147.183 85.0198 147.722 83.2072 148.127 82.0419C148.261 81.3946 148.396 81.0061 148.531 80.7472C148.531 80.6177 148.666 80.4882 148.666 80.4882V80.3588C148.666 79.5819 148.396 78.9346 147.857 78.6756C147.857 78.6756 147.857 78.6756 147.722 78.6756C146.914 78.1577 145.701 78.1577 144.488 78.4167C143.41 78.6756 142.197 79.064 141.254 79.5819C140.58 79.9704 140.041 80.3588 139.772 80.6177C139.772 80.6177 139.772 80.6177 139.772 80.7472C139.772 80.7472 139.637 80.8767 139.637 81.0061C139.502 81.2651 139.367 81.524 139.233 81.783C138.828 83.0777 138.424 85.0198 138.02 87.2209C137.885 88.1272 137.75 89.163 137.616 90.0693Z" fill="#1C478A"/>
<path d="M147.722 78.6757C147.722 78.6757 144.758 76.0861 132.63 81.6536L142.602 81.7831L147.722 78.6757Z" fill="#1C478A"/>
<path d="M136.268 77.3809C136.268 77.3809 137.346 76.7336 137.75 76.6042C138.289 76.6042 138.693 75.9569 138.693 76.3453C138.693 76.7336 138.154 77.122 138.019 77.2514C137.885 77.3809 138.828 77.3809 139.232 77.122C139.367 76.9925 140.445 76.7336 140.445 77.122C140.445 77.3809 140.04 78.287 139.097 78.5459C138.693 78.6754 136.537 78.6754 136.537 78.6754L136.268 77.3809Z" fill="#F7B17F"/>
<path d="M131.147 60.0318C131.147 60.0318 128.991 61.197 130.608 63.3981C130.608 63.3981 128.721 63.657 128.317 63.1391C128.317 63.1391 128.452 63.3981 128.452 63.5276C128.452 63.5276 126.7 63.3981 126.026 62.7507C125.352 62.1033 127.104 53.4286 131.955 55.1118C131.955 55.1118 136.133 55.3707 135.055 59.9023C133.977 64.5633 135.594 64.6928 135.594 64.6928C135.594 64.6928 135.19 64.8223 134.92 64.8223C134.92 64.8223 134.651 64.6928 134.651 64.4339C134.651 64.4339 134.651 64.6928 134.785 64.8223C134.785 64.8223 133.034 64.6928 132.36 64.0455C131.551 63.2686 130.743 60.9381 131.147 60.0318Z" fill="#243862"/>
<path d="M130.473 62.362C130.473 62.362 129.26 60.8083 128.99 59.3841C128.721 58.3483 127.508 54.4641 131.281 54.7231C131.281 54.7231 133.976 55.1115 135.054 55.7588C135.863 56.2767 137.211 57.3125 135.998 60.5494L135.728 61.5852L130.473 62.362Z" fill="#243862"/>
<path d="M132.899 67.0227C132.629 67.2816 131.417 67.411 130.339 67.0227C129.396 66.6344 128.991 65.5988 129.126 65.2104C129.261 64.8221 129.665 64.6926 130.204 62.2332L130.339 62.3626L133.438 63.5276C133.438 63.5276 133.168 64.4338 133.033 65.3399C132.899 66.1166 133.033 66.8933 132.899 67.0227Z" fill="#F7B17F"/>
<path d="M133.438 63.5277C133.438 63.5277 133.168 64.4338 133.033 65.34C131.282 64.9516 130.608 63.2688 130.473 62.2332L133.438 63.5277Z" fill="#EE985E"/>
<path d="M133.842 64.4332C133.842 64.4332 129.53 63.6563 130.069 61.1963C130.608 58.6068 130.338 56.7941 133.168 57.1826C135.863 57.571 136.268 58.6068 136.268 59.5131C136.402 60.4194 135.055 64.5626 133.842 64.4332Z" fill="#F7B17F"/>
<path d="M135.056 56.6656C135.056 56.6656 132.9 60.032 130.879 60.291C128.857 60.5499 128.318 59.6436 128.318 59.6436C128.318 59.6436 130.07 58.7372 130.609 56.6656C130.609 56.6656 134.248 54.9824 135.056 56.6656Z" fill="#243862"/>
<path d="M134.651 56.9244C134.651 56.9244 135.459 57.8305 135.594 58.6072C135.729 59.3838 135.594 60.8077 136.133 60.8077C136.133 60.8077 137.48 58.7366 136.537 57.3128C135.594 55.63 134.651 56.9244 134.651 56.9244Z" fill="#243862"/>
<path d="M134.786 57.0533C134.786 57.0533 133.304 60.4189 130.744 61.1956C130.744 61.1956 133.573 59.3833 134.112 57.1828C134.651 54.8528 134.786 57.0533 134.786 57.0533Z" fill="#243862"/>
<path d="M126.162 62.6212C126.835 63.2687 128.587 63.3982 128.587 63.3982C128.453 63.2687 128.453 63.0097 128.453 63.0097C129.396 63.6571 131.552 63.1392 131.552 63.1392C129.8 62.7507 130.204 60.2905 130.878 60.1611C131.148 58.2188 131.822 55.8881 132.091 54.8522C131.956 54.8522 131.956 54.8522 131.956 54.8522C127.24 53.2984 125.488 61.9738 126.162 62.6212Z" fill="#243862"/>
<path d="M128.452 65.3401C128.452 65.3401 125.622 65.3401 124.948 65.9875C124.274 66.5053 123.87 74.7916 123.87 74.7916C123.87 74.7916 125.218 74.4032 126.296 74.6622C127.508 74.9211 128.991 74.6622 128.991 74.6622L128.452 65.3401Z" fill="white"/>
<path d="M133.168 65.4697C133.168 65.4697 136.672 66.1171 137.48 67.0234C138.289 67.9297 139.906 72.3318 139.906 72.3318C139.906 72.3318 139.232 72.4613 138.963 72.8497C138.693 73.2381 137.615 73.1086 137.615 73.1086L133.168 65.4697Z" fill="white"/>
<path d="M139.501 90.0695C138.962 89.0337 138.558 88.1274 138.019 87.2211C137.076 85.4084 136.132 83.8548 135.324 82.6895C135.054 82.3011 134.785 81.9126 134.65 81.6537C134.515 81.5242 134.515 81.3947 134.38 81.2653C134.38 81.2653 134.38 81.2653 134.246 81.1358C134.246 81.1358 134.246 81.0063 134.111 81.0063C133.707 80.6179 133.168 80.359 132.629 80.2295C131.955 79.9705 131.281 79.8411 130.472 79.8411C129.664 79.8411 128.99 79.8411 128.182 79.8411C127.373 79.8411 126.565 79.9705 125.756 80.1C125.486 80.1 125.217 80.2295 124.947 80.2295C123.869 80.4884 122.926 80.6179 122.118 80.8769V90.0695H139.501Z" fill="#AD8DCE"/>
<path d="M133.842 90.0692C133.707 89.8103 133.707 89.6808 133.573 89.4219C133.438 89.0335 133.303 88.6451 133.168 88.2566C132.764 87.0914 132.36 86.0556 131.955 85.1493C131.416 83.8546 130.877 82.8188 130.473 82.1715L130.338 82.042C130.204 81.9125 130.069 81.7831 130.069 81.6536C129.934 81.5241 129.799 81.3947 129.53 81.2652C129.26 81.0062 128.991 80.8768 128.586 80.7473C127.778 80.4884 126.969 80.3589 125.891 80.3589C125.622 80.3589 125.352 80.3589 125.083 80.3589C124.544 80.3589 124.14 80.4884 123.6 80.4884C123.466 80.4884 123.466 80.4884 123.331 80.4884C122.927 80.4884 122.657 80.6178 122.253 80.6178V90.0692H133.842Z" fill="#936DBA"/>
<path d="M119.153 90.0695H120.096V50.3214V48.1204V36.7268H163.893V48.1204V50.3214V90.0695H164.836C167.127 90.0695 168.879 91.7527 168.879 93.9537V94.0832H115.11V93.9537C115.11 91.8822 116.862 90.0695 119.153 90.0695ZM161.871 38.6689H122.118V48.1204H161.871V38.6689ZM161.871 50.3214H122.118V90.0695H161.871V50.3214Z" fill="#7AA2D6"/>
<path d="M122.792 39.4448H161.198V41.2575H122.792V39.4448Z" fill="white"/>
<path d="M122.793 42.4221H161.199V44.2346H122.793V42.4221Z" fill="white"/>
<path d="M122.792 45.4011H161.198V47.2138H122.792V45.4011Z" fill="white"/>
<path d="M122.792 48.1199H161.198V49.9325H122.792V48.1199Z" fill="white"/>
<path d="M122.792 51.0977H161.198V52.9104H122.792V51.0977Z" fill="white"/>
<path d="M158.906 38.6689H159.311V54.594H158.906V38.6689Z" fill="white"/>
<path d="M124.273 38.6689H124.678V54.594H124.273V38.6689Z" fill="white"/>
<path d="M120.231 130.594H162.006V183.938H120.231V130.594Z" fill="#EFEDFF"/>
<path d="M140.31 131.501C140.31 131.501 140.175 147.297 156.885 160.633C156.885 160.633 153.381 177.982 153.92 182.902H161.871V131.501H140.31Z" fill="white"/>
<path d="M138.828 158.431C138.828 158.431 140.58 158.561 141.524 160.244C142.602 161.927 144.488 169.048 145.97 170.472C147.453 171.896 152.439 174.874 152.439 174.874L151.091 175.651C151.091 175.651 143.41 173.45 142.197 172.026C140.984 170.602 139.502 163.74 139.502 163.74L138.828 158.431Z" fill="#F7B17F"/>
<path d="M137.076 148.332C137.076 148.332 136.942 146.002 133.438 145.872C129.934 145.743 127.374 148.591 127.239 150.145C127.104 151.699 127.778 154.159 125.487 155.712C123.196 157.266 124.274 164.775 129.8 164.775C135.19 164.775 138.559 164.517 138.559 161.798C138.559 159.079 138.694 156.619 136.537 155.842C134.381 155.194 137.076 148.332 137.076 148.332Z" fill="#243862"/>
<path d="M131.147 178.499C131.147 178.629 131.282 178.758 131.282 178.758C131.282 178.758 131.282 178.888 131.282 179.017V179.147C131.416 179.535 131.551 180.053 131.821 180.7C131.821 180.83 131.955 181.089 131.955 181.218C131.955 181.348 131.955 181.348 132.09 181.477C132.09 181.477 132.09 181.477 132.09 181.607C132.09 181.607 132.09 181.736 132.09 181.866C132.09 181.995 132.09 181.995 132.225 182.125C132.225 182.254 132.36 182.513 132.36 182.642C132.494 183.031 132.629 183.549 132.764 184.067H140.984C140.984 183.549 140.984 183.16 140.849 182.642C140.849 182.513 140.849 182.384 140.849 182.384C140.849 181.866 140.715 181.477 140.715 180.959C140.715 180.83 140.715 180.7 140.715 180.7C140.715 180.441 140.715 180.312 140.58 180.053V179.923V179.794C140.58 179.535 140.58 179.406 140.445 179.276V179.147V179.017V178.888V178.758V178.629C140.445 178.629 140.445 178.629 140.445 178.499C140.445 178.499 140.445 178.499 140.445 178.37C140.445 178.24 140.445 178.111 140.31 178.111C140.31 178.111 140.31 177.981 140.176 177.981C140.176 177.981 140.176 177.981 140.041 177.981C140.041 177.981 139.906 177.981 139.906 177.852C139.906 177.852 139.906 177.852 139.771 177.852C139.771 177.852 139.771 177.852 139.637 177.852C139.637 177.852 139.637 177.852 139.502 177.852C139.502 177.852 139.502 177.852 139.367 177.852C139.232 177.852 139.232 177.852 139.098 177.722C139.098 177.722 139.098 177.722 138.963 177.722H138.828H138.693H138.558C138.558 177.722 138.559 177.722 138.424 177.722H138.289H138.154C137.885 177.722 137.615 177.722 137.211 177.722C137.076 177.722 137.076 177.722 136.941 177.722C136.807 177.722 136.672 177.722 136.537 177.722C136.402 177.722 136.133 177.722 135.998 177.722C135.863 177.722 135.863 177.722 135.729 177.722C135.459 177.722 135.19 177.852 134.92 177.852C134.785 177.852 134.785 177.852 134.651 177.852H134.381C134.112 177.852 133.842 177.981 133.572 177.981C133.438 177.981 133.438 177.981 133.303 177.981C133.303 177.981 133.303 177.981 133.168 177.981H133.033H132.899C132.764 177.981 132.629 177.981 132.629 178.111H132.494H132.36C132.225 178.111 132.09 178.24 131.955 178.24H131.821H131.686H131.551H131.416H131.282C131.282 178.24 131.282 178.24 131.147 178.24C131.147 178.24 131.147 178.24 131.012 178.24C131.282 178.499 131.147 178.499 131.147 178.499Z" fill="#1C478A"/>
<path d="M131.147 178.499C131.147 178.629 131.282 178.758 131.282 178.758C131.282 178.758 131.282 178.888 131.282 179.017V179.147C131.416 179.535 131.551 180.053 131.821 180.7C131.821 180.83 131.955 181.089 131.955 181.218C131.955 181.348 131.955 181.348 132.09 181.477C132.09 181.477 132.09 181.477 132.09 181.607C132.09 181.607 132.09 181.736 132.09 181.866C132.09 181.995 132.09 181.995 132.225 182.125C132.225 182.254 132.36 182.513 132.36 182.642C132.494 183.031 132.629 183.549 132.764 184.067H140.984C140.984 183.549 140.984 183.16 140.849 182.642C140.849 182.513 140.849 182.384 140.849 182.384C140.849 181.866 140.715 181.477 140.715 180.959C140.715 180.83 140.715 180.7 140.715 180.7C140.715 180.441 140.715 180.312 140.58 180.053V179.923V179.794C140.58 179.535 140.58 179.406 140.445 179.276V179.147V179.017V178.888V178.758V178.629C140.445 178.629 140.445 178.629 140.445 178.499C140.445 178.499 140.445 178.499 140.445 178.37C140.445 178.24 140.445 178.111 140.31 178.111C140.31 178.111 140.31 177.981 140.176 177.981C140.176 177.981 140.176 177.981 140.041 177.981C140.041 177.981 139.906 177.981 139.906 177.852C139.906 177.852 139.906 177.852 139.771 177.852C139.771 177.852 139.771 177.852 139.637 177.852C139.637 177.852 139.637 177.852 139.502 177.852C139.502 177.852 139.502 177.852 139.367 177.852C139.232 177.852 139.232 177.852 139.098 177.722C139.098 177.722 139.098 177.722 138.963 177.722H138.828H138.693H138.558C138.558 177.722 138.559 177.722 138.424 177.722H138.289H138.154C137.885 177.722 137.615 177.722 137.211 177.722C137.076 177.722 137.076 177.722 136.941 177.722C136.807 177.722 136.672 177.722 136.537 177.722C136.402 177.722 136.133 177.722 135.998 177.722C135.863 177.722 135.863 177.722 135.729 177.722C135.459 177.722 135.19 177.852 134.92 177.852C134.785 177.852 134.785 177.852 134.651 177.852H134.381C134.112 177.852 133.842 177.981 133.572 177.981C133.438 177.981 133.438 177.981 133.303 177.981C133.303 177.981 133.303 177.981 133.168 177.981H133.033H132.899C132.764 177.981 132.629 177.981 132.629 178.111H132.494H132.36C132.225 178.111 132.09 178.24 131.955 178.24H131.821H131.686H131.551H131.416H131.282C131.282 178.24 131.282 178.24 131.147 178.24C131.147 178.24 131.147 178.24 131.012 178.24C131.282 178.499 131.147 178.499 131.147 178.499Z" fill="#19365E"/>
<path d="M127.103 183.938H135.188C135.458 182.902 135.593 181.866 135.727 180.96C135.997 179.406 136.266 178.37 136.401 177.852C136.401 177.593 136.401 177.593 136.401 177.593C136.401 177.593 136.266 177.464 136.132 177.334C135.323 176.428 132.089 173.191 130.607 174.616C130.337 174.874 130.068 175.133 129.798 175.392C128.855 176.299 127.911 177.593 127.372 179.277C127.103 180.571 126.833 182.125 127.103 183.938Z" fill="#1C478A"/>
<path d="M137.076 159.467L135.728 161.409L132.898 161.28L131.551 158.043C131.551 158.043 131.955 157.913 132.09 154.029L135.593 155.065C135.593 155.065 135.459 156.101 135.593 157.266C135.998 158.043 136.402 158.949 137.076 159.467Z" fill="#F7B17F"/>
<path d="M137.48 158.173C137.345 158.173 133.976 157.137 129.394 158.949C129.394 158.949 131.55 171.12 130.607 173.451C129.664 175.781 129.259 177.853 129.259 177.853L139.501 177.982C139.501 177.982 139.366 169.955 139.771 167.236C140.444 164.258 137.48 158.173 137.48 158.173Z" fill="#F7B17F"/>
<path d="M127.373 179.018C127.508 179.406 127.912 179.665 128.451 179.924C129.125 180.183 129.799 180.442 130.473 180.572C130.877 180.701 131.685 180.83 132.494 180.83C132.898 180.83 133.437 180.96 133.842 180.96C133.976 180.96 133.976 180.96 134.111 180.96C137.211 181.089 140.714 181.089 141.119 179.665C141.119 179.536 141.119 179.277 141.119 178.888C141.119 178.112 140.849 177.076 140.714 176.04C140.579 175.004 140.445 174.098 140.31 173.709C140.04 171.25 140.579 167.624 140.579 165.294C140.579 163.352 138.828 158.561 138.828 158.561C138.828 158.561 138.423 158.302 137.076 158.173C137.076 158.173 136.941 160.503 135.593 160.762C133.437 161.151 131.685 159.209 131.146 158.432C131.146 158.432 128.721 159.079 127.912 159.856C127.373 160.374 127.508 161.798 127.643 162.704C127.643 162.963 127.778 163.222 127.778 163.352C127.912 163.74 128.451 166.589 128.721 167.754C128.721 167.754 128.721 167.754 128.721 167.883C128.721 168.013 128.721 168.013 128.721 168.142V168.272C129.125 169.437 129.395 170.602 129.26 172.156C129.26 172.285 129.26 172.544 129.125 172.803C129.125 174.098 127.643 177.464 127.373 179.018Z" fill="#6E4697"/>
<path d="M135.728 157.266C134.246 157.136 132.225 154.029 132.225 154.029L135.728 155.065C135.728 155.194 135.593 156.23 135.728 157.266Z" fill="#EE985E"/>
<path d="M137.076 158.043C137.076 158.043 140.445 158.432 141.523 159.856C142.601 161.409 143.274 163.61 143.274 163.61C143.274 163.61 142.466 165.941 140.175 165.552C138.019 165.294 137.076 158.043 137.076 158.043Z" fill="#6E4697"/>
<path d="M136.268 156.101C136.268 156.101 132.09 155.972 132.225 153.512C132.36 150.922 131.821 149.239 134.651 149.239C137.346 149.239 137.885 150.145 138.02 151.052C138.155 151.828 137.481 155.972 136.268 156.101Z" fill="#F7B17F"/>
<path d="M135.998 148.85C135.998 148.85 135.864 149.627 134.247 150.792C132.63 151.828 132.361 154.417 132.361 154.417C132.361 154.417 131.148 149.886 132.63 148.85C133.977 147.815 135.998 148.85 135.998 148.85Z" fill="#243862"/>
<path d="M134.65 147.426C134.65 147.426 136.806 147.167 138.288 149.497C138.962 150.533 138.423 152.086 137.749 152.863C137.749 152.863 137.48 150.662 136.402 150.015C135.189 149.368 134.65 147.426 134.65 147.426Z" fill="#243862"/>
<path d="M135.324 154.547C135.324 154.547 135.324 154.806 136.133 154.936C136.133 154.936 136.806 154.936 136.806 154.677C136.806 154.677 136.267 154.289 135.324 154.547Z" fill="white"/>
<path d="M149.07 171.378C149.07 171.378 150.148 170.083 149.205 169.307C149.205 169.307 148.396 168.918 147.857 168.918C147.857 168.918 148.801 170.342 148.396 170.472C148.127 170.601 147.588 168.789 147.588 168.789C147.588 168.789 145.836 168.659 145.298 168.918C145.298 168.918 146.78 170.083 146.51 170.213C146.241 170.342 144.624 169.177 144.624 169.177C144.624 169.177 143.007 169.436 143.142 170.342C143.277 171.248 143.816 171.637 144.085 171.507C144.354 171.507 145.702 170.989 145.837 171.119C145.837 171.248 145.028 171.896 144.354 172.025C144.354 172.025 145.432 173.19 146.241 172.931C147.049 172.543 147.049 172.025 147.588 171.766C148.127 171.507 148.531 171.507 148.262 171.766C148.127 172.025 147.184 172.154 146.914 172.672C146.645 173.19 146.375 173.449 147.184 173.32C147.992 173.19 149.205 172.672 149.339 172.025C149.07 171.378 149.07 171.378 149.07 171.378Z" fill="#BF4019"/>
<path d="M143.68 170.342C143.68 170.342 148.127 170.212 149.07 171.377C149.07 171.377 149.339 172.025 149.878 172.542L150.013 172.801C150.013 172.801 149.204 172.025 148.935 172.025C149.07 172.025 149.474 170.601 143.68 170.342Z" fill="#BF4019"/>
<path d="M150.013 172.672C150.013 172.672 150.956 173.319 150.956 174.484H150.821C150.821 174.484 150.552 173.19 150.013 172.801C149.339 172.284 150.013 172.672 150.013 172.672Z" fill="#BF4019"/>
<path d="M152.977 169.824C152.977 169.824 151.225 168.918 152.033 167.623C152.033 167.623 152.707 166.846 153.381 166.587C153.381 166.587 152.977 168.529 153.381 168.529C153.785 168.529 153.651 166.328 153.651 166.328C153.651 166.328 155.537 165.422 156.211 165.551C156.211 165.551 154.998 167.494 155.402 167.364C155.807 167.364 157.019 165.422 157.019 165.422C157.019 165.422 158.906 165.034 159.31 166.199C159.58 167.235 159.176 167.882 158.771 167.882C158.502 168.011 156.615 167.882 156.75 168.141C156.75 168.4 157.963 168.788 158.771 168.529C158.771 168.529 157.963 170.342 157.019 170.213C156.076 170.083 155.672 169.565 155.133 169.436C154.459 169.436 154.055 169.565 154.324 169.695C154.594 169.824 155.672 169.695 156.211 170.213C156.75 170.601 157.154 170.86 156.211 170.989C155.268 171.119 153.651 171.119 153.246 170.342C152.977 169.824 152.977 169.824 152.977 169.824Z" fill="#E95E2A"/>
<path d="M158.502 166.587C158.502 166.587 153.517 168.14 152.978 169.823C152.978 169.823 152.978 170.6 152.439 171.506V171.894C152.439 171.894 152.978 170.729 153.247 170.6C153.247 170.6 152.169 169.046 158.502 166.587Z" fill="#BF4019"/>
<path d="M152.438 171.508C152.438 171.508 151.629 172.673 152.168 173.967H152.303C152.303 173.967 152.168 172.414 152.572 171.767C152.977 170.99 152.438 171.508 152.438 171.508Z" fill="#BF4019"/>
<path d="M150.147 168.53C150.147 168.53 152.437 167.236 151.359 165.553C151.359 165.553 150.551 164.517 149.608 164.258C149.608 164.258 150.147 166.847 149.608 166.847C149.069 166.847 149.203 163.999 149.203 163.999C149.203 163.999 146.778 162.834 145.834 162.963C145.834 162.963 147.317 165.423 146.912 165.423C146.373 165.423 144.756 162.834 144.756 162.834C144.756 162.834 142.196 162.445 141.792 163.869C141.387 165.294 142.061 166.07 142.465 166.07C142.87 166.2 145.295 166.07 145.161 166.459C145.161 166.718 143.544 167.236 142.6 166.977C142.6 166.977 143.544 169.307 144.891 169.178C146.239 169.048 146.643 168.271 147.451 168.271C148.26 168.271 148.799 168.401 148.395 168.66C147.991 168.919 146.643 168.789 145.969 169.307C145.295 169.825 144.756 170.214 145.969 170.473C147.182 170.731 149.338 170.602 149.742 169.696C150.147 168.53 150.147 168.53 150.147 168.53Z" fill="#E95E2A"/>
<path d="M142.871 164.257C142.871 164.257 149.474 166.329 150.148 168.53C150.148 168.53 150.148 169.565 150.822 170.731V171.119C150.822 171.119 150.148 169.565 149.744 169.436C149.744 169.436 151.226 167.494 142.871 164.257Z" fill="#BF4019"/>
<path d="M150.821 170.731C150.821 170.731 151.764 172.155 151.225 173.967L150.955 173.838C150.955 173.838 151.225 171.896 150.686 170.861C150.147 169.955 150.821 170.731 150.821 170.731Z" fill="#BF4019"/>
<path d="M145.701 173.45C145.701 175.91 147.722 177.852 150.282 177.852C150.821 177.852 151.36 177.723 151.765 177.593C153.516 176.946 154.864 175.392 154.864 173.45H145.701Z" fill="#AD8DCE"/>
<path d="M150.283 177.851C150.417 177.851 149.474 177.851 149.744 177.851C152.304 177.851 154.324 175.91 154.324 173.45H153.247C153.112 175.78 152.438 177.592 150.283 177.851Z" fill="#CEAFEE"/>
<path d="M145.566 173.45H154.999V173.58H145.566V173.45Z" fill="#8F94E0"/>
<path d="M145.432 175.133C145.567 174.874 146.51 174.615 146.914 174.486C146.914 174.486 147.183 174.615 146.779 175.004C146.645 175.133 146.51 175.263 146.375 175.263H146.51C146.914 175.133 149.204 175.91 149.474 176.428C149.743 176.945 148.127 178.11 146.914 177.722C146.24 177.463 144.354 177.204 144.354 177.204L144.624 175.651C144.624 175.651 145.297 175.392 145.432 175.133Z" fill="#F7B17F"/>
<path d="M127.643 160.632C127.643 160.632 127.104 163.74 130.607 168.401C133.976 173.062 133.842 173.321 135.728 174.616C137.75 175.91 144.218 177.205 144.218 177.205L144.487 175.651C144.487 175.651 138.154 171.767 137.48 170.99C136.806 170.213 132.764 161.409 132.764 161.409L127.643 160.632Z" fill="#F7B17F"/>
<path d="M131.012 159.467C131.012 159.467 133.707 161.539 134.516 162.574C135.19 163.61 135.864 165.811 135.864 165.811C135.864 165.811 133.034 167.494 128.048 166.329C128.048 166.329 126.7 160.503 128.048 159.726C129.395 158.949 130.608 159.596 130.608 159.596H131.012V159.467Z" fill="#6E4697"/>
<path d="M139.232 131.501C139.232 131.501 136.133 144.449 122.118 148.98C122.118 148.98 122.252 168.919 123.87 174.098C125.487 179.277 125.891 182.902 125.891 182.902H122.253V131.501H139.232Z" fill="white"/>
<path d="M119.153 183.031H120.096V143.153V140.952V129.559H163.893V140.952V143.153V182.901H164.836C167.127 182.901 168.879 184.585 168.879 186.786V186.915H115.11V186.786C115.11 184.714 116.862 183.031 119.153 183.031ZM161.871 131.501H122.118V140.952H161.871V131.501ZM161.871 143.153H122.118V182.901H161.871V143.153Z" fill="#7AA2D6"/>
<path d="M97.5531 199.474H254.68V220.19H97.5531V199.474Z" fill="#184071"/>
<path d="M183.728 220.109C183.728 220.109 186.692 210.01 198.686 206.644C210.814 203.278 210.005 204.961 220.921 199.005C231.836 193.049 248.95 196.804 252.589 201.595C256.092 206.514 264.313 209.104 275.632 208.845C286.952 208.716 287.293 220.109 287.293 220.109H183.728Z" fill="#BF4019"/>
<path opacity="0.5" d="M187.746 130.594H229.521V183.937H187.746V130.594Z" fill="white"/>
<path d="M188.691 131.501H228.444V182.901H188.691V131.501Z" fill="#AD8DCE"/>
<path d="M212.271 176.816C212.271 176.816 214.561 179.794 214.561 182.901H198.93C198.93 182.901 199.738 177.981 203.242 176.816C206.88 175.521 212.271 176.816 212.271 176.816Z" fill="#243862"/>
<path d="M193.27 160.632C193.27 160.632 195.696 166.588 195.965 166.847C196.639 167.365 201.221 160.762 201.895 159.597C202.568 158.431 206.881 159.467 207.285 157.266C207.42 156.619 207.689 155.842 207.689 155.453V155.324C207.689 154.936 207.689 154.418 207.554 154.029H207.824L211.462 154.288C211.462 154.288 211.058 155.065 211.193 156.101C211.193 156.489 211.193 157.007 211.328 157.655C211.328 158.302 211.867 158.949 212.54 159.079C214.023 159.467 216.044 160.115 216.314 161.021C216.987 162.574 218.47 169.825 218.739 172.285C219.009 174.745 221.569 181.995 221.569 181.995H220.222C220.222 181.995 215.37 174.098 214.966 172.932C214.831 172.544 214.427 170.99 213.753 169.178C213.214 171.249 212.406 173.321 212.271 174.098C212.001 175.522 214.831 180.312 214.562 181.607C214.292 182.902 199.469 183.678 199.604 181.607C199.873 179.535 201.895 176.169 202.299 174.486C202.568 173.321 201.895 169.307 201.625 166.847C199.334 169.307 196.235 171.638 195.291 171.249C192.866 170.084 192.057 161.021 192.057 161.021L193.27 160.632Z" fill="#F7B17F"/>
<path d="M210.114 152.087C210.114 152.087 212.001 153.511 210.384 155.712C210.384 155.712 212.27 155.583 212.809 155.194L212.675 155.453C212.675 155.453 214.426 155.324 215.1 154.676C215.774 154.029 214.292 145.484 209.44 147.038C209.44 147.038 205.263 147.167 206.206 151.699C207.15 156.23 205.667 156.36 205.667 156.36C205.667 156.36 206.072 156.489 206.341 156.489C206.341 156.489 206.611 156.36 206.611 156.23C206.611 156.23 206.611 156.489 206.476 156.619C206.476 156.619 208.228 156.619 208.901 155.842C209.71 155.194 210.519 152.993 210.114 152.087Z" fill="#243862"/>
<path d="M211.866 153.899C211.866 153.899 212.674 152.216 212.809 150.792C212.809 149.756 211.866 146.39 208.227 147.297C208.227 147.297 207.149 147.555 206.206 148.332C205.532 148.98 204.454 150.145 206.071 153.123L206.475 154.158L211.866 153.899Z" fill="#243862"/>
<path d="M207.285 157.265C209.845 156.877 211.327 154.288 211.327 154.288C210.249 154.159 208.767 154.676 207.555 155.324V155.453C207.555 155.971 207.42 156.618 207.285 157.265Z" fill="#EE985E"/>
<path d="M207.15 156.359C207.15 156.359 211.866 155.841 211.462 153.123C211.058 150.274 211.462 148.332 208.497 148.591C205.533 148.72 204.994 149.886 204.994 150.792C204.859 151.698 205.937 156.359 207.15 156.359Z" fill="#F7B17F"/>
<path d="M206.477 148.721C206.477 148.721 208.094 151.828 210.115 152.086C212.136 152.345 212.944 151.698 212.944 151.698C212.944 151.698 211.327 150.663 210.789 148.721C210.789 148.721 207.151 147.038 206.477 148.721Z" fill="#243862"/>
<path d="M206.745 148.85C206.745 148.85 205.937 149.627 205.802 150.404C205.668 151.18 205.802 152.604 205.263 152.604C205.263 152.604 204.051 150.533 204.994 149.109C205.937 147.685 206.745 148.85 206.745 148.85Z" fill="#243862"/>
<path d="M206.611 148.979C206.611 148.979 207.959 152.345 210.519 153.121C210.519 153.121 207.824 151.309 207.285 149.109C206.881 146.908 206.611 148.979 206.611 148.979Z" fill="#243862"/>
<path d="M208.228 154.677C208.228 154.677 208.093 155.065 207.824 155.194C207.554 155.194 206.746 155.324 206.746 155.324L206.476 154.935C206.476 154.935 207.554 154.547 208.228 154.677Z" fill="white"/>
<path d="M193.269 161.02C193.269 161.02 193.404 158.948 193.135 158.172C192.865 157.395 192.326 156.23 192.326 156.36C192.192 156.36 191.922 158.042 192.057 158.301C192.192 158.69 191.922 159.466 191.787 159.337C191.653 159.207 191.383 158.042 191.248 158.042C191.114 158.172 191.248 158.819 191.114 158.948C190.979 159.078 190.979 159.596 191.383 160.113C191.787 160.761 192.057 161.408 192.057 161.408L193.269 161.02Z" fill="#F7B17F"/>
<path d="M221.166 181.866C221.166 181.866 223.052 181.477 223.725 181.607C224.399 181.866 225.477 182.901 225.207 182.901C224.938 182.901 223.591 182.642 223.456 182.642C223.321 182.642 222.782 182.772 222.782 182.772C222.782 182.772 223.591 182.772 223.456 182.901C223.456 183.031 221.435 183.031 221.3 182.901C221.031 182.772 220.222 181.866 220.222 181.866H221.166Z" fill="#F7B17F"/>
<path d="M214.427 159.725C214.427 159.725 212.136 161.668 209.036 161.538C206.072 161.409 203.646 159.078 203.646 159.078C203.646 159.078 202.299 159.078 201.625 159.855C200.951 160.632 198.121 163.869 198.121 163.869C198.121 163.869 197.852 166.329 200.951 168.012L201.22 167.494C201.22 167.494 201.759 173.709 201.355 174.226C201.086 174.744 198.525 180.83 198.93 181.736C199.334 182.642 213.349 184.973 214.292 181.606C215.37 178.24 212.675 175.392 212.81 174.097C212.944 172.932 213.483 169.048 213.483 169.048C213.483 169.048 217.526 168.4 217.661 166.199C217.796 166.199 217.122 159.725 214.427 159.725Z" fill="white"/>
<path d="M185.723 183.031H186.667V143.153V140.952V129.559H230.463V140.952V143.153V182.901H231.406C233.697 182.901 235.449 184.585 235.449 186.786V186.915H181.681V186.786C181.681 184.714 183.567 183.031 185.723 183.031ZM228.441 131.501H188.688V140.952H228.441V131.501ZM228.441 143.153H188.688V182.901H228.441V143.153Z" fill="#7AA2D6"/>
<path d="M189.361 132.407H227.766V134.219H189.361V132.407Z" fill="white"/>
<path d="M189.361 135.254H227.767V137.067H189.361V135.254Z" fill="white"/>
<path d="M189.361 138.233H227.767V140.046H189.361V138.233Z" fill="white"/>
<path d="M189.361 140.952H227.767V142.765H189.361V140.952Z" fill="white"/>
<path d="M189.361 144.06H227.767V145.873H189.361V144.06Z" fill="white"/>
<path d="M225.476 131.5H225.88V147.425H225.476V131.5Z" fill="white"/>
<path d="M190.843 131.5H191.248V147.425H190.843V131.5Z" fill="white"/>
<path d="M199.471 181.476H205.13V179.535H199.471C198.932 179.535 198.663 179.923 198.663 180.311V180.57C198.528 181.088 198.932 181.476 199.471 181.476Z" fill="#FDECDB"/>
<path d="M193.674 180.312V180.571C193.674 180.7 193.673 180.83 193.808 180.959C193.943 181.218 194.213 181.348 194.617 181.348H205.263C205.397 181.348 205.397 181.348 205.397 181.218C205.397 181.089 205.397 181.089 205.263 181.089H198.794C198.794 181.089 198.794 180.959 198.66 180.959C198.66 180.83 198.525 180.7 198.525 180.571V180.183C198.525 180.053 198.525 180.053 198.525 179.924C198.525 179.794 198.66 179.665 198.66 179.665H205.128C205.263 179.665 205.263 179.665 205.263 179.535C205.263 179.406 205.263 179.406 205.128 179.406H194.482C194.078 179.406 193.808 179.665 193.674 179.924C193.674 180.183 193.674 180.312 193.674 180.312Z" fill="#709AD1"/>
<path d="M193.81 180.183H198.661C198.661 180.053 198.796 179.924 198.796 179.924H205.264C205.399 179.924 205.399 179.924 205.399 179.794C205.399 179.665 205.399 179.665 205.264 179.665H194.618C194.214 179.535 193.81 179.794 193.81 180.183Z" fill="#5B8AC8"/>
<path d="M203.781 183.038H197.717V181.483H203.781C204.186 181.483 204.59 181.871 204.59 182.26C204.59 182.649 204.32 183.038 203.781 183.038Z" fill="#BF4019"/>
<path d="M198.257 183.031H191.25V181.478H198.257C198.661 181.478 198.931 181.736 198.931 182.125V182.384C198.931 182.643 198.661 183.031 198.257 183.031Z" fill="#FDECDB"/>
<path d="M199.335 183.031H190.98C190.98 183.031 190.845 183.031 190.845 182.901C190.845 182.901 190.845 182.772 190.98 182.772H199.335C199.47 182.772 199.47 182.772 199.335 183.031C199.47 182.901 199.47 183.031 199.335 183.031Z" fill="#BF4019"/>
<path d="M199.335 181.737H190.98C190.98 181.737 190.845 181.737 190.845 181.607C190.845 181.607 190.845 181.478 190.98 181.478H199.335C199.47 181.478 199.47 181.478 199.335 181.737C199.47 181.607 199.47 181.737 199.335 181.737Z" fill="#BF4019"/>
<path d="M193.405 181.866C193.405 181.866 193.271 181.866 193.271 181.995C193.271 182.125 193.271 182.513 193.271 182.513L193.001 182.383L192.732 182.513V182.125C192.732 181.995 192.732 181.995 192.867 181.866C192.867 181.866 192.867 181.866 193.001 181.866H193.405Z" fill="#709AD1"/>
<path d="M193.405 181.866C193.405 181.866 193.271 181.866 193.271 181.995H192.732C192.732 181.995 192.732 181.866 192.867 181.866H193.405Z" fill="#5B8AC7"/>
<path d="M188.554 37.7627H230.329V91.1052H188.554V37.7627Z" fill="#EFEDFF"/>
<path d="M210.249 38.6692C210.249 38.6692 210.383 54.4649 193.673 67.8005C193.673 67.8005 197.177 85.1499 196.638 90.0699H188.687V38.6692H210.249Z" fill="white"/>
<path d="M225.207 68.5771C225.207 68.5771 228.71 69.095 229.654 69.7424C231.136 71.0371 230.058 90.4581 230.058 90.4581C230.058 90.4581 224.802 90.8465 224.802 90.4581C224.802 90.0697 225.207 68.5771 225.207 68.5771Z" fill="#D39E7A"/>
<path d="M211.462 90.5878L219.008 91.1057L224.264 91.4941L225.342 91.6236L225.476 91.2352V90.8467V90.7173L225.746 88.9047L225.881 88.2573L226.15 86.0563L227.767 75.1806L228.171 72.0733C228.171 72.0733 228.576 69.2249 225.746 68.707C225.476 68.707 225.342 68.5775 225.072 68.5775C224.129 68.4481 223.051 68.1891 221.973 68.0596C221.164 67.9302 220.221 67.9302 219.412 67.9302C219.143 67.9302 218.738 67.9302 218.469 68.0596C218.065 68.0596 217.795 68.1891 217.526 68.3186C217.526 68.3186 217.526 68.3186 217.391 68.3186C217.256 68.3186 217.121 68.4481 217.121 68.4481C217.121 68.4481 216.987 68.4481 216.987 68.5775C216.852 68.707 216.717 68.8365 216.717 69.0954C216.582 69.3544 216.448 69.7428 216.313 70.2607C216.043 70.908 215.774 71.8143 215.504 72.7206C214.831 75.4396 213.887 78.9353 213.213 82.0426C213.213 82.1721 213.213 82.1721 213.213 82.3016C213.079 82.69 213.079 83.0784 212.944 83.4668C212.944 83.5963 212.944 83.5963 212.944 83.7258C212.944 83.9847 212.809 84.1142 212.809 84.3731C212.674 84.7615 212.674 85.15 212.54 85.5384C212.001 88.1278 211.596 89.9404 211.462 90.5878Z" fill="#936DBA"/>
<path d="M216.313 70.2607C216.313 70.2607 215.1 71.9439 214.426 75.4396C213.887 78.547 213.348 79.7122 212.405 80.3596C211.597 81.0069 206.745 82.8195 206.745 82.8195L207.15 83.5964C207.15 83.5964 214.157 82.6901 214.965 81.5248C215.774 80.3596 218.739 73.7565 218.469 72.2028C218.2 70.9081 216.313 70.2607 216.313 70.2607Z" fill="#F5A369"/>
<path d="M200.277 91.1059H206.072C206.206 90.588 206.476 90.1995 206.88 90.1995C207.284 90.1995 209.171 90.329 211.597 90.4585C215.37 90.588 220.221 90.4585 221.299 88.5164C221.569 88.128 221.703 87.6101 221.838 87.2216V87.0922C222.108 86.3153 222.108 85.5385 222.108 84.8911C222.108 84.5027 221.973 84.1142 221.973 83.8553C221.838 83.0784 221.569 82.5605 221.569 82.5605L219.682 83.8553L219.413 83.9848C219.413 83.9848 217.795 83.8553 215.639 83.7258C215.1 83.7258 214.561 83.7258 214.022 83.7258C213.753 83.7258 213.483 83.7258 213.214 83.7258C213.079 83.7258 213.079 83.7258 212.944 83.7258C212.27 83.7258 211.597 83.7258 210.923 83.7258C210.788 83.7258 210.788 83.7258 210.653 83.7258C210.519 83.7258 210.384 83.7258 210.114 83.7258C207.419 83.7258 204.994 83.8553 203.646 84.3732C203.511 84.3732 203.376 84.5027 203.242 84.6321C202.433 85.15 201.355 87.869 200.277 91.1059Z" fill="#BF4019"/>
<path d="M205.532 91.1061H219.008L224.263 91.4945C224.533 91.365 224.802 91.2356 224.937 91.1061C225.072 90.9766 225.341 90.8471 225.476 90.7177C225.476 90.7177 225.476 90.7177 225.611 90.5882C225.746 90.4587 225.746 90.3293 225.88 90.3293C226.15 89.8114 226.285 89.423 226.15 88.9051C226.15 88.6461 226.015 88.3872 226.015 88.1282C225.746 87.6103 225.476 87.0925 224.937 86.5746C223.859 85.4093 222.242 84.762 222.242 84.762C222.107 84.762 220.49 84.8914 218.469 85.0209C218.334 85.0209 218.065 85.0209 217.795 85.0209C216.178 85.1504 214.291 85.4093 212.674 85.6683C210.518 86.0567 208.497 86.4451 207.688 86.963C207.014 87.4809 206.206 89.0345 205.532 91.1061Z" fill="#E95E2A"/>
<path d="M216.582 64.1752C216.582 63.9163 216.582 63.6573 216.582 63.5278C216.582 62.8805 216.717 62.2331 216.852 61.7152C216.987 61.3268 216.987 61.0679 217.121 60.8089V60.6794C217.391 60.0321 217.66 59.6436 217.93 59.3847C218.469 58.9963 219.143 58.9963 219.547 58.9963C219.412 58.8668 219.143 58.8668 219.143 58.8668C219.412 58.8668 220.086 58.9963 220.086 58.9963C223.994 57.3131 225.072 62.8805 225.072 64.1752C225.072 65.4699 225.207 67.0236 227.228 68.0594C228.037 68.4478 228.576 68.9657 228.845 69.4836C230.193 71.6846 228.306 74.4036 228.306 74.4036C228.306 74.4036 228.037 74.6625 227.767 75.0509C226.959 76.0867 225.611 77.8993 225.611 77.8993C225.611 77.6404 225.342 77.1225 225.072 76.6046C224.803 76.2162 224.398 75.6983 223.994 75.0509C223.859 74.792 223.59 74.533 223.32 74.2741C223.051 73.8857 222.781 73.4973 222.377 73.2383C222.242 73.1088 222.107 72.9794 221.973 72.8499C221.434 72.2025 220.76 71.6846 220.221 71.1667C220.086 71.0373 219.951 70.9078 219.817 70.7783C219.682 70.6488 219.547 70.5194 219.278 70.3899C219.008 70.131 218.604 70.0015 218.334 69.7425C218.334 69.7425 218.199 69.7425 218.199 69.6131C218.065 69.4836 217.93 69.3541 217.93 69.0952C217.93 68.9657 217.795 68.9657 217.795 68.8362C217.66 68.5773 217.66 68.4478 217.526 68.1889C217.256 67.5415 217.121 67.0236 217.121 66.8941C217.256 67.412 217.256 67.9299 217.391 68.1889C217.526 68.4478 217.526 68.5773 217.66 68.8362C217.66 68.9657 217.795 69.0952 217.795 69.0952V69.2246C217.795 69.2246 217.795 69.2246 217.66 69.0952C217.526 68.9657 217.391 68.8362 217.391 68.7068C217.256 68.5773 217.121 68.4478 217.121 68.1889C216.717 67.412 216.448 65.7289 216.582 64.1752Z" fill="#BF4019"/>
<path d="M218.47 68.8358C218.605 68.8358 218.605 68.8358 218.74 68.7063C218.74 68.5769 218.74 68.318 218.74 68.1885C218.74 67.2824 218.605 66.5057 218.605 66.5057L221.569 65.729H221.704C221.839 67.0235 222.108 67.8002 222.243 68.4474C222.512 68.4474 222.782 68.4474 222.782 68.4474C222.782 68.5769 222.782 68.8358 222.647 69.2241V69.3536C222.782 70.1303 220.761 71.2953 219.818 71.2953C219.279 71.2953 219.009 71.1659 218.74 70.7775C217.527 70.3892 217.662 69.2241 218.47 68.8358Z" fill="#F7B17F"/>
<path d="M218.593 66.3543C218.593 66.3543 218.728 67.2605 218.728 68.0372C220.345 67.9077 221.153 66.3543 221.423 65.5776L218.593 66.3543Z" fill="#F5A369"/>
<path d="M221.703 65.3398C221.703 65.3398 222.512 63.916 222.646 62.751C222.781 61.9743 222.107 58.9971 219.009 59.6443C219.009 59.6443 218.065 59.7738 217.257 60.421C216.583 60.9388 215.64 61.9743 216.988 64.4337L217.392 65.3398H221.703Z" fill="#BF4019"/>
<path d="M218.065 67.2828C218.065 67.2828 221.973 67.1533 221.838 64.6933C221.704 62.3627 222.108 60.6795 219.547 60.809C216.987 60.809 216.583 61.7153 216.448 62.6216C216.313 63.3985 216.987 67.2828 218.065 67.2828Z" fill="#F7B17F"/>
<path d="M217.661 60.8091C217.661 60.8091 218.873 63.5275 220.625 63.7864C222.242 64.0452 223.05 63.6569 223.05 63.6569C223.05 63.6569 221.703 62.7508 221.299 61.068C221.299 61.1975 218.469 59.5147 217.661 60.8091Z" fill="#BF4019"/>
<path d="M217.93 61.0687C217.93 61.0687 217.122 61.7159 216.987 62.3631C216.852 63.0104 216.852 64.1754 216.448 64.1754C216.448 64.1754 215.505 62.3631 216.313 61.1981C217.256 60.0331 217.93 61.0687 217.93 61.0687Z" fill="#BF4019"/>
<path d="M214.023 84.2435C214.292 84.6319 215.37 84.7614 216.448 84.8909C217.257 85.0203 218.2 85.1498 218.739 85.5382C220.222 86.3151 224.803 89.034 226.151 88.9046C226.69 88.9046 226.555 87.8688 226.286 86.574C225.747 84.5025 224.669 81.7835 224.669 80.4888C224.669 79.8414 224.399 78.2877 224.129 76.4751C224.129 76.3456 224.13 76.2162 223.995 76.0867C223.321 72.5909 222.512 68.4478 222.512 68.4478C222.512 68.4478 221.569 70.3899 219.683 70.3899C217.796 70.3899 218.335 68.8362 218.335 68.8362C218.335 68.8362 216.718 68.9656 216.314 69.4835C215.909 69.872 214.966 71.6846 214.696 72.2025C214.696 72.2025 214.696 72.8499 216.179 73.1088C216.179 73.1088 215.775 74.7919 215.775 75.9572C215.775 76.7341 216.314 79.3235 216.583 81.0067C216.583 81.5246 216.718 82.0425 216.583 82.1719C216.448 82.4309 216.044 82.6898 215.64 82.9488C214.831 83.3372 213.618 83.7256 214.023 84.2435Z" fill="#7896CD"/>
<path d="M215.64 82.8195C214.562 84.5026 218.335 85.0205 219.009 85.2794C220.491 86.0563 224.803 89.0341 226.151 88.9047C226.69 88.9047 226.555 87.8689 226.286 86.5742C225.747 84.5026 224.669 81.7837 224.669 80.4889C224.669 79.8416 224.399 78.2879 224.129 76.4753L222.512 74.9216C222.512 74.9216 220.761 79.3237 219.143 79.9711C218.2 80.3595 217.392 80.6184 216.718 80.7479C216.718 81.2658 216.853 81.7837 216.718 81.9131C216.583 82.3016 216.179 82.5605 215.64 82.8195Z" fill="#4D73B7"/>
<path d="M210.251 83.9846H215.371V84.6319H210.251V83.9846Z" fill="#243862"/>
<path d="M211.329 84.503C211.329 84.3735 206.612 77.2524 206.612 77.2524H196.236L201.492 84.3735L211.329 84.503Z" fill="#243862"/>
<path d="M210.79 84.6324C210.79 84.503 206.074 77.2524 206.074 77.2524H196.102L201.088 84.6324H210.79Z" fill="#2C488C"/>
<path d="M202.569 81.1364C202.704 81.3953 202.974 81.6542 203.243 81.6542C203.512 81.6542 203.647 81.3953 203.647 81.1364C203.512 80.8776 203.243 80.6187 202.974 80.6187C202.704 80.6187 202.435 80.8776 202.569 81.1364Z" fill="#B2CBEC"/>
<path d="M212.54 82.1723C212.81 82.0429 214.427 82.4313 214.831 82.4313C216.313 82.1723 221.299 81.1366 221.569 80.8776C221.838 80.4892 222.512 69.7429 223.186 69.6134C223.186 69.6134 224.534 68.8366 225.881 70.3902C227.229 71.9439 224.938 83.0787 222.917 83.5966C220.626 84.2439 214.292 83.4671 214.292 83.4671C213.753 83.5966 212.81 83.726 212.405 83.8555C211.732 84.1144 211.193 83.8555 211.058 83.5966C210.788 83.4671 212.271 82.3018 212.54 82.1723Z" fill="#F7B17F"/>
<path d="M222.647 68.3186C222.647 68.3186 225.477 68.5775 226.42 69.4836C227.228 70.3898 227.498 72.8493 227.498 72.8493C227.498 72.8493 224.938 74.791 221.974 74.0143L222.647 68.3186Z" fill="#7896CD"/>
<path d="M211.329 38.6685C211.329 38.6685 214.428 51.6157 228.443 56.1473C228.443 56.1473 228.308 76.0861 226.691 81.265C225.074 86.4439 224.67 90.0691 224.67 90.0691H228.308V38.6685H211.329Z" fill="white"/>
<path d="M235.449 93.9537V94.0832H181.681V93.9537C181.681 91.7527 183.432 90.0695 185.723 90.0695H186.667V50.3214V48.1204V36.7268H230.463V48.1204V50.3214V90.0695H231.406C233.562 90.0695 235.449 91.8822 235.449 93.9537ZM188.688 48.1204H228.441V38.6689H188.688V48.1204ZM188.688 90.0695H228.441V50.3214H188.688V90.0695Z" fill="#7AA2D6"/>
<path d="M195.426 86.1859C195.426 86.1859 194.079 86.7041 193.001 85.4087C193.001 85.4087 194.618 85.1496 195.426 86.1859Z" fill="#BF4019"/>
<path d="M195.561 85.6681C195.561 85.6681 195.696 85.1504 196.234 85.1504C196.234 85.1504 195.965 85.6681 195.561 85.6681Z" fill="#BF4019"/>
<path d="M195.291 82.8189C195.291 82.8189 194.617 82.9483 194.348 82.1716C194.348 82.1716 195.022 82.3011 195.291 82.8189Z" fill="#BF4019"/>
<path d="M193.674 73.2376C195.022 72.9787 195.022 71.8137 195.022 71.8137C193.405 72.4609 193.674 73.2376 193.674 73.2376Z" fill="#BF4019"/>
<path d="M193.539 73.1087C193.539 73.1087 192.73 73.497 192.057 72.591C192.057 72.591 193 72.3321 193.539 73.1087Z" fill="#BF4019"/>
<path d="M195.426 89.422L195.561 89.681H195.696C195.696 84.1136 194.887 79.0642 194.348 76.2157C193.674 72.9789 193.001 71.1663 193.001 71.1663C193.001 71.1663 193.674 73.1084 194.348 76.3452C194.887 79.0642 195.561 82.9484 195.426 89.422Z" fill="#BF4019"/>
<path d="M193 70.2604C193.27 70.3899 194.078 71.1667 193.27 71.6845C193.27 71.6845 192.596 71.814 192.462 71.4256C192.327 71.0372 192.327 70.6488 192.192 70.5193C192.192 70.5193 192.192 70.3899 192.327 70.3899H192.462C192.596 70.3899 192.596 70.2604 192.731 70.2604C192.731 70.131 192.731 70.131 193 70.2604C192.866 70.131 192.866 70.2604 193 70.2604Z" fill="#AD8DCE"/>
<path d="M193.405 71.4255C193.405 71.4255 193.135 71.555 193.27 71.9434V72.0729C193.27 72.0729 193.27 71.8139 192.866 71.6845C192.866 71.6845 193.135 71.8139 193.405 71.4255Z" fill="#BF4019"/>
<path d="M193.674 73.2376C195.022 72.9787 195.022 71.8137 195.022 71.8137C195.022 71.8137 193.944 72.4609 193.674 73.2376Z" fill="#E95E2A"/>
<path d="M194.888 72.5904C194.888 72.5904 195.696 72.8493 196.37 72.0727C196.37 72.0727 195.427 71.8138 194.888 72.5904Z" fill="#BF4019"/>
<path d="M193.406 88.9039L193.271 89.1629H193.136C193.002 83.5956 193.676 78.5461 194.215 75.6977C194.888 72.4609 195.427 70.6483 195.427 70.5188C195.427 70.5188 194.888 72.4609 194.215 75.6977C193.676 78.5461 193.136 82.4303 193.406 88.9039Z" fill="#BF4019"/>
<path d="M195.424 69.7423C195.154 69.8718 194.346 70.6485 195.154 71.1662C195.154 71.1662 195.828 71.2957 195.963 70.9073C196.097 70.519 196.097 70.1307 196.097 70.0012C196.097 70.0012 196.097 69.8718 195.963 69.8718H195.828C195.693 69.8718 195.693 69.7423 195.559 69.7423C195.693 69.7423 195.693 69.6129 195.424 69.7423C195.558 69.7423 195.558 69.7423 195.424 69.7423Z" fill="#AD8DCE"/>
<path d="M195.022 71.0366C195.022 71.0366 195.291 71.1661 195.157 71.5545V71.6839C195.157 71.6839 195.157 71.425 195.561 71.2955C195.561 71.1661 195.291 71.2955 195.022 71.0366Z" fill="#BF4019"/>
<path d="M194.617 71.555C194.617 71.555 193.674 71.6844 193.27 70.7783C193.27 70.7783 194.213 70.7783 194.617 71.555Z" fill="#BF4019"/>
<path d="M192.731 87.9979L192.866 88.2569H193C194.213 82.819 194.617 77.7696 194.752 74.7918C194.752 71.555 194.617 69.4834 194.617 69.4834C194.617 69.4834 194.752 71.555 194.752 74.7918C194.483 77.7696 194.348 81.6538 192.731 87.9979C192.731 87.8685 192.731 87.8685 192.731 87.9979Z" fill="#BF4019"/>
<path d="M194.619 68.7068C194.754 68.9657 195.428 69.7424 194.485 70.1307C194.485 70.1307 193.811 70.1307 193.676 69.7424C193.542 69.3541 193.676 68.9657 193.676 68.8363C193.676 68.8363 193.676 68.7068 193.811 68.7068H193.946C194.08 68.7068 194.08 68.5774 194.215 68.5774C194.35 68.5774 194.485 68.5774 194.619 68.7068Z" fill="#AD8DCE"/>
<path d="M194.752 70.0012C194.752 70.0012 194.483 70.1305 194.483 70.5185V70.6478C194.483 70.6478 194.483 70.3892 194.213 70.2598C194.213 70.1305 194.483 70.2598 194.752 70.0012Z" fill="#BF4019"/>
<path d="M193.81 70.6482C193.81 70.6482 193.81 70.001 193.136 69.7422C193.136 69.6127 193.001 70.2599 193.81 70.6482Z" fill="#BF4019"/>
<path d="M195.292 69.483C195.292 69.483 195.292 68.9652 195.831 68.8357C195.831 68.8357 195.966 69.2241 195.292 69.483Z" fill="#AD8DCE"/>
<path d="M193.542 72.7194C193.542 72.7194 193.272 72.2016 193.811 71.8132C193.811 71.6838 194.081 72.331 193.542 72.7194Z" fill="#AD8DCE"/>
<path d="M193.272 72.5901C193.272 72.5901 193.272 72.3311 193.003 72.3311C193.003 72.3311 193.003 72.5901 193.272 72.5901Z" fill="#BF4019"/>
<path d="M195.831 71.684C195.831 71.684 196.1 71.2957 196.774 71.2957C196.774 71.4251 196.639 71.8134 195.831 71.684Z" fill="#BF4019"/>
<path d="M191.923 90.069H196.505C196.774 90.069 197.044 89.8101 197.044 89.5512L194.887 75.5688C194.887 75.4393 194.753 75.3098 194.618 75.3098H193.944C193.809 75.3098 193.675 75.4393 193.675 75.5688L191.519 89.5512C191.384 89.8101 191.653 90.069 191.923 90.069Z" fill="#6E4697"/>
<path d="M195.426 89.6814L194.348 75.3105C194.483 75.3105 194.618 75.44 194.618 75.5695L196.774 89.5519C196.774 89.8108 196.639 90.0698 196.235 90.0698H195.291C195.426 89.9403 195.561 89.8108 195.426 89.6814Z" fill="#AD8DCE"/>
<path d="M262.078 122.614H263.021V122.484L262.751 120.025C262.751 119.895 262.617 119.895 262.617 119.895H262.482L262.347 120.025L262.078 122.614Z" fill="#A5C3E8"/>
<path d="M263.021 121.967L262.751 120.025C262.751 119.895 262.617 119.895 262.617 119.895C262.617 119.895 262.617 120.025 262.482 120.025V121.449C262.482 121.837 262.751 121.967 263.021 121.967Z" fill="#B2CBEC"/>
<path d="M261.537 133.49H263.424V211.692H261.537V133.49Z" fill="#A5C3E8"/>
<path d="M262.615 133.49H263.424V211.692H262.615V133.49Z" fill="#B2CBEC"/>
<path d="M259.516 199.263H265.445V219.978H259.516V199.263Z" fill="#A5C3E8"/>
<path d="M261.942 199.263H265.445V219.978H261.942V199.263Z" fill="#B2CBEC"/>
<path d="M259.247 123.78C259.247 124.686 260.729 125.592 262.616 125.592C262.75 125.592 262.885 125.592 263.02 125.592C264.637 125.463 265.985 124.686 265.985 123.909C265.985 123.003 264.637 122.226 263.02 122.226C262.885 122.226 262.75 122.226 262.616 122.226C260.729 121.967 259.247 122.744 259.247 123.78Z" fill="#A5C3E8"/>
<path d="M261 123.779C261 124.555 261.808 125.203 263.02 125.462C264.637 125.332 265.985 124.555 265.985 123.779C265.985 122.873 264.637 122.096 263.02 122.096C261.808 122.355 261 123.002 261 123.779Z" fill="#B2CBEC"/>
<path d="M259.516 135.043H265.445L267.466 125.462H257.764L259.516 135.043Z" fill="#B2CBEC"/>
<path d="M257.226 124.685H268.006V125.591H257.226V124.685Z" fill="#A5C3E8"/>
<path d="M261.268 124.685H268.006V125.591H261.268V124.685Z" fill="#B2CBEC"/>
<path d="M264.367 199.262H260.595L261.134 197.708C261.134 197.579 261.269 197.449 261.538 197.449H263.289C263.424 197.449 263.694 197.579 263.694 197.708L264.367 199.262Z" fill="#A5C3E8"/>
<path d="M266.794 125.85H258.439L260.056 134.525H264.907L266.794 125.85Z" fill="#C8DBF3"/>
<path d="M265.715 123.909C265.715 123.909 265.042 122.614 263.829 122.614C263.829 122.614 264.637 123.261 264.503 123.909C264.503 124.426 265.715 123.909 265.715 123.909Z" fill="#C8DBF3"/>
<path d="M257.899 124.686H267.332L266.523 123.65H258.707L257.899 124.686Z" fill="#A5C3E8"/>
<path d="M260.189 124.686H267.332L266.523 123.65H260.998L260.189 124.686Z" fill="#B2CBEC"/>
<path d="M266.254 126.239H264.368L263.829 134.266H264.368L266.254 126.239Z" fill="#D2E3F6"/>
<path d="M271.294 74.1439C271.294 72.5906 269.947 71.2961 268.33 71.2961C266.713 71.2961 265.366 72.5906 265.366 74.1439C265.366 75.6973 266.713 76.9918 268.33 76.9918C269.947 76.9918 271.294 75.6973 271.294 74.1439Z" fill="#F9FCFE"/>
<path d="M90.7873 0.885791L261.692 6.80176L261.27 18.0591L90.3652 12.1431L90.7873 0.885791Z" fill="#7AA2D6"/>
<path d="M183.297 24.168H233.697V34.5259H183.297V24.168Z" fill="#B2CBEC"/>
<path d="M116.862 24.168H167.261V34.5259H116.862V24.168Z" fill="#B2CBEC"/>
<path d="M183.297 115.188H233.697V125.545H183.297V115.188Z" fill="#B2CBEC"/>
<path d="M116.862 115.188H167.261V125.545H116.862V115.188Z" fill="#B2CBEC"/>
</svg>
