<svg width="24" height="21" viewBox="0 0 24 21" fill="none" xmlns="http://www.w3.org/2000/svg">
<path d="M22.0758 9.625H20.2V7.875H18.3241V9.625H16.4483V11.375H18.3241V13.125H20.2V11.375H22.0758V9.625ZM8.0069 9.625V11.725H11.7586C11.571 12.6 10.6331 14.35 8.0069 14.35C5.75588 14.35 3.97381 12.6 3.97381 10.5C3.97381 8.4 5.75588 6.65 8.0069 6.65C9.32 6.65 10.1641 7.175 10.6331 7.6125L12.4152 6.0375C11.2897 4.9875 9.78897 4.375 8.0069 4.375C4.34898 4.375 1.44141 7.0875 1.44141 10.5C1.44141 13.9125 4.34898 16.625 8.0069 16.625C11.7586 16.625 14.291 14.175 14.291 10.675C14.291 10.2375 14.291 9.975 14.1972 9.625H8.0069Z" fill="#BF4019"/>
</svg>
