<svg width="245" height="239" viewBox="0 0 245 239" fill="none" xmlns="http://www.w3.org/2000/svg">
<path d="M11.2939 239H72.4894L77.569 225.705C79.3724 220.996 83.0543 217.208 87.7582 215.131C92.1916 213.186 98.1578 209.631 103.944 203.313C115.2 191.027 121.166 177.835 121.166 177.835L83.2347 177.659C83.2347 177.659 86.6461 157.008 67.8005 129.599C65.7867 126.659 64.87 123.149 65.1856 119.624L66.974 99.6309C66.974 99.6309 79.7781 85.7072 71.9183 68.4195C71.9183 68.4195 64.4041 58.2985 61.4285 61.9988C61.4285 61.9988 38.7357 114.608 36.6618 122.433C34.5879 130.257 31.8377 135.172 34.5879 159.758C35.3243 166.266 35.5797 171.692 35.5647 176.153C35.5497 184.724 33.581 193.177 29.8239 200.914L11.2939 239Z" fill="#F7C29E"/>
<path opacity="0.2" d="M68.3716 204.878C62.6909 198.735 54.801 199.715 46.5054 196.907C38.2097 194.113 35.5497 173.93 35.5497 173.93C35.5647 174.69 35.5647 175.436 35.5647 176.138C35.5497 184.709 33.581 193.163 29.8239 200.9L11.2939 239H72.4894L77.569 225.705C79.3724 220.996 83.0543 217.208 87.7582 215.131C91.5303 213.463 96.4145 210.655 101.344 205.96C84.482 212.849 74.0523 211.006 68.3716 204.878Z" fill="#F7C29E"/>
<path d="M41.3056 0.687527C55.3722 22.2898 90.0426 41.5373 90.0426 41.5373C90.0426 41.5373 62.4806 39.3581 48.8048 22.0265L53.7641 18.0337C53.7641 18.0337 49.8267 18.3993 46.5205 18.7796C43.4847 13.8507 41.516 7.89804 41.3056 0.687527Z" fill="#BF4019"/>
<path d="M78.2153 9.60924C76.0813 10.5599 72.9103 11.9932 72.9103 11.9932L75.961 7.72252C72.4143 5.03137 68.507 3.24702 64.6296 2.06234C63.0667 4.28546 61.2182 6.77184 61.2182 6.77184L60.8575 1.09703C50.4729 -1.08221 41.3056 0.658261 41.3056 0.658261C55.3722 22.2605 90.0426 41.5081 90.0426 41.5081C89.8923 25.6684 84.933 15.7521 78.2153 9.60924Z" fill="#E95E2A"/>
<path d="M36.1358 31.1676C40.2686 28.7983 44.4765 27.5258 48.5492 26.9993C49.7816 28.3595 51.2844 29.9683 51.2844 29.9683L51.3746 26.7507C67.0492 26.0194 80.2741 35.6285 80.2741 35.6285C71.3022 40.9377 63.5776 42.4295 57.2206 41.9907C56.8148 40.8645 56.2438 39.1972 56.2438 39.1972L55.1767 41.786C52.126 41.3618 49.4209 40.4989 47.0765 39.4458C47.6475 38.1003 48.2336 36.5646 48.2336 36.5646L44.8973 38.3489C39.1565 35.1897 36.1358 31.1676 36.1358 31.1676Z" fill="#AD8DCE"/>
<path d="M57.2205 41.9907C56.8147 40.8645 56.2437 39.1972 56.2437 39.1972L55.1767 41.7859C52.1259 41.3618 49.4208 40.4989 47.0764 39.4458C47.6475 38.1002 48.2336 36.5645 48.2336 36.5645L44.8973 38.3489C39.1564 35.1897 36.1508 31.153 36.1508 31.153C54.3952 29.12 80.289 35.6285 80.289 35.6285C71.3021 40.9523 63.5775 42.4441 57.2205 41.9907Z" fill="#9369BF"/>
<path d="M190.552 28.9445L189.23 38.6414L196.308 33.6102L217.979 22.831L201.207 24.3228C201.207 24.3228 192.671 26.3411 192.205 26.7507C191.755 27.1602 190.552 28.9445 190.552 28.9445Z" fill="#9369BF"/>
<path d="M183.128 23.0796L217.979 22.831L190.552 28.9445L183.128 23.0796Z" fill="#AD8DCE"/>
<path d="M201.748 38.6999L192.611 31.5626L217.979 22.831L201.748 38.6999Z" fill="#AD8DCE"/>
<path d="M186.945 33.9904C188.283 33.5078 189.26 33.3908 189.275 33.3908L189.215 32.7911C189.169 32.7911 188.148 32.9081 186.735 33.42L186.945 33.9904Z" fill="#292929"/>
<path d="M164.989 88.0327C166.432 87.316 167.784 86.5555 169.032 85.7511L169.377 86.2483C168.115 87.0674 166.747 87.8426 165.274 88.5592L164.989 88.0327ZM172.698 82.9722C173.871 81.9337 174.923 80.8076 175.824 79.6375L176.32 80.0031C175.389 81.2025 174.306 82.3579 173.104 83.4256L172.698 82.9722ZM178.229 75.7909C178.529 75.162 178.815 74.5185 179.07 73.8603C179.356 73.1144 179.596 72.3392 179.807 71.5494L180.408 71.6957C180.198 72.5001 179.942 73.3045 179.642 74.0651C179.386 74.7379 179.101 75.4106 178.785 76.0542L178.229 75.7909ZM180.754 62.54L181.37 62.5253C181.415 64.1634 181.355 65.6845 181.22 67.1325L180.603 67.0739C180.739 65.6406 180.784 64.1634 180.754 62.54ZM179.867 53.4573L180.483 53.3696C180.739 55.1393 180.934 56.5873 181.069 57.9328L180.453 57.9913C180.303 56.6604 180.122 55.2271 179.867 53.4573ZM179.161 48.8941C178.92 47.256 178.83 45.7203 178.92 44.3016L179.536 44.3455C179.446 45.7203 179.521 47.2268 179.762 48.821V48.8502L179.146 48.938L179.161 48.8941ZM179.942 39.753C180.573 38.2612 181.475 36.9595 182.647 35.8918L183.068 36.3306C181.971 37.3397 181.114 38.5683 180.513 39.987L179.942 39.753Z" fill="#292929"/>
<path d="M158.587 91.3089C159.383 91.031 160.18 90.7531 160.931 90.4606L160.706 89.8902C159.954 90.1827 159.173 90.4606 158.376 90.7238L158.587 91.3089Z" fill="#292929"/>
<path d="M155.356 26.9115C155.356 26.9115 168.31 18.4725 171.271 24.0303C174.231 29.5881 154.424 49.2744 154.424 49.2744L155.356 26.9115Z" fill="#F19C61"/>
<path d="M155.356 63.6954C155.356 63.6954 168.31 55.2563 171.271 60.8141C174.231 66.3719 154.424 86.0582 154.424 86.0582L155.356 63.6954Z" fill="#F19C61"/>
<path d="M155.356 88.764C155.356 88.764 168.31 80.3249 171.271 85.8827C174.231 91.4405 154.424 111.127 154.424 111.127L155.356 88.764Z" fill="#F19C61"/>
<path d="M146.414 17.4487H75.2547C69.9497 17.4487 65.6666 21.6316 65.6666 26.7799V142.031V168.328C65.6666 173.52 70.0098 177.659 75.2547 177.659H146.414C151.704 177.659 156.002 173.477 156.002 168.328V53.0771V26.7945C156.002 21.5878 151.659 17.4487 146.414 17.4487Z" fill="#292929"/>
<path opacity="0.2" d="M72.1438 136.459C72.1438 136.459 59.2795 167.114 60.5269 172.921C61.7742 178.712 69.589 186.464 88.7501 183.89C107.911 181.301 121.151 177.85 121.151 177.85C121.151 177.85 121.948 136.473 121.151 134.367C120.355 132.276 85.8948 117.372 84.5422 117.372C83.1897 117.372 72.1438 136.459 72.1438 136.459Z" fill="#F7C29E"/>
<path d="M151.358 30.1877H70.3103V164.935H151.358V30.1877Z" fill="white"/>
<path d="M151.478 29.7782H70.0098V165.286H151.478V29.7782Z" fill="#1C396B"/>
<path fill-rule="evenodd" clip-rule="evenodd" d="M86.1051 61.1058C95.4678 58.283 104.951 57.698 114.539 57.8296C116.507 57.8589 119.348 58.9704 120.31 56.879C121.422 54.4511 119.739 51.9208 118.07 49.961C116.012 47.5477 113.186 46.4508 109.925 46.246C98.3382 45.5293 92.1766 53.0909 86.1051 61.1058ZM70.0098 139.778V125.401C81.6267 120.94 93.9349 118.848 106.619 117.605C117.349 116.552 127.929 115.923 138.644 117.02C140.433 117.196 142.206 117.313 143.874 118.073C143.829 118.337 143.769 118.585 143.724 118.848C142.552 125.021 137.773 124.435 133.114 124.304C111.428 123.66 91.335 129.452 72.1137 138.696C71.3924 139.032 70.7011 139.398 70.0098 139.778ZM70.0098 165.285V152.371C85.3537 145.599 101.659 142.849 118.596 142.835C125.104 142.835 131.611 142.703 138.133 143.434C142.086 143.873 142.567 146.608 142.507 149.051C142.431 151.917 139.486 150.689 137.803 150.777C116.538 151.771 95.6331 154.491 76.1113 163.428C73.9923 164.379 71.9484 164.057 70.0098 165.285ZM151.478 81.187V103.564C143.799 109.649 136.135 108.596 132.693 107.645C121.512 104.544 118.672 99.2499 117.965 94.3064C117.665 92.2734 118.356 90.1965 118.446 88.1489C118.702 81.9768 116.748 80.1193 110.361 80.7044C102.381 81.4357 94.6563 83.337 87.0669 85.7649C83.8208 86.8033 82.1677 88.6169 81.8521 92.2734C81.2359 99.2499 81.2359 106.197 81.6117 113.174C81.7469 115.689 81.5065 118.059 78.7863 119.185C76.8777 119.975 74.879 121.101 72.7299 119.96C70.4606 118.761 71.4825 116.596 71.4525 114.826C71.4074 111.828 71.6028 108.815 71.6028 105.802C71.6028 103.916 71.0467 102.307 70.0098 101.005V83.805C71.0317 84.0683 71.8583 82.9567 72.6698 82.518C88.675 74.0643 105.702 71.4901 123.706 73.6547C133.399 74.8394 142.627 77.3258 151.478 81.187ZM151.478 65.0255V73.3915C151.358 73.3476 151.238 73.3037 151.133 73.2452C126.081 63.6361 100.998 63.4752 75.976 73.2598C73.4663 74.2398 71.2722 75.7024 70.0098 78.1449V69.0184C70.3554 68.8136 70.7311 68.6235 71.1068 68.4333C73.4963 67.2633 74.4882 65.1425 75.2396 62.817C78.4407 52.8861 85.5791 46.4508 95.062 42.4433C99.7659 40.4542 103.914 38.7576 106.303 33.5801C108.783 28.227 117.199 28.973 119.438 34.8233C121.226 39.4889 124.202 40.659 128.65 41.5219C137.728 43.3062 142.777 50.0633 146.624 57.5079C148.067 60.2721 149.57 62.817 151.478 65.0255Z" fill="#234077"/>
<path opacity="0.3" d="M131.656 108.772H61.2633C58.8287 108.772 56.8599 110.688 56.8599 113.057V141.329C56.8599 143.698 58.8287 145.614 61.2633 145.614H116.673C118.912 148.657 122.985 154.112 123.345 154.112C123.676 154.112 123.03 148.964 122.579 145.614H131.656C134.091 145.614 136.059 143.698 136.059 141.329V113.057C136.059 110.688 134.091 108.772 131.656 108.772Z" fill="#3E82D7"/>
<path opacity="0.3" d="M156.844 44.7257H81.9122C79.4776 44.7257 77.5089 46.6417 77.5089 49.0111V79.3888C77.5089 81.7582 79.4776 83.6742 81.9122 83.6742H89.6969C89.246 87.0235 88.6599 91.8207 88.9755 91.8207C89.3212 91.8207 93.0933 86.7748 95.3776 83.6742H156.844C159.278 83.6742 161.247 81.7582 161.247 79.3888V49.0111C161.247 46.6563 159.278 44.7257 156.844 44.7257Z" fill="#3E82D7"/>
<path d="M127.538 25.9462H94.2505C93.8597 25.9462 93.5592 25.6391 93.5592 25.2735V24.9371C93.5592 24.5568 93.8748 24.2643 94.2505 24.2643H127.538C127.929 24.2643 128.23 24.5714 128.23 24.9371V25.2735C128.23 25.6391 127.929 25.9462 127.538 25.9462Z" fill="white"/>
<path d="M64.0435 111.683C64.0435 111.683 64.5394 113.452 65.6365 114.315L66.9439 99.6017C66.9439 99.6017 76.3667 89.349 74.0824 75.5276C73.3009 70.7889 70.8814 66.445 67.1844 63.2712C65.0804 61.4723 62.751 60.2583 61.3834 61.9549C61.3834 61.9549 50.7133 86.6871 43.3344 104.765L64.0435 111.683Z" fill="#F7C29E"/>
<path d="M128.741 101.444H58.3628C55.9282 101.444 53.9595 103.36 53.9595 105.73V134.001C53.9595 136.371 55.9282 138.287 58.3628 138.287H113.772C116.012 141.329 120.084 146.784 120.445 146.784C120.776 146.784 120.129 141.636 119.679 138.287H128.756C131.19 138.287 133.159 136.371 133.159 134.001V105.73C133.144 103.36 131.175 101.444 128.741 101.444Z" fill="#4385D8"/>
<path opacity="0.3" d="M114.764 171.429C114.764 173.564 112.976 175.305 110.782 175.305C108.588 175.305 106.799 173.564 106.799 171.429C106.799 169.294 108.588 167.553 110.782 167.553C112.976 167.553 114.764 169.279 114.764 171.429Z" fill="#3E82D7"/>
<path d="M111.969 173.038H109.594C109.339 173.038 109.128 172.833 109.128 172.584V170.273C109.128 170.025 109.339 169.82 109.594 169.82H111.969C112.224 169.82 112.435 170.025 112.435 170.273V172.584C112.435 172.833 112.224 173.038 111.969 173.038ZM109.594 169.937C109.399 169.937 109.249 170.083 109.249 170.273V172.584C109.249 172.775 109.399 172.921 109.594 172.921H111.969C112.164 172.921 112.314 172.775 112.314 172.584V170.273C112.314 170.083 112.164 169.937 111.969 169.937H109.594Z" fill="#3E82D7"/>
<path d="M151.358 156.964H70.3103V164.935H151.358V156.964Z" fill="#8ABBFA"/>
<path d="M151.358 30.1877H70.3103V37.3397H151.358V30.1877Z" fill="#8ABBFA"/>
<path d="M63.3221 76.5222C66.2676 75.2059 67.8156 67.7321 68.3566 64.3828C65.9821 62.0719 63.0215 59.9804 61.3984 61.9988C61.3984 61.9988 59.054 67.4396 55.7928 75.0889C58.0321 76.2882 61.1129 77.5021 63.3221 76.5222Z" fill="#F19C61"/>
<path d="M137.637 118.922C137.637 118.922 126.697 119.815 126.306 122.652C125.93 125.489 126.772 130.477 137.096 131.442H147.797C147.797 131.442 144.596 122.798 144.746 122.506C144.911 122.213 137.637 118.922 137.637 118.922Z" fill="#F3AA78"/>
<path d="M120.084 161.162C118.596 161.922 118.085 163.75 118.927 165.169C123.962 173.623 143.994 207.218 145.798 209.953C147.872 213.083 152.921 220.455 169.678 224.257C186.434 228.06 193.332 239 193.332 239H245C245 239 232.827 220.221 222.728 171.502C222.728 171.502 214.913 131.047 200.231 132.393C200.231 132.393 191.274 123.237 182.542 125.021C182.542 125.021 166.011 115.412 156.588 115.412L133.97 89.4075C131.731 86.8334 127.794 86.3215 125.029 88.3837C124.142 89.0419 123.466 89.9194 123.285 91.0602C122.594 95.3017 128.335 106.037 137.517 118.995C146.699 131.954 169.437 173.082 159.564 191.174C159.564 191.174 149.465 183.802 140.733 171.955C133.429 162.039 124.833 158.704 120.084 161.162Z" fill="#F7C29E"/>
<path d="M156.678 115.427C159.684 117.928 162.494 120.634 165.154 123.486C168.746 127.288 173.27 132.919 175.93 137.263C179.281 142.645 181.49 147.355 182.542 153.278L182.482 153.293C181.28 147.735 178.124 141.739 175.389 137.599C173.33 134.367 169.543 129.219 164.748 123.837C162.344 121.131 159.293 117.942 156.648 115.471L156.678 115.427Z" fill="#F19C61"/>
<path d="M182.392 124.948C184.826 126.162 187.005 127.859 188.929 129.775C190.883 131.691 192.491 133.855 193.888 136.21C195.241 138.55 196.293 141.066 196.999 143.669C197.585 146.097 197.976 147.75 198.036 151.596H197.961C197.736 148.964 197.24 146.346 196.473 143.815C195.692 141.358 194.61 138.726 193.287 136.546C191.965 134.236 190.357 132.086 188.523 130.14C186.795 128.297 184.526 126.308 182.347 125.007L182.392 124.948Z" fill="#F19C61"/>
<path d="M200.035 132.217C202.199 133.811 204.378 136.62 205.445 138.521C206.783 140.759 207.835 143.347 208.526 146.185C209.037 147.998 209.172 149.768 209.247 151.611L209.172 151.626C208.857 149.841 208.661 148.496 208 146.331C206.993 143.055 206.212 141.358 204.859 138.828C204.063 137.263 201.974 134.177 199.99 132.276L200.035 132.217Z" fill="#F19C61"/>
<path d="M130.514 171.561C130.965 169.294 128.26 165.71 125.81 163.004C124.277 161.308 121.858 160.679 119.724 161.396C118.536 162.259 118.176 163.882 118.942 165.169C120.295 167.436 122.729 171.531 125.6 176.343C127.734 175.275 130.078 173.652 130.514 171.561Z" fill="#F19C61"/>
<path d="M132.678 99.6163C133.986 99.3676 139.907 97.437 139.546 96.3986L133.7 89.6708C132.543 88.3398 130.92 87.5647 129.252 87.4038C129.237 87.4038 129.237 87.4038 129.222 87.4038C129.176 87.4038 129.071 87.3891 128.921 87.3891C128.139 87.3891 126.201 87.6085 125.78 89.6708C125.359 91.7037 128.831 96.6619 130.364 98.7241C130.89 99.4408 131.791 99.7772 132.678 99.6163Z" fill="#F19C61"/>
<path d="M28.9222 203.854C35.3994 207.73 56.2438 219.299 77.7944 221.771C79.0568 221.917 79.9435 223.043 79.5678 224.009L75.7956 233.822C75.5402 234.466 74.8038 234.846 73.9472 234.759C67.5902 234.013 41.3807 230.166 22.9409 216.286C22.3097 215.818 22.0542 215.102 22.2797 214.487L26.1269 204.469C26.5177 203.533 27.8702 203.225 28.9222 203.854Z" fill="#292929"/>
<path d="M27.0287 213.244L26.9536 213.215C26.5779 213.083 26.3825 212.674 26.5177 212.293L27.6749 209.266C27.8102 208.9 28.231 208.71 28.6217 208.842L28.6968 208.871C29.0725 209.003 29.2679 209.412 29.1327 209.792L27.9755 212.82C27.8252 213.2 27.4044 213.376 27.0287 213.244Z" fill="#141414"/>
<path d="M30.906 215.569L30.8309 215.54C30.4551 215.409 30.2598 214.999 30.395 214.619L31.5522 211.591C31.6875 211.226 32.1083 211.036 32.499 211.167L32.5741 211.196C32.9498 211.328 33.1452 211.738 33.01 212.118L31.8528 215.145C31.7025 215.526 31.2817 215.701 30.906 215.569Z" fill="#141414"/>
<path d="M34.7983 217.88L34.7232 217.851C34.3475 217.719 34.1521 217.31 34.2874 216.93L35.4446 213.902C35.5798 213.536 36.0006 213.346 36.3914 213.478L36.4665 213.507C36.8422 213.639 37.0376 214.048 36.9023 214.429L35.7451 217.456C35.5949 217.836 35.174 218.012 34.7983 217.88Z" fill="#141414"/>
<path d="M38.7808 219.753L38.7057 219.723C38.33 219.592 38.1346 219.182 38.2698 218.802L39.427 215.774C39.5623 215.409 39.9831 215.218 40.3738 215.35L40.449 215.379C40.8247 215.511 41.02 215.92 40.8848 216.301L39.7276 219.328C39.5923 219.709 39.1715 219.899 38.7808 219.753Z" fill="#141414"/>
<path d="M42.7182 221.946L42.6431 221.917C42.2674 221.785 42.072 221.376 42.2073 220.996L43.3644 217.968C43.4997 217.602 43.9205 217.412 44.3112 217.544L44.3864 217.573C44.7621 217.705 44.9574 218.114 44.8222 218.495L43.665 221.522C43.5147 221.888 43.0939 222.078 42.7182 221.946Z" fill="#141414"/>
<path d="M46.8209 223.672L46.7458 223.643C46.3701 223.511 46.1747 223.102 46.31 222.722L47.4672 219.694C47.6024 219.328 48.0232 219.138 48.414 219.27L48.4891 219.299C48.8648 219.431 49.0602 219.84 48.9249 220.22L47.7677 223.248C47.6175 223.628 47.1967 223.804 46.8209 223.672Z" fill="#141414"/>
<path d="M51.0139 225.193L50.9388 225.164C50.5631 225.032 50.3677 224.623 50.5029 224.243L51.6601 221.215C51.7954 220.849 52.2162 220.659 52.6069 220.791L52.6821 220.82C53.0578 220.952 53.2532 221.361 53.1179 221.742L51.9607 224.769C51.8104 225.149 51.3896 225.325 51.0139 225.193Z" fill="#141414"/>
<path d="M55.282 226.51L55.2069 226.48C54.8311 226.349 54.6358 225.939 54.771 225.559L55.9282 222.531C56.0635 222.166 56.4843 221.976 56.875 222.107L56.9501 222.136C57.3258 222.268 57.5212 222.678 57.386 223.058L56.2288 226.085C56.0785 226.451 55.6577 226.641 55.282 226.51Z" fill="#141414"/>
<path d="M59.7153 227.358L59.6402 227.329C59.2645 227.197 59.0691 226.787 59.2043 226.407L60.3615 223.38C60.4968 223.014 60.9176 222.824 61.3083 222.956L61.3835 222.985C61.7592 223.116 61.9545 223.526 61.8193 223.906L60.6621 226.934C60.5118 227.314 60.091 227.504 59.7153 227.358Z" fill="#141414"/>
<path d="M64.0435 228.528L63.9683 228.499C63.5926 228.367 63.3973 227.958 63.5325 227.577L64.6897 224.55C64.825 224.184 65.2458 223.994 65.6365 224.126L65.7116 224.155C66.0874 224.286 66.2827 224.696 66.1475 225.076L64.9903 228.104C64.84 228.469 64.4192 228.66 64.0435 228.528Z" fill="#141414"/>
<path d="M68.522 229.259L68.4468 229.23C68.0711 229.098 67.8758 228.689 68.011 228.309L69.1682 225.281C69.3034 224.915 69.7242 224.725 70.115 224.857L70.1901 224.886C70.5658 225.018 70.7612 225.427 70.6259 225.808L69.4688 228.835C69.3335 229.215 68.9127 229.391 68.522 229.259Z" fill="#141414"/>
<path d="M73.0305 229.976L72.9553 229.947C72.5796 229.815 72.3842 229.405 72.5195 229.025L73.6767 225.998C73.8119 225.632 74.2327 225.442 74.6235 225.573L74.6986 225.603C75.0743 225.734 75.2697 226.144 75.1344 226.524L73.9772 229.552C73.827 229.932 73.4062 230.108 73.0305 229.976Z" fill="#141414"/>
<path d="M41.7113 226.583L41.7264 226.539C41.6512 226.524 41.5911 226.51 41.516 226.495L36.4214 224.637C35.9104 224.447 35.6699 223.877 35.8803 223.35L40.479 211.357C40.6894 210.831 41.2605 210.553 41.7564 210.728L46.851 212.586C47.1516 212.688 47.362 212.937 47.4371 213.244C47.8429 213.42 48.2336 213.58 48.6544 213.756C48.7897 212.747 48.2637 211.767 47.3169 211.43L42.2223 209.573C41.1102 209.163 39.8328 209.792 39.3819 210.962L34.7833 222.956C34.3324 224.126 34.8734 225.413 35.9855 225.822L41.0801 227.68C41.8466 227.958 42.6882 227.753 43.2893 227.212C42.7633 227.007 42.2373 226.802 41.7113 226.583Z" fill="#E95E2A"/>
<path d="M40.5993 217.076L38.3751 216.272C37.9843 216.125 37.5185 216.345 37.3682 216.769C37.2029 217.193 37.3982 217.646 37.804 217.793L40.0282 218.597L40.5993 217.076Z" fill="#BF4019"/>
<path opacity="0.2" d="M193.332 239H245C245 239 237.02 226.685 228.619 196.146C224.937 218.641 204.589 217.339 196.518 218.597C187.231 220.03 151.148 212.717 146.098 210.407C148.353 213.741 153.673 220.63 169.678 224.257C186.434 228.045 193.332 239 193.332 239Z" fill="#F7C29E"/>
<path opacity="0.2" d="M140.252 123.061C150.381 138.901 168.551 175.29 159.564 191.174L165.53 196.907C165.53 196.907 180.603 180.643 156.618 144.795C151.043 136.444 145.497 129.234 140.252 123.061Z" fill="#F7C29E"/>
<path d="M80.1087 119.858C80.1087 125.796 75.1644 130.594 69.0779 130.594C62.9764 130.594 58.0471 125.782 58.0471 119.858C58.0471 113.92 62.9915 109.123 69.0779 109.123C75.1644 109.123 80.1087 113.935 80.1087 119.858Z" fill="white"/>
<path d="M63.3221 120.151C63.3221 120.151 62.225 115.778 64.8399 114.14C67.4398 112.502 70.2351 112.121 72.1287 113.072C74.7586 114.374 75.8557 117.913 74.9991 119.858L67.9959 118.147L63.3221 120.151Z" fill="black"/>
<path d="M70.8214 125.27H67.5753V128.414H70.8214V125.27Z" fill="#F7C29E"/>
<path d="M70.8063 127.157V125.27H67.5601V126.879C68.2665 127.244 69.3034 127.449 70.8063 127.157Z" fill="#F19A5E"/>
<path d="M75.9159 119.639C75.5853 119.478 75.1796 119.507 74.8339 119.683C74.9541 116.582 72.3542 113.964 69.063 114.067C65.7718 113.95 63.1719 116.568 63.2921 119.683C62.9315 119.507 62.5407 119.478 62.2101 119.639C61.5639 119.946 61.3535 120.838 61.7592 121.628C62.165 122.418 63.0066 122.798 63.6528 122.491C63.743 122.447 63.8181 122.389 63.8933 122.33C64.269 124.904 66.4631 126.82 69.063 126.791C71.6479 126.82 73.8571 124.904 74.2328 122.33C74.3079 122.389 74.383 122.447 74.4732 122.491C75.1194 122.798 75.9761 122.418 76.3668 121.628C76.7726 120.838 76.5772 119.946 75.9159 119.639Z" fill="#F7C29E"/>
<path d="M71.182 123.31C71.0467 123.939 70.3103 124.422 69.4086 124.451C68.5069 124.48 67.7555 124.027 67.5601 123.412L71.182 123.31Z" fill="white"/>
<path d="M63.2921 119.683C63.2921 119.683 67.5301 118.425 69.3936 116.348C69.3936 116.348 68.8676 118.864 68.4769 119.259C68.5971 119.332 72.7148 117.387 73.2709 115.602C73.8269 113.818 69.063 113.16 69.063 113.16C69.063 113.16 67.4249 113.833 67.3497 113.876C67.2746 113.92 65.7417 114.096 65.5613 114.476C65.3359 114.973 64.2539 115.017 64.2539 115.017L63.5776 116.392L63.0967 117.84L63.2921 119.683Z" fill="black"/>
<path d="M59.8206 113.993C60.7523 114.359 61.8344 114.535 62.9615 114.198C65.4412 113.452 66.418 113.745 66.7486 113.92C66.944 114.023 67.1845 114.067 67.3949 114.008C67.6353 113.935 67.8607 113.716 67.8006 113.174C67.8006 113.174 67.9058 110.893 65.877 109.576C63.3673 110.308 61.2332 111.902 59.8206 113.993Z" fill="black"/>
<path d="M65.1406 113.847C65.0654 113.759 65.0955 113.613 65.1856 113.555C65.6064 113.291 66.6584 112.692 67.9358 112.633C68.056 112.633 68.1612 112.721 68.1612 112.838C68.1612 112.94 68.0711 113.043 67.9659 113.043C66.7937 113.101 65.8018 113.657 65.4261 113.906C65.3359 113.95 65.2157 113.935 65.1406 113.847Z" fill="#7FBF43"/>
<path d="M160.435 36.6523H85.5039C83.0693 36.6523 81.1006 38.5683 81.1006 40.9377V71.3154C81.1006 73.6848 83.0693 75.6008 85.5039 75.6008H93.2886C92.8378 78.9501 92.2517 83.7473 92.5673 83.7473C92.9129 83.7473 96.685 78.7014 98.9693 75.6008H160.435C162.87 75.6008 164.839 73.6848 164.839 71.3154V40.9377C164.839 38.5683 162.855 36.6523 160.435 36.6523Z" fill="#AD8DCE"/>
<path d="M105.398 61.1862C108.208 55.9255 106.104 49.4436 100.698 46.7086C95.2929 43.9735 88.6326 46.021 85.8223 51.2818C83.012 56.5426 85.1159 63.0244 90.5215 65.7595C95.927 68.4945 102.587 66.447 105.398 61.1862Z" fill="white"/>
<path d="M97.3612 61.6478H94.1151V64.7923H97.3612V61.6478Z" fill="#F7C29E"/>
<path d="M97.3463 63.5345V61.6478H94.1002V63.2566C94.8065 63.6223 95.8434 63.827 97.3463 63.5345Z" fill="#F19A5E"/>
<path d="M102.456 56.0169C102.125 55.856 101.72 55.8852 101.374 56.0607C101.494 52.9601 98.8942 50.3421 95.603 50.4444C92.3118 50.3274 89.7119 52.9454 89.8321 56.0607C89.4714 55.8852 89.0807 55.856 88.7501 56.0169C88.1038 56.324 87.8934 57.2162 88.2992 58.006C88.705 58.7957 89.5466 59.176 90.1928 58.8689C90.283 58.825 90.3581 58.7665 90.4332 58.708C90.8089 61.2821 93.0031 63.1981 95.603 63.1689C98.1879 63.1981 100.397 61.2821 100.773 58.708C100.848 58.7665 100.923 58.825 101.013 58.8689C101.659 59.176 102.516 58.7957 102.907 58.006C103.313 57.2162 103.117 56.324 102.456 56.0169Z" fill="#F7C29E"/>
<path d="M91.6656 49.2159C91.6656 49.2159 93.2886 47.8703 96.9856 48.0897C100.683 48.3091 101.389 50.1812 101.599 52.8577L101.389 56.0461C101.389 56.0461 100.427 55.0808 99.1798 52.4189C99.1798 52.4189 97.1058 54.6859 96.2041 54.408C95.3024 54.1447 96.5498 52.5066 96.5498 52.5066C96.5498 52.5066 92.3268 56.0314 89.8471 56.0314C89.8471 56.0314 88.5397 51.8924 90.3731 50.3859C90.3731 50.3859 88.9905 50.4444 88.9154 50.1812C88.8402 49.9179 89.5766 49.523 90.9141 49.6693C90.9141 49.6693 89.9674 47.8557 90.4934 47.6655C91.0193 47.5046 91.6656 49.2159 91.6656 49.2159Z" fill="#050505"/>
<path d="M97.722 59.6879C97.5867 60.3168 96.8503 60.7995 95.9486 60.8287C95.0469 60.858 94.2955 60.4046 94.1002 59.7903L97.722 59.6879Z" fill="white"/>
<path d="M153.447 47.2706H111.353C110.857 47.2706 110.436 46.8757 110.436 46.3785V46.2907C110.436 45.8081 110.842 45.3985 111.353 45.3985H153.447C153.943 45.3985 154.364 45.7934 154.364 46.2907V46.3785C154.364 46.8757 153.958 47.2706 153.447 47.2706Z" fill="white"/>
<path d="M119.904 52.1995H111.353C110.857 52.1995 110.436 51.8046 110.436 51.3074V51.2196C110.436 50.7369 110.842 50.3274 111.353 50.3274H119.904C120.4 50.3274 120.821 50.7223 120.821 51.2196V51.3074C120.806 51.8046 120.4 52.1995 119.904 52.1995Z" fill="white"/>
<path d="M153.447 52.1995H125.63C125.134 52.1995 124.713 51.8046 124.713 51.3074V51.2196C124.713 50.7369 125.119 50.3274 125.63 50.3274H153.447C153.943 50.3274 154.364 50.7223 154.364 51.2196V51.3074C154.364 51.8046 153.958 52.1995 153.447 52.1995Z" fill="white"/>
<path d="M132.212 57.1284H111.353C110.857 57.1284 110.436 56.7335 110.436 56.2362V56.1485C110.436 55.6658 110.842 55.2563 111.353 55.2563H132.227C132.723 55.2563 133.144 55.6512 133.144 56.1485V56.2362C133.129 56.7335 132.723 57.1284 132.212 57.1284Z" fill="white"/>
<path d="M153.447 57.1284H137.352C136.856 57.1284 136.435 56.7335 136.435 56.2362V56.1485C136.435 55.6658 136.841 55.2563 137.352 55.2563H153.447C153.943 55.2563 154.364 55.6512 154.364 56.1485V56.2362C154.364 56.7335 153.958 57.1284 153.447 57.1284Z" fill="white"/>
<path d="M153.447 62.0573H111.353C110.857 62.0573 110.436 61.6624 110.436 61.1651V61.0774C110.436 60.5947 110.842 60.1852 111.353 60.1852H153.447C153.943 60.1852 154.364 60.5801 154.364 61.0774V61.1651C154.364 61.6478 153.958 62.0573 153.447 62.0573Z" fill="white"/>
<path d="M96.129 112.472H83.1746C82.6786 112.472 82.2579 112.077 82.2579 111.58V111.492C82.2579 111.01 82.6636 110.6 83.1746 110.6H96.129C96.625 110.6 97.0458 110.995 97.0458 111.492V111.58C97.0458 112.077 96.625 112.472 96.129 112.472Z" fill="white"/>
<path d="M91.335 117.401H83.1746C82.6786 117.401 82.2579 117.006 82.2579 116.509V116.421C82.2579 115.939 82.6636 115.529 83.1746 115.529H91.335C91.8309 115.529 92.2517 115.924 92.2517 116.421V116.509C92.2367 117.006 91.8309 117.401 91.335 117.401Z" fill="white"/>
<path d="M105.341 117.401H94.8817C94.3857 117.401 93.9649 117.006 93.9649 116.509V116.421C93.9649 115.939 94.3707 115.529 94.8817 115.529H105.341C105.837 115.529 106.258 115.924 106.258 116.421V116.509C106.258 117.006 105.837 117.401 105.341 117.401Z" fill="white"/>
<path d="M123.631 117.401H108.888C108.392 117.401 107.971 117.006 107.971 116.509V116.421C107.971 115.939 108.377 115.529 108.888 115.529H123.631C124.127 115.529 124.548 115.924 124.548 116.421V116.509C124.548 117.006 124.127 117.401 123.631 117.401Z" fill="white"/>
<path d="M123.631 112.472H100.397C99.9012 112.472 99.4804 112.077 99.4804 111.58V111.492C99.4804 111.01 99.8862 110.6 100.397 110.6H123.631C124.127 110.6 124.548 110.995 124.548 111.492V111.58C124.548 112.077 124.127 112.472 123.631 112.472Z" fill="white"/>
<path d="M123.631 127.054H83.1596C82.6637 127.054 82.2429 126.659 82.2429 126.162V126.074C82.2429 125.577 82.6486 125.182 83.1596 125.182H123.616C124.112 125.182 124.533 125.577 124.533 126.074V126.162C124.548 126.659 124.127 127.054 123.631 127.054Z" fill="white"/>
<path d="M103.192 122.33H83.1596C82.6637 122.33 82.2429 121.935 82.2429 121.438V121.35C82.2429 120.868 82.6486 120.458 83.1596 120.458H103.177C103.673 120.458 104.094 120.853 104.094 121.35V121.438C104.094 121.921 103.688 122.33 103.192 122.33Z" fill="white"/>
<path d="M123.631 122.33H108.212C107.716 122.33 107.295 121.935 107.295 121.438V121.35C107.295 120.868 107.701 120.458 108.212 120.458H123.631C124.127 120.458 124.548 120.853 124.548 121.35V121.438C124.548 121.921 124.127 122.33 123.631 122.33Z" fill="white"/>
</svg>
