<svg width="158" height="96" viewBox="0 0 158 96" fill="none" xmlns="http://www.w3.org/2000/svg">
<path d="M94.6819 34.2333L85.7579 22.8196C85.5969 22.6138 85.2954 22.5741 85.0845 22.7313C84.8736 22.8883 84.833 23.1825 84.994 23.3884L93.3291 34.0489H91.9594L84.2955 24.2467C84.1345 24.0409 83.8333 24.0012 83.6221 24.1584C83.4112 24.3154 83.3707 24.6096 83.5316 24.8154L91.2413 34.6761V36.3444C91.2413 36.6033 91.4563 36.8132 91.7217 36.8132C91.987 36.8132 92.2021 36.6033 92.2021 36.3444V34.9865H94.2999C94.4825 34.9865 94.6494 34.8853 94.7304 34.7256C94.8115 34.5658 94.7926 34.375 94.6819 34.2333Z" fill="url(#paint0_linear)"/>
<path d="M92.3834 42.0118H92.2017V38.3423C92.2017 38.0834 91.9867 37.8735 91.7213 37.8735C91.4559 37.8735 91.2409 38.0834 91.2409 38.3423V39.7468H82.4462V38.7879C82.4462 37.1261 81.0608 35.7741 79.3579 35.7741C79.3014 35.7741 79.2423 35.776 79.1771 35.7796C78.9122 35.7946 78.7099 36.0164 78.7253 36.2748C78.7407 36.5333 78.9676 36.7314 79.2327 36.7157C79.2792 36.7131 79.3201 36.7118 79.3579 36.7118C80.531 36.7118 81.4854 37.6431 81.4854 38.7879V42.0119H77.2304V38.7879C77.2304 38.2969 77.4097 37.8203 77.7354 37.4458C77.9071 37.2484 77.8823 36.9525 77.68 36.785C77.4778 36.6175 77.1746 36.6417 77.0029 36.8391C76.5301 37.3828 76.2697 38.0749 76.2697 38.7879V39.7468H67.539V34.6761L75.3068 24.7412C75.4677 24.5354 75.4272 24.2412 75.2162 24.0841C75.0054 23.9271 74.7038 23.9666 74.5429 24.1725L66.8208 34.0489H65.4512L73.8443 23.3141C74.0053 23.1083 73.9647 22.8141 73.7538 22.657C73.5429 22.5 73.2414 22.5395 73.0805 22.7454L64.0985 34.2333C63.9877 34.375 63.9688 34.5658 64.0498 34.7255C64.1308 34.8853 64.2977 34.9864 64.4804 34.9864H66.5782V42.0118H66.3964C65.8129 42.0118 65.3382 42.4751 65.3382 43.0445V44.4953C65.3382 44.7542 65.5532 44.9641 65.8186 44.9641H92.9613C93.2267 44.9641 93.4417 44.7542 93.4417 44.4953V43.0445C93.4417 42.4751 92.9669 42.0118 92.3834 42.0118ZM82.4462 40.6844H91.2409V42.0118H82.4462V40.6844ZM67.539 40.6844H76.2697V42.0118H67.539V40.6844ZM92.4809 44.0265H66.2989V43.0446C66.2989 42.9922 66.3427 42.9495 66.3964 42.9495H92.3834C92.4372 42.9495 92.4808 42.9922 92.4808 43.0446V44.0265H92.4809Z" fill="url(#paint1_linear)"/>
<path d="M84.9362 30.2196C84.0586 30.2196 83.3445 30.9163 83.3445 31.7728V34.4872C83.1325 34.536 82.9746 34.7213 82.9746 34.9431C82.9746 35.202 83.1896 35.4119 83.455 35.4119H86.4746C86.74 35.4119 86.955 35.202 86.955 34.9431C86.955 34.7017 86.7681 34.5032 86.5279 34.4773V31.7728C86.5279 30.9163 85.8138 30.2196 84.9362 30.2196ZM84.9362 31.1572C85.284 31.1572 85.5671 31.4333 85.5671 31.7728V34.4743H84.3054V31.7728C84.3054 31.4333 84.5884 31.1572 84.9362 31.1572Z" fill="url(#paint2_linear)"/>
<path d="M73.7796 30.2196C72.902 30.2196 72.1879 30.9163 72.1879 31.7728V34.4773C71.9477 34.5032 71.7607 34.7018 71.7607 34.943C71.7607 35.2019 71.9758 35.4118 72.2411 35.4118H75.2608C75.5261 35.4118 75.7412 35.2019 75.7412 34.943C75.7412 34.7213 75.5832 34.536 75.3713 34.4872V31.7727C75.3713 30.9163 74.6573 30.2196 73.7796 30.2196ZM73.7796 31.1572C74.1275 31.1572 74.4105 31.4333 74.4105 31.7728V34.4743H73.1488V31.7728C73.1487 31.4333 73.4318 31.1572 73.7796 31.1572Z" fill="url(#paint3_linear)"/>
<path d="M77.7044 27.2399C77.1784 27.2399 76.7505 27.6575 76.7505 28.1708V31.5616C76.7505 32.0748 77.1784 32.4924 77.7044 32.4924H81.0119C81.5379 32.4924 81.9658 32.0748 81.9658 31.5616V28.1708C81.9658 27.6575 81.5379 27.2399 81.0119 27.2399H77.7044ZM81.005 29.3973H79.8676V28.1775H81.005V29.3973ZM78.9068 28.1775V29.3973H77.7113V28.1775H78.9068ZM77.7113 30.335H78.9068V31.5548H77.7113V30.335ZM79.8676 31.5548V30.335H81.005V31.5548H79.8676Z" fill="url(#paint4_linear)"/>
<path d="M79.9902 25.0442C79.8477 25.1833 79.6584 25.2598 79.4569 25.2598C79.2555 25.2598 79.0661 25.1832 78.9237 25.0442L73.8413 20.0845C73.3664 19.6211 73.0305 19.0415 72.8696 18.4084C72.8057 18.1571 72.5451 18.0039 72.2878 18.0662C72.0302 18.1285 71.8732 18.3827 71.9371 18.634C72.1399 19.4326 72.5635 20.1634 73.162 20.7474L78.2444 25.7072C78.5683 26.0233 78.9989 26.1974 79.457 26.1974C79.9151 26.1974 80.3458 26.0233 80.6697 25.7072L85.7522 20.7474C87.5654 18.9779 87.5654 16.0987 85.7522 14.3292C84.8737 13.4721 83.7058 13 82.4636 13C81.3498 13 80.2958 13.3794 79.4569 14.0756C77.6316 12.5641 74.884 12.6488 73.162 14.3293C72.576 14.9011 72.1568 15.6162 71.9496 16.3973C71.8831 16.648 72.0374 16.9038 72.2942 16.9686C72.5509 17.0334 72.8131 16.8829 72.8797 16.6323C73.044 16.013 73.3765 15.4459 73.8413 14.9922C75.28 13.5883 77.6208 13.5883 79.0595 14.9922L79.1173 15.0486C79.3048 15.2316 79.6087 15.2317 79.7965 15.0488L79.8545 14.9922C80.5514 14.3121 81.478 13.9376 82.4636 13.9376C83.4492 13.9376 84.3758 14.3121 85.0726 14.9922C86.5113 16.3961 86.5113 18.6805 85.0726 20.0845L79.9902 25.0442Z" fill="#E95E2A"/>
<path d="M67.6594 25.7662C67.8231 25.9259 68.0408 26.0139 68.2724 26.0139C68.5039 26.0139 68.7216 25.9259 68.8854 25.7662L70.4766 24.2134C71.1729 23.5338 71.1729 22.4281 70.4766 21.7486C69.8793 21.1658 68.9611 21.0828 68.2724 21.4996C67.5837 21.0828 66.6654 21.1658 66.0682 21.7486C65.3718 22.4282 65.3718 23.5339 66.0682 24.2134L67.6594 25.7662ZM66.7475 22.4115C66.9084 22.2546 67.1197 22.1761 67.331 22.1761C67.5423 22.1761 67.7536 22.2546 67.9145 22.4115L67.9326 22.4292C68.1202 22.6123 68.4244 22.6123 68.612 22.4292L68.6301 22.4115C68.9518 22.0976 69.4753 22.0976 69.7971 22.4115C70.1188 22.7255 70.1188 23.2364 69.7971 23.5504L68.2723 25.0383L66.7475 23.5504C66.4258 23.2364 66.4258 22.7255 66.7475 22.4115Z" fill="#E95E2A"/>
<path d="M23.4912 61.8706C23.4616 62.5138 23.2881 63.083 22.9707 63.5781C22.6533 64.069 22.2069 64.4499 21.6313 64.7207C21.0601 64.9915 20.4062 65.127 19.6699 65.127C18.4554 65.127 17.499 64.7313 16.8008 63.9399C16.1025 63.1486 15.7534 62.0314 15.7534 60.5884V60.1313C15.7534 59.2257 15.91 58.4344 16.2231 57.7573C16.5405 57.076 16.9954 56.5513 17.5879 56.1831C18.1803 55.8107 18.8659 55.6245 19.6445 55.6245C20.766 55.6245 21.6673 55.9207 22.3486 56.5132C23.0299 57.1014 23.4172 57.9139 23.5103 58.9507H21.2886C21.2716 58.3879 21.1299 57.9837 20.8633 57.7383C20.5967 57.4928 20.1904 57.3701 19.6445 57.3701C19.0902 57.3701 18.6839 57.5775 18.4258 57.9922C18.1676 58.4069 18.0322 59.0692 18.0195 59.979V60.6328C18.0195 61.6188 18.1423 62.3234 18.3877 62.7466C18.6374 63.1698 19.0648 63.3813 19.6699 63.3813C20.182 63.3813 20.5734 63.2607 20.8442 63.0195C21.1151 62.7783 21.259 62.3953 21.2759 61.8706H23.4912ZM26.7729 63.2861H30.6514V65H24.5449V55.7578H26.7729V63.2861ZM33.9648 65H31.7432V55.7578H33.9648V65ZM41.2456 61.0835H37.7417V63.2861H41.8804V65H35.5137V55.7578H41.8931V57.478H37.7417V59.4268H41.2456V61.0835ZM50.5068 65H48.2915L45.0161 59.249V65H42.7881V55.7578H45.0161L48.2852 61.5088V55.7578H50.5068V65ZM58.981 57.478H56.207V65H53.979V57.478H51.2559V55.7578H58.981V57.478ZM65.6587 61.0835H62.1548V63.2861H66.2935V65H59.9268V55.7578H66.3062V57.478H62.1548V59.4268H65.6587V61.0835ZM74.52 61.8452H70.7051V60.1885H74.52V61.8452ZM86.4028 57.478H83.6289V65H81.4009V57.478H78.6777V55.7578H86.4028V57.478ZM94.9976 60.5693C94.9976 61.4707 94.8304 62.2684 94.4961 62.9624C94.1618 63.6564 93.6857 64.1917 93.0679 64.5684C92.4543 64.9408 91.7539 65.127 90.9668 65.127C90.1797 65.127 89.4814 64.9471 88.8721 64.5874C88.2627 64.2235 87.7866 63.7051 87.4438 63.0322C87.1053 62.3594 86.9276 61.5871 86.9106 60.7153V60.1948C86.9106 59.2892 87.0757 58.4915 87.4058 57.8018C87.7401 57.1077 88.2161 56.5724 88.834 56.1958C89.4561 55.8192 90.1628 55.6309 90.9541 55.6309C91.737 55.6309 92.4352 55.8171 93.0488 56.1895C93.6624 56.5618 94.1385 57.0929 94.4771 57.7827C94.8198 58.4683 94.9933 59.2554 94.9976 60.144V60.5693ZM92.7314 60.1821C92.7314 59.2638 92.577 58.5677 92.2681 58.0938C91.9634 57.6156 91.5254 57.3765 90.9541 57.3765C89.8369 57.3765 89.2466 58.2144 89.1831 59.8901L89.1768 60.5693C89.1768 61.4749 89.327 62.1711 89.6274 62.6577C89.9279 63.1444 90.3743 63.3877 90.9668 63.3877C91.5296 63.3877 91.9634 63.1486 92.2681 62.6704C92.5728 62.1922 92.7272 61.5046 92.7314 60.6074V60.1821ZM99.0728 55.7578L101.136 62.188L103.192 55.7578H106.125V65H103.891V62.8418L104.106 58.4238L101.872 65H100.399L98.1587 58.4175L98.3745 62.8418V65H96.1465V55.7578H99.0728ZM112.911 63.2734H109.857L109.324 65H106.944L110.333 55.7578H112.428L115.843 65H113.45L112.911 63.2734ZM110.391 61.5532H112.377L111.381 58.3477L110.391 61.5532ZM116.522 65V55.7578H119.5C120.316 55.7578 121.05 55.944 121.702 56.3164C122.354 56.6846 122.862 57.2072 123.226 57.8843C123.594 58.5571 123.78 59.3125 123.784 60.1504V60.5757C123.784 61.422 123.604 62.1816 123.245 62.8545C122.889 63.5231 122.386 64.0479 121.734 64.4287C121.086 64.8053 120.363 64.9958 119.563 65H116.522ZM118.75 57.478V63.2861H119.525C120.164 63.2861 120.655 63.0597 120.998 62.6069C121.34 62.1499 121.512 61.4728 121.512 60.5757V60.1758C121.512 59.2829 121.34 58.61 120.998 58.1572C120.655 57.7044 120.155 57.478 119.5 57.478H118.75ZM132.753 60.5693C132.753 61.4707 132.586 62.2684 132.252 62.9624C131.918 63.6564 131.442 64.1917 130.824 64.5684C130.21 64.9408 129.51 65.127 128.723 65.127C127.936 65.127 127.237 64.9471 126.628 64.5874C126.019 64.2235 125.542 63.7051 125.2 63.0322C124.861 62.3594 124.683 61.5871 124.667 60.7153V60.1948C124.667 59.2892 124.832 58.4915 125.162 57.8018C125.496 57.1077 125.972 56.5724 126.59 56.1958C127.212 55.8192 127.919 55.6309 128.71 55.6309C129.493 55.6309 130.191 55.8171 130.805 56.1895C131.418 56.5618 131.894 57.0929 132.233 57.7827C132.576 58.4683 132.749 59.2554 132.753 60.144V60.5693ZM130.487 60.1821C130.487 59.2638 130.333 58.5677 130.024 58.0938C129.719 57.6156 129.281 57.3765 128.71 57.3765C127.593 57.3765 127.002 58.2144 126.939 59.8901L126.933 60.5693C126.933 61.4749 127.083 62.1711 127.383 62.6577C127.684 63.1444 128.13 63.3877 128.723 63.3877C129.285 63.3877 129.719 63.1486 130.024 62.6704C130.329 62.1922 130.483 61.5046 130.487 60.6074V60.1821ZM137.336 61.7373H136.13V65H133.902V55.7578H137.54C138.636 55.7578 139.493 56.0011 140.11 56.4878C140.728 56.9744 141.037 57.6621 141.037 58.5508C141.037 59.194 140.906 59.7272 140.644 60.1504C140.385 60.5736 139.979 60.9163 139.425 61.1787L141.354 64.9048V65H138.968L137.336 61.7373ZM136.13 60.0171H137.54C137.963 60.0171 138.28 59.9071 138.492 59.687C138.708 59.4627 138.815 59.1517 138.815 58.7539C138.815 58.3561 138.708 58.0451 138.492 57.8208C138.276 57.5923 137.958 57.478 137.54 57.478H136.13V60.0171Z" fill="#E95E2A"/>
<defs>
<linearGradient id="paint0_linear" x1="89.1067" y1="22.6351" x2="89.1067" y2="36.8132" gradientUnits="userSpaceOnUse">
<stop stop-color="#184071"/>
<stop offset="0.776042" stop-color="#7AA2D6"/>
</linearGradient>
<linearGradient id="paint1_linear" x1="78.7208" y1="22.5609" x2="78.7208" y2="44.9641" gradientUnits="userSpaceOnUse">
<stop stop-color="#184071"/>
<stop offset="0.776042" stop-color="#7AA2D6"/>
</linearGradient>
<linearGradient id="paint2_linear" x1="84.9648" y1="30.2196" x2="84.9648" y2="35.4119" gradientUnits="userSpaceOnUse">
<stop stop-color="#184071"/>
<stop offset="0.776042" stop-color="#7AA2D6"/>
</linearGradient>
<linearGradient id="paint3_linear" x1="73.751" y1="30.2196" x2="73.751" y2="35.4118" gradientUnits="userSpaceOnUse">
<stop stop-color="#184071"/>
<stop offset="0.776042" stop-color="#7AA2D6"/>
</linearGradient>
<linearGradient id="paint4_linear" x1="79.3581" y1="27.2399" x2="79.3581" y2="32.4924" gradientUnits="userSpaceOnUse">
<stop stop-color="#184071"/>
<stop offset="0.776042" stop-color="#7AA2D6"/>
</linearGradient>
</defs>
</svg>
