<svg width="178" height="173" viewBox="0 0 178 173" fill="none" xmlns="http://www.w3.org/2000/svg">
<path d="M140.664 63.4908L92.5826 1.97182C91.6174 0.737194 90.0914 0 88.5005 0C86.9096 0 85.3833 0.737194 84.418 1.97204L78.9506 8.96749C78.4015 9.66991 78.5398 10.674 79.2593 11.2098C79.9793 11.746 81.0071 11.6106 81.5564 10.9084L87.0236 3.91314C87.373 3.46648 87.9249 3.19963 88.5005 3.19963C89.076 3.19963 89.6279 3.46626 89.9771 3.91293L136.05 62.8616H131.377L89.8034 9.66885C89.4934 9.2723 89.0116 9.03937 88.5005 9.03937C87.9894 9.03937 87.5076 9.27209 87.1975 9.66885L84.8097 12.7238C84.2606 13.4263 84.3989 14.4303 85.1187 14.9661C85.8387 15.502 86.8663 15.367 87.4156 14.6645L88.5005 13.2763L128.928 65.0017V79.1031C128.928 79.9866 129.661 80.7029 130.567 80.7029C131.472 80.7029 132.205 79.9866 132.205 79.1031V66.0608H139.362C139.985 66.0608 140.554 65.7156 140.83 65.1704C141.107 64.6254 141.042 63.9744 140.664 63.4908Z" fill="url(#paint0_linear)"/>
<path d="M132.824 98.9631H132.204V85.9207C132.204 85.0372 131.471 84.3209 130.566 84.3209C129.66 84.3209 128.927 85.0372 128.927 85.9207V91.2336H98.9257V87.9615C98.9257 82.2904 94.1997 77.6768 88.3906 77.6768C82.5814 77.6768 77.8554 82.2904 77.8554 87.9615V91.2338H66.0025C65.0972 91.2338 64.3637 91.9501 64.3637 92.8336C64.3637 93.7172 65.0972 94.4335 66.0025 94.4335H77.8554V98.9633H48.0725V94.4332H59.0187C59.9239 94.4332 60.6574 93.717 60.6574 92.8334C60.6574 91.9499 59.9239 91.2336 59.0187 91.2336H48.0725V65.0014L50.5761 61.7979C51.1252 61.0955 50.9869 60.0914 50.2674 59.5556C49.5472 59.0196 48.5194 59.1548 47.9703 59.8572L45.6229 62.861H40.9506L45.3257 57.2632C45.8748 56.5608 45.7365 55.5567 45.017 55.0209C44.2966 54.4844 43.2689 54.6199 42.7198 55.3223L36.3358 63.4903C35.958 63.9739 35.8936 64.6249 36.17 65.1701C36.4464 65.7153 37.0156 66.0604 37.6388 66.0604H44.795V98.9631H44.1751C42.1845 98.9631 40.565 100.544 40.565 102.487V107.438C40.565 108.322 41.2985 109.038 42.2037 109.038H134.796C135.701 109.038 136.435 108.322 136.435 107.438V102.487C136.435 100.544 134.815 98.9631 132.824 98.9631ZM128.927 94.4332V98.9631H98.9257V94.4332H128.927ZM81.133 87.9615C81.133 84.0547 84.3887 80.8764 88.3906 80.8764C92.3924 80.8764 95.6481 84.0547 95.6481 87.9615V98.9633H81.133V87.9615ZM133.157 105.838H43.8425V102.488C43.8425 102.309 43.9918 102.163 44.1751 102.163H132.824C133.008 102.163 133.157 102.309 133.157 102.488V105.838H133.157Z" fill="url(#paint1_linear)"/>
<path d="M63.9322 61.222V64.3239C63.1125 64.412 62.4747 65.0897 62.4747 65.9135C62.4747 66.797 63.2083 67.5133 64.1135 67.5133H74.4146C75.3199 67.5133 76.0534 66.797 76.0534 65.9135C76.0534 65.1567 75.5146 64.5242 74.7916 64.3579V60.059C77.664 59.1107 80.3072 57.674 82.6203 55.8526L111.941 77.9023C112.997 78.696 114.264 79.115 115.574 79.115C115.833 79.115 116.094 79.0985 116.354 79.0657C117.937 78.8654 119.344 78.0753 120.318 76.8417C121.291 75.608 121.715 74.0779 121.509 72.5333C121.304 70.9888 120.495 69.6148 119.231 68.6646L112.849 63.8651V55.0949C112.849 52.1722 110.413 49.7942 107.419 49.7942C104.425 49.7942 101.989 52.172 101.989 55.0949V55.6988L89.9183 46.6215C91.3412 43.5219 92.134 40.0889 92.134 36.4782C92.134 22.7565 80.6988 11.593 66.6429 11.593C60.8246 11.593 55.3454 13.4575 50.7973 16.985C50.0889 17.5347 49.9707 18.5409 50.5337 19.2329C51.0966 19.9246 52.1275 20.04 52.8363 19.4903C56.7985 16.4172 61.5725 14.7929 66.6429 14.7929C78.8916 14.7929 88.8564 24.5208 88.8564 36.4784C88.8564 48.4361 78.8916 58.1632 66.6431 58.1632C54.3943 58.1632 44.4294 48.4352 44.4294 36.4776C44.4294 32.0335 45.7977 27.7616 48.3861 24.1234C48.9022 23.3977 48.7184 22.4009 47.9748 21.8969C47.2315 21.3928 46.2102 21.5724 45.6941 22.2983C42.7225 26.4749 41.1519 31.378 41.1519 36.4778C41.1516 49.3055 51.146 59.8965 63.9322 61.222ZM71.514 64.3135H67.2099V61.3558C68.6785 61.3244 70.1162 61.1702 71.514 60.905V64.3135ZM105.267 57.8837V55.0945C105.267 53.936 106.232 52.9934 107.419 52.9934C108.606 52.9934 109.571 53.9358 109.571 55.0945V61.3999L105.243 58.1452C105.257 58.0599 105.267 57.9731 105.267 57.8837ZM117.231 71.1991C117.801 71.628 118.166 72.2479 118.259 72.9448C118.352 73.6419 118.161 74.3322 117.721 74.8889C117.282 75.4456 116.647 75.8021 115.933 75.8925C115.22 75.9832 114.512 75.7965 113.941 75.3678L85.0697 53.656C86.3111 52.3876 87.4158 50.9911 88.3628 49.49L117.231 71.1991Z" fill="#E95E2A"/>
<path d="M66.6427 54.9643C77.0841 54.9643 85.5787 46.6718 85.5787 36.4784C85.5787 26.285 77.0841 17.9924 66.6427 17.9924C56.2013 17.9924 47.7065 26.285 47.7065 36.4784C47.7065 46.6718 56.2011 54.9643 66.6427 54.9643ZM66.6427 21.1923C75.2769 21.1923 82.3011 28.0497 82.3011 36.4786C82.3011 44.9075 75.2769 51.7649 66.6427 51.7649C58.0083 51.7649 50.9841 44.9075 50.9841 36.4786C50.9841 28.0497 58.0083 21.1923 66.6427 21.1923Z" fill="#E95E2A"/>
<path d="M21.373 142.042V149H19.0293V131.227H25.5845C27.5295 131.227 29.0513 131.723 30.1499 132.716C31.2567 133.709 31.8101 135.023 31.8101 136.659C31.8101 138.384 31.2689 139.715 30.1865 140.65C29.1123 141.578 27.5701 142.042 25.5601 142.042H21.373ZM21.373 140.125H25.5845C26.8377 140.125 27.798 139.833 28.4653 139.247C29.1326 138.653 29.4663 137.798 29.4663 136.683C29.4663 135.625 29.1326 134.779 28.4653 134.144C27.798 133.509 26.8825 133.18 25.7188 133.155H21.373V140.125ZM41.3193 141.81H37.1445V149H34.7886V131.227H40.6724C42.6743 131.227 44.2124 131.682 45.2866 132.594C46.369 133.505 46.9102 134.832 46.9102 136.573C46.9102 137.68 46.609 138.644 46.0068 139.466C45.4128 140.288 44.5827 140.903 43.5166 141.31L47.6914 148.854V149H45.1768L41.3193 141.81ZM37.1445 139.894H40.7456C41.9093 139.894 42.833 139.592 43.5166 138.99C44.2083 138.388 44.5542 137.582 44.5542 136.573C44.5542 135.475 44.2246 134.632 43.5654 134.046C42.9144 133.46 41.9704 133.163 40.7334 133.155H37.1445V139.894ZM63.8779 140.687C63.8779 142.429 63.585 143.95 62.999 145.252C62.4131 146.546 61.583 147.535 60.5088 148.219C59.4346 148.902 58.1813 149.244 56.749 149.244C55.3493 149.244 54.1082 148.902 53.0259 148.219C51.9435 147.527 51.1012 146.546 50.499 145.277C49.9049 143.999 49.5998 142.522 49.5835 140.846V139.564C49.5835 137.855 49.8805 136.345 50.4746 135.035C51.0687 133.725 51.9069 132.724 52.9893 132.032C54.0798 131.332 55.3249 130.982 56.7246 130.982C58.1488 130.982 59.402 131.328 60.4844 132.02C61.5749 132.704 62.4131 133.701 62.999 135.011C63.585 136.313 63.8779 137.831 63.8779 139.564V140.687ZM61.5464 139.54C61.5464 137.432 61.1232 135.816 60.2769 134.693C59.4305 133.562 58.2464 132.997 56.7246 132.997C55.2435 132.997 54.0757 133.562 53.2212 134.693C52.3748 135.816 51.9395 137.379 51.915 139.381V140.687C51.915 142.73 52.3423 144.337 53.1968 145.509C54.0594 146.673 55.2435 147.254 56.749 147.254C58.2627 147.254 59.4346 146.705 60.2646 145.606C61.0947 144.5 61.522 142.917 61.5464 140.858V139.54ZM67.3936 149V131.227H72.4106C73.9569 131.227 75.3241 131.568 76.5122 132.252C77.7004 132.936 78.6159 133.908 79.2588 135.169C79.9098 136.431 80.2394 137.879 80.2476 139.515V140.65C80.2476 142.327 79.922 143.796 79.271 145.057C78.6281 146.319 77.7044 147.287 76.5 147.962C75.3037 148.638 73.908 148.984 72.313 149H67.3936ZM69.7373 133.155V147.083H72.2031C74.0098 147.083 75.4136 146.522 76.4146 145.399C77.4237 144.276 77.9282 142.677 77.9282 140.602V139.564C77.9282 137.546 77.4521 135.979 76.5 134.864C75.556 133.741 74.2132 133.172 72.4717 133.155H69.7373ZM96.312 131.227V143.312C96.3039 144.988 95.7749 146.359 94.7251 147.425C93.6834 148.491 92.2674 149.09 90.4771 149.22L89.8545 149.244C87.9095 149.244 86.3592 148.719 85.2036 147.669C84.048 146.62 83.4621 145.175 83.4458 143.336V131.227H85.7651V143.263C85.7651 144.549 86.1191 145.549 86.8271 146.266C87.5352 146.974 88.5443 147.328 89.8545 147.328C91.181 147.328 92.1942 146.974 92.894 146.266C93.6021 145.558 93.9561 144.561 93.9561 143.275V131.227H96.312ZM113.084 143.36C112.865 145.24 112.169 146.693 110.997 147.718C109.833 148.736 108.283 149.244 106.346 149.244C104.247 149.244 102.562 148.491 101.292 146.986C100.031 145.48 99.4004 143.466 99.4004 140.943V139.234C99.4004 137.582 99.6934 136.13 100.279 134.876C100.873 133.623 101.712 132.663 102.794 131.996C103.876 131.32 105.13 130.982 106.554 130.982C108.442 130.982 109.955 131.511 111.095 132.569C112.234 133.619 112.897 135.076 113.084 136.939H110.729C110.525 135.523 110.082 134.498 109.398 133.863C108.722 133.229 107.774 132.911 106.554 132.911C105.056 132.911 103.88 133.465 103.026 134.571C102.18 135.678 101.756 137.253 101.756 139.295V141.017C101.756 142.945 102.159 144.479 102.965 145.619C103.771 146.758 104.898 147.328 106.346 147.328C107.648 147.328 108.645 147.035 109.337 146.449C110.037 145.855 110.501 144.825 110.729 143.36H113.084ZM128.209 133.155H122.496V149H120.165V133.155H114.464V131.227H128.209V133.155ZM144.176 140.687C144.176 142.429 143.883 143.95 143.297 145.252C142.711 146.546 141.881 147.535 140.807 148.219C139.732 148.902 138.479 149.244 137.047 149.244C135.647 149.244 134.406 148.902 133.324 148.219C132.241 147.527 131.399 146.546 130.797 145.277C130.203 143.999 129.898 142.522 129.881 140.846V139.564C129.881 137.855 130.178 136.345 130.772 135.035C131.367 133.725 132.205 132.724 133.287 132.032C134.378 131.332 135.623 130.982 137.022 130.982C138.447 130.982 139.7 131.328 140.782 132.02C141.873 132.704 142.711 133.701 143.297 135.011C143.883 136.313 144.176 137.831 144.176 139.564V140.687ZM141.844 139.54C141.844 137.432 141.421 135.816 140.575 134.693C139.728 133.562 138.544 132.997 137.022 132.997C135.541 132.997 134.374 133.562 133.519 134.693C132.673 135.816 132.237 137.379 132.213 139.381V140.687C132.213 142.73 132.64 144.337 133.495 145.509C134.357 146.673 135.541 147.254 137.047 147.254C138.561 147.254 139.732 146.705 140.562 145.606C141.393 144.5 141.82 142.917 141.844 140.858V139.54ZM154.21 141.81H150.035V149H147.679V131.227H153.563C155.565 131.227 157.103 131.682 158.177 132.594C159.26 133.505 159.801 134.832 159.801 136.573C159.801 137.68 159.5 138.644 158.897 139.466C158.303 140.288 157.473 140.903 156.407 141.31L160.582 148.854V149H158.067L154.21 141.81ZM150.035 139.894H153.636C154.8 139.894 155.724 139.592 156.407 138.99C157.099 138.388 157.445 137.582 157.445 136.573C157.445 135.475 157.115 134.632 156.456 134.046C155.805 133.46 154.861 133.163 153.624 133.155H150.035V139.894Z" fill="#E5531C"/>
<defs>
<linearGradient id="paint0_linear" x1="109.807" y1="0" x2="109.807" y2="80.7029" gradientUnits="userSpaceOnUse">
<stop stop-color="#233862"/>
<stop offset="0.776042" stop-color="#7AA2D6"/>
</linearGradient>
<linearGradient id="paint1_linear" x1="86.2173" y1="54.6926" x2="86.2173" y2="109.038" gradientUnits="userSpaceOnUse">
<stop stop-color="#233862"/>
<stop offset="0.776042" stop-color="#7AA2D6"/>
</linearGradient>
</defs>
</svg>
