<svg width="109" height="109" viewBox="0 0 109 109" fill="none" xmlns="http://www.w3.org/2000/svg">
<g clip-path="url(#clip0)">
<path d="M80.1418 87.076C82.3525 87.076 84.151 85.2775 84.151 83.0668V75.3779C84.151 73.1671 82.3525 71.3687 80.1418 71.3687H67.904C65.6933 71.3687 63.8948 73.1671 63.8948 75.3779V83.0668C63.8948 85.2775 65.6933 87.076 67.904 87.076H80.1418ZM80.9588 75.3779V83.0668C80.9588 83.5173 80.5923 83.8838 80.1418 83.8838H75.6189V74.5609H80.1418C80.5923 74.5611 80.9588 74.9273 80.9588 75.3779ZM67.087 83.0668V75.3779C67.087 74.9273 67.4534 74.5609 67.904 74.5609H72.4267V83.8838H67.904C67.4534 83.8838 67.087 83.5176 67.087 83.0668Z" fill="url(#paint0_linear)"/>
<path d="M46.7884 44.918H52.1502V45.8329C52.1502 46.665 52.3956 47.4716 52.8602 48.1658C54.5416 50.6778 56.5846 52.9258 58.9324 54.8475C59.6145 55.4053 60.6202 55.3055 61.1787 54.6234C61.7371 53.9411 61.6366 52.9356 60.9546 52.3771C58.85 50.6546 57.0192 48.6401 55.5131 46.3901C55.4016 46.2232 55.3424 46.0306 55.3424 45.8327V16.5299C55.3424 16.332 55.4031 16.1369 55.5174 15.9662C60.7139 8.20849 69.3877 3.66619 78.713 3.80686C83.3619 3.8788 87.9408 5.15185 91.9624 7.49025L97.24 11.4767C102.616 16.6532 105.604 23.5773 105.657 30.984C105.718 39.643 101.612 47.9142 94.6739 53.1101C93.9684 53.6383 93.8247 54.6387 94.3531 55.3444C94.6666 55.763 95.1463 55.9837 95.6319 55.9837C95.9646 55.9837 96.3006 55.8801 96.5875 55.6651C100.339 52.8558 103.44 49.1675 105.556 44.9987C107.744 40.6864 108.883 35.8326 108.849 30.9617C108.79 22.6537 105.428 14.8921 99.3809 9.10678C99.3362 9.064 99.2889 9.02357 99.2396 8.98654L93.8111 4.88604C93.7615 4.84838 93.7096 4.8139 93.656 4.78262C89.1415 2.13713 83.9917 0.696165 78.7628 0.615296C68.3518 0.454196 58.667 5.52874 52.8653 14.1903C52.3977 14.8887 52.1507 15.6978 52.1507 16.5302V17.4453H46.7888C44.3187 17.4453 42.2665 19.268 41.9062 21.639H1.5961C0.714416 21.639 0 22.3534 0 23.2351C0 24.1168 0.714416 24.8312 1.5961 24.8312H41.8496V28.3358H28.9629C28.0812 28.3358 27.3668 29.0502 27.3668 29.9319C27.3668 30.8136 28.0812 31.528 28.9629 31.528H41.8496V37.9316H32.7725L29.8731 35.032C29.3066 34.4655 28.5534 34.1533 27.752 34.1533C26.951 34.1533 26.1976 34.4652 25.6311 35.032L22.0001 38.6632L18.8534 35.5163C17.6838 34.3471 15.7812 34.3471 14.6116 35.5163L12.3177 37.8105H1.5961C0.714416 37.8105 0 38.5249 0 39.4066C0 40.2883 0.714416 41.0027 1.5961 41.0027H12.9789C13.4022 41.0027 13.808 40.8345 14.1076 40.5353L16.7327 37.9101L19.8794 41.0569C20.4642 41.6415 21.2318 41.9337 22.0001 41.9337C22.7679 41.9337 23.5364 41.6413 24.1212 41.0567L27.7522 37.4255L30.9829 40.6564C31.2824 40.9556 31.6882 41.1238 32.1117 41.1238H41.9852C42.5028 43.2966 44.4591 44.918 46.7884 44.918ZM45.0418 22.3836C45.0418 21.4208 45.8254 20.6372 46.7884 20.6372H52.1502V41.7258H46.7884C45.8254 41.7258 45.0418 40.9422 45.0418 39.9793V22.3836Z" fill="#E95E2A"/>
<path d="M22.8876 31.5258C23.7694 31.5258 24.4838 30.8114 24.4838 29.9296C24.4838 29.0479 23.7694 28.3335 22.8876 28.3335H21.1474C20.2657 28.3335 19.5513 29.0479 19.5513 29.9296C19.5513 30.8114 20.2657 31.5258 21.1474 31.5258H22.8876Z" fill="#E95E2A"/>
<path d="M108.933 76.3339C108.819 75.5372 108.402 74.8321 107.758 74.3488L101.174 69.407C100.469 68.878 99.4681 69.021 98.9391 69.7256C98.41 70.4307 98.5528 71.4313 99.2576 71.9604L105.699 76.7947L103.675 79.4919L74.9813 57.9566C74.4136 57.5305 73.6329 57.5305 73.0652 57.9566L44.3713 79.4917L42.3468 76.7945L73.0109 53.7808C73.6068 53.333 74.4391 53.333 75.0354 53.7808L93.8175 67.8767C94.5225 68.4064 95.5232 68.263 96.052 67.5583C96.5813 66.8533 96.4385 65.8528 95.7337 65.3238L91.332 62.0205V46.4555C94.4138 45.7315 96.716 42.9615 96.716 39.6621V22.6959C96.716 18.8472 93.5847 15.7158 89.7359 15.7158C85.8872 15.7158 82.7561 18.8472 82.7561 22.6959V39.6621C82.7561 42.9615 85.0581 45.7317 88.1398 46.4555V59.6246L76.9516 51.2276C75.2276 49.9333 72.8191 49.9337 71.0947 51.2276L40.2878 74.3486C39.644 74.8319 39.2269 75.5367 39.1133 76.3337C38.9996 77.1305 39.2033 77.9241 39.6864 78.5676L41.9254 81.5511C42.5168 82.3387 43.4225 82.7543 44.3393 82.7541C44.9688 82.7541 45.6034 82.5581 46.1444 82.152L47.3553 81.2431V86.2949C47.3553 87.1766 48.0697 87.891 48.9514 87.891C49.8331 87.891 50.5475 87.1766 50.5475 86.2949V78.8473L74.0232 61.2286L97.4987 78.8475V98.0584H83.0483C81.9695 94.0852 78.3331 91.1536 74.023 91.1536C69.7129 91.1536 66.0766 94.0852 64.998 98.0584H50.5478V93.0971C50.5478 92.2154 49.8333 91.501 48.9516 91.501C48.07 91.501 47.3555 92.2154 47.3555 93.0971V105.16H45.2374C44.3557 105.16 43.6413 105.875 43.6413 106.757C43.6413 107.638 44.3557 108.353 45.2374 108.353H102.352C103.233 108.353 103.948 107.638 103.948 106.757C103.948 105.875 103.233 105.16 102.352 105.16H100.691V81.2433L101.902 82.1523C103.231 83.1495 105.123 82.8801 106.121 81.5508L108.36 78.5678C108.843 77.9241 109.046 77.1309 108.933 76.3339ZM85.9483 39.6621V22.6959C85.9483 20.6073 87.6474 18.908 89.7359 18.908C91.8245 18.908 93.5238 20.6071 93.5238 22.6959V39.6621C93.5238 41.1798 92.6242 42.4884 91.332 43.0922V41.578C91.332 40.6963 90.6176 39.9819 89.7359 39.9819C88.8542 39.9819 88.1398 40.6963 88.1398 41.578V43.0922C86.8478 42.4884 85.9483 41.1798 85.9483 39.6621ZM50.5475 101.251H64.6707V105.161H50.5475V101.251ZM67.8631 105.161V100.506C67.8631 97.1092 70.6263 94.3461 74.023 94.3461C77.4198 94.3461 80.1831 97.1092 80.1831 100.506V105.161H67.8631ZM83.3754 105.161V101.251H97.4985V105.161H83.3754Z" fill="url(#paint1_linear)"/>
</g>
<defs>
<linearGradient id="paint0_linear" x1="74.0229" y1="71.3687" x2="74.0229" y2="87.076" gradientUnits="userSpaceOnUse">
<stop stop-color="#184071"/>
<stop offset="0.776042" stop-color="#7AA2D6"/>
</linearGradient>
<linearGradient id="paint1_linear" x1="74.0231" y1="15.7158" x2="74.0231" y2="108.353" gradientUnits="userSpaceOnUse">
<stop stop-color="#184071"/>
<stop offset="0.776042" stop-color="#7AA2D6"/>
</linearGradient>
<clipPath id="clip0">
<rect width="108.964" height="108.964" fill="white"/>
</clipPath>
</defs>
</svg>
