<svg width="135" height="66" viewBox="0 0 135 66" fill="none" xmlns="http://www.w3.org/2000/svg">
<g clip-path="url(#clip0)">
<path d="M75.5091 25.5432C76.1576 25.5432 76.6852 25.0156 76.6852 24.3671V22.1116C76.6852 21.4631 76.1576 20.9355 75.5091 20.9355H71.9192C71.2707 20.9355 70.7432 21.4631 70.7432 22.1116V24.3671C70.7432 25.0156 71.2707 25.5432 71.9192 25.5432H75.5091ZM75.7488 22.1116V24.3671C75.7488 24.4993 75.6413 24.6068 75.5091 24.6068H74.1824V21.872H75.5091C75.6413 21.872 75.7488 21.9795 75.7488 22.1116ZM71.6796 24.3671V22.1116C71.6796 21.9795 71.7871 21.872 71.9192 21.872H73.2459V24.6068H71.9192C71.7871 24.6068 71.6796 24.4994 71.6796 24.3671Z" fill="url(#paint0_linear)"/>
<path d="M65.7251 13.1765H67.298V13.4448C67.298 13.6889 67.3699 13.9255 67.5062 14.1292C67.9995 14.8661 68.5988 15.5255 69.2875 16.0892C69.4875 16.2528 69.7826 16.2236 69.9464 16.0235C70.1102 15.8233 70.0807 15.5284 69.8806 15.3646C69.2633 14.8593 68.7262 14.2683 68.2844 13.6083C68.2517 13.5593 68.2344 13.5028 68.2344 13.4448V4.849C68.2344 4.79094 68.2522 4.73369 68.2857 4.68363C69.81 2.40795 72.3545 1.0755 75.09 1.11676C76.4537 1.13786 77.7969 1.51131 78.9766 2.19726L80.5247 3.36665C82.1018 4.88514 82.9784 6.91629 82.9938 9.08902C83.0116 11.6291 81.8072 14.0554 79.772 15.5796C79.565 15.7345 79.5229 16.028 79.6779 16.235C79.7699 16.3578 79.9106 16.4225 80.053 16.4225C80.1506 16.4225 80.2492 16.3921 80.3333 16.3291C81.4338 15.505 82.3435 14.423 82.9642 13.2001C83.6062 11.9352 83.9403 10.5113 83.9302 9.08246C83.913 6.64535 82.9266 4.36856 81.1528 2.67146C81.1397 2.65891 81.1258 2.64705 81.1113 2.63619L79.5189 1.43333C79.5044 1.42228 79.4891 1.41217 79.4734 1.40299C78.1491 0.626956 76.6384 0.204258 75.1046 0.180536C72.0506 0.133278 69.2096 1.62186 67.5077 4.16267C67.3706 4.36756 67.2981 4.60491 67.2981 4.84906V5.1175H65.7252C65.0006 5.1175 64.3986 5.65219 64.2929 6.3477H52.4682C52.2096 6.3477 52 6.55727 52 6.81591C52 7.07454 52.2096 7.28411 52.4682 7.28411H64.2763V8.31217H60.4961C60.2374 8.31217 60.0279 8.52174 60.0279 8.78038C60.0279 9.03901 60.2374 9.24858 60.4961 9.24858H64.2763V11.127H61.6136L60.7631 10.2765C60.5969 10.1103 60.376 10.0187 60.1409 10.0187C59.9059 10.0187 59.6849 10.1102 59.5187 10.2765L58.4536 11.3417L57.5305 10.4185C57.1874 10.0756 56.6293 10.0756 56.2862 10.4185L55.6133 11.0915H52.4682C52.2096 11.0915 52 11.3011 52 11.5597C52 11.8184 52.2096 12.0279 52.4682 12.0279H55.8073C55.9314 12.0279 56.0505 11.9786 56.1384 11.8908L56.9084 11.1207L57.8315 12.0438C58.003 12.2153 58.2282 12.301 58.4536 12.301C58.6788 12.301 58.9042 12.2153 59.0758 12.0438L60.1409 10.9786L61.0887 11.9264C61.1765 12.0141 61.2955 12.0634 61.4198 12.0634H64.3161C64.4679 12.7008 65.0418 13.1765 65.7251 13.1765ZM65.2127 6.56613C65.2127 6.28371 65.4426 6.05385 65.7251 6.05385H67.298V12.2401H65.7251C65.4426 12.2401 65.2127 12.0102 65.2127 11.7277V6.56613Z" fill="#E95E2A"/>
<path d="M58.7139 9.24797C58.9726 9.24797 59.1822 9.03839 59.1822 8.77974C59.1822 8.5211 58.9726 8.31152 58.7139 8.31152H58.2035C57.9448 8.31152 57.7352 8.5211 57.7352 8.77974C57.7352 9.03839 57.9448 9.24797 58.2035 9.24797H58.7139Z" fill="#E95E2A"/>
<path d="M83.9548 22.3921C83.9215 22.1583 83.7992 21.9515 83.6103 21.8097L81.6787 20.3601C81.4719 20.2049 81.1783 20.2469 81.0231 20.4536C80.868 20.6604 80.9098 20.9539 81.1166 21.1091L83.0062 22.5272L82.4124 23.3184L73.9953 17.0012C73.8287 16.8762 73.5998 16.8762 73.4332 17.0012L65.016 23.3184L64.4221 22.5271L73.4173 15.7762C73.5921 15.6449 73.8362 15.6449 74.0112 15.7762L79.5208 19.9112C79.7276 20.0666 80.0211 20.0245 80.1763 19.8178C80.3315 19.611 80.2896 19.3175 80.0829 19.1623L78.7917 18.1933V13.6274C79.6957 13.415 80.371 12.6025 80.371 11.6346V6.65767C80.371 5.52867 79.4525 4.61011 78.3235 4.61011C77.1945 4.61011 76.276 5.52867 76.276 6.65767V11.6346C76.276 12.6025 76.9512 13.4151 77.8553 13.6274V17.4905L74.5733 15.0273C74.0675 14.6476 73.361 14.6477 72.8552 15.0273L63.8182 21.8097C63.6293 21.9514 63.507 22.1582 63.4736 22.392C63.4403 22.6257 63.5 22.8585 63.6417 23.0473L64.2985 23.9225C64.472 24.1535 64.7377 24.2754 65.0067 24.2754C65.1913 24.2754 65.3775 24.2179 65.5362 24.0988L65.8914 23.8321V25.314C65.8914 25.5727 66.1009 25.7822 66.3596 25.7822C66.6182 25.7822 66.8278 25.5727 66.8278 25.314V23.1293L73.7142 17.961L80.6006 23.1294V28.7648H76.3617C76.0452 27.5993 74.9785 26.7393 73.7142 26.7393C72.4498 26.7393 71.3831 27.5993 71.0668 28.7648H66.8279V27.3094C66.8279 27.0508 66.6183 26.8412 66.3596 26.8412C66.101 26.8412 65.8914 27.0508 65.8914 27.3094V30.8481H65.2701C65.0115 30.8481 64.8019 31.0577 64.8019 31.3163C64.8019 31.575 65.0115 31.7845 65.2701 31.7845H82.0242C82.2829 31.7845 82.4924 31.575 82.4924 31.3163C82.4924 31.0577 82.2829 30.8481 82.0242 30.8481H81.5371V23.8322L81.8923 24.0988C82.2822 24.3914 82.8373 24.3123 83.1298 23.9224L83.7866 23.0474C83.9283 22.8585 83.9881 22.6258 83.9548 22.3921ZM77.2124 11.6346V6.65767C77.2124 6.04501 77.7108 5.54652 78.3235 5.54652C78.9361 5.54652 79.4346 6.04494 79.4346 6.65767V11.6346C79.4346 12.0798 79.1707 12.4637 78.7917 12.6408V12.1966C78.7917 11.938 78.5821 11.7284 78.3235 11.7284C78.0648 11.7284 77.8553 11.938 77.8553 12.1966V12.6408C77.4763 12.4637 77.2124 12.0798 77.2124 11.6346ZM66.8278 29.7013H70.9707V30.8482H66.8278V29.7013ZM71.9072 30.8482V29.4828C71.9072 28.4864 72.7178 27.6758 73.7142 27.6758C74.7106 27.6758 75.5212 28.4864 75.5212 29.4828V30.8482H71.9072ZM76.4576 30.8482V29.7013H80.6006V30.8482H76.4576Z" fill="url(#paint1_linear)"/>
</g>
<path d="M27.04 50H24.8184V40.7578H27.04V50ZM36.3076 50H34.0923L30.8169 44.249V50H28.5889V40.7578H30.8169L34.0859 46.5088V40.7578H36.3076V50ZM40.6431 40.7578L42.7061 47.188L44.7627 40.7578H47.6953V50H45.4609V47.8418L45.6768 43.4238L43.4424 50H41.9697L39.729 43.4175L39.9448 47.8418V50H37.7168V40.7578H40.6431ZM56.9438 45.5693C56.9438 46.4707 56.7767 47.2684 56.4424 47.9624C56.1081 48.6564 55.632 49.1917 55.0142 49.5684C54.4006 49.9408 53.7002 50.127 52.9131 50.127C52.126 50.127 51.4277 49.9471 50.8184 49.5874C50.209 49.2235 49.7329 48.7051 49.3901 48.0322C49.0516 47.3594 48.8739 46.5871 48.8569 45.7153V45.1948C48.8569 44.2892 49.022 43.4915 49.3521 42.8018C49.6864 42.1077 50.1624 41.5724 50.7803 41.1958C51.4023 40.8192 52.109 40.6309 52.9004 40.6309C53.6833 40.6309 54.3815 40.8171 54.9951 41.1895C55.6087 41.5618 56.0848 42.0929 56.4233 42.7827C56.7661 43.4683 56.9396 44.2554 56.9438 45.144V45.5693ZM54.6777 45.1821C54.6777 44.2638 54.5233 43.5677 54.2144 43.0938C53.9097 42.6156 53.4717 42.3765 52.9004 42.3765C51.7832 42.3765 51.1929 43.2144 51.1294 44.8901L51.123 45.5693C51.123 46.4749 51.2733 47.1711 51.5737 47.6577C51.8742 48.1444 52.3206 48.3877 52.9131 48.3877C53.4759 48.3877 53.9097 48.1486 54.2144 47.6704C54.519 47.1922 54.6735 46.5046 54.6777 45.6074V45.1821ZM58.0928 50V40.7578H61.4126C62.6017 40.7578 63.5052 40.9757 64.123 41.4116C64.7451 41.8475 65.0562 42.4801 65.0562 43.3096C65.0562 43.7878 64.9461 44.1961 64.7261 44.5347C64.506 44.8732 64.1823 45.1229 63.7549 45.2837C64.2373 45.4106 64.6076 45.6476 64.8657 45.9946C65.1239 46.3416 65.2529 46.7648 65.2529 47.2642C65.2529 48.1698 64.9652 48.8511 64.3896 49.3081C63.8184 49.7609 62.9699 49.9915 61.8442 50H58.0928ZM60.3208 46.0708V48.2861H61.7808C62.1828 48.2861 62.4917 48.1951 62.7075 48.0132C62.9233 47.827 63.0312 47.5667 63.0312 47.2324C63.0312 46.4622 62.6483 46.075 61.8823 46.0708H60.3208ZM60.3208 44.6108H61.4824C61.9691 44.6066 62.3161 44.5177 62.5234 44.3442C62.7308 44.1707 62.8345 43.9147 62.8345 43.5762C62.8345 43.1868 62.7223 42.9076 62.498 42.7383C62.2738 42.5648 61.9119 42.478 61.4126 42.478H60.3208V44.6108ZM68.8584 50H66.6367V40.7578H68.8584V50ZM72.6353 48.2861H76.5137V50H70.4072V40.7578H72.6353V48.2861ZM79.8271 50H77.6055V40.7578H79.8271V50ZM86.7397 48.2734H83.6865L83.1533 50H80.7729L84.1626 40.7578H86.2573L89.6724 50H87.2793L86.7397 48.2734ZM84.2197 46.5532H86.2065L85.21 43.3477L84.2197 46.5532ZM93.7856 46.7373H92.5796V50H90.3516V40.7578H93.9888C95.0848 40.7578 95.9417 41.0011 96.5596 41.4878C97.1774 41.9744 97.4863 42.6621 97.4863 43.5508C97.4863 44.194 97.3551 44.7272 97.0928 45.1504C96.8346 45.5736 96.4284 45.9163 95.874 46.1787L97.8037 49.9048V50H95.417L93.7856 46.7373ZM92.5796 45.0171H93.9888C94.4119 45.0171 94.7293 44.9071 94.9409 44.687C95.1567 44.4627 95.2646 44.1517 95.2646 43.7539C95.2646 43.3561 95.1567 43.0451 94.9409 42.8208C94.7251 42.5923 94.4077 42.478 93.9888 42.478H92.5796V45.0171ZM101.206 50H98.9844V40.7578H101.206V50ZM108.119 48.2734H105.065L104.532 50H102.152L105.542 40.7578H107.636L111.051 50H108.658L108.119 48.2734ZM105.599 46.5532H107.585L106.589 43.3477L105.599 46.5532Z" fill="#E95E2A"/>
<defs>
<linearGradient id="paint0_linear" x1="73.7142" y1="20.9355" x2="73.7142" y2="25.5432" gradientUnits="userSpaceOnUse">
<stop stop-color="#184071"/>
<stop offset="0.776042" stop-color="#7AA2D6"/>
</linearGradient>
<linearGradient id="paint1_linear" x1="73.7142" y1="4.61011" x2="73.7142" y2="31.7845" gradientUnits="userSpaceOnUse">
<stop stop-color="#184071"/>
<stop offset="0.776042" stop-color="#7AA2D6"/>
</linearGradient>
<clipPath id="clip0">
<rect width="31.9639" height="31.9639" fill="white" transform="translate(52)"/>
</clipPath>
</defs>
</svg>
