<svg width="87" height="92" viewBox="0 0 87 92" fill="none" xmlns="http://www.w3.org/2000/svg">
<g clip-path="url(#clip0)">
<path fill-rule="evenodd" clip-rule="evenodd" d="M43.5347 78.9268C50.0503 78.9233 56.4186 76.9888 61.8344 73.3677C67.2503 69.7466 71.4705 64.6016 73.9615 58.5831C76.4525 52.5646 77.1025 45.9429 75.8293 39.5552C74.556 33.1675 71.4167 27.3006 66.8083 22.6962C62.1999 18.0919 56.3292 14.9568 49.9386 13.6874C43.5479 12.418 36.9242 13.0712 30.9049 15.5645C24.8856 18.0578 19.741 22.2793 16.1215 27.6951C12.502 33.1109 10.5701 39.478 10.5701 45.9913C10.6068 54.718 14.0922 63.0766 20.2668 69.2458C26.4414 75.415 34.8048 78.8947 43.5347 78.9268Z" fill="#B4ADBB"/>
<path fill-rule="evenodd" clip-rule="evenodd" d="M10.5877 44.651H24.693C24.8003 44.6558 24.9074 44.6385 25.0077 44.6001C25.108 44.5618 25.1994 44.5033 25.2762 44.4282C25.3529 44.3531 25.4134 44.2631 25.4539 44.1636C25.4943 44.0642 25.5139 43.9575 25.5114 43.8502C25.6731 38.7992 26.4628 33.7879 27.8623 28.9318C28.0191 28.4095 27.9668 28.1136 27.3573 27.8525C24.6336 26.6651 22.1357 25.0161 19.9738 22.9783C20.6007 22.3516 21.2624 21.7249 21.9416 21.1331C23.7878 22.8721 25.9204 24.2796 28.2454 25.2935C28.8027 25.5546 29.0813 25.2935 29.2903 24.8757C29.7082 23.9009 30.0913 22.9957 30.5441 22.1079C32.0957 18.724 34.495 15.798 37.5096 13.6129C41.4708 12.8933 45.5293 12.8933 49.4904 13.6129C52.5051 15.798 54.9044 18.724 56.456 22.1079C56.9088 22.9957 57.2919 23.8487 57.7098 24.8757C57.9188 25.3458 58.1974 25.5546 58.7546 25.2935C61.0826 24.2753 63.2202 22.8684 65.0759 21.1331C65.7376 21.7249 66.3994 22.3516 67.0263 22.9783C64.8691 25.0055 62.3845 26.6535 59.6776 27.8525C59.0681 28.1136 59.0159 28.4095 59.1726 28.9318C60.5691 33.7874 61.3472 38.7998 61.4886 43.8502C61.4885 43.9584 61.5103 44.0654 61.5528 44.1649C61.5952 44.2644 61.6573 44.3543 61.7354 44.4291C61.8135 44.5039 61.906 44.5622 62.0073 44.6003C62.1085 44.6384 62.2164 44.6557 62.3245 44.651H76.4124C76.4124 45.5562 76.4124 46.3917 76.4124 47.3492H62.3245C62.2164 47.3445 62.1085 47.3617 62.0073 47.3998C61.906 47.438 61.8135 47.4962 61.7354 47.571C61.6573 47.6459 61.5952 47.7357 61.5528 47.8352C61.5103 47.9347 61.4885 48.0418 61.4886 48.1499C61.3586 53.1931 60.5921 58.1997 59.2074 63.051C59.0507 63.5906 59.1029 63.8691 59.7124 64.1476C62.4317 65.3355 64.9286 66.978 67.0959 69.0044C66.469 69.6485 65.8073 70.2752 65.1456 70.8496C63.2844 69.1258 61.1478 67.7254 58.8243 66.7066C58.2671 66.4455 57.9884 66.7066 57.7795 67.1244C57.3615 68.0818 56.9784 69.0044 56.5257 69.8922C54.9687 73.2727 52.5705 76.1976 49.5601 78.3872C45.5989 79.1068 41.5405 79.1068 37.5793 78.3872C34.5689 76.1976 32.1707 73.2727 30.6137 69.8922C30.161 69.0044 29.7779 68.1514 29.3599 67.1244C29.151 66.6544 28.8723 66.4455 28.3151 66.7066C25.9944 67.721 23.8628 69.1219 22.0112 70.8496C21.3321 70.2752 20.6704 69.6485 20.0435 69.0044C22.1976 66.9824 24.6833 65.3454 27.3922 64.1651C28.0016 63.8865 28.0539 63.608 27.8972 63.0684C26.5091 58.2168 25.7311 53.2112 25.5811 48.1673C25.5836 48.06 25.564 47.9533 25.5235 47.8539C25.483 47.7544 25.4226 47.6644 25.3458 47.5893C25.2691 47.5142 25.1777 47.4557 25.0774 47.4174C24.9771 47.3791 24.8699 47.3618 24.7626 47.3666H10.5877C10.5877 46.4614 10.5877 45.6258 10.5877 44.6684V44.651ZM44.8583 48.2718C44.893 48.0395 45.0015 47.8244 45.1676 47.6583C45.3338 47.4922 45.5489 47.3839 45.7813 47.3492H57.971C58.5979 47.3492 58.7895 47.6973 58.7546 48.1499C58.6422 52.8647 57.9222 57.5453 56.6127 62.0761C56.4212 62.6854 56.16 62.7724 55.6027 62.6158C52.3494 61.6764 49.0038 61.0927 45.6245 60.875C44.9976 60.875 44.8061 60.5094 44.8235 60.0394L44.8583 48.2718ZM54.7494 65.1921C51.7932 64.3131 48.7405 63.7986 45.6594 63.6602C45.5546 63.6501 45.4489 63.6626 45.3495 63.697C45.25 63.7314 45.1592 63.7869 45.0832 63.8596C45.0071 63.9323 44.9477 64.0206 44.9089 64.1183C44.8701 64.2161 44.8528 64.3211 44.8583 64.4262V76.6116C44.8583 77.0816 45.1021 77.395 45.642 77.2209C48.8635 76.2635 51.8065 73.1475 54.0877 68.6389C54.5056 67.8381 54.8539 67.0373 55.237 66.1495C55.4808 65.5751 55.2719 65.3488 54.7494 65.1921ZM44.8583 43.7283C44.893 43.9607 45.0015 44.1757 45.1676 44.3418C45.3338 44.5079 45.5489 44.6163 45.7813 44.651H57.971C58.5979 44.651 58.7895 44.2854 58.7546 43.8502C58.6393 39.1357 57.9194 34.4554 56.6127 29.924C56.4212 29.3321 56.16 29.2451 55.6027 29.4018C52.3475 30.3327 49.0028 30.9163 45.6245 31.1425C44.9976 31.1425 44.8061 31.5081 44.8235 31.9781L44.8583 43.7283ZM54.7494 26.808C51.7932 27.687 48.7405 28.2015 45.6594 28.3399C45.5531 28.3504 45.4458 28.3374 45.345 28.302C45.2443 28.2666 45.1525 28.2096 45.0761 28.1349C44.9998 28.0603 44.9407 27.9698 44.9031 27.8699C44.8655 27.7699 44.8502 27.663 44.8583 27.5565V15.3711C44.8583 14.9011 45.1021 14.5878 45.642 14.7444C48.8635 15.7193 51.8065 18.8353 54.0877 23.3439C54.5056 24.1446 54.8539 24.928 55.237 25.8332C55.4808 26.4424 55.237 26.6513 54.7494 26.8254V26.808ZM42.1592 48.2718C42.1194 48.0416 42.0094 47.8293 41.8441 47.6641C41.6789 47.4989 41.4665 47.3889 41.2362 47.3492H29.0465C28.4196 47.3492 28.2454 47.6973 28.2628 48.1499C28.3924 52.8632 29.112 57.5416 30.4048 62.0761C30.5963 62.6854 30.8575 62.7724 31.4148 62.6158C34.6684 61.678 38.0139 61.0944 41.393 60.875C42.0199 60.875 42.2114 60.5094 42.2114 60.0394V48.2718H42.1592ZM32.2506 65.1921C35.2076 64.3159 38.2599 63.8016 41.3407 63.6602C41.4462 63.6503 41.5526 63.6629 41.6529 63.6972C41.7532 63.7315 41.845 63.7866 41.9224 63.859C41.9998 63.9314 42.0609 64.0194 42.1017 64.1172C42.1425 64.215 42.1621 64.3203 42.1592 64.4262V76.6116C42.1592 77.0816 41.898 77.395 41.3755 77.2209C38.154 76.2635 35.1936 73.1475 32.9124 68.6389C32.4944 67.8381 32.1462 67.0373 31.7805 66.1495C31.5193 65.5751 31.7282 65.3488 32.2506 65.1921ZM42.1592 43.7283C42.1194 43.9586 42.0094 44.1708 41.8441 44.336C41.6789 44.5012 41.4665 44.6112 41.2362 44.651H29.0465C28.9378 44.67 28.8261 44.6623 28.721 44.6286C28.616 44.5948 28.5207 44.5359 28.4435 44.457C28.3664 44.3782 28.3096 44.2817 28.2781 44.176C28.2466 44.0702 28.2414 43.9584 28.2628 43.8502C28.3952 39.1372 29.1147 34.4591 30.4048 29.924C30.5963 29.3321 30.8575 29.2451 31.4148 29.4018C34.6703 30.3312 38.0149 30.9147 41.393 31.1425C42.0199 31.1425 42.2114 31.5081 42.2114 31.9781V43.8328L42.1592 43.7283ZM32.2506 26.808C35.2076 27.6842 38.2599 28.1986 41.3407 28.3399C41.4471 28.3472 41.5539 28.3322 41.6542 28.2959C41.7544 28.2596 41.846 28.2027 41.9231 28.129C42.0001 28.0553 42.0609 27.9662 42.1016 27.8677C42.1422 27.7691 42.1618 27.6631 42.1592 27.5565V15.3711C42.1592 14.9011 41.898 14.5878 41.3755 14.7444C38.154 15.7193 35.1936 18.8353 32.9124 23.3439C32.4944 24.1446 32.1462 24.928 31.7805 25.8332C31.5193 26.4424 31.7805 26.6513 32.2506 26.8254V26.808Z" fill="#E5531C"/>
<path fill-rule="evenodd" clip-rule="evenodd" d="M68.3321 0C72.1259 0.0212113 75.8233 1.19633 78.9327 3.36909C82.0421 5.54186 84.4163 8.60933 85.7395 12.1636C87.0626 15.7179 87.2722 19.5907 86.3402 23.2669C85.4081 26.9431 83.3788 30.2487 80.5219 32.744H56.0553C53.1929 30.2438 51.1614 26.9303 50.232 23.2459C49.3025 19.5614 49.5192 15.6812 50.8533 12.1231C52.1873 8.565 54.5752 5.49825 57.6983 3.33215C60.8213 1.16604 64.531 0.00361206 68.3321 0Z" fill="#744C76"/>
<path fill-rule="evenodd" clip-rule="evenodd" d="M18.6677 92C22.364 92.0034 25.9783 90.9109 29.0534 88.8605C32.1284 86.8102 34.5261 83.8942 35.943 80.4815C37.3599 77.0687 37.7324 73.3126 37.0134 69.6882C36.2944 66.0637 34.5162 62.7339 31.9037 60.1199C29.2912 57.5059 25.9619 55.7253 22.3368 55.0031C18.7118 54.281 14.954 54.6499 11.5387 56.0631C8.1234 57.4763 5.20415 59.8704 3.15023 62.9424C1.09631 66.0145 1.60524e-06 69.6265 0 73.3215C0.00918964 78.2695 1.97836 83.0125 5.47675 86.5129C8.97514 90.0133 13.718 91.9862 18.6677 92Z" fill="#744C76"/>
<path fill-rule="evenodd" clip-rule="evenodd" d="M61.9413 20.5586H74.7232C76.2828 20.5632 77.7772 21.1846 78.8801 22.287C79.9829 23.3894 80.6045 24.8833 80.6091 26.4424V32.744C77.2066 35.7085 72.8457 37.3416 68.3322 37.3416C63.8188 37.3416 59.4579 35.7085 56.0554 32.744V26.4424C56.06 24.8833 56.6816 23.3894 57.7844 22.287C58.8873 21.1846 60.3817 20.5632 61.9413 20.5586Z" fill="#2D2D7B"/>
<path fill-rule="evenodd" clip-rule="evenodd" d="M12.2769 75.2189H25.0588C26.6184 75.2235 28.1128 75.8448 29.2157 76.9473C30.3185 78.0497 30.9401 79.5436 30.9447 81.1027V87.4043C27.545 90.3675 23.187 92 18.6766 92C14.1661 92 9.80813 90.3675 6.40845 87.4043V81.1027C6.41301 79.5466 7.03221 78.0553 8.13129 76.9534C9.23036 75.8514 10.7203 75.228 12.2769 75.2189Z" fill="#937D95"/>
<path fill-rule="evenodd" clip-rule="evenodd" d="M24.6232 71.1803C24.6232 72.7592 23.9957 74.2735 22.8788 75.39C21.7619 76.5065 20.2471 77.1337 18.6676 77.1337C17.0881 77.1337 15.5733 76.5065 14.4564 75.39C13.3395 74.2735 12.712 72.7592 12.712 71.1803V64.7916C12.7166 63.9082 13.0709 63.0626 13.6975 62.4395C14.324 61.8165 15.1718 61.4667 16.0555 61.4667H23.7351C23.8558 61.4492 23.9789 61.4601 24.0946 61.4985C24.2104 61.537 24.3155 61.6018 24.4018 61.6881C24.488 61.7743 24.5529 61.8794 24.5914 61.9951C24.6298 62.1108 24.6407 62.2339 24.6232 62.3545V71.1803Z" fill="#F1D0A4"/>
<path fill-rule="evenodd" clip-rule="evenodd" d="M12.712 64.7916V66.7239H24.6232V62.3545C24.6407 62.2339 24.6298 62.1108 24.5914 61.9951C24.5529 61.8794 24.488 61.7743 24.4018 61.6881C24.3155 61.6018 24.2104 61.537 24.0946 61.4985C23.9789 61.4601 23.8558 61.4492 23.7351 61.4667H16.0555C15.1718 61.4667 14.324 61.8165 13.6975 62.4395C13.0709 63.0626 12.7166 63.9082 12.712 64.7916Z" fill="#487C9F"/>
<path fill-rule="evenodd" clip-rule="evenodd" d="M74.2877 16.5199C74.2877 18.0989 73.6603 19.6132 72.5434 20.7297C71.4265 21.8461 69.9117 22.4734 68.3322 22.4734C66.7526 22.4734 65.2378 21.8461 64.1209 20.7297C63.004 19.6132 62.3766 18.0989 62.3766 16.5199V10.1487C62.3766 9.26526 62.7264 8.41777 63.3497 7.79146C63.973 7.16516 64.8189 6.811 65.7026 6.8064H70.9268C71.8106 6.811 72.6565 7.16516 73.2798 7.79146C73.903 8.41777 74.2529 9.26526 74.2529 10.1487V16.5199H74.2877Z" fill="#F1D0A4"/>
<path fill-rule="evenodd" clip-rule="evenodd" d="M62.3766 10.1487V12.464C63.0036 12.7104 63.6778 12.8133 64.3499 12.7651C65.0219 12.7169 65.6745 12.5189 66.2599 12.1854C66.8868 11.8373 66.9913 11.7677 67.6182 12.3073C68.5498 13.0323 69.6474 13.5138 70.8119 13.7084C71.9763 13.9029 73.1709 13.8043 74.2877 13.4214V10.1487C74.2877 9.26531 73.9379 8.41781 73.3146 7.79151C72.6913 7.16521 71.8454 6.81104 70.9617 6.80644H65.7375C65.2969 6.80415 64.8603 6.88891 64.4526 7.05584C64.045 7.22278 63.6743 7.46861 63.362 7.7792C63.0497 8.08979 62.8019 8.45901 62.6328 8.86566C62.4636 9.2723 62.3766 9.70835 62.3766 10.1487Z" fill="#487C9F"/>
<path fill-rule="evenodd" clip-rule="evenodd" d="M69.795 13.4214V16.52C69.7985 17.6934 69.4571 18.8419 68.8131 19.823C68.1692 20.804 67.2511 21.5743 66.1729 22.0382C67.0777 22.4021 68.0579 22.5389 69.0278 22.4367C69.9977 22.3345 70.9279 21.9965 71.737 21.4522C72.5461 20.9078 73.2095 20.1737 73.6693 19.3139C74.1292 18.4541 74.3714 17.4949 74.3749 16.52V13.3344C72.8917 13.823 71.2957 13.8533 69.795 13.4214Z" fill="#ECBB88"/>
<path fill-rule="evenodd" clip-rule="evenodd" d="M66.4689 6.8064C67.3527 6.811 68.1986 7.16516 68.8219 7.79146C69.4451 8.41777 69.795 9.26526 69.795 10.1487V13.4213C71.2599 13.8638 72.8229 13.8638 74.2878 13.4213V10.1487C74.2878 9.26526 73.9379 8.41777 73.3147 7.79146C72.6914 7.16516 71.8455 6.811 70.9617 6.8064H66.4689Z" fill="#2D2D7B"/>
<path fill-rule="evenodd" clip-rule="evenodd" d="M19.2422 61.4667C19.3629 61.4533 19.4851 61.4669 19.5998 61.5065C19.7146 61.5461 19.8191 61.6108 19.9058 61.6958C19.9925 61.7808 20.0592 61.884 20.101 61.9979C20.1429 62.1119 20.1589 62.2337 20.1478 62.3545V66.7239H24.6232V62.3545C24.6407 62.2339 24.6298 62.1108 24.5914 61.9951C24.5529 61.8794 24.488 61.7743 24.4018 61.6881C24.3155 61.6018 24.2104 61.537 24.0946 61.4985C23.9789 61.4601 23.8557 61.4492 23.735 61.4667H19.2422Z" fill="#2D2D7B"/>
<path fill-rule="evenodd" clip-rule="evenodd" d="M20.148 66.724V71.1804C20.1406 72.3651 19.7828 73.5211 19.1197 74.503C18.4566 75.4849 17.5178 76.2488 16.4214 76.6986C17.1359 76.9846 17.8982 77.1323 18.6678 77.1338C20.2459 77.1292 21.7581 76.5005 22.874 75.385C23.9899 74.2695 24.6188 72.7579 24.6234 71.1804V66.724H20.148Z" fill="#ECBB88"/>
</g>
<defs>
<clipPath id="clip0">
<rect width="87" height="92" fill="white"/>
</clipPath>
</defs>
</svg>
