<svg width="350" height="48" viewBox="0 0 350 48" fill="none" xmlns="http://www.w3.org/2000/svg">
<path d="M161.165 34.2506C161.565 34.2394 161.964 34.3172 162.33 34.4781C162.627 34.6214 162.888 34.8287 163.094 35.085C163.287 35.341 163.429 35.6304 163.515 35.9384C163.59 36.2618 163.629 36.5926 163.629 36.9246C163.642 37.3391 163.571 37.752 163.419 38.1384C163.296 38.4572 163.1 38.743 162.846 38.9728C162.581 39.192 162.276 39.3593 161.948 39.4659C161.562 39.5677 161.163 39.6187 160.764 39.6176H159.789V43.202H157.879V34.2506H161.165ZM160.611 38.2901C160.935 38.3006 161.25 38.1849 161.49 37.9677C161.727 37.6884 161.844 37.327 161.814 36.9625C161.838 36.5929 161.737 36.226 161.528 35.9195C161.401 35.7943 161.248 35.6988 161.079 35.6397C160.911 35.5807 160.731 35.5596 160.553 35.5781H159.789V38.2901H160.611Z" fill="white"/>
<path d="M165.75 40.6226C165.731 40.8181 165.731 41.0151 165.75 41.2105C165.77 41.3807 165.815 41.547 165.884 41.7036C165.953 41.8375 166.043 41.9593 166.152 42.064C166.274 42.1504 166.421 42.1968 166.572 42.1967C166.696 42.2029 166.82 42.1763 166.931 42.1197C167.042 42.0631 167.135 41.9784 167.202 41.8743C167.362 41.5809 167.459 41.2582 167.489 40.9261H169.055C169.067 41.5761 168.844 42.2088 168.425 42.7088C168.17 42.9427 167.868 43.1195 167.538 43.2275C167.209 43.3355 166.86 43.372 166.515 43.3346C165.998 43.3573 165.485 43.2462 165.024 43.0122C164.693 42.8224 164.427 42.5383 164.26 42.1967C164.081 41.8344 163.971 41.4421 163.935 41.0399C163.935 40.6037 163.935 40.1864 163.935 39.7503C163.906 39.3209 163.906 38.89 163.935 38.4606C163.996 38.0684 164.125 37.6897 164.318 37.3417C164.511 37.0101 164.796 36.7403 165.139 36.5642C165.579 36.3544 166.065 36.2566 166.553 36.2797C166.981 36.2613 167.407 36.3458 167.795 36.5262C168.112 36.6741 168.377 36.9116 168.559 37.209C168.754 37.5419 168.884 37.9088 168.941 38.29C168.973 38.7572 168.973 39.2261 168.941 39.6934V40.0916H165.502L165.75 40.6226ZM167.47 38.3658C167.451 38.1957 167.406 38.0294 167.336 37.8727C167.28 37.742 167.187 37.6301 167.069 37.5503C166.932 37.4838 166.781 37.4512 166.629 37.4555C166.481 37.4498 166.334 37.4895 166.209 37.5693C166.09 37.6536 165.992 37.7639 165.922 37.8917C165.852 38.0282 165.807 38.1758 165.789 38.3279C165.769 38.4853 165.769 38.6446 165.789 38.802V39.0486H167.565C167.527 38.8083 167.495 38.5808 167.47 38.3658Z" fill="white"/>
<path d="M171.768 36.4503V37.3607C171.926 37.0532 172.148 36.7819 172.418 36.5641C172.682 36.3688 173.005 36.2684 173.335 36.2797H173.659V37.9296H173.105C172.953 37.9113 172.799 37.9113 172.647 37.9296C172.502 37.976 172.367 38.0465 172.246 38.1382C172.114 38.2379 172.009 38.3682 171.94 38.5175C171.858 38.6958 171.819 38.8906 171.825 39.0865V43.1449H170.03V36.4503H171.768Z" fill="white"/>
<path d="M175.57 41.2104C175.558 41.47 175.64 41.7253 175.799 41.9311C175.888 42.0212 175.996 42.0914 176.114 42.1372C176.233 42.183 176.36 42.2032 176.487 42.1966C176.721 42.2038 176.951 42.13 177.137 41.988C177.217 41.9091 177.278 41.8141 177.318 41.7094C177.358 41.6046 177.374 41.4927 177.366 41.3811C177.372 41.29 177.358 41.1987 177.325 41.1135C177.292 41.0284 177.241 40.9514 177.175 40.888C177.046 40.7736 176.897 40.6836 176.735 40.6225L175.513 40.1863C175.092 40.0558 174.715 39.8131 174.424 39.4846C174.175 39.1436 174.047 38.7299 174.061 38.3088C174.055 38.0435 174.101 37.7796 174.195 37.5312C174.292 37.2817 174.442 37.0554 174.634 36.8675C174.867 36.677 175.132 36.5293 175.417 36.4313C175.79 36.3255 176.176 36.2744 176.563 36.2795C177.189 36.2341 177.812 36.4086 178.321 36.7726C178.508 36.9587 178.653 37.1813 178.748 37.4261C178.844 37.6709 178.887 37.9328 178.875 38.195V38.4795H177.309C177.326 38.2115 177.273 37.9436 177.156 37.7019C177.083 37.6132 176.989 37.5442 176.882 37.5011C176.775 37.458 176.659 37.4423 176.544 37.4554C176.337 37.451 176.134 37.518 175.971 37.645C175.887 37.7043 175.819 37.7845 175.776 37.8776C175.732 37.9708 175.714 38.0737 175.723 38.176C175.724 38.3399 175.778 38.4992 175.876 38.6312C176.043 38.7993 176.255 38.9175 176.487 38.9725L177.538 39.3139C177.984 39.4461 178.387 39.695 178.703 40.0346C178.934 40.3964 179.048 40.8202 179.028 41.2483C179.045 41.5691 178.979 41.8889 178.837 42.1776C178.727 42.4401 178.549 42.6691 178.321 42.8414C178.082 43.0198 177.809 43.1488 177.519 43.2207C177.187 43.2992 176.847 43.3374 176.506 43.3345C176.095 43.3364 175.685 43.2918 175.283 43.2017C175 43.123 174.738 42.9802 174.519 42.7845C174.329 42.595 174.19 42.3598 174.118 42.1017C174.039 41.8178 174 41.5241 174.003 41.2294V40.9828H175.57V41.2104Z" fill="white"/>
<path d="M181.664 43.2022H180.002V41.3057H181.664V43.2022Z" fill="white"/>
<path d="M190.204 40.6796C190.239 41.0482 190.198 41.4201 190.083 41.7724C189.968 42.1246 189.782 42.4498 189.535 42.7278C188.954 43.1752 188.225 43.3915 187.491 43.3347C187.088 43.3412 186.687 43.277 186.307 43.145C186.016 43.0265 185.764 42.8294 185.581 42.5761C185.393 42.3364 185.262 42.0576 185.199 41.7606C185.169 41.4262 185.169 41.0899 185.199 40.7554V40.3572H186.861V40.6416C186.84 41.0038 186.899 41.3661 187.033 41.7037C187.088 41.8193 187.179 41.9146 187.292 41.9759C187.405 42.0373 187.535 42.0614 187.663 42.045C187.796 42.0613 187.931 42.0374 188.05 41.9765C188.17 41.9156 188.268 41.8206 188.332 41.7037C188.448 41.3621 188.5 41.002 188.485 40.6416V34.2505H190.395L190.204 40.6796Z" fill="white"/>
<path d="M194.865 42.4052C194.713 42.7141 194.465 42.9666 194.158 43.1258C193.84 43.2657 193.494 43.3368 193.146 43.3344C192.914 43.3493 192.682 43.3184 192.462 43.2435C192.242 43.1687 192.04 43.0513 191.866 42.8982C191.694 42.702 191.565 42.4728 191.486 42.2249C191.407 41.9769 191.38 41.7155 191.407 41.4569V36.4502H193.165V41.0966C193.138 41.3552 193.199 41.6153 193.337 41.8362C193.411 41.9102 193.501 41.9672 193.6 42.0032C193.699 42.0393 193.805 42.0534 193.91 42.0448C194.521 42.0448 194.827 41.6655 194.827 40.9259V36.4502H196.566V43.2017H194.865V42.4052Z" fill="white"/>
<path d="M199.317 36.4503V37.3607C199.475 37.0532 199.696 36.7819 199.966 36.5641C200.23 36.3688 200.554 36.2684 200.883 36.2797H201.208V37.9296H200.597C200.444 37.9113 200.29 37.9113 200.138 37.9296C199.995 37.98 199.86 38.0502 199.737 38.1382C199.605 38.2379 199.5 38.3682 199.431 38.5175C199.349 38.6958 199.31 38.8906 199.317 39.0865V43.1449H197.578V36.4503H199.317Z" fill="white"/>
<path d="M203.654 36.4507V43.2022H201.915V36.4507H203.654ZM204.38 33.8525L203.157 35.6542H201.973L202.641 33.8525H204.38Z" fill="white"/>
<path d="M208.334 42.4812C208.185 42.7588 207.96 42.989 207.684 43.145C207.411 43.2767 207.11 43.3418 206.806 43.3347C206.491 43.3559 206.177 43.2911 205.898 43.1473C205.618 43.0035 205.384 42.7862 205.22 42.5192C204.831 41.6767 204.66 40.7509 204.723 39.8262C204.662 38.8954 204.833 37.9641 205.22 37.1142C205.478 36.7338 205.865 36.4589 206.311 36.3403C206.757 36.2218 207.232 36.2676 207.646 36.4694C207.891 36.6265 208.099 36.8334 208.258 37.0763V34.2505H209.996V43.2019H208.334V42.4812ZM206.634 41.4761C206.672 41.6437 206.767 41.7934 206.902 41.9006C207.038 42.0077 207.206 42.0661 207.379 42.0661C207.552 42.0661 207.72 42.0077 207.855 41.9006C207.991 41.7934 208.085 41.6437 208.124 41.4761C208.239 40.9341 208.278 40.3788 208.239 39.8262C208.258 39.2647 208.2 38.7031 208.067 38.1572C208.016 38.001 207.916 37.8648 207.782 37.7682C207.648 37.6716 207.487 37.6196 207.321 37.6196C207.156 37.6196 206.995 37.6716 206.861 37.7682C206.727 37.8648 206.627 38.001 206.576 38.1572C206.443 38.7031 206.385 39.2647 206.404 39.8262C206.403 40.3841 206.48 40.9394 206.634 41.4761Z" fill="white"/>
<path d="M212.996 34.1367V35.597H211.257V34.1367H212.996ZM212.996 36.4315V43.1829H211.257V36.4504L212.996 36.4315Z" fill="white"/>
<path d="M217.466 38.3849C217.44 38.243 217.401 38.1034 217.352 37.9677C217.303 37.8383 217.216 37.7261 217.103 37.6453C216.986 37.5632 216.845 37.5231 216.702 37.5315C216.52 37.5204 216.34 37.5669 216.186 37.6642C216.049 37.7816 215.944 37.9317 215.881 38.1004C215.807 38.3345 215.762 38.5764 215.747 38.8211C215.747 39.1055 215.747 39.4469 215.747 39.8452C215.747 40.2434 215.747 40.6038 215.747 40.9072C215.756 41.1836 215.801 41.4576 215.881 41.7227C215.939 41.8837 216.037 42.0273 216.167 42.1399C216.311 42.226 216.476 42.2719 216.645 42.2727C216.778 42.2767 216.91 42.2432 217.025 42.1761C217.14 42.109 217.233 42.011 217.294 41.8934C217.448 41.5079 217.513 41.0933 217.485 40.6796H219.147C219.203 41.4048 218.993 42.1255 218.555 42.7089C218.303 42.9503 218.003 43.1373 217.674 43.2581C217.345 43.3788 216.995 43.4308 216.645 43.4106C216.257 43.4144 215.871 43.3633 215.499 43.2588C215.181 43.15 214.903 42.9525 214.696 42.6899C214.459 42.3616 214.296 41.9864 214.219 41.5899C214.062 41.0147 213.978 40.4221 213.97 39.8262C213.953 39.2449 214.018 38.6642 214.161 38.1004C214.269 37.6966 214.465 37.3212 214.734 37.0005C214.973 36.7388 215.276 36.5428 215.613 36.4315C215.973 36.3293 216.347 36.2782 216.721 36.2798C217.073 36.2381 217.429 36.28 217.762 36.402C218.094 36.524 218.392 36.7226 218.632 36.9815C219.07 37.5138 219.289 38.1917 219.243 38.878H217.581C217.553 38.7115 217.514 38.5469 217.466 38.3849Z" fill="white"/>
<path d="M220.045 38.3471C220.041 38.0152 220.106 37.6861 220.236 37.3799C220.358 37.1301 220.534 36.91 220.751 36.7351C220.974 36.5612 221.237 36.444 221.516 36.3937C221.815 36.3164 222.123 36.2781 222.433 36.28C222.859 36.2603 223.285 36.3116 223.694 36.4317C223.973 36.507 224.229 36.6504 224.439 36.8489C224.625 37.0285 224.751 37.26 224.802 37.5127C224.833 37.79 224.833 38.0698 224.802 38.3471V41.8935C224.788 42.1399 224.788 42.3868 224.802 42.6332C224.847 42.8263 224.904 43.0163 224.974 43.2021H223.522C223.466 43.0865 223.421 42.9658 223.388 42.8418C223.388 42.728 223.388 42.6142 223.388 42.5004C223.23 42.796 222.983 43.0349 222.681 43.1832C222.348 43.2913 221.999 43.3426 221.649 43.3349C221.387 43.337 221.127 43.2853 220.885 43.1832C220.685 43.0745 220.509 42.926 220.369 42.747C220.25 42.5526 220.16 42.3417 220.102 42.1211C220.042 41.8983 220.01 41.669 220.006 41.4384C220 41.1622 220.039 40.8868 220.121 40.6229C220.168 40.4033 220.273 40.2002 220.427 40.035C220.567 39.8617 220.743 39.7195 220.942 39.6178C221.192 39.4949 221.455 39.3995 221.726 39.3333L222.719 39.0678C222.921 39.0359 223.108 38.9432 223.254 38.8023C223.362 38.6535 223.415 38.4731 223.407 38.2902C223.424 38.0653 223.355 37.8423 223.216 37.6644C223.044 37.5225 222.828 37.4448 222.605 37.4448C222.381 37.4448 222.165 37.5225 221.993 37.6644C221.85 37.8487 221.776 38.0766 221.783 38.3092V38.4988H220.217L220.045 38.3471ZM222.853 40.035L222.49 40.1677C222.199 40.202 221.928 40.3362 221.726 40.547C221.563 40.7436 221.481 40.9945 221.497 41.2487C221.493 41.479 221.545 41.7068 221.649 41.9125C221.698 42.0049 221.772 42.0812 221.864 42.1317C221.956 42.1823 222.061 42.205 222.165 42.197H222.528C222.654 42.1562 222.771 42.0919 222.872 42.0073C222.986 41.9224 223.077 41.8119 223.14 41.6849C223.172 41.5285 223.172 41.3672 223.14 41.2108V39.8264C223.053 39.907 222.957 39.9771 222.853 40.035Z" fill="white"/>
<path d="M232.693 40.3191H229.139V38.8398H232.693V40.3191Z" fill="white"/>
<path d="M236.895 34.4971H239.054L240.964 40.3572C240.964 40.2624 240.964 40.1296 240.964 39.9969C240.964 39.8641 240.964 39.6934 240.964 39.5417C240.955 39.3838 240.955 39.2255 240.964 39.0676V34.4971H242.626V43.2019H240.525L238.615 37.0952C238.615 37.1901 238.615 37.3228 238.615 37.5125C238.615 37.7021 238.615 37.8728 238.615 38.0814C238.615 38.29 238.615 38.4797 238.615 38.6883V43.2019H236.895V34.4971ZM244.976 40.3382C244.745 40.3593 244.512 40.3256 244.296 40.2399C244.08 40.1542 243.888 40.0189 243.735 39.8452C243.439 39.3541 243.306 38.784 243.352 38.2142C243.33 37.9111 243.33 37.6069 243.352 37.3039C243.397 37.0641 243.495 36.8373 243.639 36.6401C243.769 36.4564 243.947 36.3119 244.155 36.2229C244.416 36.1182 244.695 36.0666 244.976 36.0712C245.214 36.047 245.454 36.0791 245.676 36.1648C245.899 36.2506 246.097 36.3874 246.256 36.5642C246.551 37.0552 246.685 37.6253 246.638 38.1952C246.686 38.7736 246.545 39.352 246.237 39.8452C246.077 40.0092 245.883 40.1379 245.669 40.2228C245.455 40.3078 245.226 40.3471 244.995 40.3382H244.976ZM243.486 40.7175H246.6V41.7227H243.486V40.7175ZM245.034 39.6365C245.133 39.6399 245.23 39.6099 245.31 39.5514C245.39 39.4928 245.447 39.4092 245.473 39.3141C245.567 38.9489 245.606 38.5718 245.588 38.1952C245.607 37.8249 245.568 37.4539 245.473 37.0952C245.443 37.0054 245.383 36.9283 245.304 36.8766C245.224 36.8249 245.128 36.8017 245.034 36.8108C244.937 36.8063 244.841 36.8335 244.762 36.8884C244.683 36.9433 244.624 37.0227 244.594 37.1142C244.5 37.4795 244.462 37.8566 244.48 38.2331C244.461 38.6035 244.499 38.9745 244.594 39.3331C244.63 39.4245 244.693 39.5027 244.775 39.5571C244.857 39.6114 244.954 39.6392 245.053 39.6365H245.034Z" fill="white"/>
<path d="M254.299 42.4812C254.15 42.7588 253.925 42.989 253.649 43.145C253.376 43.2767 253.075 43.3418 252.771 43.3347C252.456 43.3559 252.142 43.2911 251.863 43.1473C251.583 43.0035 251.349 42.7862 251.185 42.5192C250.796 41.6767 250.625 40.7509 250.688 39.8262C250.627 38.8954 250.798 37.9641 251.185 37.1142C251.443 36.7338 251.83 36.4589 252.276 36.3403C252.722 36.2218 253.197 36.2676 253.611 36.4694C253.856 36.6265 254.064 36.8334 254.223 37.0763V34.2505H255.999V43.2019H254.337V42.4812H254.299ZM252.599 41.4761C252.631 41.6417 252.722 41.7903 252.855 41.8948C252.988 41.9993 253.155 42.0526 253.325 42.045C253.5 42.058 253.674 42.0075 253.814 41.9029C253.955 41.7983 254.052 41.6467 254.089 41.4761C254.223 40.9367 254.281 40.3814 254.261 39.8262C254.281 39.2647 254.223 38.7031 254.089 38.1572C254.048 37.9902 253.949 37.843 253.809 37.7421C253.669 37.6413 253.497 37.5935 253.325 37.6073C253.158 37.5989 252.993 37.6496 252.86 37.7503C252.727 37.851 252.635 37.9952 252.599 38.1572C252.465 38.7031 252.407 39.2647 252.427 39.8262C252.406 40.3814 252.464 40.9367 252.599 41.4761Z" fill="white"/>
<path d="M258.655 40.6226C258.636 40.8181 258.636 41.0151 258.655 41.2105C258.68 41.3818 258.732 41.5481 258.808 41.7036C258.863 41.8452 258.956 41.9696 259.075 42.064C259.19 42.1527 259.332 42.1996 259.477 42.1967C259.601 42.2029 259.725 42.1763 259.836 42.1197C259.946 42.0631 260.04 41.9784 260.107 41.8743C260.267 41.5809 260.364 41.2582 260.394 40.9261H261.96C261.972 41.5761 261.748 42.2088 261.33 42.7088C261.077 42.9459 260.775 43.1248 260.445 43.233C260.115 43.3412 259.765 43.3759 259.419 43.3346C258.909 43.3602 258.401 43.2489 257.948 43.0122C257.605 42.8316 257.33 42.5455 257.165 42.1967C256.986 41.8344 256.875 41.4421 256.84 41.0399C256.84 40.6037 256.84 40.1864 256.84 39.7503C256.811 39.3209 256.811 38.89 256.84 38.4606C256.901 38.0684 257.03 37.6897 257.222 37.3417C257.416 37.0101 257.701 36.7403 258.044 36.5642C258.484 36.3544 258.97 36.2566 259.458 36.2797C259.885 36.2613 260.312 36.3458 260.699 36.5262C261.016 36.6741 261.282 36.9116 261.464 37.209C261.659 37.5419 261.789 37.9088 261.846 38.29C261.909 38.7551 261.941 39.224 261.941 39.6934V40.0916H258.502L258.655 40.6226ZM260.375 38.3658C260.355 38.1957 260.31 38.0294 260.241 37.8727C260.185 37.742 260.092 37.6301 259.973 37.5503C259.843 37.486 259.699 37.4535 259.553 37.4555C259.404 37.4446 259.255 37.481 259.128 37.5594C259.001 37.6378 258.902 37.7541 258.846 37.8917C258.77 38.027 258.718 38.1746 258.693 38.3279C258.673 38.4853 258.673 38.6446 258.693 38.802V39.0486H260.47C260.432 38.8083 260.4 38.5808 260.375 38.3658Z" fill="white"/>
<path d="M266.163 34.2505H268.074V43.2019H266.163V34.2505Z" fill="white"/>
<path d="M270.958 36.4504V37.2469C271.118 36.9319 271.371 36.6735 271.684 36.5073C271.998 36.3501 272.346 36.2719 272.697 36.2797C272.93 36.2652 273.164 36.2981 273.384 36.3764C273.604 36.4546 273.806 36.5766 273.977 36.7349C274.309 37.1465 274.466 37.6702 274.416 38.1952V43.2019H272.678V38.5365C272.703 38.284 272.642 38.0303 272.506 37.8159C272.433 37.7396 272.343 37.6812 272.244 37.645C272.144 37.6088 272.038 37.5959 271.933 37.6072C271.321 37.6072 271.016 37.9676 271.016 38.7262V43.2019H269.373V36.4504H270.958Z" fill="white"/>
<path d="M276.881 41.2104C276.869 41.47 276.951 41.7253 277.11 41.9311C277.196 42.0207 277.3 42.0908 277.415 42.1367C277.531 42.1825 277.655 42.2029 277.779 42.1966C278.013 42.2038 278.243 42.13 278.429 41.988C278.508 41.9091 278.57 41.8141 278.61 41.7094C278.649 41.6046 278.666 41.4927 278.658 41.3811C278.664 41.29 278.65 41.1987 278.617 41.1135C278.584 41.0284 278.533 40.9514 278.467 40.888C278.338 40.7736 278.189 40.6836 278.027 40.6225L276.805 40.1863C276.384 40.0558 276.007 39.8131 275.716 39.4846C275.467 39.1436 275.339 38.7299 275.353 38.3088C275.354 38.0423 275.406 37.7785 275.506 37.5312C275.589 37.2748 275.741 37.0454 275.945 36.8675C276.171 36.6773 276.43 36.5295 276.709 36.4313C277.082 36.3268 277.468 36.2757 277.855 36.2795C278.481 36.2341 279.104 36.4086 279.613 36.7726C279.803 36.9571 279.952 37.1789 280.051 37.4238C280.149 37.6687 280.196 37.9314 280.186 38.195V38.4795H278.62C278.643 38.209 278.583 37.938 278.448 37.7019C278.375 37.6132 278.281 37.5442 278.174 37.5011C278.067 37.458 277.951 37.4423 277.836 37.4554C277.629 37.451 277.426 37.518 277.263 37.645C277.181 37.7067 277.116 37.7874 277.073 37.8799C277.029 37.9725 277.009 38.0741 277.015 38.176C277.014 38.3435 277.075 38.5055 277.187 38.6312C277.347 38.7995 277.552 38.9181 277.779 38.9725L278.83 39.3139C279.276 39.4461 279.679 39.695 279.995 40.0346C280.246 40.3884 280.367 40.8167 280.339 41.2483C280.342 41.568 280.277 41.8848 280.148 42.1776C280.023 42.4362 279.84 42.6632 279.613 42.8414C279.381 43.0198 279.114 43.1489 278.83 43.2207C278.492 43.3002 278.145 43.3384 277.798 43.3345C277.393 43.3366 276.989 43.292 276.595 43.2017C276.306 43.1219 276.038 42.9794 275.811 42.7845C275.627 42.59 275.49 42.3565 275.41 42.1018C275.379 41.8118 275.379 41.5193 275.41 41.2294V40.9828H276.977L276.881 41.2104Z" fill="white"/>
<path d="M284.446 38.3845C284.429 38.2407 284.39 38.1002 284.332 37.9673C284.283 37.8428 284.204 37.7321 284.102 37.6449C283.977 37.5652 283.831 37.5255 283.682 37.5311C283.5 37.52 283.32 37.5665 283.166 37.6639C283.029 37.7812 282.924 37.9313 282.861 38.1001C282.787 38.3341 282.742 38.5761 282.727 38.8207C282.727 39.1052 282.727 39.4466 282.727 39.8448C282.727 40.2431 282.727 40.6034 282.727 40.9069C282.742 41.1577 282.787 41.4059 282.861 41.6465C282.919 41.8075 283.018 41.9511 283.147 42.0637C283.292 42.1498 283.457 42.1957 283.625 42.1965C283.758 42.2005 283.89 42.167 284.005 42.0999C284.12 42.0328 284.213 41.9348 284.274 41.8172C284.428 41.4317 284.493 41.0171 284.465 40.6034H286.147C286.197 41.331 285.98 42.0519 285.535 42.6327C285.283 42.8741 284.983 43.0611 284.654 43.1819C284.325 43.3026 283.975 43.3546 283.625 43.3344C283.237 43.3382 282.851 43.2871 282.479 43.1827C282.161 43.0739 281.883 42.8763 281.676 42.6137C281.439 42.2854 281.276 41.9102 281.199 41.5137C281.074 40.9599 281.016 40.3933 281.027 39.8259C281.015 39.2437 281.086 38.6627 281.237 38.1001C281.347 37.7008 281.535 37.3271 281.791 37.0001C282.029 36.7385 282.332 36.5425 282.67 36.4312C283.03 36.3304 283.403 36.2794 283.778 36.2795C284.114 36.2529 284.452 36.3022 284.766 36.4237C285.081 36.5453 285.363 36.7358 285.593 36.9812C286.036 37.5116 286.262 38.1891 286.223 38.8776H284.542C284.52 38.7116 284.488 38.5469 284.446 38.3845Z" fill="white"/>
<path d="M288.707 36.4503V37.3607C288.858 37.0541 289.073 36.7827 289.337 36.5641C289.602 36.3688 289.925 36.2684 290.254 36.2797H290.579V37.9296H290.044C289.892 37.9113 289.738 37.9113 289.586 37.9296C289.437 37.9799 289.295 38.0501 289.165 38.1382C289.034 38.2379 288.929 38.3682 288.86 38.5175C288.778 38.6958 288.739 38.8906 288.745 39.0865V43.1449H287.007V36.4503H288.707Z" fill="white"/>
<path d="M293.063 34.1367V35.597H291.305V34.1367H293.063ZM293.063 36.4315V43.1829H291.305V36.4504L293.063 36.4315Z" fill="white"/>
<path d="M295.947 36.4503V37.171C296.102 36.893 296.326 36.6582 296.597 36.4883C296.87 36.3351 297.181 36.2627 297.494 36.2796C297.808 36.2572 298.122 36.3237 298.4 36.4715C298.677 36.6192 298.906 36.842 299.061 37.1141C299.467 37.9583 299.645 38.8929 299.577 39.8261C299.645 40.7531 299.467 41.6817 299.061 42.5191C298.902 42.7861 298.671 43.0038 298.395 43.1479C298.118 43.2919 297.806 43.3566 297.494 43.3346C297.202 43.347 296.911 43.2814 296.652 43.1447C296.394 43.008 296.176 42.8051 296.023 42.557V45.3638H294.208V36.4503H295.947ZM296.195 41.476C296.234 41.6436 296.329 41.7933 296.464 41.9005C296.599 42.0077 296.767 42.066 296.94 42.066C297.114 42.066 297.282 42.0077 297.417 41.9005C297.552 41.7933 297.647 41.6436 297.686 41.476C297.82 40.9366 297.878 40.3813 297.857 39.8261C297.877 39.2646 297.819 38.703 297.686 38.1572C297.634 38.0009 297.535 37.8647 297.401 37.7681C297.267 37.6715 297.106 37.6195 296.94 37.6195C296.775 37.6195 296.614 37.6715 296.48 37.7681C296.346 37.8647 296.246 38.0009 296.195 38.1572C296.093 38.7074 296.068 39.2689 296.119 39.8261C296.042 40.3734 296.042 40.9287 296.119 41.476H296.195Z" fill="white"/>
<path d="M303.76 38.3849C303.784 38.234 303.784 38.0806 303.76 37.9297C303.725 37.7985 303.644 37.6842 303.531 37.6073C303.414 37.5253 303.273 37.4852 303.13 37.4935C302.948 37.4824 302.768 37.5289 302.614 37.6263C302.477 37.7436 302.372 37.8937 302.309 38.0625C302.235 38.2965 302.19 38.5385 302.175 38.7831C302.175 39.0676 302.175 39.409 302.175 39.8072C302.175 40.2055 302.175 40.5658 302.175 40.8693C302.19 41.1201 302.235 41.3683 302.309 41.6089C302.367 41.7699 302.465 41.9135 302.595 42.0261C302.738 42.115 302.904 42.1611 303.073 42.1589C303.204 42.164 303.333 42.1307 303.445 42.0633C303.557 41.9958 303.647 41.8972 303.703 41.7796C303.865 41.3962 303.937 40.981 303.913 40.5658H305.575C305.631 41.291 305.421 42.0117 304.983 42.5951C304.731 42.8365 304.431 43.0235 304.102 43.1443C303.773 43.265 303.423 43.317 303.073 43.2968C302.685 43.3006 302.299 43.2495 301.926 43.1451C301.609 43.0363 301.331 42.8387 301.124 42.5761C300.88 42.2495 300.711 41.8742 300.627 41.4761C300.519 40.9201 300.468 40.3546 300.474 39.7883C300.458 39.207 300.522 38.6262 300.666 38.0625C300.773 37.6587 300.969 37.2833 301.239 36.9625C301.477 36.7009 301.78 36.5049 302.117 36.3936C302.478 36.2914 302.851 36.2403 303.226 36.2419C303.562 36.2153 303.9 36.2646 304.214 36.3861C304.528 36.5077 304.811 36.6982 305.04 36.9436C305.479 37.4759 305.698 38.1538 305.652 38.84H303.99C303.932 38.6799 303.855 38.5271 303.76 38.3849Z" fill="white"/>
<path d="M308.231 34.1367V35.597H306.492V34.1367H308.231ZM308.231 36.4315V43.1829H306.492V36.4504L308.231 36.4315Z" fill="white"/>
<path d="M309.378 38.2903C309.455 37.9 309.604 37.5272 309.817 37.1904C310.025 36.8868 310.317 36.6497 310.658 36.5076C311.051 36.3468 311.474 36.2693 311.9 36.28C312.349 36.2497 312.8 36.3211 313.218 36.4886C313.554 36.6208 313.841 36.8526 314.039 37.1524C314.25 37.4952 314.393 37.875 314.46 38.2713C314.549 38.785 314.593 39.3053 314.593 39.8265C314.597 40.3361 314.545 40.8447 314.44 41.3436C314.374 41.7459 314.217 42.1282 313.982 42.4626C313.772 42.7523 313.489 42.9814 313.16 43.1263C312.757 43.2744 312.329 43.3452 311.9 43.335C311.459 43.3502 311.018 43.286 310.6 43.1453C310.271 43.0109 309.991 42.7792 309.798 42.4815C309.566 42.1474 309.416 41.7644 309.359 41.3626C309.269 40.8554 309.225 40.3414 309.225 39.8265C309.222 39.3105 309.273 38.7957 309.378 38.2903ZM311.002 40.7747C311.015 41.0306 311.054 41.2846 311.116 41.5333C311.175 41.7106 311.273 41.8726 311.403 42.0074C311.468 42.0711 311.546 42.1208 311.631 42.1534C311.717 42.186 311.808 42.2009 311.9 42.1971C312.068 42.2026 312.234 42.1513 312.369 42.0514C312.504 41.9515 312.601 41.8089 312.645 41.6471C312.809 41.0289 312.873 40.3888 312.836 39.7506C312.876 39.1123 312.811 38.4718 312.645 37.8541C312.607 37.7322 312.541 37.6213 312.45 37.531C312.36 37.4408 312.248 37.374 312.125 37.3365C312.003 37.2991 311.873 37.2921 311.747 37.3162C311.621 37.3403 311.503 37.3948 311.403 37.4748C311.273 37.617 311.175 37.7852 311.116 37.9679C311.052 38.2163 311.014 38.4704 311.002 38.7265C311.002 39.011 311.002 39.3334 311.002 39.6747C311.002 40.0161 310.983 40.4902 311.002 40.7747ZM313.504 33.8525L312.282 35.6542H311.097L311.766 33.8525H313.504Z" fill="white"/>
<path d="M317.134 36.4504V37.2469C317.293 36.9319 317.547 36.6735 317.86 36.5073C318.174 36.3501 318.521 36.2719 318.873 36.2797C319.106 36.2652 319.34 36.2981 319.56 36.3764C319.78 36.4546 319.982 36.5766 320.153 36.7349C320.485 37.1465 320.642 37.6702 320.592 38.1952V43.2019H318.854V38.5365C318.879 38.284 318.818 38.0303 318.682 37.8159C318.609 37.7396 318.519 37.6812 318.42 37.645C318.32 37.6088 318.214 37.5959 318.108 37.6072C317.497 37.6072 317.191 37.9676 317.191 38.7262V43.2019H315.434V36.4504H317.134Z" fill="white"/>
<path d="M324.565 37.285C324.592 36.7634 324.708 36.2503 324.909 35.7678C325.078 35.3444 325.371 34.9811 325.75 34.7247C326.211 34.435 326.752 34.2957 327.297 34.3264C327.76 34.3098 328.222 34.3872 328.654 34.554C329.009 34.7082 329.309 34.9662 329.513 35.2936C329.765 35.703 329.922 36.163 329.972 36.6401C330.072 37.2991 330.117 37.9652 330.106 38.6315C330.106 39.2573 330.106 39.8452 330.106 40.4142C330.077 40.9354 329.961 41.4482 329.762 41.9313C329.592 42.3489 329.299 42.7058 328.921 42.9554C328.448 43.2322 327.903 43.3642 327.355 43.3347C326.9 43.3448 326.447 43.2741 326.017 43.1261C325.662 42.972 325.362 42.714 325.158 42.3865C324.906 41.9842 324.749 41.5302 324.699 41.059C324.598 40.3937 324.554 39.7213 324.565 39.0487C324.527 38.4418 324.527 37.8539 324.565 37.285ZM326.361 40.8124C326.375 41.1038 326.433 41.3915 326.533 41.6658C326.579 41.8327 326.68 41.9795 326.82 42.0831C326.966 42.1625 327.131 42.2018 327.297 42.1968C327.476 42.2054 327.651 42.1518 327.794 42.0451C327.944 41.9156 328.051 41.7435 328.1 41.552C328.173 41.2526 328.224 40.9484 328.253 40.6417C328.253 40.2435 328.253 39.7693 328.253 39.2004V38.2332C328.253 37.6832 328.253 37.2281 328.253 36.8677C328.229 36.5837 328.172 36.3035 328.081 36.0333C328.032 35.8676 327.932 35.7215 327.794 35.616C327.642 35.5342 327.47 35.4948 327.297 35.5023C327.128 35.4911 326.959 35.5379 326.82 35.635C326.673 35.7674 326.567 35.9384 326.514 36.1281C326.432 36.432 326.381 36.7433 326.361 37.0574C326.361 37.4367 326.361 37.9108 326.361 38.4797V39.4469C326.323 39.9969 326.342 40.471 326.361 40.8124Z" fill="white"/>
<path d="M330.889 39.238C331.015 39.0394 331.182 38.8703 331.38 38.7426C331.578 38.6149 331.802 38.5315 332.035 38.4984C331.81 38.4425 331.596 38.3461 331.405 38.2139C331.257 38.0945 331.129 37.9539 331.023 37.7967C330.921 37.6408 330.849 37.467 330.813 37.2846C330.786 37.1213 330.786 36.9548 330.813 36.7915C330.774 36.4426 330.818 36.0895 330.94 35.7603C331.063 35.4311 331.261 35.1348 331.52 34.895C332.088 34.527 332.752 34.3311 333.43 34.3311C334.109 34.3311 334.772 34.527 335.341 34.895C335.599 35.1348 335.797 35.4311 335.92 35.7603C336.043 36.0895 336.086 36.4426 336.047 36.7915C336.074 36.9548 336.074 37.1213 336.047 37.2846C336.003 37.4646 335.932 37.6371 335.837 37.7967C335.724 37.9538 335.589 38.0943 335.436 38.2139C335.257 38.342 335.056 38.4383 334.844 38.4984C335.074 38.5341 335.294 38.6187 335.489 38.7463C335.683 38.8739 335.848 39.0416 335.971 39.238C336.231 39.6736 336.364 40.1729 336.353 40.6793C336.347 40.9661 336.315 41.2518 336.258 41.5327C336.201 41.8529 336.063 42.1533 335.856 42.4051C335.634 42.6982 335.337 42.9273 334.997 43.0689C334.029 43.423 332.965 43.423 331.997 43.0689C331.663 42.9169 331.368 42.6897 331.138 42.4051C330.947 42.1437 330.81 41.8471 330.736 41.5327C330.678 41.2518 330.646 40.9661 330.641 40.6793C330.589 40.1854 330.675 39.6868 330.889 39.238ZM332.379 41.2483C332.395 41.4214 332.447 41.5893 332.532 41.7414C332.61 41.8755 332.722 41.9868 332.857 42.0638C333.01 42.1611 333.191 42.2076 333.373 42.1965C333.548 42.2049 333.722 42.1584 333.869 42.0638C334.005 41.9868 334.117 41.8755 334.194 41.7414C334.279 41.5893 334.331 41.4214 334.347 41.2483C334.368 41.0528 334.368 40.8558 334.347 40.6604C334.367 40.4585 334.367 40.2553 334.347 40.0535C334.328 39.887 334.276 39.7259 334.194 39.5794C334.117 39.4452 334.005 39.3339 333.869 39.257C333.72 39.1689 333.546 39.1291 333.373 39.1432C333.193 39.1264 333.013 39.1662 332.857 39.257C332.722 39.3339 332.61 39.4452 332.532 39.5794C332.45 39.7259 332.398 39.887 332.379 40.0535C332.36 40.2553 332.36 40.4585 332.379 40.6604C332.371 40.8571 332.384 41.0542 332.418 41.2483H332.379ZM332.723 37.6639C332.801 37.7588 332.901 37.834 333.014 37.8834C333.127 37.9328 333.25 37.9551 333.373 37.9484C333.493 37.9536 333.613 37.9305 333.722 37.8811C333.832 37.8317 333.928 37.7573 334.003 37.6639C334.191 37.3844 334.278 37.0505 334.252 36.7157C334.252 35.9002 333.946 35.5019 333.373 35.5019C332.8 35.5019 332.475 35.9002 332.475 36.7157C332.457 37.0497 332.543 37.3811 332.723 37.6639Z" fill="white"/>
<path d="M338.474 35.9006L338.283 37.9109C338.445 37.6858 338.671 37.5141 338.932 37.4178C339.248 37.2946 339.586 37.2365 339.926 37.2471C340.297 37.2413 340.665 37.3259 340.996 37.4937C341.263 37.6582 341.491 37.8782 341.664 38.1385C341.824 38.423 341.94 38.7299 342.008 39.0488C342.069 39.3932 342.101 39.7421 342.104 40.0919C342.112 40.538 342.067 40.9836 341.97 41.4194C341.902 41.7949 341.752 42.151 341.531 42.4625C341.307 42.7578 341.002 42.9819 340.652 43.1073C340.2 43.2736 339.72 43.3509 339.238 43.3348C338.775 43.3515 338.313 43.2741 337.882 43.1073C337.561 42.9852 337.283 42.7746 337.079 42.5004C336.891 42.2684 336.76 41.9955 336.697 41.7039C336.639 41.4421 336.607 41.1753 336.602 40.9073V40.6608H338.34C338.34 40.8125 338.34 40.9642 338.34 41.1349C338.364 41.2981 338.409 41.4574 338.474 41.609C338.529 41.7506 338.621 41.875 338.741 41.9694C338.871 42.0733 339.034 42.1272 339.2 42.1211C339.367 42.1433 339.536 42.1176 339.688 42.047C339.841 41.9764 339.97 41.8639 340.06 41.7228C340.252 41.3212 340.338 40.8771 340.308 40.4332C340.331 40.1239 340.331 39.8133 340.308 39.5039C340.3 39.303 340.241 39.1073 340.136 38.935C340.076 38.7992 339.967 38.6909 339.83 38.6316C339.667 38.5655 339.491 38.5332 339.314 38.5367C339.205 38.529 339.095 38.5454 338.993 38.5848C338.89 38.6241 338.798 38.6854 338.722 38.7643C338.57 38.9258 338.476 39.1324 338.455 39.3522H336.831L337.156 34.5352H341.817V35.9386L338.474 35.9006Z" fill="white"/>
<path d="M348.236 35.8816C347.85 36.4035 347.517 36.9626 347.243 37.5505C346.946 38.1651 346.691 38.7987 346.479 39.447C346.067 40.6814 345.773 41.9512 345.6 43.24H343.689C343.751 42.6721 343.846 42.1085 343.976 41.5521C344.119 40.9398 344.304 40.3379 344.53 39.7504C344.746 39.098 345.014 38.4638 345.332 37.8539C345.661 37.1912 346.044 36.5569 346.479 35.9575H342.658V34.4023H348.16L348.236 35.8816Z" fill="white"/>
<path d="M64.3056 34.4023H65.7002C65.8245 34.3944 65.949 34.4122 66.066 34.4547C66.183 34.4971 66.2897 34.5632 66.3796 34.6488C66.4694 34.7344 66.5403 34.8377 66.5878 34.9519C66.6353 35.0662 66.6583 35.1891 66.6554 35.3126C66.6617 35.4388 66.6403 35.5648 66.5928 35.6819C66.5452 35.7991 66.4726 35.9046 66.38 35.9911C66.2873 36.0777 66.1769 36.1432 66.0562 36.1833C65.9355 36.2233 65.8075 36.2368 65.6811 36.223H64.3056V34.4023ZM63.9999 34.1368V37.9298H64.3056V36.4695H65.3563L66.6936 37.9298H67.0948L65.7193 36.4505C65.8824 36.4669 66.0472 36.4484 66.2025 36.3962C66.3578 36.3439 66.5001 36.2592 66.6196 36.1478C66.7391 36.0363 66.8331 35.9007 66.8953 35.7501C66.9576 35.5995 66.9865 35.4374 66.9802 35.2747C66.9805 35.1112 66.947 34.9494 66.8818 34.7993C66.8166 34.6491 66.7211 34.5139 66.6011 34.4019C66.4811 34.2899 66.3392 34.2035 66.1843 34.1481C66.0293 34.0928 65.8645 34.0695 65.7002 34.0799L63.9999 34.1368ZM60.3509 34.1368V37.9298H63.0447V37.6453H60.6566V36.1281H62.9109V35.8626H60.6566V34.3644H63.0447V34.1368H60.3509ZM56.7975 34.4213H58.1921C58.3997 34.4802 58.5823 34.6046 58.7124 34.7756C58.8424 34.9467 58.9127 35.1552 58.9127 35.3695C58.9127 35.5839 58.8424 35.7923 58.7124 35.9634C58.5823 36.1345 58.3997 36.2589 58.1921 36.3178H56.7975V34.4213ZM56.4918 34.1368V37.9298H56.7975V36.6022H58.1921C58.5023 36.5644 58.7877 36.4153 58.9947 36.183C59.2018 35.9507 59.3161 35.6513 59.3161 35.3411C59.3161 35.0309 59.2018 34.7315 58.9947 34.4992C58.7877 34.2669 58.5023 34.1177 58.1921 34.0799L56.4918 34.1368ZM55.1354 34.1368V36.5264C55.1354 36.8382 55.0106 37.1373 54.7885 37.3578C54.5664 37.5783 54.2651 37.7022 53.951 37.7022C53.6368 37.7022 53.3355 37.5783 53.1134 37.3578C52.8913 37.1373 52.7665 36.8382 52.7665 36.5264V34.1368H52.4608V36.5264C52.4371 36.7334 52.4577 36.9431 52.5213 37.1417C52.5848 37.3403 52.69 37.5233 52.8297 37.6787C52.9695 37.8342 53.1408 37.9585 53.3324 38.0437C53.524 38.1289 53.7315 38.1729 53.9414 38.1729C54.1513 38.1729 54.3588 38.1289 54.5504 38.0437C54.742 37.9585 54.9133 37.8342 55.0531 37.6787C55.1928 37.5233 55.298 37.3403 55.3615 37.1417C55.4251 36.9431 55.4457 36.7334 55.422 36.5264V34.1368H55.1354ZM48.5826 35.1609C48.5826 35.8626 49.3086 35.9954 50.0154 36.1281C50.7223 36.2609 51.2954 36.3936 51.2954 36.9626C51.2954 37.5315 50.5313 37.7781 50.0536 37.7781C49.7911 37.7868 49.5309 37.7265 49.2994 37.6033C49.0679 37.4801 48.8734 37.2983 48.7354 37.0764L48.468 37.2091C48.6324 37.4768 48.8664 37.6956 49.1454 37.8424C49.4245 37.9892 49.7382 38.0587 50.0536 38.0436C50.7032 38.0436 51.582 37.835 51.582 36.9626C51.582 36.0902 50.8178 35.9954 50.0728 35.8626C49.3277 35.7299 48.8883 35.635 48.8883 35.142C48.8883 34.6489 49.5951 34.3644 50.0536 34.3644C50.2791 34.3378 50.5076 34.3712 50.7157 34.4612C50.9239 34.5512 51.1042 34.6945 51.2381 34.8764L51.4674 34.7437C51.3098 34.5243 51.0948 34.3518 50.8456 34.2449C50.5965 34.1379 50.3226 34.1006 50.0536 34.1368C49.4232 34.1368 48.5635 34.3265 48.5826 35.142V35.1609ZM110.806 4.62754V20.4252L98.1395 4.66547H94.3186V30.0973H99.1521V13.029L112.64 30.2111H115.639V4.62754H110.806ZM71.4506 11.2083C71.4506 16.8978 76.284 18.2822 81.5187 18.9081C84.9193 19.2684 87.4601 20.2546 87.4601 22.701C87.4601 25.4699 84.5945 26.494 81.5569 26.494C80.0852 26.626 78.6079 26.3102 77.3214 25.5887C76.0349 24.8671 75.0001 23.7739 74.3545 22.4545L70.3235 24.5217C72.2339 29.187 76.2458 30.78 81.4805 30.78C87.2118 30.78 92.2554 28.3336 92.2554 22.6631C92.2554 16.5943 87.2691 15.2289 81.9199 14.5651C78.844 14.2048 76.1885 13.5789 76.1885 11.3601C76.1885 9.46357 77.9079 7.98431 81.4996 7.98431C82.6654 7.94332 83.8243 8.17819 84.8806 8.66953C85.937 9.16086 86.8604 9.89457 87.5748 10.8101L91.3957 8.91359C89.5043 4.91201 85.3587 3.79308 81.3849 3.79308C76.647 3.79308 71.4506 5.95507 71.4506 11.2083ZM49.3659 11.2083C49.3659 16.8978 54.1993 18.2822 59.4339 18.9081C62.8536 19.2684 65.3754 20.2546 65.3754 22.701C65.3754 25.4699 62.5097 26.494 59.4721 26.494C58.0005 26.626 56.5232 26.3102 55.2367 25.5887C53.9502 24.8671 52.9153 23.7739 52.2698 22.4545L48.2387 24.5217C50.1492 29.187 54.1611 30.78 59.3957 30.78C65.1271 30.78 70.1706 28.3336 70.1706 22.6631C70.1706 16.5943 65.1844 15.2289 59.8351 14.5651C56.7593 14.2048 54.1038 13.5789 54.1038 11.3601C54.1038 9.46357 55.8232 7.98431 59.4148 7.98431C60.5845 7.94119 61.7479 8.17294 62.8103 8.6607C63.8726 9.14845 64.8039 9.8784 65.5282 10.7911L69.3491 8.89462C67.4196 4.91201 63.293 3.79308 59.2238 3.79308C54.5623 3.79308 49.3659 5.95507 49.3659 11.2083ZM7.43163 8.38257C4.0326 11.7597 1.91836 16.2023 1.44917 20.9534C0.979977 25.7045 2.18486 30.4701 4.85852 34.4382C7.53218 38.4063 11.5092 41.3313 16.1118 42.7148C20.7145 44.0983 25.658 43.8547 30.1 42.0255C34.542 40.1963 38.2076 36.8947 40.4723 32.6833C42.7369 28.4719 43.4605 23.6113 42.5196 18.9296C41.5787 14.248 39.0317 10.0351 35.3125 7.00873C31.5932 3.98238 26.932 2.32988 22.1229 2.33279C19.3935 2.33134 16.6906 2.86503 14.1695 3.90321C11.6484 4.9414 9.35859 6.46365 7.43163 8.38257ZM4.42706e-08 22.9665C-0.000323792 17.8807 1.776 12.9521 5.02623 9.02076C8.27646 5.08941 12.7995 2.39857 17.8244 1.40684C22.8493 0.41511 28.0652 1.18386 32.5831 3.58209C37.101 5.98031 40.6414 9.85958 42.6008 14.5588C44.5602 19.258 44.8174 24.4862 43.3286 29.3526C41.8397 34.219 38.697 38.4222 34.436 41.246C30.175 44.0699 25.0594 45.3395 19.961 44.8385C14.8627 44.3375 10.0971 42.097 6.47641 38.4987C2.32972 34.3777 0.00037093 28.7913 4.42706e-08 22.9665H4.42706e-08ZM9.64775 32.961C9.24655 33.2644 8.40596 33.6437 9.05551 34.3834C9.88613 35.4088 10.8497 36.3207 11.9212 37.0953C12.1227 37.2545 12.3614 37.3606 12.6152 37.4037C12.8691 37.4468 13.1298 37.4255 13.3731 37.3419C19.1057 35.4267 25.3122 35.4267 31.0447 37.3419C31.2645 37.4414 31.5078 37.4782 31.7474 37.448C31.987 37.4179 32.2134 37.322 32.4011 37.1712C33.4383 36.3557 34.386 35.434 35.2286 34.4213C35.7062 33.8334 35.2286 33.5679 34.7128 33.1127C31.0825 30.3399 26.6069 28.8812 22.0274 28.9784H21.9128C17.4881 28.8891 13.1639 30.2932 9.64775 32.961ZM7.89014 14.2237C6.06152 16.2916 5.01462 18.9266 4.92895 21.6769C16.3916 14.1858 27.8543 14.1858 39.3169 21.6769C39.202 18.886 38.1456 16.2144 36.3176 14.091C34.451 12.2594 32.237 10.8135 29.8038 9.83693C27.3706 8.86035 24.7664 8.37247 22.1421 8.40154C19.4976 8.39448 16.8777 8.90507 14.4322 9.90411C11.9867 10.9031 9.76361 12.371 7.89014 14.2237ZM13.7361 19.7994C10.8059 20.7456 8.12398 22.3262 5.88417 24.4268C5.58964 24.6448 5.35488 24.9326 5.20135 25.2639C5.04782 25.5952 4.98044 25.9595 5.00536 26.3233C5.27524 27.482 5.61983 28.6222 6.037 29.737C6.51462 31.4059 7.12596 31.899 8.88357 30.7611C13.6899 27.4014 19.6126 26.0028 25.428 26.8543C29.1965 27.453 32.7811 28.8854 35.9164 31.0456C37.0626 31.8231 37.4256 31.5386 37.9223 30.4576C38.6139 29.1634 39.0668 27.7568 39.2596 26.3043C39.1924 25.6268 38.8961 24.9918 38.419 24.5027C36.3296 22.5186 33.834 21.005 31.102 20.0649C28.2175 19.151 25.2082 18.6841 22.1803 18.6805C19.3274 18.671 16.4866 19.0475 13.7361 19.7994ZM115.009 39.8263V42.9934L112.411 39.8263H112.277V43.6192H112.582V40.528L115.2 43.6192H115.314V39.8263H115.009ZM107.902 41.7228C107.88 41.4996 107.906 41.2743 107.98 41.0623C108.053 40.8503 108.172 40.6566 108.328 40.4944C108.484 40.3323 108.674 40.2056 108.884 40.123C109.094 40.0404 109.319 40.0039 109.545 40.0159C109.77 40.0073 109.995 40.0461 110.205 40.1296C110.414 40.2131 110.603 40.3395 110.76 40.5006C110.917 40.6617 111.038 40.8538 111.115 41.0644C111.192 41.275 111.223 41.4993 111.207 41.7228C111.232 41.953 111.208 42.1859 111.136 42.4063C111.064 42.6266 110.947 42.8296 110.791 43.0019C110.635 43.1742 110.444 43.3119 110.231 43.4063C110.018 43.5006 109.788 43.5493 109.554 43.5493C109.321 43.5493 109.09 43.5006 108.877 43.4063C108.664 43.3119 108.474 43.1742 108.318 43.0019C108.162 42.8296 108.044 42.6266 107.973 42.4063C107.901 42.1859 107.877 41.953 107.902 41.7228ZM107.596 41.7228C107.596 42.2257 107.798 42.7081 108.156 43.0638C108.514 43.4194 109 43.6192 109.507 43.6192C110.013 43.6192 110.499 43.4194 110.858 43.0638C111.216 42.7081 111.417 42.2257 111.417 41.7228C111.417 41.2198 111.216 40.7374 110.858 40.3817C110.499 40.0261 110.013 39.8263 109.507 39.8263C109 39.8263 108.514 40.0261 108.156 40.3817C107.798 40.7374 107.596 41.2198 107.596 41.7228ZM109.812 38.6694L109.392 39.3332H109.66L110.175 38.6505H109.812V38.6694ZM106.431 43.6192H106.737V39.8263H106.431V43.6192ZM102.266 41.7228C102.266 42.2257 102.467 42.7081 102.826 43.0638C103.184 43.4194 103.67 43.6192 104.177 43.6192C104.44 43.6234 104.702 43.5734 104.945 43.4722C105.189 43.371 105.408 43.2209 105.59 43.0313L105.38 42.8606C105.221 43.0147 105.033 43.136 104.826 43.2174C104.62 43.2987 104.399 43.3386 104.177 43.3348C103.754 43.2904 103.363 43.0924 103.079 42.779C102.795 42.4656 102.638 42.059 102.638 41.6374C102.638 41.2158 102.795 40.8092 103.079 40.4958C103.363 40.1824 103.754 39.9844 104.177 39.9401C104.4 39.9397 104.621 39.9831 104.828 40.0677C105.034 40.1523 105.222 40.2765 105.38 40.4331L105.59 40.2625C105.407 40.0763 105.186 39.9297 104.943 39.8318C104.7 39.734 104.439 39.6869 104.177 39.6935C103.914 39.6929 103.654 39.746 103.413 39.8495C103.172 39.953 102.955 40.1047 102.776 40.2951C102.597 40.4855 102.459 40.7105 102.371 40.9562C102.284 41.2018 102.248 41.4628 102.266 41.7228ZM100.241 40.0728L101.254 42.4813H99.1903L100.241 40.0728ZM100.069 39.8263L98.3497 43.6192H98.6553L99.0757 42.671H101.387L101.808 43.6192H102.132L100.394 39.8263H100.069ZM97.4327 39.8263V42.9934L94.9109 39.8263H94.7772V43.6192H95.0828V40.528L97.7001 43.6192H97.8148V39.8263H97.4327ZM90.7079 40.1107L91.7586 42.4434H89.7909L90.7079 40.1107ZM90.6315 39.8263L88.893 43.6192H89.2178L89.6381 42.671H91.9497L92.37 43.6192H92.6948L90.9563 39.8263H90.6315ZM86.1802 39.8263V43.6192H88.6637V43.4296H86.4858V39.8263H86.1802ZM81.1366 39.8263V43.6192H83.8685V43.3348H81.4231V41.9124H83.6966V41.7228H81.4231V40.2435H83.8112V39.8263H81.1366ZM77.4303 40.1107H78.4237C78.8595 40.1107 79.2774 40.2826 79.5855 40.5884C79.8936 40.8943 80.0667 41.3092 80.0667 41.7417C80.0667 42.1743 79.8936 42.5891 79.5855 42.895C79.2774 43.2009 78.8595 43.3727 78.4237 43.3727H77.4303V40.1107ZM77.1246 39.8263V43.6192H78.4237C78.9304 43.6192 79.4164 43.4194 79.7746 43.0638C80.1329 42.7081 80.3342 42.2257 80.3342 41.7228C80.3342 41.2198 80.1329 40.7374 79.7746 40.3817C79.4164 40.0261 78.9304 39.8263 78.4237 39.8263H77.1246ZM71.8709 40.8314C71.8709 41.5521 72.5969 41.6848 73.3038 41.8176C74.0106 41.9503 74.5646 42.0641 74.5646 42.652C74.5646 43.2399 73.8196 43.4486 73.342 43.4486C73.0816 43.4574 72.8233 43.3992 72.5923 43.2795C72.3613 43.1599 72.1654 42.9829 72.0238 42.7658L71.7563 42.8986C71.9176 43.1691 72.151 43.3902 72.4307 43.5375C72.7105 43.6847 73.0259 43.7524 73.342 43.733C73.9915 43.733 74.8703 43.5244 74.8703 42.652C74.8703 41.7797 74.087 41.6848 73.342 41.5521C72.5969 41.4193 72.1575 41.3055 72.1575 40.8314C72.1575 40.3573 72.8835 40.0349 73.342 40.0349C73.5663 40.0118 73.7928 40.049 73.9977 40.1424C74.2027 40.2358 74.3787 40.382 74.5073 40.5659L74.7557 40.4142C74.6012 40.1894 74.388 40.0106 74.139 39.897C73.8899 39.7834 73.6144 39.7393 73.342 39.7694C72.6924 39.8263 71.8518 40.0538 71.8709 40.8693V40.8314ZM67.496 41.7228C67.496 41.2852 67.6711 40.8655 67.9828 40.5561C68.2945 40.2466 68.7173 40.0728 69.1581 40.0728C69.5989 40.0728 70.0217 40.2466 70.3334 40.5561C70.6451 40.8655 70.8202 41.2852 70.8202 41.7228C70.8335 41.9455 70.8 42.1686 70.722 42.3779C70.6439 42.5871 70.5229 42.778 70.3667 42.9385C70.2104 43.0989 70.0224 43.2254 69.8143 43.31C69.6063 43.3945 69.3828 43.4352 69.1581 43.4296C68.9341 43.4324 68.712 43.3898 68.5052 43.3042C68.2985 43.2187 68.1116 43.0922 67.9559 42.9323C67.8003 42.7725 67.6792 42.5827 67.6001 42.3747C67.521 42.1667 67.4856 41.9448 67.496 41.7228ZM67.2094 41.7228C67.2094 42.2257 67.4107 42.7081 67.769 43.0638C68.1273 43.4194 68.6132 43.6192 69.1199 43.6192C69.6266 43.6192 70.1125 43.4194 70.4708 43.0638C70.829 42.7081 71.0303 42.2257 71.0303 41.7228C71.0303 41.2198 70.829 40.7374 70.4708 40.3817C70.1125 40.0261 69.6266 39.8263 69.1199 39.8263C68.6132 39.8263 68.1273 40.0261 67.769 40.3817C67.4107 40.7374 67.2094 41.2198 67.2094 41.7228ZM64.019 40.0728H65.4327C65.5571 40.0674 65.6812 40.0878 65.7973 40.1326C65.9133 40.1774 66.0187 40.2457 66.1067 40.333C66.1947 40.4204 66.2635 40.525 66.3086 40.6402C66.3537 40.7554 66.3743 40.8786 66.3688 41.0021C66.3786 41.1291 66.3596 41.2566 66.3132 41.3754C66.2668 41.4942 66.1943 41.6011 66.1008 41.6884C66.0074 41.7757 65.8955 41.8411 65.7733 41.8799C65.651 41.9186 65.5216 41.9298 65.3945 41.9124H64.019V40.0728ZM63.7324 39.8263V43.6192H64.019V42.1779H65.0888L66.4262 43.6192H66.8656L65.5091 42.1589C65.6715 42.1757 65.8355 42.1572 65.9899 42.1049C66.1443 42.0525 66.2854 41.9675 66.4035 41.8557C66.5216 41.7439 66.6138 41.6079 66.6738 41.4573C66.7338 41.3066 66.7601 41.1449 66.7509 40.9831C66.7539 40.8205 66.7229 40.6591 66.6598 40.509C66.5968 40.3589 66.503 40.2234 66.3845 40.1112C66.266 39.9989 66.1253 39.9122 65.9714 39.8566C65.8174 39.8011 65.6535 39.7778 65.49 39.7883L63.7324 39.8263ZM62.548 39.8263V42.2158C62.548 42.3703 62.5173 42.5232 62.4578 42.6658C62.3983 42.8085 62.311 42.9381 62.201 43.0473C62.091 43.1565 61.9605 43.2431 61.8168 43.3022C61.6731 43.3612 61.519 43.3917 61.3635 43.3917C61.2079 43.3917 61.0539 43.3612 60.9102 43.3022C60.7665 43.2431 60.6359 43.1565 60.5259 43.0473C60.4159 42.9381 60.3287 42.8085 60.2692 42.6658C60.2096 42.5232 60.179 42.3703 60.179 42.2158V39.8263H59.8733V42.2158C59.8496 42.4229 59.8702 42.6325 59.9338 42.8311C59.9974 43.0297 60.1025 43.2127 60.2423 43.3682C60.382 43.5236 60.5533 43.648 60.7449 43.7331C60.9365 43.8183 61.144 43.8623 61.3539 43.8623C61.5638 43.8623 61.7714 43.8183 61.9629 43.7331C62.1545 43.648 62.3258 43.5236 62.4656 43.3682C62.6054 43.2127 62.7105 43.0297 62.7741 42.8311C62.8376 42.6325 62.8582 42.4229 62.8345 42.2158V39.8263H62.548ZM55.5557 41.7228C55.5557 42.2257 55.757 42.7081 56.1153 43.0638C56.4736 43.4194 56.9595 43.6192 57.4662 43.6192C57.7412 43.6185 58.0132 43.5627 58.266 43.4552C58.5187 43.3476 58.747 43.1906 58.9372 42.9934V41.7228H57.3133V41.9693H58.6698V43.0503C58.345 43.3396 57.9216 43.4956 57.4853 43.4865C57.2601 43.5001 57.0345 43.4664 56.8232 43.3876C56.612 43.3088 56.4199 43.1867 56.2595 43.0292C56.099 42.8717 55.9738 42.6824 55.8921 42.4736C55.8103 42.2648 55.7738 42.0413 55.785 41.8176C55.7685 41.59 55.8008 41.3615 55.8799 41.1472C55.959 40.933 56.083 40.7378 56.2437 40.5747C56.4044 40.4115 56.5982 40.2841 56.8123 40.2009C57.0263 40.1176 57.2557 40.0805 57.4853 40.0918C57.9477 40.0913 58.3925 40.2679 58.7271 40.5849L58.899 40.3952C58.7154 40.2091 58.4951 40.0625 58.2518 39.9646C58.0086 39.8667 57.7477 39.8196 57.4853 39.8263C57.2328 39.8238 56.9823 39.871 56.7483 39.9652C56.5143 40.0593 56.3014 40.1986 56.122 40.375C55.9426 40.5513 55.8002 40.7613 55.703 40.9926C55.6058 41.2239 55.5557 41.4721 55.5557 41.7228ZM52.2889 39.8263V43.6192H55.0208V43.3348H52.5754V41.9124H54.8489V41.7228H52.5754V40.2435H54.9635V39.8263H52.2889ZM48.5826 40.8314C48.5826 41.5521 49.3086 41.6848 50.0154 41.8176C50.7223 41.9503 51.2954 42.0641 51.2954 42.652C51.2954 43.2399 50.5313 43.4486 50.0536 43.4486C49.7932 43.4574 49.535 43.3992 49.304 43.2795C49.073 43.1599 48.8771 42.9829 48.7354 42.7658L48.468 42.8986C48.6324 43.1663 48.8664 43.385 49.1454 43.5319C49.4245 43.6787 49.7382 43.7482 50.0536 43.733C50.7032 43.733 51.582 43.5244 51.582 42.652C51.582 41.7797 50.8178 41.6848 50.0728 41.5521C49.3277 41.4193 48.8883 41.3055 48.8883 40.8314C48.8883 40.3573 49.5951 40.0349 50.0536 40.0349C50.2807 40.0124 50.5097 40.0496 50.7176 40.1428C50.9255 40.236 51.105 40.3819 51.2381 40.5659L51.4674 40.4142C51.3061 40.1998 51.0899 40.0322 50.8413 39.9288C50.5927 39.8254 50.3207 39.79 50.0536 39.8263C49.4232 39.8263 48.5635 40.0538 48.5826 40.8693V40.8314ZM112.525 34.1368V37.9298H115.257V37.6453H112.812V36.1281H115.085V35.8626H112.812V34.3644H115.181V34.1368H112.525ZM108.704 34.4213H109.717C109.949 34.3965 110.183 34.4205 110.405 34.4916C110.627 34.5627 110.832 34.6795 111.005 34.8342C111.179 34.9889 111.318 35.1782 111.413 35.3897C111.508 35.6012 111.557 35.8302 111.557 36.0618C111.557 36.2933 111.508 36.5223 111.413 36.7338C111.318 36.9453 111.179 37.1346 111.005 37.2893C110.832 37.444 110.627 37.5608 110.405 37.6319C110.183 37.703 109.949 37.727 109.717 37.7022H108.704V34.4213ZM108.322 34.1368V37.9298H109.64C110.147 37.9298 110.633 37.73 110.991 37.3743C111.35 37.0187 111.551 36.5363 111.551 36.0333C111.551 35.5303 111.35 35.0479 110.991 34.6923C110.633 34.3366 110.147 34.1368 109.64 34.1368H108.322ZM104.005 34.4213L105.074 36.735H102.954L104.005 34.4213ZM103.833 34.1368L102.094 37.9298H102.419L102.839 36.9815H105.074L105.495 37.9298H105.82L104.081 34.1368H103.833ZM101.101 37.9298H101.387V34.1368H101.101V37.9298ZM96.7449 36.0333C96.7449 36.5363 96.9462 37.0187 97.3045 37.3743C97.6627 37.73 98.1487 37.9298 98.6553 37.9298C98.9177 37.9364 99.1787 37.8894 99.4219 37.7915C99.6651 37.6936 99.8854 37.547 100.069 37.3608L99.878 37.1712C99.5494 37.4853 99.1116 37.6618 98.6553 37.6643C98.233 37.6199 97.8422 37.422 97.5582 37.1086C97.2741 36.7952 97.1169 36.3885 97.1169 35.9669C97.1169 35.5454 97.2741 35.1387 97.5582 34.8253C97.8422 34.5119 98.233 34.3139 98.6553 34.2696C99.1093 34.2649 99.5474 34.4348 99.878 34.7437L100.069 34.573C99.8854 34.3869 99.6651 34.2403 99.4219 34.1424C99.1787 34.0445 98.9177 33.9974 98.6553 34.0041C98.3928 34.0034 98.1329 34.0565 97.892 34.16C97.651 34.2635 97.4342 34.4152 97.2549 34.6056C97.0756 34.796 96.9378 35.0211 96.8501 35.2667C96.7623 35.5124 96.7265 35.7733 96.7449 36.0333ZM95.5222 34.1368V37.3229L92.9431 34.1368H92.8094V37.9298H93.1151V34.7816L95.7324 37.9298H95.847V34.1368H95.5222ZM89.0267 34.1368V37.9298H91.7013V37.6453H89.3515V36.1281H91.7013V35.8626H89.3515V34.3644H91.7013V34.1368H89.0267ZM85.2058 34.4213H86.2184C86.4369 34.4079 86.6558 34.4401 86.861 34.5158C87.0663 34.5916 87.2532 34.7092 87.4098 34.8611C87.5664 35.013 87.6892 35.1958 87.7703 35.3977C87.8513 35.5996 87.8889 35.8161 87.8804 36.0333C87.897 36.2559 87.8657 36.4795 87.7885 36.6892C87.7114 36.8988 87.5902 37.0898 87.433 37.2495C87.2758 37.4091 87.0862 37.5337 86.8768 37.615C86.6674 37.6964 86.4429 37.7325 86.2184 37.7212H85.2058V34.4213ZM84.8619 34.1368V37.9298H86.161C86.6677 37.9298 87.1537 37.73 87.5119 37.3743C87.8702 37.0187 88.0715 36.5363 88.0715 36.0333C88.0715 35.5303 87.8702 35.0479 87.5119 34.6923C87.1537 34.3366 86.6677 34.1368 86.161 34.1368H84.8619ZM83.4864 34.1368V37.3229L80.8691 34.1368H80.7545V37.9298H81.0411V34.7816L83.6584 37.9298H83.773V34.1368H83.4864ZM76.9909 34.1368V37.9298H79.7228V37.6453H77.2775V36.1281H79.5509V35.8626H77.2775V34.3644H79.6464V34.1368H76.9909ZM73.17 34.1368V34.4023H74.5073V37.9298H74.813V34.3834H76.2076V34.1368H73.17ZM72.062 34.1368V37.3229L69.3682 34.1368H69.2345V37.9298H69.5402V34.7816L72.1384 37.9298H72.2721V34.1368H72.062ZM67.9354 37.9298H68.222V34.1368H67.9354V37.9298Z" fill="white"/>
<path d="M159.178 16.5563C158.792 16.7376 158.457 17.0113 158.204 17.3528C157.909 17.778 157.695 18.2538 157.574 18.7562C157.4 19.4441 157.323 20.1525 157.344 20.8613V22.7578C157.344 23.3968 157.421 24.0335 157.574 24.6543C157.693 25.1547 157.914 25.6257 158.223 26.0387C158.466 26.3944 158.803 26.6766 159.198 26.8542C159.588 27.0164 160.007 27.1 160.43 27.1C160.853 27.1 161.272 27.0164 161.662 26.8542C162.056 26.6766 162.393 26.3944 162.636 26.0387C162.932 25.6205 163.146 25.1509 163.267 24.6543C163.43 23.9904 163.507 23.3084 163.496 22.625V20.8613C163.509 20.1841 163.432 19.5082 163.267 18.851C163.146 18.3487 162.932 17.8729 162.636 17.4476C162.387 17.1021 162.051 16.8274 161.662 16.6511C161.297 16.451 160.893 16.3283 160.478 16.2908C160.049 16.2891 159.625 16.3797 159.236 16.5563H159.178ZM160.057 25.2611C159.916 25.1503 159.805 25.0071 159.732 24.8439C159.639 24.5915 159.569 24.3313 159.522 24.0664C159.5 23.6747 159.5 23.2822 159.522 22.8905V20.482C159.499 20.0904 159.499 19.6978 159.522 19.3062C159.566 19.0468 159.636 18.7925 159.732 18.5476C159.799 18.3808 159.911 18.2362 160.057 18.1304C160.18 18.0438 160.327 17.9973 160.478 17.9973C160.628 17.9973 160.775 18.0438 160.898 18.1304C161.044 18.2362 161.156 18.3808 161.223 18.5476C161.32 18.7908 161.385 19.046 161.414 19.3062C161.447 19.6974 161.447 20.0908 161.414 20.482V22.8905C161.436 23.2822 161.436 23.6747 161.414 24.0664C161.376 24.3332 161.306 24.5944 161.203 24.8439C161.144 25.0142 161.03 25.1606 160.879 25.2611C160.766 25.3529 160.623 25.4002 160.478 25.3939C160.307 25.4084 160.138 25.3612 160 25.2611H160.057ZM166.858 16.4804C166.517 16.6056 166.205 16.7993 165.941 17.0494C165.682 17.3154 165.48 17.6318 165.349 17.9786C165.205 18.3803 165.134 18.804 165.139 19.2303C165.133 19.705 165.245 20.1739 165.464 20.5958C165.682 20.9798 165.999 21.3002 166.381 21.5251C165.943 21.7645 165.579 22.1188 165.33 22.5492C165.076 23.0142 164.951 23.5377 164.967 24.0664C164.957 24.5132 165.035 24.9577 165.196 25.3749C165.333 25.7333 165.549 26.0571 165.827 26.3232C166.109 26.5769 166.441 26.7705 166.801 26.8921C167.195 27.024 167.608 27.0881 168.024 27.0818C168.433 27.0898 168.841 27.0256 169.227 26.8921C169.584 26.7744 169.91 26.5801 170.183 26.3232C170.461 26.0571 170.676 25.7333 170.813 25.3749C170.975 24.9577 171.052 24.5132 171.042 24.0664C171.058 23.5377 170.933 23.0142 170.679 22.5492C170.421 22.132 170.068 21.7811 169.648 21.5251C170.02 21.2944 170.329 20.975 170.546 20.5958C170.765 20.1739 170.876 19.705 170.87 19.2303C170.875 18.804 170.804 18.3803 170.66 17.9786C170.516 17.6352 170.301 17.3253 170.03 17.0683C169.774 16.8187 169.468 16.6249 169.132 16.4994C168.756 16.3766 168.362 16.3126 167.966 16.3097C167.571 16.3029 167.178 16.3606 166.801 16.4804H166.858ZM167.412 20.2734C167.261 19.9669 167.189 19.6281 167.202 19.2872C167.187 18.94 167.259 18.5945 167.412 18.2821C167.468 18.1746 167.553 18.0852 167.658 18.0246C167.763 17.9641 167.883 17.9349 168.005 17.9407C168.131 17.9353 168.256 17.9665 168.364 18.0305C168.473 18.0945 168.56 18.1885 168.616 18.3011C168.76 18.6092 168.826 18.9479 168.807 19.2872C168.826 19.6265 168.76 19.9653 168.616 20.2734C168.57 20.3915 168.488 20.4929 168.382 20.564C168.277 20.6351 168.152 20.6727 168.024 20.6717C167.89 20.6906 167.754 20.6679 167.635 20.6068C167.515 20.5456 167.417 20.449 167.355 20.3303L167.412 20.2734ZM167.279 24.9387C167.083 24.6131 166.989 24.2365 167.011 23.8577C166.992 23.4732 167.085 23.0915 167.279 22.7578C167.356 22.6364 167.464 22.5364 167.59 22.4671C167.717 22.3978 167.86 22.3615 168.005 22.3615C168.15 22.3615 168.292 22.3978 168.419 22.4671C168.546 22.5364 168.653 22.6364 168.731 22.7578C168.917 23.0934 169.004 23.4751 168.979 23.8577C169.007 24.2346 168.92 24.611 168.731 24.9387C168.662 25.0644 168.56 25.1685 168.435 25.2389C168.31 25.3094 168.167 25.3434 168.024 25.337C167.871 25.3585 167.716 25.338 167.574 25.2778C167.433 25.2176 167.311 25.12 167.221 24.9956L167.279 24.9387ZM174.233 16.5563C173.85 16.7432 173.517 17.0159 173.258 17.3528C172.963 17.778 172.749 18.2538 172.628 18.7562C172.472 19.4468 172.402 20.1537 172.418 20.8613V22.7578C172.418 23.3968 172.494 24.0335 172.647 24.6543C172.768 25.1509 172.982 25.6205 173.278 26.0387C173.52 26.3944 173.858 26.6766 174.252 26.8542C174.643 27.0249 175.067 27.109 175.494 27.1007C175.921 27.1072 176.344 27.0232 176.735 26.8542C177.123 26.6662 177.458 26.3861 177.71 26.0387C178.005 25.6205 178.219 25.1509 178.34 24.6543C178.487 23.9879 178.558 23.3072 178.55 22.625V20.8613C178.563 20.1841 178.486 19.5082 178.321 18.851C178.205 18.3142 177.985 17.8052 177.672 17.3528C177.423 17.0072 177.087 16.7326 176.697 16.5563C176.307 16.3797 175.884 16.2891 175.455 16.2908C175.034 16.2935 174.617 16.384 174.233 16.5563ZM175.054 25.2611C174.914 25.1542 174.808 25.0093 174.749 24.8439C174.638 24.5974 174.567 24.3349 174.538 24.0664C174.505 23.6751 174.505 23.2818 174.538 22.8905V20.482C174.505 20.0908 174.505 19.6974 174.538 19.3062C174.568 19.046 174.632 18.7908 174.729 18.5476C174.796 18.3808 174.908 18.2362 175.054 18.1304C175.177 18.0438 175.324 17.9973 175.475 17.9973C175.625 17.9973 175.772 18.0438 175.895 18.1304C176.041 18.2362 176.153 18.3808 176.22 18.5476C176.316 18.7925 176.386 19.0468 176.43 19.3062C176.453 19.6978 176.453 20.0904 176.43 20.482V22.8905C176.452 23.2822 176.452 23.6747 176.43 24.0664C176.392 24.3332 176.322 24.5944 176.22 24.8439C176.16 25.0093 176.054 25.1542 175.914 25.2611C175.792 25.35 175.645 25.3967 175.494 25.3939C175.337 25.3967 175.183 25.3502 175.054 25.2611ZM181.76 16.5563C181.377 16.7432 181.044 17.0159 180.786 17.3528C180.488 17.7746 180.28 18.2521 180.174 18.7562C180.001 19.4441 179.924 20.1525 179.945 20.8613V22.7578C179.945 23.3968 180.022 24.0335 180.174 24.6543C180.295 25.1509 180.509 25.6205 180.805 26.0387C181.048 26.3944 181.385 26.6766 181.779 26.8542C182.17 27.0249 182.594 27.109 183.021 27.1007C183.448 27.1072 183.871 27.0232 184.263 26.8542C184.65 26.6662 184.985 26.3861 185.237 26.0387C185.533 25.6205 185.746 25.1509 185.867 24.6543C186.024 23.9895 186.095 23.3076 186.077 22.625V20.8613C186.09 20.1841 186.013 19.5082 185.848 18.851C185.768 18.3223 185.586 17.8138 185.313 17.3528C185.064 17.0072 184.728 16.7326 184.339 16.5563C183.949 16.3797 183.526 16.2891 183.097 16.2908C182.637 16.2768 182.179 16.3677 181.76 16.5563ZM182.6 25.2611C182.45 25.1606 182.336 25.0142 182.276 24.8439C182.165 24.5974 182.094 24.3349 182.066 24.0664C182.033 23.6751 182.033 23.2818 182.066 22.8905V20.482C182.032 20.0908 182.032 19.6974 182.066 19.3062C182.095 19.046 182.159 18.7908 182.257 18.5476C182.323 18.3808 182.436 18.2362 182.581 18.1304C182.703 18.0415 182.851 17.9949 183.002 17.9976C183.153 17.9918 183.302 18.0388 183.422 18.1304C183.568 18.2362 183.68 18.3808 183.747 18.5476C183.852 18.7896 183.923 19.0449 183.957 19.3062C183.98 19.6978 183.98 20.0904 183.957 20.482V22.8905C183.979 23.2822 183.979 23.6747 183.957 24.0664C183.92 24.3332 183.849 24.5944 183.747 24.8439C183.688 25.0093 183.581 25.1542 183.441 25.2611C183.319 25.35 183.172 25.3967 183.021 25.3939C182.869 25.3997 182.721 25.3527 182.6 25.2611ZM195.534 16.3287C194.874 16.3209 194.22 16.4636 193.624 16.7459C193.055 17.0299 192.558 17.4384 192.172 17.9407C191.757 18.5102 191.459 19.1544 191.293 19.8372C191.078 20.5961 190.975 21.3818 190.987 22.1699V22.9854C190.981 23.5561 191.058 24.1247 191.217 24.6732C191.328 25.1555 191.543 25.6082 191.847 26.0008C192.101 26.3634 192.443 26.6568 192.84 26.8542C193.248 27.0612 193.701 27.1654 194.159 27.1576C194.6 27.1618 195.036 27.0712 195.439 26.8921C195.814 26.7107 196.146 26.4521 196.413 26.1335C196.694 25.7901 196.907 25.3978 197.043 24.9767C197.184 24.5155 197.255 24.0362 197.254 23.5543C197.253 23.095 197.202 22.6371 197.101 22.1888C197.005 21.7862 196.844 21.4019 196.623 21.051C196.428 20.734 196.159 20.4675 195.84 20.2734C195.504 20.0795 195.12 19.9811 194.732 19.9889C194.409 19.9819 194.09 20.0467 193.796 20.1786C193.525 20.3121 193.284 20.4993 193.089 20.7286C193.124 20.3571 193.214 19.9929 193.356 19.6476C193.484 19.3463 193.665 19.0702 193.891 18.8321C194.118 18.6061 194.392 18.4314 194.694 18.32C195.037 18.2003 195.399 18.1425 195.763 18.1493V16.3287H195.534ZM193.28 24.8439C193.058 24.3231 192.96 23.7585 192.993 23.194V22.4544C193.067 22.2234 193.199 22.0147 193.375 21.8475C193.557 21.6809 193.797 21.5923 194.044 21.6009C194.201 21.5981 194.355 21.6446 194.483 21.7337C194.637 21.8327 194.763 21.97 194.846 22.1319C194.952 22.3222 195.029 22.5266 195.076 22.7388C195.106 22.9908 195.106 23.2454 195.076 23.4974C195.107 23.7493 195.107 24.0041 195.076 24.256C195.041 24.4687 194.97 24.6739 194.866 24.8629C194.782 25.0193 194.665 25.1553 194.522 25.2611C194.387 25.3529 194.226 25.3994 194.063 25.3939C193.893 25.3874 193.728 25.332 193.589 25.2344C193.45 25.1367 193.343 25.0011 193.28 24.8439ZM203.061 16.3287C202.401 16.3209 201.747 16.4636 201.151 16.7459C200.582 17.0299 200.086 17.4384 199.699 17.9407C199.285 18.5102 198.986 19.1544 198.82 19.8372C198.605 20.5961 198.503 21.3818 198.514 22.1699V22.9854C198.491 23.547 198.549 24.109 198.686 24.6543C198.798 25.1365 199.013 25.5893 199.317 25.9818C199.571 26.3444 199.912 26.6378 200.31 26.8352C200.718 27.0423 201.171 27.1465 201.629 27.1387C202.061 27.1493 202.49 27.0626 202.883 26.8853C203.277 26.7079 203.625 26.4445 203.902 26.1146C204.169 25.7655 204.376 25.3745 204.513 24.9577C204.654 24.4966 204.725 24.0172 204.723 23.5353C204.732 23.0755 204.681 22.6165 204.571 22.1699C204.482 21.7651 204.32 21.3796 204.093 21.032C203.903 20.7106 203.633 20.4429 203.31 20.2544C202.974 20.0606 202.59 19.9622 202.202 19.97C201.879 19.963 201.559 20.0278 201.266 20.1596C200.998 20.298 200.758 20.4845 200.559 20.7096C200.594 20.3382 200.684 19.9739 200.826 19.6286C200.961 19.3265 201.149 19.0504 201.38 18.8131C201.594 18.5805 201.864 18.4045 202.163 18.3011C202.507 18.1814 202.869 18.1236 203.233 18.1304H203.329V16.3287H203.061ZM200.807 24.8439C200.585 24.3231 200.487 23.7585 200.52 23.194V22.4544C200.594 22.2234 200.726 22.0147 200.903 21.8475C201.084 21.6809 201.324 21.5923 201.571 21.6009C201.734 21.6002 201.893 21.6464 202.03 21.7337C202.173 21.8395 202.29 21.9755 202.374 22.1319C202.479 22.3222 202.556 22.5266 202.603 22.7388C202.633 22.9908 202.633 23.2454 202.603 23.4974C202.634 23.7493 202.634 24.0041 202.603 24.256C202.568 24.4687 202.497 24.6739 202.393 24.8629C202.309 25.0193 202.192 25.1553 202.049 25.2611C201.914 25.3529 201.753 25.3994 201.59 25.3939C201.421 25.383 201.259 25.3258 201.12 25.2287C200.982 25.1316 200.874 24.9985 200.807 24.8439ZM210.588 16.3287C209.928 16.3209 209.274 16.4636 208.678 16.7459C208.111 17.0253 207.62 17.4349 207.245 17.9407C206.817 18.5044 206.511 19.1502 206.347 19.8372C206.133 20.5961 206.03 21.3818 206.042 22.1699V22.9854C206.035 23.5561 206.112 24.1247 206.271 24.6732C206.392 25.1523 206.606 25.6032 206.901 26.0008C207.155 26.3634 207.497 26.6568 207.895 26.8542C208.302 27.0612 208.755 27.1654 209.213 27.1576C209.66 27.1616 210.103 27.0711 210.512 26.8921C210.887 26.7107 211.22 26.4521 211.486 26.1335C211.754 25.7845 211.96 25.3935 212.098 24.9767C212.248 24.5176 212.319 24.0368 212.308 23.5543C212.317 23.0945 212.266 22.6355 212.155 22.1888C212.066 21.784 211.905 21.3985 211.677 21.051C211.488 20.7296 211.218 20.4619 210.894 20.2734C210.558 20.0795 210.175 19.9811 209.786 19.9889C209.47 19.9801 209.156 20.0451 208.869 20.1786C208.592 20.3117 208.345 20.4988 208.143 20.7286C208.178 20.3571 208.268 19.9929 208.411 19.6476C208.545 19.3455 208.733 19.0694 208.965 18.8321C209.179 18.5994 209.448 18.4234 209.748 18.32C210.091 18.2003 210.454 18.1425 210.818 18.1493H210.913V16.3287H210.588ZM208.334 24.8439C208.112 24.3231 208.014 23.7585 208.048 23.194V22.4544C208.122 22.2234 208.253 22.0147 208.43 21.8475C208.611 21.6809 208.851 21.5923 209.098 21.6009C209.261 21.6002 209.42 21.6464 209.557 21.7337C209.7 21.8395 209.817 21.9755 209.901 22.1319C210.015 22.3271 210.098 22.538 210.149 22.7578C210.179 23.0098 210.179 23.2644 210.149 23.5164C210.18 23.7683 210.18 24.0231 210.149 24.275C210.114 24.4876 210.043 24.6929 209.939 24.8819C209.855 25.0383 209.738 25.1743 209.595 25.2801C209.46 25.3719 209.3 25.4184 209.137 25.4129C208.962 25.4037 208.794 25.3454 208.652 25.2446C208.51 25.1438 208.399 25.0048 208.334 24.8439ZM218.823 16.4804C218.487 16.606 218.181 16.7998 217.925 17.0494C217.652 17.3054 217.449 17.6248 217.332 17.9786C217.179 18.3778 217.108 18.8034 217.122 19.2303C217.107 19.706 217.219 20.1771 217.447 20.5958C217.658 20.979 217.968 21.2997 218.345 21.5251C217.912 21.7649 217.555 22.1195 217.313 22.5492C217.053 23.0124 216.921 23.536 216.931 24.0664C216.921 24.5132 216.999 24.9577 217.16 25.3749C217.311 25.731 217.532 26.0535 217.81 26.3232C218.086 26.5847 218.42 26.7793 218.784 26.8921C219.171 27.024 219.579 27.0882 219.988 27.0818C220.403 27.0881 220.817 27.024 221.211 26.8921C221.567 26.7744 221.893 26.5801 222.166 26.3232C222.444 26.0571 222.659 25.7333 222.796 25.3749C222.958 24.9577 223.036 24.5132 223.025 24.0664C223.036 23.536 222.904 23.0124 222.643 22.5492C222.396 22.1236 222.041 21.7703 221.612 21.5251C221.989 21.2997 222.299 20.979 222.51 20.5958C222.743 20.1786 222.862 19.7076 222.854 19.2303C222.862 18.8021 222.784 18.3765 222.624 17.9786C222.507 17.6295 222.311 17.3116 222.051 17.0494C221.791 16.7957 221.478 16.6015 221.134 16.4804C220.765 16.3562 220.378 16.2921 219.988 16.2908C219.592 16.2937 219.199 16.3576 218.823 16.4804ZM219.396 20.2734C219.237 19.9695 219.165 19.6287 219.185 19.2872C219.161 18.9394 219.234 18.5916 219.396 18.2821C219.449 18.173 219.534 18.0822 219.639 18.0214C219.745 17.9605 219.866 17.9324 219.988 17.9407C220.114 17.9353 220.239 17.9665 220.348 18.0305C220.456 18.0945 220.544 18.1885 220.599 18.3011C220.744 18.6092 220.809 18.9479 220.79 19.2872C220.809 19.6265 220.744 19.9653 220.599 20.2734C220.552 20.3946 220.467 20.4981 220.358 20.5695C220.248 20.6409 220.119 20.6766 219.988 20.6717C219.866 20.6799 219.745 20.6519 219.639 20.591C219.534 20.5302 219.449 20.4394 219.396 20.3303V20.2734ZM219.262 24.9387C219.066 24.6131 218.973 24.2365 218.994 23.8577C218.976 23.4732 219.068 23.0915 219.262 22.7578C219.336 22.6334 219.443 22.531 219.571 22.461C219.698 22.391 219.842 22.356 219.988 22.3595C220.131 22.3574 220.272 22.3932 220.396 22.4632C220.52 22.5333 220.623 22.6349 220.695 22.7578C220.888 23.0915 220.981 23.4732 220.962 23.8577C220.975 24.2334 220.89 24.606 220.714 24.9387C220.641 25.0645 220.535 25.168 220.407 25.2382C220.279 25.3084 220.134 25.3426 219.988 25.337C219.848 25.3466 219.707 25.3202 219.58 25.2604C219.453 25.2006 219.343 25.1095 219.262 24.9956V24.9387ZM227.802 16.3856L224.21 23.2888V24.6163H227.706V26.8921H229.769V24.6543H230.667V22.9664H229.769V16.4425L227.802 16.3856ZM227.802 19.4958V19.401V22.9285H226.216L227.802 19.4958ZM233.839 16.4994C233.449 16.6757 233.113 16.9503 232.864 17.2959C232.569 17.7211 232.355 18.1969 232.234 18.6993C232.069 19.3565 231.992 20.0324 232.005 20.7096V22.6061C231.993 23.2894 232.07 23.9714 232.234 24.6353C232.354 25.1357 232.575 25.6068 232.883 26.0197C233.126 26.3755 233.463 26.6577 233.858 26.8352C234.248 26.9974 234.667 27.081 235.09 27.081C235.513 27.081 235.932 26.9974 236.322 26.8352C236.716 26.6577 237.054 26.3755 237.297 26.0197C237.592 25.6015 237.806 25.1319 237.927 24.6353C238.091 23.9714 238.168 23.2894 238.156 22.6061V20.8613C238.169 20.1841 238.092 19.5082 237.927 18.851C237.806 18.3487 237.592 17.8729 237.297 17.4476C237.048 17.1021 236.712 16.8274 236.322 16.6511C235.932 16.4762 235.509 16.3857 235.08 16.3856C234.646 16.3483 234.209 16.4066 233.8 16.5563L233.839 16.4994ZM234.66 25.2043C234.519 25.0934 234.408 24.9502 234.335 24.787C234.242 24.5346 234.172 24.2744 234.125 24.0095C234.102 23.6179 234.102 23.2252 234.125 22.8336V20.482C234.101 20.0904 234.101 19.6978 234.125 19.3062C234.169 19.0468 234.239 18.7925 234.335 18.5476C234.395 18.3773 234.509 18.2309 234.66 18.1304C234.78 18.0388 234.929 17.9918 235.08 17.9976C235.231 17.9949 235.379 18.0415 235.501 18.1304C235.641 18.2373 235.747 18.3822 235.806 18.5476C235.92 18.7864 235.991 19.0431 236.017 19.3062C236.05 19.6974 236.05 20.0908 236.017 20.482V22.8905C236.039 23.2822 236.039 23.6747 236.017 24.0664C235.97 24.3313 235.9 24.5915 235.806 24.8439C235.746 25.0142 235.632 25.1606 235.482 25.2611C235.363 25.3558 235.213 25.4031 235.061 25.3939C234.904 25.4009 234.749 25.3541 234.622 25.2611L234.66 25.2043ZM241.366 16.4994C240.976 16.6757 240.64 16.9503 240.391 17.2959C240.096 17.7211 239.882 18.1969 239.761 18.6993C239.596 19.3565 239.519 20.0324 239.532 20.7096V22.6061C239.52 23.2894 239.597 23.9714 239.761 24.6353C239.881 25.1357 240.102 25.6068 240.411 26.0197C240.653 26.3755 240.991 26.6577 241.385 26.8352C241.775 26.9974 242.194 27.081 242.617 27.081C243.04 27.081 243.459 26.9974 243.849 26.8352C244.244 26.6577 244.581 26.3755 244.824 26.0197C245.119 25.6015 245.333 25.1319 245.454 24.6353C245.618 23.9714 245.695 23.2894 245.683 22.6061V20.8613C245.696 20.1841 245.619 19.5082 245.454 18.851C245.333 18.3487 245.119 17.8729 244.824 17.4476C244.575 17.1021 244.239 16.8274 243.849 16.6511C243.459 16.4762 243.036 16.3857 242.608 16.3856C242.173 16.3483 241.736 16.4066 241.328 16.5563L241.366 16.4994ZM242.187 25.2043C242.047 25.0934 241.935 24.9502 241.862 24.787C241.767 24.5364 241.703 24.2754 241.671 24.0095C241.638 23.6182 241.638 23.2249 241.671 22.8336V20.482C241.638 20.0908 241.638 19.6974 241.671 19.3062C241.701 19.046 241.765 18.7908 241.862 18.5476C241.929 18.3808 242.041 18.2362 242.187 18.1304C242.307 18.0388 242.456 17.9918 242.608 17.9976C242.759 17.9949 242.906 18.0415 243.028 18.1304C243.169 18.2412 243.28 18.3844 243.353 18.5476C243.45 18.7908 243.515 19.046 243.544 19.3062C243.577 19.6974 243.577 20.0908 243.544 20.482V22.8905C243.566 23.2822 243.566 23.6747 243.544 24.0664C243.506 24.3332 243.436 24.5944 243.334 24.8439C243.274 25.0142 243.16 25.1606 243.009 25.2611C242.896 25.3529 242.753 25.4002 242.608 25.3939C242.444 25.4038 242.282 25.3569 242.149 25.2611L242.187 25.2043ZM261.101 19.0786L260.394 23.4595L259.343 19.0786H257.91L256.859 23.4785L256.172 19.0786H254.261L255.885 26.8921H257.605L258.713 22.3785L259.84 26.8921H261.54L263.164 19.0786H261.101ZM270.519 19.0786L269.812 23.4595L268.781 19.0786H267.31L266.259 23.4785L265.552 19.1355H263.642L265.265 26.949H266.985L268.093 22.4354L269.22 26.949H270.92L272.544 19.1355L270.519 19.0786ZM279.938 19.0786L279.231 23.4595L278.18 19.0786H276.728L275.677 23.4785L274.99 19.0786H273.079L274.703 26.8921H276.422L277.53 22.3785L278.658 26.8921H280.358L281.982 19.0786H279.938ZM282.899 24.7681C282.754 24.8204 282.624 24.9047 282.517 25.0146C282.415 25.1167 282.336 25.2397 282.287 25.3749C282.226 25.5125 282.194 25.6608 282.192 25.8111C282.196 25.9673 282.228 26.1214 282.287 26.2663C282.341 26.3936 282.419 26.5094 282.517 26.6076C282.63 26.7051 282.759 26.7821 282.899 26.8352C283.057 26.8975 283.225 26.9296 283.396 26.9301C283.559 26.9296 283.722 26.8973 283.873 26.8352C284.019 26.7824 284.154 26.7054 284.274 26.6076C284.372 26.5094 284.45 26.3936 284.504 26.2663C284.53 26.1157 284.53 25.9617 284.504 25.8111C284.532 25.6671 284.532 25.5189 284.504 25.3749C284.455 25.2397 284.376 25.1167 284.274 25.0146C284.16 24.9043 284.023 24.8201 283.873 24.7681C283.715 24.7379 283.553 24.7379 283.396 24.7681C283.213 24.7635 283.031 24.7958 282.861 24.8629L282.899 24.7681ZM287.828 19.0786C287.516 19.2035 287.226 19.3763 286.968 19.5907C286.742 19.7993 286.56 20.0508 286.433 20.3303C286.319 20.627 286.261 20.942 286.261 21.2596C286.253 21.5436 286.298 21.8266 286.395 22.094C286.494 22.3317 286.644 22.5452 286.834 22.7199C287.04 22.9202 287.271 23.0924 287.522 23.2319C287.809 23.3836 288.114 23.5353 288.477 23.6871L289.108 23.9715C289.256 24.0469 289.397 24.1358 289.528 24.237C289.625 24.3042 289.709 24.3877 289.776 24.4836C289.798 24.5772 289.798 24.6745 289.776 24.7681C289.776 25.2422 289.49 25.5077 288.936 25.5077C288.803 25.5274 288.668 25.5274 288.535 25.5077C288.41 25.478 288.296 25.417 288.202 25.3306C288.108 25.2443 288.039 25.1354 288 25.0146C287.966 24.8392 287.966 24.659 288 24.4836H286.089C286.096 24.8084 286.16 25.1295 286.28 25.4318C286.418 25.7326 286.605 26.0083 286.834 26.2473C287.105 26.5011 287.423 26.7007 287.77 26.8352C288.173 26.9875 288.601 27.0584 289.031 27.0438C289.431 27.045 289.829 26.994 290.216 26.8921C290.536 26.7767 290.838 26.6171 291.114 26.418C291.363 26.2169 291.565 25.9646 291.706 25.6784C291.84 25.3805 291.906 25.0564 291.897 24.7301C291.905 24.4399 291.86 24.1507 291.763 23.8767C291.669 23.6356 291.526 23.4161 291.343 23.2319C291.137 23.0107 290.891 22.8305 290.617 22.7009C290.298 22.5123 289.958 22.3597 289.604 22.2457L288.974 21.9613C288.831 21.8959 288.696 21.813 288.573 21.7147C288.478 21.6593 288.399 21.581 288.344 21.4871C288.324 21.3997 288.324 21.3091 288.344 21.2216C288.338 21.1197 288.354 21.0179 288.391 20.9224C288.427 20.8269 288.483 20.74 288.554 20.6669C288.626 20.5939 288.712 20.5364 288.808 20.4981C288.903 20.4597 289.005 20.4413 289.108 20.4441C289.224 20.4332 289.341 20.4519 289.448 20.4983C289.555 20.5448 289.648 20.6175 289.719 20.7096C289.846 20.9212 289.906 21.1656 289.891 21.4113H291.954C291.963 21.0666 291.898 20.7241 291.763 20.4061C291.635 20.1068 291.439 19.8408 291.19 19.6286C290.928 19.4053 290.622 19.2375 290.292 19.1355C289.909 19.0172 289.509 18.9596 289.108 18.9648C288.659 18.9524 288.212 19.0232 287.79 19.1734L287.828 19.0786ZM294.591 19.0786C294.275 19.1948 293.983 19.3684 293.731 19.5907C293.499 19.7942 293.316 20.047 293.196 20.3303C293.076 20.6259 293.011 20.9408 293.005 21.2596C293.002 21.5448 293.054 21.828 293.158 22.094C293.257 22.327 293.4 22.5394 293.578 22.7199C293.79 22.9202 294.028 23.0923 294.285 23.2319C294.594 23.402 294.913 23.554 295.24 23.6871L295.871 23.9715C296.019 24.0469 296.16 24.1358 296.291 24.237C296.387 24.299 296.466 24.3838 296.52 24.4836C296.551 24.576 296.551 24.6757 296.52 24.7681C296.52 25.2422 296.253 25.5077 295.699 25.5077C295.566 25.5289 295.43 25.5289 295.298 25.5077C295.178 25.4742 295.068 25.416 294.973 25.337C294.877 25.2482 294.805 25.1375 294.763 25.0146C294.705 24.843 294.673 24.6642 294.667 24.4836H292.757C292.754 24.8094 292.819 25.1323 292.948 25.4318C293.078 25.7364 293.266 26.0133 293.502 26.2473C293.766 26.5009 294.077 26.7007 294.419 26.8352C294.828 26.9871 295.262 27.0579 295.699 27.0438C296.099 27.0437 296.497 26.9927 296.883 26.8921C297.203 26.7767 297.506 26.6171 297.781 26.418C298.024 26.2158 298.22 25.9634 298.354 25.6784C298.495 25.382 298.567 25.0579 298.564 24.7301C298.563 24.4406 298.518 24.1529 298.431 23.8767C298.336 23.6356 298.193 23.4161 298.01 23.2319C297.801 23.0151 297.555 22.8355 297.284 22.7009C296.963 22.516 296.624 22.3635 296.272 22.2457L295.641 21.9613C295.498 21.8959 295.363 21.813 295.24 21.7147C295.146 21.6593 295.067 21.581 295.011 21.4871C294.983 21.4008 294.983 21.308 295.011 21.2216C295.003 21.1207 295.016 21.0192 295.05 20.9238C295.084 20.8283 295.138 20.7411 295.209 20.6677C295.279 20.5944 295.364 20.5365 295.458 20.498C295.553 20.4595 295.654 20.4411 295.756 20.4441C295.875 20.4334 295.995 20.4521 296.105 20.4984C296.215 20.5447 296.312 20.6173 296.387 20.7096C296.513 20.9212 296.573 21.1656 296.558 21.4113H298.622C298.621 21.0674 298.556 20.7266 298.431 20.4061C298.302 20.1068 298.106 19.8408 297.858 19.6286C297.592 19.4094 297.288 19.2421 296.96 19.1355C296.576 19.0172 296.177 18.9596 295.775 18.9648C295.358 18.9623 294.944 19.0329 294.552 19.1734L294.591 19.0786ZM302.615 19.0786C302.299 19.2359 302.029 19.471 301.831 19.7613V18.9838H299.921V26.7973H301.85V21.1078C301.935 20.9413 302.06 20.7981 302.213 20.6906C302.363 20.584 302.545 20.5306 302.729 20.5389C302.862 20.5176 302.998 20.5176 303.13 20.5389C303.235 20.5775 303.327 20.643 303.398 20.7286C303.481 20.8487 303.54 20.9841 303.57 21.1268C303.592 21.3348 303.592 21.5446 303.57 21.7527V26.7214H305.671V21.9802C305.687 21.5076 305.635 21.0352 305.518 20.5768C305.441 20.2487 305.298 19.9393 305.098 19.6665C304.931 19.4338 304.699 19.2556 304.43 19.1545C304.164 19.0416 303.877 18.9897 303.589 19.0028C303.238 19.0001 302.892 19.078 302.576 19.2303L302.615 19.0786ZM308.078 24.7681C307.934 24.8204 307.803 24.9047 307.696 25.0146C307.588 25.1112 307.508 25.236 307.467 25.3749C307.438 25.5189 307.438 25.6671 307.467 25.8111C307.44 25.9617 307.44 26.1157 307.467 26.2663C307.514 26.3972 307.593 26.5146 307.696 26.6076C307.941 26.8153 308.253 26.9296 308.575 26.9301C308.739 26.9296 308.901 26.8973 309.053 26.8352C309.195 26.7868 309.325 26.7093 309.435 26.6076C309.544 26.5157 309.63 26.3985 309.683 26.2663C309.711 26.1158 309.711 25.9616 309.683 25.8111C309.712 25.6671 309.712 25.5189 309.683 25.3749C309.635 25.2346 309.549 25.1101 309.435 25.0146C309.332 24.9005 309.2 24.8155 309.053 24.7681C308.895 24.7379 308.733 24.7379 308.575 24.7681C308.392 24.7619 308.21 24.7942 308.04 24.8629L308.078 24.7681ZM311.899 19.8372C311.367 20.6945 311.119 21.6963 311.192 22.7009V23.2129C311.181 23.7627 311.245 24.3115 311.384 24.8439C311.474 25.2664 311.649 25.6663 311.899 26.0197C312.11 26.3278 312.391 26.5814 312.721 26.7594C313.075 26.9167 313.46 26.9944 313.848 26.9869C314.146 26.9964 314.442 26.9311 314.708 26.7973C314.972 26.6619 315.201 26.4671 315.376 26.2284V26.8542C315.402 27.0811 315.402 27.31 315.376 27.5369C315.326 27.7082 315.235 27.8646 315.109 27.9921C314.992 28.0938 314.855 28.1711 314.708 28.2197C314.524 28.2407 314.338 28.2407 314.154 28.2197C314.001 28.2379 313.847 28.2379 313.695 28.2197L313.256 28.0679C313.114 28.0144 312.979 27.9444 312.855 27.8593L312.511 27.5749L311.823 28.9972C311.967 29.1545 312.134 29.2889 312.32 29.3955C312.527 29.5094 312.745 29.6047 312.969 29.68C313.187 29.7546 313.411 29.8116 313.638 29.8506H314.249C314.702 29.8581 315.154 29.7941 315.587 29.661C315.959 29.5508 316.305 29.3633 316.599 29.111C316.895 28.8526 317.124 28.5274 317.268 28.1628C317.437 27.7207 317.521 27.2511 317.516 26.7783V19.1355H315.606L315.51 19.8372C315.339 19.5621 315.096 19.3388 314.806 19.1916C314.517 19.0444 314.192 18.9791 313.867 19.0028C313.496 18.9896 313.128 19.0675 312.795 19.2296C312.461 19.3917 312.173 19.633 311.957 19.932L311.899 19.8372ZM313.542 24.787C313.315 24.2946 313.217 23.7532 313.256 23.2129V22.7578C313.219 22.2115 313.317 21.6646 313.542 21.1647C313.631 21.0032 313.764 20.8705 313.927 20.783C314.09 20.6955 314.275 20.6568 314.459 20.6717C314.647 20.6659 314.832 20.7119 314.994 20.8044C315.152 20.8882 315.284 21.0127 315.376 21.1647V24.9577C315.277 25.0942 315.146 25.2048 314.994 25.2801C314.824 25.3686 314.632 25.408 314.44 25.3939C314.266 25.3969 314.094 25.3503 313.945 25.2596C313.796 25.1689 313.676 25.0378 313.6 24.8819L313.542 24.787ZM320.554 19.0976C320.164 19.2459 319.821 19.4947 319.56 19.8182C319.262 20.1672 319.041 20.5742 318.911 21.013C318.749 21.5415 318.672 22.0918 318.681 22.644V23.1561C318.673 23.7082 318.75 24.2582 318.911 24.787C319.045 25.2183 319.266 25.6183 319.56 25.9628C319.821 26.2864 320.164 26.5351 320.554 26.6835C320.971 26.8543 321.42 26.9382 321.872 26.9301C322.324 26.9415 322.773 26.8575 323.19 26.6835C323.583 26.5304 323.931 26.2828 324.203 25.9628C324.483 25.6125 324.697 25.2139 324.833 24.787C324.993 24.2582 325.071 23.7082 325.062 23.1561V22.7578C325.072 22.2056 324.995 21.6553 324.833 21.1268C324.703 20.688 324.482 20.281 324.184 19.932C323.919 19.6129 323.577 19.3651 323.19 19.2114C322.772 19.0406 322.324 18.9567 321.872 18.9648C321.436 18.9732 321.007 19.07 320.611 19.2493L320.554 19.0976ZM321.05 24.787C320.817 24.296 320.712 23.7548 320.745 23.2129V22.7578C320.705 22.2094 320.81 21.6601 321.05 21.1647C321.124 21.0103 321.24 20.8799 321.385 20.7891C321.531 20.6984 321.7 20.651 321.872 20.6527C322.046 20.6519 322.217 20.6995 322.366 20.7899C322.514 20.8804 322.634 21.0102 322.712 21.1647C322.935 21.6653 323.034 22.2116 322.999 22.7578V23.2698C323.037 23.81 322.938 24.351 322.712 24.8439C322.64 25.003 322.521 25.1368 322.371 25.228C322.221 25.3193 322.047 25.3639 321.872 25.356C321.714 25.3489 321.561 25.3016 321.427 25.2185C321.293 25.1355 321.183 25.0195 321.108 24.8819L321.05 24.787ZM326.342 15.7598V26.8542H328.253V26.0766C328.439 26.3499 328.679 26.5822 328.96 26.7594C329.247 26.9134 329.569 26.9918 329.896 26.9869C330.27 27.0108 330.644 26.9356 330.98 26.769C331.316 26.6024 331.601 26.3504 331.806 26.0387C332.269 25.1641 332.48 24.1799 332.418 23.194V22.7578C332.474 21.7784 332.263 20.802 331.806 19.932C331.599 19.6217 331.314 19.3708 330.979 19.2043C330.643 19.0379 330.27 18.9619 329.896 18.9838C329.592 18.9767 329.29 19.0417 329.017 19.1734C328.765 19.3275 328.545 19.5269 328.367 19.7613V15.8546L326.342 15.7598ZM328.749 25.2422C328.596 25.1432 328.47 25.0059 328.386 24.8439V21.2975C328.465 21.1217 328.59 20.9707 328.749 20.8613C328.924 20.7463 329.133 20.6929 329.342 20.7096C329.533 20.7025 329.723 20.7416 329.896 20.8234C330.038 20.9247 330.15 21.0623 330.221 21.2216C330.3 21.4288 330.352 21.6457 330.373 21.8664C330.373 22.1319 330.373 22.4354 330.373 22.7768V23.2888C330.373 23.6681 330.373 23.9905 330.373 24.256C330.354 24.4772 330.303 24.6943 330.221 24.9008C330.156 25.0584 330.042 25.1914 329.896 25.2801C329.723 25.3619 329.533 25.401 329.342 25.3939C329.153 25.3885 328.97 25.3363 328.807 25.2422H328.749ZM334.481 24.8629C334.334 24.9103 334.202 24.9953 334.099 25.1094C333.984 25.2049 333.899 25.3295 333.85 25.4698C333.822 25.6137 333.822 25.762 333.85 25.906C333.823 26.0564 333.823 26.2106 333.85 26.3611C333.904 26.4933 333.989 26.6105 334.099 26.7025C334.209 26.8041 334.339 26.8817 334.481 26.9301C334.632 26.9922 334.795 27.0244 334.958 27.0249C335.129 27.0245 335.297 26.9923 335.455 26.9301C335.595 26.877 335.724 26.7999 335.837 26.7025C335.947 26.6105 336.032 26.4933 336.086 26.3611C336.113 26.2106 336.113 26.0564 336.086 25.906C336.114 25.762 336.114 25.6137 336.086 25.4698C336.037 25.3295 335.951 25.2049 335.837 25.1094C335.73 24.9995 335.6 24.9152 335.455 24.8629C335.291 24.8325 335.123 24.8325 334.958 24.8629C334.851 24.849 334.741 24.849 334.634 24.8629H334.481ZM339.543 19.1734C339.215 19.2958 338.911 19.4757 338.646 19.7045C338.389 19.9214 338.187 20.1939 338.053 20.501C337.922 20.8065 337.857 21.1361 337.862 21.4682H340.059C340.05 21.2323 340.117 20.9996 340.25 20.8044C340.326 20.7255 340.418 20.6642 340.521 20.6248C340.623 20.5855 340.733 20.5691 340.843 20.5768C340.942 20.5685 341.042 20.583 341.135 20.6192C341.227 20.6554 341.31 20.7123 341.378 20.7854C341.511 21.0084 341.571 21.2668 341.549 21.5251V22.1509H340.995C340.529 22.138 340.065 22.2021 339.62 22.3406C339.259 22.4328 338.925 22.6082 338.646 22.8526C338.384 23.0725 338.181 23.3524 338.053 23.6681C337.928 24.0149 337.863 24.3806 337.862 24.7491C337.859 25.0731 337.917 25.3949 338.034 25.6973C338.154 25.9711 338.323 26.2216 338.531 26.437C338.737 26.6439 338.984 26.8055 339.257 26.9111C339.546 27.0105 339.849 27.0618 340.155 27.0628C340.468 27.0777 340.779 27.0055 341.053 26.8542C341.284 26.7183 341.485 26.5378 341.645 26.3232C341.652 26.4305 341.652 26.5382 341.645 26.6456V26.9301H343.88V26.7973C343.824 26.6948 343.779 26.5868 343.746 26.4749C343.746 26.3611 343.746 26.2473 343.651 26.0956C343.64 25.9377 343.64 25.7793 343.651 25.6215C343.64 25.4193 343.64 25.2168 343.651 25.0146V21.582C343.658 21.1802 343.587 20.7809 343.441 20.4061C343.317 20.0986 343.121 19.8252 342.868 19.6096C342.628 19.39 342.34 19.2278 342.027 19.1355C341.672 19.0424 341.305 18.9978 340.938 19.0028C340.516 18.987 340.094 19.0514 339.696 19.1924L339.543 19.1734ZM339.964 25.2422C339.82 25.0593 339.751 24.8286 339.773 24.5974C339.744 24.4407 339.744 24.28 339.773 24.1233C339.807 23.9803 339.88 23.8493 339.983 23.744C340.075 23.6298 340.193 23.5389 340.327 23.4785C340.491 23.4143 340.666 23.3821 340.843 23.3836H341.32V25.0146C341.227 25.1498 341.103 25.2605 340.957 25.337C340.779 25.4255 340.583 25.471 340.384 25.4698C340.255 25.4383 340.141 25.3648 340.059 25.2611L339.964 25.2422ZM347.701 19.2493C347.451 19.4446 347.254 19.6988 347.128 19.9889V19.1355H345.217V26.949H347.281V21.7906C347.366 21.5718 347.512 21.3812 347.701 21.2406C347.917 21.1022 348.171 21.0357 348.427 21.051H348.771H349.115V19.0976H348.847H348.542C348.252 19.0462 347.954 19.1 347.701 19.2493Z" fill="white"/>
<path d="M135.814 0H134.839V48H135.814V0Z" fill="white"/>
</svg>
