<svg width="76" height="92" viewBox="0 0 76 92" fill="none" xmlns="http://www.w3.org/2000/svg">
<g clip-path="url(#clip0)">
<path d="M34.6479 15.4059H37.9568V12.0636C37.9591 11.0106 37.7546 9.96743 37.3551 8.9939C36.9557 8.02037 36.3691 7.13557 35.6288 6.39015C34.8886 5.64473 34.0094 5.05334 33.0414 4.64984C32.0734 4.24633 31.0357 4.03863 29.9878 4.03864H27.4065C27.2181 4.03864 27.0375 4.11383 26.9043 4.24768C26.7711 4.38153 26.6962 4.56306 26.6962 4.75235V7.38092C26.6962 9.50326 27.5329 11.5392 29.0231 13.0432C30.5133 14.5471 32.5358 15.3967 34.6479 15.4059Z" fill="#B5D69E"/>
<path d="M37.9915 16.7985C37.8104 16.7968 37.6313 16.7591 37.4648 16.6873C37.2982 16.6156 37.1475 16.5114 37.0214 16.3807L32.2573 11.611C32.0184 11.3461 31.8901 10.999 31.8989 10.6416C31.9076 10.2842 32.0528 9.94393 32.3044 9.69115C32.5559 9.43838 32.8946 9.29249 33.2502 9.28369C33.6059 9.27489 33.9513 9.40385 34.2149 9.64389L38.979 14.4136C39.1676 14.6116 39.2947 14.8604 39.3448 15.1298C39.3948 15.3991 39.3657 15.6773 39.261 15.9303C39.1562 16.1833 38.9803 16.4002 38.7549 16.5544C38.5295 16.7085 38.2642 16.7934 37.9915 16.7985Z" fill="#78C2A5"/>
<path d="M41.3176 11.3673H37.9915V8.02498C37.9915 5.89662 38.8329 3.85544 40.3306 2.35046C41.8283 0.845486 43.8597 0 45.9778 0L48.5937 0C48.7821 0 48.9627 0.0751951 49.0959 0.209043C49.2291 0.342891 49.304 0.524428 49.304 0.713718V3.34229C49.304 5.47065 48.4626 7.51183 46.9648 9.0168C45.4671 10.5218 43.4358 11.3673 41.3176 11.3673Z" fill="#B5D69E"/>
<path d="M37.9913 12.7425C37.7988 12.7435 37.6083 12.7037 37.4322 12.6257C37.2561 12.5477 37.0983 12.4333 36.9692 12.2899C36.8485 12.1528 36.7559 11.9931 36.6967 11.82C36.6374 11.6469 36.6127 11.4638 36.624 11.2811C36.6353 11.0984 36.6822 10.9197 36.7623 10.7553C36.8423 10.5908 36.9538 10.4439 37.0905 10.3228L41.8199 6.11012C41.9516 5.96918 42.1111 5.85734 42.2881 5.78172C42.4652 5.7061 42.656 5.66836 42.8484 5.6709C43.0408 5.67343 43.2305 5.7162 43.4056 5.79646C43.5806 5.87673 43.7371 5.99274 43.8651 6.13711C43.9931 6.28147 44.0897 6.45103 44.1489 6.635C44.2081 6.81896 44.2285 7.01328 44.2089 7.20561C44.1892 7.39793 44.1299 7.58404 44.0348 7.75208C43.9396 7.92012 43.8107 8.06641 43.6562 8.18164L38.9095 12.3943C38.6595 12.6249 38.3306 12.7497 37.9913 12.7425Z" fill="#78C2A5"/>
<path d="M37.9915 27.2257C37.8103 27.2258 37.6309 27.1896 37.4637 27.1194C37.2966 27.0492 37.1449 26.9464 37.0176 26.8168C36.8903 26.6873 36.7898 26.5336 36.7221 26.3647C36.6543 26.1959 36.6206 26.0152 36.6229 25.8331V11.315C36.6206 11.133 36.6543 10.9523 36.7221 10.7834C36.7898 10.6146 36.8903 10.4609 37.0176 10.3313C37.1449 10.2018 37.2966 10.0989 37.4637 10.0287C37.6309 9.95855 37.8103 9.92241 37.9915 9.92242C38.3591 9.92242 38.7116 10.0691 38.9715 10.3303C39.2314 10.5915 39.3774 10.9457 39.3774 11.315V25.8331C39.3774 26.2025 39.2314 26.5567 38.9715 26.8178C38.7116 27.079 38.3591 27.2257 37.9915 27.2257Z" fill="#78C2A5"/>
<path d="M73.2282 69.2655L63.3882 71.3718L61.8983 64.4087L71.7383 62.2676C72.6572 62.069 73.617 62.2454 74.4065 62.758C75.1959 63.2705 75.7504 64.0772 75.948 65.0006C76.1456 65.9239 75.97 66.8884 75.4599 67.6816C74.9499 68.4749 74.1471 69.0321 73.2282 69.2307V69.2655Z" fill="#ECBB88"/>
<path d="M2.77188 69.2655L12.6119 71.3718L14.1017 64.4087L4.26174 62.372C3.34282 62.1735 2.38306 62.3499 1.59358 62.8624C0.804109 63.375 0.249595 64.1816 0.0520279 65.105C-0.145539 66.0284 0.0300238 66.9928 0.540095 67.7861C1.05017 68.5794 1.85296 69.1366 2.77188 69.3351V69.2655Z" fill="#ECBB88"/>
<path d="M71.9117 54.5385C71.9071 63.5753 68.3314 72.2403 61.9706 78.6286C55.6098 85.0169 46.9847 88.6055 37.9915 88.6055C19.2644 88.6055 6.80846 73.3563 6.80846 54.5385C6.77381 47.001 6.51395 40.0379 10.637 34.4326C15.5364 27.679 22.7397 22.9754 30.8714 21.2201C32.0147 20.9764 33.1928 23.4831 34.3362 23.3612C35.4795 23.2394 36.7442 20.4716 37.9569 20.4716C49.3387 20.4716 56.736 26.1117 62.886 34.7459C65.7964 38.8367 70.5085 43.6065 71.392 48.7592C71.7119 50.6689 71.8741 52.6019 71.8771 54.5385H71.9117Z" fill="#B4ADBB"/>
<path d="M71.4094 48.7417C70.0494 40.8272 65.9502 33.6501 59.8357 28.4775C53.7212 23.3048 45.9845 20.4693 37.9916 20.4715C35.5977 20.4692 33.2106 20.726 30.8715 21.2375C31.5471 23.9705 32.24 27.1909 32.8637 30.9684C33.8685 37.183 34.3016 42.4401 37.2467 43.3801C40.1917 44.3201 42.4438 40.2119 46.411 40.9779C49.7372 41.6393 50.2049 44.9294 53.1847 47.3839C57.1692 50.7262 64.809 51.6314 71.4094 48.7417Z" fill="#E5531C"/>
<path d="M18.173 43.2235C16.7624 39.5192 14.0929 36.436 10.6371 34.5196C5.95067 40.9479 3.65773 48.8249 4.15792 56.7777C4.65812 64.7304 7.91972 72.2547 13.3743 78.039C17.6186 75.1841 20.6676 70.6233 20.9622 66.515C21.1527 63.782 19.9747 63.5209 18.9353 58.1071C17.3241 49.8906 19.455 47.4187 18.173 43.2235Z" fill="#E5531C"/>
<path d="M26.5058 86.6036C32.852 88.8889 39.7314 89.2253 46.2685 87.57C52.8056 85.9146 58.7047 82.3424 63.2152 77.3078C60.9942 74.2706 58.4434 71.4914 55.61 69.0217C52.9248 66.5673 46.5322 60.7008 42.5997 62.5983C39.5161 64.0953 41.0232 68.8303 38.338 74.9578C35.6528 81.0853 30.2997 84.5147 26.5058 86.6036Z" fill="#E5531C"/>
<path d="M60.3912 67.2288C60.6908 66.9256 61.047 66.685 61.4395 66.5208C61.8319 66.3566 62.2529 66.2721 62.678 66.2721C63.1031 66.2721 63.5241 66.3566 63.9165 66.5208C64.309 66.685 64.6652 66.9256 64.9648 67.2288L70.4218 72.7122C70.7221 73.0151 70.9601 73.3745 71.1222 73.7698C71.2843 74.1651 71.3673 74.5887 71.3665 75.0162C71.3657 75.4438 71.281 75.867 71.1175 76.2617C70.9539 76.6564 70.7146 77.0148 70.4131 77.3166C70.1117 77.6183 69.7541 77.8575 69.3606 78.0204C68.9672 78.1832 68.5457 78.2666 68.1202 78.2658C67.6948 78.265 67.2736 78.18 66.8808 78.0156C66.488 77.8513 66.1313 77.6108 65.831 77.3079L60.3566 71.807C59.7613 71.193 59.4311 70.3679 59.4376 69.5108C59.4441 68.6536 59.7868 67.8336 60.3912 67.2288Z" fill="#F1D0A4"/>
<path d="M71.0282 73.9307C70.7302 74.2334 70.3754 74.4736 69.9844 74.6376C69.5933 74.8015 69.1738 74.886 68.7501 74.886C68.3264 74.886 67.9069 74.8015 67.5159 74.6376C67.1249 74.4736 66.7701 74.2334 66.472 73.9307L60.9977 68.4299C60.7052 68.1337 60.4703 67.7854 60.3047 67.4028C59.7765 68.0229 59.4994 68.8197 59.5282 69.6355C59.5571 70.4512 59.8899 71.2262 60.4607 71.807L65.8311 77.3078C66.3631 77.7902 67.0399 78.0806 67.7545 78.1332C68.4692 78.1857 69.1809 77.9974 69.7771 77.598C70.3733 77.1986 70.82 76.6109 71.0466 75.9278C71.2732 75.2447 71.2667 74.5053 71.0282 73.8263V73.9307Z" fill="#ECBB88"/>
<path d="M53.8774 69.8399C54.1769 69.5368 54.5332 69.2962 54.9256 69.132C55.3181 68.9678 55.739 68.8832 56.1641 68.8832C56.5893 68.8832 57.0102 68.9678 57.4027 69.132C57.7951 69.2962 58.1514 69.5368 58.4509 69.8399L67.8231 79.2575C68.4296 79.8646 68.7713 80.689 68.7729 81.5492C68.7745 82.4094 68.436 83.2351 67.8318 83.8445C67.2276 84.4539 66.4072 84.7972 65.5512 84.7988C64.6951 84.8005 63.8734 84.4603 63.267 83.8532L53.8774 74.4182C53.2775 73.8088 52.9411 72.9862 52.9411 72.1291C52.9411 71.2719 53.2775 70.4494 53.8774 69.8399Z" fill="#F1D0A4"/>
<path d="M67.9963 80.4761C67.6982 80.7787 67.3434 81.019 66.9524 81.1829C66.5614 81.3469 66.1419 81.4313 65.7182 81.4313C65.2945 81.4313 64.8749 81.3469 64.4839 81.1829C64.0929 81.019 63.7381 80.7787 63.4401 80.4761L54.0678 71.0585C53.8435 70.8345 53.6564 70.5759 53.5135 70.2925C53.0848 70.9146 52.8866 71.6678 52.953 72.4215C53.0195 73.1751 53.3465 73.8816 53.8773 74.4182L63.2668 83.8532C63.8151 84.3768 64.5293 84.69 65.2842 84.7377C66.0391 84.7855 66.7867 84.5649 67.396 84.1145C68.0054 83.6641 68.4376 83.0127 68.617 82.2743C68.7964 81.5359 68.7116 80.7576 68.3774 80.0757C68.2669 80.2241 68.1389 80.3586 67.9963 80.4761Z" fill="#ECBB88"/>
<path d="M49.3213 74.4182C49.9278 73.8154 50.7464 73.4774 51.5994 73.4774C52.4524 73.4774 53.271 73.8154 53.8775 74.4182L63.2671 83.8532C63.8532 84.464 64.1772 85.2816 64.1695 86.1301C64.1618 86.9786 63.823 87.7901 63.2259 88.3901C62.6288 88.9901 61.8212 89.3305 60.9768 89.3383C60.1324 89.346 59.3187 89.0204 58.7109 88.4314L49.3213 78.9964C48.7214 78.387 48.385 77.5644 48.385 76.7073C48.385 75.8502 48.7214 75.0276 49.3213 74.4182Z" fill="#F1D0A4"/>
<path d="M63.267 85.0543C62.969 85.357 62.6142 85.5972 62.2232 85.7612C61.8321 85.9251 61.4126 86.0096 60.9889 86.0096C60.5652 86.0096 60.1457 85.9251 59.7547 85.7612C59.3637 85.5972 59.0089 85.357 58.7108 85.0543L49.3213 75.6367C49.1507 75.4455 48.9943 75.2418 48.8535 75.0275C48.4753 75.6453 48.3156 76.3733 48.4005 77.0937C48.4854 77.814 48.8099 78.4845 49.3213 78.9964L58.7108 88.4314C59.2688 88.9936 60.013 89.3302 60.8018 89.3772C61.5906 89.4241 62.3691 89.1782 62.9893 88.6861C63.6094 88.194 64.028 87.4901 64.1655 86.7082C64.3029 85.9263 64.1496 85.1208 63.7348 84.4451C63.6041 84.6665 63.447 84.8711 63.267 85.0543Z" fill="#ECBB88"/>
<path d="M46.7745 80.9635C47.0725 80.6608 47.4273 80.4206 47.8183 80.2566C48.2094 80.0927 48.6289 80.0082 49.0526 80.0082C49.4763 80.0082 49.8958 80.0927 50.2868 80.2566C50.6779 80.4206 51.0326 80.6608 51.3307 80.9635L56.805 86.4643C57.1132 86.7629 57.3591 87.1202 57.5283 87.5153C57.6975 87.9105 57.7867 88.3355 57.7906 88.7657C57.7945 89.1958 57.7131 89.6224 57.551 90.0206C57.389 90.4188 57.1497 90.7805 56.847 91.0847C56.5442 91.3889 56.1842 91.6294 55.788 91.7922C55.3917 91.955 54.9672 92.0368 54.5391 92.0329C54.111 92.029 53.688 91.9394 53.2948 91.7693C52.9016 91.5993 52.546 91.3522 52.2488 91.0426L46.7745 85.5417C46.4733 85.2422 46.2342 84.8857 46.071 84.4928C45.9079 84.0999 45.8239 83.6784 45.8239 83.2526C45.8239 82.8268 45.9079 82.4053 46.071 82.0124C46.2342 81.6195 46.4733 81.2629 46.7745 80.9635Z" fill="#F1D0A4"/>
<path d="M52.7512 87.6655L47.2769 82.1646C46.9781 81.867 46.7424 81.5117 46.5839 81.1202C46.0513 81.7439 45.7746 82.5477 45.81 83.3688C45.8454 84.1899 46.1902 84.9667 46.7745 85.5417L52.2488 91.0426C52.7808 91.525 53.4576 91.8154 54.1723 91.8679C54.8869 91.9205 55.5986 91.7322 56.1948 91.3328C56.7911 90.9334 57.2378 90.3457 57.4644 89.6626C57.6909 88.9795 57.6845 88.24 57.446 87.561C57.1518 87.8898 56.7938 88.1546 56.394 88.339C55.9941 88.5234 55.5609 88.6236 55.1211 88.6334C54.6812 88.6432 54.244 88.5623 53.8365 88.3959C53.4289 88.2294 53.0595 87.9809 52.7512 87.6655Z" fill="#ECBB88"/>
<path d="M15.5917 67.2287C15.2937 66.9261 14.9389 66.6859 14.5479 66.5219C14.1569 66.3579 13.7374 66.2735 13.3136 66.2735C12.8899 66.2735 12.4704 66.3579 12.0794 66.5219C11.6884 66.6859 11.3336 66.9261 11.0356 67.2287L5.5612 72.7122C5.2312 73.0069 4.96463 73.3662 4.77785 73.7682C4.59107 74.1701 4.48803 74.6062 4.47504 75.0496C4.46205 75.493 4.53939 75.9345 4.70231 76.3468C4.86524 76.7591 5.11031 77.1335 5.42248 77.4472C5.73465 77.7609 6.10733 78.0072 6.51765 78.1709C6.92796 78.3346 7.36724 78.4123 7.80853 78.3992C8.24981 78.3862 8.68379 78.2826 9.0838 78.095C9.48382 77.9073 9.84144 77.6394 10.1347 77.3078L15.5917 71.807C15.8929 71.5075 16.132 71.151 16.2952 70.7581C16.4584 70.3651 16.5424 69.9436 16.5424 69.5179C16.5424 69.0921 16.4584 68.6706 16.2952 68.2776C16.132 67.8847 15.8929 67.5282 15.5917 67.2287Z" fill="#F1D0A4"/>
<path d="M15.7821 67.4376C15.6568 67.6575 15.4991 67.8571 15.3143 68.0295L9.8573 73.5303C9.55779 73.8335 9.20153 74.0741 8.80907 74.2383C8.4166 74.4025 7.99567 74.487 7.57055 74.487C7.14542 74.487 6.72449 74.4025 6.33203 74.2383C5.93956 74.0741 5.5833 73.8335 5.28379 73.5303L5.19717 73.3214C4.81538 73.9401 4.65217 74.6699 4.73389 75.3932C4.81562 76.1164 5.1375 76.7909 5.64759 77.3078C6.25701 77.9116 7.07848 78.2502 7.93435 78.2502C8.79021 78.2502 9.61168 77.9116 10.2211 77.3078L15.5915 71.807C16.1648 71.2365 16.5028 70.4697 16.5381 69.6598C16.5735 68.8498 16.3035 68.0563 15.7821 67.4376Z" fill="#ECBB88"/>
<path d="M22.1054 69.8399C21.8074 69.5373 21.4526 69.2971 21.0616 69.1331C20.6705 68.9691 20.251 68.8847 19.8273 68.8847C19.4036 68.8847 18.9841 68.9691 18.5931 69.1331C18.202 69.2971 17.8472 69.5373 17.5492 69.8399L8.17698 79.2575C7.5705 79.8646 7.22886 80.689 7.22724 81.5492C7.22562 82.4094 7.56413 83.2351 8.16832 83.8445C8.77251 84.4539 9.59288 84.7972 10.449 84.7988C11.305 84.8005 12.1267 84.4603 12.7332 83.8532L22.1054 74.4182C22.4066 74.1187 22.6457 73.7622 22.8089 73.3693C22.972 72.9764 23.056 72.5548 23.056 72.1291C23.056 71.7033 22.972 71.2818 22.8089 70.8888C22.6457 70.4959 22.4066 70.1394 22.1054 69.8399Z" fill="#F1D0A4"/>
<path d="M22.1053 70.7451L12.733 80.1802C12.1265 80.7829 11.3079 81.121 10.4549 81.121C9.60191 81.121 8.78332 80.7829 8.17683 80.1802C8.04061 80.0373 7.91332 79.8862 7.79571 79.7275C7.33382 80.393 7.13738 81.2084 7.24528 82.0125C7.35318 82.8165 7.75755 83.5506 8.37836 84.0693C8.99917 84.5881 9.79117 84.8537 10.5976 84.8137C11.404 84.7737 12.1661 84.4309 12.733 83.8532L22.1053 74.4182C22.6471 73.8899 22.9858 73.1863 23.0619 72.4316C23.138 71.6768 22.9464 70.9193 22.521 70.2925C22.3977 70.4569 22.2585 70.6085 22.1053 70.7451Z" fill="#ECBB88"/>
<path d="M26.6614 74.4182C26.0549 73.8154 25.2363 73.4774 24.3833 73.4774C23.5303 73.4774 22.7117 73.8154 22.1052 74.4182L12.733 83.8532C12.1288 84.4649 11.7912 85.2928 11.7945 86.1546C11.7977 87.0165 12.1415 87.8417 12.7503 88.4488C13.3591 89.0559 14.183 89.3952 15.0407 89.3919C15.8984 89.3886 16.7196 89.0431 17.3238 88.4314L26.6961 78.9964C26.995 78.6947 27.2314 78.3363 27.3916 77.9422C27.5518 77.548 27.6326 77.1258 27.6294 76.7C27.6262 76.2743 27.539 75.8534 27.3728 75.4617C27.2067 75.07 26.9649 74.7153 26.6614 74.4182Z" fill="#F1D0A4"/>
<path d="M26.7136 74.4704C26.5835 74.7126 26.4203 74.9353 26.2286 75.1319L16.839 84.5495C16.541 84.8521 16.1862 85.0924 15.7952 85.2563C15.4041 85.4203 14.9846 85.5047 14.5609 85.5047C14.1372 85.5047 13.7177 85.4203 13.3267 85.2563C12.9356 85.0924 12.5808 84.8521 12.2828 84.5495C11.9295 85.2255 11.8253 86.0053 11.9887 86.751C12.152 87.4968 12.5724 88.1605 13.1756 88.6249C13.7788 89.0894 14.5259 89.3247 15.285 89.2893C16.0441 89.2539 16.7663 88.95 17.3241 88.4314L26.6963 78.9964C27.2888 78.3937 27.621 77.5806 27.621 76.7334C27.621 75.8862 27.2888 75.0732 26.6963 74.4704H26.7136Z" fill="#ECBB88"/>
<path d="M29.2773 80.9635C28.9793 80.6608 28.6245 80.4206 28.2335 80.2566C27.8425 80.0927 27.4229 80.0082 26.9992 80.0082C26.5755 80.0082 26.156 80.0927 25.765 80.2566C25.374 80.4206 25.0192 80.6608 24.7211 80.9635L19.2468 86.4643C18.6607 87.0751 18.3366 87.8928 18.3443 88.7412C18.352 89.5897 18.6909 90.4012 19.288 91.0012C19.885 91.6012 20.6927 91.9417 21.5371 91.9494C22.3814 91.9571 23.1951 91.6315 23.803 91.0426L29.2773 85.5417C29.5785 85.2422 29.8176 84.8857 29.9808 84.4928C30.144 84.0999 30.228 83.6784 30.228 83.2526C30.228 82.8268 30.144 82.4053 29.9808 82.0124C29.8176 81.6195 29.5785 81.2629 29.2773 80.9635Z" fill="#F1D0A4"/>
<path d="M23.803 87.2477C23.1965 87.8504 22.3779 88.1885 21.5249 88.1885C20.6719 88.1885 19.8533 87.8504 19.2468 87.2477C19.1278 87.1222 19.0178 86.9884 18.9176 86.8473C18.4374 87.5062 18.2228 88.3231 18.3167 89.1343C18.4106 89.9455 18.8061 90.6911 19.4239 91.2217C20.0418 91.7522 20.8364 92.0286 21.6484 91.9954C22.4605 91.9622 23.2301 91.6218 23.803 91.0425L29.2773 85.5417C29.8206 84.9965 30.1523 84.2743 30.2127 83.5051C30.273 82.736 30.058 81.9704 29.6065 81.3464C29.2946 81.8164 24.2534 86.8473 23.803 87.2477Z" fill="#ECBB88"/>
</g>
<defs>
<clipPath id="clip0">
<rect width="76" height="92" fill="white"/>
</clipPath>
</defs>
</svg>
