<svg width="15" height="15" viewBox="0 0 15 15" fill="none" xmlns="http://www.w3.org/2000/svg">
<path d="M6.79167 11.75H8.20834V10.3333H6.79167V11.75ZM7.50001 0.416664C6.56981 0.416664 5.64872 0.59988 4.78933 0.955851C3.92994 1.31182 3.14908 1.83358 2.49133 2.49132C1.16295 3.81971 0.416672 5.62138 0.416672 7.5C0.416672 9.37861 1.16295 11.1803 2.49133 12.5087C3.14908 13.1664 3.92994 13.6882 4.78933 14.0441C5.64872 14.4001 6.56981 14.5833 7.50001 14.5833C9.37862 14.5833 11.1803 13.8371 12.5087 12.5087C13.8371 11.1803 14.5833 9.37861 14.5833 7.5C14.5833 6.5698 14.4001 5.64871 14.0442 4.78932C13.6882 3.92993 13.1664 3.14907 12.5087 2.49132C11.8509 1.83358 11.0701 1.31182 10.2107 0.955851C9.35129 0.59988 8.4302 0.416664 7.50001 0.416664ZM7.50001 13.1667C4.37626 13.1667 1.83334 10.6237 1.83334 7.5C1.83334 4.37625 4.37626 1.83333 7.50001 1.83333C10.6238 1.83333 13.1667 4.37625 13.1667 7.5C13.1667 10.6237 10.6238 13.1667 7.50001 13.1667ZM7.50001 3.25C6.74856 3.25 6.02789 3.54851 5.49654 4.07986C4.96518 4.61121 4.66667 5.33188 4.66667 6.08333H6.08334C6.08334 5.70761 6.23259 5.34727 6.49827 5.0816C6.76395 4.81592 7.12428 4.66666 7.50001 4.66666C7.87573 4.66666 8.23606 4.81592 8.50174 5.0816C8.76742 5.34727 8.91667 5.70761 8.91667 6.08333C8.91667 7.5 6.79167 7.32291 6.79167 9.625H8.20834C8.20834 8.03125 10.3333 7.85416 10.3333 6.08333C10.3333 5.33188 10.0348 4.61121 9.50348 4.07986C8.97212 3.54851 8.25145 3.25 7.50001 3.25Z" fill="#234077"/>
</svg>
