<svg width="13" height="15" viewBox="0 0 13 15" fill="none" xmlns="http://www.w3.org/2000/svg">
<path d="M12.125 6.875C12.125 10.3437 9.725 13.5875 6.5 14.375C3.275 13.5875 0.875 10.3437 0.875 6.875V3.125L6.5 0.625L12.125 3.125V6.875ZM6.5 13.125C8.84375 12.5 10.875 9.7125 10.875 7.0125V3.9375L6.5 1.9875L2.125 3.9375V7.0125C2.125 9.7125 4.15625 12.5 6.5 13.125ZM6.5 5.55625C7.5 5.55625 8.30625 6.3625 8.30625 7.3625C8.30625 8.3625 7.5 9.16875 6.5 9.16875C5.5 9.16875 4.69375 8.35625 4.69375 7.3625C4.69375 6.36875 5.50625 5.55625 6.5 5.55625Z" fill="#234077"/>
</svg>
