<svg width="19" height="19" viewBox="0 0 19 19" fill="none" xmlns="http://www.w3.org/2000/svg">
<path d="M9.50016 15.8333C6.00891 15.8333 3.16683 12.9912 3.16683 9.5C3.16683 6.00875 6.00891 3.16666 9.50016 3.16666C12.9914 3.16666 15.8335 6.00875 15.8335 9.5C15.8335 12.9912 12.9914 15.8333 9.50016 15.8333ZM9.50016 1.58333C8.46053 1.58333 7.43108 1.7881 6.47059 2.18595C5.51009 2.5838 4.63736 3.16694 3.90223 3.90207C2.41757 5.38673 1.5835 7.40036 1.5835 9.5C1.5835 11.5996 2.41757 13.6133 3.90223 15.0979C4.63736 15.8331 5.51009 16.4162 6.47059 16.814C7.43108 17.2119 8.46053 17.4167 9.50016 17.4167C11.5998 17.4167 13.6134 16.5826 15.0981 15.0979C16.5828 13.6133 17.4168 11.5996 17.4168 9.5C17.4168 8.46036 17.2121 7.43091 16.8142 6.47042C16.4164 5.50992 15.8332 4.6372 15.0981 3.90207C14.363 3.16694 13.4902 2.5838 12.5297 2.18595C11.5692 1.7881 10.5398 1.58333 9.50016 1.58333V1.58333ZM10.2918 5.54166H8.7085V8.70833H5.54183V10.2917H8.7085V13.4583H10.2918V10.2917H13.4585V8.70833H10.2918V5.54166Z" fill="#7AA2D6"/>
</svg>
