<svg width="357" height="237" viewBox="0 0 357 237" fill="none" xmlns="http://www.w3.org/2000/svg">
<path d="M275.333 117.693C275.333 119.016 274.261 120.15 272.874 120.15C271.55 120.15 270.415 119.079 270.415 117.693C270.415 116.369 271.487 115.235 272.874 115.235C274.261 115.235 275.333 116.369 275.333 117.693ZM274.135 117.693C274.135 117 273.568 116.495 272.937 116.495C272.243 116.495 271.739 117.063 271.739 117.693C271.739 118.386 272.306 118.89 272.937 118.89C273.568 118.89 274.135 118.386 274.135 117.693Z" fill="#C9C6D9"/>
<path d="M316.261 28.6671H302.514C302.198 28.6671 301.883 28.9191 301.883 29.2971C301.883 29.6121 302.135 29.9272 302.514 29.9272H316.261C316.577 29.9272 316.892 29.6751 316.892 29.2971C316.829 28.9821 316.577 28.6671 316.261 28.6671Z" fill="#AD8DCE"/>
<path d="M298.099 28.6671H295.387C295.072 28.6671 294.756 28.9191 294.756 29.2971C294.756 29.6121 295.009 29.9272 295.387 29.9272H298.099C298.414 29.9272 298.729 29.6751 298.729 29.2971C298.666 28.9821 298.414 28.6671 298.099 28.6671Z" fill="#AD8DCE"/>
<path d="M309.766 33.5184C309.766 33.8335 309.514 34.1485 309.135 34.1485H307.433C307.117 34.1485 306.802 33.8965 306.802 33.5184C306.802 33.2034 307.054 32.8884 307.433 32.8884H309.135C309.514 32.8884 309.766 33.1404 309.766 33.5184ZM305.036 33.5184C305.036 33.8335 304.784 34.1485 304.406 34.1485H301.379C301.063 34.1485 300.748 33.8965 300.748 33.5184C300.748 33.2034 301 32.8884 301.379 32.8884H304.406C304.721 32.8884 305.036 33.1404 305.036 33.5184ZM298.982 33.5184C298.982 33.8335 298.73 34.1485 298.352 34.1485H295.324C295.009 34.1485 294.694 33.8965 294.694 33.5184C294.694 33.2034 294.946 32.8884 295.324 32.8884H298.352C298.73 32.8884 298.982 33.1404 298.982 33.5184Z" fill="#AD8DCE"/>
<path d="M92.7028 68.927C92.3875 68.927 92.0721 69.179 92.0721 69.5571V70.9431C92.0721 71.2582 92.3244 71.5732 92.7028 71.5732C93.0181 71.5732 93.3334 71.3212 93.3334 70.9431V69.5571C93.3334 69.242 93.0181 68.927 92.7028 68.927Z" fill="#AD8DCE"/>
<path d="M91.1262 67.5409H89.7388C89.4235 67.5409 89.1082 67.7929 89.1082 68.1709C89.1082 68.486 89.3604 68.801 89.7388 68.801H91.1262C91.4415 68.801 91.7568 68.549 91.7568 68.1709C91.7568 67.7929 91.4415 67.5409 91.1262 67.5409Z" fill="#AD8DCE"/>
<path d="M92.7028 64.6427C92.3875 64.6427 92.0721 64.8947 92.0721 65.2727V66.6588C92.0721 66.9739 92.3244 67.2889 92.7028 67.2889C93.0181 67.2889 93.3334 67.0369 93.3334 66.6588V65.2727C93.3334 64.9577 93.0181 64.6427 92.7028 64.6427Z" fill="#AD8DCE"/>
<path d="M95.6667 67.4779H94.2793C93.964 67.4779 93.6487 67.7299 93.6487 68.1079C93.6487 68.423 93.9009 68.738 94.2793 68.738H95.6667C95.982 68.738 96.2973 68.486 96.2973 68.1079C96.2973 67.7299 95.982 67.4779 95.6667 67.4779Z" fill="#AD8DCE"/>
<path d="M244.306 29.9272C243.991 29.9272 243.676 30.1792 243.676 30.5572V31.9433C243.676 32.2583 243.928 32.5734 244.306 32.5734C244.621 32.5734 244.937 32.3214 244.937 31.9433V30.4942C244.937 30.1792 244.621 29.9272 244.306 29.9272Z" fill="#C9C6D9"/>
<path d="M242.73 28.5411H241.342C241.027 28.5411 240.712 28.7931 240.712 29.1711C240.712 29.4861 240.964 29.8012 241.342 29.8012H242.73C243.045 29.8012 243.36 29.5491 243.36 29.1711C243.36 28.7931 243.045 28.5411 242.73 28.5411Z" fill="#C9C6D9"/>
<path d="M244.306 25.6429C243.991 25.6429 243.676 25.8949 243.676 26.2729V27.659C243.676 27.974 243.928 28.2891 244.306 28.2891C244.621 28.2891 244.937 28.037 244.937 27.659V26.2729C244.937 25.8949 244.621 25.6429 244.306 25.6429Z" fill="#C9C6D9"/>
<path d="M247.27 28.4151H245.883C245.568 28.4151 245.252 28.6671 245.252 29.0451C245.252 29.3601 245.505 29.6751 245.883 29.6751H247.27C247.586 29.6751 247.901 29.4231 247.901 29.0451C247.901 28.6671 247.586 28.4151 247.27 28.4151Z" fill="#C9C6D9"/>
<path d="M188.117 0H174.37C174.054 0 173.739 0.252019 173.739 0.630048C173.739 0.945072 173.991 1.2601 174.37 1.2601H188.117C188.433 1.2601 188.748 1.00808 188.748 0.630048C188.748 0.252019 188.433 0 188.117 0Z" fill="#AD8DCE"/>
<path d="M169.955 0H167.243C166.928 0 166.613 0.252019 166.613 0.630048C166.613 0.945072 166.865 1.2601 167.243 1.2601H169.955C170.27 1.2601 170.586 1.00808 170.586 0.630048C170.586 0.252019 170.27 0 169.955 0Z" fill="#AD8DCE"/>
<path d="M181.622 4.78834C181.622 5.10336 181.37 5.41839 180.991 5.41839H179.288C178.973 5.41839 178.658 5.16637 178.658 4.78834C178.658 4.47332 178.91 4.15829 179.288 4.15829H180.991C181.37 4.2213 181.622 4.47332 181.622 4.78834ZM176.892 4.78834C176.892 5.10336 176.64 5.41839 176.261 5.41839H173.234C172.919 5.41839 172.604 5.16637 172.604 4.78834C172.604 4.47332 172.856 4.15829 173.234 4.15829H176.261C176.64 4.2213 176.892 4.47332 176.892 4.78834ZM170.901 4.78834C170.901 5.10336 170.649 5.41839 170.27 5.41839H167.243C166.928 5.41839 166.613 5.16637 166.613 4.78834C166.613 4.47332 166.865 4.15829 167.243 4.15829H170.27C170.586 4.2213 170.901 4.47332 170.901 4.78834Z" fill="#AD8DCE"/>
<path d="M336.189 63.0676C336.189 64.2647 337.135 65.2097 338.333 65.2097C339.532 65.2097 340.478 64.2647 340.478 63.0676C340.478 61.8705 339.532 60.9254 338.333 60.9254C337.135 60.9884 336.189 61.9335 336.189 63.0676Z" fill="#C9C6D9"/>
<path d="M57.1983 167.277H70.946C71.2613 167.277 71.5766 167.025 71.5766 166.647C71.5766 166.332 71.3244 166.017 70.946 166.017H57.1983C56.8829 166.017 56.5676 166.269 56.5676 166.647C56.5676 167.025 56.8829 167.277 57.1983 167.277Z" fill="#C9C6D9"/>
<path d="M50.1353 167.277H52.847C53.1623 167.277 53.4776 167.025 53.4776 166.647C53.4776 166.332 53.2253 166.017 52.847 166.017H50.1353C49.82 166.017 49.5046 166.269 49.5046 166.647C49.5046 167.025 49.82 167.277 50.1353 167.277Z" fill="#C9C6D9"/>
<path d="M317.523 177.043C317.523 177.043 318.343 182.902 311.469 182.776C311.469 182.776 317.334 182.839 317.207 188.321C317.207 188.321 317.712 183.973 323.135 183.028C323.135 183.091 318.595 184.099 317.523 177.043Z" fill="#AD8DCE"/>
<path d="M350.252 94.3178C350.252 94.3178 351.072 100.177 344.198 100.051C344.198 100.051 350.063 100.114 349.937 105.596C349.937 105.596 350.441 101.248 355.865 100.303C355.928 100.303 351.324 101.374 350.252 94.3178Z" fill="#AD8DCE"/>
<path d="M132.748 14.9321C132.748 14.9321 133.568 20.7915 126.694 20.6655C126.694 20.6655 132.559 20.7285 132.432 26.2099C132.432 26.2099 132.937 21.8626 138.36 20.9175C138.423 20.9175 133.82 21.9886 132.748 14.9321Z" fill="#AD8DCE"/>
<path d="M73.7208 31.1243C73.7208 31.1243 74.5406 36.9837 67.6667 36.8577C67.6667 36.8577 73.5316 36.9207 73.4055 42.4021C73.4055 42.4021 73.91 38.0548 79.3334 37.1097C79.3334 37.1097 74.7929 38.1808 73.7208 31.1243Z" fill="#C9C6D9"/>
<path d="M109.477 6.04843C109.477 6.04843 109.793 8.06458 107.396 8.06458C107.396 8.06458 109.477 8.06458 109.414 10.0177C109.414 10.0177 109.604 8.50561 111.495 8.19059C111.495 8.12758 109.856 8.50561 109.477 6.04843Z" fill="#C9C6D9"/>
<path d="M216.874 76.5506C216.874 76.5506 217.189 78.5667 214.793 78.5667C214.793 78.5667 216.874 78.5667 216.811 80.5198C216.811 80.5198 217 79.0077 218.892 78.6927C218.892 78.6297 217.252 79.0077 216.874 76.5506Z" fill="#C9C6D9"/>
<path d="M17.9099 111.455C17.9099 111.455 18.2252 113.471 15.8289 113.471C15.8289 113.471 17.9099 113.471 17.8469 115.424C17.8469 115.424 18.0361 113.912 19.9279 113.597C19.8649 113.597 18.2883 113.912 17.9099 111.455Z" fill="#C9C6D9"/>
<path d="M196.505 166.584C196.505 166.584 196.82 168.6 194.423 168.6C194.423 168.6 196.505 168.6 196.441 170.553C196.441 170.553 196.631 169.041 198.523 168.726C198.459 168.663 196.883 169.041 196.505 166.584Z" fill="#C9C6D9"/>
<path d="M115.216 133.633H101.847C100.144 133.633 98.7568 132.247 98.7568 130.545C98.7568 128.844 100.081 127.521 101.784 127.458C101.847 124.875 103.991 122.733 106.577 122.733C108.216 122.733 109.73 123.552 110.613 124.938C112.442 124.686 114.018 125.82 114.46 127.458H115.216C116.919 127.458 118.306 128.844 118.306 130.545C118.306 132.247 116.919 133.633 115.216 133.633ZM101.847 128.34C100.649 128.34 99.6397 129.348 99.6397 130.545C99.6397 131.743 100.649 132.751 101.847 132.751H115.216C116.414 132.751 117.424 131.743 117.424 130.545C117.424 129.348 116.414 128.34 115.216 128.34H113.703L113.64 127.962C113.387 126.513 112 125.505 110.487 125.82L110.171 125.883L109.982 125.568C109.288 124.308 107.964 123.552 106.577 123.552C104.433 123.552 102.667 125.316 102.667 127.458C102.667 127.584 102.667 127.71 102.667 127.773L102.73 128.277H101.847V128.34Z" fill="#AD8DCE"/>
<path d="M353.91 20.5395H340.541C338.838 20.5395 337.451 19.1534 337.451 17.4523C337.451 15.7511 338.775 14.428 340.478 14.365C340.541 11.7818 342.685 9.63969 345.27 9.63969C346.91 9.63969 348.424 10.4588 349.307 11.8449C351.135 11.5928 352.712 12.7269 353.153 14.365H353.91C355.613 14.365 357 15.7511 357 17.4523C357 19.1534 355.613 20.5395 353.91 20.5395ZM340.478 15.2471C339.28 15.2471 338.271 16.2552 338.271 17.4523C338.271 18.6493 339.28 19.6574 340.478 19.6574H353.847C355.045 19.6574 356.054 18.6493 356.054 17.4523C356.054 16.2552 355.045 15.2471 353.847 15.2471H352.334L352.27 14.8691C352.018 13.42 350.631 12.4119 349.117 12.7269L348.802 12.7899L348.613 12.4749C347.919 11.2148 346.595 10.4588 345.207 10.4588C343.063 10.4588 341.298 12.2229 341.298 14.365C341.298 14.491 341.298 14.6171 341.298 14.6801L341.361 15.1841H340.478V15.2471Z" fill="#AD8DCE"/>
<path d="M146.748 54.688H133.378C131.676 54.688 130.288 53.3019 130.288 51.6008C130.288 49.8996 131.613 48.5765 133.315 48.5135C133.378 45.9303 135.523 43.7882 138.108 43.7882C139.748 43.7882 141.261 44.6073 142.144 45.9934C143.973 45.7413 145.55 46.8754 145.991 48.5135H146.748C148.45 48.5135 149.838 49.8996 149.838 51.6008C149.838 53.3019 148.45 54.688 146.748 54.688ZM133.378 49.3956C132.18 49.3956 131.171 50.4037 131.171 51.6008C131.171 52.7978 132.18 53.8059 133.378 53.8059H146.748C147.946 53.8059 148.955 52.7978 148.955 51.6008C148.955 50.4037 147.946 49.3956 146.748 49.3956H145.234L145.171 49.0176C144.919 47.5685 143.532 46.5604 142.018 46.8754L141.703 46.9384L141.514 46.6234C140.82 45.3633 139.496 44.6072 138.108 44.6072C135.964 44.6072 134.198 46.3714 134.198 48.5135C134.198 48.6395 134.198 48.7656 134.198 48.8286L134.261 49.3326H133.378V49.3956Z" fill="#AD8DCE"/>
<path d="M188.622 225.997C182.883 227.636 176.892 224.296 175.252 218.563L166.676 188.258C165.036 182.524 168.378 176.539 174.117 174.901C179.856 173.263 185.847 176.602 187.487 182.335L196.063 212.64C197.703 218.374 194.36 224.359 188.622 225.997Z" fill="#234077"/>
<path d="M176.387 225.745C172.099 221.587 172.036 214.72 176.261 210.498L198.333 188.006C202.495 183.721 209.369 183.658 213.595 187.88C217.883 192.038 217.946 198.905 213.721 203.127L191.649 225.619C187.486 229.841 180.676 229.904 176.387 225.745Z" fill="#234077"/>
<path d="M220.279 182.587C223.18 186.935 221.982 192.794 217.631 195.692C213.279 198.59 207.414 197.393 204.513 193.046C201.613 188.699 202.811 182.839 207.162 179.941C211.513 177.043 217.378 178.24 220.279 182.587Z" fill="#F7C29E"/>
<path d="M206.09 186.431C204.766 186.746 203.441 185.99 203.063 184.666L202.243 181.39C201.928 180.067 202.685 178.744 204.009 178.366C205.333 178.051 206.658 178.807 207.036 180.13L207.856 183.406C208.171 184.792 207.414 186.116 206.09 186.431Z" fill="#F7C29E"/>
<path d="M215.549 175.216L212.207 183.721C211.703 185.044 210.189 185.674 208.865 185.17C207.54 184.666 206.91 183.154 207.414 181.831L210.757 173.326C211.261 172.003 212.775 171.372 214.099 171.876C215.423 172.444 216.117 173.956 215.549 175.216Z" fill="#F7C29E"/>
<path d="M221.477 177.043L217.441 185.233C216.811 186.494 215.297 186.998 214.036 186.368C212.775 185.738 212.27 184.225 212.901 182.965L216.937 174.775C217.568 173.515 219.081 173.011 220.342 173.641C221.604 174.208 222.108 175.783 221.477 177.043Z" fill="#F7C29E"/>
<path d="M225.892 181.579L220.216 188.762C219.333 189.896 217.757 190.085 216.622 189.203C215.486 188.321 215.297 186.746 216.18 185.611L221.856 178.429C222.739 177.295 224.315 177.106 225.45 177.988C226.586 178.87 226.775 180.445 225.892 181.579Z" fill="#F7C29E"/>
<path d="M165.225 164.316L161.568 164.19C159.108 164.064 157.153 161.985 157.279 159.528L158.036 139.996L170.649 140.5L169.892 160.032C169.766 162.489 167.685 164.379 165.225 164.316Z" fill="#F7C29E"/>
<path d="M170.649 139.807L158.036 139.303L157.847 144.28C157.658 149.132 161.631 153.416 166.487 153.038C166.802 153.038 167.117 152.975 167.369 152.912C168.378 152.723 169.324 152.345 170.207 151.904L170.649 139.807Z" fill="#FD9F88"/>
<path d="M165.946 138.395C174.324 136.026 179.64 128.895 177.819 122.466C175.998 116.038 167.73 112.747 159.352 115.116C150.974 117.484 145.658 124.616 147.479 131.044C149.3 137.473 157.568 140.764 165.946 138.395Z" fill="#184071"/>
<path d="M173.944 135.082C181.567 133.788 187.065 128.734 186.225 123.794C185.385 118.854 178.524 115.899 170.901 117.193C163.278 118.486 157.78 123.54 158.62 128.48C159.46 133.42 166.321 136.376 173.944 135.082Z" fill="#184071"/>
<path d="M170.807 127.811C176.484 122.568 178.327 115.334 174.923 111.655C171.518 107.976 164.156 109.244 158.478 114.487C152.801 119.731 150.958 126.964 154.362 130.644C157.767 134.323 165.129 133.055 170.807 127.811Z" fill="#184071"/>
<path d="M177.964 136.657C179.225 143.587 175.568 150.077 169.829 151.085C164.09 152.093 158.414 147.305 157.216 140.311L156.207 134.83C154.946 127.899 158.604 121.41 164.342 120.402C170.081 119.394 175.757 124.182 176.955 131.176L177.964 136.657Z" fill="#F7C29E"/>
<path d="M165.73 119.646C162.577 116.747 157.027 118.134 153.369 122.733C149.712 127.332 149.333 133.381 152.55 136.216C155.703 139.114 161.252 137.728 164.91 133.129C168.505 128.529 168.883 122.481 165.73 119.646Z" fill="#184071"/>
<path d="M168.315 146.675H164.91C163.522 146.675 162.198 146.171 161.189 145.226L159.045 143.335C158.856 143.209 158.856 142.894 159.045 142.768C159.171 142.579 159.486 142.579 159.613 142.768L161.757 144.659C162.64 145.415 163.712 145.856 164.91 145.856H168.315C168.567 145.856 168.757 146.045 168.757 146.297C168.694 146.486 168.504 146.675 168.315 146.675Z" fill="#201028"/>
<path d="M168.315 147.053H166.928C166.487 147.053 166.108 146.675 166.108 146.234C166.108 145.793 166.487 145.415 166.928 145.415H168.315C168.757 145.415 169.135 145.793 169.135 146.234C169.135 146.675 168.757 147.053 168.315 147.053Z" fill="#BF4019"/>
<path d="M163.725 141.358C165.018 137.792 163.172 133.854 159.603 132.563C156.033 131.271 152.092 133.115 150.799 136.681C149.507 140.247 151.352 144.185 154.922 145.477C158.491 146.768 162.432 144.924 163.725 141.358Z" fill="#BF4019"/>
<path d="M161.583 139.184C161.71 135.951 159.416 133.235 156.458 133.119C153.5 133.003 150.998 135.53 150.871 138.763C150.744 141.997 153.039 144.712 155.997 144.828C158.955 144.945 161.456 142.418 161.583 139.184Z" fill="#E5531C"/>
<path d="M157.09 139.051C157.027 140.374 156.144 141.382 155.135 141.382C154.126 141.319 153.306 140.248 153.369 138.925C153.432 137.602 154.315 136.594 155.324 136.594C156.333 136.594 157.153 137.728 157.09 139.051Z" fill="#E0EEF7"/>
<path d="M173.928 235.259L140.946 236.204C135.46 236.015 131.171 231.353 131.36 225.871L133.441 170.679C133.568 167.781 135.46 165.261 138.234 164.442L162.829 156.629L182.505 166.017C184.964 167.214 186.478 169.734 186.415 172.444L184.333 225.682C184.081 231.227 179.415 235.448 173.928 235.259Z" fill="#4385D8"/>
<path d="M186.351 172.444C186.478 178.177 186.415 183.973 186.288 189.707C186.225 195.44 186.036 201.174 185.784 206.907C185.532 212.64 185.279 218.374 184.901 224.107C184.838 225.493 184.775 227.069 184.207 228.518C183.703 229.967 182.883 231.29 181.874 232.298C179.73 234.377 176.766 235.574 173.865 235.259C176.766 235.196 179.478 233.936 181.306 231.794C182.189 230.786 182.883 229.526 183.261 228.203C183.64 226.879 183.64 225.556 183.64 224.107C183.703 218.374 183.892 212.64 184.144 206.907C184.397 201.174 184.649 195.44 185.027 189.707C185.406 183.91 185.784 178.177 186.351 172.444Z" fill="#4385D8"/>
<path d="M171.847 167.025L154.063 165.891L154.757 155.306C154.82 153.983 155.955 152.975 157.279 153.101L170.333 153.92C171.658 153.983 172.667 155.117 172.541 156.44L171.847 167.025Z" fill="#4385D8"/>
<path d="M118.811 219.067C113.324 216.799 110.676 210.435 112.946 204.954L125.054 175.909C127.324 170.427 133.694 167.781 139.18 170.049C144.667 172.318 147.315 178.681 145.045 184.162L132.937 213.207C130.604 218.752 124.297 221.398 118.811 219.067Z" fill="#4385D8"/>
<path d="M139.18 170.049C141.135 170.679 142.901 171.939 144.162 173.578C145.423 175.216 146.243 177.295 146.432 179.437C146.748 181.579 146.054 183.784 145.234 185.611L142.964 191.219C141.387 194.936 139.811 198.653 138.171 202.308L135.649 207.789C134.766 209.616 133.883 211.443 132.937 213.207C133.568 211.254 134.261 209.364 134.892 207.474L136.973 201.804C138.36 198.023 139.937 194.306 141.45 190.526L143.847 184.981C144.225 184.036 144.667 183.217 144.856 182.272C145.108 181.39 145.234 180.445 145.171 179.437C145.108 175.657 142.775 171.939 139.18 170.049Z" fill="#184071"/>
<path d="M169.072 203.883L163.585 203.505C161.504 203.379 159.928 201.615 160.054 199.535L160.243 197.078C160.369 194.999 162.135 193.424 164.216 193.55L169.703 193.928L169.072 203.883ZM164.09 196.007C163.396 195.944 162.766 196.511 162.703 197.204L162.513 199.662C162.45 200.355 163.018 200.985 163.712 201.048L166.739 201.237L167.054 196.196L164.09 196.007Z" fill="#243862"/>
<path d="M174.432 211.758L169.64 211.443C166.739 211.254 164.531 208.734 164.721 205.899L165.73 190.589C165.856 188.888 181.054 189.833 180.991 191.597L179.982 206.907C179.856 209.742 177.333 211.947 174.432 211.758Z" fill="#184071"/>
<path d="M179.477 191.975C179.414 192.605 176.64 192.92 173.171 192.668C169.703 192.416 166.928 191.786 166.991 191.156C167.054 190.526 169.829 190.211 173.297 190.463C176.766 190.715 179.54 191.408 179.477 191.975Z" fill="#243862"/>
<path d="M112.82 209.364C112.883 203.379 117.802 198.653 123.793 198.716L155.324 199.22C161.315 199.283 166.045 204.198 165.982 210.183C165.919 216.169 161 220.894 155.009 220.831L123.477 220.327C117.486 220.264 112.694 215.35 112.82 209.364Z" fill="#4385D8"/>
<path d="M123.793 198.716C127.829 198.464 131.865 198.338 135.901 198.275C139.937 198.212 143.973 198.212 148.009 198.275L154.063 198.401C156.018 198.401 158.414 198.716 160.243 199.788C162.135 200.796 163.712 202.371 164.721 204.198C165.73 206.025 166.171 208.167 165.919 210.183C165.667 206.151 163.144 202.497 159.676 200.922C158.793 200.544 157.91 200.292 156.964 200.103C156.018 199.914 155.072 199.977 154.063 199.977L148.009 199.914C143.973 199.851 139.937 199.725 135.901 199.536C131.865 199.346 127.829 199.157 123.793 198.716Z" fill="#184071"/>
<path d="M174.658 213.881C177.994 209.864 177.44 203.906 173.419 200.573C169.398 197.24 163.434 197.794 160.098 201.811C156.762 205.828 157.317 211.786 161.337 215.119C165.358 218.452 171.322 217.898 174.658 213.881Z" fill="#F7C29E"/>
<path d="M162.45 203.316C161.252 202.938 160.622 201.615 161.063 200.418L162.072 197.519C162.45 196.322 163.775 195.692 164.973 196.133C166.171 196.511 166.802 197.834 166.36 199.031L165.351 201.93C164.91 203.127 163.649 203.757 162.45 203.316Z" fill="#F7C29E"/>
<path d="M180.613 204.576L172.225 205.332C170.901 205.458 169.766 204.513 169.64 203.19C169.513 201.867 170.459 200.733 171.784 200.607L180.171 199.851C181.495 199.725 182.631 200.67 182.757 201.993C182.883 203.253 181.874 204.45 180.613 204.576Z" fill="#F7C29E"/>
<path d="M178.784 212.262L170.333 211.695C169.009 211.632 168.063 210.498 168.126 209.175C168.189 207.852 169.324 206.907 170.649 206.97L179.099 207.537C180.423 207.6 181.369 208.734 181.306 210.057C181.243 211.38 180.108 212.388 178.784 212.262Z" fill="#F7C29E"/>
<path d="M264.487 187.502C264.234 187.502 263.982 187.376 263.793 187.187C263.414 186.809 263.414 186.179 263.793 185.8L273.252 176.35C273.631 175.972 274.261 175.972 274.64 176.35C275.018 176.728 275.018 177.358 274.64 177.736L265.18 187.187C264.991 187.376 264.739 187.502 264.487 187.502Z" fill="#E5531C"/>
<path d="M257.802 181.705C257.234 181.705 256.793 181.264 256.793 180.697V167.34C256.793 166.773 257.234 166.332 257.802 166.332C258.37 166.332 258.811 166.773 258.811 167.34V180.697C258.748 181.264 258.306 181.705 257.802 181.705Z" fill="#E5531C"/>
<path d="M283.658 194.18H270.288C269.721 194.18 269.279 193.739 269.279 193.172C269.279 192.605 269.721 192.164 270.288 192.164H283.658C284.225 192.164 284.667 192.605 284.667 193.172C284.604 193.739 284.162 194.18 283.658 194.18Z" fill="#E5531C"/>
<path d="M165.099 235.637H246.703C248.973 235.637 249.667 233.81 249.667 231.542H161C161 233.81 162.829 235.637 165.099 235.637Z" fill="#9E84AF"/>
<path d="M160.37 231.542H189.315C189.315 233.81 187.234 235.637 184.649 235.637H165.667C165.667 235.637 160.306 235.637 160.243 235.637C157.595 235.637 157.721 231.542 160.37 231.542Z" fill="#9E84AF"/>
<path d="M191.144 232.739H249.73C251.496 232.739 252.946 231.479 253.261 229.778L261.144 195.944C261.586 193.739 259.883 191.66 257.613 191.66H199.027C197.261 191.66 195.811 192.92 195.495 194.621L187.613 228.455C187.171 230.66 188.874 232.739 191.144 232.739Z" fill="#B4ADBB"/>
<path d="M195.496 194.558C195.685 193.613 196.189 192.794 196.946 192.29C198.018 193.109 198.649 194.432 198.397 195.881L190.45 229.778C190.261 230.723 189.757 231.479 189 232.046C187.928 231.227 187.297 229.904 187.55 228.455L195.496 194.558Z" fill="#9E84AF"/>
<path d="M232.324 216.484H222.739C220.784 216.484 219.144 214.909 219.144 212.892C219.144 210.939 220.721 209.301 222.739 209.301H232.324C234.279 209.301 235.919 210.876 235.919 212.892C235.919 214.909 234.279 216.484 232.324 216.484Z" fill="white"/>
<path d="M169.135 232.676H166.234C165.667 232.676 165.225 232.235 165.225 231.668C165.225 231.101 165.667 230.66 166.234 230.66H169.135C169.703 230.66 170.144 231.101 170.144 231.668C170.144 232.235 169.703 232.676 169.135 232.676Z" fill="#9E84AF"/>
<path d="M174.748 232.676H171.847C171.279 232.676 170.838 232.235 170.838 231.668C170.838 231.101 171.279 230.66 171.847 230.66H174.748C175.315 230.66 175.757 231.101 175.757 231.668C175.82 232.235 175.315 232.676 174.748 232.676Z" fill="#9E84AF"/>
<path d="M180.36 232.676H177.46C176.892 232.676 176.451 232.235 176.451 231.668C176.451 231.101 176.892 230.66 177.46 230.66H180.36C180.928 230.66 181.37 231.101 181.37 231.668C181.433 232.235 180.928 232.676 180.36 232.676Z" fill="#9E84AF"/>
<path d="M186.036 232.676H183.135C182.568 232.676 182.126 232.235 182.126 231.668C182.126 231.101 182.568 230.66 183.135 230.66H186.036C186.604 230.66 187.045 231.101 187.045 231.668C187.045 232.235 186.604 232.676 186.036 232.676Z" fill="#9E84AF"/>
<path d="M83.7478 216.358C83.7478 216.358 81.9189 202.749 78.6396 199.41" stroke="#1B2A67" stroke-width="0.8269" stroke-miterlimit="10" stroke-linecap="round"/>
<path d="M79.2072 191.282C80.0901 194.18 79.9009 196.826 78.8288 197.141C77.7567 197.456 76.1171 195.377 75.2342 192.479V192.416C74.4775 189.833 78.3874 188.636 79.2072 191.219C79.1441 191.219 79.2072 191.219 79.2072 191.282Z" fill="#BF4019"/>
<path d="M84.3784 197.771C81.4775 198.653 78.8288 198.464 78.5135 197.393C78.1982 196.322 80.2793 194.684 83.1802 193.802H83.2432C85.8288 193.046 87.027 196.952 84.4414 197.771C84.4414 197.771 84.4414 197.771 84.3784 197.771Z" fill="#BF4019"/>
<path d="M74.4775 200.733C77.3784 199.851 79.4595 198.275 79.1442 197.141C78.8289 196.007 76.1802 195.881 73.2793 196.763H73.2163C70.6307 197.582 71.8289 201.489 74.4144 200.733C74.4144 200.796 74.4145 200.796 74.4775 200.733Z" fill="#BF4019"/>
<path d="M79.3334 204.072C80.1532 201.174 79.901 198.527 78.8289 198.212C77.6937 197.897 76.1802 200.04 75.3604 202.938V203.001C74.6667 205.584 78.5766 206.718 79.3334 204.135V204.072Z" fill="#BF4019"/>
<path d="M82.1713 203.19C79.901 201.237 78.6398 198.905 79.3965 198.023C80.1533 197.141 82.6127 198.086 84.9461 200.04L85.0091 200.103C87.0272 201.867 84.3785 204.954 82.2974 203.253C82.2344 203.253 82.1713 203.253 82.1713 203.19Z" fill="#BF4019"/>
<path d="M80.1531 197.519C80.4054 198.275 79.9639 199.031 79.2072 199.283C78.4504 199.536 77.6936 199.094 77.4414 198.338C77.1891 197.582 77.6306 196.826 78.3873 196.574C79.1441 196.322 79.9009 196.763 80.1531 197.519Z" fill="#E5531C"/>
<path d="M78.3874 207.6C82.1711 210.561 84.3153 214.153 83.1801 215.539C82.045 216.988 78.0721 215.728 74.2883 212.766C70.5045 209.805 69.4955 204.828 69.4955 204.828C69.4955 204.828 74.6036 204.639 78.3874 207.6Z" fill="#7AA2D6"/>
<path d="M91.6306 212.073C87.6576 215.791 83.2432 217.618 81.8558 216.106C80.4684 214.594 82.5495 210.372 86.5225 206.592C90.4954 202.875 96.2973 202.56 96.2973 202.56C96.2973 202.56 95.6666 208.356 91.6306 212.073Z" fill="#7AA2D6"/>
<path d="M88.7297 232.361H75.6757L73.4054 215.98H91L88.7297 232.361Z" fill="#6E4697"/>
<path d="M91.6937 220.138H72.7117C72.2072 220.138 71.7657 219.697 71.7657 219.193V214.972C71.7657 214.468 72.2072 214.027 72.7117 214.027H91.6937C92.1982 214.027 92.6396 214.468 92.6396 214.972V219.193C92.6396 219.76 92.1982 220.138 91.6937 220.138Z" fill="#6E4697"/>
<path d="M121.964 93.4358L128.459 100.366L177.712 79.8268L121.964 93.4358Z" fill="#BF4019"/>
<path d="M124.297 70.6281L119.441 77.9367L122.721 85.1192L115.342 86.3793L108.784 100.681L179.351 79.3858L124.297 70.6281Z" fill="#E5531C"/>
<path d="M122.721 85.1192L119.441 77.9367L157.595 79.7008L122.721 85.1192Z" fill="#BF4019"/>
<path d="M119 156.251C118.432 156.251 117.928 156.251 117.36 156.251C116.793 156.251 116.351 155.81 116.414 155.243C116.414 154.676 116.919 154.172 117.423 154.298C120.009 154.298 122.532 154.298 125.306 154.172C125.306 154.172 125.306 154.172 125.369 154.172C125.874 154.172 126.315 154.613 126.378 155.117C126.378 155.684 126 156.125 125.432 156.125C123.162 156.188 121.018 156.251 119 156.251ZM109.478 155.873H109.414C106.703 155.621 103.991 155.306 101.469 154.865C100.901 154.739 100.586 154.235 100.649 153.731C100.775 153.227 101.279 152.849 101.784 152.912C104.306 153.353 106.892 153.668 109.541 153.92C110.108 153.983 110.487 154.424 110.423 154.991C110.36 155.432 109.982 155.873 109.478 155.873ZM93.8379 152.975C93.7118 152.975 93.6487 152.975 93.5226 152.912C90.937 152.093 88.4145 151.148 86.0181 150.014C85.5136 149.762 85.3244 149.195 85.5136 148.691C85.7658 148.187 86.3334 147.998 86.8379 148.187C89.1712 149.258 91.6307 150.203 94.0901 150.959C94.5947 151.148 94.91 151.652 94.7208 152.219C94.6577 152.723 94.2793 152.975 93.8379 152.975ZM79.5226 146.234C79.3334 146.234 79.1442 146.171 78.955 146.045C76.6847 144.532 74.6037 142.894 72.5856 141.067C72.2073 140.689 72.1442 140.059 72.5226 139.681C72.901 139.303 73.5316 139.24 73.91 139.618C75.8019 141.382 77.8829 142.957 80.0271 144.406C80.4685 144.721 80.5947 145.352 80.2793 145.793C80.1532 146.108 79.8379 146.234 79.5226 146.234ZM67.919 135.586C67.6037 135.586 67.3514 135.46 67.1622 135.208C65.4595 133.129 63.946 130.86 62.6217 128.529C62.3694 128.025 62.4956 127.458 63.0001 127.206C63.5046 126.954 64.0721 127.08 64.3244 127.584C65.5856 129.852 67.0992 131.995 68.6757 134.011C68.991 134.452 68.928 135.082 68.5496 135.397C68.2974 135.523 68.1082 135.586 67.919 135.586ZM60.0361 121.851C59.6577 121.851 59.2793 121.599 59.0901 121.221C58.1442 118.638 57.3874 116.054 56.8829 113.408C56.7568 112.904 57.1352 112.337 57.6397 112.274C58.2073 112.148 58.7118 112.526 58.7748 113.03C59.2793 115.55 59.973 118.008 60.919 120.465C61.1082 120.969 60.8559 121.536 60.3514 121.725C60.2883 121.788 60.1622 121.851 60.0361 121.851ZM56.8829 106.352C56.3784 106.352 55.937 105.974 55.8739 105.407C55.7478 103.769 55.7478 102.067 55.7478 100.366V99.9882C55.7478 99.1062 55.7478 98.2871 55.8109 97.405C55.8109 96.901 56.2523 96.46 56.8199 96.46C56.8199 96.46 56.8199 96.46 56.8829 96.46C57.4505 96.46 57.8289 96.964 57.8289 97.4681C57.8289 98.2871 57.7658 99.1692 57.7658 99.9882V100.366C57.7658 102.067 57.8289 103.706 57.892 105.281C57.955 105.848 57.5136 106.289 56.946 106.352C56.946 106.352 56.946 106.352 56.8829 106.352Z" fill="#E5531C"/>
<path d="M65.2072 90.6636C63.6937 90.6636 62.1802 90.6636 60.7298 90.6006C60.1622 90.6006 59.7838 90.1595 59.7838 89.5925C59.7838 89.0255 60.2252 88.6474 60.7928 88.6474C63.3153 88.7104 65.964 88.7104 68.6757 88.6474C69.3063 88.5844 69.6847 89.0885 69.6847 89.5925C69.6847 90.1595 69.2433 90.6006 68.7388 90.6006C67.5406 90.6636 66.4054 90.6636 65.2072 90.6636ZM76.6847 90.3486C76.1802 90.3486 75.7388 89.9705 75.6757 89.4035C75.6757 88.8364 76.0541 88.3954 76.6217 88.3324C79.2072 88.2064 81.8559 88.0174 84.5045 87.7654C85.009 87.7024 85.5135 88.1434 85.5766 88.6474C85.6397 89.2145 85.1982 89.6555 84.6937 89.7185C81.982 89.9705 79.2703 90.2225 76.6847 90.3486ZM52.8469 90.2225H52.7838C50.009 90.0335 47.3604 89.7185 44.8379 89.3405C44.2703 89.2775 43.8919 88.7734 44.018 88.2064C44.0811 87.6394 44.5856 87.3243 45.1532 87.3873C47.6126 87.7654 50.2613 88.0174 52.973 88.2694C53.5406 88.3324 53.9189 88.7734 53.8559 89.3405C53.7928 89.8445 53.3514 90.2225 52.8469 90.2225ZM92.5135 88.9625C92.009 88.9625 91.5676 88.5844 91.5045 88.0804C91.4415 87.5133 91.8199 87.0723 92.3874 87.0093C94.973 86.6943 97.5586 86.3793 100.27 86.0012C100.838 85.9382 101.342 86.3163 101.405 86.8203C101.469 87.3873 101.09 87.8914 100.586 87.9544C97.8739 88.3324 95.2883 88.7104 92.7027 88.9625C92.5766 88.9625 92.5135 88.9625 92.5135 88.9625ZM37.1442 87.9544C37.0811 87.9544 37.018 87.9544 36.955 87.9544C35.0631 87.5133 33.1712 87.0723 31.4054 86.5053C30.6487 86.2533 29.8919 86.0642 29.1982 85.8122C28.6937 85.6232 28.3784 85.0562 28.5676 84.5521C28.7568 84.0481 29.3243 83.7331 29.8288 83.9221C30.5225 84.1741 31.2793 84.3631 31.973 84.6151C33.6757 85.1192 35.5045 85.6232 37.3964 86.0012C37.9009 86.1273 38.2793 86.6313 38.1532 87.1983C38.027 87.6394 37.5856 87.9544 37.1442 87.9544ZM22.1351 82.851C22.009 82.851 21.8198 82.788 21.6937 82.725C19.1712 81.5279 16.8378 80.1418 14.6937 78.6297C14.2523 78.3147 14.1261 77.6846 14.4414 77.2436C14.7568 76.8026 15.3874 76.6766 15.8288 76.9916C17.8469 78.4407 20.1171 79.7638 22.5135 80.9609C23.018 81.2129 23.2072 81.7799 22.955 82.284C22.8288 82.662 22.5135 82.851 22.1351 82.851ZM56.1892 81.9689C55.6217 81.9689 55.1802 81.5279 55.1802 80.9609V80.5828C55.1802 78.0627 55.0541 75.5425 54.8649 73.0853C54.8018 72.5183 55.2433 72.0772 55.7478 72.0142C56.2523 71.9512 56.7568 72.3923 56.8198 72.8963C57.009 75.4165 57.1352 77.9997 57.1352 80.5828V80.9609C57.1352 81.5279 56.6937 81.9689 56.1892 81.9689ZM9.33334 73.5893C9.08109 73.5893 8.82883 73.4633 8.57658 73.2743C6.74775 71.2582 5.10811 68.99 3.84685 66.6588C3.5946 66.1548 3.78378 65.5878 4.22522 65.3357C4.72973 65.0837 5.2973 65.2727 5.54955 65.7138C6.74775 67.9189 8.26127 70.0611 10.027 71.9512C10.4054 72.3293 10.3423 72.9593 9.96397 73.3373C9.83784 73.5263 9.58559 73.5893 9.33334 73.5893ZM54.8649 66.1548C54.3604 66.1548 53.982 65.8398 53.9189 65.3357C53.4775 62.6265 52.8469 60.1064 52.1532 57.7122C52.0271 57.2082 52.2793 56.6411 52.8469 56.5151C53.3514 56.3261 53.9189 56.6411 54.0451 57.2081C54.7388 59.6653 55.3694 62.3115 55.8739 65.0837C55.937 65.6508 55.6216 66.1548 55.0541 66.2178C54.991 66.1548 54.928 66.1548 54.8649 66.1548ZM1.76577 59.8543C1.32433 59.8543 0.945948 59.5393 0.819822 59.0983C0.693696 58.6573 0.56757 58.2162 0.504507 57.7752C0.126128 56.2631 0 54.814 0 53.4279C0 52.5458 0.063065 51.7267 0.189191 50.9077C0.252254 50.3407 0.756756 50.0256 1.32432 50.0886C1.89189 50.1516 2.20721 50.6557 2.14415 51.2227C2.01802 51.9788 1.95495 52.7348 1.95495 53.4909C1.95495 54.751 2.14415 56.0741 2.45946 57.3972C2.58559 57.8382 2.64865 58.2792 2.77478 58.6573C2.9009 59.1613 2.58559 59.7283 2.08108 59.8543C1.95496 59.8543 1.89189 59.8543 1.76577 59.8543ZM50.3243 50.9707C49.946 50.9707 49.6306 50.7817 49.4415 50.4037C48.2433 47.9465 46.9189 45.7413 45.4054 43.8512C45.0901 43.4101 45.1532 42.7801 45.5316 42.4651C45.973 42.1501 46.6036 42.2131 46.9189 42.5911C48.4955 44.6072 49.946 46.9384 51.2072 49.5216C51.4595 50.0256 51.2072 50.5927 50.7658 50.8447C50.5766 50.9707 50.4505 50.9707 50.3243 50.9707ZM4.22522 44.7962C4.03604 44.7962 3.78379 44.7332 3.65766 44.6072C3.21622 44.2922 3.15315 43.6622 3.46847 43.2211C5.04505 41.142 7.12613 39.3149 9.64865 37.7397C10.0901 37.4877 10.7207 37.6137 11.036 38.0548C11.3514 38.4958 11.1622 39.1258 10.7207 39.4409C8.38739 40.827 6.4955 42.5281 5.04505 44.4182C4.79279 44.6702 4.54054 44.7962 4.22522 44.7962ZM40.2973 38.9368C40.1081 38.9368 39.9189 38.8738 39.7297 38.7478C37.6487 37.3617 35.3153 36.3536 32.7928 35.7236C32.2883 35.5976 31.9099 35.0305 32.0991 34.5265C32.2252 34.0225 32.7928 33.7074 33.2973 33.8335C36.009 34.5265 38.5316 35.5976 40.8649 37.1097C41.3063 37.4247 41.4325 37.9918 41.1802 38.4958C40.9279 38.7478 40.6126 38.9368 40.2973 38.9368ZM17.4054 36.4166C16.964 36.4166 16.5856 36.1646 16.4595 35.7236C16.3333 35.2196 16.5856 34.6525 17.1532 34.5265C19.6757 33.7705 22.2613 33.3294 24.9099 33.1404H25.2252C25.7297 33.1404 26.2342 33.5814 26.2342 34.0855C26.2342 34.6525 25.7928 35.0935 25.2883 35.0935H25.0991C22.5766 35.2826 20.1171 35.7236 17.7838 36.4166C17.5946 36.4166 17.4685 36.4166 17.4054 36.4166Z" fill="#E5531C"/>
<path d="M255.279 43.1581H308.126C314.748 43.1581 320.108 48.5135 320.108 55.129V82.347C320.108 88.9625 314.748 94.3178 308.126 94.3178H273.568L261.081 105.218V94.2548H255.216C248.595 94.2548 243.234 88.8995 243.234 82.284V55.066C243.297 48.4505 248.658 43.1581 255.279 43.1581Z" fill="#6E4697"/>
<path d="M262.91 59.9804H300.369C301.189 59.9804 301.883 59.2873 301.883 58.4682C301.883 57.6492 301.189 56.9561 300.369 56.9561H262.91C262.09 56.9561 261.396 57.6492 261.396 58.4682C261.459 59.2873 262.09 59.9804 262.91 59.9804Z" fill="#C9C6D9"/>
<path d="M262.91 69.9351H300.369C301.189 69.9351 301.883 69.242 301.883 68.423C301.883 67.6039 301.189 66.9109 300.369 66.9109H262.91C262.09 66.9109 261.396 67.6039 261.396 68.423C261.459 69.305 262.09 69.9351 262.91 69.9351Z" fill="#C9C6D9"/>
<path d="M294.883 79.9528H300.369C301.189 79.9528 301.883 79.2598 301.883 78.4407C301.883 77.6216 301.189 76.9286 300.369 76.9286H294.883C294.063 76.9286 293.369 77.6216 293.369 78.4407C293.432 79.2598 294.063 79.9528 294.883 79.9528Z" fill="#C9C6D9"/>
<path d="M282.396 79.9528H287.883C288.703 79.9528 289.396 79.2598 289.396 78.4407C289.396 77.6216 288.703 76.9286 287.883 76.9286H282.396C281.576 76.9286 280.883 77.6216 280.883 78.4407C280.946 79.2598 281.576 79.9528 282.396 79.9528Z" fill="#C9C6D9"/>
<path d="M262.91 79.9528H275.396C276.216 79.9528 276.91 79.2598 276.91 78.4407C276.91 77.6216 276.216 76.9286 275.396 76.9286H262.91C262.09 76.9286 261.396 77.6216 261.396 78.4407C261.459 79.2598 262.09 79.9528 262.91 79.9528Z" fill="#C9C6D9"/>
<path d="M248.595 97.4681H208.108C204.135 97.4681 200.919 100.681 200.919 104.651V127.962C200.919 131.743 203.883 134.83 207.604 135.145L199.279 148.817L221.288 135.208H248.595C252.568 135.208 255.784 131.995 255.784 128.025V104.714C255.784 100.744 252.568 97.4681 248.595 97.4681Z" fill="#C9C6D9"/>
<path d="M231.74 114.078C233.612 112.208 233.612 109.176 231.74 107.306C229.869 105.436 226.834 105.436 224.962 107.306C223.091 109.176 223.091 112.208 224.962 114.078C226.834 115.948 229.869 115.948 231.74 114.078Z" fill="#6E4697" stroke="#6E4697" stroke-width="2.7611" stroke-miterlimit="10" stroke-linecap="round" stroke-linejoin="round"/>
<path d="M239.64 126.765H217C217 122.733 220.279 119.52 224.252 119.52H232.387C236.424 119.52 239.64 122.796 239.64 126.765Z" fill="#6E4697" stroke="#6E4697" stroke-width="2.7611" stroke-miterlimit="10" stroke-linecap="round" stroke-linejoin="round"/>
<path d="M199.721 59.6023C198.396 59.6023 197.009 59.4763 195.748 59.2243C195.243 59.0983 194.865 58.5943 194.991 58.0272C195.117 57.4602 195.622 57.1452 196.189 57.2712C198.207 57.7122 200.351 57.7752 202.369 57.4602C202.937 57.3972 203.442 57.7752 203.505 58.2792C203.568 58.8463 203.189 59.3503 202.685 59.4133C201.676 59.5393 200.73 59.6023 199.721 59.6023ZM208.739 57.2712C208.36 57.2712 208.045 57.0822 207.856 56.7671C207.604 56.2631 207.793 55.6961 208.234 55.444C210.063 54.436 211.703 53.1129 213.027 51.5377C213.405 51.0967 214.036 51.0967 214.414 51.4117C214.856 51.7898 214.856 52.4198 214.541 52.7978C213.027 54.562 211.198 56.0111 209.18 57.1452C209.054 57.2712 208.865 57.2712 208.739 57.2712ZM189.883 56.7671C189.694 56.7671 189.505 56.7041 189.378 56.6411C187.423 55.381 185.721 53.8689 184.27 51.9788C183.955 51.5378 184.018 50.9077 184.46 50.5927C184.901 50.2777 185.532 50.3407 185.847 50.7817C187.108 52.4198 188.685 53.8689 190.451 54.94C190.892 55.255 191.081 55.8221 190.766 56.3261C190.514 56.5781 190.198 56.7671 189.883 56.7671ZM217.126 47.5055C217 47.5055 216.874 47.5055 216.811 47.4424C216.306 47.2534 216.054 46.6864 216.243 46.1824C216.937 44.2292 217.315 42.2131 217.315 40.0709C217.315 39.5039 217.757 39.0628 218.324 39.0628C218.892 39.0628 219.333 39.5039 219.333 40.0709C219.333 42.4021 218.955 44.6702 218.135 46.8754C217.883 47.2534 217.505 47.5055 217.126 47.5055ZM182 46.5604C181.559 46.5604 181.18 46.3084 181.054 45.8673C180.487 44.0402 180.171 42.0871 180.171 40.1339C180.171 39.7559 180.171 39.3779 180.171 39.0628C180.171 38.4958 180.676 38.1178 181.243 38.1178C181.811 38.1178 182.189 38.6218 182.189 39.1889C182.189 39.5039 182.189 39.8189 182.189 40.1969C182.189 41.9611 182.442 43.7252 182.946 45.3633C183.135 45.8673 182.82 46.4344 182.315 46.6234C182.189 46.5604 182.126 46.5604 182 46.5604ZM217.757 36.6057C217.315 36.6057 216.937 36.2906 216.811 35.8496C216.306 33.8335 215.423 31.9433 214.288 30.1792C213.973 29.7382 214.099 29.1081 214.541 28.7931C214.982 28.4781 215.613 28.6041 215.928 29.0451C217.252 30.9983 218.198 33.0774 218.766 35.3456C218.892 35.8496 218.577 36.4166 218.072 36.5427C217.883 36.6057 217.82 36.6057 217.757 36.6057ZM182.757 33.6444C182.631 33.6444 182.505 33.6444 182.378 33.5814C181.874 33.3924 181.622 32.7624 181.874 32.2583C182.82 30.1162 184.081 28.2261 185.721 26.5249C186.099 26.1469 186.73 26.1469 187.108 26.5249C187.487 26.903 187.487 27.533 187.108 27.911C185.658 29.4231 184.523 31.1243 183.64 33.0774C183.514 33.4554 183.135 33.6444 182.757 33.6444ZM210.442 25.9579C210.252 25.9579 210.063 25.8949 209.874 25.7689C208.171 24.5718 206.279 23.6897 204.261 23.1227C203.757 22.9967 203.442 22.4296 203.568 21.9256C203.694 21.4216 204.261 21.1065 204.766 21.2325C207.036 21.8626 209.117 22.8077 211.009 24.1938C211.451 24.5088 211.577 25.1388 211.261 25.5799C211.072 25.8319 210.757 25.9579 210.442 25.9579ZM191.712 24.3828C191.333 24.3828 191.018 24.1938 190.829 23.8157C190.577 23.3117 190.766 22.7447 191.27 22.4926C193.351 21.4846 195.622 20.8545 197.892 20.6655C198.396 20.6025 198.901 21.0435 198.964 21.5476C199.027 22.1146 198.586 22.5556 198.081 22.6186C196 22.8077 193.982 23.3747 192.09 24.2568C191.964 24.3828 191.838 24.3828 191.712 24.3828Z" fill="#F19C61"/>
<path d="M199.721 30.6832C192.595 30.6832 186.793 34.5265 186.793 39.2518C186.793 40.5119 187.802 41.331 188.685 40.953L192.09 39.5039C192.91 39.1258 193.288 37.9918 192.91 36.9837L192.469 35.8496C192.469 35.8496 198.712 36.9837 206.91 35.8496L206.468 37.2987C206.216 38.2438 206.532 39.2518 207.225 39.6299L210.568 41.457C211.387 41.898 212.333 41.331 212.523 40.1969C212.586 39.8819 212.586 39.5669 212.586 39.2518C212.712 34.5265 206.91 30.6832 199.721 30.6832Z" fill="#F19C61"/>
<path d="M208.739 49.4586H190.766L193.414 41.142C193.919 39.5669 195.369 38.4958 197.009 38.4958H202.432C204.072 38.4958 205.523 39.5669 206.027 41.142L208.739 49.4586Z" fill="#F1D0A4"/>
<path d="M315.505 161.04C314.18 161.04 312.793 160.914 311.532 160.662C311.027 160.536 310.649 160.032 310.775 159.465C310.901 158.961 311.406 158.583 311.973 158.709C313.991 159.15 316.135 159.213 318.153 158.898C318.721 158.835 319.225 159.213 319.288 159.717C319.351 160.284 318.973 160.788 318.469 160.851C317.46 160.977 316.451 161.04 315.505 161.04ZM324.46 158.772C324.081 158.772 323.766 158.582 323.577 158.267C323.324 157.763 323.514 157.196 323.955 156.944C325.784 155.936 327.424 154.613 328.748 153.038C329.126 152.597 329.757 152.597 330.135 152.912C330.577 153.29 330.577 153.92 330.261 154.298C328.748 156.062 326.919 157.511 324.901 158.646C324.775 158.709 324.649 158.772 324.46 158.772ZM305.604 158.204C305.415 158.204 305.225 158.141 305.099 158.078C303.144 156.818 301.442 155.306 299.991 153.416C299.676 152.975 299.739 152.345 300.18 152.03C300.622 151.715 301.252 151.778 301.568 152.219C302.829 153.857 304.406 155.306 306.171 156.377C306.613 156.692 306.802 157.259 306.487 157.763C306.297 158.078 305.982 158.204 305.604 158.204ZM332.91 149.006C332.784 149.006 332.658 149.006 332.595 148.943C332.09 148.754 331.838 148.187 332.027 147.683C332.721 145.73 333.099 143.65 333.099 141.571C333.099 141.004 333.541 140.563 334.108 140.563C334.676 140.563 335.117 141.004 335.117 141.571C335.117 143.902 334.739 146.171 333.919 148.376C333.667 148.754 333.288 149.006 332.91 149.006ZM297.784 147.998C297.342 147.998 296.964 147.746 296.838 147.305C296.27 145.478 295.955 143.524 295.955 141.571C295.955 141.193 295.955 140.815 295.955 140.5C295.955 139.933 296.523 139.555 297.027 139.555C297.595 139.555 297.973 140.059 297.973 140.626C297.973 140.941 297.973 141.256 297.973 141.634C297.973 143.398 298.225 145.163 298.73 146.801C298.919 147.305 298.604 147.872 298.099 148.061C297.973 147.998 297.847 147.998 297.784 147.998ZM333.478 138.106C333.036 138.106 332.658 137.791 332.532 137.35C332.027 135.334 331.144 133.444 330.009 131.68C329.694 131.239 329.82 130.608 330.261 130.293C330.703 129.978 331.333 130.104 331.649 130.545C332.973 132.436 333.919 134.578 334.487 136.846C334.613 137.35 334.297 137.917 333.793 138.043C333.667 138.043 333.541 138.106 333.478 138.106ZM298.478 135.145C298.351 135.145 298.225 135.145 298.099 135.082C297.595 134.893 297.342 134.263 297.595 133.759C298.541 131.617 299.802 129.726 301.442 128.025C301.82 127.647 302.451 127.647 302.829 128.025C303.207 128.403 303.207 129.033 302.829 129.411C301.379 130.923 300.243 132.625 299.36 134.578C299.234 134.893 298.856 135.145 298.478 135.145ZM326.225 127.458C326.036 127.458 325.847 127.395 325.658 127.269C323.955 126.072 322.063 125.19 320.045 124.623C319.541 124.497 319.225 123.93 319.351 123.426C319.478 122.922 320.045 122.607 320.55 122.733C322.82 123.363 324.901 124.308 326.793 125.694C327.234 126.009 327.36 126.639 327.045 127.08C326.856 127.269 326.541 127.458 326.225 127.458ZM307.433 125.883C307.054 125.883 306.739 125.694 306.55 125.316C306.297 124.812 306.487 124.245 306.991 123.993C309.072 122.985 311.342 122.355 313.613 122.166C314.18 122.103 314.622 122.544 314.685 123.048C314.748 123.615 314.306 124.056 313.802 124.119C311.721 124.308 309.703 124.875 307.811 125.757C307.748 125.82 307.559 125.883 307.433 125.883Z" fill="#F19C61"/>
<path d="M326.856 138.043H303.838V151.085H326.856V138.043Z" fill="#F1D0A4"/>
<path d="M323.703 137.035V135.46C323.703 134.263 324.649 133.318 325.847 133.318C327.045 133.318 327.991 134.263 327.991 135.46V138.106H323.766" fill="#F19C61"/>
<path d="M323.703 135.397V148.943H308V135.397C308 134.2 308.946 133.255 310.144 133.255H325.658L325.216 133.318C324.333 133.633 323.703 134.452 323.703 135.397Z" fill="#E0EEF7"/>
<path d="M312.477 135.46H309.009V139.051H312.477V135.46Z" fill="#F19C61"/>
<path d="M313.55 135.46H322.379" stroke="#F19C61" stroke-width="0.6576" stroke-miterlimit="10" stroke-linecap="round" stroke-linejoin="round"/>
<path d="M313.55 136.657H322.379" stroke="#F19C61" stroke-width="0.6576" stroke-miterlimit="10" stroke-linecap="round" stroke-linejoin="round"/>
<path d="M313.55 137.854H322.379" stroke="#F19C61" stroke-width="0.6576" stroke-miterlimit="10" stroke-linecap="round" stroke-linejoin="round"/>
<path d="M313.676 139.051H322.505" stroke="#F19C61" stroke-width="0.6576" stroke-miterlimit="10" stroke-linecap="round" stroke-linejoin="round"/>
<path d="M309.009 140.248H322.378" stroke="#F19C61" stroke-width="0.6576" stroke-miterlimit="10" stroke-linecap="round" stroke-linejoin="round"/>
<path d="M309.009 141.445H322.378" stroke="#F19C61" stroke-width="0.6576" stroke-miterlimit="10" stroke-linecap="round" stroke-linejoin="round"/>
<path d="M309.009 142.579H322.378" stroke="#F19C61" stroke-width="0.6576" stroke-miterlimit="10" stroke-linecap="round" stroke-linejoin="round"/>
<path d="M309.009 143.776H315.505" stroke="#F19C61" stroke-width="0.6576" stroke-miterlimit="10" stroke-linecap="round" stroke-linejoin="round"/>
<path d="M321.18 151.085H303.838V138.043L321.18 151.085Z" fill="#F19C61"/>
<path d="M309.514 151.085H326.856V138.043L309.514 151.085Z" fill="#F19C61"/>
<path d="M326.856 151.085H315.315H303.838L314.18 145.604C314.874 145.1 315.82 145.1 316.514 145.604L326.856 151.085Z" fill="#F19C61"/>
</svg>
