<svg width="21" height="21" viewBox="0 0 21 21" fill="none" xmlns="http://www.w3.org/2000/svg">
<path d="M10.5001 0C4.70095 0 0 4.70117 0 10.5001C0 16.299 4.70095 21.0002 10.5001 21.0002C16.299 21.0002 21 16.299 21 10.5001C21 4.70117 16.2988 0 10.5001 0ZM11.3761 17.5417C11.0472 17.8667 10.5888 18.0317 10.015 18.0317C9.42819 18.0317 8.96404 17.8706 8.63537 17.5528C8.3052 17.2333 8.13788 16.7826 8.13788 16.2131C8.13788 15.6246 8.30221 15.1688 8.62597 14.8591C8.94865 14.5514 9.4158 14.395 10.015 14.395C10.595 14.395 11.0538 14.5544 11.3797 14.8692C11.7062 15.1852 11.8721 15.6377 11.8721 16.2131C11.8721 16.7694 11.7049 17.2165 11.3761 17.5417ZM14.6222 8.61101C14.2862 9.14761 13.6464 9.75515 12.7202 10.4168C12.1182 10.8619 11.7314 11.204 11.5759 11.4297C11.4293 11.6423 11.3549 11.931 11.3549 12.2875V12.7106C11.3549 12.8876 11.2113 13.0312 11.0344 13.0312H8.77128C8.59434 13.0312 8.45073 12.8876 8.45073 12.7106V12.1505C8.45073 11.5006 8.59241 10.9256 8.87215 10.4409C9.1491 9.96137 9.65535 9.44978 10.3772 8.92023C11.0472 8.44176 11.4904 8.05261 11.6985 7.76155C11.8958 7.48439 11.996 7.17003 11.996 6.8279C11.996 6.45564 11.8646 6.18168 11.594 5.9902C11.31 5.78911 10.9004 5.68696 10.3764 5.68696C9.46773 5.68696 8.41611 5.97888 7.25124 6.55479C7.09332 6.63301 6.90099 6.56847 6.82213 6.41033L5.89981 4.55756C5.82287 4.40263 5.88228 4.21479 6.03444 4.13273C7.46387 3.36042 8.99716 2.96871 10.5916 2.96871C11.9637 2.96871 13.0733 3.30593 13.8898 3.97096C14.7155 4.64411 15.1346 5.55276 15.1346 6.6719C15.1342 7.41472 14.9619 8.06693 14.6222 8.61101Z" fill="#545358"/>
</svg>
