<svg width="61" height="69" viewBox="0 0 61 69" fill="none" xmlns="http://www.w3.org/2000/svg">
<g clip-path="url(#clip0)">
<path d="M40.28 59.35V11.35C39.3232 11.1362 38.4679 10.6026 37.8552 9.83717C37.2426 9.07179 36.9091 8.1204 36.91 7.14001V0.760006C36.9112 0.663525 36.8845 0.568757 36.833 0.487135C36.7815 0.405513 36.7076 0.340523 36.62 0.300006C36.2015 0.100768 35.7435 -0.00176389 35.28 5.59347e-06H4.28C3.71984 -0.00527919 3.16418 0.10049 2.64514 0.311203C2.12609 0.521916 1.65394 0.833394 1.25598 1.22764C0.858009 1.62189 0.542111 2.09109 0.326534 2.60814C0.110957 3.12518 -2.49246e-05 3.67982 4.19868e-09 4.24001L4.19868e-09 58.87C4.19868e-09 59.9945 0.446713 61.073 1.24187 61.8681C2.03702 62.6633 3.11548 63.11 4.24 63.11H38.08C38.7469 62.7344 39.3021 62.1883 39.6886 61.5276C40.0752 60.867 40.2793 60.1154 40.28 59.35Z" fill="#EFF2FA"/>
<path d="M40.85 11.75C40.5368 11.7492 40.2247 11.7123 39.92 11.64V58.87C39.92 59.9945 39.4733 61.073 38.6781 61.8681C37.883 62.6633 36.8045 63.11 35.68 63.11H44.11C45.2345 63.11 46.313 62.6633 47.1081 61.8681C47.9033 61.073 48.35 59.9945 48.35 58.87V13.08C48.3514 12.6208 48.2524 12.1669 48.06 11.75H40.85Z" fill="#E4EAF6"/>
<path d="M47.41 10.81L37.55 0.940009C37.2742 0.673583 36.9566 0.454024 36.61 0.290009V7.51001C36.61 8.63453 37.0567 9.71299 37.8519 10.5081C38.647 11.3033 39.7255 11.75 40.85 11.75H48.06C47.9083 11.3964 47.6873 11.0768 47.41 10.81Z" fill="#B4ADBB"/>
<path d="M36 44L36.77 42.69L33.71 40.88C31.71 39.72 30.71 39.5 28.92 40.21L26.92 40.98C26.3228 41.2085 25.6817 41.2993 25.0446 41.2456C24.4074 41.1919 23.7906 40.9952 23.24 40.67L18 37.48L10.39 50.24L17.2 54.24C17.6638 54.5096 18.0713 54.8661 18.4 55.29L20.69 58.29C22.3403 60.0006 24.2139 61.4806 26.26 62.69L28.64 64.11C29.1519 63.8715 29.5804 63.4848 29.87 63C30.2322 62.4003 30.3537 61.6857 30.21 61C30.1886 60.8929 30.1989 60.7819 30.2398 60.6806C30.2807 60.5794 30.3503 60.4922 30.44 60.43C30.5301 60.3742 30.634 60.3447 30.74 60.3447C30.846 60.3447 30.9499 60.3742 31.04 60.43L32 61C32.6435 61.3875 33.4127 61.5093 34.1444 61.3394C34.8762 61.1695 35.513 60.7214 35.92 60.09C36.2212 59.6039 36.3682 59.038 36.3414 58.4667C36.3146 57.8955 36.1154 57.3458 35.77 56.89C35.753 56.8687 35.7437 56.8423 35.7437 56.815C35.7437 56.7877 35.753 56.7613 35.77 56.74C35.7897 56.7238 35.8145 56.7149 35.84 56.7149C35.8655 56.7149 35.8903 56.7238 35.91 56.74L37.08 57.44C37.6377 57.7746 38.2935 57.9069 38.9373 57.8147C39.581 57.7224 40.1734 57.4113 40.6147 56.9336C41.056 56.456 41.3193 55.8409 41.3603 55.1919C41.4014 54.5428 41.2176 53.8995 40.84 53.37C40.8148 53.3461 40.8001 53.3132 40.7992 53.2785C40.7982 53.2439 40.8111 53.2102 40.835 53.185C40.8589 53.1598 40.8918 53.1451 40.9265 53.1442C40.9612 53.1433 40.9948 53.1561 41.02 53.18L42.5 54C43.0567 54.3366 43.7105 54.4763 44.3562 54.3965C45.0019 54.3167 45.602 54.0221 46.06 53.56C46.4063 53.18 46.6597 52.7247 46.8 52.23L36.59 46.23C36.2178 46.0109 35.9471 45.6538 35.8367 45.2363C35.7262 44.8188 35.7849 44.3745 36 44Z" fill="#FFECE3"/>
<path d="M51.74 55.16L46.52 52.07C46.4162 52.4792 46.2222 52.86 45.9522 53.1845C45.6822 53.509 45.343 53.769 44.9595 53.9454C44.576 54.1219 44.1578 54.2102 43.7357 54.2041C43.3136 54.198 42.8982 54.0975 42.52 53.91L40.45 52.69C40.2153 52.5508 39.9349 52.5105 39.6704 52.578C39.406 52.6455 39.1792 52.8153 39.04 53.05C38.9008 53.2847 38.8605 53.5651 38.928 53.8296C38.9955 54.094 39.1653 54.3208 39.4 54.46L41 55.4C40.9348 55.661 40.8303 55.9105 40.69 56.14C40.3434 56.7324 39.7926 57.1781 39.1409 57.3935C38.4892 57.6089 37.7814 57.5792 37.15 57.31L35.46 56.31C35.3438 56.2411 35.2151 56.1957 35.0814 56.1765C34.9476 56.1572 34.8114 56.1646 34.6804 56.198C34.5495 56.2314 34.4264 56.2903 34.3183 56.3713C34.2101 56.4523 34.1189 56.5538 34.05 56.67C33.9811 56.7862 33.9357 56.9149 33.9165 57.0486C33.8972 57.1824 33.9046 57.3186 33.938 57.4496C33.9714 57.5805 34.0303 57.7036 34.1113 57.8117C34.1923 57.9199 34.2938 58.0111 34.41 58.08L36 59C35.9292 59.2828 35.8144 59.5527 35.66 59.8C35.253 60.4314 34.6162 60.8795 33.8844 61.0494C33.1527 61.2193 32.3835 61.0975 31.74 60.71L30.74 60.14C30.6499 60.0842 30.546 60.0547 30.44 60.0547C30.334 60.0547 30.2301 60.0842 30.14 60.14C30.0503 60.2022 29.9807 60.2894 29.9398 60.3906C29.8989 60.4919 29.8886 60.6029 29.91 60.71C30.0537 61.3957 29.9322 62.1103 29.57 62.71C29.2637 63.2265 28.8016 63.6326 28.25 63.87L35 67.85C35.5626 68.1787 36.2316 68.2738 36.8635 68.1149C37.4954 67.956 38.0398 67.5558 38.38 67C38.6938 66.4457 38.7774 65.7904 38.6128 65.1751C38.4482 64.5597 38.0486 64.0336 37.5 63.71L40.18 65.29C40.4609 65.4586 40.7723 65.5701 41.0964 65.6181C41.4204 65.6661 41.7508 65.6496 42.0685 65.5698C42.3862 65.4899 42.685 65.3481 42.9478 65.1525C43.2106 64.9569 43.4322 64.7114 43.6 64.43C43.9112 63.8751 43.9933 63.2207 43.8289 62.6061C43.6645 61.9915 43.2666 61.4655 42.72 61.14L44.49 62.14C45.0565 62.4773 45.7335 62.5761 46.3728 62.4149C47.012 62.2537 47.5612 61.8456 47.9 61.28C48.2064 60.7237 48.2837 60.0698 48.1157 59.4574C47.9476 58.8449 47.5474 58.3221 47 58L49.17 59.29C49.4509 59.4586 49.7623 59.5701 50.0864 59.6181C50.4104 59.6661 50.7408 59.6497 51.0585 59.5698C51.3762 59.4899 51.675 59.3481 51.9378 59.1525C52.2006 58.9569 52.4222 58.7114 52.59 58.43C52.9038 57.8757 52.9874 57.2204 52.8228 56.6051C52.6582 55.9897 52.2586 55.4636 51.71 55.14L51.74 55.16Z" fill="#FFDDCE"/>
<path d="M53.92 44.14L50.43 38.24L46.34 40.62C45.7894 40.9452 45.1726 41.1419 44.5354 41.1956C43.8983 41.2493 43.2572 41.1585 42.66 40.93L40.42 40C39.7183 39.7277 38.9489 39.6823 38.22 39.87L34.78 40.73C34.0029 40.9295 33.314 41.3815 32.8217 42.015C32.3293 42.6485 32.0614 43.4277 32.06 44.23V48.81C32.0587 48.9658 32.0882 49.1203 32.1469 49.2646C32.2056 49.4089 32.2924 49.5402 32.4021 49.6508C32.5118 49.7615 32.6423 49.8493 32.7861 49.9092C32.9299 49.9691 33.0842 50 33.24 50C34.1789 50 35.0793 49.627 35.7432 48.9631C36.407 48.2993 36.78 47.3989 36.78 46.46V46.3L43.48 50.3L53.92 44.14Z" fill="#F1D0A4"/>
<path d="M53.69 43.74L43 50L51.46 55C51.7308 54.7077 52.0444 54.4582 52.39 54.26L58 51L53.69 43.74Z" fill="#ECBB88"/>
<path d="M20.19 57L18.81 58.92C18.6183 59.1794 18.3773 59.3984 18.1009 59.5647C17.8246 59.7309 17.5181 59.8411 17.1992 59.8889C16.8802 59.9367 16.5549 59.9213 16.2419 59.8434C15.9289 59.7655 15.6344 59.6267 15.375 59.435C15.1156 59.2433 14.8966 59.0023 14.7303 58.726C14.5641 58.4496 14.4539 58.1431 14.4061 57.8242C14.3583 57.5052 14.3737 57.1799 14.4516 56.867C14.5295 56.554 14.6683 56.2594 14.86 56L16.24 54.08C16.6166 53.5496 17.1885 53.1905 17.8299 53.0817C18.1475 53.0279 18.4725 53.0371 18.7865 53.1088C19.1006 53.1806 19.3974 53.3135 19.66 53.5C19.9226 53.6865 20.146 53.9229 20.3173 54.1957C20.4886 54.4685 20.6044 54.7723 20.6583 55.0899C20.7122 55.4075 20.7029 55.7325 20.6312 56.0466C20.5594 56.3606 20.4265 56.6574 20.24 56.92L20.19 57Z" fill="#F1D0A4"/>
<path d="M25.66 57.68L22.77 61.68C22.3934 62.2104 21.8215 62.5695 21.1801 62.6783C20.5387 62.7871 19.8804 62.6366 19.35 62.26C18.8196 61.8834 18.4605 61.3115 18.3517 60.6701C18.2429 60.0288 18.3934 59.3704 18.77 58.84L21.67 54.84C21.8565 54.5806 22.0922 54.3606 22.3637 54.1923C22.6353 54.024 22.9373 53.9109 23.2526 53.8594C23.5678 53.8078 23.8901 53.8189 24.2011 53.8919C24.5121 53.965 24.8056 54.0985 25.065 54.285C25.3244 54.4715 25.5445 54.7072 25.7127 54.9788C25.881 55.2503 25.9941 55.5523 26.0456 55.8676C26.0972 56.1828 26.0861 56.5051 26.0131 56.8161C25.94 57.1271 25.8065 57.4206 25.62 57.68H25.66Z" fill="#F1D0A4"/>
<path d="M29.62 60.52L26.72 64.52C26.5369 64.786 26.3025 65.0128 26.0307 65.1871C25.7589 65.3615 25.4551 65.4799 25.137 65.5355C24.8189 65.5911 24.4929 65.5828 24.1781 65.5109C23.8632 65.4391 23.5659 65.3052 23.3034 65.1172C23.0409 64.9291 22.8185 64.6906 22.6492 64.4156C22.48 64.1406 22.3672 63.8346 22.3175 63.5155C22.2679 63.1964 22.2823 62.8706 22.36 62.5572C22.4377 62.2438 22.5771 61.949 22.77 61.69L25.66 57.69C26.0366 57.1596 26.6085 56.8005 27.2499 56.6917C27.8913 56.5829 28.5496 56.7334 29.08 57.11C29.6104 57.4866 29.9695 58.0585 30.0783 58.6999C30.1871 59.3413 30.0366 59.9996 29.66 60.53L29.62 60.52Z" fill="#F1D0A4"/>
<path d="M32.28 65.15L31.28 66.49C31.0935 66.7494 30.8578 66.9695 30.5863 67.1377C30.3147 67.306 30.0127 67.4191 29.6974 67.4706C29.3822 67.5222 29.0599 67.5111 28.7489 67.4381C28.4379 67.365 28.1444 67.2315 27.885 67.045C27.6256 66.8585 27.4055 66.6228 27.2373 66.3512C27.069 66.0797 26.9559 65.7777 26.9044 65.4624C26.8528 65.1472 26.8639 64.8249 26.9369 64.5139C27.01 64.2029 27.1435 63.9094 27.33 63.65L28.33 62.31C28.5165 62.0474 28.7529 61.824 29.0257 61.6527C29.2984 61.4814 29.6023 61.3655 29.9199 61.3117C30.2375 61.2578 30.5625 61.2671 30.8765 61.3388C31.1906 61.4106 31.4874 61.5435 31.75 61.73C32.0126 61.9165 32.236 62.1529 32.4073 62.4256C32.5786 62.6984 32.6944 63.0023 32.7483 63.3199C32.8022 63.6375 32.7929 63.9625 32.7212 64.2765C32.6494 64.5906 32.5165 64.8874 32.33 65.15H32.28Z" fill="#F1D0A4"/>
<path d="M20.8 36.16L18.67 34.89C18.3872 34.7256 18.0509 34.6796 17.7344 34.7621C17.4179 34.8445 17.1467 35.0486 16.98 35.33L8.21 50.12C8.04562 50.4028 7.99963 50.7391 8.08204 51.0556C8.16445 51.3721 8.36859 51.6433 8.65 51.81L10.78 53.07C11.1204 53.2716 11.4974 53.4039 11.8891 53.4592C12.2809 53.5145 12.6797 53.4917 13.0626 53.3923C13.4456 53.2928 13.8051 53.1186 14.1204 52.8797C14.4357 52.6407 14.7007 52.3418 14.9 52L21.9 40.27C22.0988 39.9282 22.228 39.5505 22.2803 39.1586C22.3326 38.7666 22.3069 38.3682 22.2046 37.9863C22.1024 37.6043 21.9257 37.2464 21.6846 36.9329C21.4436 36.6195 21.1429 36.3568 20.8 36.16Z" fill="#487C9F"/>
<path d="M49.71 34.89L47.58 36.16C47.2391 36.3602 46.9411 36.6257 46.7031 36.9414C46.4652 37.2571 46.2919 37.6168 46.1934 37.9996C46.0949 38.3825 46.0731 38.7811 46.1291 39.1724C46.1852 39.5638 46.318 39.9402 46.52 40.28L53.52 52.01C53.7202 52.3509 53.9857 52.649 54.3014 52.8869C54.6171 53.1249 54.9768 53.2981 55.3596 53.3966C55.7425 53.4951 56.1411 53.5169 56.5324 53.4609C56.9238 53.4049 57.3002 53.272 57.64 53.07L59.77 51.81C59.9095 51.7276 60.0314 51.6184 60.1285 51.4887C60.2257 51.359 60.2963 51.2114 60.3363 51.0544C60.3762 50.8973 60.3847 50.734 60.3614 50.5736C60.338 50.4133 60.2831 50.2591 60.2 50.12L51.4 35.33C51.2333 35.0486 50.9621 34.8445 50.6456 34.7621C50.3291 34.6796 49.9928 34.7256 49.71 34.89Z" fill="#2D2D7B"/>
<path d="M41 20H7.35C7.07683 20 6.81484 19.8915 6.62168 19.6983C6.42852 19.5052 6.32 19.2432 6.32 18.97C6.32 18.6968 6.42852 18.4348 6.62168 18.2417C6.81484 18.0485 7.07683 17.94 7.35 17.94H41C41.2732 17.94 41.5352 18.0485 41.7283 18.2417C41.9215 18.4348 42.03 18.6968 42.03 18.97C42.03 19.2432 41.9215 19.5052 41.7283 19.6983C41.5352 19.8915 41.2732 20 41 20Z" fill="#E5531C"/>
<path d="M24.18 12.78H7.35C7.07683 12.78 6.81484 12.6715 6.62168 12.4783C6.42852 12.2852 6.32 12.0232 6.32 11.75C6.32 11.4768 6.42852 11.2148 6.62168 11.0217C6.81484 10.8285 7.07683 10.72 7.35 10.72H24.18C24.4532 10.72 24.7152 10.8285 24.9083 11.0217C25.1015 11.2148 25.21 11.4768 25.21 11.75C25.21 12.0232 25.1015 12.2852 24.9083 12.4783C24.7152 12.6715 24.4532 12.78 24.18 12.78Z" fill="#E5531C"/>
<path d="M41 26.3H7.35C7.07815 26.3 6.81744 26.192 6.62522 25.9998C6.43299 25.8076 6.325 25.5468 6.325 25.275C6.325 25.0032 6.43299 24.7424 6.62522 24.5502C6.81744 24.358 7.07815 24.25 7.35 24.25H41C41.2718 24.25 41.5326 24.358 41.7248 24.5502C41.917 24.7424 42.025 25.0032 42.025 25.275C42.025 25.5468 41.917 25.8076 41.7248 25.9998C41.5326 26.192 41.2718 26.3 41 26.3Z" fill="#E5531C"/>
</g>
<defs>
<clipPath id="clip0">
<rect width="60.34" height="68.2" fill="white"/>
</clipPath>
</defs>
</svg>
