<svg width="19" height="19" viewBox="0 0 19 19" fill="none" xmlns="http://www.w3.org/2000/svg">
<path d="M9.49992 11.8749C10.1412 11.8749 10.6874 11.6374 11.1703 11.1703C11.6374 10.6874 11.8749 10.1412 11.8749 9.49992C11.8749 8.85867 11.6374 8.31242 11.1703 7.8295C10.6874 7.36242 10.1412 7.12492 9.49992 7.12492C8.85867 7.12492 8.31242 7.36242 7.8295 7.8295C7.36242 8.31242 7.12492 8.85867 7.12492 9.49992C7.12492 10.1412 7.36242 10.6874 7.8295 11.1703C8.31242 11.6374 8.85867 11.8749 9.49992 11.8749ZM9.49992 1.58325C11.677 1.58325 13.5374 2.37492 15.0812 3.91867C16.6249 5.46242 17.4166 7.32284 17.4166 9.49992V10.6478C17.4166 11.4395 17.1395 12.1124 16.6249 12.6666C16.0708 13.197 15.4374 13.4583 14.6458 13.4583C13.6958 13.4583 12.912 13.0624 12.3183 12.2708C11.5266 13.0624 10.5924 13.4583 9.49992 13.4583C8.41534 13.4583 7.48117 13.0624 6.69742 12.3024C5.93742 11.5187 5.54159 10.5924 5.54159 9.49992C5.54159 8.41534 5.93742 7.48117 6.69742 6.69742C7.48117 5.93742 8.41534 5.54159 9.49992 5.54159C10.5924 5.54159 11.5187 5.93742 12.3024 6.69742C13.0624 7.48117 13.4583 8.41534 13.4583 9.49992V10.6478C13.4583 10.9724 13.5849 11.2574 13.8224 11.5028C14.0599 11.7483 14.337 11.8749 14.6458 11.8749C14.9783 11.8749 15.2553 11.7483 15.4928 11.5028C15.7303 11.2574 15.8333 10.9724 15.8333 10.6478V9.49992C15.8333 7.76617 15.2237 6.27784 13.9728 5.027C12.722 3.77617 11.2337 3.16659 9.49992 3.16659C7.76617 3.16659 6.27784 3.77617 5.027 5.027C3.77617 6.27784 3.16659 7.76617 3.16659 9.49992C3.16659 11.2337 3.77617 12.722 5.027 13.9728C6.27784 15.2237 7.76617 15.8333 9.49992 15.8333H13.4583V17.4166H9.49992C7.32284 17.4166 5.46242 16.6249 3.91867 15.0812C2.37492 13.5374 1.58325 11.677 1.58325 9.49992C1.58325 7.32284 2.37492 5.46242 3.91867 3.91867C5.46242 2.37492 7.32284 1.58325 9.49992 1.58325Z" fill="#545358"/>
</svg>
