<svg width="189" height="45" viewBox="0 0 189 45" fill="none" xmlns="http://www.w3.org/2000/svg">
<path d="M50.8844 5.3374H62.984V8.3807H54.4035V12.3722H61.9208V15.3849H54.4035V22.649H50.8844V5.3374Z" fill="white"/>
<path d="M68.5247 22.649H64.9907V5.30676H68.5097V22.649H68.5247Z" fill="white"/>
<path d="M71.7743 5.30676H75.488L82.2267 17.3882V5.30676H85.5361V22.6337H81.9871L75.0837 10.3381V22.6337H71.7743V5.30676Z" fill="white"/>
<path d="M92.11 22.649H88.5909V5.30676H92.11V22.649Z" fill="white"/>
<path d="M97.9801 17.2965C98.0849 18.0918 98.3095 18.6729 98.624 19.0705C99.208 19.7893 100.211 20.141 101.649 20.141C102.502 20.141 103.191 20.0493 103.73 19.8658C104.749 19.4987 105.243 18.8411 105.243 17.8471C105.243 17.2812 104.988 16.8377 104.494 16.5166C104 16.2107 103.206 15.9355 102.143 15.7061L100.301 15.2932C98.4892 14.8802 97.2613 14.4368 96.5724 13.9627C95.4344 13.1674 94.8503 11.9134 94.8503 10.2159C94.8503 8.65601 95.4044 7.3714 96.5275 6.34677C97.6506 5.32215 99.2829 4.80219 101.454 4.80219C103.266 4.80219 104.809 5.29156 106.081 6.25502C107.354 7.21847 108.028 8.62543 108.088 10.4759H104.674C104.614 9.43595 104.15 8.6866 103.311 8.25839C102.742 7.96783 102.038 7.83019 101.2 7.83019C100.256 7.83019 99.5225 8.01371 98.9535 8.39603C98.3994 8.77835 98.1149 9.29832 98.1149 9.97121C98.1149 10.5982 98.3844 11.057 98.9385 11.3629C99.2979 11.5617 100.047 11.8064 101.2 12.0816L104.18 12.8004C105.482 13.1216 106.471 13.5345 107.115 14.0544C108.133 14.865 108.627 16.0425 108.627 17.5871C108.627 19.1776 108.028 20.4928 106.83 21.5327C105.632 22.5726 103.94 23.1079 101.754 23.1079C99.5225 23.1079 97.7555 22.5879 96.4826 21.5633C95.2097 20.5386 94.5658 19.1164 94.5658 17.3118H97.9801V17.2965Z" fill="white"/>
<path d="M123.482 5.30676V8.38065H118.406V22.649H114.842V8.38065H109.735V5.30676H123.482Z" fill="white"/>
<path d="M138.098 8.38065H129.113V12.0663H137.364V15.079H129.113V19.5292H138.502V22.649H125.639V5.30676H138.083V8.38065H138.098Z" fill="white"/>
<path d="M152.159 5.76555C152.788 6.04082 153.312 6.43844 153.746 6.9737C154.106 7.41719 154.39 7.89127 154.6 8.42653C154.809 8.96178 154.914 9.5735 154.914 10.2464C154.914 11.0722 154.705 11.8827 154.3 12.678C153.896 13.4732 153.222 14.039 152.279 14.3602C153.057 14.6813 153.612 15.1401 153.941 15.7366C154.27 16.333 154.435 17.2353 154.435 18.4434V19.6057C154.435 20.4009 154.465 20.9362 154.525 21.2114C154.615 21.6549 154.839 21.9914 155.184 22.2055V22.6337H151.275C151.171 22.2514 151.096 21.9455 151.051 21.7008C150.961 21.2114 150.901 20.7221 150.901 20.2021L150.871 18.5963C150.856 17.4953 150.676 16.7459 150.317 16.3789C149.958 16.0118 149.284 15.8283 148.295 15.8283H144.836V22.6184H141.362V5.30676H149.478C150.647 5.33735 151.53 5.49028 152.159 5.76555ZM144.821 8.31948V12.9685H148.64C149.404 12.9685 149.973 12.8768 150.347 12.6933C151.021 12.3568 151.35 11.7145 151.35 10.7358C151.35 9.68055 151.021 8.97707 150.377 8.62533C150.018 8.42653 149.463 8.31948 148.73 8.31948H144.821Z" fill="white"/>
<path d="M169.185 5.76555C169.814 6.04082 170.338 6.43844 170.773 6.9737C171.132 7.41719 171.417 7.89127 171.626 8.42653C171.836 8.96178 171.941 9.5735 171.941 10.2464C171.941 11.0722 171.731 11.8827 171.327 12.678C170.922 13.4732 170.248 14.039 169.305 14.3602C170.084 14.6813 170.638 15.1401 170.967 15.7366C171.297 16.333 171.461 17.2353 171.461 18.4434V19.6057C171.461 20.4009 171.491 20.9362 171.551 21.2114C171.641 21.6549 171.866 21.9914 172.21 22.2055V22.6337H168.302C168.197 22.2514 168.122 21.9455 168.077 21.7008C167.987 21.2114 167.927 20.7221 167.927 20.2021L167.897 18.5963C167.882 17.4953 167.703 16.7459 167.343 16.3789C166.984 16.0118 166.31 15.8283 165.322 15.8283H161.863V22.6184H158.403V5.30676H166.52C167.673 5.33735 168.556 5.49028 169.185 5.76555ZM161.863 8.31948V12.9685H165.681C166.445 12.9685 167.014 12.8768 167.388 12.6933C168.062 12.3568 168.392 11.7145 168.392 10.7358C168.392 9.68055 168.062 8.97707 167.418 8.62533C167.059 8.42653 166.505 8.31948 165.771 8.31948H161.863Z" fill="white"/>
<path d="M187.889 8.38065H178.904V12.0663H187.155V15.079H178.904V19.5292H188.293V22.649H175.43V5.30676H187.874V8.38065H187.889Z" fill="white"/>
<path d="M51.4983 38.9359C51.7679 39.41 52.1123 39.7618 52.5316 39.9912C52.9509 40.2205 53.4451 40.3429 53.9841 40.3429C54.3286 40.3429 54.643 40.297 54.9276 40.19C55.2271 40.0829 55.4816 39.9453 55.7063 39.7465C55.9309 39.563 56.0956 39.3336 56.2304 39.0583C56.3651 38.7983 56.425 38.4924 56.425 38.156C56.425 37.7737 56.3502 37.4525 56.1854 37.1925C56.0207 36.9479 55.8111 36.7338 55.5415 36.5808C55.272 36.4126 54.9725 36.275 54.643 36.1679C54.3136 36.0456 53.9692 35.9385 53.6098 35.8162C53.2504 35.6938 52.9209 35.5715 52.5765 35.4186C52.2471 35.2656 51.9476 35.0821 51.678 34.8527C51.4085 34.6233 51.1988 34.3175 51.0341 33.9657C50.8694 33.614 50.7945 33.1705 50.7945 32.6505C50.7945 32.1612 50.8844 31.7177 51.079 31.3353C51.2737 30.953 51.5283 30.6319 51.8428 30.3872C52.1722 30.1272 52.5316 29.9437 52.9509 29.806C53.3702 29.6684 53.8045 29.6072 54.2687 29.6072C54.8677 29.6072 55.4068 29.7143 55.9159 29.9284C56.425 30.1425 56.8593 30.4942 57.2337 30.9989L56.3651 31.6412C56.1106 31.2742 55.8111 30.9989 55.4667 30.8154C55.1222 30.6319 54.7179 30.5401 54.2537 30.5401C53.9242 30.5401 53.6098 30.586 53.3253 30.6777C53.0258 30.7695 52.7712 30.8918 52.5466 31.0754C52.3219 31.2436 52.1572 31.4577 52.0225 31.7177C51.8877 31.9776 51.8278 32.2835 51.8278 32.6352C51.8278 33.1858 51.9626 33.614 52.2471 33.9199C52.5166 34.2104 52.861 34.4551 53.2803 34.6233C53.6996 34.7915 54.1489 34.9445 54.6281 35.0821C55.1073 35.2198 55.5565 35.388 55.9758 35.6021C56.3951 35.8162 56.7395 36.122 57.0091 36.5197C57.2786 36.9173 57.4283 37.4525 57.4283 38.1407C57.4283 38.6454 57.3385 39.0889 57.1588 39.4712C56.9791 39.8535 56.7245 40.19 56.4101 40.4499C56.0956 40.7099 55.7362 40.924 55.3319 41.0464C54.9276 41.184 54.4933 41.2452 54.059 41.2452C53.3402 41.2452 52.6813 41.1228 52.0823 40.8629C51.4834 40.6029 50.9592 40.1747 50.5399 39.563L51.4983 38.9359Z" fill="white"/>
<path d="M60.1837 29.8978H66.8325V30.8306H61.202V34.7762H66.4731V35.7091H61.202V40.037H67.0721V40.9699H60.1837V29.8978Z" fill="white"/>
<path d="M78.6776 40.2663C78.0486 40.6334 77.3897 40.8933 76.7009 41.0463C76.027 41.1992 75.3232 41.2757 74.6194 41.2757C73.7958 41.2757 73.0321 41.138 72.3432 40.8475C71.6544 40.5569 71.0704 40.1593 70.5762 39.6393C70.082 39.1194 69.7077 38.5076 69.4231 37.7889C69.1536 37.0701 69.0038 36.2902 69.0038 35.4491C69.0038 34.6079 69.1386 33.828 69.4231 33.1092C69.6927 32.4058 70.082 31.7787 70.5762 31.2741C71.0704 30.7541 71.6544 30.3565 72.3432 30.0659C73.0321 29.7754 73.7958 29.6224 74.6194 29.6224C76.2367 29.6224 77.5395 30.1271 78.5278 31.1517L77.794 31.9317C77.6293 31.7329 77.4346 31.5493 77.195 31.3811C76.9555 31.2129 76.7009 31.06 76.4164 30.9376C76.1318 30.8153 75.8473 30.7235 75.5328 30.6624C75.2184 30.6012 74.9189 30.5553 74.6344 30.5553C73.9305 30.5553 73.2866 30.6776 72.7176 30.9376C72.1485 31.1823 71.6694 31.5341 71.265 31.9776C70.8607 32.421 70.5612 32.9257 70.3516 33.5221C70.1419 34.1186 70.0221 34.7609 70.0221 35.4491C70.0221 36.1372 70.127 36.7795 70.3516 37.376C70.5612 37.9724 70.8757 38.4924 71.265 38.9206C71.6694 39.3641 72.1485 39.7005 72.7176 39.9605C73.2866 40.2052 73.9156 40.3428 74.6344 40.3428C75.2184 40.3428 75.7575 40.2969 76.2816 40.2052C76.7907 40.1134 77.2549 39.9452 77.6742 39.6852V35.9384H75.0686V35.0056H78.6925V40.2663H78.6776Z" fill="white"/>
<path d="M89.8189 36.7338C89.8189 37.3302 89.759 37.896 89.6242 38.4466C89.4894 38.9971 89.2648 39.4712 88.9503 39.8841C88.6359 40.297 88.2315 40.6335 87.7224 40.8934C87.2133 41.1381 86.5993 41.2758 85.8655 41.2758C85.1318 41.2758 84.5028 41.1534 84.0086 40.8934C83.4995 40.6488 83.0952 40.3123 82.7807 39.8841C82.4662 39.4712 82.2416 38.9818 82.1068 38.4466C81.9721 37.9113 81.9122 37.3302 81.9122 36.7338V29.8825H82.9305V36.4585C82.9305 36.8561 82.9604 37.2843 83.0353 37.7278C83.1102 38.1713 83.2449 38.5995 83.4546 38.9818C83.6642 39.3641 83.9637 39.6853 84.3381 39.93C84.7274 40.1747 85.2366 40.3123 85.8655 40.3123C86.4945 40.3123 87.0036 40.19 87.393 39.93C87.7823 39.6853 88.0668 39.3641 88.2765 38.9818C88.4861 38.5995 88.6209 38.1713 88.6958 37.7278C88.7706 37.2843 88.8006 36.8561 88.8006 36.4585V29.8825H89.8189V36.7338Z" fill="white"/>
<path d="M93.0384 29.8978H95.8837C96.0334 29.8978 96.2281 29.8978 96.4677 29.9131C96.7073 29.9284 96.9768 29.9589 97.2613 30.0048C97.5459 30.0507 97.8454 30.1425 98.1299 30.2495C98.4294 30.3719 98.6989 30.5248 98.9235 30.7542C99.1631 30.9683 99.3578 31.2435 99.5075 31.58C99.6573 31.9164 99.7322 32.3294 99.7322 32.8034C99.7322 33.3387 99.6423 33.7822 99.4626 34.1186C99.2829 34.4704 99.0583 34.7456 98.7888 34.9597C98.5192 35.1738 98.2197 35.3268 97.8903 35.4338C97.5608 35.5409 97.2464 35.6173 96.9618 35.6479L100.122 40.9699H98.9834L95.9286 35.7091H94.0418V40.9699H93.0235V29.8978H93.0384ZM94.0567 34.7762H96.1981C96.7372 34.7762 97.1565 34.7151 97.5009 34.5774C97.8304 34.4398 98.0849 34.2716 98.2796 34.0728C98.4593 33.8739 98.5941 33.6598 98.654 33.4304C98.7139 33.2011 98.7588 32.9869 98.7588 32.8034C98.7588 32.6199 98.7289 32.4058 98.654 32.1764C98.5941 31.947 98.4593 31.7329 98.2796 31.5341C98.0999 31.3353 97.8304 31.1671 97.5009 31.0294C97.1715 30.8918 96.7372 30.8306 96.1981 30.8306H94.0567V34.7762Z" fill="white"/>
<path d="M101.874 35.4339C101.874 34.5927 102.008 33.8128 102.293 33.094C102.562 32.3906 102.952 31.7635 103.446 31.2589C103.94 30.7389 104.524 30.3413 105.213 30.0507C105.902 29.7602 106.665 29.6072 107.489 29.6072C108.313 29.6072 109.076 29.7602 109.765 30.0507C110.454 30.3413 111.053 30.7542 111.532 31.2589C112.026 31.7788 112.401 32.3906 112.685 33.094C112.97 33.7975 113.105 34.5774 113.105 35.4339C113.105 36.275 112.97 37.0549 112.685 37.7737C112.416 38.4924 112.026 39.1042 111.532 39.6241C111.038 40.1441 110.454 40.5417 109.765 40.8323C109.076 41.1228 108.313 41.2605 107.489 41.2605C106.665 41.2605 105.902 41.1228 105.213 40.8323C104.524 40.5417 103.94 40.1441 103.446 39.6241C102.952 39.1042 102.577 38.4924 102.293 37.7737C102.008 37.0702 101.874 36.2903 101.874 35.4339ZM102.892 35.4339C102.892 36.122 102.997 36.7643 103.221 37.3608C103.431 37.9572 103.745 38.4772 104.135 38.9054C104.539 39.3489 105.018 39.6853 105.587 39.9453C106.156 40.19 106.785 40.3276 107.504 40.3276C108.223 40.3276 108.852 40.2053 109.421 39.9453C109.99 39.7006 110.469 39.3489 110.873 38.9054C111.278 38.4619 111.577 37.9572 111.787 37.3608C111.996 36.7643 112.116 36.122 112.116 35.4339C112.116 34.7457 112.011 34.1034 111.787 33.5069C111.577 32.9105 111.263 32.3906 110.873 31.9624C110.469 31.5189 109.99 31.1824 109.421 30.9224C108.852 30.6777 108.223 30.5401 107.504 30.5401C106.785 30.5401 106.156 30.6625 105.587 30.9224C105.018 31.1671 104.539 31.5189 104.135 31.9624C103.73 32.4058 103.431 32.9105 103.221 33.5069C102.997 34.1034 102.892 34.7457 102.892 35.4339Z" fill="white"/>
<path d="M116.115 38.9359C116.384 39.41 116.728 39.7618 117.148 39.9912C117.567 40.2206 118.061 40.3429 118.6 40.3429C118.945 40.3429 119.259 40.297 119.544 40.19C119.843 40.0829 120.098 39.9453 120.322 39.7465C120.547 39.563 120.712 39.3336 120.847 39.0583C120.981 38.783 121.041 38.4924 121.041 38.156C121.041 37.7737 120.966 37.4525 120.802 37.1925C120.637 36.9479 120.427 36.7338 120.158 36.5808C119.888 36.4126 119.589 36.275 119.259 36.1679C118.93 36.0456 118.585 35.9385 118.226 35.8162C117.867 35.6938 117.537 35.5715 117.193 35.4186C116.863 35.2656 116.564 35.0821 116.294 34.8527C116.025 34.6233 115.815 34.3175 115.65 33.9657C115.486 33.614 115.411 33.1705 115.411 32.6505C115.411 32.1612 115.501 31.7177 115.695 31.3353C115.89 30.953 116.144 30.6319 116.459 30.3872C116.788 30.1272 117.148 29.9437 117.567 29.806C117.986 29.6684 118.421 29.6072 118.885 29.6072C119.484 29.6072 120.023 29.7143 120.532 29.9284C121.041 30.1425 121.476 30.4942 121.85 30.9989L120.981 31.6412C120.727 31.2742 120.427 30.9989 120.083 30.8154C119.738 30.6319 119.334 30.5401 118.87 30.5401C118.54 30.5401 118.226 30.586 117.941 30.6777C117.642 30.7695 117.387 30.8918 117.163 31.0754C116.938 31.2436 116.773 31.4577 116.639 31.7177C116.504 31.9776 116.444 32.2835 116.444 32.6352C116.444 33.1858 116.579 33.614 116.863 33.9199C117.133 34.2104 117.477 34.4551 117.897 34.6233C118.316 34.7916 118.765 34.9445 119.244 35.0821C119.723 35.2198 120.173 35.388 120.592 35.6021C121.011 35.8162 121.356 36.122 121.625 36.5197C121.895 36.9173 122.045 37.4525 122.045 38.1407C122.045 38.6454 121.955 39.0889 121.775 39.4712C121.595 39.8535 121.341 40.19 121.026 40.4499C120.712 40.7099 120.352 40.924 119.948 41.0464C119.544 41.184 119.109 41.2452 118.675 41.2452C117.956 41.2452 117.298 41.1228 116.699 40.8629C116.1 40.6029 115.575 40.1747 115.156 39.563L116.115 38.9359Z" fill="white"/>
<path d="M28.6617 14.8189C24.1693 13.0143 19.6619 12.9837 15.1694 14.8189C14.5255 15.0789 14.0014 15.5224 13.9116 16.4247C13.9116 16.4552 13.8816 16.6541 13.9715 16.7305C14.226 16.9599 14.4057 16.6693 14.5854 16.5623C17.4606 14.9718 20.5154 14.4825 23.75 14.8954C25.5919 15.1248 27.3439 15.6447 29.0211 16.44C29.2457 16.547 29.5153 16.7917 29.7399 16.5623C29.9945 16.3176 29.8897 15.8435 29.71 15.6141C29.3955 15.2318 29.111 14.9871 28.6617 14.8189Z" fill="white"/>
<path d="M18.6886 12.1274C19.8117 11.9438 20.9498 11.9133 22.1028 11.898C23.0911 11.898 24.379 12.0356 25.3074 12.1579C25.8166 12.2344 26.146 11.6227 25.8315 11.2098C25.4122 10.7051 24.8282 10.1393 24.0495 9.87929C23.4955 9.69578 23.151 9.54285 21.7883 9.54285C20.3807 9.55814 19.1827 10.2157 18.2243 11.1027C17.805 11.5003 18.1195 12.2191 18.6886 12.1274Z" fill="white"/>
<path d="M39.3388 0H3.84852C1.73708 0 0 1.77398 0 3.93029V40.1593C0 42.3309 1.73708 44.0896 3.84852 44.0896H39.3238C41.4502 44.0896 43.1723 42.3156 43.1723 40.1593V3.93029C43.1873 1.77398 41.4652 0 39.3388 0ZM10.6471 35.6632C10.6171 35.6479 10.6022 35.6326 10.5722 35.6173C10.5872 35.6326 10.6171 35.6479 10.6471 35.6632ZM30.8181 17.3422C30.3988 18.0916 29.8148 18.0457 29.0661 17.7551C28.7217 17.6175 28.4521 17.8775 28.4821 18.2445C28.5569 19.1315 28.527 19.2997 28.6318 19.9726C28.8415 21.1502 28.0328 21.0125 27.8082 20.9972C27.4488 20.9819 27.1793 21.0737 27.0894 20.0797C26.9996 19.0397 26.9696 17.8775 26.5952 17.3116C26.2508 16.7917 22.4921 16.4858 21.3241 16.547C19.8865 16.6082 18.4639 16.8223 17.0713 17.1434C16.4873 17.3422 15.6187 17.6481 15.7535 18.321C15.7984 18.5962 15.8433 18.8562 15.8883 19.1162C16.4124 18.3363 17.221 17.9692 18.0446 18.1833C19.4073 18.5351 19.7368 19.6362 19.7368 21.456C19.7368 22.1748 19.5271 22.71 19.1677 23.0924C20.0513 22.9241 20.9647 22.8018 21.8782 22.71C23.8099 22.5112 25.7117 22.3889 27.6285 22.603C27.943 22.6336 28.2275 22.6948 28.5719 22.8018C28.5569 22.8477 28.5569 22.8936 28.542 22.9547C28.3323 24.117 27.4788 24.0099 26.6402 23.9794C22.7467 23.857 19.1378 24.9428 15.6786 26.6862C14.6903 27.1909 13.8667 27.8791 13.4773 28.9955C13.3575 29.3319 13.2677 29.7754 13.5372 30.0201C13.7918 30.2495 14.0613 29.8977 14.3159 29.7754C17.3558 28.139 20.6353 27.4814 24.0495 27.4814C25.2176 27.4814 26.3856 27.4509 27.5536 27.5885C28.2574 27.665 28.3473 28.1849 28.3323 28.6437C28.3173 29.179 27.7932 28.9496 27.4937 28.9649C23.6752 29.1484 19.9165 29.6683 16.4124 31.3506C15.454 31.8094 14.5705 32.4058 13.8966 33.2469C13.1329 34.2104 13.2527 35.0515 14.3159 35.6785C14.9299 36.0302 14.855 36.5349 14.7801 37.0701C14.1362 37.2842 13.7019 36.8866 13.3875 36.7031C13.073 36.5196 12.0996 35.8008 12.0098 35.7244C10.1679 34.2409 10.1529 32.6352 11.9798 31.1518C12.0697 31.0753 12.1595 30.9988 12.2644 30.8918C12.0248 30.7236 11.8151 30.5706 11.6055 30.4177C10.5722 29.6072 10.3476 28.4908 10.9616 27.3285C11.4108 26.4874 12.1146 25.9063 12.8933 25.4169C14.0913 24.6675 15.3492 24.117 16.652 23.7194C15.8134 23.49 15.4091 22.7406 15.3042 21.976C14.9149 21.976 14.4956 22.1136 14.3608 21.8689C14.0464 21.2572 14.286 19.8808 14.286 19.315C14.286 18.7186 14.0164 18.2751 13.5073 17.9998C12.3392 17.3728 11.905 16.9752 12.1296 15.8129C12.3542 14.6201 13.1179 14.4977 14.286 13.9013C14.7202 13.6872 14.8999 13.2743 15.0347 12.8461C15.6037 10.9803 16.8916 9.75691 18.5987 9.00755C19.4373 8.64052 20.186 8.31937 20.6203 7.34062C21.0695 6.33129 22.582 6.46892 22.9863 7.57001C23.3008 8.45701 23.8399 8.67111 24.6485 8.83933C26.2658 9.17578 27.1643 10.4451 27.8531 11.852C28.3473 12.8767 28.9613 13.6566 29.9646 14.253C30.324 14.4671 30.7732 14.8801 31.0428 15.5071C31.3273 16.1341 31.2225 16.6387 30.8181 17.3422Z" fill="white"/>
</svg>
