<svg width="753" height="526" viewBox="0 0 753 526" fill="none" xmlns="http://www.w3.org/2000/svg">
<path d="M683.8 510.436C645.556 481.385 580.13 409.271 666.287 296.06C772.809 156.08 645.239 98.6422 522.946 104.633C424.57 109.451 313.848 -14.22 203.395 7.87382C56.7897 37.2107 151.98 163.465 52.5896 231.474C-32.1877 289.482 4.21787 466.217 114.544 510.42H683.8V510.436Z" fill="#BFBFD8"/>
<path d="M752.823 253.726C752.237 232.964 732.901 224.913 719.983 239.938C712.582 248.56 705.513 260.922 704.198 277.469C701.25 314.476 733.614 303.747 745.723 283.935C750.889 275.487 753.124 264.219 752.823 253.726Z" fill="#BFBFD8"/>
<path d="M396.534 0.551697C376.136 -3.31551 364.122 13.865 376.057 29.6825C382.888 38.7641 393.459 48.3053 409.34 53.1235C444.858 63.9168 441.308 29.9995 424.539 13.9443C417.376 7.09741 406.852 2.50115 396.534 0.551697Z" fill="#BFBFD8"/>
<path d="M59.2939 190.742C67.4562 171.644 53.2712 156.238 35.2665 164.464C24.9328 169.187 13.3312 177.46 5.20058 191.915C-12.9943 224.279 20.8913 228.114 40.1956 215.197C48.4214 209.698 55.1731 200.394 59.2939 190.742Z" fill="#BFBFD8"/>
<path d="M600.166 387.177C585.632 401.711 601.846 402.947 591.179 413.915C581.464 423.915 567.105 414.184 568.071 438.608C568.277 443.949 564.394 447.911 558.926 449.956C549.94 453.3 541.159 450.209 535.755 444.06C535.311 443.569 534.899 443.045 534.503 442.507C530.398 436.896 528.892 429.304 531.935 421.776C534.408 415.674 538.782 409.667 546.516 407.274C564.695 401.663 554.6 377.588 569.973 376.526C588.501 375.258 589.167 368.459 602.321 359.298C616.253 349.583 619.867 367.476 600.166 387.177Z" fill="#2D2D7B"/>
<path d="M593.636 379.236C593.223 379.649 559.528 414.406 535.738 444.06C535.295 443.568 534.883 443.045 534.486 442.506C558.339 412.837 591.829 378.301 592.241 377.873C592.621 377.493 593.223 377.477 593.62 377.858C594 378.238 594.016 378.856 593.636 379.236Z" fill="#8383CC"/>
<path d="M603.889 435.692C581.113 449.1 600.893 455.852 584.093 466.074C568.767 475.394 554.043 458.657 547.37 489.373C545.912 496.093 539.794 499.77 532.345 500.546C520.094 501.814 510.156 495.142 505.402 485.743C505.021 484.983 504.657 484.206 504.34 483.413C501.027 475.108 501.614 465.187 507.827 456.787C512.867 449.988 520.237 443.917 530.649 443.426C555.089 442.285 550.271 409.065 569.734 412.71C593.206 417.085 596.218 408.843 615.538 401.679C636.031 394.087 634.763 417.528 603.889 435.692Z" fill="#43439E"/>
<path d="M598.341 423.71C597.707 424.106 544.549 456.502 505.402 485.76C505.021 484.999 504.657 484.222 504.34 483.43C543.582 454.172 596.392 421.966 597.042 421.57C597.628 421.206 598.405 421.396 598.754 421.982C599.118 422.585 598.928 423.345 598.341 423.71Z" fill="#2D2D7B"/>
<path d="M159.697 221.157C167.51 240.176 152.073 235.057 157.684 249.289C162.803 262.27 179.793 258.815 169.491 280.988C167.241 285.837 169.301 291.004 173.549 294.967C180.554 301.512 189.842 302.035 197.196 298.453C197.798 298.168 198.385 297.851 198.955 297.502C204.899 293.921 209.21 287.486 209.305 279.371C209.384 272.778 207.656 265.55 201.428 260.368C186.815 248.18 205.406 229.858 191.633 222.964C175.023 214.643 177.036 208.129 168.43 194.594C159.348 180.282 149.109 195.402 159.697 221.157Z" fill="#2D2D7B"/>
<path d="M168.777 216.355C168.983 216.894 186.703 261.953 197.226 298.485C197.829 298.2 198.415 297.883 198.986 297.534C188.414 260.97 170.822 216.18 170.6 215.641C170.41 215.134 169.839 214.897 169.332 215.087C168.825 215.277 168.587 215.848 168.777 216.355Z" fill="#8383CC"/>
<path d="M137.445 270.828C153.929 291.496 133.023 290.735 145.085 306.283C156.068 320.468 175.8 310.087 171.062 341.167C170.031 347.966 174.422 353.593 181.11 356.969C192.093 362.532 203.774 359.853 211.572 352.784C212.206 352.214 212.808 351.612 213.395 350.978C219.449 344.416 222.46 334.922 219.655 324.874C217.389 316.712 212.666 308.407 203.109 304.238C180.698 294.444 197.054 265.138 177.576 261.572C154.087 257.277 154.214 248.497 138.729 234.898C122.309 220.475 115.114 242.823 137.445 270.828Z" fill="#43439E"/>
<path d="M146.922 261.62C147.382 262.206 185.436 311.466 211.555 352.785C212.189 352.214 212.792 351.612 213.378 350.978C187.179 309.627 149.363 260.669 148.904 260.083C148.476 259.544 147.699 259.433 147.144 259.861C146.605 260.289 146.495 261.065 146.922 261.62Z" fill="#2D2D7B"/>
<path d="M248.613 252.839C255.254 248.291 271.88 259.512 280.581 273.126L272.862 251.524C270.073 249.099 265.175 245.707 257.552 242.997C245.681 238.781 233.762 232.188 240.419 227.639C246.648 223.376 261.689 232.996 270.707 245.454L260.801 217.702C258.962 216.291 256.157 214.564 252.147 213.137C244.666 210.49 237.154 206.322 241.354 203.453C244.999 200.965 253.384 205.973 259.121 212.979L255.904 203.992C254.43 201.377 252.353 197.652 249.057 194.245C241.433 186.352 235.664 177.476 241.544 176.193C247.424 174.909 257.061 190.362 258.582 204.341L260.23 208.969C258.947 198.809 262.608 186.51 267.695 186.067C272.751 185.639 269.581 193.595 265.476 200.394C262.338 205.561 261.482 209.666 261.245 211.79L269.043 233.646C267.061 217.543 272.846 198.144 280.898 197.446C288.933 196.765 283.893 209.397 277.363 220.174C272.434 228.321 271.04 234.803 270.659 238.195L280.01 264.409C278.346 248.497 284.036 229.192 291.976 229.145C298.094 229.097 296.224 237.735 288.917 249.923C283.957 258.212 282.356 265.646 281.849 269.576L286.255 281.923C285.51 282.446 284.749 282.715 283.988 282.731L282.229 277.818C279.757 275.424 274.59 271.351 265.73 268.213C253.875 263.981 241.956 257.388 248.613 252.839Z" fill="#43439E"/>
<path d="M190.192 435.976C183.377 440.256 187.054 459.972 196.104 473.365L179.336 457.69C178.226 454.171 177.053 448.323 177.608 440.24C178.464 427.671 177.148 414.12 170.317 418.416C163.93 422.441 166.783 440.066 174.628 453.284L153.105 433.155C152.535 430.905 152.075 427.64 152.36 423.408C152.899 415.483 152.075 406.941 147.764 409.651C144.039 411.997 145.292 421.696 149.428 429.732L142.455 423.218C140.648 420.825 138.048 417.433 136.226 413.058C132.01 402.931 126.162 394.103 122.643 398.984C119.125 403.882 129.474 418.859 141.694 425.801L145.292 429.161C136.479 423.947 123.737 422.41 121.312 426.911C118.903 431.38 127.477 431.634 135.338 430.556C141.329 429.732 145.434 430.572 147.479 431.206L164.437 447.055C150.458 438.829 130.346 436.42 126.51 443.552C122.691 450.653 136.289 451.049 148.778 449.353C158.209 448.069 164.707 449.369 167.972 450.367L188.306 469.371C174.375 461.525 154.389 459.069 151.187 466.328C148.715 471.922 157.384 473.634 171.474 471.78C181.047 470.512 188.512 472.017 192.316 473.111L201.889 482.066C202.666 481.59 203.22 481.004 203.537 480.307L199.734 476.741C198.513 473.507 196.833 467.168 197.467 457.769C198.339 445.217 197.023 431.681 190.192 435.976Z" fill="#43439E"/>
<path d="M533.945 259.306H170.412V510.421H533.945V259.306Z" fill="#E95E2A"/>
<path d="M533.929 259.322V275.408L352.171 436.5L170.412 275.408V259.322L352.171 420.968L533.929 259.322Z" fill="#FFBBA6"/>
<path d="M317.16 389.253L180.936 510.42H170.412V504.017L309.33 380.457L317.16 389.253Z" fill="#FFBBA6"/>
<path d="M533.948 504.873V510.42H522.457L386.249 389.253L394.079 380.457L533.948 504.873Z" fill="#FFBBA6"/>
<path d="M170.397 259.306L352.172 420.968L533.931 259.306H170.397Z" fill="#F27E5A"/>
<path d="M433.652 236.689L438.28 246.611L428.485 246.77L424.697 237.736L433.652 236.689Z" fill="#F9AF8B"/>
<path d="M435.188 245.993C435.188 245.993 437.201 243.283 438.802 243.41C440.403 243.521 452.733 253.331 456.965 254.14C461.197 254.948 460.8 259.259 459.025 259.259C453.938 259.259 425.821 259.307 425.821 259.307C425.821 259.307 424.965 249.242 426.043 246.247C427.137 243.251 431.892 246.706 435.188 245.993Z" fill="#43439E"/>
<path d="M442.021 252.84C441.878 252.888 441.704 252.872 441.561 252.793C441.276 252.634 441.181 252.27 441.339 251.984C441.387 251.889 442.686 249.655 444.43 248.767C446.744 247.594 448.55 248.91 448.614 248.957C448.883 249.147 448.931 249.528 448.741 249.781C448.55 250.051 448.17 250.098 447.916 249.908C447.869 249.876 446.617 248.989 444.969 249.813C443.558 250.526 442.401 252.539 442.385 252.555C442.29 252.698 442.163 252.793 442.021 252.84Z" fill="white"/>
<path d="M440.245 251.176C440.103 251.224 439.928 251.208 439.786 251.128C439.5 250.97 439.405 250.605 439.564 250.32C439.611 250.225 440.911 247.99 442.654 247.103C444.968 245.93 446.775 247.245 446.838 247.293C447.108 247.483 447.155 247.864 446.965 248.117C446.775 248.387 446.395 248.434 446.141 248.244C446.094 248.212 444.841 247.325 443.193 248.149C441.767 248.862 440.626 250.875 440.61 250.891C440.515 251.033 440.388 251.128 440.245 251.176Z" fill="white"/>
<path d="M444.413 254.187C444.27 254.235 444.096 254.219 443.953 254.14C443.668 253.981 443.573 253.617 443.732 253.331C443.779 253.236 445.079 251.002 446.822 250.114C449.136 248.941 450.943 250.257 451.006 250.304C451.276 250.494 451.323 250.875 451.133 251.128C450.943 251.398 450.563 251.445 450.309 251.255C450.261 251.223 449.009 250.336 447.361 251.16C445.935 251.873 444.794 253.886 444.778 253.902C444.683 254.06 444.556 254.155 444.413 254.187Z" fill="white"/>
<path d="M436.44 239.923L432.098 241.333L429.689 241.476L425.536 241.714C420.052 237.371 405.265 224.327 402.38 216.624C402.38 216.624 383.346 260.891 357.02 260.891C355.308 260.891 359.825 238.861 364.121 234.28C364.121 234.28 388.386 189.079 404.108 193.865C411.129 196.036 418.261 206.291 436.44 239.923Z" fill="#2E3052"/>
<path d="M432.097 241.349L429.688 241.492C413.538 229.272 406.073 218.923 402.618 212.282C402.507 212.044 402.301 211.981 402.174 211.981C402.063 211.981 401.984 212.044 401.921 212.171C394.186 230.366 384.914 241.286 378.495 247.245C371.49 253.743 366.371 255.883 366.165 255.962L365.864 255.233L365.562 254.52C365.61 254.504 370.698 252.364 377.497 246.025C383.789 240.176 392.871 229.446 400.478 211.553C400.764 210.871 401.382 210.443 402.095 210.412C402.872 210.38 403.601 210.824 403.981 211.553C407.468 218.241 415.155 228.812 432.097 241.349Z" fill="#001030"/>
<path d="M421.178 238.766C421.875 240.066 423.048 241.888 424.189 242.76C424.189 242.76 433.493 242.332 438.01 240.066L435.981 235.343C435.981 235.343 428.579 238.037 421.178 238.766Z" fill="#524E84"/>
<path d="M433.352 175.305C420.134 180.694 409.562 183.389 400.576 184.514C400.576 184.514 400.576 184.514 400.56 184.514C400.449 184.514 398.325 184.688 397.517 184.657C395.092 184.577 391.811 184.023 388.499 182.469C386.137 181.36 382.745 178.507 379.211 175.099C374.837 170.868 370.209 165.812 367.023 162.182C364.535 159.361 362.918 157.428 362.918 157.428C365.121 154.147 370.003 151.167 374.25 149.566C374.25 149.566 383.11 164.338 396.55 171.581C397.279 171.977 398.024 172.342 398.785 172.69C401.844 172.199 410.133 171.819 413.715 171.565C423.446 170.868 431.387 169.188 431.387 169.188L433.352 175.305Z" fill="#2D2D7B"/>
<path d="M431.038 168.712C431.038 168.712 432.877 164.069 435.381 162.737C437.885 161.406 445.017 156.73 446.539 158.141C448.06 159.536 447.743 166.256 441.356 171.866C437.283 175.448 433.178 175.29 433.178 175.29L431.038 168.712Z" fill="#F9AF8B"/>
<path d="M446.998 162.404L436.475 172.231C436.078 172.595 435.365 172.706 434.874 172.469L428.423 169.346C428.217 169.251 428.09 169.109 428.043 168.95L428.027 168.903L427.71 167.825L429.422 167.175L445.968 160.883L446.872 160.55L447.205 161.691L447.236 161.77C447.236 161.786 447.236 161.786 447.236 161.802C447.268 161.992 447.189 162.214 446.998 162.404Z" fill="#001030"/>
<path d="M445.968 160.898L429.422 167.19L438.789 158.442C439.185 158.077 439.898 157.966 440.389 158.204L445.968 160.898Z" fill="#1F2232"/>
<path d="M434.556 171.375L428.106 168.253C427.614 168.015 427.551 167.524 427.947 167.159L438.471 157.333C438.867 156.968 439.581 156.857 440.072 157.095L446.523 160.217C447.014 160.455 447.077 160.946 446.681 161.311L436.157 171.137C435.761 171.502 435.048 171.613 434.556 171.375Z" fill="#2E3052"/>
<path d="M435.334 169.615L430.341 167.206C429.85 166.969 429.786 166.477 430.183 166.113L438.361 158.473C438.757 158.109 439.47 157.998 439.962 158.236L444.954 160.645C445.445 160.883 445.509 161.374 445.113 161.738L436.934 169.378C436.538 169.742 435.825 169.853 435.334 169.615Z" fill="#2E3052"/>
<path d="M435.206 160.375C435.206 160.375 436.712 160.613 436.854 161.897C437.013 163.181 435.618 162.674 434.715 162.388C433.811 162.103 433.019 162.388 432.892 162.531C432.496 163.006 432.575 159.995 435.206 160.375Z" fill="#F9AF8B"/>
<path d="M441.911 167.381C441.911 167.381 444.257 163.514 446.064 161.406C447.268 159.995 447.87 162.04 447.062 163.466C446.222 164.877 444.605 167.777 441.911 167.381Z" fill="#F9AF8B"/>
<path d="M332.345 237.053L327.13 203.453L326.829 201.456L326.861 199.951L328.018 152.355L341.22 147.886L341.933 147.648L344.897 146.65L347.243 145.857L361.19 147.775L363.457 148.092L364.249 148.203L374.218 149.582C374.313 181.138 371.286 187.953 377.119 213.613C380.067 223.296 369.305 257.578 332.345 237.053Z" fill="#43439E"/>
<path d="M339.777 228.447C350.222 225.531 357.83 218.32 362.394 212.788C367.323 206.813 369.812 201.425 369.843 201.377C369.97 201.108 369.843 200.806 369.59 200.68C369.32 200.553 369.019 200.68 368.892 200.933C368.861 200.981 366.404 206.259 361.57 212.139C357.116 217.543 349.667 224.58 339.508 227.433C339.223 227.512 339.064 227.798 339.143 228.083C339.207 228.368 339.492 228.527 339.777 228.447Z" fill="#2D2D7B"/>
<path d="M351.633 229.018C360.699 226.53 368.322 218.874 368.671 218.526C368.877 218.32 368.877 217.987 368.671 217.781C368.465 217.575 368.132 217.575 367.926 217.781C367.831 217.876 358.861 226.878 349.161 228.479C348.876 228.527 348.685 228.796 348.733 229.081C348.78 229.367 349.05 229.557 349.335 229.509C350.112 229.398 350.888 229.224 351.633 229.018Z" fill="#2D2D7B"/>
<path d="M345.214 161.897C354.28 159.377 361.888 151.706 362.236 151.357C362.442 151.151 362.442 150.818 362.236 150.612C362.03 150.406 361.698 150.422 361.491 150.612C361.396 150.707 352.457 159.725 342.742 161.358C342.457 161.405 342.266 161.675 342.314 161.96C342.361 162.245 342.631 162.436 342.916 162.388C343.693 162.293 344.469 162.119 345.214 161.897Z" fill="#2D2D7B"/>
<path d="M424.761 324.003L428.407 332.117L420.926 335.351L416.567 326.951L424.761 324.003Z" fill="#F9AF8B"/>
<path d="M426.773 331.943C426.773 331.943 427.534 328.662 429.055 328.123C430.561 327.584 445.792 331.658 449.992 330.707C454.192 329.756 454.684 332.941 454.604 334.717C454.525 336.492 423.445 347.634 423.445 347.634C423.445 347.634 418.706 338.996 418.484 335.826C418.294 332.656 424.031 333.924 426.773 331.943Z" fill="#43439E"/>
<path d="M435.76 335.509C435.633 335.604 435.475 335.667 435.316 335.652C434.983 335.62 434.761 335.319 434.793 335.002C434.809 334.891 435.094 332.323 436.33 330.818C437.979 328.821 440.166 329.296 440.245 329.328C440.562 329.407 440.768 329.724 440.689 330.041C440.61 330.358 440.293 330.564 439.976 330.485C439.912 330.469 438.407 330.168 437.234 331.578C436.219 332.799 435.966 335.097 435.95 335.129C435.95 335.271 435.871 335.414 435.76 335.509Z" fill="white"/>
<path d="M433.477 334.685C433.35 334.78 433.191 334.843 433.033 334.828C432.7 334.796 432.478 334.495 432.51 334.178C432.526 334.067 432.811 331.499 434.047 329.994C435.695 327.997 437.883 328.472 437.962 328.504C438.279 328.583 438.485 328.9 438.406 329.217C438.326 329.534 438.009 329.74 437.693 329.661C437.629 329.645 436.123 329.344 434.951 330.754C433.936 331.975 433.683 334.273 433.667 334.305C433.667 334.447 433.588 334.59 433.477 334.685Z" fill="white"/>
<path d="M438.501 335.794C438.374 335.889 438.216 335.952 438.057 335.936C437.724 335.905 437.503 335.604 437.534 335.287C437.55 335.176 437.835 332.608 439.072 331.102C440.72 329.105 442.891 329.581 442.986 329.613C443.303 329.692 443.509 330.009 443.43 330.326C443.351 330.643 443.034 330.849 442.717 330.77C442.654 330.754 441.148 330.453 439.975 331.863C438.961 333.084 438.707 335.382 438.691 335.413C438.691 335.556 438.612 335.699 438.501 335.794Z" fill="white"/>
<path d="M426.646 325.572C425.869 326.459 423.476 327.79 420.861 328.963C420.385 329.185 419.894 329.391 419.419 329.581C418.579 329.93 417.723 330.247 416.946 330.517C416.946 330.517 399.195 297.788 392.38 274.046C392.38 274.046 332.28 266.628 330.188 245.565C330.108 244.867 330.108 244.138 330.172 243.409C330.346 241.396 331.043 239.289 332.343 237.038C333.722 234.676 354.278 236.975 365.404 240.097C365.404 240.097 395.534 251.841 406.676 263.934C412.318 270.052 426.646 325.572 426.646 325.572Z" fill="#2E3052"/>
<path d="M420.862 328.964C420.387 329.186 419.895 329.392 419.42 329.582C410.433 314.715 397.976 279.99 395.186 271.653C394.996 271.082 394.521 270.67 393.918 270.559C364.708 265.076 347.892 257.405 338.922 251.952C334.975 249.543 332.138 247.356 330.173 245.581C330.094 244.884 330.094 244.155 330.157 243.426C332.075 245.296 335.15 247.863 339.904 250.732C348.764 256.089 365.374 263.617 394.204 269.038C395.345 269.26 396.296 270.068 396.66 271.177C399.45 279.514 411.971 314.382 420.862 328.964Z" fill="#001030"/>
<path d="M413.745 327.093L416.582 331.626C416.582 331.626 423.651 330.406 428.421 325.572L426.662 321.514C426.646 321.514 418.056 325.762 413.745 327.093Z" fill="#524E84"/>
<path d="M318.08 249.48C318.08 249.48 322.169 255.027 321.836 257.896C321.504 260.764 317.795 266.169 314.831 266.438C311.867 266.692 318.239 259.496 316.733 259.718C314.91 260.004 302.643 270.068 300.06 270.068C297.476 270.068 303.103 265.392 305.306 264.204C305.306 264.204 299.505 266.803 298.158 268.15C296.81 269.497 295.828 266.597 302.58 262.492C302.58 262.492 296.383 266.01 295.97 266.058C294.592 266.248 298.522 261.636 301.914 259.972C301.914 259.972 296.953 262.397 296.446 262.397C295.749 262.413 297.238 260.78 300.931 258.751C304.244 256.913 309.68 248.481 309.68 248.481L318.08 249.48Z" fill="#F9AF8B"/>
<path d="M328.018 152.372C328.018 152.372 314.245 178.808 311.122 206.481L309.648 248.481C309.648 248.481 311.059 251.477 318.08 249.48L324.864 207.48L330.062 188.27C330.062 188.27 332.424 164.623 328.018 152.372Z" fill="#2D2D7B"/>
<path d="M355.326 136.332C363.729 136.332 370.541 129.52 370.541 121.117C370.541 112.714 363.729 105.902 355.326 105.902C346.922 105.902 340.11 112.714 340.11 121.117C340.11 129.52 346.922 136.332 355.326 136.332Z" fill="#2E3052"/>
<path d="M370.54 121.038C370.54 121.038 374.994 120.61 375.153 116.394C375.295 112.812 370.778 114.349 371.618 111.671C372.458 108.992 373.71 106.647 370.287 105.331C367.291 104.19 366.863 106.298 363.345 102.494C359.177 98.0089 353.994 105.775 349.667 105.268C343.28 104.523 341.838 107.962 340.712 110.72C339.587 113.478 341.663 115.918 341.663 115.918L370.54 121.038Z" fill="#2E3052"/>
<path d="M367.054 127.52C367.054 127.52 369.986 124.778 371.286 127.71C372.586 130.642 368.734 137.917 364.74 135.27L367.054 127.52Z" fill="#FC8664"/>
<path d="M366.104 133.051C366.262 133.083 366.437 133.004 366.5 132.845C367.594 130.579 370.24 130.04 370.256 130.04C370.462 130.008 370.589 129.802 370.557 129.612C370.526 129.406 370.32 129.279 370.129 129.311C370.003 129.327 367.102 129.913 365.834 132.528C365.739 132.719 365.818 132.94 366.009 133.02C366.04 133.036 366.072 133.036 366.104 133.051Z" fill="#FD664D"/>
<path d="M368.813 132.29C368.876 132.306 368.955 132.29 369.019 132.274C369.209 132.195 369.304 131.973 369.225 131.783C369.209 131.751 368.892 131.007 368.052 130.436C367.878 130.325 367.656 130.373 367.545 130.531C367.434 130.705 367.481 130.927 367.64 131.038C368.29 131.482 368.543 132.053 368.543 132.053C368.591 132.179 368.686 132.259 368.813 132.29Z" fill="#FD664D"/>
<path d="M347.29 138.948L345.927 146.634C345.927 146.634 348.494 150.581 351.537 151.389C354.58 152.213 357.116 148.869 357.116 148.869L358.416 141.483L347.29 138.948Z" fill="#F9AF8B"/>
<path d="M347.291 138.948L346.688 142.355C348.353 145.034 351.95 146.254 357.561 146.412L358.433 141.468L347.291 138.948Z" fill="#FC8664"/>
<path d="M342.677 117.773C342.297 120.784 341.916 124.572 341.964 127.663C341.98 128.439 342.012 129.168 342.075 129.818C342.693 135.762 345.023 146.19 357.052 144.146C362.362 143.242 365.674 138.091 367.703 132.608C369.082 128.883 369.874 125.016 370.318 122.226C370.762 119.373 369.668 116.521 367.45 114.682C361.443 109.705 354.136 109.88 349.175 110.847C345.736 111.496 343.121 114.302 342.677 117.773Z" fill="#F9AF8B"/>
<path d="M366.991 130.024C367.529 128.566 368.148 126.68 368.132 125.634C368.084 123.812 366.816 122.512 367.593 120.895C368.385 119.279 366.911 117.123 365.643 116.6C364.375 116.061 361.174 116.172 358.384 114.191C355.722 112.289 350.507 112.4 349.35 114.112C347.956 116.188 349.271 116.648 346.117 118.613C344.865 119.39 345.705 122.147 345.594 123.827C345.547 124.604 345.483 124.969 345.309 125.777L345.23 126.189L341.98 125.618C342.076 123.003 342.361 120.166 342.662 117.789C343.106 114.318 345.737 111.513 349.176 110.847C354.137 109.88 361.443 109.722 367.45 114.682C369.669 116.521 370.763 119.374 370.319 122.227C369.97 124.43 369.4 127.33 368.48 130.294L366.991 130.024Z" fill="#2E3052"/>
<path d="M343.169 127.267C343.328 126.411 343.423 125.555 343.423 124.699C343.423 123.51 343.28 122.417 342.186 121.735C341.315 121.181 340.3 121.006 339.397 121.941C337.162 124.239 337.701 132.735 342.345 131.609L343.169 127.267Z" fill="#F9AF8B"/>
<path d="M341.933 129.073C341.774 129.01 341.679 128.867 341.695 128.693C341.949 126.189 339.967 124.366 339.936 124.35C339.777 124.208 339.777 123.986 339.904 123.827C340.047 123.669 340.268 123.669 340.427 123.796C340.522 123.875 342.709 125.888 342.424 128.772C342.408 128.978 342.218 129.121 342.012 129.105C342.012 129.089 341.964 129.089 341.933 129.073Z" fill="#FC8664"/>
<path d="M340.03 127.013C339.966 126.982 339.903 126.95 339.871 126.886C339.745 126.728 339.792 126.49 339.951 126.363C339.982 126.348 340.632 125.872 341.662 125.825C341.868 125.809 342.043 125.967 342.043 126.173C342.059 126.379 341.9 126.554 341.694 126.569C340.902 126.601 340.394 126.966 340.394 126.966C340.268 127.045 340.141 127.061 340.03 127.013Z" fill="#FC8664"/>
<path d="M514.897 302.923C514.897 302.923 509.888 312.417 503.992 319.945C502.249 322.164 500.442 324.208 498.651 325.793C495.751 328.361 492.93 329.692 490.616 328.567C482.073 324.351 463.038 290.782 463.038 290.782L467.729 285.33C467.729 285.33 476.209 294.919 482.39 300.656C488.112 305.95 492.502 309.896 492.502 309.896C493.294 308.724 494.134 307.424 495.006 306.061C495.941 304.603 496.908 303.065 497.891 301.496C505.023 290.022 513.613 277.469 513.613 277.469L514.897 302.923Z" fill="#F9AF8B"/>
<path d="M468.965 288.627C468.965 288.627 470.898 285.457 470.154 282.62C469.409 279.783 468.68 273.348 465.573 273.522C464.432 273.586 466.096 276.264 465.335 278.753C465.335 278.753 462.007 277.152 459.788 275.504C457.839 274.061 453.781 271.716 451.895 270.638C451.372 270.337 450.786 270.907 451.087 271.415C451.578 272.239 452.751 273.459 455.493 275.171C455.493 275.171 448.71 271.367 447.568 272.207C446.427 273.047 455.002 277.643 455.002 277.643C455.002 277.643 448.076 274.838 447.505 275.868C447.156 276.486 453.956 280.48 453.956 280.48C453.956 280.48 447.204 278.404 448.456 279.973C448.821 280.433 461.643 286.233 464.305 292.969C464.305 292.969 468.046 290.925 468.965 288.627Z" fill="#F9AF8B"/>
<path d="M503.991 319.945C502.248 322.163 500.441 324.208 498.65 325.793L495.021 306.061C495.956 304.603 496.922 303.065 497.905 301.496L503.991 319.945Z" fill="#FC8664"/>
<path d="M513.88 276.565L495.828 302.59L501.566 325.777L515.719 303.192C515.735 303.208 518.397 288.088 513.88 276.565Z" fill="#43439E"/>
<path d="M523.137 499.278V507.488L530.808 507.377L531.315 498.66L523.137 499.278Z" fill="#F9AF8B"/>
<path d="M542.616 379.22C542.568 380.203 542.299 384.879 541.902 391.424C540.825 409.381 538.796 441.302 537.607 448.481C536.387 455.835 536.942 479.958 537.338 492.59C537.401 494.745 536.561 496.695 535.167 498.121C534.644 498.644 534.041 499.104 533.391 499.484C532.25 500.118 530.935 500.483 529.54 500.483H523.692C519.286 500.483 515.751 496.916 515.878 492.59C516.211 481.907 516.607 462.429 515.846 447.388C515.117 433.076 516.179 407.733 516.987 391.931H517.003C517.336 385.623 517.621 380.853 517.732 378.903L542.616 379.22Z" fill="#2E3052"/>
<path d="M517.732 378.903L542.615 379.22C542.568 380.203 542.298 384.879 541.902 391.424C533.454 392.439 524.642 392.866 517.003 391.931C517.32 385.623 517.605 380.853 517.732 378.903Z" fill="#001030"/>
<path d="M535.071 470.068C535.293 478.151 535.515 486.488 535.373 493.224C535.325 495.11 535.262 496.726 535.166 498.121C534.643 498.66 534.041 499.119 533.376 499.484C533.518 497.883 533.629 495.823 533.693 493.192C533.835 486.503 533.613 478.167 533.391 470.115C533.122 460.273 532.868 450.97 533.423 447.007C534.612 438.338 537.29 391.377 537.988 378.84L539.668 378.919C538.97 391.456 536.292 438.512 535.087 447.229C534.548 451.049 534.802 460.289 535.071 470.068Z" fill="#001030"/>
<path d="M525.118 507.187C525.118 507.187 523.533 504.999 522.234 505.063C520.934 505.126 510.727 512.718 507.288 513.289C503.833 513.859 504.451 516.347 505.053 517.631C505.656 518.915 532.472 517.742 532.472 517.742C532.472 517.742 533.376 509.944 532.568 507.551C531.712 505.142 527.781 507.805 525.118 507.187Z" fill="#43439E"/>
<path d="M519.445 512.512C519.572 512.544 519.699 512.544 519.825 512.481C520.063 512.354 520.142 512.069 520.016 511.847C519.968 511.767 518.969 509.961 517.575 509.232C515.72 508.265 514.231 509.263 514.167 509.311C513.945 509.453 513.898 509.755 514.056 509.961C514.215 510.167 514.516 510.23 514.722 510.072C514.769 510.04 515.8 509.358 517.115 510.056C518.256 510.642 519.16 512.275 519.176 512.29C519.239 512.401 519.334 512.481 519.445 512.512Z" fill="white"/>
<path d="M520.903 511.228C521.03 511.26 521.157 511.26 521.283 511.197C521.521 511.07 521.6 510.785 521.474 510.563C521.426 510.483 520.427 508.677 519.033 507.948C517.178 506.981 515.689 507.979 515.625 508.027C515.403 508.169 515.356 508.471 515.514 508.677C515.673 508.883 515.974 508.946 516.18 508.788C516.227 508.756 517.258 508.074 518.573 508.772C519.714 509.374 520.618 510.991 520.633 511.006C520.697 511.102 520.792 511.181 520.903 511.228Z" fill="white"/>
<path d="M517.479 513.558C517.606 513.59 517.733 513.59 517.859 513.526C518.097 513.399 518.176 513.114 518.05 512.892C518.002 512.813 517.004 511.006 515.609 510.277C513.755 509.31 512.265 510.309 512.201 510.356C511.979 510.499 511.932 510.8 512.09 511.006C512.249 511.212 512.55 511.276 512.756 511.117C512.804 511.085 513.834 510.404 515.149 511.101C516.29 511.704 517.194 513.32 517.21 513.336C517.257 513.447 517.368 513.51 517.479 513.558Z" fill="white"/>
<path d="M560.511 499.278L561.335 507.488L568.182 507.377L568.673 498.66L560.511 499.278Z" fill="#F9AF8B"/>
<path d="M574.6 447.388C573.84 462.429 574.236 481.907 574.569 492.59C574.695 496.901 571.161 500.483 566.771 500.483H560.923C559.623 500.483 558.403 500.166 557.325 499.627C556.675 499.294 556.073 498.882 555.55 498.375C553.981 496.932 553.03 494.872 553.109 492.59C553.505 479.958 554.044 455.835 552.839 448.481C551.635 441.191 549.559 408.288 548.481 390.521C548.132 384.593 547.894 380.346 547.831 379.3L572.762 379.617C572.841 380.885 572.952 382.834 573.095 385.306C573.887 399.507 575.44 430.81 574.6 447.388Z" fill="#2E3052"/>
<path d="M573.079 385.291C568.387 386.543 559.084 388.857 548.481 390.505C548.132 384.577 547.894 380.33 547.831 379.284L572.762 379.601C572.825 380.869 572.936 382.818 573.079 385.291Z" fill="#001030"/>
<path d="M557.007 493.192C557.071 495.902 557.182 497.994 557.324 499.627C556.675 499.294 556.072 498.882 555.549 498.39C555.454 496.948 555.375 495.236 555.327 493.223C555.185 486.488 555.407 478.135 555.628 470.068C555.898 460.289 556.136 451.049 555.613 447.229C554.408 438.512 551.73 391.424 551.032 378.903L552.696 378.824C553.394 391.345 556.072 438.338 557.261 447.007C557.816 450.97 557.546 460.273 557.293 470.115C557.087 478.167 556.849 486.488 557.007 493.192Z" fill="#001030"/>
<path d="M563.997 506.22C563.997 506.22 567.484 505.301 568.451 505.333C569.418 505.348 575.884 512.433 578.056 512.845C582.002 513.606 582.002 519.644 579.609 519.946C572.667 520.817 560.78 517.933 560.78 517.933C560.78 517.933 559.686 510.182 560.162 507.758C560.637 505.317 562.064 506.933 563.997 506.22Z" fill="#43439E"/>
<path d="M569.749 512.829C569.622 512.861 569.496 512.829 569.385 512.766C569.163 512.623 569.099 512.322 569.258 512.116C569.306 512.037 570.494 510.341 571.952 509.739C573.902 508.946 575.281 510.087 575.344 510.135C575.55 510.309 575.566 510.61 575.392 510.801C575.217 510.991 574.916 511.022 574.71 510.848C574.678 510.816 573.712 510.04 572.317 510.61C571.128 511.102 570.066 512.623 570.05 512.639C569.971 512.75 569.86 512.813 569.749 512.829Z" fill="white"/>
<path d="M568.419 511.403C568.292 511.435 568.166 511.403 568.055 511.34C567.833 511.197 567.769 510.896 567.928 510.69C567.975 510.611 569.164 508.915 570.622 508.312C572.572 507.52 573.951 508.661 574.014 508.709C574.22 508.883 574.236 509.184 574.062 509.374C573.887 509.564 573.586 509.596 573.38 509.422C573.348 509.39 572.382 508.614 570.987 509.184C569.798 509.675 568.736 511.197 568.72 511.213C568.641 511.308 568.53 511.387 568.419 511.403Z" fill="white"/>
<path d="M571.604 514.05C571.477 514.081 571.35 514.05 571.239 513.986C571.017 513.843 570.954 513.542 571.112 513.336C571.16 513.257 572.349 511.561 573.807 510.959C575.756 510.166 577.135 511.308 577.199 511.355C577.405 511.529 577.42 511.831 577.246 512.021C577.072 512.211 576.771 512.243 576.565 512.068C576.533 512.037 575.566 511.26 574.171 511.831C572.983 512.322 571.921 513.844 571.905 513.859C571.826 513.954 571.731 514.018 571.604 514.05Z" fill="white"/>
<path d="M578.404 381.74C555.882 387.287 533.392 387.303 510.918 381.74C510.807 373.514 510.68 340.627 511.33 313.636C511.346 313.113 511.362 312.574 511.362 312.051C511.362 311.798 511.378 311.528 511.378 311.275V311.227C511.394 310.894 511.394 310.561 511.41 310.229C511.885 292.43 512.725 277.896 514.167 275.947C517.527 271.43 534.375 264.218 539.035 261.001C539.431 261.619 541.713 265.011 544.725 265.264C548.021 265.55 550.953 261.746 550.953 261.746V261.033C555.629 264.25 570.907 270.923 574.252 275.424C577.929 280.369 578.563 367.729 578.404 381.74Z" fill="#43439E"/>
<path d="M518.209 300.973C516.276 303.54 513.455 309.341 512.187 312.02C512.012 312.384 511.87 312.701 511.759 312.939C511.616 313.24 511.537 313.43 511.537 313.446C511.489 313.541 511.426 313.605 511.347 313.668C511.363 313.145 511.378 312.606 511.378 312.083C511.378 311.829 511.394 311.56 511.394 311.306V311.259C511.648 310.72 511.965 310.07 512.298 309.373C513.74 306.425 515.8 302.463 517.354 300.386C517.528 300.165 517.845 300.117 518.083 300.275C518.336 300.418 518.384 300.751 518.209 300.973Z" fill="#2D2D7B"/>
<path d="M561.318 281.097H561.302C552.347 280.812 545.453 277.167 541.237 274.155C536.673 270.89 534.248 267.736 534.153 267.61C533.978 267.388 534.026 267.071 534.264 266.896C534.501 266.722 534.818 266.77 534.993 267.007C535.088 267.134 544.74 279.56 561.35 280.083C561.635 280.099 561.857 280.321 561.857 280.606C561.841 280.891 561.603 281.097 561.318 281.097Z" fill="#2D2D7B"/>
<path d="M531.19 364.592C530.92 364.592 530.683 364.386 530.667 364.116C530.651 363.831 530.873 363.593 531.158 363.577C545.834 362.626 554.599 355.352 559.354 349.392C564.537 342.926 566.248 336.586 566.264 336.523C566.343 336.253 566.629 336.079 566.898 336.158C567.183 336.222 567.342 336.507 567.278 336.776C567.215 337.046 565.503 343.354 560.21 349.979C555.312 356.112 546.31 363.609 531.237 364.576C531.206 364.592 531.19 364.592 531.19 364.592Z" fill="#2D2D7B"/>
<path d="M539.065 355.446C538.828 355.446 538.622 355.303 538.558 355.066C538.479 354.796 538.653 354.511 538.923 354.432C551.681 351.056 554.138 340.611 554.17 340.516C554.233 340.247 554.503 340.072 554.788 340.12C555.073 340.183 555.248 340.453 555.184 340.722C555.152 340.833 554.534 343.559 552.252 346.745C550.144 349.677 546.182 353.56 539.192 355.414C539.161 355.446 539.113 355.446 539.065 355.446Z" fill="#2D2D7B"/>
<path d="M594.934 380.837C594.617 385.306 591.875 388.634 591.859 391.582C591.843 394.53 588.372 392.597 589.989 386.78C591.59 380.963 589.212 375.337 587.944 375.384C586.676 375.432 588.357 381.946 587.009 384.102C585.678 386.257 584.664 381.724 583.491 378.919C582.27 376.003 582.952 369.964 584.061 365.716C585.171 361.469 579.75 334.494 580.464 326.886L578.514 317.028L577.373 311.274L577.167 305.268L587.596 301.226C587.992 303.16 588.388 305.157 588.784 307.154C588.959 308.041 589.133 308.929 589.307 309.816C590.702 317.012 591.954 324.081 592.461 328.629C593.872 341.182 591.558 366.81 591.558 366.81C591.558 366.81 595.235 376.652 594.934 380.837Z" fill="#F9AF8B"/>
<path d="M589.276 309.816C586.931 312.447 583.158 315.807 578.483 317.028L577.342 311.274L577.136 305.268L587.564 301.226C587.961 303.16 588.357 305.157 588.753 307.154C588.943 308.041 589.118 308.929 589.276 309.816Z" fill="#FC8664"/>
<path d="M592.177 304.127C592.177 304.127 590.941 305.569 588.754 307.154C586.123 309.088 582.129 311.227 577.358 311.275C576.787 294.633 575.932 280.575 574.695 276.438C576.898 279.101 587.47 292.208 592.177 304.127Z" fill="#43439E"/>
<path d="M570.21 299.293C572.144 301.86 574.965 307.661 576.233 310.34C576.407 310.704 576.55 311.021 576.661 311.259C576.803 311.56 576.883 311.75 576.883 311.75C576.962 311.94 577.152 312.051 577.358 312.051H577.374C577.374 311.798 577.358 311.528 577.358 311.275C577.517 311.275 577.659 311.275 577.818 311.275C577.754 311.116 577.58 310.752 577.342 310.244C577.041 309.595 576.613 308.691 576.122 307.677C574.68 304.729 572.619 300.767 571.066 298.69C570.892 298.468 570.575 298.421 570.337 298.579C570.083 298.754 570.036 299.071 570.21 299.293Z" fill="#2D2D7B"/>
<path d="M560.779 234.28C560.779 243.298 555.121 249.511 545.912 249.511C536.704 249.511 530.301 242.838 530.301 233.82C530.301 224.802 535.753 217.971 544.945 217.971C555.976 217.971 560.779 225.277 560.779 234.28Z" fill="#2E3052"/>
<path d="M558.704 238.163C558.704 238.163 561.256 234.818 563.158 237.592C565.06 240.35 562.365 248.512 557.722 246.515L558.704 238.163Z" fill="#FC8664"/>
<path d="M558.75 243.995C558.925 243.995 559.083 243.884 559.131 243.71C559.86 241.19 562.507 240.175 562.538 240.159C562.744 240.08 562.839 239.858 562.76 239.668C562.681 239.462 562.459 239.367 562.253 239.446C562.126 239.494 559.194 240.603 558.37 243.504C558.307 243.71 558.433 243.916 558.639 243.979C558.671 243.995 558.703 243.995 558.75 243.995Z" fill="#FD664D"/>
<path d="M561.429 242.727C561.508 242.727 561.572 242.712 561.635 242.664C561.825 242.553 561.873 242.315 561.746 242.125C561.73 242.093 561.255 241.396 560.272 240.952C560.082 240.857 559.844 240.952 559.749 241.143C559.654 241.333 559.749 241.57 559.955 241.65C560.716 241.983 561.08 242.521 561.096 242.537C561.175 242.664 561.302 242.727 561.429 242.727Z" fill="#FD664D"/>
<path d="M532.362 238.163C532.362 238.163 529.81 234.818 527.908 237.592C526.006 240.35 528.701 248.512 533.344 246.515L532.362 238.163Z" fill="#FC8664"/>
<path d="M532.33 243.995C532.155 243.995 531.997 243.884 531.949 243.71C531.22 241.19 528.558 240.176 528.542 240.16C528.336 240.08 528.241 239.859 528.32 239.668C528.399 239.462 528.621 239.367 528.827 239.447C528.954 239.494 531.886 240.603 532.71 243.504C532.773 243.71 532.647 243.916 532.441 243.979C532.409 243.995 532.361 243.995 532.33 243.995Z" fill="#FD664D"/>
<path d="M529.651 242.727C529.572 242.727 529.509 242.711 529.445 242.664C529.255 242.553 529.208 242.315 529.334 242.125C529.35 242.093 529.826 241.396 530.808 240.952C530.999 240.857 531.236 240.952 531.331 241.142C531.427 241.332 531.331 241.57 531.125 241.649C530.365 241.982 530 242.521 529.984 242.537C529.905 242.664 529.778 242.727 529.651 242.727Z" fill="#FD664D"/>
<path d="M539.24 253.426V261.54C539.24 261.54 541.713 265.677 545.041 265.946C548.369 266.232 551.333 262.396 551.333 262.396V253.996L539.24 253.426Z" fill="#F9AF8B"/>
<path d="M539.24 253.426V257.023C541.475 259.464 545.453 260.066 551.349 259.21V253.996L539.24 253.426Z" fill="#FC8664"/>
<path d="M560.081 237.909C559.954 239.621 559.748 241.444 559.416 243.25C558.306 249.226 555.802 255.106 550.413 256.992C538.209 261.255 533.851 251.017 532.107 245.041C531.917 244.376 531.743 243.647 531.584 242.854C531.315 241.428 531.093 239.843 530.919 238.242C530.713 236.309 530.586 234.343 530.507 232.616C530.332 228.986 532.551 225.642 536.022 224.327C541.031 222.44 548.622 220.951 555.818 224.961C558.48 226.434 560.145 229.176 560.208 232.172C560.256 233.773 560.224 235.77 560.081 237.909Z" fill="#F9AF8B"/>
<path d="M558.561 238.242C558.149 238.971 555.866 245.881 555.232 246.848C553.79 243.741 546.832 245.992 546.832 245.992C546.389 246.135 545.945 246.198 545.485 246.198C545.041 246.198 544.598 246.135 544.17 245.992L544.138 245.976C544.138 245.976 537.101 243.821 535.706 247.07C535.056 246.103 533.075 239.319 532.711 238.21H530.936C531.11 239.811 531.316 241.396 531.601 242.822C531.76 243.615 531.918 244.344 532.124 245.009C533.868 250.984 538.226 261.239 550.43 256.96C555.819 255.074 558.323 249.194 559.432 243.218C559.765 241.412 559.987 239.605 560.098 237.877L558.561 238.242ZM551.999 250.874C551.46 251.381 550.906 251.809 550.351 252.094C547.26 253.726 546.927 253.489 545.707 253.536C544.471 253.6 542.759 253.235 541.016 252.284C540.477 251.983 539.668 251.412 538.781 250.62C538.781 250.62 537.529 246.42 545.485 247.466C553.489 246.135 552.142 250.049 551.999 250.874Z" fill="#2E3052"/>
<path d="M530.935 238.242H532.71C532.519 236.483 532.234 233.408 533.692 232.964C538.336 231.569 532.313 228.352 534.421 226.751C536.514 225.15 541.728 225.832 545.357 225.721C549.003 225.61 554.883 225.658 556.293 225.975C557.72 226.292 556.943 228.621 556.42 230.412C555.897 232.203 558.164 234.2 558.544 236.055C558.655 236.594 558.623 237.386 558.544 238.242H560.034C560.208 235.975 560.24 233.867 560.208 232.156C560.145 229.16 558.48 226.418 555.818 224.944C548.622 220.95 541.015 222.44 536.022 224.326C532.551 225.626 530.332 228.97 530.507 232.6C530.602 234.327 530.729 236.292 530.935 238.242Z" fill="#2E3052"/>
<path d="M269.599 435.612H179.132C180.622 426.531 187.833 419.937 196.217 419.969L224.365 420.048L252.514 419.969C260.898 419.937 268.109 426.531 269.599 435.612Z" fill="white"/>
<path d="M191.178 434.312H186.249V518.662H191.178V434.312Z" fill="white"/>
<path d="M262.484 434.312H257.555V518.662H262.484V434.312Z" fill="white"/>
<path d="M257.555 457.944H191.179V462.699H257.555V457.944Z" fill="#DCEDF9"/>
<path d="M202.207 322.053C202.207 322.053 187.103 342.197 185.09 359.774C183.664 372.184 202.207 390.727 202.207 390.727L208.594 387.542L202.223 373.182C199.957 366.193 197.167 363.435 199.227 356.366L203.84 346.429L202.207 322.053Z" fill="#2D2D7B"/>
<path d="M249.817 321.752C249.817 321.752 264.731 343.243 265.967 360.883C267.029 376.099 248.771 390.743 248.771 390.743L243.493 388.112L250.8 373.61C253.066 366.621 254.144 362.405 251.053 354.797L247.138 346.461L249.817 321.752Z" fill="#2D2D7B"/>
<path d="M205.281 367.952L195.265 399.809C195.265 399.809 238.628 405.341 251.894 401.759L245.158 367.065L249.818 321.752C243.335 319.01 236.441 317.267 229.42 316.759C219.165 316.014 212.683 317.71 202.207 322.053L205.281 367.952Z" fill="#43439E"/>
<path d="M216.121 331.674C225.694 330.548 234.585 323.987 234.997 323.686C235.235 323.511 235.282 323.179 235.108 322.941C234.934 322.703 234.601 322.656 234.363 322.83C234.252 322.909 223.792 330.628 213.712 330.77C213.41 330.77 213.188 331.024 213.188 331.309C213.188 331.61 213.442 331.848 213.727 331.832C214.52 331.816 215.328 331.753 216.121 331.674Z" fill="#2D2D7B"/>
<path d="M223.842 502.369L224.618 509.406L232.099 509.565L232.733 503.732L223.842 502.369Z" fill="#F9AF8B"/>
<path d="M222.668 390.823C222.668 390.823 203.3 389.761 196.723 395.134C190.161 400.507 191.477 415.912 198.165 420.112C204.854 424.312 216.249 432.585 216.249 432.585L223.492 504.652L233.065 504.985C233.065 504.985 241.893 432.585 237.424 418.575C232.954 404.548 222.668 390.823 222.668 390.823Z" fill="#001030"/>
<path d="M233.969 501.403C234.492 503.083 234.238 504.715 233.715 506.332L222.7 506.094C222.304 504.493 222.256 502.877 222.494 501.26L233.969 501.403Z" fill="#2E3052"/>
<path d="M250.088 390.284H199.243L194.552 362.801C194.14 360.424 195.979 358.253 198.388 358.253H250.944C253.353 358.253 255.191 360.424 254.779 362.801L250.088 390.284Z" fill="white"/>
<path d="M244.398 396.259H204.981C201.811 396.259 199.243 393.692 199.243 390.522V390.284H250.135V390.522C250.135 393.692 247.567 396.259 244.398 396.259Z" fill="#DCEDF9"/>
<path d="M229.183 375.402C229.183 377.843 227.202 379.824 224.761 379.824C222.32 379.824 220.339 377.843 220.339 375.402C220.339 372.961 222.32 370.98 224.761 370.98C227.217 370.98 229.183 372.961 229.183 375.402Z" fill="#DCEDF9"/>
<path d="M192.063 482.574L190.398 489.547L197.119 490.863L199.845 484.65L192.063 482.574Z" fill="#F9AF8B"/>
<path d="M232.51 389.634C232.51 389.634 219.529 385.165 211.922 394.563C204.314 403.962 191.571 483.287 191.571 483.287L200.304 486.885L228.373 416.435C228.373 416.435 251.228 429.479 254.001 410.935C256.204 396.259 232.51 389.634 232.51 389.634Z" fill="#2E3052"/>
<path d="M202.286 483.24C202.255 485.062 201.478 486.584 200.448 487.994L189.718 484.206C189.86 482.51 190.32 480.91 191.065 479.388L202.286 483.24Z" fill="#524E84"/>
<path d="M195.519 488.39C195.519 488.39 191.446 486.33 190.257 486.092C189.052 485.854 179.163 492.876 176.357 492.812C171.27 492.685 169.653 500.15 172.538 501.165C180.89 504.097 196.359 503.732 196.359 503.732C196.359 503.732 199.798 494.445 199.862 491.306C199.925 488.184 197.722 489.801 195.519 488.39Z" fill="#43439E"/>
<path d="M186.629 495.031C186.771 495.094 186.946 495.11 187.104 495.047C187.421 494.92 187.564 494.587 187.437 494.27C187.389 494.175 186.391 491.75 184.742 490.625C182.555 489.119 180.542 490.165 180.447 490.213C180.146 490.371 180.051 490.736 180.21 491.021C180.368 491.306 180.748 491.417 181.034 491.259C181.081 491.227 182.492 490.53 184.045 491.592C185.392 492.511 186.28 494.682 186.296 494.698C186.391 494.857 186.502 494.968 186.629 495.031Z" fill="white"/>
<path d="M188.655 493.62C188.798 493.684 188.972 493.7 189.13 493.636C189.447 493.509 189.59 493.177 189.463 492.86C189.416 492.764 188.417 490.339 186.769 489.214C184.582 487.709 182.569 488.755 182.474 488.802C182.173 488.961 182.077 489.325 182.236 489.61C182.394 489.896 182.775 490.007 183.06 489.848C183.108 489.816 184.518 489.119 186.071 490.181C187.419 491.1 188.306 493.272 188.322 493.287C188.417 493.446 188.528 493.557 188.655 493.62Z" fill="white"/>
<path d="M184.012 496.029C184.155 496.093 184.329 496.109 184.488 496.045C184.805 495.918 184.947 495.586 184.821 495.269C184.773 495.174 183.775 492.749 182.126 491.623C179.939 490.118 177.926 491.164 177.831 491.211C177.53 491.37 177.435 491.734 177.593 492.02C177.752 492.305 178.132 492.416 178.418 492.257C178.465 492.226 179.876 491.528 181.429 492.59C182.776 493.509 183.664 495.681 183.679 495.697C183.759 495.855 183.87 495.966 184.012 496.029Z" fill="white"/>
<path d="M227.503 509.105C227.503 509.105 231.671 507.837 232.828 507.821C233.985 507.805 242.116 516.031 244.762 516.427C249.565 517.157 249.85 524.431 246.965 524.907C238.629 526.286 224.158 523.369 224.158 523.369C224.158 523.369 222.478 514.082 222.938 511.118C223.398 508.186 225.204 510.056 227.503 509.105Z" fill="#43439E"/>
<path d="M234.744 516.808C234.601 516.84 234.427 516.824 234.284 516.745C234.015 516.586 233.92 516.237 234.094 515.968C234.157 515.873 235.489 513.765 237.232 512.988C239.53 511.942 241.258 513.258 241.337 513.305C241.591 513.496 241.622 513.86 241.432 514.098C241.226 514.351 240.862 514.383 240.624 514.193C240.576 514.161 239.372 513.274 237.739 514.019C236.329 514.653 235.124 516.554 235.108 516.57C235.013 516.681 234.886 516.776 234.744 516.808Z" fill="white"/>
<path d="M233.08 515.16C232.937 515.191 232.763 515.176 232.62 515.096C232.351 514.938 232.256 514.589 232.43 514.32C232.493 514.225 233.825 512.117 235.568 511.34C237.882 510.294 239.594 511.609 239.673 511.657C239.927 511.847 239.958 512.212 239.768 512.449C239.562 512.703 239.198 512.735 238.96 512.545C238.912 512.513 237.708 511.625 236.075 512.37C234.665 513.02 233.46 514.906 233.444 514.922C233.349 515.033 233.222 515.112 233.08 515.16Z" fill="white"/>
<path d="M237.043 518.187C236.9 518.218 236.726 518.203 236.583 518.123C236.314 517.965 236.218 517.6 236.393 517.347C236.456 517.252 237.788 515.144 239.531 514.367C241.845 513.321 243.557 514.637 243.636 514.684C243.89 514.874 243.921 515.239 243.731 515.477C243.525 515.714 243.16 515.762 242.923 515.572C242.875 515.54 241.671 514.652 240.038 515.397C238.628 516.047 237.423 517.933 237.407 517.949C237.312 518.06 237.185 518.155 237.043 518.187Z" fill="white"/>
<path d="M238.818 276.613C238.818 276.613 244.984 286.17 244.302 296.108C243.621 306.061 245.206 317.536 236.314 317.028C227.407 316.521 211.542 320.595 206.486 312.844C201.446 305.11 238.818 276.613 238.818 276.613Z" fill="#2E3052"/>
<path d="M241.1 294.174C241.1 294.174 242.701 308.597 235.854 312.559C229.007 316.522 224.062 312.1 224.062 312.1C224.062 312.1 238.485 292.003 241.1 294.174Z" fill="#000B29"/>
<path d="M212.683 294.11C212.683 294.11 210.226 290.83 208.404 293.54C206.581 296.25 209.164 304.254 213.634 302.304L212.683 294.11Z" fill="#FC8664"/>
<path d="M212.65 299.832C212.492 299.832 212.333 299.721 212.286 299.562C211.589 297.09 209.037 296.091 209.005 296.076C208.815 295.996 208.72 295.79 208.783 295.584C208.862 295.394 209.069 295.283 209.275 295.362C209.401 295.41 212.207 296.503 213.015 299.34C213.078 299.546 212.952 299.753 212.746 299.8C212.714 299.816 212.682 299.832 212.65 299.832Z" fill="#FD664D"/>
<path d="M210.067 298.58C210.004 298.58 209.924 298.564 209.861 298.517C209.687 298.406 209.639 298.168 209.75 297.994C209.766 297.962 210.226 297.281 211.177 296.853C211.367 296.774 211.589 296.853 211.684 297.043C211.763 297.233 211.684 297.455 211.494 297.55C210.764 297.883 210.4 298.406 210.4 298.406C210.305 298.517 210.194 298.58 210.067 298.58Z" fill="#FD664D"/>
<path d="M237.994 294.11C237.994 294.11 240.451 290.83 242.273 293.54C244.096 296.25 241.512 304.254 237.043 302.304L237.994 294.11Z" fill="#FC8664"/>
<path d="M238.025 299.832C238.184 299.832 238.342 299.721 238.39 299.563C239.087 297.09 241.639 296.092 241.671 296.076C241.861 295.997 241.956 295.791 241.893 295.585C241.813 295.395 241.607 295.284 241.401 295.363C241.275 295.41 238.469 296.504 237.661 299.341C237.598 299.547 237.724 299.753 237.93 299.801C237.962 299.816 237.994 299.832 238.025 299.832Z" fill="#FD664D"/>
<path d="M240.61 298.58C240.673 298.58 240.752 298.564 240.816 298.517C240.99 298.406 241.038 298.168 240.927 297.994C240.911 297.962 240.451 297.281 239.5 296.853C239.31 296.774 239.088 296.853 239.009 297.043C238.93 297.233 239.009 297.455 239.199 297.55C239.928 297.883 240.293 298.406 240.293 298.406C240.372 298.517 240.483 298.58 240.61 298.58Z" fill="#FD664D"/>
<path d="M231.384 309.088V317.044C231.384 317.044 229.007 321.101 225.805 321.371C222.604 321.656 219.751 317.884 219.751 317.884V309.642L231.384 309.088Z" fill="#F9AF8B"/>
<path d="M231.384 309.088V312.622C229.229 315.015 225.409 315.855 219.751 315.015V309.642L231.384 309.088Z" fill="#FC8664"/>
<path d="M239.77 288.658C239.627 291.749 239.326 295.616 238.739 298.707C238.597 299.484 238.422 300.197 238.248 300.847C236.568 306.711 232.384 316.759 220.655 312.575C215.473 310.721 213.08 304.951 212.002 299.087C211.273 295.109 211.162 291.083 211.225 288.199C211.289 285.267 212.889 282.572 215.441 281.13C222.367 277.2 229.658 278.674 234.476 280.512C237.804 281.812 239.944 285.092 239.77 288.658Z" fill="#F9AF8B"/>
<path d="M241.291 288.04C241.165 288.389 240.832 288.611 240.388 288.738C240.42 289.578 240.34 290.576 240.245 291.543C239.786 297.011 238.407 297.962 238.09 296.615C237.884 295.711 237.9 290.576 237.995 288.896C236.917 288.833 235.998 288.643 235.998 288.643L234.73 283.333L234.286 288.579C232.384 289.245 227.946 288.183 227.946 288.183L226.456 282.953L225.537 287.977C222.684 289.372 219.118 288.437 219.118 288.437L218.294 283.016L216.408 288.437C216.408 288.437 210.322 290.624 210.259 288.437C210.211 287.169 211.146 283.587 211.939 280.829C212.794 277.802 214.776 275.25 217.47 273.824C225.014 269.766 232.986 271.922 235.728 273.57C241.529 277.009 241.291 288.04 241.291 288.04Z" fill="#2E3052"/>
<path d="M213.618 277.025C213.618 277.025 208.61 282.984 206.961 293.619C205.313 304.254 203.031 312.115 209.45 315.618C216.392 319.422 215.789 311.624 215.678 309.5C215.583 307.376 209.671 301.591 213.618 285.283C214.902 280.021 213.618 277.025 213.618 277.025Z" fill="#2E3052"/>
<path d="M212.444 298.992C212.444 298.992 212.444 299.008 212.444 298.992C212.444 299.087 212.444 299.499 212.476 300.165C212.492 300.577 212.524 301.068 212.555 301.639C212.793 305.221 213.49 311.418 215.535 313.558C216.343 314.413 217.896 314.826 219.735 315V312.179C217.801 311.259 216.296 309.754 215.123 307.899C214.394 306.33 213.158 303.89 212.571 300.038L212.444 298.992Z" fill="#000B29"/>
<path d="M239.864 302.479C239.864 302.97 239.468 303.366 238.976 303.366C238.485 303.366 238.089 302.97 238.089 302.479C238.089 301.988 238.485 301.591 238.976 301.591C239.468 301.591 239.864 301.988 239.864 302.479Z" fill="white"/>
<path d="M505.527 226.213H486.143C483.829 226.213 481.959 224.342 481.959 222.028V202.645C481.959 200.331 483.829 198.461 486.143 198.461H505.527C507.841 198.461 509.711 200.331 509.711 202.645V222.028C509.711 224.342 507.841 226.213 505.527 226.213Z" fill="#E95E2A"/>
<path d="M505.29 212.329C505.29 214.611 504.482 216.719 503.119 218.352C501.391 220.444 498.76 221.791 495.828 221.791C492.896 221.791 490.281 220.46 488.538 218.352C487.19 216.719 486.366 214.627 486.366 212.329C486.366 207.115 490.598 202.883 495.812 202.883C501.058 202.883 505.29 207.115 505.29 212.329Z" fill="#FFBBA6"/>
<path d="M503.119 218.352C501.392 220.444 498.761 221.791 495.829 221.791C492.897 221.791 490.281 220.46 488.538 218.352L488.665 218.098C488.871 217.686 489.156 217.337 489.489 217.052C489.822 216.767 490.234 216.545 490.662 216.418C492.199 215.943 493.626 215.467 494.434 214.104C493.451 213.645 492.802 212.725 492.532 212.076C491.454 212.297 490.694 210.332 491.264 209.793C491.486 209.587 491.708 209.54 491.898 209.556C492.072 207.543 493.768 205.752 495.829 205.752C497.889 205.752 499.585 207.543 499.759 209.556C499.95 209.54 500.171 209.603 500.393 209.793C500.964 210.316 500.203 212.297 499.125 212.076C498.888 212.805 498.095 213.676 497.366 213.977C498.174 215.356 499.458 215.959 500.996 216.418C501.424 216.545 501.82 216.767 502.168 217.052C502.501 217.337 502.787 217.686 502.993 218.098L503.119 218.352Z" fill="white"/>
<path d="M144.831 373.833H125.431C123.117 373.833 121.247 371.962 121.247 369.648V350.265C121.247 347.951 123.117 346.081 125.431 346.081H144.815C147.129 346.081 148.999 347.951 148.999 350.265V369.648C149.015 371.962 147.129 373.833 144.831 373.833Z" fill="#E95E2A"/>
<path d="M135.542 350.756C131.992 350.518 129.044 353.324 129.044 356.81C129.044 357.936 129.361 358.998 129.9 359.917C130.708 361.264 131.532 362.611 132.293 363.99L135.178 369.173L139.568 361.248C139.821 360.789 140.107 360.329 140.376 359.885C140.931 358.95 141.232 357.841 141.2 356.668C141.137 353.545 138.649 350.962 135.542 350.756ZM135.13 358.649C133.719 358.649 132.562 357.508 132.562 356.081C132.562 354.671 133.719 353.514 135.13 353.514C136.541 353.514 137.698 354.655 137.698 356.081C137.698 357.508 136.541 358.649 135.13 358.649Z" fill="white"/>
<path d="M602.142 235.357C605.566 235.357 608.339 238.131 608.339 241.554C608.339 244.978 605.566 247.751 602.142 247.751C598.719 247.751 595.945 244.978 595.945 241.554C595.945 238.131 598.719 235.357 602.142 235.357ZM602.142 245.802C604.488 245.802 606.39 243.9 606.39 241.554C606.39 239.209 604.488 237.307 602.142 237.307C599.797 237.307 597.895 239.209 597.895 241.554C597.879 243.9 599.797 245.802 602.142 245.802Z" fill="#43439E"/>
<path d="M579.826 213.612C583.249 213.612 586.023 216.386 586.023 219.809C586.023 223.233 583.249 226.006 579.826 226.006C576.403 226.006 573.629 223.233 573.629 219.809C573.629 216.402 576.418 213.612 579.826 213.612ZM579.826 224.073C582.172 224.073 584.074 222.171 584.074 219.825C584.074 217.48 582.172 215.578 579.826 215.578C577.48 215.578 575.578 217.48 575.578 219.825C575.578 222.155 577.48 224.073 579.826 224.073Z" fill="#E95E2A"/>
<path d="M572.171 193.484C572.71 193.484 573.138 193.912 573.138 194.451V198.73C573.138 199.269 572.71 199.697 572.171 199.697C571.632 199.697 571.204 199.269 571.204 198.73V194.451C571.204 193.912 571.632 193.484 572.171 193.484Z" fill="#43439E"/>
<path d="M572.172 185.971C572.711 185.971 573.139 186.399 573.139 186.938V191.218C573.139 191.756 572.711 192.184 572.172 192.184C571.633 192.184 571.205 191.756 571.205 191.218V186.938C571.205 186.415 571.633 185.971 572.172 185.971Z" fill="#43439E"/>
<path d="M566.148 191.868H570C570.539 191.868 570.967 192.296 570.967 192.835C570.967 193.374 570.539 193.802 570 193.802H566.148C565.61 193.802 565.182 193.374 565.182 192.835C565.182 192.312 565.625 191.868 566.148 191.868Z" fill="#43439E"/>
<path d="M574.342 191.867H578.194C578.732 191.867 579.16 192.295 579.16 192.834C579.16 193.373 578.732 193.801 578.194 193.801H574.342C573.803 193.801 573.375 193.373 573.375 192.834C573.36 192.311 573.803 191.867 574.342 191.867Z" fill="#43439E"/>
<path d="M606.391 217.495C606.93 217.495 607.357 217.923 607.357 218.462V222.741C607.357 223.28 606.93 223.708 606.391 223.708C605.852 223.708 605.424 223.28 605.424 222.741V218.462C605.424 217.939 605.852 217.495 606.391 217.495Z" fill="#E95E2A"/>
<path d="M606.391 209.999C606.93 209.999 607.357 210.426 607.357 210.965V215.245C607.357 215.783 606.93 216.211 606.391 216.211C605.852 216.211 605.424 215.783 605.424 215.245V210.965C605.424 210.426 605.852 209.999 606.391 209.999Z" fill="#E95E2A"/>
<path d="M600.368 215.895H604.22C604.758 215.895 605.186 216.322 605.186 216.861C605.186 217.4 604.758 217.828 604.22 217.828H600.368C599.829 217.828 599.401 217.4 599.401 216.861C599.401 216.322 599.845 215.895 600.368 215.895Z" fill="#E95E2A"/>
<path d="M608.563 215.895H612.414C612.953 215.895 613.381 216.322 613.381 216.861C613.381 217.4 612.953 217.828 612.414 217.828H608.563C608.024 217.828 607.596 217.4 607.596 216.861C607.58 216.322 608.024 215.895 608.563 215.895Z" fill="#E95E2A"/>
<path d="M218.373 156.223C221.796 156.223 224.57 158.996 224.57 162.42C224.57 165.843 221.796 168.617 218.373 168.617C214.949 168.617 212.176 165.843 212.176 162.42C212.176 158.996 214.949 156.223 218.373 156.223ZM218.373 158.172C216.027 158.172 214.125 160.074 214.125 162.42C214.125 164.765 216.027 166.667 218.373 166.667C220.719 166.667 222.62 164.765 222.62 162.42C222.62 160.074 220.719 158.172 218.373 158.172Z" fill="#43439E"/>
<path d="M195.804 135.761C199.228 135.761 202.001 138.535 202.001 141.958C202.001 145.381 199.228 148.155 195.804 148.155C192.381 148.155 189.607 145.381 189.607 141.958C189.607 138.535 192.381 135.761 195.804 135.761ZM195.804 137.695C193.459 137.695 191.557 139.596 191.557 141.942C191.557 144.288 193.459 146.19 195.804 146.19C198.15 146.19 200.052 144.288 200.052 141.942C200.052 139.612 198.15 137.695 195.804 137.695Z" fill="#E95E2A"/>
<path d="M187.627 171.184C187.627 171.723 188.055 172.151 188.594 172.151H192.873C193.412 172.151 193.84 171.723 193.84 171.184C193.84 170.646 193.412 170.218 192.873 170.218H188.594C188.055 170.202 187.627 170.646 187.627 171.184Z" fill="#43439E"/>
<path d="M180.129 171.184C180.129 171.723 180.557 172.151 181.096 172.151H185.375C185.914 172.151 186.342 171.723 186.342 171.184C186.342 170.646 185.914 170.218 185.375 170.218H181.096C180.557 170.202 180.129 170.646 180.129 171.184Z" fill="#43439E"/>
<path d="M186.009 165.162V169.013C186.009 169.552 186.437 169.98 186.976 169.98C187.514 169.98 187.942 169.552 187.942 169.013V165.162C187.942 164.623 187.514 164.195 186.976 164.195C186.453 164.195 186.009 164.623 186.009 165.162Z" fill="#43439E"/>
<path d="M186.009 173.34V177.191C186.009 177.73 186.437 178.158 186.976 178.158C187.514 178.158 187.942 177.73 187.942 177.191V173.34C187.942 172.801 187.514 172.373 186.976 172.373C186.453 172.373 186.009 172.817 186.009 173.34Z" fill="#43439E"/>
<path d="M233.02 137.695C233.02 138.233 233.447 138.661 233.986 138.661H238.266C238.804 138.661 239.232 138.233 239.232 137.695C239.232 137.156 238.804 136.728 238.266 136.728H233.986C233.447 136.728 233.02 137.172 233.02 137.695Z" fill="#E95E2A"/>
<path d="M225.521 137.695C225.521 138.234 225.949 138.662 226.488 138.662H230.768C231.306 138.662 231.734 138.234 231.734 137.695C231.734 137.156 231.306 136.728 230.768 136.728H226.488C225.949 136.728 225.521 137.172 225.521 137.695Z" fill="#E95E2A"/>
<path d="M231.415 131.688V135.539C231.415 136.078 231.843 136.506 232.382 136.506C232.921 136.506 233.349 136.078 233.349 135.539V131.688C233.349 131.149 232.921 130.721 232.382 130.721C231.843 130.721 231.415 131.149 231.415 131.688Z" fill="#E95E2A"/>
<path d="M231.415 139.865V143.717C231.415 144.256 231.843 144.684 232.382 144.684C232.921 144.684 233.349 144.256 233.349 143.717V139.865C233.349 139.327 232.921 138.899 232.382 138.899C231.843 138.899 231.415 139.327 231.415 139.865Z" fill="#E95E2A"/>
<path d="M491.42 167.618C491.547 167.65 491.689 167.65 491.832 167.618C493.306 167.254 494.162 167.111 494.162 167.111C494.606 167.032 494.907 166.635 494.828 166.223C494.748 165.811 494.32 165.526 493.877 165.605C493.845 165.605 492.957 165.764 491.42 166.144C490.976 166.255 490.723 166.667 490.834 167.079C490.913 167.349 491.135 167.555 491.42 167.618Z" fill="#DCEDF9"/>
<path d="M443.793 202.899C443.032 204.198 442.287 205.561 441.605 206.924C441.431 207.257 441.035 207.431 440.67 207.336C440.623 207.321 440.575 207.305 440.528 207.289C440.116 207.114 439.941 206.655 440.132 206.259C440.829 204.864 441.59 203.485 442.366 202.154C442.588 201.773 443.079 201.647 443.476 201.853C443.856 202.059 443.999 202.518 443.793 202.899Z" fill="#DCEDF9"/>
<path d="M439.671 211.077C439.085 212.455 438.514 213.882 438.007 215.324C437.864 215.705 437.436 215.926 437.024 215.831C437.008 215.831 436.977 215.815 436.961 215.815C436.533 215.673 436.295 215.245 436.454 214.833C436.977 213.375 437.547 211.917 438.15 210.506C438.324 210.11 438.799 209.92 439.211 210.078C439.639 210.221 439.845 210.68 439.671 211.077Z" fill="#DCEDF9"/>
<path d="M432.73 233.614C432.334 233.519 432.064 233.154 432.112 232.774C432.318 231.237 432.571 229.715 432.841 228.225C432.92 227.813 433.348 227.528 433.792 227.607C434.252 227.686 434.537 228.083 434.458 228.495C434.188 229.969 433.935 231.474 433.728 232.98C433.665 233.408 433.253 233.693 432.809 233.646C432.793 233.63 432.762 233.63 432.73 233.614Z" fill="#DCEDF9"/>
<path d="M436.01 218.7C436.454 218.811 436.708 219.239 436.581 219.651C436.375 220.333 436.185 221.014 436.01 221.68C435.804 222.457 435.598 223.249 435.408 224.042C435.313 224.454 434.869 224.723 434.425 224.628H434.409C433.982 224.533 433.712 224.121 433.807 223.709C433.997 222.9 434.203 222.092 434.425 221.3C434.616 220.618 434.806 219.921 435.012 219.223C435.139 218.827 435.566 218.589 435.994 218.684C435.994 218.684 436.01 218.685 436.01 218.7Z" fill="#DCEDF9"/>
<path d="M446.234 198.999C446.044 199.285 445.68 199.412 445.347 199.332C445.267 199.316 445.188 199.285 445.109 199.237C444.729 199.015 444.618 198.54 444.855 198.175C445.727 196.876 446.662 195.592 447.613 194.356C447.883 194.007 448.39 193.928 448.754 194.181C449.119 194.435 449.198 194.91 448.944 195.259C447.994 196.464 447.09 197.732 446.234 198.999Z" fill="#DCEDF9"/>
<path d="M487.218 168.934C485.728 169.409 484.207 169.948 482.701 170.534C482.527 170.598 482.353 170.614 482.194 170.566C481.956 170.503 481.734 170.344 481.639 170.107C481.465 169.71 481.671 169.266 482.083 169.108C483.605 168.522 485.158 167.967 486.695 167.476C487.123 167.333 487.583 167.555 487.741 167.951C487.884 168.347 487.662 168.791 487.218 168.934Z" fill="#DCEDF9"/>
<path d="M474.033 174.465C473.843 174.56 473.621 174.592 473.431 174.544C473.225 174.497 473.035 174.37 472.924 174.18C472.702 173.815 472.845 173.34 473.241 173.134C474.667 172.389 476.141 171.676 477.599 171.01C478.012 170.82 478.503 170.978 478.693 171.374C478.883 171.755 478.725 172.214 478.313 172.405C476.87 173.039 475.428 173.736 474.033 174.465Z" fill="#DCEDF9"/>
<path d="M458.485 185.1C458.279 185.29 457.978 185.354 457.724 185.29C457.582 185.258 457.439 185.179 457.328 185.068C457.011 184.751 457.043 184.276 457.36 183.975C458.548 182.929 459.8 181.898 461.053 180.932C461.401 180.662 461.924 180.71 462.21 181.043C462.495 181.375 462.447 181.851 462.099 182.12C460.862 183.071 459.642 184.07 458.485 185.1Z" fill="#DCEDF9"/>
<path d="M465.902 179.346C465.696 179.489 465.442 179.521 465.22 179.473C465.046 179.426 464.872 179.331 464.761 179.172C464.491 178.823 464.57 178.348 464.935 178.094C466.25 177.191 467.613 176.319 469.008 175.495C469.389 175.273 469.896 175.368 470.133 175.733C470.371 176.097 470.26 176.573 469.88 176.795C468.533 177.603 467.201 178.459 465.902 179.346Z" fill="#DCEDF9"/>
<path d="M451.875 191.677C451.669 191.915 451.336 192.01 451.035 191.931C450.924 191.899 450.813 191.852 450.718 191.772C450.369 191.503 450.322 191.012 450.607 190.695C451.653 189.506 452.746 188.349 453.856 187.224C454.173 186.907 454.68 186.907 455.013 187.192C455.346 187.477 455.362 187.968 455.045 188.285C453.967 189.379 452.905 190.52 451.875 191.677Z" fill="#DCEDF9"/>
<path d="M492.229 162.404L490.581 149.582L534.04 155.811L492.229 162.404Z" fill="#43439E"/>
<path d="M534.039 155.811L493.893 165.669L493.782 165.7L491.77 168.014L492.229 162.404L534.039 155.811Z" fill="#2D2D7B"/>
<path d="M491.77 168.014L495.383 167.967L493.782 165.7L491.77 168.014Z" fill="#8383CC"/>
<path d="M498.837 164.464L493.781 165.7L502.007 177.413L534.038 155.811L498.837 164.464Z" fill="#43439E"/>
</svg>
